<svg xmlns="http://www.w3.org/2000/svg" width="1009.9" height="255.2" viewBox="0 0 1009.9 255.2"><defs><style>.a{opacity:0.2;}.b{fill:#e5e1cf;}</style></defs><title>foliage_bottom</title><g class="a"><path class="b" d="M473.4,335.5c0.6-1.9,1.2-3.8,1.9-5.7a107.9,107.9,0,0,0,4-13.8,95.1,95.1,0,0,0,1.3-14.3c0.1-2.6.2-5.4,0.4-8,0.6-7.4-1.8-13.1-7.6-17.5-4-3.1-8.3-7-10.2-13.3-0.6-1.9-1-4-1.4-5.9a44.4,44.4,0,0,0-2.6-9.2,29.4,29.4,0,0,1-.8-22.7v-0.2c0.4-1.1,1.7-4.4,2.3-4.5s2.2,1.4,2.5,3.6l0.2,1.3c0.4,1.8.8,3.7,1.1,5.8l0.6,3.2,0.2,1.2,0.7-1.1,1.6-2.3a11.5,11.5,0,0,0,2.4-4.4,14.1,14.1,0,0,0-.3-5.1,25.4,25.4,0,0,1-.4-2.8v-0.2c-0.3-4.2-.6-8.6-0.6-12.8s-0.2-6.3-2-9.3l-1.5-2.3a15.3,15.3,0,0,1-3.2-6.8,29.7,29.7,0,0,1-.2-7.9v-0.9c0.2-1.7.4-4.1,1.1-5.4a13.3,13.3,0,0,1,2.7,3.9l0.7,1.3a25.1,25.1,0,0,1,2.7,6.4l0.3,1.2,0.6-1.1a8,8,0,0,0,.7-2.9,8.9,8.9,0,0,1,.5-2.3l0.6-1.2a9.8,9.8,0,0,0,1.1-3c0.3-2.3-.6-4.4-1.4-6.4a19.3,19.3,0,0,1-1.3-3.8,33,33,0,0,1-.2-10.7,47.2,47.2,0,0,1,2.8-10.3l1.4-2.8a60.3,60.3,0,0,0,3.1-6.4c2.6,4.6,2.7,9.5,2.8,14.6,0,1.5,0,3,.1,4.6v1.5l0.8-1.3,0.9-1.3,1-1.6,5-8.8,0.4-.6a12,12,0,0,0,1.4-3.2,54.4,54.4,0,0,1,9.2-19.8,81.9,81.9,0,0,1,7.1-8.4c1.3-1.4,2.6-2.3,3.1-2.3h0.2a2.2,2.2,0,0,1,.1,1.6,26.3,26.3,0,0,1-.5,2.6,25.7,25.7,0,0,0-.5,2.8,44.7,44.7,0,0,1-2.5,9.5,41.8,41.8,0,0,1-9.6,15.9,17.9,17.9,0,0,1-4.5,3.1c-2.3,1.2-4.6,2.5-6.1,5.5l-5,10.3c-0.3.6-.6,1.5-1,2.5s-1.8,4.9-2.9,5.8l0.6,0.8,9.1-7.4a41.7,41.7,0,0,1,7.9-5.4,20.3,20.3,0,0,1,8.4-1.9H503a1.1,1.1,0,0,1,.9.3c0.1,0.2.3,1-1.6,3.5-3.9,5.3-10.3,9.5-17.9,12s-12.1,4.5-12.6,12.2a7.9,7.9,0,0,1-.3,1.5,9.1,9.1,0,0,0-.4,1.7,25.8,25.8,0,0,0,0,3v2.8l0.8-.8,1.9-1.9,3.4-3.4c3.5-3.1,7.1-4.6,11-4.6h1.4a1.9,1.9,0,0,1,1.5.5,1.4,1.4,0,0,1-.3,1.1c-4.1,6.5-9.6,13.5-18.7,16.2a3.3,3.3,0,0,0-2.7,3.6v9.7a17.8,17.8,0,0,0,.4,2.9l0.3,1.7,0.2,1.3,8.7-13.4,0.4-.6c0.6-1,2-3.2,2.8-3.2a1.4,1.4,0,0,1,.9,1c1,2.3.5,6.3-.5,8.8a32,32,0,0,1-4.4,7.2l0.7,0.7c4.8-3.3,8.9-6.4,11.2-11.6s5.2-8.7,7.9-12.4a56.9,56.9,0,0,1,8.1-8.7,69.4,69.4,0,0,1,7.6-5.5l2.4-1.6,1.8-.8,0.8-.3h0.8v0.5a20.5,20.5,0,0,0-.5,2.4c-2.1,14-11.9,25.3-24.9,28.7-4.3,1.1-7.6,4.3-10.8,7.3l-2.7,2.5-0.3.2,0.6,1.6h0.4l1.8-.3a25.9,25.9,0,0,1,4-.4h0.3c3.3,0,6.8.1,10.9,0.4a2,2,0,0,1,1.3,1,2.1,2.1,0,0,1-.9,1.2l-3.2,1.5a66.2,66.2,0,0,1-10.1,4.2,43.4,43.4,0,0,1-8.7,1.3l-4.1.4H473v0.5l0.4,1.7c0.3,1.4.6,2.9,0.8,4.4s0.6,3.4,2.8,3.4h1.2l2.2-.2,3.1,0.2H485l1.3,0.4h0.3v0.4a3.2,3.2,0,0,1-.6,1.3,84.6,84.6,0,0,1-6.6,5.8c-1.6,1.2-1.7,2.4-1.4,4.3v0.9c2.4,15.6,4.7,30.3,4.1,45.8a106.2,106.2,0,0,1-6.8,34.9l-0.5,1h-1.4Zm-9.9-82.4v0.3c-1.9,8.3,2.5,15.4,15.6,25.5l1,0.7-3.6-28Zm6.9-21.8a32.6,32.6,0,0,0-6.9,14.8h0l1.1,1.1,0.3-.2,1.2-.8a17.4,17.4,0,0,1,2.6-1.6c5.7-2.6,4.6-7.1,3.3-10.2a9.6,9.6,0,0,1-.4-1.6l-0.3-1.4-0.2-1Z"/><path class="b" d="M560.2,335.5c1.8-9,.3-16.3-4.8-22.8l-0.4-.6-7.7-9.9-4-5.3a2.2,2.2,0,0,1-.6-1.7,1.3,1.3,0,0,1,.8-0.8,3.2,3.2,0,0,1,1.4-.3,4.2,4.2,0,0,1,2.5.9,24.9,24.9,0,0,1,8.5,10.3,44.7,44.7,0,0,0,2.6,4.9l1.1,2h-0.9l-2.6-4.9-2.8-5.2a18.5,18.5,0,0,0-4.3-5.2,6.3,6.3,0,0,0-3-1.6h-0.3a1.2,1.2,0,0,0-1,.8c-0.2.8,0.5,1.7,1.1,2.3l0.2,0.3,1.4,1.9c9.9,13.1,9.9,13.1,10.1,13.1h0.1l2-1.3,0.2,0.3,1.6-.5v-2a15.3,15.3,0,0,0-.3-3.6c-0.8-3.5-1.7-7-2.6-10.5s-1.8-7.3-2.7-11-4.4-7.5-7.7-10.6l-2.3-2.3-12-12.4a3.9,3.9,0,0,1-1.3-2.8,1.4,1.4,0,0,1,.8-1,3.2,3.2,0,0,1,1.7-.5c2.8,0,5.7,3.5,7.2,5.4l0.2,0.3,5.1,6.2,1.7,2.4,0.7,1.2,0.2,0.3,1.6-.6v-0.4l-1.4-4.6c-1.1-3.6-2.2-7.4-3.5-11-2.4-6.8-6.8-11.9-11.4-17.4l-2.3-2.7a51,51,0,0,1-5.7-8c-1.2-2.1-2.9-5.3-2.3-7.9a2.1,2.1,0,0,1,2-1.7,2,2,0,0,1,1.6,1c2.7,3.9,5.2,7.8,7.4,11.7,1.1,1.9,2.1,4,3,6l1.3,2.7,0.4,0.7,0.5-.7a2.7,2.7,0,0,0,.6-2l-0.9-6.6c-0.6-4.7-1.3-9.5-1.6-14.2s-1.1-9.8-4.4-15a92.3,92.3,0,0,1-6.8-12.8,16.1,16.1,0,0,1-.8-7,2.4,2.4,0,0,1,2.3-2h0.1c2.1,0.1,2.8,2.6,3.4,4.5l0.3,1,1.6,4.6,0.8,2.3c0.4,1.1.7,2.2,1,3.2l0.5,1.8h1.7l0.2-1.7,0.3-3,0.8-7.6V183a36.7,36.7,0,0,1,.7-3.9c0.3-1.2.5-2.5,0.7-3.8a21.9,21.9,0,0,0-.6-6.9l-0.3-1.5a185.1,185.1,0,0,1-2.9-32.3,3.7,3.7,0,0,1,.4-2.3,1.9,1.9,0,0,1,1.5-.7H540c2.1,0.3,2.9,3.3,2.9,5.1v15c0,2.1.1,4.5,0.2,6.6s0.1,2,.1,2.9V162l0.7-.3a2.2,2.2,0,0,0,1.2-1.3l2.7-6.8c2.1-5.3,4.2-10.8,6.6-16a43.2,43.2,0,0,0,4.3-14.3,58.9,58.9,0,0,0,0-7.2c-0.1-1.7-.1-3.5-0.1-5.2a31.5,31.5,0,0,1,1-6.9,2.9,2.9,0,0,1,2.9-2.4H563c1.7,0.2,2.1,1.3,2.2,3.1v0.5a17.8,17.8,0,0,1-.1,4.8c-0.8,3.3-1.6,6.9-2.7,11.1a48.6,48.6,0,0,1-2.4,6.7c-0.6,1.3-1.1,2.7-1.6,4.1a65.1,65.1,0,0,1-3.2,7.2l-1.8,3.7c-1.5,3.3-2.8,6.7-4,10l-1.1,2.8a7.1,7.1,0,0,0-.3,1.4l-0.2,1.2-0.3,1.3,1.1-.8,1.2-1,1.6-1.2,2-1.2a27.3,27.3,0,0,1,5.6-2.9l1.5-.2a4.8,4.8,0,0,1,4,2.1,2.9,2.9,0,0,1,0,3c-1,1.8-3.3,3.2-5.3,4.4l-1.8,1.2-1.4,1-7.2,5.1-1.6,1a7.5,7.5,0,0,0-3.3,2.8,14.3,14.3,0,0,0-1.2,5.2c-0.1.7-.1,1.4-0.2,2l-0.3,1.9-1.1,6.9a22.8,22.8,0,0,0-.2,2.6v1.5l1.4,0.5,1.1-1.5,2.1-2.8,0.5-.7a15.8,15.8,0,0,1,2.5-2.7,4.8,4.8,0,0,1,3-1.1,4.7,4.7,0,0,1,2.8,1,2.5,2.5,0,0,1,.8.9,2.4,2.4,0,0,1-.5,2.3l-1.4,2c-1.4,1.8-2.8,3.8-4,5.7s-3.8,6.2-5.6,9.5l-1,1.6c-1.1,1.6-2.2,3.2-1.9,5.7s0.5,5.1.6,7.6,0.2,4.2.4,6.3a62.6,62.6,0,0,0,1.2,6.9l0.6,3h1.7v-0.5l0.2-1.4c0.1-1,.2-2,0.4-3l0.5-2.7c0.6-3.2,1.3-6.5,2.2-9.6a5.2,5.2,0,0,1,4.4-3.9h0.6a4,4,0,0,1,2.2.6,3.1,3.1,0,0,1,0,2.1c-0.5,1.9-1.2,3.8-1.8,5.6s-1.3,3.9-1.9,6c-1.2,4.1-2.4,8.2-3.8,12.3h0a17.4,17.4,0,0,0-1.2,5.1,13.9,13.9,0,0,0,.9,4.6l0.4,1.2c0.8,2.7,1.7,5.5,2.6,8.2l1.5,4.5a2.4,2.4,0,0,0,.6.8l0.8,0.9,0.8,0.9,0.3-3.6c0.2-1.6.3-3.2,0.5-4.9,0.4-4.1.8-8.3,1.4-12.4a7.2,7.2,0,0,1,2.3-4.2,4.4,4.4,0,0,1,2.4-.8,1,1,0,0,1,1.2.7,2.3,2.3,0,0,1,0,1l-0.2,1.1c-0.6,3.7-1.3,7.4-2,11.1-0.3,1.4-.7,2.9-1,4.3a58.7,58.7,0,0,0-1.5,6.6,63.1,63.1,0,0,0,.5,20.5,84.9,84.9,0,0,0,2.5,9.3l1.3,4.2,0.2,0.8,0.6-.5a4.7,4.7,0,0,0,1.3-2.2c0.3-.9.5-1.8,0.8-2.7,0.9-3.2,1.8-6.5,4.6-8.4a2.3,2.3,0,0,1,1.3-.5l1.1,0.3c1.8,0.8,1.5,2,1,3.7-2.2,7.3-4.3,14.4-6.5,21.5-0.4,1.3-.9,2.6-1.3,3.8a46.9,46.9,0,0,0-2.1,6.6,62.7,62.7,0,0,0-.9,7.2c-0.1,1.4-.2,2.8-0.4,4.2h-1.8Zm11-46.4-0.7.2c-1.5.8-3,4.3-3.6,5.7a56.5,56.5,0,0,0-2.8,11.7c-0.2,1.5-.5,3-0.8,4.5v0.4l1.9,0.7,6.1-17.9,0.4-.9c0.6-1.3,1.5-3,.5-4.1a1.3,1.3,0,0,0-1-.4h0ZM536,257a0.8,0.8,0,0,0-.7.3,1.9,1.9,0,0,0,.1,1.7c1.5,3.9,5.4,8.4,10.2,12a17.2,17.2,0,0,0,2.7,1.7l0.4-.9a5.7,5.7,0,0,1-.9-1.4l-0.3-.6-1.5-2.3c-1-1.5-2-3.1-3.2-4.6a35.3,35.3,0,0,0-3.9-4.2c-0.1-.1-2-1.8-3-1.8H536Zm19.4,9.9,1.1,0.3,0.2-1,0.4,0.6,3.4-16,0.2-.8c0.6-1.9,1-3.6.2-4.3a1.6,1.6,0,0,0-1-.4,1.4,1.4,0,0,0-.9.3,2.1,2.1,0,0,0-.6,1.1l-0.5,1.7a47.2,47.2,0,0,0-1.9,8c0,0.4-.2,2.1-0.4,4.2s-0.5,5.5-.5,5.8l0.5-.4v1h-0.2Zm-27.9-47.3h-0.3a1.1,1.1,0,0,0-.6.6c-0.6,1.4.8,4.9,1,5.3a27.7,27.7,0,0,0,8.9,11.3l0.9,0.7v-1.3c-0.4-3.1-2-6.1-3.8-9.2a43.9,43.9,0,0,0-3-4.7l-0.3-.4c-1.1-1.3-1.9-2.4-2.8-2.4h0Zm25.6-2.3-0.7.2c-1,.6-1.9,2.3-2.7,3.8l-0.2.3a21.4,21.4,0,0,0-2,7.2c-1,7.8-1,7.8-.5,8l0.9,0.3,0.3-.9,0.3,0.5L551,229c1.1-3.4,2.8-8.2,2.9-9v-0.2a2.2,2.2,0,0,0-.1-2.1,1.3,1.3,0,0,0-.7-0.5h0Zm-2-31.6c-1.5,0-3.1,2.2-4.3,3.8l-0.7.9c-3.5,4.3-5.3,8.2-5.4,12.3a1.7,1.7,0,0,0,.3.8l0.4,0.9,0.4,0.8,2.8-4,4.9-7,2.9-4.5c0.1-.2,1.1-1.9.5-3.1a1.7,1.7,0,0,0-1.6-.8h-0.2ZM530,181.3h-0.5c-2.1,1-.9,5.4.5,8.9s3.1,6.1,5.3,7.7l0.6-.8a10.4,10.4,0,0,1-.6-3c0-.4-0.1-0.8-0.1-1v-0.2c-0.3-1.4-.6-2.9-1-4.4-1.3-4.9-2.7-7.5-4.1-7.5h0v0.3Zm30-28h-0.8c-3.8.6-6.1,3.1-8.3,5.6l-1.5,1.6A26.8,26.8,0,0,0,546,165l-0.5.7a6.9,6.9,0,0,0-1.5,3.4v0.6h0.6a5.4,5.4,0,0,0,2-1.2l0.7-.6,1-.8,6.5-4.5,2.3-1.5a20.4,20.4,0,0,0,5.4-4.1h0.1a2,2,0,0,0,.7-1.5,1.8,1.8,0,0,0-.8-1.2,4.7,4.7,0,0,0-2.6-1H560Zm-20.1-19.5a0.9,0.9,0,0,0-.7.4,2.7,2.7,0,0,0-.4,1.3,17.1,17.1,0,0,0,.1,3.2c0,0.5.1,0.9,0.1,1.3l0.8,11.1,0.8-1c1.8-2.2,1.7-6,1.6-8.7a25.1,25.1,0,0,0-.6-4.9v-0.3a5.2,5.2,0,0,0-.6-1.7,1.4,1.4,0,0,0-1.1-.8h0ZM563,103.9c-1.1,0-1.7,1.5-2.1,2.3h-0.1a18.1,18.1,0,0,0-1.2,4.6,26.1,26.1,0,0,0,.7,10.6l1-.3a5.9,5.9,0,0,1,.5-1.3l0.3-.7,0.8-2.4a35.8,35.8,0,0,0,1.1-4.5,29.8,29.8,0,0,0,.3-4.9,5.2,5.2,0,0,1,0-.6,2.6,2.6,0,0,0-.5-2.4l-0.5-.3H563Z"/><path class="b" d="M919.9,334.4h-2.3c-0.6-.4-0.1-3,0.2-4.2a12.8,12.8,0,0,0,.3-1.8c0.1-2.7-.1-5.3-0.2-7.9a50.5,50.5,0,0,0-1.5-9.2c-0.3-1.3-.6-2.7-0.8-4a39.1,39.1,0,0,0-.9-4.7c-0.5-1.6-1.8-2-3.1-2.3l-5.8-1.6h-6.3a21.7,21.7,0,0,1-7-2c-9.1-4.4-16-10.4-20.9-18.2a85.6,85.6,0,0,1-5.2-10v-0.3c-3.8-8.1-3.4-9.9-3.2-10.2h0.4a8.1,8.1,0,0,1,3.1,1.5l1.2,0.7a53.4,53.4,0,0,0,5,2.6,72.4,72.4,0,0,1,23.2,16.5,45.8,45.8,0,0,1,9.5,13.6l0.2,0.5a6,6,0,0,0,1.7,2.7,3.8,3.8,0,0,0,1.9.7,1.2,1.2,0,0,0,1.2-.7c0.4-.7-0.2-1.9-0.7-2.7l-0.2-.4c-4.9-10.9-11.5-21.6-21.5-34.7a79.2,79.2,0,0,1-8-12.4l-0.9-2-1.2-2.6-0.4-1c-1-2.4-1.6-3.5-2.2-3.8l-2.2-.9c-5.8-2.3-11.3-4.4-15.6-8.6h-4.4l-8.5-.2H844c-17.3,0-33.2-5.9-43.7-16.3a105.6,105.6,0,0,1-19.2-26.1,5.2,5.2,0,0,1-.4-1.3v-0.7c2.6,0.2,5.3.5,7.8,0.9l5.6,0.7c5.9,0.6,13.5,1.8,20.5,5.9l0.7,0.4a9.3,9.3,0,0,0,4.9,1.8h0.7V191a3.2,3.2,0,0,0-.1-1.3l-2.2-6c-1.4-3.7-2.8-7.6-4-11.4a63.8,63.8,0,0,0-4.7-10.6c-1-1.8-1.9-3.7-2.8-5.6s-0.7-2.2-.4-2.7a1.5,1.5,0,0,1,1.3-.5h0a15.1,15.1,0,0,1,5.4,1.4l1.4,0.5,1.4,0.5c3.9,1.4,7.9,2.9,11.8,4.5,7.4,3.1,14.5,6.5,19.4,13.1a3.6,3.6,0,0,0,1.3.9l0.7,0.4,0.6,0.4,2-7.8,2.6-10.1,0.5-2a92.5,92.5,0,0,1,4.1-13.4c0.4-.9.8-1.5,1.7-1.5h0.3c0.5,0.1,1.6,1.6,3.2,4.7l0.4,0.8,2.9,5.3,0.4,0.7,1.8,3.5c0.6,1.3,1.2,2.6,1.9,3.8l1,2.1a16.7,16.7,0,0,0,2.7,4.4l0.4,0.5,0.4-.5a12.9,12.9,0,0,0,1.9-5.2l0.2-1c1.4-6.5,4.7-12.9,10.3-20.2l2.1-2.9c1.7-2.5,3.4-5,5.8-6.6l2.4,3.3a49.9,49.9,0,0,1,6.4,10.6,37.9,37.9,0,0,1,2.5,16.4v0.6a4.8,4.8,0,0,0-.1,1.6v0.4h0.5c1.5,0,3.1-1.6,4.3-2.8l0.5-.5,2-2,2.2-2.2,9.3-8.7c1.3-1.2,2.6-2.4,4.3-2.7a6,6,0,0,1,.9,3.7v1.2a113,113,0,0,1-1,23.2,53.9,53.9,0,0,1-9.3,23.6,104.5,104.5,0,0,1-15.7,18.6,69.9,69.9,0,0,1-9.5,7.4l-2.7,1.5c-2.6,1.3-5.2,2.7-6.5,5.1a15.4,15.4,0,0,1-4.8,5.3l-0.8.5c-1.7,1-2.5,1.5-2.6,2v0.5a2.4,2.4,0,0,0-.1.9c0.5,3.7,2.6,7.4,4.4,10.7h0.1a95.5,95.5,0,0,0,6.8,10.4c4.5,6.1,9.2,12.5,13.3,19.1a97.3,97.3,0,0,1,4.8,8.8,94.7,94.7,0,0,0,5,9.1,1.8,1.8,0,0,0,1.3.9l0.6-.2a1.4,1.4,0,0,0,.5-1.1c0.1-1.2.3-2.4,0.4-3.5s0.6-4.8.7-7.2a34,34,0,0,1,.5-4.4,34.2,34.2,0,0,0,.5-4.7c0.1-2.2-1.2-4.3-2.2-6.1l-1.5-1.3a61.8,61.8,0,0,1-3.1-6.2,17,17,0,0,1-.9-6.4,22.8,22.8,0,0,1,3.2-12.2l1.2-1.9,3.4-5.6,0.4-.8a34.2,34.2,0,0,1,4.2-6.3,1.5,1.5,0,0,1,.9-0.6,1.4,1.4,0,0,1,1,.8c2.3,3.4,2.2,7.4,2.2,11.3v0.9c0,4.6-.2,9.3-0.5,14.1s-0.6,8.9-3.9,12-3.7,6.3-3.8,9.5a29.4,29.4,0,0,1-.6,4.4,28.7,28.7,0,0,0-.5,3.1v0.5a2.6,2.6,0,0,0,1.1,3.1l0.4,0.2L930.1,274l0.2-1.2c0.2-1,.4-2.3.6-3.6,1.2-5.5,3-9.3,5.9-12.5a60.1,60.1,0,0,1,7.4-6.6l2.5-2,0.9-.9c1.3-1.2,3.6-3.5,4.9-3.5h0.4a1.5,1.5,0,0,1,.4,1,26.7,26.7,0,0,1-.6,8.6l-0.5,2.3c-0.4,1.9-.7,3.8-1.2,5.6a24.7,24.7,0,0,1-9,13,21.2,21.2,0,0,1-6.6,3.3,22.1,22.1,0,0,1-3.7.8h-2.1a2.7,2.7,0,0,0-1.7.3c-5.2,4.6-7,6.9-9.4,12.1-1,2.2-2,4.2-1.5,6.9v0.7c0.5,2.8,1,5.6,1.4,8.4,1,7,1.7,14.5,2.2,23.5a10.3,10.3,0,0,0,.2,1.3,4.9,4.9,0,0,1,.1,2.2A0.9,0.9,0,0,1,919.9,334.4Zm-51.2-65.9a2.1,2.1,0,0,0,.3,1.7l1.5,3a34.8,34.8,0,0,0,5,8.3,50.6,50.6,0,0,0,10.1,9c3.8,2.6,7.6,5,11.6,5.8l1.8,0.2h0.3a5.2,5.2,0,0,0,2.1-.4l0.8-.3-0.7-.5-3.1-2.2c-3.1-2.2-6.2-4.5-9.2-6.9A142.2,142.2,0,0,1,878.4,276l-1.3-1.4a31.6,31.6,0,0,0-7.7-6.4l-0.5-.2Zm-1.9-7.2c1,4.1,3.7,6.5,6.3,8.8l1.1,0.9,5.4,5,8.1,7.4c2.5,2.2,4.8,4.1,7.1,5.9l3.8,2.8,0.4,0.3a5.6,5.6,0,0,0,2.8,1.4H902a1.6,1.6,0,0,0,1.2-1.1,2.8,2.8,0,0,0,0-1.4,8,8,0,0,0-.8-2,36.8,36.8,0,0,0-4.5-6.1l-0.8-1a64.8,64.8,0,0,0-6.6-6.8,85.1,85.1,0,0,0-15.2-10.7L870,262l-2.4-1.2-1-.5Zm84.3-13.1a16,16,0,0,0-3.2,4.2l-0.9,1.4-4.4,6.6-8.7,13.1a1.5,1.5,0,0,0-.1,1.1v1h0.5c3.5-.2,6.6-1.8,9.5-5.1a25.8,25.8,0,0,0,6.5-12.6c0.2-1.3.5-2.7,0.8-4l0.2-.9,0.2-.8c0.3-1.2.7-2.8,0.2-3.9l-0.3-.6Zm-4.4,2.3a3.3,3.3,0,0,0-1.9.8l-2.4,2.1-1.8,1.7a23.6,23.6,0,0,0-8.3,13.7,3.9,3.9,0,0,0,0,1.2,1.1,1.1,0,0,0,.3.6l0.2,0.2,0.3,0.4,0.4-.3,0.4-.2a2.2,2.2,0,0,0,.9-0.8,56,56,0,0,1,5-7l1.3-1.7a69.9,69.9,0,0,0,6.3-10l0.3-.6h-1Zm-27.1-13.8c-4.8,4.7-8,11.1-8.2,16.3s1.8,10.6,3.6,14a1,1,0,0,0,.9.6h0.3a0.9,0.9,0,0,0,.4-0.5,4.4,4.4,0,0,0,.3-1.4v-0.2a102.3,102.3,0,0,1,1.5-10.9c0.4-2.1.8-4.3,1-6.4l0.3-2.3a40,40,0,0,0,.7-8.8V236Zm3.6-6.1a14.7,14.7,0,0,0-1.3,4.9v0.4l-0.2,2c-0.1,1.2-.3,2.3-0.5,3.5-0.6,2.8-1,5.6-1.5,8.7v0.3c-0.4,2.7-.8,5.6-1,8.4a10.9,10.9,0,0,0-.1,1.8,24.9,24.9,0,0,1-.2,2.5,7.6,7.6,0,0,0,.2,3.7l0.2,0.5,0.5-.2a4.4,4.4,0,0,0,2.3-2.6c1.8-4,2.4-8.3,2.7-13.5,0.1-2,.3-4,0.5-5.9s0.5-4.7.5-7.1a19.1,19.1,0,0,0-.4-5.6,8.2,8.2,0,0,0-.6-1.6l-0.4-.8Zm-45.6-6.1a55.9,55.9,0,0,0-9.5,1,5.1,5.1,0,0,0-4.1,2.6l-0.2.4,0.3,0.3c2.5,2,5.3,3.9,8.9,3.9l2.3-.3c4.6-1,7.1-3.1,8.3-6.7l0.2-.5h-0.5a26.1,26.1,0,0,0-5.7-.5v-0.2Zm-92.4-37.3,0.3,1.3a4.8,4.8,0,0,0,.6,1.8c4.9,7,10,14.2,16.6,20.2a36.8,36.8,0,0,0,11,7.1c6.3,2.6,14.6,5.6,23.7,6.3l6.5,0.2h0.6a1.3,1.3,0,0,0,.9-0.5l0.3-.3,0.5-.4-0.5-.4-0.3-.3a2.5,2.5,0,0,0-1-.7l-1.1-.3c-2.9-.9-5.8-1.9-8.8-2.7a74.7,74.7,0,0,1-24.2-11.7,138.4,138.4,0,0,1-16.1-13.7,37,37,0,0,0-8.3-6.4l-1-.6ZM867,153.7l-0.5.2a0.8,0.8,0,0,0-.2.7c0,0.5.1,1.1,0.1,1.6a72.7,72.7,0,0,0,2.4,12.7,169.3,169.3,0,0,1,3.7,19.7l0.9,5.9a85.6,85.6,0,0,1,.8,20.5,37,37,0,0,0,.1,5.5,2.3,2.3,0,0,0,2.5,2.1h0l1.1-.2a3.6,3.6,0,0,0,2.4-2.7l0.3-1.3a42.1,42.1,0,0,0,1.1-5.7,76.7,76.7,0,0,0-1.8-25l-0.9-3.8-1.2-5.2a116.2,116.2,0,0,0-4-13.2,37.3,37.3,0,0,0-1.6-3.5l-1.3-2.9a13.8,13.8,0,0,0-3.1-5.1A1,1,0,0,0,867,153.7Zm56.4,11.9A93.9,93.9,0,0,1,909,193.8,127.8,127.8,0,0,1,897.8,207c-1.5,1.5-3,3-4.6,4.4l-2.5,2.3a37.7,37.7,0,0,0-3.5,3.6l-0.5.5c-0.8.8-1.9,2-1.9,3.1a1.5,1.5,0,0,0,1.5,1.5h0.1c1.8,0,4.8-2,6.3-2.9l0.6-.4a74.3,74.3,0,0,0,11.9-8.8,82.8,82.8,0,0,0,15.7-19.5c3.5-5.9,7.2-13.1,8.1-21.2,0.5-4,.8-8.3,1.2-13.6a12.4,12.4,0,0,0-.3-3l-0.2-1.3v-0.3h-0.9a1.9,1.9,0,0,0-1.8,1.7h0a18.8,18.8,0,0,0-.5,2.3,20,20,0,0,1-.4,2,20.9,20.9,0,0,1-.9,2.3,15.6,15.6,0,0,1,.5-2.7,22,22,0,0,0,.5-2.2h-1v-0.2l-0.5.6-0.6.8-0.7,1-0.6.9a156.1,156.1,0,0,1-9.8,13l0.6-1a33.3,33.3,0,0,1,2.8-4l2.2-2.9c1.3-1.7,2.7-3.5,3.9-5.3a17,17,0,0,0,2.8-5.5V152l-0.2-.2a1.8,1.8,0,0,0-1.2-.5,2.1,2.1,0,0,0-1.3.6h-0.2l-1.1.8a41.6,41.6,0,0,0-4,3.2,189.5,189.5,0,0,1-14.6,12.8c-8.4,6.5-14,15.7-17.2,27.9a61.1,61.1,0,0,0-1.8,9.3,35.8,35.8,0,0,0-.3,4.9V211c-0.1,3.5.1,4.3,0.4,4.6l0.5,0.2h0.4l0.3-.4a45.9,45.9,0,0,0,3.4-7.3l1.5-4.2c0.6-1.7,1.3-3.6,2-5.3a32.7,32.7,0,0,1,4.5-8.1l0.7-.9,1.7-2.2a2.7,2.7,0,0,1,.8-0.8,2.9,2.9,0,0,1-.3.8c-0.9,1.6-1.9,3.2-2.9,4.7a58.8,58.8,0,0,0-4,6.7,76,76,0,0,0-3.5,8.7l-0.2.5c-1.2,3.4-1.5,4.6-1,5.1a1.3,1.3,0,0,0,1,.4c1.6,0,3.9-2.4,6-4.7l0.8-.8a114.8,114.8,0,0,0,27.2-40.8Zm-63.8-22.1c-1.5,1.4-1.9,3.8-2.2,6a6.9,6.9,0,0,1-.3,1.8,75.8,75.8,0,0,0-1.4,8.3,114,114,0,0,0-.6,17,81.3,81.3,0,0,0,5.6,26,120.2,120.2,0,0,0,8,17.9c0.4,0.8,1,1.8,2.1,1.8l1-.3H872v-0.5a1.5,1.5,0,0,0,.2-1l-1.1-4.5a106.2,106.2,0,0,0-3.2-11.2,152,152,0,0,1-6.1-24.1,108.9,108.9,0,0,1-1.7-18.4c0-3,0-6.2.2-9.4v-1.1c0.1-1.2.1-2.5,0.3-3.7v-0.7a6.5,6.5,0,0,0,.1-2.2,2.5,2.5,0,0,0-.8-1.5l-0.3-.3h0Zm-61.4,49h-1.8l0.3,0.7c1.1,2.5,4.3,5.6,11.6,11.2,11,8.4,23.5,12.6,39,16.4l0.6,0.2v-0.6a3.3,3.3,0,0,0-2.1-3.1l-0.5-.3-8.4-5.6-9.2-6.1h-0.2l-1.2-1h0l1.2,0.6a5.1,5.1,0,0,0,2,.9h0.8L830,205c-1.1-3-4.2-5.5-6.6-7.5l-0.4-.3a30.7,30.7,0,0,0-3.3-2.2l-2.2-1.4a45.7,45.7,0,0,0-23.1-8.1h-0.3l-1.7.2-1.3.2h-0.9l0.6,0.7a17.2,17.2,0,0,0,6.3,4.2l6.8,2.9,5.7,2.4,7.2,3.1,1.4,0.5c1.3,0.5,2.7,1,3.4,2l-0.9-.4-3-1.5-6.2-2.6-10.2-3.8-2.6-1h-0.5Zm39.2,5.2A41.5,41.5,0,0,1,842,203a49.4,49.4,0,0,0,3.9,4.7c2.9,2.9,6.2,6,10,9.4a15,15,0,0,0,2.3,1.6l1.9,1.2,0.7-.7a97.1,97.1,0,0,0-7.5-11.4l-0.9-1.2-5.3-7.6-4-5.7c-2.1-2.9-4.5-6.3-7.2-9.6s-4.4-5.2-6.7-7.7l-1.9-2.1-1.2-1-0.8-.6-0.6-.5-0.2.7c-0.5,1.4.2,2.6,0.8,3.7l0.3,0.5,1.4,2.4a56.8,56.8,0,0,1,3,5.8l-3.5-5.9-4.7-7.8a61.7,61.7,0,0,0-9.3-11.4,3.3,3.3,0,0,0-1.4-1l-0.8-.2,0.2,0.8a19.3,19.3,0,0,0,1.8,4.4l1,2.1c1,2.4,1.9,4.8,2.8,7.3l2.3,6.6,0.7,1.9a20.5,20.5,0,0,1,1.4,4.4,38.7,38.7,0,0,0,7.6,13.7,68.7,68.7,0,0,0,8.7,8.1l3.3,2.7c4.7,4.1,6,4.8,12.4,6.8h0.3l0.2-.2a1.4,1.4,0,0,0,.5-1.1,1.8,1.8,0,0,0-.8-1.2l-0.2-.2-2.5-2.5-2.9-2.9-2.9-2.9a65.7,65.7,0,0,1-6.2-7.6,4.9,4.9,0,0,1-.7-1.2h0.1Zm15.8-26.2-0.6.4a1.1,1.1,0,0,0-.8.8l-0.2,2.7a56.2,56.2,0,0,0-.1,13.6,50.6,50.6,0,0,0,5.8,17.1l1.3,2.4a36.1,36.1,0,0,0,3.2,5.5,1.9,1.9,0,0,0,1.4.9l0.6-.3a1.7,1.7,0,0,0,.3-1.3h0l-0.7-2.1a44.9,44.9,0,0,0-1.7-4.6c-4.3-9.5-6.1-19.9-7.2-28.7-0.2-1.3-.2-2.6-0.3-3.9a18.2,18.2,0,0,1-.1-2v-0.8Zm9.5-24.4c-4.8,12,.7,48.8,9.6,64.5l0.8,1.5v-1.7c0-.5.1-1.1,0.1-1.7a25.6,25.6,0,0,0,.1-3.7l-0.2-2.7a105.4,105.4,0,0,0-1-11.4c-0.9-5.1-1.9-10.3-2.9-15.3s-1.4-7.2-2.1-10.8l-0.3-1.5c-0.7-3.7-1.4-7.5-1-11.3s-0.1-3.1-2.2-5.6l-0.8-1v0.7Zm-48.6,11.7a0.7,0.7,0,0,0-.7.4,0.8,0.8,0,0,0,.1.8,6.6,6.6,0,0,0,2.4,2.1h0.2a8.9,8.9,0,0,1,1.8,1.3l5.2,5a120.1,120.1,0,0,1,10.4,11.3l3.7,4.4a80.1,80.1,0,0,1,7,9.8,95.4,95.4,0,0,0,5.8,8.4l0.3,0.4,1.6,1.8a8.8,8.8,0,0,0,1.9,1.2h0.6v-0.6a9.6,9.6,0,0,0-.9-2.4l-0.5-1.1c-0.6-1.4-1-2.8-1.4-3.9a44.5,44.5,0,0,1-2-7.5,15.3,15.3,0,0,0-3.1-6.5,61.6,61.6,0,0,0-7.6-8.6c-6.1-5.6-14.3-12.5-24.2-16.3h-0.6Zm78.4-19.7a5.8,5.8,0,0,0-2.6,3.8l-0.3.9c-0.6,1.6-1.2,3.2-1.7,4.7l-1.6,4.5a82.2,82.2,0,0,0-4.8,17.9c-0.9,6.4-1.6,13.9,1.9,21.9l1-.2v-1.4a9.2,9.2,0,0,0,.1-1.5,40,40,0,0,1,2-11,178.5,178.5,0,0,0,6.6-28,56.4,56.4,0,0,0,.6-7.5c0-1,.1-1.9.1-2.9a1.4,1.4,0,0,0-.4-0.9l-0.2-.2-0.2-.4Zm2.4,2.6a348.4,348.4,0,0,1-8.2,42.2l0.9,0.4,0.4-.4,0.8-1,0.9-1.3c1.8-2.7,3.6-5.5,5.3-8.3a10.2,10.2,0,0,0,1.2-3.2,69.9,69.9,0,0,0,1.8-21.7v-0.5c-0.2-2.2-.4-4.5-2.1-6.5l-0.7-.9v1.1h-0.3Zm-77.1,15.1a1.5,1.5,0,0,0-.9.3l-0.5.4,0.5,0.4a71.6,71.6,0,0,0,6.8,4.7l5.5,3.7,1.3,0.9,3.5,2.7c1.4,1.1,2.9,2.2,4.2,3.4l4.3,4.1,1.3,1.5a13.8,13.8,0,0,0,2.9,2.9l0.4,0.3,0.3-.4a3.6,3.6,0,0,0,.1-4.3c-2.2-4.2-4.8-8.5-9.6-11-0.3-.4-1.2-0.9-3.9-2.1l-0.9-.4-5.1-2.7-4.9-2.3-3.9-1.8a3.4,3.4,0,0,0-1.5-.4h0.1Zm70-13.9a1.6,1.6,0,0,0-1.3,1v0.2c-3.2,5-6.7,11.1-8.5,18.2a20.4,20.4,0,0,0-.2,10.4,3.8,3.8,0,0,0,.5,1l0.4,0.7,0.4,0.8,0.4-.8a15.7,15.7,0,0,0,1.6-5.3,21,21,0,0,1,.6-2.8c0.4-1.3.8-2.6,1.1-3.9s0.7-2.6,1.1-3.9,1.6-4.9,2.5-7.1l0.9-2a17.9,17.9,0,0,0,1.8-5.6v-0.3l-0.2-.2a1.7,1.7,0,0,0-1.2-.5h0.1Zm9.6-7.1h-0.6v0.6a87.7,87.7,0,0,1,.9,30.7v0.4l0.3,0.2,1.1,0.3a1.9,1.9,0,0,0,1.5-1l0.3-.3a16.4,16.4,0,0,0,4.8-12.1c-0.1-6.8-1.5-12-4.4-16.3l-0.2-.3a3.7,3.7,0,0,0-3.4-2.1h-0.3Z"/><path class="b" d="M743.9,183.6l0.3-1.1A2.6,2.6,0,0,0,743.9,183.6Z"/><path class="b" d="M735.7,332.8h-0.1l-0.4-.7a13.9,13.9,0,0,1-.8-2.4v-0.2c-2.3-9.5-2.4-9.7-9.7-16.2l-6.2-5.4-2.6-2.2a0.6,0.6,0,0,1,.6-0.6l0.7,0.3a66.8,66.8,0,0,1,5.7,4.7l3.3,3.3,1.3,1.4,0.2,0.2H728a1.7,1.7,0,0,0,1.5-1.9v-0.3l-0.5-2.9c-0.3-1.6-.5-3.3-0.8-4.9a8.6,8.6,0,0,0-4-6.4c-3.1-2-6.1-4.2-9.1-6.4l-3.1-2.2-0.9-.8h0.5a4.3,4.3,0,0,1,2.3,1l1,0.6a30.9,30.9,0,0,1,3.4,2.1l0.7,0.5,3,2.1,2,1.4,0.2-.6,0.3-.7a2.2,2.2,0,0,0,.3-1.2c-0.3-3.1-.8-6.2-1.1-9.3v-0.6a3.2,3.2,0,0,0-.4-1.1,14.5,14.5,0,0,0-4.7-4.5l-1.6-1.2a7.1,7.1,0,0,0-4.6-1.4h-1.6l-2.7.2a3,3,0,0,1-1.4-.2l0.3-.3,1.4-.4c1.6-.5,2.9-0.8,2.7-1.7s-1.9-2.7-3.2-3.6a7.8,7.8,0,0,1-2.5-2,0.8,0.8,0,0,1,.2-0.5h0.7a16,16,0,0,1,3.2,2.1l5.2,4.1,4.5,3.6a2.4,2.4,0,0,0,1.5.7,2.1,2.1,0,0,0,1.1-.3l0.3-.2v-0.3l-0.2-1.3a31.1,31.1,0,0,1-.4-3.2c-0.1-1.1-.2-3.1-0.2-4.5v-0.4a6,6,0,0,0-3.2-5.3l-9.1-5.1-3.8-1.9-3.3-1.6a1,1,0,0,1-.2-0.6l0.6-.3a6.8,6.8,0,0,1,2.2.6l9.7,4.9,2.9,1.6,2.3,1.3v-0.8a22.2,22.2,0,0,0-.5-6,23.1,23.1,0,0,1-.5-4.2v-0.2h-0.2a57.8,57.8,0,0,0-11.1-6.8l-4.8-2.3-1.6-.8a1.9,1.9,0,0,1-.9-0.6,0.5,0.5,0,0,1,.1-0.4l1-.2H701a7.1,7.1,0,0,1,2.2.8l6.9,3.4,3.4,1.7,0.4,0.2a4.4,4.4,0,0,0,2,.8,0.9,0.9,0,0,0,.7-0.3,1.1,1.1,0,0,0,.3-0.8,19.5,19.5,0,0,0-1.2-6.1v-0.4h-0.8c-1.6,0-3.7-1.4-5.3-2.6l-1.4-.9a8.3,8.3,0,0,1-1.6-1.4l0.2-.4h0.5l2,0.5,1.5,0.9a7.3,7.3,0,0,0,3.7,1.6h0.9l0.7-.2-0.5-.6a2.1,2.1,0,0,1-.3-1.3,2.6,2.6,0,0,0-.7-2,5.8,5.8,0,0,0-2-.9l-1.1-.4-4.1-2-4.7-2.4-1.8-.8a12.9,12.9,0,0,1-3-1.5,1.5,1.5,0,0,1,1.1-.9l0.7,0.2,7.5,3.5,3.7,1.7a5.5,5.5,0,0,0,2.1.7,1,1,0,0,0,.9-0.4c0.3-.5.2-1.2-0.3-2.5s-2.9-2.4-4.4-2.9l-0.7-.2-4.2-1.5-1.4-.8-0.4-.2h0.1l0.6-.4,3.3,0.9,0.9,0.3,0.8,0.3a12.9,12.9,0,0,0,3.6,1.1l0.7-.2c0.5-.5.3-1.8-0.5-4.6l-0.2-.9a3.8,3.8,0,0,0-.5-1.4c-0.5-.8-1.9-1.3-3.2-1.8l-1.3-.5-1.9-1-3.8-2-1.4-1.1-0.3-.3a1,1,0,0,1,1-.8l0.7,0.2,3.2,1.8,2,1.1,0.4,0.2a5.4,5.4,0,0,0,2.7.9l1.1-.2h0.3v-0.3a10.1,10.1,0,0,0-.6-5.2,15.6,15.6,0,0,1-.8-3.3v-0.4H709l-1-.2-2-.4h-2.8l-3.1-.2a5.4,5.4,0,0,1-2.1-.6,2.3,2.3,0,0,1-.6-0.8h0.1l0.7-.5,3,0.3,2.4,0.3h3.6V201a2.1,2.1,0,0,0-1-2.8H706l-3-1.1-3.1-1.1-6.8-2.8-0.3-.3a1.4,1.4,0,0,1,.4-1,22,22,0,0,1,5.2,1.6,19.1,19.1,0,0,0,7,1.8h0.3v-0.3a3.7,3.7,0,0,0-.5-3.7h-0.1a25.5,25.5,0,0,0-5.2-6.1c-2.9-2.6-5.7-5.5-8.4-8.2l-1.5-1.5a0.7,0.7,0,0,1-.2-0.5,0.5,0.5,0,0,1,.3-0.4h0.8l1.7,1.6,1.1,1.1,7.3,6.7a1.2,1.2,0,0,0,.9.2H703v-0.5c0.3-2.6.2-5.3-2.5-7.9a72,72,0,0,0-9.7-7.8l-0.7-.4a5.3,5.3,0,0,1-2.4-2.3h0c2,0,3.4,1,4.9,2.2a12.9,12.9,0,0,0,3,1.8h0.3l0.2-.2a1.5,1.5,0,0,0,.4-2.1l-0.2-.2h-0.1l-2.5-3.6-3.1-4.6-7.4-11.1a0.8,0.8,0,0,1-.2-0.6l0.3-.3h0.2l0.7,0.2a9.2,9.2,0,0,1,1.5,1.8l6.1,9,2,3,1.8,2.8,0.5,0.8a8,8,0,0,0,2.1,2.5l0.6-.8L699,166v-3.8c0-.3-0.4-2.2-0.6-3.2l-0.3-1.5c-0.6-2.9-1.2-6.1-2-9.3a16.5,16.5,0,0,0-2.9-5.9,100.4,100.4,0,0,1-7.9-12.5l-1.5-2.4-1.2-1.8c-1.3-2.1-2.6-4.2-3.7-6.4a1.2,1.2,0,0,1-.1-1,1.4,1.4,0,0,1,.7-0.7,37.6,37.6,0,0,1,4.8,7.1l1.9,3.2a33.9,33.9,0,0,1,1.9,3.6c1.2,2.5,2.4,5.1,4.8,7.2l0.6,0.5,0.2-.7,0.2-.7a2.1,2.1,0,0,0,.2-1.1l-0.3-1.7a108.7,108.7,0,0,0-4.3-17.6,107.1,107.1,0,0,0-4.4-9.8l-2.4-5.1c-2-4.4-3.9-8.9-5.7-13.1a1.5,1.5,0,0,1,.3-1h0.2l0.8,0.3a20,20,0,0,1,1.6,3.5c1.1,2.7,2.3,5.6,3.9,8.8l0.8,2c0.8,2.1,1.8,4.4,3.3,5.6l0.8,0.6v-1a63.9,63.9,0,0,0-1.3-10.4,74.6,74.6,0,0,1-1.2-8.6c-0.6-4.1-2.5-6.7-5.8-8.1a22.5,22.5,0,0,1-3.8-2.2,1.2,1.2,0,0,1-.1-0.6l0.6-.2,3.3,1.5,0.9,0.5a6.3,6.3,0,0,0,2.7,1.1h0.5V80.6a5.1,5.1,0,0,0-.6-2.1,58.3,58.3,0,0,0-3.3-6.2,56.3,56.3,0,0,1-3.6-7.1l-0.6-1.1c-0.5-.8-1.1-1.8-0.9-2.4a0.5,0.5,0,0,1,.5-0.4,0.8,0.8,0,0,1,.6.4l1.9,3.1a30.2,30.2,0,0,0,4,5.8l1,1V70.2a16.1,16.1,0,0,0-.6-3,17.7,17.7,0,0,1-.5-2.6l-1.7-13.4a1.2,1.2,0,0,1,0-.6,2.2,2.2,0,0,1,.9-0.7l0.4,0.3a2.8,2.8,0,0,1,.7,2.3v2.1q0.3,4,.5,8v2.2c0,2.5,0,5.3,1.4,7.2l0.6,0.8,0.2-1,0.5-2.3c0.8-3.8,1.6-7.6,4-10.6h0.4l0.3,0.2a15.9,15.9,0,0,1-.4,2.7l-1.5,6.1c-0.8,3.1-1.5,6.2-2.3,9.3a7.9,7.9,0,0,0-.1,2.2v2.5l0.8-.7,0.8-.6a4.5,4.5,0,0,0,1.1-1l1.8-2.7,2.4-3.5a0.6,0.6,0,0,1,.5-0.3,1.3,1.3,0,0,1,.8.4v0.3a7.4,7.4,0,0,1-.7,1.3l-2.1,2.5-2.3,2.9a11.1,11.1,0,0,0-2.5,8.7c0.3,2,.5,4,0.8,6s0.3,2.9.5,4.3a18.3,18.3,0,0,0,.8,3l0.3,1.1h0.5a1,1,0,0,0,.9-0.8,42.7,42.7,0,0,0,1.2-4.4l1.1-5.1,1.1-5.5c0.2-1,.4-1.7,1.4-2a16.9,16.9,0,0,1-.8,6.6,31.5,31.5,0,0,0-.8,3.7,48,48,0,0,1-1.1,5,32.8,32.8,0,0,0-1.3,7.5h1a6.4,6.4,0,0,1,1.4-2.3l0.6-.8,0.9-1.6,0.9-1.6a0.5,0.5,0,0,1,.5-0.3,1.4,1.4,0,0,1,.8.4v0.3a6.9,6.9,0,0,1-.5,1.4l-1.7,2.9-1.5,2.6c-2,3.5-3,6.6-2,10.3,0.5,1.9.9,3.8,1.3,5.7s0.5,2.7.8,4a12.9,12.9,0,0,0,.9,2.3l0.8,1.8,1-.2,0.3-4.3,0.6-9.3v-0.2c0.1-1.1.1-2,1.2-2.5h0.1a4.5,4.5,0,0,1,.4,1,6.6,6.6,0,0,1,.1,1.8c-0.4,4.8-.7,9.8-0.7,15.2v7.6a5.7,5.7,0,0,0,.1,1.3,17.6,17.6,0,0,1,0,2.4,7.8,7.8,0,0,1-.1.8q-0.1.4-.1,0.8a2.9,2.9,0,0,0,.3,1.6l0.4,0.8,0.5-.8a19.5,19.5,0,0,0,1.4-3.1,15.3,15.3,0,0,1,1.6-3.4h0.8v0.3a3.9,3.9,0,0,1-.3,1.1l-1.1,3.2-2.1,6.4a5.7,5.7,0,0,0-.3,2.7c0.8,4.3,1.8,8.9,2.8,13.6a3,3,0,0,0,.9,1.3l0.6,0.7,0.4,0.5,0.4-.5a6.9,6.9,0,0,0,1.3-3.7v-0.7a96.7,96.7,0,0,1,3.2-14.9,9.6,9.6,0,0,0,.2-5.1c-0.9-4.5-1.8-9.1-2.6-13.6l-0.7-3.9a3.2,3.2,0,0,1,0-1.2l0.3-.3h0.9a3.3,3.3,0,0,1,.8,1.5l0.3,1.2a25,25,0,0,1,1.1,7.4,8,8,0,0,0,.2,1.8l0.2,1.1v1l0.7-.7a9.2,9.2,0,0,0,2.5-5.1h0l1.6-7.5c0.7-3.1,1.3-6.3,2.1-9.5a40.8,40.8,0,0,0-.1-17.4c-0.5-2.5-1.1-5-1.6-7.4s-1-4.4-1.4-6.6a0.9,0.9,0,0,1,.1-0.7,1.3,1.3,0,0,1,1-.3h0.1a11.5,11.5,0,0,1,1.6,5.4,22.5,22.5,0,0,0,.6,3.2,38.1,38.1,0,0,1,1,5.7,15.4,15.4,0,0,1,.1,1.6,8.1,8.1,0,0,0,.5,3.4l0.4,1,0.5-.9a31.2,31.2,0,0,0,2.4-8.9c0.2-1,.3-2,0.5-2.9h0a3.1,3.1,0,0,0,.1-1c-0.1-1-.3-2-0.4-3-0.5-3.9-.9-7.9-2.5-11.6-0.7-1.8-1.5-3.6-2.1-5.3l-0.8-2a1.2,1.2,0,0,1,.8-0.7,1,1,0,0,1,.7.5,8.7,8.7,0,0,1,1.1,2.9,15.8,15.8,0,0,0,.6,1.9,58.5,58.5,0,0,0,2.6,5.8,0.8,0.8,0,0,0,.5.4h0.1a0.8,0.8,0,0,0,.6-0.4c2.1-3.2,2.1-8.6,2.2-11.9V69.9a15.6,15.6,0,0,1,.1-2.3,2.5,2.5,0,0,1,.5-0.9h0a2.4,2.4,0,0,1,.3.9c-0.2,3.3-.5,6.8-0.8,10.3a22.1,22.1,0,0,1-.5,2.6,16.6,16.6,0,0,0-.5,3.7h1c0-.8,1.2-2,2-2.8l0.6-.6,1.7-2.1,1.4-1.8,0.5-.7a3.9,3.9,0,0,1,1-1.1l1.2-.2h0.2a4.9,4.9,0,0,1-1.3,2.6l-0.6.8L731.2,81,725,90.2a3.8,3.8,0,0,0-.7,3.4V94h0.4a6.7,6.7,0,0,0,2.9-1.3,5,5,0,0,1,2.7-1.1h0l-0.2.4-2.5,2.3-0.7.6a13.5,13.5,0,0,0-4.3,4.8,14.9,14.9,0,0,0-.9,4.3l-0.2,1.3a10.1,10.1,0,0,0-.1,4.2l0.3,1.1,0.6-1a14.7,14.7,0,0,1,2-3l2.6-2.9,3.7-4.1a1.6,1.6,0,0,1,1.1-.6l0.7,0.2v0.2l-0.9,1.3-11.4,14.4c-0.8,1.1-1.8,2.3-1.1,4.3l0.2,0.5,0.5-.2a10.5,10.5,0,0,0,2.8-1.8l1.3-1,0.6-.4a5.4,5.4,0,0,1,2.5-1.2h-0.1l-1.2,1.4-2.8,2.5-3.5,3.2a6.3,6.3,0,0,0-1.9,2.5,50.7,50.7,0,0,0-2.2,10.5v0.9l0.8-.4a7.2,7.2,0,0,0,2.8-3.1l0.6-1,2.3-3.3,3.7-5.2h0.7a1.2,1.2,0,0,1,.2.6l-0.7,1.2-0.5.8-3.3,5.6c-2.6,4.5-5.4,9.1-7.9,13.7s-4.4,12.6-5.5,19.1c-0.7,4.1-1.1,8.3-1.4,12.4-0.1,1.6-.3,3.2-0.4,4.9a1.4,1.4,0,0,0,.3.9l0.2,0.3,0.2,0.4,0.4-.2a2.7,2.7,0,0,0,1.6-2.4,3.4,3.4,0,0,1,.3-1.1,11.5,11.5,0,0,0,.9-1.9,11,11,0,0,1,.8-1.7l0.2-.4c0.5-.9.9-1.5,1.8-1.5h0.1a1.6,1.6,0,0,1,.1.6l-2.7,6.4-1.9,4.6a13.5,13.5,0,0,0-1.1,7,7.2,7.2,0,0,0,.7,2l0.5,1.2,0.3,0.8,0.5-.7,0.9-1.1,1.4-1.9L714,190l2.2-3.3a5.6,5.6,0,0,1,1.3-1.2h0.3l0.2,0.3a22.3,22.3,0,0,1-1.5,2.9l-0.2.3a50.7,50.7,0,0,0-5,9.4c-1.3,3.7-.7,8.8,1.7,13.6l0.3,0.6,0.5-.5a6.6,6.6,0,0,0,1.7-3.6,14,14,0,0,1,.4-1.6l0.8-2.3c0.5-1.3,1-2.7,1.4-4h0l0.7,0.2a1,1,0,0,1,.1.8,11.1,11.1,0,0,1-.8,2.7c-2.6,5.8-5.1,14.3-2.8,21.9l0.2,0.8,0.6-.5a7.6,7.6,0,0,0,1.8-3.6l0.3-1.1,1.7-5,0.6,0.2a1.3,1.3,0,0,1,0,1.1c-1,3.7-2,7.3-3.2,10.9a12.6,12.6,0,0,0-.5,6.1l2.2,13.7c0.5,2.8.9,5.5,1.4,8.3,0.1,0.7.3,1.3,0.4,2l0.3,1.1H722a1.4,1.4,0,0,0,1.5-1.5v-0.8c0.9-5.8,1.8-11.9,2.6-17.8a9.4,9.4,0,0,0-1.4-6.5,52.7,52.7,0,0,1-2.9-5.6l-0.3-.5,0.3-.5,0.6,0.2a8.4,8.4,0,0,1,1.1,2,8.8,8.8,0,0,0,1.6,2.4l0.9,1.2,0.8-.6v0.4l0.5-1.2,0.6-1.5,0.6-2.6,0.3-1.4a7.7,7.7,0,0,0-.8-4.7l-0.3-.9-3-8.1-1.1-3a1.3,1.3,0,0,1,.8-0.5,0.4,0.4,0,0,1,.4.3,31.9,31.9,0,0,1,1.9,5.5V215c0.5,1.9,1,4.1,2.9,5.2l0.5-.9a0.4,0.4,0,0,1,.2.3c-0.1-.7,1.6-6.2,2.2-8l0.3-1.1a7.5,7.5,0,0,0-1-6c-1.8-3.2-3.4-6.6-5-10l-0.3-.6a1.8,1.8,0,0,1,.2-1.3,1.6,1.6,0,0,1,1.2.7l0.8,1.8,0.6,1.4,2,3.9,0.4,0.9c0.5,1.1,1.1,2.6,2.1,3l0.4,0.2,0.2-.3c1.5-2.2,2.2-5.2,2.9-7.9a19.1,19.1,0,0,1,.7-2.8,6.7,6.7,0,0,0-.3-4.2c-2-5.7-3.9-11.7-5.6-16.9a3.5,3.5,0,0,1,.6-2l0.4,0.9a32.3,32.3,0,0,1,1.7,4l1.5,5.1,0.2,0.6a12.9,12.9,0,0,1,.3,1.7,7.5,7.5,0,0,0,1.1,3.5,1.7,1.7,0,0,0,1.3.8c1,0,1.5-1.2,1.8-2.1v-0.2c0.5-1.2.9-2.5,1.3-3.7s0.8-2.4,1.3-3.6c1.1-2.8,2.3-6.1,2.1-9.2a37.8,37.8,0,0,0-.7-5.5,47.8,47.8,0,0,1-.6-5.3,13.6,13.6,0,0,1,.1-2.9v-0.3h0.6a35.6,35.6,0,0,1,1,4.7l0.2,1.2a14.2,14.2,0,0,0,1.3,4.8l0.3,0.6,0.5-.4a16.9,16.9,0,0,0,3.8-5.6l0.7-1.3V158l-1.2-3.4-3.4-9.4a10.5,10.5,0,0,1-.5-1.8h0c-0.1-.8-0.2-1.2.3-1.6s0.7,0.2,1.8,4v0.3l0.5,1.5a30.5,30.5,0,0,0,2.8,6.9,1,1,0,0,0,.8.6h0.3a0.9,0.9,0,0,0,.5-0.5c1.5-2.9,1.7-5.7,1.9-9a56.2,56.2,0,0,1,2.6-13,1.4,1.4,0,0,1,.3-0.6,1.7,1.7,0,0,1,.8-0.5l0.3,0.5a7.2,7.2,0,0,1-.3,1.4l-0.2.9-0.3,1.4-1.2,5.9a12.6,12.6,0,0,0,0,4.7l0.2,1,0.7-.7a48.2,48.2,0,0,0,4.3-5.6l1.7-2.5,3.2-4.3,0.9-1.4a7.1,7.1,0,0,1,1.5-2.2,1.7,1.7,0,0,1,1-.3H773l-0.2.4c-1.2,1.6-2.4,3.2-3.7,4.7l-1.8,2.3a69.9,69.9,0,0,0-6.2,9.9l-0.2.4,0.2,0.3a1.5,1.5,0,0,0,1.2.7,1.7,1.7,0,0,0,1.1-.5h0.1l2-1.7,4.5-3.6a2.9,2.9,0,0,1,1.5-.5h0.3a0.8,0.8,0,0,1-.1.6c-0.2.6-1.8,1.7-2.7,2.3l-1,.7c-2.9,2.2-6.2,4.8-8.5,8.2l0.8,0.6a14.1,14.1,0,0,1,3.5-.7l1.2-.2,0.8-.2,1.7-.4h0.3l-0.9.4-1.2.5a14.7,14.7,0,0,1-3,1.4l-5.2,1.6a6,6,0,0,0-4,3.3l-0.8,1.4c-1.5,2.4-2.6,4.5-2.2,5.8l0.9-.4v0.5l6.3-4.7,4.3-3.2,0.7-.3h0.1a0.5,0.5,0,0,1,0,.2,1.8,1.8,0,0,1-.6.9l-3.3,3.6h1a31.4,31.4,0,0,1,4.9.7l0.9,0.4-0.7.2h-1.8l-2-.2c-4,0-6.9,2.4-9,4.5l-0.8.8a30.1,30.1,0,0,0-4.8,5.6c-1.5,2.5-3.4,6.2-3.5,9.2h1l0.2,0.3,0.4-.4c1.1-1.1,2.2-2.4,3.2-3.6a33.2,33.2,0,0,1,5.9-5.9,1,1,0,0,1,.3.6,1.1,1.1,0,0,1-.4.8l-2.6,2.8-1.8,1.9-1.7,1.9-2.9,3.3a24.4,24.4,0,0,0-5.1,7.9l-0.8,1.7c-1.1,2.3-2.4,5-1.9,7.5v0.7l0.6-.3a11.4,11.4,0,0,0,2.6-2l1.7-2,2.2-2.5a1.6,1.6,0,0,1,.9-0.3h0.3a1.2,1.2,0,0,1-.4.7,44.5,44.5,0,0,1-3.4,3.5,27.9,27.9,0,0,0-6.2,8.1,30.1,30.1,0,0,0-1.9,4.7l-0.5,1.2a5.7,5.7,0,0,0-.7,3.4l0.2,0.8,0.6-.5,0.9-.7a8.1,8.1,0,0,0,2-1.8l4.8-6.2,0.4-.3,0.4,0.2h0a2,2,0,0,1-.3.7l-3.1,4c-1.9,2.4-3.8,4.9-5.6,7.4a16.3,16.3,0,0,0-3.1,11v-0.2h0.5a2.7,2.7,0,0,0,2.5-1.5l0.3-.5,2.2-2.9a32.9,32.9,0,0,1,5.7-6.5l0.4-.3,1.1-.8h0.2a1.4,1.4,0,0,1,.2.7l-1,1.2-0.5.6-2.1,2.5L731,236a6.9,6.9,0,0,0-.9,1.5l-0.3.7-0.2.5,0.5,0.2,1.1,0.3a2.5,2.5,0,0,0,1.7-.9l0.4-.3,1.4-1.2,1.2-1.1,2.4-1.7,1.7-.9,0.4-.2a0.7,0.7,0,0,1,.3.4,0.6,0.6,0,0,1-.2.4l-2.6,2.1-2.8,2.2-1.6,1.3a30,30,0,0,0-3.7,3.2c-0.5.5-2.6,4-2.1,5.1a0.8,0.8,0,0,0,.7.5,2.3,2.3,0,0,0,1.2-.5l1.5-1,3.5-2.2a3.2,3.2,0,0,1,1.6-.4,1,1,0,0,1,.6.4v0.2l-1,.5-1.2.6-1.2.7a34.7,34.7,0,0,0-3.9,2.4c-4.3,3.2-4.8,8.8-4.7,11.9v0.8l0.7-.4a14.3,14.3,0,0,0,2.6-2.2l1.7-1.6h0.6a1.3,1.3,0,0,1-.1.6l-3.2,4.2H727a22,22,0,0,0-4.1,8.6,5.8,5.8,0,0,0,.8,5.4l0.3,0.4,0.4-.2a6.2,6.2,0,0,0,2.4-3l0.6-1.1,0.4-.6a5.1,5.1,0,0,1,2-2.3h0a1.8,1.8,0,0,1,.1.8,17.1,17.1,0,0,1-1.4,2.6l-0.2.3a23.9,23.9,0,0,0-3.3,10,2.1,2.1,0,0,0,.4,1.2l0.4,0.7,0.3,0.7,3.4-4,0.4,0.3a1.4,1.4,0,0,1-.1.9l-1.3,3.2-1.7,4.2c-0.6,1.4-.5,4.6,1.2,7.2l0.5,0.8,0.4-.9,1-2.4,2.4-5.5a9,9,0,0,1,1.6-2l0.5-.5h0.2a1.5,1.5,0,0,1,.3.7,8.9,8.9,0,0,1-.9,1.9v0.2c-2.9,4.9-4.2,10.6-4.1,17.4a20.1,20.1,0,0,0,.9,4.9l0.4,1.5a2,2,0,0,0,.8,1l0.5,0.4,0.6,0.5,0.2-.8,0.9-3c1.1-3.8,2.2-7.5,4.7-10.7a3.3,3.3,0,0,1-.2,2.3,3.4,3.4,0,0,0-.1,2.8v0.2h0.2l0.9,0.2a5.3,5.3,0,0,0,1.9-.5,4.5,4.5,0,0,1,1.6-.4,1.6,1.6,0,0,1,.9.3c0.1,0.2,0,.3-0.5.5l-1.3.7-4.6,2.4a4.7,4.7,0,0,0-2.4,3.5l-0.3,1.4a32.5,32.5,0,0,0-.8,9.5c0,0.4.4,2.8,0.8,4.9s0.5,3.1.7,3.8h-0.4Z"/><path class="b" d="M724,147.2a4,4,0,0,1-1.8-.4c-2-1-2.5-2.4-2-5.3a4.5,4.5,0,0,1,4.2-4,5.5,5.5,0,0,1,4.5,2.3,4.9,4.9,0,0,1,.8,2.9c-0.2,2.5-3.2,4.5-5.7,4.5h0Z"/><path class="b" d="M707.7,122.5l-1.3-.3c-2.6-1.2-4.6-5.6-3.7-8.3a3.7,3.7,0,0,1,2.3-2.5l2.2-.6h0.9a4.7,4.7,0,0,1,3.5,1.1,4.2,4.2,0,0,1,1,3.2,9,9,0,0,1-3,6.7,2.7,2.7,0,0,1-1.9.8h0Zm0.9-10.7-1.2.2a4.3,4.3,0,0,0-3.1,5c0.3,1.7,1.4,3.5,3.2,3.5H708c2.3-.6,3.6-3.6,3.3-5.9a2.8,2.8,0,0,0-2.7-2.9h0Z"/><path class="b" d="M762.3,186.8a3.4,3.4,0,0,1-2.3-1.1,5.8,5.8,0,0,1-1.2-5.9,2.9,2.9,0,0,1,2.9-2h1l1.6,0.2a2.8,2.8,0,0,1,2.2,2.7,6.5,6.5,0,0,1-1.7,4.6,3.5,3.5,0,0,1-2.5,1.3h0v0.2Zm0.2-7.7a2.4,2.4,0,0,0-1.7.7,1.8,1.8,0,0,0-.5,1.4,10.5,10.5,0,0,0,.6,2.9,1.5,1.5,0,0,0,1.4,1.2,2.4,2.4,0,0,0,1.7-.9,4.4,4.4,0,0,0,1.1-3.2,2.3,2.3,0,0,0-2.2-2h-0.4Z"/><path class="b" d="M719.4,159c-1.2,0-2.9-1.4-3-2.4a2.7,2.7,0,0,1,.7-2,3,3,0,0,1,2-1.1h0.2a3.2,3.2,0,0,1,3.3,2.4,2.5,2.5,0,0,1-.7,1.9,3.4,3.4,0,0,1-2.4,1.3h-0.1Z"/><path class="b" d="M728.4,155.3a2.4,2.4,0,0,1-2.2-1.4,2.7,2.7,0,0,1,1.1-2.8,3.2,3.2,0,0,1,1.7-.5,2.3,2.3,0,0,1,2.2,2c0.2,1.1-.4,2.4-2.4,2.7h-0.4Z"/><path class="b" d="M668,205.2a0.8,0.8,0,0,1-.8-0.7,0.6,0.6,0,0,1,.3-0.8H668c1.3-.7-0.5-10.6-2.2-18.7a161.1,161.1,0,0,0-5-18.4A183.5,183.5,0,0,0,648.5,139l-0.3-.5-0.5.4a23.2,23.2,0,0,1-14.5,5.2h-2.5c-6.4-.7-11.5-4.6-16.4-8.3l-2.3-1.7a1,1,0,0,1-.4-0.8,0.5,0.5,0,0,1,.2-0.5,10.1,10.1,0,0,1,6.2-1.7h1l8.4,0.6,3,0.2h2.7a56.5,56.5,0,0,1,5.7.4l0.3-.9-1.8-1.2-1.1-.8q-2.6-1.6-5.1-3.6a78.1,78.1,0,0,1-9.5-8.6,55,55,0,0,1-7.7-9.8,2.5,2.5,0,0,1-.3-2.3,1.5,1.5,0,0,1,1.4-.6h0.5c5.9,0.7,12.8,4.5,18.7,10.2a39.2,39.2,0,0,1,7.8,10.8l0.9-.2a137.7,137.7,0,0,1,1.6-21.1,0.8,0.8,0,0,1,.8-0.7,0.7,0.7,0,0,1,.6.4c5.5,10.2,10.4,24,2.4,31.7l-0.3.3,0.2,0.3a141.7,141.7,0,0,1,15.2,33.7,156.2,156.2,0,0,1,5.1,21.2c0.6,3.5,1,7,1.4,10.6a12.5,12.5,0,0,1,.1,1.7v0.3h0.3a0.9,0.9,0,0,1,.4.9,0.4,0.4,0,0,1-.5.3H669l-0.9.3H668Zm-50.3-72.9a10.2,10.2,0,0,0-3.2.4l-0.9.3,1.6,1.2c4.4,3.4,9,6.9,14.6,7.7l3.2,0.2a21.7,21.7,0,0,0,12.8-4.2l0.9-.7-1.1-.2a1,1,0,0,1-.6-0.5,0.5,0.5,0,0,1,0-.4l0.2-.5-0.5-.2a21.6,21.6,0,0,0-5.9-1.7l-5.6-.4h-1.9l-6.8-.5-2.2-.2H621Zm27.7-.4h0.2l1.2,1.7,0.4,0.5,0.4-.5c6.1-6.8,2.7-17.9-1.2-26l-0.7-1.5-0.2,1.7c-0.5,3.8-.8,7.3-0.9,10.4s-0.1,4.3,0,6.8,0.1,3,.2,4.5a2,2,0,1,1,0,.6,5.7,5.7,0,0,0,.1,1.2v0.5h0.5Zm-30.2-25a22.5,22.5,0,0,1,2.5,3.3l0.3,0.4c1.2,1.5,2.4,3.1,3.7,4.5a77.3,77.3,0,0,0,8.6,8.3,82.8,82.8,0,0,0,8.8,6.3l1,0.6,1.2,0.6,1.2,0.7-0.5-1.3a38.9,38.9,0,0,0-8.9-14.1,39.7,39.7,0,0,0-8.5-6.6,36,36,0,0,0-4.7-2.3l-0.5-.2a15.6,15.6,0,0,0-4-1.4l-0.6.2,0.7,0.7H615Z"/><path class="b" d="M116.5,335.5a24.7,24.7,0,0,0,5.4-2.7,110.9,110.9,0,0,0,11.6-8.8l1.1-.9-8.7.3c-6.8.2-12.7,2.4-19.6,5.5l-0.6.3c-2.1.9-4.2,1.9-5.2,4.2v0.3l0.2,0.2,0.2,0.3a1,1,0,0,0,.5.5l2.1,0.8H93.1a9.2,9.2,0,0,0,.1-5.8c-1.7-6-1.3-12.3-.9-18.4h0a106.8,106.8,0,0,1,3-20.4,11.2,11.2,0,0,1,2.1-4.9,2.9,2.9,0,0,1,1.7,2.5l0.6,3.7c0.2,1.3.3,2.1,0.5,3.2,1.9,10.3,1.6,19.5-1.1,28.2-0.2.6-.3,1.3-0.5,2a1.4,1.4,0,0,0,0,.6v1.3l0.7-.5,0.7-.4a4.7,4.7,0,0,0,1.3-1c1.6-1.9,3.1-3.9,4.6-5.9l3.6-4.8c2.4-3.2,4.9-6.6,7.5-9.8a11.2,11.2,0,0,0,2.4-9.6,26.7,26.7,0,0,1-.3-6.7,6.5,6.5,0,0,1,.2-1.1c0.1-.5.6-3.3-0.2-4.1l-2.4-2.6c-1.8-1.9-3.5-3.6-5.1-5.6-7.8-9.6-11.9-20-14.9-29a4.7,4.7,0,0,1-.1-3.8l1.2-.3a5.2,5.2,0,0,1,2.8,1.1,20.3,20.3,0,0,1,3.2,2.9,71.3,71.3,0,0,1,10.5,13.3,28,28,0,0,1,3.3,7.7,35.8,35.8,0,0,1,.6,4.5,41.3,41.3,0,0,0,.6,4.4l1-.2a7.9,7.9,0,0,1,.4-1.6,10.2,10.2,0,0,0,.3-1.2,74.9,74.9,0,0,1,2.9-12.5l1.4-4.2,0.7-2.2v-0.2c-4-7.9-4.6-16.4-4.8-25.8a70.4,70.4,0,0,1,.3-8c0.1-.9.1-1.9,0.2-2.8a41.9,41.9,0,0,1,2.7-11.3c0.4-1.2,1-1.9,1.6-1.9s1.5,0.8,2.1,2.1a28.8,28.8,0,0,1,3.1,10.7q0.2,4.7.5,9.4a38.3,38.3,0,0,1-.8,8.4v0.8a20.9,20.9,0,0,1-.6,2.2c-0.5,1.9-1.1,4-.6,5.6l0.3,0.8,0.6-.6a22.8,22.8,0,0,0,3.9-6.1l1.2-2.3,1-1.8a68.3,68.3,0,0,1,4.5-7.6,22.9,22.9,0,0,1,4.5-4.3l0.8-.7c2.3-1.9,3.3-4.5,4.3-7l0.9-2.1a67.1,67.1,0,0,1,4.6-8.2l1.5-2.5a63.6,63.6,0,0,1,8.6-11l1.2-1.3c2.1-2.4,5.3-5.9,7.9-6,0.9,1.2.6,2.5,0.3,3.9l-0.2,1c-0.3,1.6-.5,3.3-0.7,4.8-0.6,4.6-1.2,8.9-3.4,13.2-3.2,6.3-9.5,8.9-15.5,11.5l-3.3,1.4-2.1.9c-2.6,1-5.1,2-6.8,4.6s-3.9,6.4-5.6,9.6V234a26.3,26.3,0,0,0-2.3,5.3l-0.4,1.4,1.2-.9c6.8-5.1,12.6-8.4,20.3-8.6h0.6c0.1,0.2.2,1.5-3.4,8.6l-0.2.4c-4.2,8.4-11.1,13-21.2,14.3h-2a3.1,3.1,0,0,0-2.7,1.9,80.7,80.7,0,0,0-5.4,23.9l-0.3,2.8c-0.4,3.4-.9,7.2.1,10.2l0.7,1.4,0.7,1.4v-0.4l0.8,0.7,2.1-2.4,4.4-5,7.4-8.2c6.7-7.4,13.7-15.1,19.9-23.2,3.3-4.4,6.9-8.7,10.3-12.9l7.6-9.5,4.7-6.4,2-2.8a13.8,13.8,0,0,0,2.1-6.3A73,73,0,0,1,197,187.5a62.3,62.3,0,0,1,5.2-6.1l2.5-2.8,0.3-.4c1-1.2,2.8-3.3,4.3-3.3l0.8,0.2a1.5,1.5,0,0,1,.4,1.1c-0.4,2.1-.8,4.1-1.3,6.1l-0.5,2.1c-1.6,7.3-3.4,15.1-6.7,22.3a46.9,46.9,0,0,1-6,9.9,37.5,37.5,0,0,1-4,4.3,14.5,14.5,0,0,1-3.2,2,18.4,18.4,0,0,0-3,1.8c-2.7,2.1-4.6,5-6.4,7.9a41.9,41.9,0,0,1-4.4,6,2.8,2.8,0,0,0-.5,1.1l-0.3.9-0.5,1.2,3.2-1.6,4-2a70.4,70.4,0,0,1,12.3-5l1.2-.4a8.5,8.5,0,0,1,2.8-.6,4.1,4.1,0,0,1,1.6.3v0.3a7.8,7.8,0,0,1-.6,1.4l-0.8,1.2c-2.9,4.4-5.9,9.1-9.8,12.7a67.1,67.1,0,0,1-14.7,10c-4.3,2.2-8.1,2.7-13,2.8a3.7,3.7,0,0,0-3.1,1.2l-0.7.7c-1.6,1.5-3.6,3.3-4.5,5.2l-1.9,2.3a27.9,27.9,0,0,0-3.5,4.8l-0.4.8h0.9a10.4,10.4,0,0,0,4.5-1.3l1.6-.7c5.2-1.9,9.6-3.2,13.8-4.4l2.4-.7c2.6-.8,5.8-1.8,8.4-1.8l2.1,0.3v0.2a2.5,2.5,0,0,1-.4.9l-2.6,2.5a80.9,80.9,0,0,1-9.9,8.8,34.7,34.7,0,0,1-14.6,5.5l-6.6,1-4.7.7-2.9.6c-4.4,1.2-7.3,3-9.1,6.1a25.7,25.7,0,0,1-2.3,3l-1.5,1.9-0.9,1.1,1.4-.3,1.3-.3,1.6-.4,2.9-1.2,4.9-1.9a23.5,23.5,0,0,1,5.2-1.1l17.7-1.5h2a1.3,1.3,0,0,1,0,.9,0.9,0.9,0,0,1-.6.5c-3.2,1.2-5.7,3.4-8.1,5.5l-0.5.5a30.5,30.5,0,0,1-17.2,7.3l-9.2.8h-0.7a18.9,18.9,0,0,0-9.6,3.1l-0.5.3a5.8,5.8,0,0,0-1.6,1.3l-9.2,12.3a1.5,1.5,0,0,0-.2.9,2.8,2.8,0,0,1,0,.3v0.3l0.3,0.2,1,0.3a3.2,3.2,0,0,0,1.6-.6l0.9-.4,1.7-.5,1.1-.4,1.2-.3,2.2-.7a30.3,30.3,0,0,1,12.8-2.6h11.4l2.5,0.3,0.8,0.2a1.3,1.3,0,0,1,0,1,0.7,0.7,0,0,1-.5.4c-3.9.8-7,3.1-10.1,5.2l-0.5.4-2.9,1.9-2.5,1.6a30.8,30.8,0,0,1-4.6,2.6h-3.5ZM96.9,292.6c-2.4,3.4-2.5,8.2-2.7,12.4,0,1-.1,1.9-0.1,2.8a109.2,109.2,0,0,0,.1,15v0.3a2,2,0,0,0,1.4,2.2H96a5.3,5.3,0,0,0,1.8-3.4l0.2-.7a31.5,31.5,0,0,0,.9-4.2l0.3-1.6a36.5,36.5,0,0,0,.5-11.8c-0.1-1-.3-2.1-0.4-3.1s-0.4-2.6-.5-3.9-0.5-4.1-1.5-4.1H96.9Zm54.8,2.1h-2.4l-7.5.6a40.2,40.2,0,0,0-12.4,3.7l-1.4.7c-3.5,1.6-7.8,3.6-9.2,7l-0.4.8,0.9-.2,2.1-.2h4.4l5.6-.5,3.4-.3a23.6,23.6,0,0,0,11.2-4.2,49.1,49.1,0,0,0,5.1-3.9l1.2-.9a5.1,5.1,0,0,0,.9-1.1l0.5-.7,0.5-.6-0.8-.2-0.8-.2-1-.2h-0.1Zm20.6-26-1.5.4-3.6.9-2.2.7-2.9.9c-5.6,1.2-10.7,3.9-15.6,6.4l-2.1,1.1a13.1,13.1,0,0,0-5.7,5.5l-0.5.9h1l3.5-.4,6.1-.7c9-.7,15.9-4,21.1-10.1l1.4-1.4,1-1,0.2-.2a1.8,1.8,0,0,0,.5-2.5h-0.1l-0.2-.3h-0.4Zm-73.8-24c0.1,8.2,7.9,24.2,16.8,31.2l0.6-.8v0.2a21.2,21.2,0,0,1,.1-3,17.7,17.7,0,0,0,.1-2.6c-0.7-5.3-3.9-11.4-6.4-15a58.3,58.3,0,0,0-6.3-7.1l-2.6-2.7a2.5,2.5,0,0,0-1.3-.6l-0.6-.2-0.7-.2v0.7h0.3Zm96.7-11.2c-4.8,0-10.3,3.2-13.9,5.4a58.6,58.6,0,0,0-12.9,10.5l-5.5,6.1-2.8,3.2-0.6.7h3.2c5.2-.2,9.5-2.5,13.6-4.8a54.2,54.2,0,0,0,18.8-18.7,6.5,6.5,0,0,0,.5-1.2l0.3-.8,0.3-.7h-0.9v0.3Zm-41.8.3h-2c-7.4,1.6-13.1,6.2-18.1,11a15.9,15.9,0,0,0-2.8,4.2l-0.5.8a3.2,3.2,0,0,0-.2,1.7,6.7,6.7,0,0,1,0,.7v0.5h1.1c11.2,0,19.8-6.9,23.1-18.5l0.2-.7h-0.7v0.3Zm-28.6-26.9c-4.3,10.5-4.1,31.5.4,38.7l0.5,0.8,0.4-.9c4.7-10.6,4.6-29.4-.3-38.7l-0.5-.9Zm82-29.1c-0.4,0-1.4,0-8.6,9.4a45.1,45.1,0,0,0-6.6,11.5c-2.4,6.4-5,14-5.2,22.7V222H187l1.1-.2,1.2-.3a20.3,20.3,0,0,0,6.8-6,56.2,56.2,0,0,0,8.4-16.3,124.2,124.2,0,0,0,2.9-13.4l0.9-5v-0.2a1.9,1.9,0,0,0-1-2.5h-0.5v-0.2Zm-34.3,7.6H172a2.2,2.2,0,0,0-1.1.5l-0.8.8c-3.9,3.7-7.9,7.4-10.4,12.5a21.8,21.8,0,0,1-1.6,2.6l-0.8,1.2a57.5,57.5,0,0,0-6,12.6l-0.3.9,0.9-.2c4.9-1.2,9.3-2.4,12.9-5.1a16.1,16.1,0,0,0,6.6-10c0.7-3.9,1-7.2,1.4-10.7l0.5-3.9a0.8,0.8,0,0,0-.3-0.7l-0.2-.2-0.2-.3h-0.1Z"/><path class="b" d="M673.1,335.5a16.1,16.1,0,0,0-6.3-3.1h-0.1c-2.6,0-5.8-1-8.6-1.9l-2-.6a50.5,50.5,0,0,1-5.5-2.1l-4.8-1.9-0.9-.2h-0.2a6.1,6.1,0,0,0-2.7.9l-1.2.6a10.2,10.2,0,0,1-3.4.5h-1.2a4.5,4.5,0,0,1-3.6-1.8,4.6,4.6,0,0,1-.5-4.1c1-3.1,2.9-5,5.7-5.5h0.5c2.4,0,5.6,2.4,6.7,5a10.4,10.4,0,0,1,.5,1.5l0.2,0.7c0.2,0.9,1.7,1.7,4.1,2.8l0.5,0.2a25.4,25.4,0,0,0,5.4,1.9l4.6,1.4a37.6,37.6,0,0,0,6.5,1.8H667l0.6-.2a1,1,0,0,0,.2-0.8h0a4.5,4.5,0,0,0-.7-2.1l-0.4-.6-4.6-6.3a116.2,116.2,0,0,1-8.4-12.6c-1.5-2.5-3.1-5.2-4.8-7.7a9.6,9.6,0,0,0-2.5-2.6c-7.2-4.8-15.8-10.2-25.9-13.1h-0.3l-0.2.2-0.8.7-2,1.7a5.1,5.1,0,0,1-3,1,3,3,0,0,1-2-.6c-2-1.6-2.6-3.2-2.2-5.1a10.1,10.1,0,0,1,6.5-7l1.3-.2a3.4,3.4,0,0,1,2.5,1c1.2,1.2,1.2,3.1,1.2,4.9v2H622l3.3,1.4,7.3,3.1c2.4,1.1,4.4,2.3,6.6,3.5l2.9,1.6,0.6,0.3,0.2-.6,0.2-.5a1.4,1.4,0,0,0,.1-1l-0.3-.7c-0.8-2-1.6-4.1-2.5-6.1l-2.6-5.6c-1.4-2.9-2.8-5.9-4.1-8.9a117.1,117.1,0,0,1-4.3-12.3l-0.8-2.5c-1.6-5.3-6-9.1-10.2-12.8-1.6-1.4-3.1-2.7-4.4-4a5.2,5.2,0,0,0-3.7-1.8l-1.2.2h-4.2a4.5,4.5,0,0,1-3.4-1.6,4.3,4.3,0,0,1-.7-3.5,9.8,9.8,0,0,1,6.6-7h1a5.4,5.4,0,0,1,4.3,2.4,4.5,4.5,0,0,1,.6,4.1l-0.8,2.3-0.5,1.4,0.2,0.2a67.4,67.4,0,0,0,9.6,9.3l2.7,2.3,0.8,0.7V246a4.7,4.7,0,0,0,0-1.3l-3.1-13c-0.3-1.1-.6-2.3-1-3.5a29.1,29.1,0,0,1-1.7-7.9c-0.8-6-3.3-11.8-7.8-18.3-2-2.8-4.1-5.6-6.2-8.2l-2.8-3.7v-0.2h-0.8c-2.5-.3-4.5-0.6-5.3-3.2a5.7,5.7,0,0,1,2.1-5.9,5.3,5.3,0,0,1,3.4-1.2,6.4,6.4,0,0,1,3.8,1.4,2.9,2.9,0,0,1,1.2,2.6,8.3,8.3,0,0,1-2.3,5.7l-0.2.3,0.2,0.3a50.8,50.8,0,0,0,5.5,7.8l2,2.6a39.9,39.9,0,0,0,3.4,4.3l0.7-.7h0.1a15.5,15.5,0,0,1-.1-2.4v-1.1c0-.1-0.2-2.4-0.4-3.6l-0.2-2c-0.5-5-.8-10.3-0.9-15.6,0-1.2,0-2.6.1-4.1,0.2-3.5.4-7.5-.9-10.5s-0.7-5.3,2.9-6.9a7.1,7.1,0,0,1,2.9-.7,3.4,3.4,0,0,1,2.8,1.3c1.1,1.4,1.5,3.9.9,6.5a4,4,0,0,1-2.9,3.1l-2.3.6-1.6.4v1.4a14.3,14.3,0,0,0-.1,2.4c0.4,8.9.9,17.6,1.6,26.2a22.9,22.9,0,0,0,.5,2.7l0.3,1.5,0.2,0.8,0.6-.5,0.8-.5,1.1-.9,4.4-5.4a8.7,8.7,0,0,0,2.1-4.7c0.3-2.6,3.2-5.2,6-5.3h0.1c2.7,0,3.8,3,4.2,5.5a4.1,4.1,0,0,1-2.9,5h-0.3a11.4,11.4,0,0,1-2.9.3h-0.4l-2.4-.2-1.2-.2h-0.4a28.7,28.7,0,0,0-5.7,6.7l-2.2,3.1a2.2,2.2,0,0,0-.6,2.2c1.7,10.9,4.3,21.8,6.8,32l0.3,1.5a7.5,7.5,0,0,0,1.2,3.6l0.5,0.6,0.4-.6a18.7,18.7,0,0,0,1.3-3.2,21.6,21.6,0,0,1,1.1-2.7l2-3.6c2-3.5,4.3-7.4,4.7-11.2a4.6,4.6,0,0,1,2-3.3,6.4,6.4,0,0,1,3.4-1.1,4.4,4.4,0,0,1,1.6.3c1.9,0.7,1.9,2.3,1.8,4.6a9.4,9.4,0,0,1-.5,2.3,3.8,3.8,0,0,1-3.9,3l-2.6-.2h-1.4l-0.2.2c-3.8,4.8-7.7,13.5-8.4,18.7-0.3,2.3.6,4.8,1.4,6.9l0.5,1.5q1.5,4.6,3.6,9.9c2.5,6.5,5.3,12.9,8,19a24.1,24.1,0,0,0,1.3,2.4l0.7,1.3,0.4,0.7,0.5-.6,0.5-.6a1.9,1.9,0,0,0,.6-1c0.3-3.3.7-6.5,1-9.8l0.7-7a7.8,7.8,0,0,0-1.3-5,23.9,23.9,0,0,1-1.8-3.4,6,6,0,0,1,1.9-7.4,4.9,4.9,0,0,1,3.1-1.2,4,4,0,0,1,3.2,1.6,14,14,0,0,1,3.2,6.8,6,6,0,0,1-3.1,6.6l-2.1,1-1.1.5H650a10.5,10.5,0,0,0-1.1,5.3v0.7c-0.3,5.9-.3,11.8-0.3,17.4a8.3,8.3,0,0,0,1,4,199.8,199.8,0,0,0,13.7,21.3,16.5,16.5,0,0,0,2.5,2.6l1.5,1.3,0.8,0.8v-1.1c0.1-1,.1-7.4.1-11.6v-3.3l-0.5.5v-1a2.7,2.7,0,0,1-1.9-1.7,4.3,4.3,0,0,1-.2-2.9h0v-0.2a8.3,8.3,0,0,1,8-7.3,6.8,6.8,0,0,1,2.9.7c2.8,1.3,3.9,3.8,3.3,7.3a5.6,5.6,0,0,1-5.6,4.5H670v0.4a37.8,37.8,0,0,0-.4,13,35.6,35.6,0,0,0,1,4.4l0.5,1.9a14,14,0,0,0,2.4,5.1l1.7,2.2h-1.8Zm-34.7-17.9c-1.3,0-2.6.8-3.8,2.5a3.7,3.7,0,0,0,.5,5.1,4,4,0,0,0,2.6.8H638c2.3-.1,4-1.2,4.5-2.9s-0.3-3.4-2.2-4.7a3.4,3.4,0,0,0-1.9-.8h0Zm35.5-20.1a7.1,7.1,0,0,0-4.8,2.4,4.2,4.2,0,0,0-1.2,3.2c0.3,2.5,3,3.8,5.5,3.8a5.3,5.3,0,0,0,3.8-1.4,4.7,4.7,0,0,0-2.9-8.1h-0.4Zm-57-19.6a4.3,4.3,0,0,0-3.6,2.5,7,7,0,0,0-.8,3.5,2.5,2.5,0,0,0,4.3,1.7l0.6-.6,1.2-1.2a4.5,4.5,0,0,0,1.1-3.9A2.8,2.8,0,0,0,618,278h-1.1Zm33.4-21.3a3.9,3.9,0,0,0-3.8,3c-0.6,2.6,1.5,8,4.6,8.7h0.7l1.4-.3a3,3,0,0,0,1.8-1.8c0.8-2.2-.6-5.4-1.9-8a3.2,3.2,0,0,0-2.8-1.6h0Zm-41.8-30.5-1,.2a7.1,7.1,0,0,0-4.4,4.2,3.4,3.4,0,0,0,0,3.1,3.8,3.8,0,0,0,3,1.7h0.7a4.4,4.4,0,0,0,3.9-2.3,4.8,4.8,0,0,0,.6-5.1,3.1,3.1,0,0,0-2.8-1.8h0Zm33.9-4.1a3,3,0,0,0-2.4,1.1,3.8,3.8,0,0,0-.2,4,2.6,2.6,0,0,0,2.2,1.4,2.2,2.2,0,0,0,1.9-1.1,6.1,6.1,0,0,0,.8-3.2,2.2,2.2,0,0,0-2.2-2.2h-0.1ZM634,187.4a4.3,4.3,0,0,0-4.3,3.5,3.5,3.5,0,0,0,.5,2.7,3.4,3.4,0,0,0,2.4,1.3h0.7c2.2,0,3.5-1.4,3.6-3.8h0v-0.4a7.9,7.9,0,0,0-.7-1.9,2.6,2.6,0,0,0-2-1.2h0Zm-31.9-7.7h-0.4a4.2,4.2,0,0,0-3.6,4.3c0.1,2,1.3,3.5,2.9,3.5h0.2a4.2,4.2,0,0,0,4.1-4.9A3.3,3.3,0,0,0,602.1,179.7Zm17.9-23c-2.1,0-4.6,2.7-4.7,4.5a3.9,3.9,0,0,0,1.2,2.8,3.8,3.8,0,0,0,2.7,1.2,2.9,2.9,0,0,0,1.8-.6,6,6,0,0,0,1.6-4.8,3.3,3.3,0,0,0-1.5-2.8H621Z"/><path class="b" d="M206.7,335.5a38.1,38.1,0,0,0,2.6-6.1,42.8,42.8,0,0,0,2-13.4c0-9.6,2.3-18.5,4.8-27.8,0.8-3,1.6-6.2,2.4-9.3a74.9,74.9,0,0,1,3.7-12.3l0.2-.6c0.7-1.7,1.8-4.5,3.3-4.5a2.3,2.3,0,0,1,1.5.7c1.8,1.6,1.5,4.1,1.2,6.4v0.9c-1.2,12-3.9,24.1-6.5,35.8-0.8,3.4-1.5,6.8-2.2,10.2a12.7,12.7,0,0,0-.2,1.9v2.1l0.8-.4,0.8-.4,1-.6,1.7-1.9,2-2.1c4.2-4.2,7.5-9.3,10.6-14.3l1.9-3a124.3,124.3,0,0,0,9.6-18.2l1.7-3.7a69.1,69.1,0,0,0,4.7-12.2v-0.4c0.8-3.3,1-4.7.4-5.3l-0.7-.8c-1.9-2.2-3.6-4.2-3.8-7.2a3.8,3.8,0,0,0-1.7-2.5c-5.2-3.3-6.5-9-7.7-14s-0.4-9.7.3-14.4a5.5,5.5,0,0,1,2.9-4.3l0.5,0.6,1.7,1.8,1.5,2.2,0.9,1.3,0.6,0.9,0.3-1.1a30.7,30.7,0,0,0,.6-10,36.4,36.4,0,0,1,.1-6.7,29.9,29.9,0,0,0-.3-7.6v-0.4a7.8,7.8,0,0,0-.2-1.4c-0.1-.5-0.7-3.8.2-4.8a3.4,3.4,0,0,1,2.4-1.2,2.7,2.7,0,0,1,2.5,2.3,27.4,27.4,0,0,1,.6,5.4V196a3.1,3.1,0,0,1-1.7,2.6,6.2,6.2,0,0,0-2.9,6c0.2,5,.5,10,0.8,14.6a2.3,2.3,0,0,0,.6,1.2l0.5,0.6,0.3,0.5,0.4-.4,0.5-.4a4.6,4.6,0,0,0,1.1-1l0.2-.2a50,50,0,0,0,3.1-4.9,15.6,15.6,0,0,0,1.5-4.2c0.3-1.5.5-3.1,0.7-4.6l0.3-2.4a14.3,14.3,0,0,0-.3-6.6,9.2,9.2,0,0,1,1.1-7.4,2,2,0,0,1,1.8-1.2h0.4a1.7,1.7,0,0,1,1.7,1.7h0v1.2c0.2,3,.3,5.8-2.1,8a4.4,4.4,0,0,0-1,2.5v0.6c-0.7,3.8-1.4,7.8-2,11.7s-0.3,3.4,2.1,6.6l0.2,0.3h0.6a1.3,1.3,0,0,0,.9-0.5,113.6,113.6,0,0,0,7.3-18.1c1.1-3.5.9-7.5-.8-12l-0.7-1.8a27.8,27.8,0,0,1-1-2.7,6.4,6.4,0,0,1,1.9-6.9,2.1,2.1,0,0,1,1.5-.6l1,0.2a1.9,1.9,0,0,1,1.5,2,15,15,0,0,1-.8,7.2,11.9,11.9,0,0,0-1,7.1,18,18,0,0,1-1.4,10.3c-1,2.3-1.8,4.8-2.5,6.8l-0.6,1.7a19.8,19.8,0,0,0-1.3,4.4V219l0.9-.7,1.9-1.7a56.9,56.9,0,0,1,4.7-4,2.9,2.9,0,0,1,1.7,2.7c1.2,13.9-1.7,23.3-9.4,30.5l-0.7.6c-1.3,1.2-2.7,2.4-3.1,4.3a9.2,9.2,0,0,1-5.2,5.8c-1.4.7-1.7,3-1.9,4.8a13,13,0,0,1-.2,1.7,44.1,44.1,0,0,1-2.1,5.7l-1.3,3.2-1.2,3.1a117.6,117.6,0,0,1-5.4,12.9l-0.4.7a10,10,0,0,0-1.4,3.5V293l0.8-.4a88.6,88.6,0,0,0,9.7-5.3c2.5-1.5,5.1-3.1,7.7-4.4l4-2c4.4-2.2,8.9-4.5,13.5-6.3a103.9,103.9,0,0,1,12.1-3.9l6.3-1.4h0.4a16.6,16.6,0,0,1,3.2-.5h0.4V269c-2,2.8-5.4,4.6-8.6,6.2l-2.4,1.3L273,286.4l-7.6,4.2c-5.1,2.8-10.3,5.7-15.3,8.7l-2,1.2c-6.9,4-14,8.2-19.4,14l-2.5,2.6a162.1,162.1,0,0,0-11.1,12.8c-1.4,1.9-3,3.7-4.4,5.3v0.2h-4ZM226,265.2a2.5,2.5,0,0,0-1.9,1.5c-3.6,7.2-5.4,15.4-7.2,23.4l-1.3,5.7a123.2,123.2,0,0,0-3,25.8,1.2,1.2,0,0,0,.5.9l0.2,0.2,0.2,0.2h0.3a3.1,3.1,0,0,0,2.2-2.2l0.2-.4a59.8,59.8,0,0,0,4.7-14.7c0.4-2,.7-3.9,1.1-5.9s1.2-6.8,2-10.2l0.8-3.3c0.5-2.2,1.1-4.4,1.6-6.6a31.1,31.1,0,0,0,.5-3.9,33.6,33.6,0,0,1,.4-3.4V272a9.7,9.7,0,0,0,0-5.6A1.4,1.4,0,0,0,226,265.2Zm68.1,5.8a14.8,14.8,0,0,0-3,.5l-0.6.2-4.3,1a82.6,82.6,0,0,0-16,6.5,239.7,239.7,0,0,0-24.4,14.4,16.6,16.6,0,0,0-3,2.9l-0.5.6-4.6,5.4a2.4,2.4,0,0,0-.4,1l-0.2.7-0.3.9,0.9-.3,0.8-.3,1.2-.5c5.3-3.5,10.9-6.5,16.4-9.5l9-4.9c5-2.9,10.2-5.6,15.2-8.3l8.7-4.7h0.2a32.6,32.6,0,0,0,5.4-3.4,2,2,0,0,0,.8-1.4,0.9,0.9,0,0,0-.3-0.7H295l0.3-.3v-0.3h-1v0.4h-0.2Zm-40.9-21.4-0.6.3a1.5,1.5,0,0,0-.3,1.1,7.9,7.9,0,0,0,1.5,3.4,2.6,2.6,0,0,0,2.3,1.3h0.5c2.5-.4,4.5-2.3,5.3-5.3l0.3-1-0.9.4a9.4,9.4,0,0,1-3.6.7,9.6,9.6,0,0,1-2.7-.4l-0.6-.2Zm-9-33a0.8,0.8,0,0,0-.7.4c-1.7,2.8-2,7.1-2,10.2a31.9,31.9,0,0,0,1.6,9.6,17.7,17.7,0,0,0,6.6,9.4c2.6,1.9,4.9,2.8,7.2,2.8a11.9,11.9,0,0,0,6.3-2.1c5.2-3.3,8.7-8.4,10.3-15.1a54.5,54.5,0,0,0,1.1-9.5c0.1-1.2.1-2.4,0.2-3.5a3.7,3.7,0,0,0-.3-1.5l-0.2-.7-0.2-.6-0.5.3c-2.6,1.2-4.2,3.3-5.7,5.4s-2.9,3.8-5.1,4.8a5.2,5.2,0,0,1-2.1-3.2l-0.6-1.5-0.2-.6a2.2,2.2,0,0,0-2.2-1.9h0c-1,0-1.8,1.4-2.7,3.1l-0.2.5a6.6,6.6,0,0,1-2.4,2.4l-0.5.2-0.7-.4a29.9,29.9,0,0,1-4.8-6v-0.2c-1-1.6-1.6-2.3-2.2-2.3h0Zm8.2-27.5a2.1,2.1,0,0,0-1.9,1.8,5,5,0,0,0,.2,2.4,5.6,5.6,0,0,1,.2,1.5v0.4a2,2,0,0,0,.9,2.3h0.8c1,0,1.4-1.1,1.7-1.6s0.9-4.6-.3-6.2a1.9,1.9,0,0,0-1.7-.6h0.1Zm10.4,0.9c-1.6.4-2.3,1.9-2,3.9a13.2,13.2,0,0,0,.6,2.4,1.6,1.6,0,0,0,1.2,1.2c1.3,0,1.9-2.8,2-3.5a8.3,8.3,0,0,0-.9-3.6,0.9,0.9,0,0,0-.7-0.4h-0.2Zm9.4-10.7a2.7,2.7,0,0,0-2.1,1.4,4.9,4.9,0,0,0-.6,3.3c0.1,1.1.8,3.9,2.4,3.9l0.9-.3,0.3-.2c1.6-1.2,1.3-5.3.7-6.7a1.8,1.8,0,0,0-1.7-1.4h0.1Z"/><path class="b" d="M311.5,335.5l2-2.6c3.1-4.2,6.3-8.5,9.3-12.9l1.7-2.5c3.1-4.4,6.4-9,6.7-14.7,0.7-12.3-2.9-23.6-6.5-33a7.4,7.4,0,0,0-5.6-5.1c-5.5-1.1-9.7-4.7-13.2-11.2a37.7,37.7,0,0,1-4-13.5,3.1,3.1,0,0,1,.2-1.1l0.2-.7c0.1-.6-0.4-1.4-1.7-3.1l-0.5-.7-2.3-3.6-1.3-1.9a18.8,18.8,0,0,1-2.4-3.9,1.5,1.5,0,0,0-1.4-1.1h-0.1a3.8,3.8,0,0,1-2.6-1.6,3.3,3.3,0,0,1-.6-2.6,1.1,1.1,0,0,1,.8-0.7H291c2.3,0,3.3,2.7,4.2,5.1,0.3,0.8.5,1.5,0.8,2.1a40.6,40.6,0,0,0,5.2,7.9l1,1.2a23,23,0,0,0,2.3,2.7h0.1c0.9,0.9,1.6,1.5,2.2,1.5H307c1.1-.3.8-1.6,0.7-2.2V237c-0.5-2.7-1.3-5.4-2-8.1l-1.2-4.5a8.5,8.5,0,0,1-.2-1,6.7,6.7,0,0,0-.3-1.5l-0.4-1c-0.6-1.6-1.2-3.2-1.7-4.9s-1-4.3-.4-5.2a0.7,0.7,0,0,1,.6-0.3h0.2c2.3,0.3,3.8,2.4,4.3,4.1a5.2,5.2,0,0,1-2.1,6.2l-0.3.2v0.3a55.9,55.9,0,0,0,5,15.7c0.8,1.6,1.9,3.5,3.1,3.7h0.4l0.2-.3a16.4,16.4,0,0,0,1.6-4.9,22.4,22.4,0,0,1,.9-3.4l1.7,2,0.8,1.1v-1.4a7.4,7.4,0,0,1,.3-1.7,10.7,10.7,0,0,0,.3-1.4v-0.4a18.3,18.3,0,0,0,.3-3.1,24.4,24.4,0,0,0-1.5-7.1,68.6,68.6,0,0,0-3.5-8.2,11.4,11.4,0,0,0-4.2-5.1,8.6,8.6,0,0,1-3.6-5.3,2.6,2.6,0,0,1,1.5-3.1l1.1-.3a2.3,2.3,0,0,1,2,1.4,7.2,7.2,0,0,1,.8,2.1,32.9,32.9,0,0,0,4.1,10.2,43,43,0,0,1,4.7,14.4,32.6,32.6,0,0,1,.3,4.2,32.7,32.7,0,0,0,.3,4.4l1-.2,0.9-1.4,0.3-.5a9.5,9.5,0,0,1,1.7-2.2,1.5,1.5,0,0,1,.9-0.5c0.4,0,.8.6,1.1,1.8,1.9,6.2,4.4,18.1.4,28.6h0c-1.1,2.9-2.1,5.4-.9,8.6,2.4,6.6,5.1,14.4,6.1,22.4,0.2,1.4.2,2.9,0.3,4.4a30.9,30.9,0,0,0,.8,7.2l0.3,0.9,0.6-.8a21.9,21.9,0,0,0,2.6-4.5c0.4-.9.9-1.8,1.3-2.6l1.3-2.2,3.5-6.1c3.1-5.4,5.2-9.8,4.3-16-0.2-1.4-.3-2.8-0.5-4.2s-0.3-2.7-.4-4.1a4.8,4.8,0,0,0-.3-1.3,5,5,0,0,0-.7-1.1c-3-4-7.9-11.8-6.9-20.1a52.5,52.5,0,0,1,.9-5.5c0.4-1.8.4-1.6,0.8-1.6l1,0.2c5.1,1.9,7,9.5,8.3,14.5l0.2,0.7a15.9,15.9,0,0,1-.5,8.2l-0.8,2.5a35.7,35.7,0,0,0-1,3.5,9.1,9.1,0,0,0,.4,4.3,18.4,18.4,0,0,1,.4,1.9l0.7,5.2,0.7-1.2,1.4-2.3c1.2-1.9,2.4-3.9,3.5-6s2.1-4.3,3.1-6.4l1.4-3a96.1,96.1,0,0,0,6.3-16.4v-0.4c-4.3-8.2-12.4-12.2-19.9-15a9.6,9.6,0,0,0-3.4-.7,5.9,5.9,0,0,0-2.3.4,7.2,7.2,0,0,1-2.7.5,11.4,11.4,0,0,1-7.8-3.7,14,14,0,0,1-3.2-5,20.1,20.1,0,0,1-.8-4.8,27.2,27.2,0,0,0-.4-3v-0.3c-0.5-2.4-.9-5,0.1-7a3.9,3.9,0,0,1,1.8.8c4.2,2.9,8.9,6.3,12.3,11.2l0.6,0.9c2.2,3.2,2.4,3.4,3.5,8.1v0.2h0.2l3.4,1.4a85.2,85.2,0,0,1,8,3.6,26.3,26.3,0,0,1,4.4,2.9l0.9,0.7,1,0.8a16.7,16.7,0,0,1,1.7,2.1l1,1.4,0.8-.6a7,7,0,0,1-.2-1.6,8.1,8.1,0,0,0-.1-1,18.1,18.1,0,0,0-.9-3.1c-0.5-1.4-1-2.8-1.4-4.2l-0.5-1.8-1.8-5.6-2.4-7.6a4.8,4.8,0,0,0-4.2-3.8h-2c-2.7-.5-4.4-1.8-5.2-4l-0.6-1.6a42.4,42.4,0,0,1-2.2-7.8,95.5,95.5,0,0,0-2.7-12.1,6.5,6.5,0,0,1-.2-1.3v-0.3l0.5-.3c4.6,3.1,8.6,7.7,11.6,11.4a30.1,30.1,0,0,1,4.9,9.9,5.5,5.5,0,0,1,.3,3.5c-0.9,2.1-.3,3.8.3,5.4l0.2,0.6c1.6,4.7,3.2,9.4,4.6,13.9l0.4,1.3c0.6,1.9,1.2,3.8,1.7,5.7v0.7c0.6,3.5.9,4.3,1.5,4.3h0a0.6,0.6,0,0,0,.5-0.3,9.7,9.7,0,0,0,1.5-3.4,12.1,12.1,0,0,1,.9-2.4,23.4,23.4,0,0,0,1.8-5.9,20.5,20.5,0,0,0,.5-2.4c1.3-4.9,2.2-9.9,3.2-15.4,0.2-1.3.5-2.6,0.8-3.9,0.9-3.8,1.7-7.7,1.3-11.3s-2.7-7.8-4.4-10.6l-0.7-1.2-1.1-1.7c-1.1-1.5-2.8-3.5-5.8-3.5h-1.4l-2.2.2a18.8,18.8,0,0,1-5.4-.9,11.9,11.9,0,0,1-6.9-4.8l-0.3-.4-0.3-.4-11.4-18.7a1,1,0,0,1,1-.9h0.6l0.8,0.3,14.2,8,1.5,0.9,2.8,1.6a22.4,22.4,0,0,1,11,12.4,16.4,16.4,0,0,0,2.7,4.8,26.8,26.8,0,0,1,2.2,3.3,21.9,21.9,0,0,0,3.1,4.3l0.8,0.8v-1.2c0-1.3.1-2.6,0.2-3.9s0.2-3.6.2-5.5,0-3.5-.1-5a9.1,9.1,0,0,0-.3-2,14.7,14.7,0,0,1-.3-2.6,98.1,98.1,0,0,0-4.2-15.1l-1.5-4.6a10.7,10.7,0,0,0-1.5-2.7l-0.7-1.1v-0.2l-3.4-.5-6.7-1a15.4,15.4,0,0,1-9.9-5.4c-4.2-5.1-6.8-9.5-6.3-10.6a0.6,0.6,0,0,1,.7-0.3h0.9l1.4,0.2a1.5,1.5,0,0,0,1.6-1,1.6,1.6,0,0,0-.8-2.1h-0.3l-2.8-1.2a29.9,29.9,0,0,1-8.1-5.1h-0.1a49.8,49.8,0,0,1-7.4-7,6.8,6.8,0,0,0-1.9-1.4l-1-.6-0.6-.4a5.3,5.3,0,0,1-1.5-1.4,6.6,6.6,0,0,1-1.2-3.3,2,2,0,0,1,1.9-2.1h0.4a5.1,5.1,0,0,1,3.7,1.6c1,1.2.9,3.3,0.9,5v0.8a7.2,7.2,0,0,0,1.6,2.4l0.3,0.3a43.6,43.6,0,0,0,5.1,4.6l1.2,1a26.7,26.7,0,0,0,7.2,4.6l1.2,0.3,2.8,0.9H348l0.9-.3-0.3-1a5.3,5.3,0,0,0-.5-1.3l-1.6-2.5a38.8,38.8,0,0,1-2.8-4.6c-2.5-5.1-3.6-9.4-3.4-13.5a7.7,7.7,0,0,0-.9-3.4l-0.2-.5a23.2,23.2,0,0,1-1.5-4.6,1.7,1.7,0,0,1,.4-1.5,3.5,3.5,0,0,1,2.6-1.1h0.4a3.8,3.8,0,0,1,3.1,3.2c0.4,2.5,0,4.2-1.3,5.6-3.7,3.9-.2,11,0.9,13.4a36.6,36.6,0,0,0,2.8,4.6l1.8,2.7,0.8,1.3,0.4-4.4a1.3,1.3,0,0,1,.3-1H351l3.8,1.1,0.3-1,0.3,0.2-0.6-2.2v-0.2a27.7,27.7,0,0,1-.6-3.1v-0.5c-0.6-3.9-.1-7.9.4-11.8a48.7,48.7,0,0,0,.6-10.3,20.6,20.6,0,0,1,.6-5.4V75a1.7,1.7,0,0,1,1.7-1.6,2.4,2.4,0,0,1,2.2,1.7c1.2,3.9.7,6.6-1.8,8.4a6.4,6.4,0,0,0-2.3,4c-1.9,6.8-1.5,13.9.8,19v0.2c1,2.2,2.1,4.2,3.6,4.2h0.1c1.3-.1,1.8-2.1,2.2-3.5l0.2-.7,2.4-6.5a3.9,3.9,0,0,1,.7-1.3l0.5-.3c1.3,0,3.2,4.1,3.8,5.4l0.4,0.7a55.4,55.4,0,0,1,4.4,10.6c2.4,8.5,1.5,15.4-3.1,22.9v0.2l3.3,7.8c0.5,1.1.9,2.2,1.3,3.3s1,2.7,1.6,4l0.7,1.5,0.3-1.6c0.5-2.9,1.1-5.7,1.7-8.5a148.1,148.1,0,0,0,2.7-15.7c0.2-2.4.5-4.8,0.7-7.2,0.5-4.9,1.1-10,1.4-15,0.3-3.5.3-7.1,0.3-10.5,0-1.6,0-3.2.1-4.9a4.7,4.7,0,0,0-3.1-4.7h-0.3l-3.2-1.6a9,9,0,0,1-4.1-5.5,2.1,2.1,0,0,1,.3-1.8,1.9,1.9,0,0,1,1.5-.8h0.7l2.5,1.2,0.5,0.3,2,1.2,1.6,0.9,0.2-.5c1.6-3.7-.2-6.3-1.6-7.9a26.8,26.8,0,0,0-4.5-3.8H378a9,9,0,0,1-3.4-5,1.5,1.5,0,0,1,.1-1.2,1.1,1.1,0,0,1,.7-0.5l1.8-.2a6.6,6.6,0,0,1,2.1.3l1.3,0.8a4.4,4.4,0,0,0,2.2,1h0.5V63.4c0.3-3.4-.8-7.5-1.7-10.8l-0.4-1.3h-0.7c-3.7,0-7-2-10.2-3.8l-0.7-.4a6.2,6.2,0,0,1-1.6-1.6,1.2,1.2,0,0,1-.1-1.1,0.9,0.9,0,0,1,.6-0.6,20.2,20.2,0,0,1,4.2-.7h0.7a8.9,8.9,0,0,1,5.1,1.6l1.4,0.9-3.2-7.3-0.3-.8c-0.4-1.2-.9-2.4-2.7-2.6a68.7,68.7,0,0,1-9.9-2.2A9.7,9.7,0,0,1,359,30l-0.2-.2V29.2c0.7-1.5,2.2-2.3,4.6-2.3h3.2l1.9,0.5,1.8,0.5v-1a1.1,1.1,0,0,1-.7-0.8l-0.3-.5a10.9,10.9,0,0,0-1.4-1.7l-0.8-.8a20.4,20.4,0,0,1-2.4-2.7l-1.1-1.5a37.4,37.4,0,0,1-3.4-5.4c-2-4.2-3.8-8.7-2.6-12.7A1.4,1.4,0,0,1,358,0h1a4.2,4.2,0,0,1,1.5,1.4l0.3,0.3,0.8,1a27.8,27.8,0,0,1,2.7,3.5l2.4,3.9,0.9,1.5a36.5,36.5,0,0,1,2.6,4.9,15.5,15.5,0,0,1,.7,2.3,19.6,19.6,0,0,0,1.1,3.1l0.9-.4a7.8,7.8,0,0,1-.2-3v-5a17.7,17.7,0,0,1,.6-4.1c0.4-1.6,1.4-6.1,3.5-6.1h0.4c0.7,0.2.8,0.7,0.9,1.9V6.8a74.8,74.8,0,0,1-.1,10.7,57.3,57.3,0,0,1-2.6,11,1.2,1.2,0,0,0,.2,1.3l3.4,5.4V33.3c0-3,1.9-5.8,3.8-8.1a1.5,1.5,0,0,1,2.9.8,4.9,4.9,0,0,1,.1,2.6A74.5,74.5,0,0,1,383,36a15.5,15.5,0,0,0,0,12.9l0.4,0.8,0.5-.8,0.6-.8,0.8-1.3,0.8-1.9a20.3,20.3,0,0,1,1.1-2.6,5.3,5.3,0,0,1,1.6-1.6,1.3,1.3,0,0,1,1.8.3l0.2,0.4a12.3,12.3,0,0,1,.2,4.2,28,28,0,0,1-1.6,5l-0.2.5c-0.5,1.2-1.1,2.3-1.6,3.4l-0.7,1.3a9.7,9.7,0,0,0-.7,5.1l0.5,8.1h1a5.9,5.9,0,0,1,.6-1.8l0.4-.9,0.4-1.2,0.5-1.6a39.8,39.8,0,0,1,2.6-5l0.4-.7a8.8,8.8,0,0,1,1.9-2.1,2.2,2.2,0,0,1,1.4-.6,1.5,1.5,0,0,1,1.4,1.5c0.4,2.8.7,6-1,8.9a80.6,80.6,0,0,1-4.5,7c-3.5,4.7-4.9,9.1-4.5,14.1a144.5,144.5,0,0,1-.1,16.4v2.4a21.5,21.5,0,0,1-.4,3c-0.1.8-.3,1.6-0.4,2.5a46.4,46.4,0,0,0-.1,5.6v1.7l0.9-1.5a10.5,10.5,0,0,0,.8-1.8,9,9,0,0,1,.7-1.7l1.1-1.9,1.1-1.9a10,10,0,0,0,1.6-6.4,27.4,27.4,0,0,1,4.3-17.1l1.9-3.3a47.3,47.3,0,0,1,3.3-5.4,59.5,59.5,0,0,1,4.6-5.4l2.3-2.6,0.7-.8c2.3-3,3.7-4.6,4.3-4.9a2,2,0,0,1,1,2.3,23.6,23.6,0,0,1-1,3.8c-0.4,1.2-.7,2.6-1,3.9a62.2,62.2,0,0,0-1,7.9c-0.4,6.3-2.8,11.2-6.2,16.6l-0.4.6c-2.1,3.4-5.4,8.4-9.6,8.4h-1l-0.7.5a14.5,14.5,0,0,0-4.4,5.9l-0.4,1.1c-2,5.7-4.1,11.7-5.1,17.9-0.5,3.5-1.2,7-2,10.4a139.1,139.1,0,0,0-2.4,14l0.9,0.3q1.8-3.3,3.3-6.6a107.3,107.3,0,0,1,5.8-10.8,11,11,0,0,0,1.3-4.2v-0.8a23.5,23.5,0,0,1,1.7-5.5,28.9,28.9,0,0,1,5.9-8.2,47.3,47.3,0,0,1,3.8-3.5l0.4-.3a15.1,15.1,0,0,1,3.2-2.4,1,1,0,0,1,.6,1.3v0.2l-1.4,4c-1.9,5.4-3.9,11-7.1,15.8a6.4,6.4,0,0,1-3.9,3,8,8,0,0,0-5.5,4.5,50.6,50.6,0,0,0-6,13.7l-0.9,3.4a32.9,32.9,0,0,0-1.6,7.7l-0.3,7.7c-0.1,2.5-.3,8-0.5,12a2.2,2.2,0,0,0,.4,1.3,1.8,1.8,0,0,1,.2.6v0.6l0.6-.3c3-1.4,6.9-4.3,7.8-6.5a9.3,9.3,0,0,0,.4-3.4v-0.2c0-1.1,0-2.2-.1-3.2a29.3,29.3,0,0,1,0-4.2,7.3,7.3,0,0,1,.8-2.6,2.2,2.2,0,0,1,2.2-1.2h0.7a1.9,1.9,0,0,1,1.6,1.9,25.6,25.6,0,0,1-.3,4.1l-0.3,2.6v1.6l0.9-.9a61.4,61.4,0,0,0,4.4-4.8l1.2-1.5,2.9-3.4,0.6-.6c2-2.1,2.5-2.7,2.4-3.2a21.7,21.7,0,0,0-1.8-4.9l-0.5-1a10.9,10.9,0,0,1-1.2-6c0.3-1.8,1.1-2.7,2.6-2.9h0.6c1.6,0,2.4.7,2.9,2.4a9.1,9.1,0,0,1,.5,2.6l0.2,1.3,0.2,0.9,0.7-.7c2.4-2.4,7.4-13,9.1-19.7v-0.2l-1.3-1.6-2.8-3.4c-1.5-1.8-2-4-1.4-7.1a2.2,2.2,0,0,1,2-2,2.3,2.3,0,0,1,1.6.7,13.4,13.4,0,0,1,2.2,3.1,15.7,15.7,0,0,1,.9,2.1l0.6,1.6,0.5,1.2,0.4-1.2c1.9-5.3,3.1-9.3,1.9-13.9a33,33,0,0,1-.8-5.3,9.9,9.9,0,0,1,3.2-8.1,2.1,2.1,0,0,1,1.5-.7,1.9,1.9,0,0,1,1.6.9,4.3,4.3,0,0,1,.9,2.4,39.4,39.4,0,0,1-1.1,7.2,17.4,17.4,0,0,1-2.3,5.3,17.5,17.5,0,0,0-2.3,6.8,28.6,28.6,0,0,1-1.3,4.9l-0.4,1,1-.4,1.9-.8,2.9-1h0.8a1.6,1.6,0,0,1,1.3.5,2.5,2.5,0,0,1,.3,2,5.1,5.1,0,0,1-3.7,4.1l-4.6,1.3-2.2.6c-0.6.2-1.1,1.2-2.3,4.6l-0.4,1.1-5.2,11.8-0.6,1.2a17.5,17.5,0,0,0-1.6,4.1l-0.2.9,0.9-.4,0.6-.3a6.3,6.3,0,0,1,2.5-.8h0.3a4.4,4.4,0,0,1,3.2,2.5,4.1,4.1,0,0,1,.2,3.9,2.1,2.1,0,0,1-1.9,1.2h-0.1a68.3,68.3,0,0,1-6.8-.7l-1.4-.5-0.8-.4h-0.3l-6.7,8.1-2.1,2.4a38.1,38.1,0,0,0-4,5l-0.5.8h2.7c2.6,0,4,.7,4.6,2.5a3.4,3.4,0,0,1-.9,3.6,3,3,0,0,1-2.1,1,2.9,2.9,0,0,1-1.4-.4l-3.6-2.1-2-1.1h-0.2a25,25,0,0,0-5,4.2,21.7,21.7,0,0,1-5.5,4.5c-0.5.3-.8,1.2-1.2,3v0.4a19.8,19.8,0,0,0-.5,3.1v1.1c-0.2,1.6-.4,3.2-0.7,4.7-0.6,3.1-1.3,6.2-2.1,9.1l-0.9,3.5a38.6,38.6,0,0,1-1.2,4.2,48.9,48.9,0,0,0-2,8.5v0.7h0.7c4.8-.9,7.7-3,9.9-7,5.2-9.7,12.6-16.4,22.1-19.8l5.1-1.9,2.1-.8v0.2a2,2,0,0,1,.1.8l-0.5,1.2c-2.7,6.1-5.5,12.4-10.7,17a21.1,21.1,0,0,1-5.6,3.7c-4.7,1.9-9.6,3.7-14.3,5.3l-2.8,1c-5.5,2-9.1,5.2-10.8,10-3,8-6.6,16.3-10.6,24.4-1.1,2.2-2.2,4.3-3.4,6.4l-2.2,4.1a21.2,21.2,0,0,0-2.3,6.3l-0.2,1.3,1-.8a24,24,0,0,0,4-4.2l1.2-1.4a74.7,74.7,0,0,1,17.7-14.8,8.2,8.2,0,0,0,2.9-2.9c4.3-7.5,11-12,19.9-13.2l5.7-.7,2.3-.3c0.5,0.5.5,1,0,1.9l-1.3,2.4-1.3,2.4,1-.2c5.7-1.1,10.3-2.1,14.6-4.6l0.8-.5c1.2-.7,2.9-1.8,4.1-1.8l0.7,0.2a2.1,2.1,0,0,1,1.2,1.4,2.7,2.7,0,0,1-1.2,1.8,4.4,4.4,0,0,1-2.6,1.1,1.9,1.9,0,0,1-1.6-.8l-0.5-.4h-0.7a62.2,62.2,0,0,1-7.9,2.7l-0.6.2a15.5,15.5,0,0,1-2.9.8l-0.5.9,1,0.3,0.7,0.2a1.2,1.2,0,0,1,.4,1.1,3.3,3.3,0,0,1-1.2,1.8l-0.2.2-0.6.7a6,6,0,0,1-1.4,1.4l0.2,1,2.8-.7,4.4-1,1.5-.3,11.6-2.3h0.8a12.3,12.3,0,0,1,2.9.4,2.1,2.1,0,0,1,1.2,2.6,2,2,0,0,1-2.2,1.8h-0.1a5.6,5.6,0,0,1-4.1-1.8l-1.1-1.2-0.7-.8h-0.3a38.7,38.7,0,0,0-7.4,1.4l-1.9.5a30.8,30.8,0,0,0-4.9,1.5l-0.7.3,0.5,0.5a2.1,2.1,0,0,0,1.1.5h0.5a1.6,1.6,0,0,1,1,1.2,1.3,1.3,0,0,1-.5,1.2c-5.7,5-11,7.5-16.8,8.1h-0.6a45.8,45.8,0,0,1-5.3.3,16.6,16.6,0,0,1-6.1-1c-3.1-1.2-6.3-2.4-6.9-6.6v-0.7l-0.6.3a34.1,34.1,0,0,0-7.3,5.1l-2.1,1.7a61.5,61.5,0,0,0-10.4,11.5c-1.5,2-3.2,4-4.8,5.9l-3.5,4.2a54.8,54.8,0,0,0-3.9,5.4l-0.8,1.2a13.1,13.1,0,0,0-2.1,4l-0.2.8,0.8-.3a7.5,7.5,0,0,0,2.4-1.6l0.7-.5,4.1-3.1c7.8-6,15.1-11.6,24.5-14.1a39.6,39.6,0,0,1-.6,6.1,21.8,21.8,0,0,1-4.6,9.9c-2.7,3.3-6.8,5.8-12.2,7.7a12.9,12.9,0,0,1-4.1.6l-3.8-.2-1.6-.2-3.3-.3a6.2,6.2,0,0,0-3,.7,11.3,11.3,0,0,0-2.9,2.6,73.2,73.2,0,0,0-4.9,6.5l-3.3,4.5-3.5,4.2c-1.6,1.9-3.3,3.8-4.8,5.9l-2.2,3.1h-1.8ZM341,306.6l2.1,0.4,1.1,0.3h3.7a19.2,19.2,0,0,0,7.1-1.8,24.5,24.5,0,0,0,10.5-9.9A13.7,13.7,0,0,0,367,291s0.3-4.6-.1-5.1v-0.2h-0.2l-1.2.2-1.5.4-1.1.6a70.1,70.1,0,0,0-8.5,4.8c-2.2,1.5-4.4,3.2-6.5,4.8l-6.6,5.1-0.8.5-1.6,1.2a2.6,2.6,0,0,0-.9,1.5v0.7h0.7a14.2,14.2,0,0,0,3.5-1.4l0.7-.4,1.4-.7c7.1-3.6,11.3-5.6,12.7-6h0c-0.7,1.4-2,2.1-3.7,2.9l-3.6,1.5a36.8,36.8,0,0,0-8.7,4.4l0.6,0.8H341ZM396.9,247a20.4,20.4,0,0,0-5.3,1l-1.3.3a24.2,24.2,0,0,0-11.1,6.3,22.4,22.4,0,0,0-5.2,7l-0.5,1.5a5.3,5.3,0,0,0-.2,2.8,5.9,5.9,0,0,0,2.6,2.8,13.3,13.3,0,0,0,6.7,2.3h3.1a32.3,32.3,0,0,0,9.7-1.4,29.3,29.3,0,0,0,5.9-2.6l0.7-.4c1.5-.8,3.9-2,3.8-3.5a1.9,1.9,0,0,0-1.2-1.6l-1.4-.3h-0.3a9.3,9.3,0,0,1-2.9-.9l-0.3-.2v-0.2l2.3-2.7,0.3-.4a1.7,1.7,0,0,0,.6-1.4,1.1,1.1,0,0,0-.7-0.8,3,3,0,0,0-1.4-.3h-2c-1.8,0-2.3-.4-2.4-0.6a1.8,1.8,0,0,1,.5-1.5l0.6-.7c1-1.2,2.1-2.6,1.6-3.7a2.1,2.1,0,0,0-2-.9h-0.2Zm-92.6-6.1c-0.5,0-1.1.3-1.1,1.6-0.1,6.3,3.3,13.1,8.8,17.9a14.2,14.2,0,0,0,7.2,3.4l2.1,0.2a3.9,3.9,0,0,0,1.9-.4c2.7-1.5,3.4-5.9,3.9-8.5a50.1,50.1,0,0,0,.7-8.6,29,29,0,0,0-.9-7.5,11.8,11.8,0,0,0-.6-1.6l-0.5-1.4v-0.3c-0.2-.8-0.5-2-1.3-2a1.4,1.4,0,0,0-1.1.8,27.1,27.1,0,0,0-1.5,3.1v0.3l-0.4,1-0.9-.9a12.8,12.8,0,0,0-2.8-2.4l-0.9-.3a1.5,1.5,0,0,0-1.2,1.2,13.6,13.6,0,0,0-.9,4v1c-0.2,1.2-.8,3-1.2,3l-6.9-2.9-0.5-.2a3.6,3.6,0,0,0-2-.5h0.1Zm120.4,15.2a1.5,1.5,0,0,0-1.3.7,1.7,1.7,0,0,0,0,1.6,2.3,2.3,0,0,0,1.9,1.3,1.4,1.4,0,0,0,1.4-1.4h0a2,2,0,0,0-.5-1.5,1.8,1.8,0,0,0-1.4-.6h-0.1Zm-78.7-.5a1.4,1.4,0,0,0,1.1,1.3h0.5v-0.5a20.5,20.5,0,0,0-2.1-14.4l-0.3-.5c-1.2-2.4-2.6-5-4-5h-0.3c-1,.2-1.7,4.3-1.7,4.3a22.7,22.7,0,0,0,2.3,11.8,20.1,20.1,0,0,0,2.4,3.3h0.2v0.3l1.7-.9v0.3H346Zm47.4-37.9a2.2,2.2,0,0,1-.5.8l-1.9,1.7-2,1.9-1.9,2-0.5.7a7,7,0,0,1-1,1.3l0.3,1,4.4-1.3a27.5,27.5,0,0,0,13.3-10.2,36.7,36.7,0,0,0,3.9-7.4l0.2-.4a2.9,2.9,0,0,0,.3-2.5,1.6,1.6,0,0,0-1.4-.6h-0.2a7.9,7.9,0,0,0-3.1,1.1l-1.1.5a39.8,39.8,0,0,0-4.7,2.4,35.5,35.5,0,0,0-8.1,6.6,34.1,34.1,0,0,0-3.5,4.8l-0.8,1.3a2.2,2.2,0,0,0-.2,1.4v0.8h1v0.2l1.7-1.2,0.6-.4,2.5-2,1-1,1.4-1.3Zm-101.6,2.1a1.4,1.4,0,0,0-1.1.5,1.7,1.7,0,0,0,.2,1.7,2.1,2.1,0,0,0,1.6,1.1h0.1a1,1,0,0,0,.9-0.7c0.3-1-1.3-2.4-1.3-2.4Zm33.4-15.6a27.1,27.1,0,0,0,1.3,9.9,14,14,0,0,0,6.6,8.1,5.6,5.6,0,0,0,2.9.8,6.7,6.7,0,0,0,2.9-.7l0.6-.3-0.5-.5-2.5-2.3a22.5,22.5,0,0,1-5.2-5.8h0.4a2.9,2.9,0,0,1,.9.8l2,2.3a9.2,9.2,0,0,0,5.5,3.1h0.8l-0.3-.8c-1.8-5-4.8-8.3-8.2-11.7a11.4,11.4,0,0,0-6.6-3.5h-0.5v0.6h-0.1Zm-21.8,8.3a0.9,0.9,0,0,0-.8.5c-0.6,1.1,1.2,4.1,1.2,4.1a1.2,1.2,0,0,0,.8.6h0a1.1,1.1,0,0,0,1.1-.9v-0.3a2.3,2.3,0,0,0-.2-2.1,6,6,0,0,0-.9-1.3,1.8,1.8,0,0,0-.9-0.5h-0.3Zm5.1-13a0.7,0.7,0,0,0-.6.3c-0.5.7-.1,2.9-0.1,2.9a5.7,5.7,0,0,0,1.4,2.4l1.1,0.8h0.5l0.2-.2c0.4-.6-0.5-4.6-0.6-4.6a3.6,3.6,0,0,0-1.6-1.5h-0.3Zm41.6-2.2,1.1,1.6,0.8,1.2,1.4,1.9,0.8,0.7,1,0.8v-0.2h1v-1.8a9.2,9.2,0,0,0-.2-2.5,22.6,22.6,0,0,0-4.9-9.1c-2.1-2.5-4.5-5.3-7.8-6.9l-0.8-.4,0.2,2c0.5,6.1,1.1,14.4,6.6,18a2.9,2.9,0,0,0,1.4.4h0.9l1,0.2-0.4-.9a31.8,31.8,0,0,1-2.1-4.9h0Zm46-14.8a4.7,4.7,0,0,0-2.8,1l-0.3.3,0.2,0.4a5.6,5.6,0,0,0,4.5,2.9h0.2a1.9,1.9,0,0,0,1.6-2.4,3,3,0,0,0-1.3-1.8,5.1,5.1,0,0,0-2-.4h-0.1Zm-4.6-12.1a1.8,1.8,0,0,0-1.5.9,9,9,0,0,0,.1,7.6l0.4,0.8,0.5-.7c1.8-2.5,2.8-4.6,2.1-7.3a2,2,0,0,0-1.3-1.3h-0.3ZM340.8,150h-0.6v0.3c-0.3.6,3,5.9,3,5.9l4.3,6.1a51.6,51.6,0,0,0,4.8,5.7,10.3,10.3,0,0,0,4.8,2.7,20.1,20.1,0,0,0,4.5.6h1.6l0.9-.2-0.7-.7a42.4,42.4,0,0,0-4-3.2,17.7,17.7,0,0,1-3.1-2.9l-0.2-.2a31.9,31.9,0,0,1,4.3,2.7l1.2,1a10.3,10.3,0,0,0,2.7,1.9l0.9,0.2a1.1,1.1,0,0,0,.9-0.4,2.6,2.6,0,0,0-.1-2.3,9.2,9.2,0,0,0-2.4-2.9l-0.8-.8a37,37,0,0,0-4.2-3.7,103.9,103.9,0,0,0-9.1-5.8l-2.2-1.3-0.5-.3c-1.6-1-3.8-2.3-5.9-2.3h-0.1Zm68.5,14.3,1.7,0.9,1.4,0.7,1.5,0.2h0.7a2.4,2.4,0,0,0,2-1.6,3.3,3.3,0,0,0-.1-2.6,2.8,2.8,0,0,0-1.7-1.5h-0.6a5.7,5.7,0,0,0-3,1.4l-0.4.3-1.1.9-0.7.7,0.7,0.7h-0.4Zm-3.2-5.3c1.2-1.9,2.3-3.9.7-6.2a1.7,1.7,0,0,0-1.3-.9c-1,0-1.5,1.3-1.5,2.6a5.7,5.7,0,0,0,.5,2.6l0.2,0.5,0.6,1.2v-0.2ZM396,131.9c-1.8,3.7-1.7,4.7-1.4,5.2a0.9,0.9,0,0,0,.8.4h0.1c2-.4,2.9-2,3.7-3.4a47.4,47.4,0,0,0,4-8.7l0.8-2a24.2,24.2,0,0,0,1.4-4,4.2,4.2,0,0,0,0-.9,3.3,3.3,0,0,1,.1-1.1l-0.6-.8a32.7,32.7,0,0,0-11.3,12.2V129a21.6,21.6,0,0,0-1.5,3.3,5.2,5.2,0,0,0-.3,2.2s0.4,1.9,1.1,1.9h0.3l0.2-.2,1.6-2.4Zm-50.8-8.5c0.1,2.1,2.2,4.4,3.6,6l0.2,0.2a20,20,0,0,0,5.9,4.6,27.8,27.8,0,0,0,9.1,2.5l1.1,0.2,2.9,0.3h0.7a4.6,4.6,0,0,0,3-1.3,10.5,10.5,0,0,0,2.2-4.6V131a25.9,25.9,0,0,0,1-9.7c-0.4-4.5-2.1-8.8-3.8-13l-0.3-.7a18.9,18.9,0,0,0-1.8-3.5l-0.2-.2a8.8,8.8,0,0,0-1.2-1.6,1.9,1.9,0,0,0-1.3-.7c-0.8,0-1.1.9-1.3,1.4a38.3,38.3,0,0,0-1.3,4v0.4a24,24,0,0,1-1,3.3,10.6,10.6,0,0,1-1.7,2.9,18.3,18.3,0,0,1-4-1.5,15.1,15.1,0,0,0-4.6-1.6H352l-0.2.2a3.6,3.6,0,0,0-.9,3.4,7,7,0,0,1,.1.9c0,0.5.1,1.1,0.1,1.8s0.5,5.4-1,6a3.7,3.7,0,0,1-1.5.2h-3.4v0.5h0Zm83.2,6.1H428c-1.8.6-3.1,1.8-4.8,4.2l-0.5.7H425c1.8,0,3.9-.3,5-2.7a2,2,0,0,0-.2-1.8,1.9,1.9,0,0,0-1.4-.4h0Zm-12.3-5a1.1,1.1,0,0,0-.9.5c-0.8,1.1,0,4,.1,4a8.6,8.6,0,0,0,1.1,2.3l1,1.1,0.6,0.8v-0.5l0.9,0.3a7.4,7.4,0,0,0,.1-4.7c-0.4-1.3-1-3.1-2.1-3.6Zm11.6-20.9-1.1.3c-1.3.7-1.7,2.5-1.9,3.7a8.7,8.7,0,0,0,1.3,6.8l0.3,0.4,0.4-.3c2.1-1.4,2.4-3.6,2.6-5.5s0.1-1,.2-1.4a4.9,4.9,0,0,0-.6-3.5,1.5,1.5,0,0,0-1.2-.5h0ZM403.5,89.5L402.4,92l-0.9,1.9-0.6,1.2-0.6,1.3-1.1,2.3-1.2,1.9-0.6,1-0.5.7a2.8,2.8,0,0,0-.8,3.3l0.2,0.4,0.4-.2c2.4-.8,3.8-2.5,5.1-4.4l1.8-2.7a37.9,37.9,0,0,1,2.7-3.8c4-4.8,4.6-10.7,4.7-14.6a60.1,60.1,0,0,1,1.2-12.2,0.8,0.8,0,0,0-.1-0.6,0.7,0.7,0,0,0-.7-0.4,2,2,0,0,0-1.3.7,60.5,60.5,0,0,0-7.5,9.1L402,78.2a60.4,60.4,0,0,0-6.1,11.2,31.8,31.8,0,0,0-1.9,9.4,31.4,31.4,0,0,0,.1,4.9h1v0.2l1.4-1.6,0.8-.9a25.1,25.1,0,0,0,2.2-3.7c1.4-3,2.6-5.3,3.7-7.5l0.2-.4a1,1,0,0,1,.4-0.6Zm-78.7,7a1.8,1.8,0,0,0-1.9,2.2c0.5,1.8,1.7,3,3.9,3.8l0.5,0.2v-0.5c0.7-3.3.2-4.5-2.2-5.5h-0.6Zm16.6-12.7h-0.5a2.4,2.4,0,0,0-1.6,1.8,6.1,6.1,0,0,0,2.3,5l0.4,0.3,0.3-.3c2.1-2.1,2.4-4.4.8-6.2a2.4,2.4,0,0,0-1.7-.5h0ZM377.5,78a1.9,1.9,0,0,0-1.3.5,1.7,1.7,0,0,0-.5,1.3c0,1.5,2,3.2,3,4L379,84c1.2,1.1,2.1,1.7,3.3,1.7l1.7-.2-0.2-1h0.3a20.2,20.2,0,0,1-1.8-3.1l-0.7-1.2a6,6,0,0,0-4.1-2.1h0Zm-19.7-3.1h-0.5c-1.1.4-1.5,2.4-1.4,3a19.2,19.2,0,0,0,.3,2l0.2,1.2v0.7l0.6-.3a4,4,0,0,0,2.4-5.1l-0.2-.5a1.8,1.8,0,0,0-.8-1h-0.6Zm37.3-18.2c-1.1,0-2,1.3-2.6,2.1v0.4a22,22,0,0,0-2.3,4.2,26.1,26.1,0,0,0-2,10.1v1l0.8-.7a23.9,23.9,0,0,0,7-9.6c0.4-1.1,1.8-4.6.5-6.5a1.9,1.9,0,0,0-1.2-.9h-0.2Zm-16.6,6a1.8,1.8,0,0,0-1.5,1v0.5c0.7,2.9,2.8,4.2,5.5,5.8l1.9,1.1L384,69.9a11.9,11.9,0,0,0-3.9-6.4,2.6,2.6,0,0,0-1.6-.7h0Zm10.4-20.5-0.8.2c-1.2.6-1.6,2.4-1.9,3.4a16.6,16.6,0,0,0-.4,3,11,11,0,0,0,.1,1.3,7.2,7.2,0,0,1,0,2.3l0.8,0.5,0.2-.3c1.5-2.4,3.3-5,3.6-8a2.9,2.9,0,0,0-.5-2.1,1.3,1.3,0,0,0-1-.4h-0.1Zm-15.7,2c-1.5,0-2.1.6-2.3,1.1s1.3,2.1,2.7,2.6a37.7,37.7,0,0,0,6.5,1.9v-1h0.2l-0.9-1.3-0.6-.9a7.5,7.5,0,0,0-2.3-1.8,9.5,9.5,0,0,0-3.3-.5h0Zm8-8.1a10.8,10.8,0,0,0,2.5-3.9l0.4-.9a11.6,11.6,0,0,0,.9-2.9,1.8,1.8,0,0,0-.4-1.4,1,1,0,0,0-.8-0.3,1.6,1.6,0,0,0-1,.4,7.7,7.7,0,0,0-1.6,2.7,10.1,10.1,0,0,0-.8,3.1,8.1,8.1,0,0,0,0,1,9.3,9.3,0,0,1,0,1.7h0.1ZM364.8,28a3,3,0,0,0-2.3.7,1.4,1.4,0,0,0-.4,1.1v0.4c0.9,2.2,9.3,2.6,9.3,2.6v-1h0.2l-0.8-1-0.8-.9a7,7,0,0,0-2.6-1.4,11.7,11.7,0,0,0-2.6-.4h0ZM376.2,6.6c-1,0-1.4,1.4-1.6,2.1h0a19,19,0,0,0-.9,4.2c-0.4,4.9-.1,8.5,1,11l0.9-.4v0.2a11.6,11.6,0,0,1,.6-1.5l0.3-.8V21.2a16.6,16.6,0,0,0,.3-2.1V18a49.5,49.5,0,0,0,.4-7.3V10.3c0-.1.1-2.6-0.5-3.2a1.1,1.1,0,0,0-.8-0.3h0ZM360.1,3.1l-0.6.2h-0.2c-1.2,1.1-.4,3.4.1,5l0.2,0.6a28.1,28.1,0,0,0,2.2,5,24.5,24.5,0,0,0,6.7,7.8l0.9,0.6v-2a4.7,4.7,0,0,0-.2-1.7l-1.7-4.1-1.3-3.1C366,11.5,362.5,3.1,360.1,3.1ZM344.8,254h0a7.3,7.3,0,0,0,.1-1.1V252a8.1,8.1,0,0,1,0-3.1,16.5,16.5,0,0,1,.9,4.6c0.1,0.6.1,1.2,0.2,1.7Z"/><path class="b" d="M5,335.5l1.1-3.4,1.5-4.5a2.1,2.1,0,0,0-.2-1.8C4.9,323.2,4,320.2,3,317c-0.3-1.1-.7-2.2-1.1-3.4-1.4-3.7-3.2-8.8-.7-12.4a1.4,1.4,0,0,1,1.2-.7,2.8,2.8,0,0,1,2.2,2,54,54,0,0,1,2.1,8.1c0.4,2.2.6,4.4,0.8,6.6l0.3,2.9v0.4H9l0.2-.2H9.3l0.4-.6c1.7-5.2,3.7-11.3,5.4-17.4a4.4,4.4,0,0,0-.7-3.7c-1.9-3.1-6.2-21.1-3.5-25.9a1.8,1.8,0,0,1,1.6-1.1H13c1,0.2,1.9,1.8,2.1,2.9,0.6,3.2,1.1,6.5,1.5,9.7l0.4,3.2a4.9,4.9,0,0,1,.1,1.2,6,6,0,0,0,1,3.6l0.5,0.6,0.4-.7a91.9,91.9,0,0,0,4.3-10l1.4-3.7,1-2.1c0.9-1.7,1.9-3.5,1.6-5.7s-0.8-5.3-1.3-7.8v-0.6c-0.3-1.6-.7-3.2-1.1-4.9-1.3-5.4-2.6-10.9-1.4-15.8,0.4-1.7,1.6-2.9,2.8-2.9a3,3,0,0,1,2.2,1.2c2.9,3.4,2.3,9.6,1.9,14.1v1.3a44,44,0,0,0,0,5.7c0,0.9.1,1.8,0.1,2.8v1.1l0.8-.7A18.3,18.3,0,0,0,35,259l1-1.7,3.5-5.6c1.9-3,3.8-6,5.6-9.1a1.6,1.6,0,0,0-.3-1.5c-2.5-3.5-3-8.6-3.4-13.1a41,41,0,0,1,1.8-15.4v-0.3c0.3-1,.8-2.5,1.7-2.8h0.5a1.6,1.6,0,0,1,1.5,1.3,43.7,43.7,0,0,1,1.6,16.1c-0.2,1.5-.3,3-0.5,4.6l-0.4,2.7a7.1,7.1,0,0,0,0,1.1v0.8l1,0.4,0.2-.4c1.4-2.1,3-4.2,4.5-6.2l2.1-2.8,1.3-1.6c1.4-1.7,2.9-3.4,3.2-5.9a24.9,24.9,0,0,0-.5-6.6,29.5,29.5,0,0,1-.6-5.4,74.3,74.3,0,0,1,1.8-14.3l0.3-1.7c0.7-3.4,1.4-7.2,4.2-9.2a1.7,1.7,0,0,1,1-.4c2.1,0,3.2,6.9,3.3,11.2a42.6,42.6,0,0,1-1.7,13.2,16,16,0,0,0-.4,3c0,0.4-.1.9-0.1,1.3v0.5l0.8,0.6h0.2c0.6,0,13.4-15.2,13.6-15.4a5.9,5.9,0,0,0,1.3-4.9c-1-5.3-.3-10.7.6-15.8v-0.8a72,72,0,0,1,3.9-15,2.7,2.7,0,0,1,2.4-1.7,1.2,1.2,0,0,1,.8.3c3.7,3.5,2,13.1,1.3,17.1-0.4,2.3-1,4.7-1.6,7l-0.8,3.2-0.2,1.1-0.2.9,0.8-.3h0.4l0.8-.4,3.2-3.3,1.5-1.6,1.5-1.3a10.3,10.3,0,0,0,2.8-3.1,6.3,6.3,0,0,0,.3-3.6,9.5,9.5,0,0,1-.1-2c0.5-4.1.7-8.2,1-12.2l0.3-5a17.5,17.5,0,0,1,2.1-7.2,6.6,6.6,0,0,1,5.4-2.9,2.6,2.6,0,0,1,2.3,1c1.9,2.7-.7,10.3-1.9,13.9l-0.7,2.1a26.4,26.4,0,0,1-1,3,24.2,24.2,0,0,0-1.4,5.1v1l0.9-.5a20.4,20.4,0,0,0,3.3-2.4l0.3-.3,2.7-2.5,2.4-2.3,1.9-1.6a45,45,0,0,0,4.5-4c1.8-1.9,2.5-4.5,3.2-7l0.6-2a61.7,61.7,0,0,1,4.1-10.1,7.8,7.8,0,0,1,2.6-2.8h0.2a5.2,5.2,0,0,1,2.9-1.3c0.4,0,1.5,0,1.7,2.2s-1.3,6.1-2.7,8.4l-1.6,2.3a30.2,30.2,0,0,0-2.8,4.5l-0.6,1.2,1.2-.5a63,63,0,0,0,6.5-3.5l0.4-.2,1.5-.8a10.4,10.4,0,0,0,4-2.8,20.8,20.8,0,0,0,2.2-4.8c0.4-1,.7-1.9,1.1-2.7a116.1,116.1,0,0,1,6.7-12l0.8-1.3c1.7-2.8,3.7-6,6.9-6.6h0.8a2.9,2.9,0,0,1,2.6,1.4,4,4,0,0,1,.1,3.9,40.6,40.6,0,0,1-5.6,8.2,40.1,40.1,0,0,1-4.3,4.2,29.1,29.1,0,0,0-5.8,6.3l0.7,0.7c2.5-1.4,4.9-2.5,7.5-3.7l1.8-.8,8.8-4.2a2.5,2.5,0,0,0,1-1.1l2.4-4.7c3.2-6.4,6.6-13,11.6-18.2a10.3,10.3,0,0,1,5.1-2.6H189a1.8,1.8,0,0,1,1.6.8,4.1,4.1,0,0,1,.1,3.6c-1.7,4.4-5.6,8.1-9.1,11.2l-5.4,4.7-3.5,3.1h2.8l4.6-1.9c2.8-1.2,5.7-2.3,8.5-3.7l2.3-1.1a92.3,92.3,0,0,1,9-4.2l1.1-.5a15.7,15.7,0,0,1,5.9-1.7,5.7,5.7,0,0,1,2.5.5,1.7,1.7,0,0,1,1.2,1.4c0,1.4-2.1,3.4-3.6,4.2a31.3,31.3,0,0,1-12.4,3.6h-1.9l-4.2.5a30.2,30.2,0,0,0-5.8,2l-2.8,1.1-1.7.6,1.8,0.3a49.4,49.4,0,0,0,6.4.6,41.4,41.4,0,0,1,7.4.8c0.9,0.2,3.4.8,4.1,2.1a1.8,1.8,0,0,1,.1,1.5c-0.5,1.5-2.3,2.1-3.8,2.5a24.6,24.6,0,0,1-5.4.6,34,34,0,0,1-6.1-.6l-7.5-1.7-6-1.4h-0.7a6.5,6.5,0,0,0-2.5.6l-8.6,4-0.5.3-2.2,1.2-1,.5-0.3.2v0.8l1-.2a0.4,0.4,0,0,1-.3.5h0.6a118.3,118.3,0,0,1,14,1.5,5.2,5.2,0,0,1,2.8,2.8,3.6,3.6,0,0,1,.1,3,4.6,4.6,0,0,1-4.6,2.7c-2.2,0-6.7-1.5-9.4-2.7l-1.8-.7-3.4-1a27.8,27.8,0,0,1-4-1.3,8.8,8.8,0,0,0-3.6-.9l-2,.3a24.1,24.1,0,0,0-7.5,4.2l-2.5,1.8,0.3,0.9,1-.2,3.3-.4a5.8,5.8,0,0,1,2,.3c3.2,0.5,6.3,1.1,9.4,1.8s2.5,1.1,2.6,1.9-0.9,2.3-2.5,3.2a11.8,11.8,0,0,1-6,1.5,22.6,22.6,0,0,1-5.7-.8,55.8,55.8,0,0,1-6.3-2.2l-3.6-1.4h-0.6a2.8,2.8,0,0,0-1.5.5c-4.8,3.5-9.3,7-13.5,10.4l0.4,0.9a89.6,89.6,0,0,1,16-2.2h0.6a15.3,15.3,0,0,1,7.4,2,2.2,2.2,0,0,1,1.2,1.8,4,4,0,0,1-1.4,3.2,10.1,10.1,0,0,1-6.7,2.1,42.8,42.8,0,0,1-8.4-1.2l-3.5-.7a25.4,25.4,0,0,0-4-.3h-5.8a4.7,4.7,0,0,0-2.8,1.5c-1.5,1.3-2.9,2.8-4.3,4.2l-0.6.6a24.9,24.9,0,0,0-3.4,4l-0.7,1,1.2-.2,1-.2,2.3-.5a40.8,40.8,0,0,1,12.3-2.2l3.1,0.2H116c1.3,0.2,4.3.5,5,1.6a2.4,2.4,0,0,1,.3,2.1c-0.5,1.8-2.9,3.6-4.3,4.3a39.3,39.3,0,0,1-10.8,2.7L93,195.1H91.1c-3.2.2-6.2,0.4-8.7,3.2l-2.5,2.6-2.1,2.3L76,205a20.6,20.6,0,0,0-4.5,5.4l-0.5,1,1.1-.3,2.3-.8a14.5,14.5,0,0,1,3.2-1l3.2-.5,3.7-.5h0.8a23.2,23.2,0,0,1,3.9-.5,7.4,7.4,0,0,1,2.3.3,3.5,3.5,0,0,1,2.3,2.1,4,4,0,0,1-.4,3.4c-2.9,4.7-8.7,6-13.5,6.6-6.6.8-13.1,1.8-18.6,2.6H61.1a1.5,1.5,0,0,0-1.1.4l-1,1.3c-2.6,3.3-5.3,6.8-7.8,10.3l-0.9,1.4,1.5-.6,2.7-.9a54.7,54.7,0,0,0,5.2-2,21,21,0,0,1,8.7-2.2h1.1c1.9,0.2,5.1.9,6.1,2.4a1.8,1.8,0,0,1,.3,1.5c-0.4,1.8-2,2.8-3.6,3.8h0A35.7,35.7,0,0,1,61,242.8l-1.8.4a31.2,31.2,0,0,1-7,1.1,10.4,10.4,0,0,1-4.2-.8l-0.7-.2H46.9a1.3,1.3,0,0,0-.7.5,162,162,0,0,0-10.3,15.8l-0.4.6-0.5,1-0.3.7,0.7,0.6,1.8-1.3,3.6-2.6,1.5-1c3.2-2.2,6.5-4.5,10.2-5.3l1.6-.2H55a3.2,3.2,0,0,1,2.1,1.5,5.6,5.6,0,0,1,.6,4.1c-0.9,3.8-5.4,7.1-9.3,8.8l-2.8,1.4a29.7,29.7,0,0,1-4.8,2.1l-4.7,1.1-2.8.5-1.1.2c-1.3.2-3,.4-3.6,1.7l-4.5,9.7a56.6,56.6,0,0,0-2.9,7.2l-0.4,1.3,1.1-.7a23.7,23.7,0,0,0,3.8-3.1,27.3,27.3,0,0,1,3.1-2.7,77.1,77.1,0,0,1,7.2-4.4,11.7,11.7,0,0,1,4.9-1.6,1.8,1.8,0,0,1,1.5.6c1.2,1.7-.8,6.3-2.1,8.5a25.6,25.6,0,0,1-9.9,8.6l-1.4.7c-3.1,1.5-6.3,3.1-9.7,3.1l-2-.2H17.2l-0.2.4a100.6,100.6,0,0,0-3.6,11.4c-0.5,1.8-1,3.7-1.6,5.4l-0.5,1.7,1.3-1.1,2.4-2.1c2-1.7,3.8-3.4,5.8-4.9a6.8,6.8,0,0,1,3.8-1.4,2.1,2.1,0,0,1,2.4,1.8v0.2c0.4,3.3-1.1,5.9-4.3,7.9a77,77,0,0,1-11.2,5.6,4.6,4.6,0,0,0-2.8,3.4l-0.2.6a20.2,20.2,0,0,0-.9,3.3c-0.2,1.1-.5,1.8-0.7,2.7H5Zm18.9-23.9L21,313l-1.2.6-0.7.4,0.7,0.5a3.1,3.1,0,0,1,1.5,1.8,2.7,2.7,0,0,1-1,1.8,4.3,4.3,0,0,0-1.2,1.9l-0.2.8,0.8-.2c2.7-.6,5.9-3.8,6.3-6.3a1.9,1.9,0,0,0-.2-1.5,3,3,0,0,0-1.6-1.3H23.9Zm-5.8-12.3,1.3,0.7,0.9-1.4,1.4-2.3a1.3,1.3,0,0,0-.9-2.4H20.3ZM38.7,288c-2.1.7-7.2,5-7.5,6.6l-0.2.8,0.8-.2c2.8-.7,5-2.6,7.5-6.5l0.8-1.2Zm-1.1-6.3a0.6,0.6,0,0,0-.5.5h0l-0.2.5,1.9,0.8,0.5-1.6H37.6v-0.2Zm8.2-16.2,0.6,1,6.3-2v-0.4c-0.1-.9.5-1.3,1.4-2s1.9-1.4,1.9-2.8v-1Zm8.2-12H53.4a27.2,27.2,0,0,0-5.2,1.5,11.6,11.6,0,0,0-2.5,1.6l-1,.7,0.4,0.9a56,56,0,0,0,6.1-2.3l1-.4a4.7,4.7,0,0,1,1.7-.4c0.5,0,1,.2,1.4,2.1a1.4,1.4,0,0,1,0,.3v0.2l0.9,0.2a3.2,3.2,0,0,0,0-3.2A2.6,2.6,0,0,0,54,253.5Zm-28-1.4,1.1,2.1,1.8-1-1.6-1.9Zm22.1-11.4H47.8a1.4,1.4,0,0,0-.6,1v0.6l0.9,1.1,1.9-1.1V241H48.9Zm25.4-7.5a1.2,1.2,0,0,0-1,.5l-0.7,1.6-0.4.9,1.2,0.8,0.7-.8,1.1-1.4a1.4,1.4,0,0,0-.4-1.5H73.5Zm-30.9-7v2.3l1.7-.2L44,226H42.6v0.2ZM78,215.3l0.8,1.7,2.7-1.5L80.7,214Zm3.3-1.3,0.7,1.7,3.1-1.5-0.5-1.3ZM62.6,197.5c-1.4,1.4-1.7,7-.5,8.2l0.8,0.8,0.7-9.9Zm3.9-9.9a18.8,18.8,0,0,0-.3,9.4h1a17.9,17.9,0,0,1,.5-2.6c0.5-2.1,1-4.3-.2-6.9l-0.6-1.1Zm35.6,2.9,0.4,1.6,4.8-1.2-0.5-1.9Zm-6.7-1.4,0.6,1.4,3.9-1.9-0.5-1.4Zm22-.4h0.9a1.8,1.8,0,0,0,1.8-2.9l-0.4-.8Zm-14.2-16.4,1.2,1.2,2.1-2.2-1.2-1.2Zm27.9-2,0.3,0.3,0.7,0.7,1.9,1.8,0.5,0.2h1.8l-0.2-.6v-0.4a1.5,1.5,0,0,0-.6-1.1l-2.4-1-0.9-.3-0.4-.2Zm-27.9-15.4,1.4,0.4,0.5-2.2-1.4-.4Zm6.3-3.3L111,152l0.4-2.6v-0.2h0v-2.5l-1.9.3,0.2,0.6,0.7,1.7Zm18.9-3.1,1.5,0.9,2-3.4h-0.3l2-2.4-1.7-1.2-1.6,2.7,1.3,0.8-1.2-.7Zm66-13.7,0.8,1.7,1.4-.9-1-1.6Z"/><path class="b" d="M786.8,335.5a11.1,11.1,0,0,1-.7-2.3l-1.2-6.5-0.8-4.2a1.3,1.3,0,0,0-.9-1c-2.1-.4-3.7-1.7-5.3-3l-2.6-1.9-0.4-.2-0.5-.2-1,1a3.3,3.3,0,0,1-2.4,1.3,5.1,5.1,0,0,1-2.4-.8c-2-1.1-2.3-3.6-1.8-5.7s2-4,4.2-4h0.6a3.7,3.7,0,0,1,3.3,3.6c0,3.3,2.1,4.8,4.3,6l2.4,1.5,1.1,0.8,0.3,0.2,0.8-.7v-0.2l-0.3-1.4a28.7,28.7,0,0,1-.5-3.1c-0.1-1.1-.4-3.4-0.6-5.1-0.4-3.2-.8-6.6-1.4-9.9s-2.8-5.9-5-8.2l-0.9-1.1c-2.5-3.2-3.3-4.1-4-4.1l-1.6.2-2.7.2a4.9,4.9,0,0,1-4.3-2.2,5.9,5.9,0,0,1-1.3-4.6,3.4,3.4,0,0,1,1.8-2.3,4,4,0,0,1,1.9-.5,6.1,6.1,0,0,1,5.6,3.9,14.5,14.5,0,0,0,4.2,6.2l2,2.1,1.3,1.4,0.7,0.7,1,1-0.2-1.4-0.5-4.3c-0.4-3.3-.7-6.3-1-9.5a54.8,54.8,0,0,0-2.2-10.7,54,54,0,0,1-1.7-16.9,13.3,13.3,0,0,1,2.8-7.6,3.7,3.7,0,0,1,6.5,1.4c1.3,3.6.8,7.2,0.1,10.4s-1,4.3-1.5,6.4-1.4,5.6-1.9,8.4a22.8,22.8,0,0,0,0,6.3V276c0.2,2.5.5,5,.8,7.4l0.5,4.1,0.3,3.1v1.8l1.1,0.3,1.3-2.3,4.1-7.3a1.8,1.8,0,0,0,0-1.5,4.4,4.4,0,0,1,.1-4.5,4.7,4.7,0,0,1,3.9-2.5,4,4,0,0,1,3.3,1.9,5.4,5.4,0,0,1-.4,6.8,3.3,3.3,0,0,1-2.4,1.3l-1.2-.3a3.5,3.5,0,0,0-1.4-.3,2.6,2.6,0,0,0-2.3,1.8c-1.5,3.1-3.1,6.3-4.9,9.5a7.1,7.1,0,0,0-.5,5c0.2,1.6.5,3.1,0.8,4.6l0.6,3.2c0.2,1,.3,2,0.4,3l0.3,1.8,0.2,0.6,0.2,0.5,0.4,1.1,0.5-1.1,0.7-1.3c1.3-2.3,2.3-4.4,1.8-7.2a3.6,3.6,0,0,1,.8-3,4.7,4.7,0,0,1,3.5-1.7,3.7,3.7,0,0,1,1.5.3,5.7,5.7,0,0,1,3.6,3.8,4.8,4.8,0,0,1-1.5,4.2,3.9,3.9,0,0,1-2.9,1.5,5.1,5.1,0,0,1-2.3-.6l-0.4-.2-0.6-.3-0.3.4c-1.9,2.8-3.7,6.2-3.6,10.2a18.5,18.5,0,0,0,.1,2.3c0.1,3.3.1,7.1,1.3,9.9l0.6,1.1a2,2,0,0,1,.5,1.8h-2ZM771.1,310a2.3,2.3,0,0,0-1.9,1.2,4,4,0,0,0-.3,3.7,2.4,2.4,0,0,0,2.2,1.5,3.1,3.1,0,0,0,2.9-2.7,3.4,3.4,0,0,0-1.2-3,2.8,2.8,0,0,0-1.7-.7h0Z"/><path class="b" d="M850.5,335.5v-0.8l0.4-4.5v-0.9l-0.8.4-1,.4-0.8.4-5.5,4.9h-1.1l2.1-1.9,1.6-1.5a21.6,21.6,0,0,1,3.7-3c1.2-.7,1.9-1.3,1.7-2.8s-0.3-3.3-.5-4.9l-0.2-2.4,0.8,5.7c0.4,3.3.9,7.1,1.2,10.9h-1.6Zm-17.4,0a4.1,4.1,0,0,0-.1-1.1c-0.1-1.9-.2-3.8-2.8-5a20.1,20.1,0,0,1-5.3-4.3l-1.8-1.8-5.7-5.5-2.5-2.5-0.5-.5-0.3.7c-1.4,3.7-.5,7.7,2.3,9.8l2.3,1.8-1.4-.9-2.9-1.8-0.9-.6v1.1a15,15,0,0,0,.4,2.4,19.6,19.6,0,0,1,.4,3.9A3.9,3.9,0,0,0,816,335l0.7,0.5h-2.2a102.6,102.6,0,0,1-1.3-33.4c1.6-13.5,5.3-26.5,8.7-37.5,1.3-4.3,2.7-8.6,4.1-12.7l2.1-6.4a64.8,64.8,0,0,1,2.9-7c0.8-1.8,1.6-3.6,2.3-5.4,6.7,26.6,11.8,51.6,15.7,75.9l-0.3-1.5-0.6-2.8v-0.5h-1l-0.4.2-2.6,2.2-9.9,8.3a3.5,3.5,0,0,0-.7,2.6c0.2,5,.5,9.9.8,14.5l0.2,3.4h-1.4Zm-14.9-54.8-0.3.7-0.5,1.2a111.9,111.9,0,0,0-3.6,26.5c0,1.3-.1,3.3.9,4.3,3.9,4.2,8,8.3,12.3,12.4a20.4,20.4,0,0,0,2.8,2.1l1.6,1.1,0.7,0.5v-1.8a6.6,6.6,0,0,0,.1-1.4c-0.1-2-.2-4-0.4-6.1-0.3-5.7-.7-11.6-1.3-17.3a17.7,17.7,0,0,1-.1-2.3c0-2.3-.1-4.7-1.8-6.9s-3.8-5.3-5.6-7.9l-2.8-4.1-0.9-.8-0.5-.4-0.5-.4v0.6Zm26.3,18-1,.9-2.4,2.1-6.2,5.3c-2.1,1.7-2.6,3.5-1.7,6.2l0.2,0.7,1.3-1,1.3-1,3.4-2.8,5.6-4.6c1.6-1.3,3-3.1.7-6.1l-0.3-.4Zm-5-13.2-7.1,6.8a1.7,1.7,0,0,0-.4,1.3c0.1,3.5.1,7,.2,10.7v3.1l0.7-.2,0.6-.2,0.8-.4,10.8-9.3a2,2,0,0,0,.6-1.7c-0.7-3-1.5-6-2.2-8.9l-0.7-2.6-1.5-.5Zm-20-12.7v0.4a15.5,15.5,0,0,1-.2,1.7c-0.2,1.3-.5,2.7.1,3.7,1.9,3.4,4.1,6.6,6.3,9.8l2,2.9a3.3,3.3,0,0,0,1,.8l0.8,0.6,0.9,0.7v-1.2a17.7,17.7,0,0,1-.1-2.3,10.7,10.7,0,0,0-2.7-7.9l-1.1-1.6-3.4-5.4-1.6-2.6Zm19.4,4.1a27.8,27.8,0,0,1-2.5,2.9c-2.5,2.7-5.2,5.5-4.6,10.7v0.9l1.7-1.4,1.4-1.2,1.5-1.4,2.7-2.5c3.2-2.7,3.3-4.3.4-7.9l-0.4-.5Zm-7.2-37.4-0.6.7-0.4.6-1.9,5.3c-1.5,4.2-3.1,8.5-4.4,12.9a30.1,30.1,0,0,1-1.1,3.2c-1.6,4.3-3.3,8.7.4,13.4a50,50,0,0,1,3.4,5.2l1.8,2.8,0.8,1.3,3-46.6Zm2,5.8v0.4a234.3,234.3,0,0,0-1.5,36.1v1.1l0.8-.8a54.9,54.9,0,0,0,5.8-6.3,3.6,3.6,0,0,0,.6-2.5c-0.6-4.4-1.3-8.8-2-13.3l-1.1-7.3c-0.2-1.6-.4-3.2-0.7-4.9l-0.4-2.7Zm-4.9,90.2-2.6-2.3-0.5-.5,2.7,2,1.2,0.8h-0.8Z"/><path class="b" d="M996.9,281.2l-1.3-1.8-11-15.6-4.6-6.4a2.4,2.4,0,0,0-.8-0.8c-7.2-3.6-9.4-10.9-11.3-17.4v-0.4c-1.7-5.6-3.4-11.5-3-17.6q0.3-4.4.3-8.7c0-1.2,0-2.3.1-3.5h0.3a24,24,0,0,1,7.3,8.6c4.5,8.3,7.1,16.1,7.9,23.9a40.3,40.3,0,0,1-.4,10.1c-0.6,3.8,1.3,6.6,3.1,9.2h0.1L997.7,281h-0.5Zm-31-69.3v0.8a5,5,0,0,0-.1,1v0.4c0,7.8,0,15.8,2.5,23.6,1.7,5.2,3.5,10.2,7.3,14.4a7.9,7.9,0,0,0,1.6,1.2l1,0.6,0.7,0.5v-0.8c2.4-14.8-1.3-28.4-11.4-41.7l-0.2-.2Z"/><path class="b" d="M296.7,167.2l-3.5-6.8-1.3-2.6-0.6-1.2c-1.1-2.5-2.6-5.8-4.9-5.8a7.6,7.6,0,0,0-2.5.8l-1.4.5a17.1,17.1,0,0,1-3.7.6h-1.9l-6.2-.3c-9.2-.9-17.8-4.6-24.2-7.7l-1.5-.8-4.4-2.1a5.9,5.9,0,0,0-2.5-.4h-1.5a5.2,5.2,0,0,1-2.6-.6c-1.8-1-3.3-3.1-2.4-5.5s1.5-1.7,2.7-2.2h0.1a6,6,0,0,1,2.2-.4,4.7,4.7,0,0,1,4.7,6.6,1.8,1.8,0,0,0,.7,2.4l0.4,0.2c9.9,4.3,19.3,8.3,30.3,9.2,2.1,0.2,4.2.2,6.3,0.2h1.9l0.8-.3h0.5v-1.2l-1.6-.6-2.9-1.1-4.6-1.8c-6.6-2.6-13.4-5.3-18.9-9.6a14.6,14.6,0,0,0-5.2-2.8,5.1,5.1,0,0,1-3.7-5,5.3,5.3,0,0,1,4.9-5.7H251a5.5,5.5,0,0,1,5.6,4.8c0.4,2.8-1.6,4.5-3.3,5.4l-0.7.4,0.6,0.5c9.2,7.4,19.9,10.9,31.9,14.5h0.3l0.8-.9v-0.3l-3.2-7.9c-2.4-6-4.9-12.2-7.8-18.1a2.2,2.2,0,0,0-1.3-.9c-2.5-.8-4.3-2-4.8-4.7s-0.1-4.9,1.6-6.7a3.4,3.4,0,0,1,2.5-1.1,5,5,0,0,1,4.6,4,16.8,16.8,0,0,1-.1,4.8,8.8,8.8,0,0,1-.4,1.5,5.7,5.7,0,0,0-.4,3,21.7,21.7,0,0,0,1.6,4.1l0.9,2c1.8,4.6,3.5,8.8,5.3,12.9l1,1.9,0.5,1,0.6,1.2,0.5-2.1c1.6-7.5,3.4-15.2.2-22.6a7.5,7.5,0,0,0-3.2-2.9,4,4,0,0,1-1.9-4.9c0.6-2.5,3.2-5.3,6-5.3a4,4,0,0,1,1.9.5,4.8,4.8,0,0,1,2.5,4,8.6,8.6,0,0,1-3.1,7,2.3,2.3,0,0,0-.6,2.1c0.2,1,.5,1.9.8,2.9a37.6,37.6,0,0,1,1.1,4.2,18.5,18.5,0,0,1,.1,3.8v2.1l1,0.7,0.3-.3,1-1a23.2,23.2,0,0,0,2.2-2.4,12.1,12.1,0,0,0,2.2-5.3c0.1-.4-0.2-0.6-1.1-1.3a9,9,0,0,1-1.7-1.5,7.4,7.4,0,0,1,1.1-6,4.5,4.5,0,0,1,3.8-2.1,6.1,6.1,0,0,1,5.7,5c-0.1.4-.1,0.8-0.2,1.1a4.2,4.2,0,0,1-1,2.7,5.9,5.9,0,0,1-3.5,1.7l-0.7.2a1.2,1.2,0,0,0-1.1,1,18.2,18.2,0,0,1-6,9.3c-2.5,2.1-2.9,3.6-3.6,6.3l-0.2.6a15.1,15.1,0,0,1-.6,1.7l-0.6,1.7a3,3,0,0,0,.2,2l1.9,3.9c2.5,5,5,10.2,7.8,15.1ZM236.4,135a1.7,1.7,0,0,0-1,.5l-0.6.4-1.1.6,4.2,0.9,0.8-1.2-0.5-.3-0.4-.3-1.3-.6h-0.1Zm35.5-19.7,1.5,0.5,0.8-2.6-1.4-.7Zm14.5-3.9,2.5,0.8,0.6-1.5-2.5-1Z"/></g></svg>