<svg xmlns="http://www.w3.org/2000/svg" width="183.9" height="774.8" viewBox="0 0 183.9 774.8"><defs><style>.a{opacity:0.2;}.b{fill:#e5e1cf;}</style></defs><title>foliage_left</title><g class="a"><path class="b" d="M90.9,756.3h0Z" transform="translate(0 -96.6)"/><path class="b" d="M24.1,871.4c-3.7-.1-6.6-1.9-9.7-3.8L11.8,866a9.4,9.4,0,0,1-1.9-1.6L8.5,863A32.7,32.7,0,0,0,0,858.7v-2.5l6.6,1.8,4.5,1.2,2.6,0.6H14l2.6,0.6a40.3,40.3,0,0,1,5.9,1.6c2,0.8,4.7,5.1,4.2,7.7s-1,1.7-2.5,1.7H24.1Zm-1.2-5.2v2.4h1.6v-2.4H22.9Z" transform="translate(0 -96.6)"/><path class="b" d="M49.3,851.3a25.7,25.7,0,0,1-8-1.6,16.2,16.2,0,0,0-4.4-1l-8.3-.6-6.2-.5L12.2,847H8.3a6.7,6.7,0,0,0-2.3.3,58.5,58.5,0,0,0-6,2.6V847l3.3-1.8,1.2-.7A10.4,10.4,0,0,0,8.7,841a19,19,0,0,0,1.9-6l0.4-1.7,0.8-3.7a105.1,105.1,0,0,1,3.7-13.7,8.6,8.6,0,0,1,5.1-5.1l1.4-.2a1.2,1.2,0,0,1,1.2.6c1,1.8-1.5,7.4-2.7,9.4L18,824.1c-2,3-4.1,6-5.2,9.6a24.9,24.9,0,0,0-.7,3.6l-0.3,1.9-0.2.9,0.8-.3,1.2-.4,1.6-.7,3.4-1.8c5.3-2.7,11.4-5.8,12.6-11.6a44.2,44.2,0,0,1,1.9-6.1,46.4,46.4,0,0,0,1.9-5.9c1-4.7,1.7-9.6,2.4-14.5,0.4-2.7,1.6-6.6,4-8.9a4.1,4.1,0,0,1,2.8-1.3,2.9,2.9,0,0,1,2.3,1,4.1,4.1,0,0,1,.7,3.4,17.7,17.7,0,0,1-4.3,8c-4.8,5.3-6.7,11.7-8.2,18.3l-0.4,1.4c-0.5,1.6-1.1,3.6-.8,4.8a2.6,2.6,0,0,0,.3.8,1,1,0,0,0,.8.5,2.8,2.8,0,0,0,1.7-1.1,4,4,0,0,1,1.5-1.1h0.2l4-3a93.1,93.1,0,0,0,11.1-11.4c1.3-1.5,1.3-3.3,1.2-5.1a16.4,16.4,0,0,1,0-1.9c0.3-3.1.8-6.2,1.2-8.9s1-5.4,1.5-8,1.1-5.8,1.6-8.7a98.5,98.5,0,0,1,2.3-11c0.5-1.8,3.3-5.7,5.2-5.9h0.3a1.5,1.5,0,0,1,1.3.6c1.1,1.6.3,5.6-.3,7.2a37.7,37.7,0,0,1-2.9,6l-0.2.3A56.1,56.1,0,0,0,58,792.6c-0.2,1.6-.4,3.3-0.6,4.9a52.6,52.6,0,0,1-1.1,7.7L56,806.6l1.1-.8a11.5,11.5,0,0,0,2.1-1.9l5.8-6.7c8.4-9.6,17-19.4,21.2-31.8,0.4-1.2.8-2.4,1.1-3.6a43.1,43.1,0,0,1,2.3-6.6c1.7-3.6,4.4-6.1,7.3-6.8h1.2a2.6,2.6,0,0,1,2.3,1c0.6,1,.2,2.4-1.2,4.3-4.4,6.1-8.8,12.3-13,18.4l-8.1,11.6c-2.7,3.8-5.6,7.6-8.4,11.2l-1.6,2L66,799.3l-1.8,2.1-2.6,3.4-1.3,1.8-0.8,1.1,1.3-.3,0.7-.2,0.8-.2,6.1-1.9c5-1.5,10.1-3,15-4.9s7.9-3.4,11.7-5.2l7.6-3.5a7,7,0,0,1,2.8-.4h1.8c1.6,0.1,2.5.4,2.6,1.8s-1.6,3.2-3.3,4.3c-4.3,2.9-10.1,3.1-15.3,3.3H88.6a14.6,14.6,0,0,0-4.5,1.3l-1.3.5L76.1,805l-6,2.2-3.5,1.1a37.5,37.5,0,0,0-6.8,2.6c-2,1.1-3.9,2.3-5.9,3.5l-1.9,1.2a166.8,166.8,0,0,0-18,13.7l0.6,0.8H35l2.6,0.4,1.8,0.3a51.6,51.6,0,0,0,5.6-.3c2.2-.2,4.4-0.6,6.5-1l5.3-.9,2-.2a13.7,13.7,0,0,0,5.8-1.3c5.7-3.2,10.6-4.8,15.5-5H80a6.3,6.3,0,0,1,4.6,2.7,3.2,3.2,0,0,1,.5,3,3.5,3.5,0,0,1-1.3,1.4,12.3,12.3,0,0,1-7.4,1.9,53.5,53.5,0,0,1-5.9-.4l-4.2-.4H62.8l-9.5,1.2A139.7,139.7,0,0,1,33.7,833h-3c-2.1,0-4,1.5-5.7,2.8l-2,1.4c-2.5,1.5-5.2,2.8-7.7,4.1l-0.8.4-1,.8-0.6.5-0.7.6,0.9,0.3,0.8,0.3,1.3,0.3,6.1,0.5c3,0.2,6.1.4,9.1,0.8l1.3,0.2a27,27,0,0,0,3.8.4,10.6,10.6,0,0,0,3.9-.7A32.9,32.9,0,0,1,51.5,843l2.9,0.2c2.1,0.3,2.9,1.6,3.4,3s-0.6,2.6-1.7,3.3A12.3,12.3,0,0,1,49.3,851.3ZM77.2,824a7.9,7.9,0,0,0-4.2,1.1l-0.6.4,0.6,0.4a4.7,4.7,0,0,0,2.9.8,7.5,7.5,0,0,0,4.6-1.5l0.8-.6-1-.2A13.6,13.6,0,0,0,77.2,824Zm18.2-28.6,0.6,1.8,6.7-2.5-0.4-1.4Zm-7.3-35.7,1.3,0.7,0.3-.2a4.3,4.3,0,0,0,1.7-3.6h0l2.7-2.7H92.7a2.4,2.4,0,0,0-1.8.6,2.2,2.2,0,0,0-.5,1.7h0v0.2Z" transform="translate(0 -96.6)"/><path class="b" d="M0,446.4c2.1-2.5,4.4-4.9,6.7-7.3l4.6-4.9,0.3-.3-0.3-.3-0.5-.6-1.1-1.3-2-3.1-2.5-4-4.8-7.1L0,417.1v-5.9a10.4,10.4,0,0,1,2.2,3,90.3,90.3,0,0,0,6.4,10.1l1.9,2.7a23.7,23.7,0,0,0,2.4,2.8l1.3,1.4,0.3,0.4,4.6-3.7-0.3-.4c-4.8-5.4-7.2-12-7.3-19.9a33.9,33.9,0,0,0-.9-6.3l-0.5-2.5-1.3-7.2-0.5-2.8,0.3-.2,1,1.1a13.5,13.5,0,0,1,2.3,3c2.9,5.9,6.3,13.9,6.1,22.9a16.5,16.5,0,0,0,2.6,9.8l0.3,0.4,2.7-1.7,8.8-5.8a2,2,0,0,0,.5-1.8c-0.1-1.5-.2-3-0.4-4.5s-0.4-4.8-.5-7.1c-0.5-9.4,1.4-17.2,5.9-23.7,1.9-2.8,3.8-5.7,5.5-8.6l3.4-5.4a6.2,6.2,0,0,1,1.2-1.2l0.4-.3v0.2a2.8,2.8,0,0,1-.3.9c-4.7,7.6-6.9,16.2-9,25.1a18.7,18.7,0,0,0-.3,6.8c0.8,5.4-.6,10.7-2.2,15.6l-0.4,1.4,1.2-.8,3-2,6.1-4.2,3-2.4,2.5-2c3.7-2.8,4.2-4.1,3.1-8.5-0.2-.9-0.5-1.9-0.8-2.8a22.8,22.8,0,0,1-1.2-5.2,32.7,32.7,0,0,1,.7-10.1c2.3-8.9,6-15.8,11.3-21.2,3.2-3.2,6.6-6.4,9.9-9.4l5.1-4.7,1.3-1.4a18.8,18.8,0,0,1,1.9-1.9,3.8,3.8,0,0,1,1.4-.5h0.6l-0.3.4a5.8,5.8,0,0,1-1,1.2,104.1,104.1,0,0,0-18.4,20.1,32.9,32.9,0,0,0-6.1,17.5c-0.1,1.8-.2,3.7-0.2,5.5s-0.1,3.7-.2,5.5v2.1a61.8,61.8,0,0,0-.2,7.9v0.9l2.2-1.6,3.5-2.5a11.6,11.6,0,0,1,2.2-1.3c1.5-.6,2.4-1.5,1.7-3.6s0.3-5.9,1.4-8.7l0.4-1.1c1.5-4,3.4-7.8,5.5-12.1,3.2-6.5,8-11.7,13.1-16.9,1.2-1.2,2.3-2.6,3.4-3.9a51,51,0,0,1,3.4-4c3.2-3.2,6.7-6.3,10-9.2l0.3-.3h1.1a1.9,1.9,0,0,1-.3.9l-4,4.1c-2.2,2.3-4.5,4.6-6.6,7L94,349.5a91.4,91.4,0,0,0-10.1,13,80.4,80.4,0,0,0-6,13.5l-1.8,4.6c-0.8,2-1.4,4.1-2.1,6.3l-1.1,3.4-0.4,1.2,1.1-.6,3.5-1.8c3-1.5,5.8-3,8.5-4.6a4,4,0,0,0,1.4-2.1l0.5-1.1c3.4-5.8,8.2-10.8,15.3-15.8a90.3,90.3,0,0,1,31.7-13.8l12.5-3,4.3-1.1a24.3,24.3,0,0,1,6-.7h2.8a4.8,4.8,0,0,1-1.6.8l-11.2,2.7-9.8,2.3a51.7,51.7,0,0,0-6.7,2.3l-6.2,2.4c-8.3,3.1-16.8,6.4-24.1,11.8a55.8,55.8,0,0,0-7.4,7.1l-3,3.2a1.8,1.8,0,0,0-.2,1.8l0.2,0.6,0.6-.4,2.5-1.6,5.4-3.6a66,66,0,0,1,24.8-10.3l1.7-.3a170.3,170.3,0,0,1,21.4-3.2c3-.2,6.2-0.3,9.8-0.3l12,0.2h6a47.3,47.3,0,0,1,6.3.7l2.1,0.3,1.2,0.4h-1.3l-8.9-.3a123.3,123.3,0,0,0-16.2,1.1c-5.9.8-11.9,1.8-17.7,2.8l-3.8.6-3.9.6a99,99,0,0,0-11.6,2.3c-4.4,1.2-8.7,2.9-12.9,4.5l-4,1.5-5.6,2.3L95.4,381l-0.4.2,0.4,2h0.5a264.6,264.6,0,0,1,26.4-2.4c11.5-.7,23.4-1.3,34.9-4v0.2l-0.4.2-1.8.6a160.9,160.9,0,0,1-35,5.9l-20,1-8.9.4H90c-4.2,1.7-7.9,3.3-11.7,5.2l-1.7.9h1.9l4.4,0.2,9.8,0.5,7.9,0.8c4.3,0.5,8.7.9,13.1,1h2.4c4.4,0,8.8-.3,13.1-0.5l6.2-.3,2.1-.3h0.4a3.6,3.6,0,0,1-2.9,2l-5.2.6-7.1.9a76.7,76.7,0,0,1-11.5.9,113.4,113.4,0,0,1-21.6-2.3c-3.8-.7-7.7-1.3-11.4-1.9l-2.2-.2c-3.5,0-6.8,1.3-10.4,4.2l-0.8.6,1,0.3,0.5,0.2,1,0.2h3.5a57.8,57.8,0,0,1,17,2.8,110.1,110.1,0,0,0,28.8,4.7l6.7,0.2,5,0.2H130l-0.2.2a2.3,2.3,0,0,1-1,.5h-10c-8.9-.1-18.2-0.2-27.2-0.9a97.9,97.9,0,0,1-15.8-3.1l-7.1-1.7-1.7-.5a11.5,11.5,0,0,0-3.3-.7H63.2a12.7,12.7,0,0,0-5.5,2.3c-3.5,2.4-7,4.9-10.4,7.3l-2.8,2.1a3.3,3.3,0,0,0-.7.8l-0.5.7-0.7.9h1.2l3.2-.3,6.3-.6,6-.5c5.4-.5,11-1,16.4-1h0.9c4.7,0,9.5.3,14.1,0.6l7.3,0.5h1.9c3.5,0.2,7,.3,10.7.7l-0.5.2-11,.4-17.5.8a134.1,134.1,0,0,0-26.1,3.9l-3.6.7a27.2,27.2,0,0,0-5.1,1.1,10.5,10.5,0,0,1-3.6.6,26.2,26.2,0,0,1-4.8-.6l-0.9-.2H36.7a4.4,4.4,0,0,0-2.4.6l-7.7,5.4-3.1,2.2-1.3.9H39.5l5.1,0.2c9.8,0,19.7-2.1,32.1-6.9,1.7-.7,3.4-1.5,5-2.2l4-1.8a5.1,5.1,0,0,1,1.8-.2h0.4l-1.2.5a33.3,33.3,0,0,0-3.6,1.7l-5.9,3.4-6.7,3.9a46.4,46.4,0,0,1-13.4,5.2,46.3,46.3,0,0,1-8.7.8,62.6,62.6,0,0,1-16.2-2.4,26.4,26.4,0,0,0-6.7-1.1,12,12,0,0,0-9.5,4.5l-0.7.8h2.2a7.2,7.2,0,0,1,1.9.2l1.6,0.4a76.3,76.3,0,0,1,8,2.5l1.4,0.6c4.2,1.7,8.4,3.4,13.1,3.6l0.5,0.2-0.5.2a6.6,6.6,0,0,1-2.4.8H38.8l-7.8.2-5.2-.2c-5.6-.4-9.2-2.5-11.2-6.3a1.9,1.9,0,0,0-1.7-1.2,2.7,2.7,0,0,0-1.8.9l-3.2,2.9c-2.1,1.9-4.3,3.9-6.3,5.9l-0.9,1-0.7.9v-1.7H0Z" transform="translate(0 -96.6)"/><polygon class="b" points="110.9 745.6 110.9 745.6 110.9 745.6 110.9 745.6"/><path class="b" d="M138.5,793.6a3.4,3.4,0,0,1-3.5-2.9,5.7,5.7,0,0,1,.2-2.3,5.4,5.4,0,0,0,0-3.3,13.3,13.3,0,0,1,.1-9.1,1.7,1.7,0,0,0,0-1.5,2,2,0,0,0-1.5-.8,25.9,25.9,0,0,0-4.3-.4,14.7,14.7,0,0,0-6.5,1.4,13.9,13.9,0,0,0-4.2,3.7l-0.3.3-0.6.7-0.9,1a1.5,1.5,0,0,1-.9.6,1.2,1.2,0,0,1-.9-0.5c-0.6-.7-1.2-1.7-0.6-2.3l7-6c5.2-4.3,10.6-8.8,15-14a72.5,72.5,0,0,0,7.9-11.1,40.4,40.4,0,0,0,2-4.3,36.3,36.3,0,0,1,2.1-4.5c1-1.7,2.1-3.3,3.3-4.9l1.3-1.9a6.7,6.7,0,0,0,1-3.1,6.6,6.6,0,0,1,.6-2.3,8.4,8.4,0,0,1,2.4-2.7,3.8,3.8,0,0,1,2.2-.8l1.1,0.2a4.5,4.5,0,0,1,2.5,2.8,4.3,4.3,0,0,1-.3,3.5c-0.9,1.6-3.6,2.2-5.8,2.2h-0.9a2.7,2.7,0,0,0-1.9,1.2c-2.7,3.4-4.8,6.3-5.5,10.7v0.8l0.8-.2,1.8-.4c2.9-.7,6.9-1.6,7.7-3.8s1.1-2.9,2.3-3.6a3.9,3.9,0,0,1,1.9-.6,3,3,0,0,1,2.2,1,5.6,5.6,0,0,1,1.4,4c-0.1,2.4-2.6,4.1-4.9,4.1a4.1,4.1,0,0,1-1.7-.3,2.7,2.7,0,0,1-.8-0.6,2.7,2.7,0,0,0-1.6-1h-0.2a5.6,5.6,0,0,0-1.9.5l-0.7.3-0.7.2a19,19,0,0,0-4.9,1.9c-1.7,1.1-3.2,3.1-4.5,5.1a84.9,84.9,0,0,1-6.9,8.8l-1.1,1.2,1.6-.4a16.1,16.1,0,0,0,3.5-1.6l1.9-1,1.1-.5c3.1-1.4,6.3-2.9,9.5-4s5.1-1.5,7.6-2.1l4.3-1.1a3.1,3.1,0,0,0,1.6-1.4,4.3,4.3,0,0,1,3.7-2.2,3.9,3.9,0,0,1,3.9,3.2c0.3,1.5.6,4.1-1.4,4.9a4.1,4.1,0,0,1-1.5.3,5.5,5.5,0,0,1-4.5-2.3,2.6,2.6,0,0,0-2.1-.8h-0.6a119.7,119.7,0,0,0-30.9,13.2l-0.4.3-0.3.3-1.4,1.1,1.8-.2,1.9-.2,3.6-.4a59.4,59.4,0,0,1,8.7-.6,67.5,67.5,0,0,1,9,.6,36.1,36.1,0,0,1,5.7,1.4l1.4,0.5a9.6,9.6,0,0,0,3.4.9h0.6l1-.2,1.4-.2a3.7,3.7,0,0,1,2,.7,6.5,6.5,0,0,1,3,4.8,3,3,0,0,1-.8,2.3,4.1,4.1,0,0,1-2.9,1.5h-0.2c-4.2-.3-4.9-3.9-5-5.9a1.9,1.9,0,0,0-1.6-2.2l-4-1-2.7-.7v0.8c0.1,0.4.1,0.8,0.2,1.2a7,7,0,0,0,.5,2.2l0.4,0.9a102.7,102.7,0,0,0,4.9,9.3,4.2,4.2,0,0,0,3.5,2.2l1.5-.3,1.3-.2c1.2,0,2.4.8,3.6,2.4a3.4,3.4,0,0,1,.6,2.9,4.6,4.6,0,0,1-2.4,3,5.3,5.3,0,0,1-2.4.6,4.3,4.3,0,0,1-3.4-1.6,4.5,4.5,0,0,1-.7-3.9,2.6,2.6,0,0,0-1.1-3.1c-4.2-3.2-7.4-10.1-7.9-14.9a2,2,0,0,0-2.2-1.8h-5.6a76.9,76.9,0,0,0-18.1,1.7,14.7,14.7,0,0,0-3.4,1.4l-1.4.7-0.4.2,0.4,1.2h4.9l3.6,0.2c4.2,0.5,7.6,1.8,12.1,3.8l0.6,0.3a6.6,6.6,0,0,0,2.3.8,3.7,3.7,0,0,1,2.6,1.4,5.3,5.3,0,0,1,1.1,3.8c-0.2,2.1-2.7,3.6-4.7,3.6a3.3,3.3,0,0,1-2.8-1.3,5.7,5.7,0,0,1-1-4.2,4.6,4.6,0,0,1,.4-1.1,2.8,2.8,0,0,0,.4-2.3,1.5,1.5,0,0,0-1.1-.8l-5.7-1.3-1.3-.3h-0.3c-1.9,0-2.1,3.4-2.2,4.9v0.2c-0.1,2.2-.3,5.3,2.4,6.5s4,1.9,4.1,3.8a3.3,3.3,0,0,1-.9,2.5A3.9,3.9,0,0,1,138.5,793.6Zm-0.4-5.8a2,2,0,0,0-1.5.5,1.8,1.8,0,0,0-.4,1.4,2.4,2.4,0,0,0,2.4,2.7h0c1.3,0,2.3-1.2,2.3-2.8s-1.4-1.8-2.1-1.8h-0.6Zm32.8-3.4a2.9,2.9,0,0,0-2.9,2.9,4,4,0,0,0,1,2.9,2.7,2.7,0,0,0,1.9.9H171a2.6,2.6,0,0,0,2.9-2.6,4.5,4.5,0,0,0-1.2-3.2,2.6,2.6,0,0,0-1.8-.9h-0.1Zm-21.2-6a3.1,3.1,0,0,0-3,2.9,2.8,2.8,0,0,0,.8,2.2,3.4,3.4,0,0,0,2.2,1H150c2.3,0,2.7-1.7,2.8-3.3s-1.5-2.7-2.9-2.8h-0.2Zm21.1-9.2a2.2,2.2,0,0,0-1.7.8,3.5,3.5,0,0,0-.1,3.5,3.6,3.6,0,0,0,3.1,1.9h0.1a2.7,2.7,0,0,0,2.1-.7,1.9,1.9,0,0,0,.5-1.5,4.8,4.8,0,0,0-3.8-4h-0.1Zm1-21.9a2.6,2.6,0,0,0-2.6,2.1,2.8,2.8,0,0,0,1.5,3.2l1.4,0.5h0.5c1.2,0,2.7-.9,2.8-2s-1.8-3.6-3.5-3.8h-0.1Zm-9.6-9.8a2.7,2.7,0,0,0-2.5,3.9,2.4,2.4,0,0,0,2.3,1.7,2.6,2.6,0,0,0,1.2-.3c1-.5,2.4-1.9,2-3.3a2.9,2.9,0,0,0-2.1-1.9h-0.9Zm-3.5-13.4c-2.3,0-2.4,2.8-2.5,3.7a1.8,1.8,0,0,0,.2,1.5,2.1,2.1,0,0,0,1.6.8h0.3c1.8,0,3.6-1.5,3.7-3a2.5,2.5,0,0,0-.7-1.9,3.6,3.6,0,0,0-2.5-1.1h-0.1Z" transform="translate(0 -96.6)"/><path class="b" d="M144.5,464.9a6.3,6.3,0,0,1-3.4-1l-0.7-.9a4.2,4.2,0,0,1-1.3-2.5,5.9,5.9,0,0,1,1.2-3.7l0.4-.7a1.2,1.2,0,0,0,0-1.4,18.2,18.2,0,0,1-2.7-10.8c0.2-3.2-.6-4.5-2.2-6.9l-0.4-.6a14.9,14.9,0,0,1-.9-1.6l-0.8-1.6a3,3,0,0,0-1.6-1.2l-4.2-1.3c-5.3-1.6-10.8-3.3-16.3-4.7v-1.5l7.4,2.1,2.8,0.8,1.3,0.4a17.9,17.9,0,0,0,5.3,1.2,3,3,0,0,0,2.4-.9,7.7,7.7,0,0,0,1.1-2.3,10.8,10.8,0,0,1,.6-1.4,17,17,0,0,1,2.1-3.1,67.1,67.1,0,0,1,5.7-5.7c7-6.1,15.5-9.8,22.2-12.4l1.6-.6,4.5-1.8a7.2,7.2,0,0,0,2.5-2.1,6.2,6.2,0,0,1,2.7-2.1l1.8-.3a4.1,4.1,0,0,1,3.9,2.3c0.6,1.2.2,2.2-.3,3.5h-0.1a5.4,5.4,0,0,1-5,3.6h0a5,5,0,0,1-2.5-.7,5.1,5.1,0,0,1-1.8-2.2,1.8,1.8,0,0,0-1.6-1.2l-1,.2c-9.9,4.3-19.3,8.3-27.5,15.8-1.6,1.4-3,3-4.5,4.5l-1.3,1.4a1.6,1.6,0,0,0-.4.8v0.5l0.8,0.8h0.4l1.2-.6,2.7-1.3,4.5-2.1c6.4-3,13.1-6.1,19.9-7.1a14.6,14.6,0,0,0,5.6-1.8,5,5,0,0,1,2.6-.7,5.3,5.3,0,0,1,4.9,7.3,6,6,0,0,1-5.3,3.7,5.5,5.5,0,0,1-3.2-1.1c-2.3-1.6-2.2-4.2-1.7-6.1l0.2-.7h-0.8c-11.7,1.6-21.6,7-32.4,13.3l-0.3.2,0.2,1.2h0.3l8,3.1c6,2.4,12.2,4.8,18.5,6.7h0.3a2.8,2.8,0,0,0,1.2-.4,8.1,8.1,0,0,1,3.8-1.2,5.5,5.5,0,0,1,2.9.9c2.4,1.5,3.6,3.3,3.8,5.8a3.4,3.4,0,0,1-.9,2.6,5,5,0,0,1-6,.6,16.7,16.7,0,0,1-3.4-3.4,8.8,8.8,0,0,1-.8-1.3,5.7,5.7,0,0,0-1.9-2.3,21.8,21.8,0,0,0-4.1-1.7l-2.1-.7-13-5-2-.6-1.1-.3-1.3-.3,1.2,1.8c4.3,6.3,8.7,12.8,16.4,15.6l1.3,0.2a11.7,11.7,0,0,0,3-.5l1.3-.2a4.1,4.1,0,0,1,3.5,2.2,7.6,7.6,0,0,1,.8,6.3,4.3,4.3,0,0,1-2.7,2.8l-1.6.3a5.3,5.3,0,0,1-3.9-1.9,8.6,8.6,0,0,1-2.1-6.3,2.3,2.3,0,0,0-1.1-1.9l-2.6-1.4a37.4,37.4,0,0,1-3.8-2.1,18.5,18.5,0,0,1-2.8-2.5l-1.3-1.2-0.2-.2-1.2.2v0.4c0,0.5,0,.9.1,1.4a23.4,23.4,0,0,0,.3,3.3,12.1,12.1,0,0,0,2.4,5.3,0.6,0.6,0,0,0,.5.2H144l1.9-.2h0.3a7.4,7.4,0,0,1,3.6,4.9,4.6,4.6,0,0,1-.9,3.9A5.7,5.7,0,0,1,144.5,464.9Zm12.6-8.4,0.7,1.4,2.5-1.1-0.9-1.6Zm8-13.7,1.4,2.3,1.4-.6-1.4-2.5Zm8.5-40.6,0.4,1.4,0.5-.2H175a4.5,4.5,0,0,0,1.3-.5,1.4,1.4,0,0,0,.5-1.1V401l0.3-1.2Z" transform="translate(0 -96.6)"/><path class="b" d="M178.7,533.1h-0.3l-7.3-2.1c-4.1-1.1-8.4-2.3-12.4-3.8l-0.8-.3c-4.4-1.6-9.9-3.7-12.6-7.5A57.7,57.7,0,0,1,139,507l-0.5-1.7c-0.5-1.5-1-3.2-2-4.2a11.5,11.5,0,0,0-4.2-1.9l-1.8-.6c-9.2-3.7-19.3-5.1-29.1-6.5l-1.8-.2-6.3-.7-2-.2H89.6l-0.3,1,0.3,0.2,2.1,1.1a38.8,38.8,0,0,1,4.4,2.5,233.9,233.9,0,0,1,23.9,19,17.3,17.3,0,0,1,2.5,3.2,0.9,0.9,0,0,1,.2.8,0.9,0.9,0,0,1-.8.3h-0.6l-3.1-.3-3.9-.7c-6.8-1.2-14.4-2.5-20.7-4.9S83.8,508,81,503.8L80,502.5a27.5,27.5,0,0,1-3.5-5.9,8.5,8.5,0,0,1-.4-2c-0.2-1.6-.4-3.7-3-3.7h-6l-13.9-.2a180.9,180.9,0,0,0-19.1.9,57.7,57.7,0,0,0-9.1,1.7l-1.1.3,0.9,0.6,1.4,0.9,3,2,2.1,1.4a43.5,43.5,0,0,1,5.4,4.1,66.8,66.8,0,0,1,10.5,12c1.2,1.8,5.4,11.2,4.4,11.9H51c-2.4,0-5.3-1.8-7.8-3.4l-3-1.8-6.1-2.9c-6.1-2.8-12.3-5.7-17-10.5a34.3,34.3,0,0,1-5.2-7.8l-0.2-.3c-1.5-2.8-2-3.8-4.1-3.8l-3.1.3-2.8.4-1.9.3v-2c6.7-1,13.8-2.2,20.8-3.9a4.1,4.1,0,0,0,2.4-1.7c0.8-1.3,1.5-2.7,2.1-4s1.4-2.8,2.2-4.1l1.9-3.3A91.2,91.2,0,0,1,38,464.6a32.6,32.6,0,0,1,7-6.5c1.2-.8,6.1-3.7,7.9-3.7h0.3c3.5,5.6-6.2,18.5-7.3,19.9a40,40,0,0,1-7.2,7.4,58.4,58.4,0,0,1-6.9,4.3l-3.3,1.9a3.1,3.1,0,0,0-1.3,1.4l-0.4.8,3.9-.3,6.9-.5H38l11.3-.6,12.8-.3h7.2a2,2,0,0,0,2.1-1.8A79.1,79.1,0,0,1,75.7,474a7.4,7.4,0,0,0,.1-4.5,11.1,11.1,0,0,1-.3-2.5,17.9,17.9,0,0,1,2.1-6.5l0.3-.6a41.5,41.5,0,0,1,8.2-12.2l3.1-3.2a56.8,56.8,0,0,1,8.2-7.7l0.7-.4h0a1,1,0,0,1,.8.6c0.8,1.8.2,3.8-.4,5.8L98.1,444l-0.3,1c-1,3.7-2.2,7.9-4.2,11-0.6.9-1.1,1.9-1.7,2.8a30,30,0,0,1-2.3,3.7,22.4,22.4,0,0,1-6.5,5.5,12.6,12.6,0,0,0-5.7,6.8c-0.3.9-.8,1.8-1.2,2.6a19.3,19.3,0,0,0-2.1,6,3.4,3.4,0,0,0,0,.6v1.6l0.8-.7,1.3-1.1a19.6,19.6,0,0,0,2.5-2.2,39.5,39.5,0,0,1,8.1-6.4l1.4-.9,9.2-6.2,7-4.8a70.6,70.6,0,0,1,13.3-6.7,34.2,34.2,0,0,1,9.5-1.9l3.1-.3h0.2a2.2,2.2,0,0,1,1.6.5c0.2,0.2.5,0.8-.9,1.7a52.1,52.1,0,0,0-9.1,7.6c-8.3,9.5-19.6,13.2-30.6,15.8a13.1,13.1,0,0,1-3,.3l-2.2-.2H85.8a5.5,5.5,0,0,0-3.4,1.4l-5.7,4.4a3.2,3.2,0,0,0-1.1,1.8l-0.2.6h5.7c19.3,0,37.9,4.9,55.4,9.9l3.7,0.8a25.7,25.7,0,0,1,6,1.7,47.9,47.9,0,0,1,10,6.7,139.9,139.9,0,0,1,13.4,12.5c2.1,2.2,4,4.5,5.8,6.8,0.4,0.5,3.1,4.6,3.9,6h-0.5ZM141,506.9c0.6,3.3,2.2,5.7,3.9,8l1.4,2.1c2.7,4.3,7.5,5.8,11.4,6.9,2.1,0.6,4.3,1.1,6.4,1.5l3.2,0.7,2.5,0.6,1.6,0.4,0.4-1.2-0.2-.2c-7.9-9-16.7-18.1-29-22.9l-0.6.8c1.7,2,3.5,3.9,5.2,5.6l1.2,1.2a27.4,27.4,0,0,1,2.4,2.5,2.2,2.2,0,0,1,.1,1.1c0,0.1,0,.2,0,0.3h-0.6l-4.7-4.5-1.9-1.9-1.1-.9-0.7-.6-1.1-.9ZM14.6,500.4c0.5,2.9,2,5.2,4.8,7.7,5.2,4.6,11.7,7.4,17.4,10l2.1,0.8c2.5,0.9,8.4,3.1,8.9,3.5v-0.2l1-.2a14.1,14.1,0,0,0-2.4-4.8l-1.8-2.3c-3.4-4.4-7.2-9.4-11.5-12.9a69,69,0,0,0-8.5-5.6l-1.7-1a8.2,8.2,0,0,0-4.3-1.1,18.9,18.9,0,0,0-3.9.5l-1,.2,0.8,0.7a42.1,42.1,0,0,0,3.8,2.7c3.1,2,6.2,4.1,7.5,7.3a31,31,0,0,1-5.4-2.9,38.3,38.3,0,0,0-4.9-2.7l-0.9-.4ZM80,493.1H77.7l0.3,0.6c1.9,3.5,4.3,7.5,8.1,10.3a57.8,57.8,0,0,0,7.4,4.7,45.1,45.1,0,0,0,8.2,3.4c2.7,0.8,5.5,1.4,8.2,1.9l2.8,0.6,2.3,0.4,1.2,0.2,1.3,0.2-0.8-1c-4.9-5.9-20.3-17.1-23.4-17.1H92.2l0.6,0.7,0.8,0.8a26.5,26.5,0,0,1,2,2.4,2.1,2.1,0,0,1,0,.7H94.7l-11.3-8.1A5.5,5.5,0,0,0,80,493.1ZM50.5,456.9l-1.5.6a10.9,10.9,0,0,0-3.1,1.5,63.5,63.5,0,0,0-7,6.3c-3.2,3.3-5.4,7.7-7.4,11.8-1,2-2,4.1-3.2,6l-0.8,1.2-0.4.6-0.4.5,1.4,0.6h0.8l0.5-.5,1.9-2.8,5.8-8.4,0.6-.2h0.1a1.4,1.4,0,0,1,.1.4,10.4,10.4,0,0,1-1,2.6l-2.2,3.2-1.1,1.6-0.9,1.2,1.4-.5c6.5-2.2,17.1-17.9,17-25.1v-0.7Zm54.3,13.2a2.8,2.8,0,0,1-.2.7L95,474.4l-1.5.4a8.1,8.1,0,0,0-4.4,2.3l-0.5.6,0.7,0.2a8.2,8.2,0,0,0,2.7.4c9.3,0,27.3-10.7,32.6-19.4l0.3-.5-0.6-.2-1.4-.2c-5.7,0-22.9,8.3-26.3,13.4l-0.8,1.2,3.1-1,5.1-1.7h0l0.6,0.2h0.1v0.2ZM84,457.9a2.3,2.3,0,0,1,.2,1.4,28.8,28.8,0,0,1-1.4,2.9l-1,2a5.1,5.1,0,0,0-.4,1.4v0.6L81,467.7l1.1-.9c7-5.7,14.3-15.3,13.7-25.2a0.7,0.7,0,0,0-.7-0.7c-1.1,0-3.8,2.3-3.8,2.4l-0.3.3a26.9,26.9,0,0,0-2.9,3.5c-3.2,4.9-6.1,9.8-8.2,13.6a18,18,0,0,0-1.4,3.6L77.9,466l-0.2.5,1.4,0.5,0.2-.4a26,26,0,0,0,1.4-3.2A13.5,13.5,0,0,1,84,457.9Z" transform="translate(0 -96.6)"/><path class="b" d="M106.6,586c-8.5,0-16.5-2.8-25.1-8.8a35.3,35.3,0,0,1-6.6-6,5.1,5.1,0,0,0-3.7-1.9l-7.8-1.2a2.8,2.8,0,0,1-1-.5H62.2l10.9,0.3v-0.5c0.1-.7.1-1.5,0.1-2.1a10.3,10.3,0,0,1,.5-3.5,57.3,57.3,0,0,1,4.6-8.5c3.4-5.3,7.5-10.5,14.3-12.6a74,74,0,0,1,22.1-3.1c2.9,0,5.9.1,9,.4a64.7,64.7,0,0,1,12.7,2.9l6.1,1.7,21.9,5.3,4.6,0.9,1.4,0.2-5.1,4.5-12.7,11.2a140.7,140.7,0,0,1-19.4,13.7c-8.8,5.3-17.5,7.9-26.7,7.9h-0.1ZM89.4,568.5a18.6,18.6,0,0,0-4.1.6l-1.3.3-0.9.2,0.6,0.6,3.6,3.6c3.4,3.4,6.6,6.7,9.8,9.8,0.8,0.8,2.4.9,3.6,1H101l8.2,0.4h0l1.5-.2,1-.2,1.1-.2-3.7-2.9-6-4.5-3.2-2.3a64,64,0,0,1-5.9-4.5A6.4,6.4,0,0,0,89.4,568.5Zm6.6,0.7,0.3,0.2,3,2.3,7,5.3,5.4,3.7,2.9,1.9a5.7,5.7,0,0,0,3.3,1.1,7.4,7.4,0,0,0,2.5-.5l4.3-1.4,2.4-.8,1-.3-0.9-.6-2.2-1.4a40.2,40.2,0,0,0-3.7-2.2l-3-1.5c-4.7-2.4-9.6-4.8-14.6-6.8a7.6,7.6,0,0,0-3-.5H96.3ZM79.9,569l-2.2.2-2.2.2H74.6l0.5,0.8c3.7,5.4,8.7,8,13.6,10.6l3.6,1.9,0.4,0.2,1.1-1.2L92,580l-2.9-3.1-2-2.3c-1.3-1.4-2.6-2.9-4-4.3A4.4,4.4,0,0,0,79.9,569Zm32.6-2.9a20.8,20.8,0,0,0-5.1.9l-1.2.3-1.3.3,6.1,3.1,3.8,2,9.7,5.1a9.2,9.2,0,0,0,4.1,1.5c1.6,0,2.9-.9,5.2-2.9l0.6-.5-2.7-1.4-4.1-2.1-4.4-2.1-6.7-3.3A8.3,8.3,0,0,0,112.5,566.1Zm15.8-3.4a9,9,0,0,0-2.2.4l-1.1.3a38.8,38.8,0,0,0-8.1,2.2l-1,.4,19.2,10h0.2l0.3-.2,1.5-.8,3.1-2.3,2.1-1.5-0.6-.4-3.4-2.2c-3.1-2-5.9-3.8-9-5.5Zm12.8-4.2a6,6,0,0,0-2.1.6l-1,.4-4.9,1.6-3.6,1.2,0.9,0.6,2.5,1.4a39.1,39.1,0,0,1,4.4,2.7,9.6,9.6,0,0,0,5.8,2.3c3.5,0,6.3-2.6,8.4-4.9l0.4-.5-0.6-.3-2.6-1.4c-2.3-1.2-4.6-2.5-7.1-3.5h-0.7ZM89.5,544.7c-3.8.7-7.9,5.5-10.5,9.9s-4.7,9.6-3.6,12.9l0.3,1,14.9-24Zm12.9-4.8c-4.2,0-9.2,1.6-11.1,5.1-2.7,5-5.8,10-8.7,14.7l-3.3,5.4-0.7.9-0.7.7-0.6.7h0.9l3,0.3a7,7,0,0,0,6.5-3.4c3.2-5,6.6-10.1,9.9-14.9l3-4.5,2-2.8,1-1.4,0.6-.7h-1.7Zm9.4-1.5a4.8,4.8,0,0,0-4.2,2.3c-2.6,3.7-5.4,7.3-8.1,10.8l-4.3,5.7-4.4,6.1-2,2.7-0.4.5,0.6,0.2a9.9,9.9,0,0,0,3.2.6c3,0,5.5-1.7,6.9-4.8a17.3,17.3,0,0,1,1.7-2.6l0.9-1.2,2.2-3.3,9.6-14.5a4.8,4.8,0,0,0,.4-0.9l0.3-.6,0.2-.6h-0.6Zm6.5,0c-1.6,0-2.8.8-3.8,2.5-3.3,5.4-6.7,10.8-10.1,16l-4.4,6.9a2.9,2.9,0,0,0-.3.8v0.7l1.2,0.8,0.3-.3c6-6.2,10.9-13.3,15.7-20.1l4.2-6,0.4-.5-0.6-.2A7.1,7.1,0,0,0,118.2,538.4Zm5.3,0.5c-1,0-1.7,1.1-2.4,2.3l-0.6,1L105.8,562l-1.2,1.7a0.7,0.7,0,0,0-.1.6v1h0.5l2.7-.4c2-.3,4.1-0.6,6.1-0.8a7.4,7.4,0,0,0,6.1-3.8l2.3-3.6,7.2-11.3,1.8-2.6,1.2-1.7,0.5-.7h-0.8l-2.6-.4a33,33,0,0,0-5.9-.7h-0.2Zm11.6,2.4a2.1,2.1,0,0,0-1.4.9l-12.6,18.5a1.1,1.1,0,0,0-.1.6v1.2l3.6-.9,7.8-1.9a4.1,4.1,0,0,0,2.2-1.7l6.3-10.1,2.6-4.1-2.4-.8-5.7-1.8h-0.2Zm18.4,13.6a16,16,0,0,0-8.7,3l-0.7.5,0.8,0.4,2,1.1a40.2,40.2,0,0,0,4.7,2.3h0.9a5.2,5.2,0,0,0,2.6-.8,32.6,32.6,0,0,0,3.4-2.6l1.4-1.2,0.5-.4-0.5-.4A10.4,10.4,0,0,0,153.4,554.8Zm-7.8-10c-1.2,0-2,1.1-2.8,2.2l-4.5,7.1-2.1,3.3,0.8,1.2,0.4-.2,1.1-.4a5.5,5.5,0,0,0,2.5-1.3c2-2.2,3.8-4.6,5.6-6.9l2.1-2.6,0.3-.4-0.3-.3C147.3,545.3,146.5,544.8,145.6,544.8Zm9.1,9.2,1.3,0.6a10.3,10.3,0,0,0,3.9,1.3c1.6,0,2.7-1.2,4.7-3.5l1-1.2Zm1.3-6.4a3.1,3.1,0,0,0-1.9.9l-2.9,3.1-1,1.1L149,554l15.7-4.4-1.9-.4-1.8-.4-4.8-1.1H156Z" transform="translate(0 -96.6)"/><path class="b" d="M0,617.3l1,0.9a3.3,3.3,0,0,1,1.1,1.4,1.2,1.2,0,0,1-.1,1A3.6,3.6,0,0,1,0,621.9v-4.5H0Z" transform="translate(0 -96.6)"/><path class="b" d="M112.4,656.9a26.3,26.3,0,0,1-5.6-1l-0.7-.2a77.9,77.9,0,0,1-13.8-4.3c-5.7-2.5-9.5-5-12.3-8s-5-8-6.7-12.5l-1.4-3.6a13.6,13.6,0,0,1-.5-1.7,8.7,8.7,0,0,0-1.1-2.7,18.6,18.6,0,0,0-4-3.9c-16.9-13.1-35.3-21.8-54.8-25.7H9.9l-1.1.2,0.9,0.7,1.4,1,2.6,1.8,2.2,1.2,2.7,1.5a108.7,108.7,0,0,1,13.5,10.6l1.1,1c3.2,2.9,8.4,7.8,8.7,11.8a45.7,45.7,0,0,1-10.2-2.5l-5.6-1.7c-6.7-1.7-13.1-5.4-19.6-11.4A85.4,85.4,0,0,1,0,600.9v-2.2L1.1,600a66.8,66.8,0,0,0,8.6,8.6l0.6,0.4c4.4,3.4,8.9,7,14.6,8.3l8.2,2,3.7,0.9h0.4l0.5-1-0.2-.5-0.3-.5c-2.7-4.9-7.2-8.4-10.8-11.2A118.7,118.7,0,0,0,15,599.6l-4.3-2.6a48.5,48.5,0,0,0-6.1-3.4,29.7,29.7,0,0,0-4.2-1.4H0v-3.3L1.9,589,6.7,590c10.9,2.8,21.6,5.6,31.9,10a49.5,49.5,0,0,1,4.4,2.3l1.4,0.8,1,0.3a2,2,0,0,0,1.5-.9c3.8-4.6,9.8-6.9,15.6-8.8a77.4,77.4,0,0,1,15.3-3.7,44.6,44.6,0,0,1,5.4-.4h3.8c2.1,0.1,7.8.4,8.2,1.9,0.9,3-6.1,7.3-9.6,8.9a54.7,54.7,0,0,1-19.1,4.7h-15l-0.3,1.1,0.3,0.2,1.2,0.8,2.6,1.8,2.9,2.1c3.4,2.4,6.9,5,10.1,7.6a5.6,5.6,0,0,0,3.9,1.1h0.9l24,1.2,5,0.2a3.6,3.6,0,0,0,1.4-.3l3-1.2c2.6-1,5.4-2.1,7.9-3.4s8.3-2.4,12.6-2.9l2.4-.3a53.2,53.2,0,0,1,6.7-.5,28.7,28.7,0,0,1,7.8,1,1.7,1.7,0,0,1,1.2.8,1.6,1.6,0,0,1-.7,1.2c-5.7,5.2-13.2,11.1-20.1,11.1h-0.9l-2.4.3-1.4.2-1.5.2,1.3,0.7c8.7,4.9,15.6,11.7,21.8,18.3l-1.1.2a15.1,15.1,0,0,1-2.6.3H136c-6.4-.5-13-1.1-19.2-2.9a35.4,35.4,0,0,1-9.5-4.4,29.2,29.2,0,0,1-6.4-6.5l-1.6-1.9-0.9-1.1a33.8,33.8,0,0,1-4.5-6.3c-0.5-1-2.1-1.5-2.9-1.6l-6.2-.7-2.7-.3H78.8l-1.1.2,0.9,0.7h0.2l0.4,0.3,2.5,1.7,5.2,3.5c9.2,6.3,17.5,15,26.3,27.3a1.8,1.8,0,0,1,.5,1.4A1.6,1.6,0,0,1,112.4,656.9ZM73.7,627c0.3,1,.6,1.9,1,2.8l0.4,1.2A35.1,35.1,0,0,0,82,642.8c4.2,4.5,10,6.9,14,8.4a87.7,87.7,0,0,0,9,2.5l4,1h0.3l0.7-.9-0.2-.3-0.2-.4-0.6-.9-1.8-2.3c-1.7-2.1-3.4-4.3-5.3-6.3s-2.2-2.3-3.3-3.3l-3-3a50.9,50.9,0,0,0-11.5-9.2,25.5,25.5,0,0,0-3.2-1.5l-1.5-.6-0.4-.2-0.6.9V627l0.2,0.3a3.2,3.2,0,0,0,.5.8l4.2,4.5,1.1,0.8,0.6,0.4c1,0.8,1.8,1.5,1.9,2.7a45.2,45.2,0,0,1-6.6-5.3,50.5,50.5,0,0,0-5.8-4.8l-1.1-.7Zm22.6-2.1,0.4,0.6,0.5,0.7,0.5,0.7,1.8,2.2a30.3,30.3,0,0,1,2.2,2.7,18.3,18.3,0,0,0,4.2,4.6,38,38,0,0,0,17,6.4h1.6c6.3,0.4,9.8.8,10.2,1.3l0.9-.3c-1.6-6.1-26.1-20.5-32.8-20.5h-1.2l0.2,0.6a0.9,0.9,0,0,0,.3.6l5.3,3.2,3.4,2.1a2.8,2.8,0,0,1,1.4,1.2,1,1,0,0,1-.1.6L97.1,624Zm32.1-2.7,3.5,0.5v-1.5l-3.4-.5ZM57.9,601.8v1.3h0.4l0.9,0.2a8.6,8.6,0,0,0,2,.3h0.5c3.3-.2,6.6-0.3,9.9-0.8a42.2,42.2,0,0,0,13.1-3.8,19.9,19.9,0,0,0,7.6-5.7l0.4-.5-0.6-.2-0.7-.3-1.3-.5a59.6,59.6,0,0,0-8-.6,38.1,38.1,0,0,0-8.9,1l-4.4,1.3a47.3,47.3,0,0,1-5.3,1.5c-4.2.8-7.8,2.9-11.1,5a8.6,8.6,0,0,0-1.5,1.3l-0.6.6-1,.9h1.3a11.8,11.8,0,0,0,3.8-.6l2.3-1a17.7,17.7,0,0,1,3.5-1.4l3.4-.9,2.9-.8H67l1.3,0.2h0.5Z" transform="translate(0 -96.6)"/><path class="b" d="M0,580.6l1.1-1,2.7-2.4a4.3,4.3,0,0,0,1.4-2.4c0.2-1.2.4-2.5,0.6-3.8a38.1,38.1,0,0,1,2.4-10.3l0.4-.8c2.2-5,4.5-10.2,8.6-13.8a37.2,37.2,0,0,1,10-6.1l0.6-.3c6.2-2.8,8.1-3.5,8.6-3.7s-0.4,3.4-2.4,5.8l-1.1,1.5-0.5.7c-3.1,4.9-6.4,10-9.8,14.7-1.6,2.3-3.4,4.5-5.1,6.6l-2.3,2.9-0.6.8-0.5.6,0.6,1H15l0.6-.2L17,570l4.6-2,9.3-4a51.8,51.8,0,0,1,5.3-1.7l2.5-.7,2.4-.8a34.6,34.6,0,0,1,5.3-1.5,57.1,57.1,0,0,1,8-.7c4.3,0,5,.9,5.1,1.2s-2.3,4.1-4,5.4l-0.8.6c-10.5,8.8-22.3,13.4-33.9,13.4a44.8,44.8,0,0,1-7.6-.6l-1.8-.3-3.2-.5H8.1a1.9,1.9,0,0,0-1.1.3l-7,5.2v-2.7Zm41.2-9.8-1.5.2a0.8,0.8,0,0,0-.5.9v0.9l3-.3v-1.8H41.2Zm3-1.4,2.1,0.6,0.4-1.4-2-.8ZM15.5,558.2a1.1,1.1,0,0,1,.1.7,3.7,3.7,0,0,1-.6,1.2l-0.3.5a18.3,18.3,0,0,0-2.7,7.2l-0.2,1.4,1.1-1c3.7-3.4,6.3-7.3,8.8-11.1l1.2-1.8c1.9-2.9,4-5.7,5.9-8.4l3.2-4.5a0.7,0.7,0,0,0,.1-0.7,0.8,0.8,0,0,0-.8-0.4,12.3,12.3,0,0,0-2.4.5,34.8,34.8,0,0,0-4.7,2.1,27.2,27.2,0,0,0-8,6.3c-2.8,3.3-4,6.8-5.2,10.6l-1,3.1c-0.3.8-.6,1.7-0.8,2.6l-0.3,1.2v0.5l1.6,0.5,1-2.6,0.3-.9a13,13,0,0,1,.8-1.9l0.5-1C13.4,560.6,14.3,558.8,15.5,558.2Zm26.9,6,0.8,1.3,0.6-.4,0.6-.4a0.7,0.7,0,0,0,0-.9H44.2l-0.3-.5Z" transform="translate(0 -96.6)"/><path class="b" d="M12.7,603.2a30.9,30.9,0,0,1-6.8-3.7A35.2,35.2,0,0,0,0,596.2v-1.8l1.9,1.4,4.8,2.9,5.5,3.4a2.5,2.5,0,0,1,.5,1h0Z" transform="translate(0 -96.6)"/><path class="b" d="M14.3,354.1c-1.3,0-2.6-.8-4.2-2.6s-5.8-6.9-9-11L0,339.2V336a6.2,6.2,0,0,0,2.1-1.5l1-.8c6.8-5,13.8-10.4,19.3-17.5a2.4,2.4,0,0,1,1.9-1.1,3.9,3.9,0,0,1,1.6.4,32,32,0,0,1,4.4,2.6c1,0.7,1.6,1.3,1.6,1.9s-0.5,1.3-1.5,2.1a51.2,51.2,0,0,1-6.8,4.4L15,331.3l-4.3,2.3-1,.7-0.7.5-1,.7,1.2,0.2h2.6l24.1-4.1c0.7-.1,1.3-0.8,2-2l2.3-4.3c1.2-2.3,2.5-4.7,3.9-7,2.5-4.1,5.4-8.2,8.1-12.1l0.2-.3a2.5,2.5,0,0,1,2.2-.9c2.1,0,5.1,1.3,7.2,2.3l1.6,0.7-1.4,2.3-0.2-.3-0.6-.9a3,3,0,0,0-1.3-1.4,14.5,14.5,0,0,0-4.7-1.1H55a4.1,4.1,0,0,0-3.1,1.4c-2.8,4.1-5.4,8.3-7.3,11.4a4.5,4.5,0,0,0-.3,2.7v0.2h0.3a4,4,0,0,1,1.2.9,3.4,3.4,0,0,0,2.1,1.2,2.2,2.2,0,0,0,1.5-.7c2.8-2.9,5.5-5.9,8.4-9.1l3.5-3.9a74.7,74.7,0,0,1-13.9,15.6l0.5,0.8,3.8-1.5a77.4,77.4,0,0,0,7.3-3l0.6-.3A130.2,130.2,0,0,0,75.2,314c2.6-1.8,4.4-5,5.4-7.5,3.2-7.6,4.3-15.5,5.2-23.6a3.9,3.9,0,0,1,1.8-2.7,68.7,68.7,0,0,1,10.2-1.8,3.6,3.6,0,0,1,1.2,1.6,2.7,2.7,0,0,1-.4,1.9l-5.8,12.3-3.1,6.4-0.6,1.5-0.4,1.1-0.5,1.3,1.2-.7,0.8-.4,1-.6L118,282.6a4.2,4.2,0,0,0,1.4-1.8l2.5-7.3,1.5-4.3,1.2-3.5c0.8-2.2,1.6-4.4,2.3-6.7s1.1-1.9,1.5-1.9a3.1,3.1,0,0,1,1.3.4l3.1,1.4,2.4,1.1a2.3,2.3,0,0,1,1.4,1.3,2.2,2.2,0,0,1-.5,1.7l-5.1,7.7-2.1,3.1a4.3,4.3,0,0,0-.8,2.2V277l3.1-1.2,5.1-2.1,6.5-2.8,11-4.6a40.2,40.2,0,0,1,15.6-2.9h5.7a2.3,2.3,0,0,1,1.5,1.1c0.4,2.1-.5,5.2-2.2,7.5a5.6,5.6,0,0,1-3.8,2.5h-0.5a19.7,19.7,0,0,1-4.2-.6l-0.9-.2-4.6-1.1a51.7,51.7,0,0,0-9.5-1.8h-0.9a26.3,26.3,0,0,0-9.5,2.2c-3.9,1.6-7.8,3.5-11.6,5.3l-4.2,2-1.4.9-1,.8-1,.7,1.2,0.2a128.3,128.3,0,0,1,26.8,6.5l-2.7,2.7-7.4,7.3a4.3,4.3,0,0,1-3.1,1.4,6,6,0,0,1-2.5-.6c-5.9-2.7-10-6.2-12.9-10.8a17.3,17.3,0,0,0-2.4-2.8l-1.4-1.5-0.3-.3L87.2,307.2l0.7,1.3,3.1-.4,6.5-.9,5-.5,2-.2H105a1.6,1.6,0,0,1,1.3.4,1.7,1.7,0,0,1,0,1.4c-1.3,4.1-3.2,8.9-6.8,12.6a3.4,3.4,0,0,1-2.1.6l-1.1-.2c-4.5-2.2-9.2-4.7-14.2-7.6a4.5,4.5,0,0,0-2.3-.7,3.8,3.8,0,0,0-2.1.7,166.3,166.3,0,0,1-29.9,14.8l-2.5,1.1-1.1.5H43.9v1.5h6.9l14.9,0.8a2.6,2.6,0,0,1,.5.9,12.6,12.6,0,0,1-2.1,3.3c-2.6,2.8-5.1,5.3-7.6,7.6a3.6,3.6,0,0,1-2.1.9H54.2l-0.6-.2c-2.1-.7-4.4-1.5-5.9-2.8A51.1,51.1,0,0,0,35.8,335a10.1,10.1,0,0,0-4.6-1.1,23.8,23.8,0,0,0-3.8.4l-11.7,1.7-5.2.7-1.5.3-1.2.2v1l2.4,0.6a26,26,0,0,1,4,1.1c2.7,1.1,5.4,2.4,7.9,3.6l1.8,0.9a1.2,1.2,0,0,1,.7.7,1.2,1.2,0,0,1-.5.9l-2.3,2.4a55.9,55.9,0,0,1-4.5,4.3,4.9,4.9,0,0,1-3,1.4h0Zm-1.8-13.5c-1.9,0-3.4,1.5-6.3,4.5l-0.3.4,0.4,0.3,1.8,1.7c1.6,1.6,3.3,3.2,5,4.6a2.7,2.7,0,0,0,1.7.5,2.5,2.5,0,0,0,1.4-.4c1.7-1.2,3.3-2.6,5.2-4.1l2.2-1.8,0.6-.5-3.1-1.6-3.7-1.9C15.1,341.2,13.8,340.5,12.6,340.5Zm38.3-7.7c-3.2,0-5,2-6.9,4.5l-0.3.4,1.3,1,1.8,1.4,1.1,1,1.4,1.2a8.9,8.9,0,0,0,5.2,2.1,3,3,0,0,0,2.1-.8c2-1.9,3.9-3.9,5.9-6L65,335l0.5-.5-0.7-.3-0.9-.4-1.1-.4-4.8-.2-6.6-.4H50.8ZM24.7,316.7a3.2,3.2,0,0,0-2.1.7l-8.5,8.8-3,3.1,0.3,0.3a2.7,2.7,0,0,0,2.2,1.3,3.8,3.8,0,0,0,2-.7l6.1-3.5,5.6-3.3a18.2,18.2,0,0,0,2.4-1.9l1.5-1.2,0.6-.5-0.7-.3-1.8-1a26.7,26.7,0,0,0-3.6-1.7H24.7Zm79.6-9.3h-2.1l-3.8.2H98c-4,.4-8.2.9-10.5,5.4a3,3,0,0,0-.5,2.2,2.2,2.2,0,0,0,1.2,1.2l0.4,0.2c2.3,1.1,4.8,2.3,7.2,3.4l1.1,0.2a2.3,2.3,0,0,0,1.7-.6c2.5-3,5.2-6.7,6.3-11.8v-0.6h-0.6Zm25.9-22.3c-2.3,0-4.2,1.2-5.8,3.5a0.9,0.9,0,0,0-.4.6c0,0.2,0,.4-0.1.7a2.9,2.9,0,0,0,.2,1.9c2.2,3.3,5.6,5,8.9,6.6l1.7,0.9a2.6,2.6,0,0,0,1.1.2,2.9,2.9,0,0,0,1.8-.5c2.2-1.9,4.4-4,6.8-6.1l2.6-2.4,0.6-.5-0.7-.3-1.7-.7-2-.7-3.5-.8a53.7,53.7,0,0,1-6.4-1.7A9.6,9.6,0,0,0,130.2,285.1Zm-32.7-5.9-2.4.3a20.8,20.8,0,0,0-4.5.9c-1.2.4-3.1,1.7-3.4,3.1-0.7,3.6-1.2,7.2-1.7,10.7L85,298.1v0.4l0.3,0.2a5.4,5.4,0,0,0,2.3.6c1.3,0,2.2-.8,2.9-2.3A29.1,29.1,0,0,1,92,294a30.3,30.3,0,0,0,1.5-2.9c1-2.4,2-4.7,3-7.4l1.5-3.7,0.3-.8H97.5Zm32-20.3c-1.4,0-1.9,1.1-2.1,2.1s-1.3,4.3-2,6.3l-1.4,4.3a11.9,11.9,0,0,0-.4,2.3v1.3l1.2,1,0.3-.3,0.3-.3,0.8-.7,1.2-1.5,7.4-9.3a2.7,2.7,0,0,0,.7-2.2,3.8,3.8,0,0,0-2.1-2.2,6.7,6.7,0,0,0-1.7-.6l-0.8-.2Zm43.3,4.9h-2.3c-3.2.2-6.4,0.3-9.6,0.7s-4.4,1.3-4.4,5.3v0.4h0.4l3,0.8,8.3,2h1.1a3,3,0,0,0,2.3-.8,32.6,32.6,0,0,0,3.3-5.9,2,2,0,0,0,0-2,2.2,2.2,0,0,0-2-.9h-0.2Z" transform="translate(0 -96.6)"/><path class="b" d="M31.5,288.8a28.1,28.1,0,0,1-5.7-1.4,16.2,16.2,0,0,1-7.4-5.8c-2.2-3-2.4-5.6-2.5-8.9a5,5,0,0,0-2.2-3.5c-1.8-1.6-3.7-3-5.6-4.5l-1.8-1.4a1.6,1.6,0,0,0-.9-0.3H5.2l-2.8.4-2.4.3v-2.1l3.4-.5,2.7-.4a1.8,1.8,0,0,0,1.6-1.2c0.9-2.3,1.9-4.6,3-6.9a16,16,0,0,1,1-1.7,14.2,14.2,0,0,0,1.2-2.2c1.2-2.9,3.3-5.1,6.8-7a15,15,0,0,1,7.1-1.9,9.5,9.5,0,0,1,3.2.5h0.2l-0.2.3c-2.2,2.4-4.1,4.5-6,6.7a13.8,13.8,0,0,1-6.7,4.3l-2,.3-1.9.3c-1.5.4-2,1.5-2.6,2.6l-0.2.3-0.3.5c-0.7,1.3-2.1,3.7-.5,4.7a3.3,3.3,0,0,0,2,.5l2.4-.3,1.1-.2a8.4,8.4,0,0,0,5.4-2.2,155.3,155.3,0,0,1,12.2-9.7H33a6.3,6.3,0,0,0,1.6-1.4c1.9-2.7,5-4.8,9.4-6.4l1.2-.4a25,25,0,0,1,4.4-1.4h2c2,0,3.1.4,3.3,0.7a1.1,1.1,0,0,1-.4.9,31.7,31.7,0,0,1-7.3,6.6,15.9,15.9,0,0,1-7,2.5H35.5a6.6,6.6,0,0,0-4.3,1.4,84.2,84.2,0,0,0-8.1,7.3,2.6,2.6,0,0,0-.7,1.1v0.5h0.5a24.2,24.2,0,0,0,5.2,1h0.5l1.5,0.2a18,18,0,0,0,2.9.3h0.7l3.9-.4a52.3,52.3,0,0,1,5.4-.5l3.1-.2,3.1-.2,2.3,0.2c3.1,0.6,6.1,1.5,9,2.4a40.7,40.7,0,0,1,9.3,4.1l1.1,0.6c2.3,1.3,5.1,3,6.1,5.1v0.2l-8-.2c-3.2,0-6.4-.1-9.7-0.2A36.5,36.5,0,0,1,48.7,270a27.4,27.4,0,0,1-5.5-3c-1.1-.8-2.3-1.5-3.6-2.2a18,18,0,0,0-2.7-1.2,40.4,40.4,0,0,0-8.8-1.5l-3.5-.4H22l0.8,0.8,0.7,0.7,1.2,1.2,2.6,2.3,4.4,3.9a5.2,5.2,0,0,0,2.8,1.1l1.3,0.3a57.1,57.1,0,0,1,6.2,2.5c4.5,2.3,8,6.7,11.3,10.9l1.9,2.4a2,2,0,0,1,.3.8v0.2h0a35.2,35.2,0,0,1-6.3-1.3,29,29,0,0,1-7.5-4.2c-3-2.4-6.4-5.4-8.3-9.6a15.1,15.1,0,0,0-4.5-5.1l-0.9-.8L25.6,266a26,26,0,0,1-4.7-4.3l-0.5-.7-0.2.6-3.3.2h-1l-4.2.4-2.7.3v1.1l0.2,0.2,1.3,1.1,2.9,2.6,2,2.1,2.3,2.4a12.7,12.7,0,0,0,3,2.1c3,1.5,4.9,4.1,6.5,6.8l1.3,2A28.1,28.1,0,0,1,31.5,288.8ZM17.1,277.4c0.4,2.4,4.1,7.1,5.9,7.4l1.2,0.2-7.4-9.4Zm5.4,1.2,1.3,1.6,1-.9-1.3-1.6Zm23.1-14.1,13.3,6.8,0.7-1.4-0.4-.2-2.8-1.6c-3.2-1.9-6.6-3.9-10.5-4.6Zm22.6,4.6a2.3,2.3,0,0,0,.2,1.9,0.9,0.9,0,0,0,.7.3l1.1-.3,0.7-.3-2.5-2.7Zm-9.4-3.9,8.2,4.1,0.8-1.5-0.5-.2a17.3,17.3,0,0,1-3-1.6,13.9,13.9,0,0,0-4.5-2H59.3Zm-9.1-2.3L62.3,269l0.7-1.4-0.4-.2a57.5,57.5,0,0,0-11.9-5.7H50.2Zm-13.5-16h0a0.6,0.6,0,0,0,.4.7h1.2v-1.4H36.2v0.5Zm6.6-.9,0.4,1.1,2-.7-0.5-1.3Zm-2.2-2.2,0.4,1.3,2.3-.7-0.6-1.1Zm10.5-2.7,0.9,1.2,1.4-1.2-0.8-1Z" transform="translate(0 -96.6)"/><path class="b" d="M35.7,756.2c-3.9,0-13.6-10.5-15.5-13-4.7-6.4-7.7-14-9.4-24.2v-0.2c-0.5-3.1-.7-4.3-3-4.3l-2.5.2-5.3.6v-1.9l5.3-.3A4.1,4.1,0,0,0,7.9,712c2.4-2.7,4.8-5.4,7-8.4,1-1.3,1.8-2.7,2.6-4a41.1,41.1,0,0,1,3.2-4.8c7.5-9.2,16.1-14.3,26.4-15.6h0.4l1.7,0.2h0.7L46.3,684c-7.7,9.7-15,18.8-25.6,25.8l-1.5,1h3.6l7.4-1.9,19.1-5c5.5-1.5,5.6-2,5.4-7.4v-0.5a15.2,15.2,0,0,1,1-5.9c3-7.9,9.6-12.7,15.6-16.6,2.7-1.7,5.5-3.2,8.3-4.7l3.5-1.9,0.3,0.3c-2.9,8.2-8.4,14.6-14.1,21.4-2.9,3.5-6,7.1-8.7,10.9l-0.8,1.1,1.3-.3,3.9-1,8.4-2.1,1.5-.4c2.8-.7,5.7-1.4,7.9-3.5a27.4,27.4,0,0,0,3.5-4.4l1-1.4a42.8,42.8,0,0,1,17.8-14.2,22.5,22.5,0,0,1,9.1-1.7,72.2,72.2,0,0,1,7.7.5l5.7,0.5a7.8,7.8,0,0,1,2.3.7l0.9,0.3v0.4c-8.7,6.6-18.4,10.8-28.8,15.2l-11.2,4.9-1.4.7,5.9,1.1,12,2.2h0.4a6.3,6.3,0,0,0,2.5-.8,41.4,41.4,0,0,1,16.1-3.8h0.8a24.2,24.2,0,0,1,8.7,2.3,29.4,29.4,0,0,1,8.9,5.7c-6.8.4-13.7,0.6-20.5,0.7h-0.4a15,15,0,0,1-6.1-.9l-0.5.8a23,23,0,0,0,3.9,2.6,23.9,23.9,0,0,1,3.7,2.4,49.5,49.5,0,0,1,7.4,8.1c2.2,2.9,4.5,5.7,6.7,8.3,0.3,0.3,1,1.6,1.8,3.1s2.5,4.3,3.2,5.2h-2.2a23.5,23.5,0,0,1-5.3-.6c-6.8-1.6-12.4-7.4-17.3-12.6l-1.3-1.3c-4.1-4.3-8.2-8.9-9.1-15.3-0.2-1.1-1.8-2.1-2.8-2.4-4.8-1-9.6-1.9-14.4-2.7H86.2l0.8,0.9,0.8,0.9,0.9,1,3.2,4.1a78.4,78.4,0,0,1,6.9,9.6c1.3,2.3,2.5,4.6,3.6,7,2.8,5.6,5.6,11.3,10.3,15.9h0l0.3,1.6h-0.1l-1.3-.2-0.4-.2c-2.5-.9-5.1-1.8-7.6-2.9-7.3-3.2-12.3-7.4-15.4-12.8l-1.8-3c-3.7-6.2-7.5-12.7-5.7-20.6V698H80.2c-6,0-21.5,3.7-23.5,6.1l-0.3.4,0.3,0.3,0.3,0.4a4.1,4.1,0,0,0,1,.8l3.6,1.9c2,1.1,4.2,2.2,6.2,3.5,6.6,4.1,11.6,17.1,9.6,24.8a2,2,0,0,1-1.1.5,4.6,4.6,0,0,1-1.8-1.1l-0.2-.2c-8.8-7.6-15.3-17.4-20.4-30.8l-0.2-.4-8,2.2,0.5,0.6,1,1.2,1.4,1.8,1,1.4a7.4,7.4,0,0,1,1.8,3.2c0.6,4.9,1,9.9,1.4,14.8,0.2,2.7.4,5.4,0.7,8.1a26.7,26.7,0,0,0,.5,2.7,16.3,16.3,0,0,1,.5,4.1c-1.6-.1-3-1.7-4.2-3l-1.4-1.5a17.8,17.8,0,0,1-4.4-6.2,29.7,29.7,0,0,1-2.4-16.7c0.3-1.8.5-3.7,0.8-5.7l0.5-3.9-30.1,7,0.8,0.6L16,716a31.7,31.7,0,0,1,2.8,2.4l1.6,1.5a17.6,17.6,0,0,1,4,4.7c3.5,7.2,7,15.1,11.1,24.8h0.1c0.6,0.5.7,3.2,0.7,4.6s0,1.2.1,1.5a0.7,0.7,0,0,1,0,.2A1.3,1.3,0,0,1,35.7,756.2Zm34.5-26.1,2.1,2.2,1.2-1-2-2.3Z" transform="translate(0 -96.6)"/><path class="b" d="M0,692.2a23.6,23.6,0,0,1,4,.6l2.8,0.5H7.7A58.2,58.2,0,0,1,0,701.3v-9Z" transform="translate(0 -96.6)"/><path class="b" d="M98.6,244c-1.1,0-2.6-2.4-3.4-3.7l-0.6-1-0.6-.8c-3.9-5.3-8-10.8-11.7-16.4a10.5,10.5,0,0,1-.9-1.9l-0.5-1.1-0.4-.8-0.5.7-0.3.4-0.5.7-1.9,3.1L77,224c-2.2,3.7-4,7-5.6,10.1s-1.8,3.8-2.6,5.5l-0.2.6c-0.2.5-.6,1.6-0.9,1.6a1.2,1.2,0,0,1-.6-0.6c-2.3-3.2-3.2-8.3-3.9-12.4V228c-2.1-12.6-.5-24.8,4.4-32.5a25.6,25.6,0,0,1,4.1-4.6l1.3-1.2a61.4,61.4,0,0,1,5.4-4.8,3.9,3.9,0,0,0,1.9-3.1,44.3,44.3,0,0,0-.5-6.7c-1.1-6.3-5-11.5-8.9-16.5l-0.9-1.2a0.8,0.8,0,0,0-.5-0.3H69.2l-0.6-.2-0.2,1v0.9l-0.8,7.5v1.1a20.1,20.1,0,0,1-.8,4.8,6.3,6.3,0,0,0-.1,3.3,9.3,9.3,0,0,1,.2,2c0,0.8,0,1.7,0,2.5s0,1.8,0,2.7c-0.4,6.3-2.9,11.9-5.9,18a39.4,39.4,0,0,1-7.3,9.8,36.5,36.5,0,0,0-3.1,3.8L49,216.1l-0.3.3-0.2-.2c-0.2-1.3-.4-2.6-0.5-3.9s-0.4-3.2-.7-4.8a44.5,44.5,0,0,1-.1-13v-0.6c0.7-4.8,1.4-9.8,4.7-13.6l1.3-1.6c2.3-2.7,4.6-5.5,8.2-6.6a6.4,6.4,0,0,0,4.6-4.9,78.1,78.1,0,0,0,.9-8.1,27.9,27.9,0,0,0-.2-4.1v-1.3a1.3,1.3,0,0,0-.5-0.8H66.1L59.9,147c-5.5-5.3-11.3-10.9-17.8-15.2s-12.8-6.7-19.2-8.9l-7.3-2.6c-5.1-1.8-10.3-3.7-15.6-5.4v-3l1.4,0.7,1.7,0.9L6.3,115l8.1,3.1c13.4,5.1,27.2,10.4,38.2,20.1s20.1,18.2,26.2,30.7l0.4,0.8a19.4,19.4,0,0,0,1.3,2.4c2,3,5.1,4.8,7.9,6.2,4.8,2.4,9.7,4.5,13.8,6.2l3.1,1.2,3.3,1.3,1,0.4a10.1,10.1,0,0,0,4.1,1.2h0.8a15,15,0,0,0,2.9-.9l1-.4a30.8,30.8,0,0,1,10.5-1.6l5.6,0.2c6.8,0.5,12,1.8,16.2,4a60.3,60.3,0,0,1,8.3,5.7l1.8,1.4,0.9,0.6c1.1,0.7,3.4,2.2,3.4,3.1a1.7,1.7,0,0,1-1.3,1,46.7,46.7,0,0,1-15.3,2.6,60.1,60.1,0,0,1-17.7-2.9l-1.1-.3,0.5,1a45.3,45.3,0,0,0,5.4,8.2l1.1,1.5,1.3,1.5c1.5,1.8,6,7,6.2,8.2a1.9,1.9,0,0,1-1.4.6,7,7,0,0,1-3.2-1.3l-0.6-.4-3.3-1.9c-7.3-4.1-14.1-8-19-15.2-2.3-3.4-3.3-6.7-4.5-10.6l-0.2-.5c-1-3.3-4.8-4.5-7.6-5.4a105,105,0,0,1-21.6-9.9l-1-.6,0.2,1.1c0.2,0.7.3,1.5,0.4,2.2a12.2,12.2,0,0,0,1.3,4.6,65.8,65.8,0,0,0,3.9,5.6,41.9,41.9,0,0,1,5.3,8.4c2.5,5.8,3.6,12.1,4.5,18.1a173,173,0,0,1,2,25.6,2.4,2.4,0,0,1-.7,1.7H98.6Zm-2.5-2.6,2-.5v-0.6a4.1,4.1,0,0,0,.1-0.7c0-.9-0.1-1.8-0.1-2.7-0.1-2.5-.1-5.1-0.4-7.7a7.2,7.2,0,0,0-1.5-3.1l-0.3-.4a12.8,12.8,0,0,0-1.6-1.8l-0.5-.5-0.8-.9H93l1.9,1.9,1.4,1.4,1.1-.6v-0.4a14.6,14.6,0,0,1-.4-2.2c-0.2-2-.5-4.2-2.9-5.6l-0.4-.4-0.2-.2-1.6-1.7-1.1-1.2a38.4,38.4,0,0,0,4,3l0.8,0.5v-1a30.2,30.2,0,0,0-.8-5,1.9,1.9,0,0,0-.8-1l-1.4-1-2.5-1.9-2.3-2.1,2.9,2.3,1.9,1.5,0.8,0.3,0.6,0.2,1,0.4-1.1-2.9-2.3-5.7a1.9,1.9,0,0,0-.8-0.8H90.2l-0.5-1.4c0-.1-4.7-11.5-6.1-11.5H83.6l-1.1.3v1.1c0,0.5.1,1,.1,1.5s0.1,2.1.1,3.2,0.1,3.4.2,5.1,0,0.4,0,.7a3.3,3.3,0,0,0,.6,2.5l1.1,1-1,.3,0.2,0.5c0.2,0.5.3,1.1,0.5,1.6a8.9,8.9,0,0,0,1.5,3.6l2.8,2.9-0.9-.6-0.4-.2-0.2.4c-0.7,1.1.2,3,.9,4.4l0.4,0.8a7.7,7.7,0,0,0,1.1,2l2.1,2.5-1-.6-0.5-.2v0.6c-0.3,1.2,2,7.7,5.9,17.8l1,2.6ZM67.8,222.5a1.2,1.2,0,0,0-1,.4l-0.6.9a9.8,9.8,0,0,0-1.7,3,9.7,9.7,0,0,0,.1,4v0.4a28.3,28.3,0,0,0,.7,3l0.3,1.3V236l1.4-.2v-1.1c0-.5.1-1,0.2-1.5l0.5-3.8,0.8-5.6c0-.2,0-1.2-0.6-1.3H67.8ZM86.9,218v0.4c0,0.3,0,.6,0,0.9a11,11,0,0,1-.1,1.7c-0.5,2.8-.6,5.7,1.5,8.3l3,4,1.3,1.8,0.3,0.4,0.9-.8-5.8-17Zm-15.1-4.1-0.2.5-0.2.5L71,217.1c-0.2,1.4-.4,2.8-0.7,4.2s-0.2,1.1-.4,1.7-0.3,1.1-.4,1.7-0.6,3.3-.8,5.2a14.3,14.3,0,0,0-.1,1.6v1.2h1.3l1.5-2.7,3.4-6.1a4.1,4.1,0,0,0,.2-3.9l-0.2-.6-0.2-.6-1.2-3.4-1-2.8Zm-8.3,3.8a0.5,0.5,0,0,1,.5.4H63l0.5,7.2h1.2l0.2-.2a13.9,13.9,0,0,1,1.9-2.2,12.7,12.7,0,0,0,2.2-2.7c0.1-.3,2.4-6.9,1-7.7H69.6c-0.4,0-.9.3-2.7,2.3l-0.2.3a38.7,38.7,0,0,1-3.1,2.6h0Zm19.5-11v0.8l-0.2,1-0.2,2.2c-0.1,1.4-.3,2.9-0.5,4.4s0.9,5.1,2.3,7.2l0.6,0.9,0.6,0.9,0.3-1a23.4,23.4,0,0,0,.9-9.3,16.2,16.2,0,0,0-1.4-4.8l-0.8-2v-0.4Zm-9.3.5c-1.4,4.9-1,5.7.4,9.1l1.4,3.4,0.3,0.8,0.6-.6a4.4,4.4,0,0,0,1-4.6l-1.8-5.5-1.4-4.1Zm53.7,2.6c2.7,3.3,6.1,5.6,9.5,7.9l1.5,1-0.2-1.2a2.7,2.7,0,0,0-.5-1.2l-1.3-1.6a32.5,32.5,0,0,1-2.5-3.4c-1.3-2.1-3.2-2.2-4.9-2.3h-2.2ZM70.1,207a4.6,4.6,0,0,0-1.6.8l-0.6.3-2.7,1.1-0.6.3a1.2,1.2,0,0,0-.7.9c-0.2,1.4-.3,2.9-0.5,4.5L63,217.5l1-.9,2-1.7,4.9-4.4a2.5,2.5,0,0,0,.5-2.4,1.5,1.5,0,0,0-1.1-1.1H70.1Zm5.5-4.5a2.6,2.6,0,0,0-1,3c0.6,2.1,1.4,4.3,2.1,6.3v0.4a12.1,12.1,0,0,0,.6,1.3l0.3,0.6v0.3H79V214l0.3-1.1a4.4,4.4,0,0,0,.4-2.7,40.9,40.9,0,0,0-2.2-5.4l-0.9-1.9a1.2,1.2,0,0,0-.5-0.5H76.2l-0.3-.3Zm-23-7.4-1,.6-1.3.6c-2,.5-1.9,2-1.9,3.2s0,1.9,0,2.9,0,2,0,3,0.1,2.2.2,3.3v1.8h1.4l3.2-16Zm62.5-.7c0,4.9,5.6,14.8,9.6,15.5l1.1,0.2-2.1-3.2-3.2-5-3.1-5.2-2.4-4.1v1.8ZM51.6,209.5l1-.7c2.3-1.7,2.4-2.7.8-5.1l-0.7-1Zm28.7-22.7a6.9,6.9,0,0,0-1.1,2l-1.4,4.7-0.3.8a17.3,17.3,0,0,0-.6,2.1l-0.2,1.1a10.6,10.6,0,0,0-.4,3.6c0.4,2.6,1.9,4.8,3.5,6.9l0.7,0.8,0.2-1c1.2-5.4.9-10.8,0.6-16-0.1-1.6-.2-3.2-0.2-4.8v-1.4Zm-7.9,13.9H72.1l-5.1.8H66.6a1.3,1.3,0,0,0-.8.9l-1.2,4-0.6,2h1.8l1-.5a8.2,8.2,0,0,1,1.8-.8H69c2-.5,4.3-1.1,4.3-4.2h0a1.5,1.5,0,0,0,0-1.5A1.2,1.2,0,0,0,72.3,200.7Zm55.8,4.3h-4.5l0.4,0.7a5.8,5.8,0,0,0,5,2.6l1.8-.3,0.6-.2-0.3-.6-0.4-.9c-0.4-.8-0.7-1.5-1.3-1.6h-1.4Zm-73.8-8.7a7.6,7.6,0,0,0,.7,8.5l0.3,0.4,0.4-.3a4.6,4.6,0,0,0,1.2-3.6c0-1.9-.6-4.2-1.8-5.2l-0.5-.4Zm69.4,5a3.9,3.9,0,0,0-2,.5l-0.5.3,0.4,0.4,0.5,0.7a2.8,2.8,0,0,0,1.6,1.5h1l2.1-.2,1.3-.2H129l-0.6-.7A6.3,6.3,0,0,0,123.7,201.3Zm16.1-6.3v0.2a0.9,0.9,0,0,0,.2.5l1.1,1.5,4.4,5.6a2.2,2.2,0,0,0,1.8.8,3.8,3.8,0,0,0,2.2-.8l-0.6-.8h0.4a40.3,40.3,0,0,1-4.1-4.3,31.4,31.4,0,0,0-2.4-2.6,2.5,2.5,0,0,0-1.7-.6h-1.3V195Zm4.9,0.9c1.1,1.9,4.8,7.1,7.8,7.1h0.4l5.1-.7,2.4-.3,0.3-1.1L144,194.7Zm-13.2-3.1A10.1,10.1,0,0,0,133,195l2,1.9,2.7,2.7c1.3,1.4,2.7,3,5.4,3h0.7l-0.3-.7v-0.3a2.1,2.1,0,0,0-.3-0.6l-1.3-1.9c-1.2-1.6-2.4-3.3-3.6-4.9s-3.2-1.9-5-2.1L132,192l-1-.2Zm-75-2.4c-1.2,2.9-.3,5.6.5,8.1,0.3,0.8.5,1.6,0.7,2.5l0.2,0.9,0.6-.6c1.4-1.4.5-7.4-1.2-10.8l-0.5-1Zm62.5,7.9,1.9,3.3,4.4-.9-5.4-3.3Zm-48.3-1.3c-2,0-3.2,1-3.8,3.4l-0.2.8,1.9-.3,2.4-.4h0.8a5.4,5.4,0,0,0,1.7-.3,2.1,2.1,0,0,0,1-1.1l0.2-.5,0.3-.5-0.6-.2-0.3-.2-1-.3H70.6Zm53.8-6.7h-1l0.6,0.8,0.9,1.1,1.9,2.3,0.5,0.7a9.9,9.9,0,0,0,2.3,2.3,29.9,29.9,0,0,0,3.9,1.9l1.6,0.7h0.2l0.5-.2,0.2-.2,0.4-.3-5.6-6.6a7.3,7.3,0,0,0-6.1-2.6h-0.3Zm22.5,0.3a5,5,0,0,0-3.8,1.7,1.4,1.4,0,0,0-.4,1.3,1.3,1.3,0,0,0,1,.8l3.6,1,3.3,0.8,3.7,0.9,2.5,0.7,1.7,0.5v-1.1l-0.2-.2-1.3-1-3-2.2-3.2-1.9-1.7-.9A4.7,4.7,0,0,0,146.9,190.5Zm-88.1-5.1a3.3,3.3,0,0,0-.8,2.1c0.3,2.1.7,4.3,1.1,6.4l0.5,2.8,1.4-.2v-0.4c0.5-3.5-.1-6.9-1.3-10.8l-0.3-1.1Zm57.7,5.1,0.2,0.2a27,27,0,0,0,9.1,5.6l0.8,0.3-0.2-.9c-0.6-2.6-2.3-4.1-4.1-5.4a6.5,6.5,0,0,0-3.6-.8h-2Zm-39.5-3.1c-3.2,2.3-7.2,6.2-7.9,8.4l-0.2.7h4.7a2.4,2.4,0,0,0,2.5-1.9l1.8-6.2a0.8,0.8,0,0,0-.1-0.5l-0.2-.6Zm-24.2,3-2,.9c-1.7.8-2.3,1.9-2,3.9v0.4h0.5c2.1-.1,4.9-2.8,5.2-5.2v-0.9Zm89.3-1.9h-0.5a13.4,13.4,0,0,0-3.4,1.7l-0.4.2a1.3,1.3,0,0,0-.4,1,1.1,1.1,0,0,0,.2,1,3.3,3.3,0,0,0,2.2.8,3.8,3.8,0,0,0,2.4-.8L144,191l1.9-1.6-1-.2-1.1-.3A5.8,5.8,0,0,0,142.2,188.5Zm-10.5-1.5a36.7,36.7,0,0,0-7.4.9v1l1.9,0.5,9,2.5h0.3a1.4,1.4,0,0,0,.9-0.3l2.1-2.1a1.1,1.1,0,0,0,.5-1.2,1.5,1.5,0,0,0-1-.7h-1.4l-1.5-.2Zm-75.4-1.9H55.2l-2.4.4c-2.7.5-3.4,1.7-3,4.8v0.9l0.7-.6a9.3,9.3,0,0,1,2.5-1.3c1.5-.6,3.1-1.3,3.9-3.1v-0.2l-0.5-1.1H56.3Zm5.4-5.6c-1.6,3-.8,5.9,0,8.7,0.2,0.8.5,1.7,0.6,2.5h1c0.8-3.1.2-6.1-.3-9l-0.4-2-0.2-1.5Zm-3.4-.7a6.8,6.8,0,0,0-6.5,5.1l-0.2.7h0.7c3.4-.2,5.7-1,6.8-2.4a3.4,3.4,0,0,0,.7-2.8V179H58.2ZM63,176l0.3,2.5h1.4V178l-0.2-2.1Zm-0.9-2.5c-2.1.3-3.2,1.6-4.5,3l-1.1,1.3h1.1c3.3,0,4-1.2,5-3.6l0.4-.8H62.1ZM89,199.3L86.6,198l-0.6-.6A9.8,9.8,0,0,1,89,199l0.9,0.7Zm-60-83.4c-5.9,0-11.3-2.1-17-4.4l-2.5-1-0.8-.2H8.5l-5.3.9-3.3.6v-2.2l1-.2,1.3-.3a11.6,11.6,0,0,0,6.3-2.9,43.4,43.4,0,0,1,11.6-7.7,26.4,26.4,0,0,1,10.3-1.9A58.8,58.8,0,0,1,43,98.3l6.6,1.3,1.4,0.2c1.8,0.2,4.8.5,4.9,1.8a2.6,2.6,0,0,1-.9,1.5c-6.8,6.5-13.6,10.6-20.4,12.1A24.3,24.3,0,0,1,29.1,115.9Zm-13.3-7,0.4,0.2,0.3,0.2,0.8,0.4,1.7,0.6,2.8,1,3.5,1.5,4.2,1.8h2.5v-1.3H31.5c-2-.6-3.9-1.5-5.8-2.3a41.9,41.9,0,0,0-9-3.2H16.3Zm-3.4-1a10.9,10.9,0,0,0-2.3.3l-1.3.3,0.8,0.7c1.8,1.4,12.7,5.1,14.5,5.1h0.4l1-.4-2.2-1.1-2.8-1.4-2.1-.9-3.9-1.9A4.2,4.2,0,0,0,12.3,107.9Zm10.2-.9a3.9,3.9,0,0,0-2,.4l-0.9.6,2.9,1,4.1,1.5,0.8,0.3,6.1,2.3,1.3,0.3a3.8,3.8,0,0,0,2.3-.9l0.4-.3-0.3-.4C35.9,109.8,26.8,107.1,22.5,107.1Zm10.4-.8a13.6,13.6,0,0,0-3.5.5l-1.4.4,1.3,0.6,0.8,0.4,1.8,0.7,2.2,0.8,3.6,1.3a5.2,5.2,0,0,0,1.9.5c0.8,0,1.5-.5,2.4-1.4l0.5-.4-0.6-.3A17,17,0,0,0,32.9,106.3Zm15.3-2.4-2.9.5-3.9.5-2.7.3-0.7.2H37.8L37,106l0.6,0.5,0.2,0.2,0.4,0.3,0.8,0.4,4.5,1.9H44l0.9-.3,2.9-2,1.7-1.3,1-.8-0.5-1.3Zm-36.3,2,0.9,0.3,1.4,0.2c1.8,0,2.2-1.4,2.7-2.8v-0.2l-0.7-1ZM24,99.2H23.8c-3.2.5-4.6,2.8-6,5.7l-0.3.7h2.2a3.1,3.1,0,0,0,2.4-.9l3-3.4a3.6,3.6,0,0,0,.5-0.9l0.2-.3,0.3-.6H24Zm10-1.6H32.5a6.4,6.4,0,0,0-3.4.8,27.8,27.8,0,0,0-4.2,4.1l-1.7,1.9-0.6.6,0.8,0.2,1.6,0.3a5.6,5.6,0,0,0,3.2-1.1,25.8,25.8,0,0,0,6.4-5.6V98.7l-0.3-1.2H34Zm4.2,0.8a2.9,2.9,0,0,0-1.6.5l-0.8.5-0.8.5-0.6.4-2.2,1.6a14,14,0,0,0-1.5,1.6l-0.6.6-0.5.6,0.8,0.2h1.1c2.6,0,6-2,9.1-5.1l0.3-.4-0.4-.3A3.4,3.4,0,0,0,38.2,98.4Zm5.5,1.1-1,.2a35,35,0,0,0-3.2,2.1l-1.2.8-0.3.2,0.3,1.3,12.5-1.8v-1.4l-2-.4-3.9-.8H44.9Z" transform="translate(0 -96.6)"/><path class="b" d="M9.8,168.4a3.1,3.1,0,0,1-1-.8l-0.5-.4A62.6,62.6,0,0,1,0,157.9v-2.3a8.3,8.3,0,0,0,1.7,2L2.2,158l0.3-.6c1.5-3.2,1.2-6.1-.7-8L1.4,149l-0.3.5a14.7,14.7,0,0,0-1,1.9V150a9.8,9.8,0,0,1,.5-1.3,5.2,5.2,0,0,0-.5-4.8v-3.7c1.6,2.4,4.8,4.6,6.9,4.7H7.4v-0.7c0-1.6-.1-3.5-2.2-4.3l-1-.6-1-.6-2.3-.9L0,137.5v-0.8a21.6,21.6,0,0,0,3.7,1.6l1.4,0.5L5.5,139l0.2-.4c0.2-.4-0.5-2.9-0.5-2.9A6.4,6.4,0,0,0,4,134a12.1,12.1,0,0,0-4-2.4H0L2,132l1.1,0.2-0.6-1A12,12,0,0,0,0,128.3v-2.1c8.9,7.1,9.6,20.3,10.3,31v0.5a68.6,68.6,0,0,1,0,7c0,0.3,0,.7,0,1a5.8,5.8,0,0,1-.2,2A0.9,0.9,0,0,1,9.8,168.4ZM4,155.8a3.8,3.8,0,0,0-.8,3.4A6.7,6.7,0,0,0,7,163.6l1.2,0.5-3.7-9Zm2.9,2.9,0.5-.6a4,4,0,0,0,.7-3.6,8.5,8.5,0,0,0-4.6-5.8l-1.1-.5ZM0.4,143.9l6.7,7.2,1-.6v-0.7a3,3,0,0,0-.9-3l-1.1-1-1.7-1.5a12,12,0,0,0-1.9-1.1l-0.8-.4-0.4-.2Z" transform="translate(0 -96.6)"/></g></svg>