<svg xmlns="http://www.w3.org/2000/svg" width="1014.5" height="194.6" viewBox="0 0 1014.5 194.6"><defs><style>.a{opacity:0.2;}.b{fill:#e5e1cf;}</style></defs><title>foliage_top</title><g class="a"><path class="b" d="M177.1,104.2a23.1,23.1,0,0,1-9.6-2.3c-4.9-2.2-10-4.6-15-7l-2.3-1.1c-4.6-2.3-9.4-4.6-14.3-6.6L128,83.8a41.8,41.8,0,0,0-5.8-2.3l-1.1-.2-1-.2a2.9,2.9,0,0,1-1.9-1.1l-0.9.5a53.5,53.5,0,0,0,4.7,6.3c1,1.3,2.1,2.6,3.1,3.9,2,2.8,4.4,6.1,4.5,9.8a2.4,2.4,0,0,1-.5,1.8,1.3,1.3,0,0,1-.9.4l-1-.2c-3.4-1.5-5.8-4.1-8.2-7l-0.3-.3-2.1-2.3c-2-2.3-4.1-4.6-5.9-7.1s-5.3-7.8-7.7-11.7L102.4,73C99.9,69.1,97,64.7,93.2,62l-2.3-1.6A77.1,77.1,0,0,1,82,53.6l-3.1-3.3-0.6-.6-0.4-.4a5.9,5.9,0,0,0-1.1-1.1l-0.9-.4L75,47.2l-0.8.6a113,113,0,0,1,8.1,13,10.3,10.3,0,0,1,1.2,3.5,2,2,0,0,1-.4,1.5,1.1,1.1,0,0,1-.8.3,4.6,4.6,0,0,1-2-.7A17,17,0,0,1,73.8,60a45.8,45.8,0,0,1-4.2-7l-0.4-.8a116.9,116.9,0,0,0-6-11.3c-2.3-3.6-4.8-7.2-7.3-10.6l-2.5-3.5a10.9,10.9,0,0,0-2-1.9l-0.8-.7-0.8.5a46.3,46.3,0,0,1,1.8,8.3c0.2,1,.3,2,0.5,3a7,7,0,0,1,0,2.3c-0.2,1.2-.6,1.7-1.2,1.8H50.7a2.9,2.9,0,0,1-1.7-.7,12.3,12.3,0,0,1-3-4.3,47.9,47.9,0,0,1-3.5-12.9,62.7,62.7,0,0,0-1.7-7.9c-0.9-3.4-3.6-6.3-6-8.9l-1.9-2,0.3,1.6,0.2,1c0.5,2.7,1.3,7.2-1.5,8H31.3a1.7,1.7,0,0,1-1.5-1A19.4,19.4,0,0,1,28,9.8C26.8,6.5,26.5,2.9,26.3-.6V-0.9a19.5,19.5,0,0,0-1.5-5.9L24-9l-0.3-.9-0.6.8c-0.8,1-1.7,2.2-2.9,2.2H20.2a2.6,2.6,0,0,1-1.9-.9c-1.2-1.3-2.2-3.4-2.8-6.4s-1.3-6.4-1.7-9.2l-0.2-1.3c-0.4-2.6-.7-4.8-2.4-7.1l-0.9-1.2v1.4a37.6,37.6,0,0,1-.8,7.1,2.5,2.5,0,0,1-2.3,2.1h0a2.4,2.4,0,0,1-1.9-1.1C3.1-26.2,3.1-31.5,3.2-33A51.5,51.5,0,0,0,0-53.1H2.1v0.2l0.4,0.8C5-47.7,7.8-42.7,12.2-39l6.9,5.6c3.9,3.1,7.9,6.2,11.5,9.7a3.2,3.2,0,0,1,.9,2.8,0.9,0.9,0,0,1-1,.5H30.3a6.4,6.4,0,0,1-2.4-.9L26.6-22l-2-.7-1.9-.6-0.5.8a74.3,74.3,0,0,0,11.6,9.7l7.4,5.1,3.8,2.6c1,0.7,2.5,2.8,2.4,3.8S46.9-.3,45.6-0.3s-4.4-1-8-3H37.4L37-3.6a4.3,4.3,0,0,0-2-.9,1.3,1.3,0,0,0-.9.4,1,1,0,0,0-.3.8c0.1,0.8,1.1,1.7,2.2,2.5L36.3-.6a57.7,57.7,0,0,0,6.3,4.2l1.6,1L51.5,9l8.6,5.2c0.9,0.6,3,1.9,3.2,3.2a1.3,1.3,0,0,1-.4,1,2,2,0,0,1-1.5.4,12.9,12.9,0,0,1-3.5-.7l-2.7-1-1.9-.7L51.7,16l-2.1-.5,0.2,0.3-0.9.4A8.2,8.2,0,0,0,52.3,20l0.4,0.3a77.1,77.1,0,0,0,15.1,8.1l4.7,1.9a92.7,92.7,0,0,1,11.9,5.3L85.3,36l2.2,1.3a1.5,1.5,0,0,1,.8,1.4,2.4,2.4,0,0,1-1.8,1.6l-1.3.2a14.4,14.4,0,0,1-2.6-.3l-1.1-.2L76.6,39H76.5l-1.3-.2a8.5,8.5,0,0,1-3-.6l-0.7.7L73,40.3a15.5,15.5,0,0,0,1.8,1.6c4.8,3.3,10.1,5.3,15.1,7.1s9.2,3.6,13.5,5.5c1.9,0.8,3.7,1.7,3.5,3.3a1.3,1.3,0,0,1-1.5,1.3l-1.9-.3h-0.3l-5-.9-1.3-.3a10.3,10.3,0,0,0-2.6-.4,6.3,6.3,0,0,0-2.1.4l-0.9.3,0.7,0.6,1,0.8,1.7,1.3,1.1,0.7a24.2,24.2,0,0,0,4.3,2.3,109.4,109.4,0,0,0,17,5l4.1,1a42.1,42.1,0,0,0,5.6,1.3h0.8c2.3,0.3,4.5.6,6.1,2.3a1.8,1.8,0,0,1,.6,1.6,3,3,0,0,1-1.7,2,9.7,9.7,0,0,1-4.4.8l-3.4-.2h-4.9l1.6,0.9a41.9,41.9,0,0,0,29,4.2l1.7-.4c5.7-1.3,11.6-2.6,17.5-2.6h3.2c2.5,0.2,4,.6,4.3,1.3a0.9,0.9,0,0,1-.2,1c-1,1.6-3.4,2.2-5.4,2.8l-1.6.5a57.2,57.2,0,0,1-10.6,2.5v1h1.6a48.2,48.2,0,0,0,5-.3l3.9-.3a68.2,68.2,0,0,0,7.7-.7c3.7-.6,7.4-1.4,11-2.2l3.7-.8,14.8-3h1.6a9.9,9.9,0,0,1,4,.9,2.5,2.5,0,0,1,1.4,1.4,2.5,2.5,0,0,1-.3,2c-0.8,1.4-2,2-3.7,2.5-7.7,2.3-16.1,4.6-25,5l-7,.2-5.7-.2a46.2,46.2,0,0,1-5.3-.8h-3.8a4.8,4.8,0,0,1-2-.3l-0.5.9a23,23,0,0,0,3.3,1.3l1.9,0.7,4.4,1.7,8.2,3.2h0.3c1.4,0.6,2.7,1.1,2.6,2.8s-1.5,1.8-4,1.9h-0.5ZM158.1,93.9h-0.9l-1.2.2,0.9,0.7a42.5,42.5,0,0,0,9.1,4.9l2.8,1.3a17.5,17.5,0,0,0,5.6,1.5,1.9,1.9,0,0,0,1.8-.8,1.1,1.1,0,0,0,.1-1c-0.5-1.2-3.2-2.5-8.7-4.2h-0.5l-2.1-.8a23.8,23.8,0,0,0-6.6-1.8h-0.4ZM103.4,71c0,2.2,1.2,4.2,2.4,6.1l0.6,1c1.5,2.4,3.1,4.9,4.8,7.2a96.9,96.9,0,0,0,11.6,13.2h0.1c1.2,1.1,2.5,2.4,4.5,2.5h0.3c0.6-.3,1.4-1.2.7-2.8V98a23.7,23.7,0,0,0-2.6-4.7c-3.7-4.9-7.4-9.5-10.9-13.8a46.5,46.5,0,0,0-10.5-8.9l-0.8-.5V71ZM207.8,82.3h-1.5a81.1,81.1,0,0,0-12.1,2.3l-2.7.6-5.7,1.4-8.9,2.1a26.7,26.7,0,0,1-4.2.4h-2.2l-1.5.2-1.6.2-1.4.2,1.2,0.7a12.6,12.6,0,0,0,6.6,1.7h12.4c7.7-.2,14.8-2.4,22.6-4.9a13.6,13.6,0,0,0,2.8-1.4,1.5,1.5,0,0,0,.7-1.4,1.8,1.8,0,0,0-.9-1.6A7.4,7.4,0,0,0,207.8,82.3Zm-39-1.6a50,50,0,0,0-6,.4c-3.3.5-6.6,1.3-9.7,2.1l-1.9.5-3.6.8v1a52.4,52.4,0,0,0,8.5.7,42.9,42.9,0,0,0,12.5-1.8l0.9-.2c1.9-.4,3.5-0.8,3.8-1.7a1,1,0,0,0-.1-0.9C172.8,81.2,172,80.7,168.8,80.7ZM110.6,69.1h0.1l-0.8.6a16.3,16.3,0,0,0,9.5,5.6,32.3,32.3,0,0,0,7.2,1h2.3c1.9,0,2.9-.3,3.3-0.9V75.2c0.1-1-1.5-2-5.7-3.3h-0.3a58.2,58.2,0,0,0-8.3-2l-4-.5h-3.4ZM69.5,48.4a31.2,31.2,0,0,0,6,11.2s3.4,4.2,5,4.2a1,1,0,0,0,.9-0.8,2,2,0,0,0-.2-1.3,23.6,23.6,0,0,0-4.9-6.9l-0.5-.6-1.6-1.7-1.2-1.3c-0.8-.9-1.8-2.1-2.8-3.3Zm10.9-.2a35.8,35.8,0,0,0,15.8,8.7,22,22,0,0,0,5.4.8H103a1.5,1.5,0,0,0,1-.5,0.8,0.8,0,0,0,.2-0.6,1.1,1.1,0,0,0-.4-0.7,11.1,11.1,0,0,0-3-1.6l-6.3-2.3-4.6-1.7-4.3-1.4-1.5-.3a8.4,8.4,0,0,1-3.1-1Zm-21-20.9c0.9,1.7,1.8,3.4,2.8,5.1a5.5,5.5,0,0,0,1,1.3,5.5,5.5,0,0,0,2.1,1.1c3.5,1.1,7,2.2,10.6,3.1h0.2a11.9,11.9,0,0,0,2.8.5,1.8,1.8,0,0,0,1.8-.8,1.3,1.3,0,0,0,.1-0.8,3.7,3.7,0,0,0-1.7-2,26.9,26.9,0,0,0-4.8-2.1L72.6,32c-4.5-1.8-8.8-3.7-12.6-5.3l-1.3-.6ZM46.3,23.9a17.9,17.9,0,0,0-.6,3.1,15.4,15.4,0,0,0,.9,4.8l0.2,0.7c0.5,1.8,1.1,3.3,2,3.5h0.2a1,1,0,0,0,.7-0.3c0.9-1,.4-2.8.1-4.2l-0.2-.9a23.3,23.3,0,0,0-2.4-7.1l-0.9.5V23.9ZM41.5,6.8A8.1,8.1,0,0,0,45,10.6c0.1,0.1,10.1,6.1,12.8,6.1a1,1,0,0,0,1-.5V16a1.8,1.8,0,0,0-.7-1.6,48.7,48.7,0,0,0-7.5-4.6l-1.2-.6a27.2,27.2,0,0,0-7.4-3.1l-0.9-.2ZM28.8-.2c0,0.6.1,1.1,0.1,1.7a23,23,0,0,0,.8,5.7V7.8c0.3,2,.7,3.8,1.8,3.8h0.4c2.6-1.2-.7-9.6-0.8-9.7A5.6,5.6,0,0,0,30.4.7a5.2,5.2,0,0,1-.7-0.9h-1ZM26.3-16.8a1.5,1.5,0,0,0-1.2.8l-0.2.3v0.3a27.7,27.7,0,0,0,8.4,9.1,44.8,44.8,0,0,0,6.1,3.5l0.5,0.3a6.7,6.7,0,0,0,2.7.9h0.3a1.4,1.4,0,0,0,1.4-1c0.3-1.3-1.9-2.9-2.3-3.2L27.6-16.2H27.5A1.9,1.9,0,0,0,26.3-16.8Zm-9.8-4.7a26.2,26.2,0,0,0,2.1,10.7,2,2,0,0,0,2,1.5h1.1V-9.8a15.8,15.8,0,0,0-4.4-12l-0.8-.9v1.2Zm-0.2-9.9a8.7,8.7,0,0,1,1.3,1.8l0.8,1.1a18.7,18.7,0,0,0,2.8,2.6A17.1,17.1,0,0,0,25-23.4a5.2,5.2,0,0,0,1.8.4,1.2,1.2,0,0,0,1.4-1.2c0-1.1-1.6-2.5-4-4.2l-0.4-.3a25.8,25.8,0,0,0-7.1-3.6l-0.3,1h0ZM5.3-41L4.9-39.9a3.4,3.4,0,0,0-.4,1.4c0,2.1.1,4,.3,5.9a12.9,12.9,0,0,1,0,1.8,10.7,10.7,0,0,0,0,2.5c0.3,1.8,1.2,1.9,1.6,1.9a1.5,1.5,0,0,0,1.1-.6,3.6,3.6,0,0,0,.6-1c0.8-1.9.6-5.1-.6-9.5L7-38.5a8.8,8.8,0,0,1-.8-2.3Z"/><path class="b" d="M530.4,140.5l-0.3-.2-3.8-3.4-1.2-1.1a2.8,2.8,0,0,1-1-1.4,2.2,2.2,0,0,1,1-1.1l0.3-.2a20,20,0,0,1,3.5-2.4c3.6-1.8,4.8-6.6,5.7-10.5l0.4-1.6c4.9-18.5,4.9-32.6.1-43.1a6.7,6.7,0,0,1-.4-1.4,8.5,8.5,0,0,0-.4-1.4l-0.4-.7a4.5,4.5,0,0,1-.6-1.1l-0.9-.3a31.3,31.3,0,0,0-2,7.1c-1.2,7.4-7.2,13.3-11.6,17.1l-1.7,1.3c-3.6,2.7-6.8,5.3-7.1,7.4l-0.5.7a6.1,6.1,0,0,1-1.5,1.7h-0.2l-0.4-.3-0.4-.4-0.7-.6c-2-1.8-3.8-3.4-4.6-5.9a51.6,51.6,0,0,1,13.4-2.4h0.2l0.9-.9c5.6-5.4,11-10.6,13.2-18.5a48.8,48.8,0,0,0,1.4-9.4V67.3a17.5,17.5,0,0,0-2.4-10.5l-3-5.3c-1.5-2.6-3-5.4-4.6-8a62.5,62.5,0,0,0-4-5.6l-1.2-1.6a3.1,3.1,0,0,0-1-.8l-0.6-.3-0.6.8-0.2-.2a16,16,0,0,1-.6,3.5v0.6c-0.2,1-.3,2.1-0.5,3.1s-0.4,2.5-.6,3.8c-1.1,5.5-4.1,9.9-6.9,14.1s-5,7.3-6.4,11.7c-0.3.9-.5,1.7-0.7,2.6s-0.4,1.7-.7,2.6a0.8,0.8,0,0,1-.3.5h-0.2a20.6,20.6,0,0,1-5-3.6c-0.8-.8-1.2-1.5-1.1-2.1a2.4,2.4,0,0,1,.8-1.1,10.5,10.5,0,0,1,3.6-2.2l1.3-.4a10.8,10.8,0,0,0,2.8-1.1,9.9,9.9,0,0,0,2.5-2.5,53.9,53.9,0,0,0,7.8-13.9,43,43,0,0,0,2.4-13c0.3-5.3-.6-9.1-2.8-12-5.1-6.8-9.3-15-12.4-21.4L493.9,0l-0.6-1.4-0.6-1.4a13.5,13.5,0,0,0-2.1-3.7l-0.8.7h-0.1a13.7,13.7,0,0,1-.3,2.3c-0.1.5-.2,0.9-0.2,1.1s0,2.5,0,3.7a35.4,35.4,0,0,1,0,3.9c-0.1,1-.2,2.1-0.3,3.2s-0.3,2.8-.4,4.1c-0.2,4.2-.7,8.3-1.1,11.5-0.2,1.1-.4,2.2-0.7,3.3a23.7,23.7,0,0,0-.8,5.5,41.4,41.4,0,0,1-.4,6.4,1.3,1.3,0,0,1-1.3,1.2h-0.5L481,39l-1.3-.6a1.7,1.7,0,0,1-1-2l1.5-1.5a31.6,31.6,0,0,0,3.7-4c2.1-2.9,2.7-6.6,3.2-10V20.2A105.5,105.5,0,0,0,488.6,1c0-.5-0.1-1.9-1-1.9s-1,.2-2,2.1L485,2.4a37,37,0,0,1-1.9,3.3,56.3,56.3,0,0,1-4.6,6,46.7,46.7,0,0,1-11.4,9.5l-1.3.7a21.8,21.8,0,0,0-5.5,3.9,25.3,25.3,0,0,0-1.8,2.3,11.7,11.7,0,0,1-3.6,3.7h-0.2a21.8,21.8,0,0,1-2.9-6.3,11.9,11.9,0,0,1,4.1-.6,19.1,19.1,0,0,0,3.1-.3,23.4,23.4,0,0,0,7.2-3.5l0.6-.4c12.5-7.9,24.3-23.3,20.4-38.6-1.7-6.6-2.7-13.5-3.7-20.1v-0.3c-0.1-.9-0.3-1.9-0.4-2.9s-0.5-4.3-1.1-6.9l-0.3-1.3-0.6,1.1L480.3-47a13.7,13.7,0,0,0-1.1,2c-4,10-14.1,18.9-19.7,23.3a4.7,4.7,0,0,0-1.5,2c-0.5,1.4-.9,2.9-1.4,4.3L456.2-14l-0.6,1.8v0.4a5,5,0,0,1-.3.9h-0.4l-1.3-.4-2.6-.8c-1.1-.4-2.8-1.4-2.6-2.5a2.2,2.2,0,0,1,.9-1.1,18.1,18.1,0,0,1,4.5-3,14.7,14.7,0,0,0,4.8-3.4l1.3-1.3,3.1-3.1c9.4-9.1,15.1-17.9,17.4-26.7h2.9c0.1,2.1.2,3.8,0.3,5.4,0.4,4.4,1.2,8.8,1.9,13.1l0.8,4.8v0.2a6.4,6.4,0,0,0,1.4,3.7,13.4,13.4,0,0,0,3.4,2.3l1.7,1c5.8,3.8,11.6,7.4,18.3,9.5a54.1,54.1,0,0,0,16.7,2.7h3.3a7.8,7.8,0,0,0,5.2-2.5,9.9,9.9,0,0,1,2.9-2h0.6a1.5,1.5,0,0,1,.7.5,9.7,9.7,0,0,1,2.5,5.8H532.8c-11.1-.1-22.7-0.8-32.7-7.4l-2.9-1.5c-2-1-5.7-2.8-6.1-3.3a0.4,0.4,0,0,1,0,.3l-1-.2a1.8,1.8,0,0,0,.5,1.4l1.1,1.4a72.4,72.4,0,0,0,6.8,8.3c9.7,9.8,22,15.5,36.5,17.1h2.3a9.7,9.7,0,0,0,4.5-1L544,5c1.4-1,3-2,4.2-2s1.6,0,2.2,2.9l1.4,6.6h-0.1l-0.3.3a2.7,2.7,0,0,1-1.5.5,3.3,3.3,0,0,1-1.8-.6,25.8,25.8,0,0,0-13.3-4.4,40,40,0,0,1-4.7-.7l-1.7-.3a53.3,53.3,0,0,1-15.3-4.8c-8.9-4.5-15.7-10.1-20.3-16.7l-0.4-.6a3.9,3.9,0,0,0-2.8-2.3H489v0.7a42.8,42.8,0,0,0,2.3,7.7,163.2,163.2,0,0,0,10,21.3l1.4,2.6c3,5.5,6,11.2,10.9,14.9a91.7,91.7,0,0,0,32.1,15,77.1,77.1,0,0,0,8.3,1.5c2.2,0.3,4.6.6,6.8,1.1l2.6,0.3a12.7,12.7,0,0,0,6.2-1.7l1.5-.8,2.1-1.2,1-.8a2.4,2.4,0,0,1,1.3-.8h0.4c0.7,0.3.6,0.6,0.4,1.6a3.8,3.8,0,0,0-.1,1.3V46a21.9,21.9,0,0,1,.2,2.4c0,0.7,0,1.4-.1,2.1v0.7a6.2,6.2,0,0,1-3.1.8,9.9,9.9,0,0,1-3.2-.6,69.7,69.7,0,0,0-8.5-2.4l-6.5-1.1a91.3,91.3,0,0,1-16-3.6A162,162,0,0,1,520.9,36l-1.6-.8-0.3-.2a2.1,2.1,0,0,0-1.2-.5,1.7,1.7,0,0,0-1.1.4l-0.4.3,0.8,1.1,1.1,1.5a119.9,119.9,0,0,1,11.8,19.8,113.6,113.6,0,0,1,4.5,12l0.5,1.4a10,10,0,0,0,2.8,4.5A42.6,42.6,0,0,0,564,86.6h1a10.4,10.4,0,0,0,5.9-1.7,4.4,4.4,0,0,1,1.9-.8h0a1.7,1.7,0,0,1,1,.4c1,2.4,1.7,4.5,0,6.6l-0.6-.2a5.1,5.1,0,0,1-1.5-.6c-3-2.2-6.4-2.7-9.4-2.9a27.5,27.5,0,0,1-9.3-2.1l-4.5-1.9L545.4,82h-0.3l-2.4-1.1-0.3-.2a9.7,9.7,0,0,1-2-1.4l-0.9.5,0.7,1.4a12.5,12.5,0,0,0,1.5,2.8c1,1.3,2.1,2.6,3.3,3.8,6.7,7.2,16.9,16.9,26.9,16.9h0a14.9,14.9,0,0,0,4.5-.7,7.5,7.5,0,0,1,2.2-.5,2.5,2.5,0,0,1,1.2.3c0.5,3.1.3,4.2-1,6.7a4.9,4.9,0,0,1-3-1.6l-0.7-.6a25.8,25.8,0,0,0-7.8-3.8,40.8,40.8,0,0,1-5-2A58.8,58.8,0,0,1,551,94.7c-3.7-3.2-7.9-7-10.5-11.4l-0.9-1.5v1.8c0,1.7,0,3.3,0,4.9a86.6,86.6,0,0,1-.9,15.3,189.3,189.3,0,0,1-4.7,19.7,85.1,85.1,0,0,0-2.9,14.7,9.3,9.3,0,0,1-.6,2.2A0.5,0.5,0,0,1,530.4,140.5Z"/><path class="b" d="M808.5,101.8c-3.6,0-7.7-6.4-9.2-9.6-3.1-6.5-4.1-13.8-4.7-19.4-0.2-1.6-.3-3.2-0.5-4.9s-0.3-3.3-.5-4.9a50,50,0,0,1,.2-8.8c0.1-1,.2-2,0.2-2.9,0.8-14.6,1.8-28,2.9-40.9a42.1,42.1,0,0,1,.7-4.3,25.5,25.5,0,0,0,.7-7.5l-0.2-1.4-0.8,1.2c-5.3,8.1-9.8,16.4-14.8,25.6l-3.1,6a119.4,119.4,0,0,1-7.1,12.7c-2.7,4-6.9,9.3-12,9.3h-0.1c-1.1,0-3.7-.3-4.6-2.3a5.8,5.8,0,0,1-.3-2.8,35.9,35.9,0,0,1,6.5-17.4,46.7,46.7,0,0,1,8.1-8.3l2.9-2.6c2.7-2.5,5.3-5.2,7.7-7.7L785.2,6l4.2-4.3,2.3-2.4,1-1.1,3.4-3.6,1.6-1.4a10,10,0,0,0,2.8-3,21.5,21.5,0,0,0,1.6-6.3c0.2-1,.3-2,0.5-2.9,0.8-3.5,1.9-7,3-10.4s1.7-5.4,2.4-8.2v-0.4c0.3-.9.8-2.3-0.2-2.6h-0.3a3.9,3.9,0,0,0-2,1.1l-0.2.2a24.8,24.8,0,0,0-3.8,3.8L798.6-32l-3.2,3.7-3.9,4.5-6.9,8-4.6,5.1c-2.1,2.3-4.3,4.7-6.4,7.2-3.3,4-6.6,7.7-11.4,9.9a5.5,5.5,0,0,1-2.2.5,3,3,0,0,1-2.1-.7,3.2,3.2,0,0,1-.9-2.1c-0.2-2.4,1-4.9,2.1-7.1h0.1c5.6-11.4,16.1-18.3,26.2-25.1L791-32l5-3.2c2.1-1.3,4.3-2.6,6.3-4.1l0.2-.2c2.3-1.7,4.5-3.3,7.3-4.1h0.3V-44c1-3,2-6,3.2-9.2h1.4l-1.2,3c-1.5,3.6-3.8,10.7-2.3,17.3,1,4.4,2.2,8.9,4.4,12.1l1.2,1.8c4.5,6.6,9.2,13.4,11.5,20.9a21.3,21.3,0,0,1,1.1,8.9c-0.2,1.7-1.2,4.9-3.3,4.9h-0.8c-4.6-1.3-7.2-5.5-9.5-9.7a77.9,77.9,0,0,1-5.8-14.9,68.6,68.6,0,0,1-2.4-14.7,18.1,18.1,0,0,1,.1-2.3,12.7,12.7,0,0,0-.1-3.6l-0.3-1.4-0.6,1.3c-1.6,3.4-2.3,7.2-2.8,10.8-0.2,1.3-.4,2.7-0.7,4-0.7,3.3-1.5,7.1-2.4,11-1.3,5.8-2.3,11.7-3.2,17.5l-0.3,2.3c-2.2,14.1,2,27.5,7.3,42.2l2.9,7.9,2.8,7.8v0.2c2.3,6.4,4.7,13,3.2,20-0.3,1.4-1.1,4.9-2.8,6.8A3.2,3.2,0,0,1,808.5,101.8Zm-8.8-48.7h-0.4v0.4a15.1,15.1,0,0,0,.5,4l0.3,1.6c0.3,1.9.6,3.9,0.9,5.8v0.3c0.6,4,1.2,8.1,2.2,12s1.4,5.2,2.2,7.7A79.2,79.2,0,0,1,809,99.5v0.8l0.7-.5c2.3-1.5,3.2-3.8,2.9-6.8a56.1,56.1,0,0,0-2.4-12.2l-2.2-6.3-2.2-6.1h-0.1a7.1,7.1,0,0,1-.9-2.5l-0.3-1.2-1.7-5c-0.6-1.9-1.2-3.7-2.1-5.6a1.1,1.1,0,0,0-1-.8h-0.1Zm0.6,34.5c0.9,4.1,2.1,8.1,4.9,11.1a3.3,3.3,0,0,0,2.1,1.1h0.4c1.2-.4.9-1.7,0.7-2.4V96.9a66,66,0,0,0-1.6-6.7c-0.5-1.8-1.1-3.6-1.6-5.4s-1.5-5-2.2-7.6c-1.6-6.2-3.7-15.5-4.1-24.5L798.7,51c-0.1-.8-0.3-1.6-0.5-2.4a1.1,1.1,0,0,0-1-1h-0.5V48q-0.1,1.2-.2,2.4a80.7,80.7,0,0,0,.7,17.7,44.6,44.6,0,0,1,.4,5.7V75h0c0.3,1.1.6,2.3,0.8,3.4l0.5,2.4c0.3,1.2.5,2.5,0.8,3.8l0.4,1.9c-0.3-.9-0.5-1.8-0.7-2.8L799,81.9l-0.4-1.5a17.5,17.5,0,0,1-.7-3.3,17.4,17.4,0,0,0-.6-3.8,0.9,0.9,0,0,0-.8-0.7h-0.6v0.4a45.3,45.3,0,0,0,.8,8.8,20.5,20.5,0,0,0,1.6,5,6.8,6.8,0,0,0,1,1.5l0.4,0.4,0.4-.4A1.2,1.2,0,0,0,800.4,87.6Zm-25-67a108.3,108.3,0,0,0-8.6,13.3,61.2,61.2,0,0,1-4,5.8,50.7,50.7,0,0,0-5.2,8.5c-0.7,1.6-.1,2.2.3,2.4a2.4,2.4,0,0,0,1.2.3h0.6a3.1,3.1,0,0,0,2.2-.7,6.9,6.9,0,0,0,1.2-1.7l0.4-.8,0.7-1.1,5.4-8.4h0l-2.5,4.3-1.9,3.2-1.8,3,1.2-.4,1-.3a2.3,2.3,0,0,0,1.2-.5l0.7-.7a21.9,21.9,0,0,0,2.9-3.3c2.2-3.2,4.1-6.6,5.9-9.9s2.3-4.2,3.5-6.2a41.3,41.3,0,0,0,2.1-3.8,22.1,22.1,0,0,0,.9-2.2l0.2-.7a4,4,0,0,1,.3-0.9l-0.7-.7a49.6,49.6,0,0,0-3.8,4.4l2.4-3.4,8-11.4,2.5-3.8,1.3-2-0.2-.3a1.5,1.5,0,0,0-1.2-.7,1.7,1.7,0,0,0-1.1.6l-0.5.5a43.4,43.4,0,0,0-7,7.7,65.7,65.7,0,0,1-4.3,5.8,7.4,7.4,0,0,0,1.5-3.1l0.2-1.1-1,.6a31.9,31.9,0,0,0-4.3,3.7l-2.6,2.4a59.7,59.7,0,0,0-4.5,4.1,50.7,50.7,0,0,0-5.3,6.3c-2.7,3.9-6,9.9-6,16.4v0.8l0.7-.3h0.2l0.7-.4a5.4,5.4,0,0,0,1-1.1l8.4-13.2,1.1-1.7c1.2-1.9,2.5-3.9,3.8-5.8A44.9,44.9,0,0,1,775.4,20.7Zm35.4-43.4c0.4,1.4.9,2.7,1.4,4l1,2.7,0.9,2.9c0.5,1.5.9,3.1,1.5,4.6s2,5.2,3,7.7,2,5.1,3,7.7a55.5,55.5,0,0,0,2.4,5.8v0.2a2,2,0,0,0,1.6,1.4h0a1.7,1.7,0,0,0,1.7-1.6c0-2.3-1.1-4.2-2.2-6.1l-1-1.9c-3-6-5.4-11-7.4-16.2-0.3-.8-0.6-1.7-0.9-2.5l0.4,0.8,0.8,1.8c0.9,2.4,1.9,4.9,3,7.4s2,4.1,3.1,6L823.5,3l1.8,3.4V6.7c0.5,1,1,2,1.8,2a1.2,1.2,0,0,0,1-.9c0.8-1.6-.2-4.2-0.8-5.8l-0.2-.5a36,36,0,0,0-2.9-6.5L822-8.8l-6.4-10.1-0.8-1.3v1.5a5.7,5.7,0,0,0,0,1.2l-0.6-1.6c-0.7-1.8-1.4-3.7-2.1-5.5l-1.2-3.3-0.4,1.6a5.7,5.7,0,0,0,.1,2.7L810-22l-0.2.6a6,6,0,0,0-.2,2.5c0.3,2.4.7,4.7,1.1,7A67.6,67.6,0,0,0,812.4-5a49.9,49.9,0,0,0,7.1,14.8,13,13,0,0,0,3.2,3.4l0.7-.7a18.4,18.4,0,0,1-1.6-4.2,25.1,25.1,0,0,0-1.2-3.3c-0.7-1.6-1.3-3.2-1.9-4.8a50.1,50.1,0,0,0-2.3-5.6,44.7,44.7,0,0,1-3.3-9.6,33.5,33.5,0,0,0-1.1-3.3,28.7,28.7,0,0,1-1.2-3.7ZM762.1-2.4l-2.3,3.2-0.3.4a5.1,5.1,0,0,0-.9,1.5,2.2,2.2,0,0,0,.6,2.1,2.1,2.1,0,0,0,1.2.4,1.5,1.5,0,0,0,.9-0.3,12.8,12.8,0,0,0,2.4-2.7l0.4-.6a1.4,1.4,0,0,0,0,.2,1.1,1.1,0,0,0,.5.8L765.5,3a2.2,2.2,0,0,0,1.5-.6l0.9-.9a34.4,34.4,0,0,0,4-4.3,127.6,127.6,0,0,1,11.7-13.1,37.4,37.4,0,0,0,2.7-3.2l0.2-.2,6.5-8.4,0.7-1,0.3-.5,0.7-1.2-1.3.4a24.7,24.7,0,0,0-11.8,8.3A72.6,72.6,0,0,0,773.3-10a12.5,12.5,0,0,1-1.6,2.2l-0.5.6-2.6,3.1-1.4,1.7-0.5.6-0.2.2,5.1-6.9,0.3-.4a39.5,39.5,0,0,0,6-10.3l0.2-.4-0.4-.2h-0.5a2.1,2.1,0,0,0-1.5.9l-1.4,1.6-1.7,1.9a2.4,2.4,0,0,0,.3-1.4v-0.6h-0.6a6.9,6.9,0,0,0-3.7,2.7l-0.5.6c-4.2,4.7-6.5,8.3-8,12.1L759.5-.5l1.4-1.1a16.6,16.6,0,0,0,2.6-2.7Zm13.3,30.9,0.3-.5,0.3-.4Zm-4.1-42.8,0.4-.4-0.8.9Z"/><path class="b" d="M823.5,69.6l-1.5-.3a7.9,7.9,0,0,1-3.9-3c-4.2-5.9-6.9-11.1-8.4-16.3l-1.4-4.6-1.8-6c-0.8-2.7-1.5-5.5-2.2-8.1s-1.1-4.5-1.5-6.4l-0.5-2.3a35.6,35.6,0,0,1-1.1-6.4,53.4,53.4,0,0,1,.4-9.7,36.4,36.4,0,0,1,1.1-5A11.5,11.5,0,0,1,805-2.6h0v0.2c0.7,2.3,1.4,4.7,2,6.9a111.6,111.6,0,0,0,5.3,15.8c2.2,5,4.7,10.1,7.3,15.2A70.9,70.9,0,0,1,826.4,56a46.2,46.2,0,0,1,.5,7.9,10.7,10.7,0,0,1-.8,3.7C825.5,68.9,824.7,69.6,823.5,69.6ZM811.1,37.8q1,3.4,2.4,7c0.5,1.2,1,2.5,1.5,3.6a40.1,40.1,0,0,1,2.5,6.9,63.2,63.2,0,0,0,3.9,11.6,2.1,2.1,0,0,0,1.3,1.4h0.6c0.7,0,1.6-.3,2.1-1.9s-0.1-7.8-.5-9c-1.1-2.7-2.4-5.4-3.6-8l-1.3-2.7c-1.3-2.8-2.4-5.7-3.4-8.5l-0.6-1.6,0.7,1.5,2.1,4.6,0.5,1.2a19.7,19.7,0,0,0,3.2,5.5l0.7,0.7,0.2-1a6.3,6.3,0,0,0-.1-2.3,34.9,34.9,0,0,0-2.6-6.8L819.8,38l-0.9-1.9L813.5,25a1.8,1.8,0,0,0-1.3-1.2h-0.7v0.7a27.7,27.7,0,0,0,1,4L812,27.1l-2-4.5a2,2,0,0,0-.4-0.6l-0.2-.2-0.2-.2H809a1.2,1.2,0,0,0-.9.4,1.5,1.5,0,0,0-.2,1.2v0.2q0.2,1.6.5,3.3a137.5,137.5,0,0,1-2.8-17.5c0-.2,0-0.5,0-0.8a4.7,4.7,0,0,0-1-3.2V5h-0.2a1.3,1.3,0,0,0-1.3,1.4V6.6a41.2,41.2,0,0,0,.7,16.4c1.6,7.1,3.4,14.4,5.7,22.3,1.8,6.2,3.8,13.3,8.2,18.7l1.1,1.2,0.2,0.2h0.3a0.8,0.8,0,0,0,.5-0.4,1.5,1.5,0,0,0,0-1.1c-0.6-2-1.2-4-1.7-6s-0.8-3.3-1.4-5-1.5-4.2-2.3-6.3a64.6,64.6,0,0,1-2.6-7.4Z"/><path class="b" d="M654.1,70.5l-0.4-.3a8.6,8.6,0,0,1-1.4-2.1l-0.8-1.6c-2.1-4.1-4.3-8.4-4.8-12.9-0.8-6.5.5-12,2.6-18.2a5.2,5.2,0,0,0,.4-1.6,4.7,4.7,0,0,0-.4-1.7c-2.4-6.2-1.7-13.7-1.1-20.3,0.1-1.2.2-2.4,0.3-3.6s0.2-1.5.3-2.3l0.2-1.1V4.5l-1-.4-0.3.2-1,.9-2.2,2.1a56.3,56.3,0,0,0-3.9,4.7l-0.4.5c-1,1.3-2,2.6-1.9,4.6a9.1,9.1,0,0,1-.3,2.5l-0.2.9c-1.5,7.6-7.7,16-15.1,20.5a49.6,49.6,0,0,1-4.8,2.7c-0.7-2.2,1-5.1,2.5-7.7a26.4,26.4,0,0,0,1.5-2.8V32.9c2.4-5.6,4.8-11.4,9.2-15.7l0.2-.2c1.5-1.5,3.1-3,5.3-3H637a1.8,1.8,0,0,0,1.3-.6l6.1-6.8,4.2-4.7a7.5,7.5,0,0,0,1.7-2.7c0.9-3.2,1.8-6.4,2.6-9.6l2-7.3c0.2-.6.3-1.2,0.4-1.9l0.3-1.2,0.2-1.1-1,.5-0.5.3-0.6.3a107.6,107.6,0,0,1-14.2,9.4,2.5,2.5,0,0,0-1,1.1L638-8.7c-1.2,2.9-2.2,5.3-4.4,7.5a22.8,22.8,0,0,1-8.2,4.8c-2.3.8-4.7,1.6-7.8,2.3l-1,.3-3.1.7h-1.8A76.7,76.7,0,0,1,626.2-9.1a12.7,12.7,0,0,1,8.4-3.5,11.7,11.7,0,0,1,2.9.4h0.4l0.9-.2a35.2,35.2,0,0,0,9-5.3l1.7-1.2c1.7-1.2,3.2-2.5,4.8-3.8l1.3-1.1a5.3,5.3,0,0,0,1.6-1.8l0.7-1.7h1.7l-0.2.6a2,2,0,0,0-.1,1.4l0.7,1.6c0.8,1.9,1.6,3.8,2.6,5.6l0.6,1.2a10.4,10.4,0,0,0,2.9,4.1l1.6,1.1a11.3,11.3,0,0,1,2.6,2,21.2,21.2,0,0,1,5.1,10.9c0.6,4.6-.3,9.5-1.1,13.5a1.7,1.7,0,0,1-.4.8,1.9,1.9,0,0,1-.7-0.5l-0.4-.5a34,34,0,0,1-2.8-3.7,74.8,74.8,0,0,1-4.4-7.6A13.3,13.3,0,0,1,664-4.6c0.2-1,.4-2.1.6-3.1l0.4-2a2.4,2.4,0,0,0-.1-1.5l-1-1.6-0.9-1.5-1.9-3.7-0.5-1.1-1.1-2.2-0.6-1.3h-1v0.3l-0.8,2.4c-0.6,1.8-1.2,3.6-1.8,5.4l-0.9,3.2c-0.5,2-1.1,4-1.7,6l-0.3.9c-0.7,2.3-1.6,4.9-1.1,7.4V3.3c0.9,4.6,2.2,11,6.1,14.2a10,10,0,0,0,4.1,1.7,10.8,10.8,0,0,1,3.4,1.3,16.1,16.1,0,0,1,5.7,6.7,19.6,19.6,0,0,1,1.4,7c0.1,2,0,4,0,5.9s-0.1,2.3-.1,3.5,0.1,1.8.1,2.7,0.1,1.3.1,2-0.1,1.3-.2,2.1a41.9,41.9,0,0,1-5.9-8l-1.2-1.9a26.6,26.6,0,0,1-4.1-8.5,39.7,39.7,0,0,1-1-7V24.4c0-1.5-.1-3.1-1.6-4.4a20.7,20.7,0,0,1-5.1-7.6c-0.5-1.2-1-2.4-1.4-3.6l-0.6-1.6L651,6.8h-0.4a1.5,1.5,0,0,0-1.1.6,1.5,1.5,0,0,0,0,1.2,1.6,1.6,0,0,1,.1.4q-0.1,2.6-.2,5.1c-0.1,3.2-.3,6.6-0.3,9.9s1.6,9.1,5.3,14a10.4,10.4,0,0,1,1.8,3.5c1.9,7.3.5,15.1-.8,22.6-0.3,1.9-.7,3.8-0.9,5.6A0.5,0.5,0,0,1,654.1,70.5ZM672.7,0.1l0.9,3.2,1.4-.4L674-.2Z"/><path class="b" d="M387.5,194.6s-0.9-.1-2.2-4.8v-0.2c-0.1-.3-1.9-6.9-4.2-6.9a2,2,0,0,0-1.7,1.5l-1.2,2.9c-0.5,1.3-1.1,2.7-1.7,4l-0.3.6a9.3,9.3,0,0,1-1.4,2.5l-0.5.2a0.3,0.3,0,0,1-.3-0.4c-0.2-2.7-.6-5.5-0.9-8.2-0.7-5.6-1.5-11.5-1-17.3s2-9.1,4.9-12.3a4.7,4.7,0,0,0,1.3-4,112.1,112.1,0,0,1-.6-16c0.1-4.1.1-8.4-.2-12.5a110.8,110.8,0,0,1,.1-13.6c0.1-1.4.1-2.7,0.2-4.1s0.1-2.6.1-3.9,0.2-5,.3-7.4,0.3-4,.5-5.7,0.2-1.2.3-1.7a14.4,14.4,0,0,0,.4-3.3,0.8,0.8,0,0,0-.5-0.8h-0.5c-2.2.5-3.1,1.6-4.4,3.2-8.3,10.9-13,22-13.1,31.4V118l0.2,0.2c3.5,3.3,3.9,7.9,4,12.6v1.9c0.1,3,.2,6.2.1,9.3s-0.2,4-.3,5.7v0.4c-0.2,2.2-.5,3.4-0.9,3.6h-0.1a1.6,1.6,0,0,1-.9-0.6l-3-4-1.5-2H358a7.1,7.1,0,0,0-3.8,2.7,7.6,7.6,0,0,1-3.3,2.3,11.9,11.9,0,0,1-.1-3,18.4,18.4,0,0,0,0-2V145a7.7,7.7,0,0,0-.9-3.9l-0.3-.4-6.6,5.6a3.8,3.8,0,0,1-1.2.8h-0.4a0.8,0.8,0,0,1-.6-0.2c-0.4-.4-0.2-1.1.1-2v-0.4c0.3-.9.5-1.9,0.8-2.9l0.4-1.5c0.9-3.4,1.7-6.2,2.4-8.8a21.5,21.5,0,0,1,4.8-8.4,29.8,29.8,0,0,1,3.8-3.3h0.1a9.3,9.3,0,0,1,3-1.5h0.6a3,3,0,0,0,1.5-.5c0.8-.7,1.1-2.2,1.3-3.6s0.2-.9.3-1.2,1-3.3,1.6-4.9c1.2-3.4,2.5-6.7,4-9.8a58.5,58.5,0,0,1,7.8-12.2l0.5-.6a19.2,19.2,0,0,1,4-4.1c2-1.3,2.6-3.7,2.9-5.7,1.6-9.7,2.9-19.6,4-30.4,0.1-.8.2-1.6,0.4-2.4l1.6-8.2c1.3-6.5,2.5-13.3,4-19.9s3-11.3,5-17.5a126,126,0,0,0,3.4-14.4l-0.9-.4C391.1-7.7,383.4,2.5,376,12.2L365.9,25.7l-0.2.3,0.2,0.3a11.5,11.5,0,0,1,2.6,7,4.9,4.9,0,0,0,1.4,2.8c4.2,4.4,6.1,10,5.6,16.9a98.4,98.4,0,0,1-1.4,12.2,50.6,50.6,0,0,1-2.6,8.1l-0.4,1.1c-0.4,1-.8,2-2,2.3V76.4a4.2,4.2,0,0,1-.5-1.3,87,87,0,0,0-2.2-12.5c-0.4-1.7-.7-3.3-1.1-5V56.8c-0.2-1.2-.5-2.4-0.6-3.7a24.5,24.5,0,0,1,1.2-12.4c1.4-3.6,2.2-8.8-.1-11.8l-0.4-.3h-0.3a1.1,1.1,0,0,0-.7.3c-1.8,1.5-2.9,3.8-4,6l-0.9,1.8c-1.5,2.8-3,5.7-4.7,8.4a28.9,28.9,0,0,0-2,4.3l-0.7,1.5a11.5,11.5,0,0,0-1.2,2.9,4.9,4.9,0,0,0,0,1.7,73.2,73.2,0,0,1,.9,13.9,47,47,0,0,1-2.5,12.8,125.3,125.3,0,0,1-5.1,13.4l-0.6,1.3c-1.8,3.9-3.6,8-7,10.6h-0.2c-0.2-.5-0.1-2,0.3-4.6v-1c0.1-1.3.1-2.5,0.1-3.8s0-1.8.1-2.7V93.1c0.2-4.8.3-9.7,0.7-14.5s0.8-9.5,2.8-13.8,5.1-10.1,8.4-14a66.2,66.2,0,0,0,8.3-12.9l1-1.8a11.7,11.7,0,0,0,2.1-5.2V30.4h-1.6a4.9,4.9,0,0,0-4.4,2.6,40.2,40.2,0,0,1-4.2,5.9c-4.8,5.3-11.1,9.6-19.3,13-2.3,1-4.6,1.8-6.9,2.6L322,55l-1.5.3h-0.3a3.9,3.9,0,0,1,1.2-2.9c2.2-2.8,4.4-5.7,6.9-8.4s2.9-3.1,4.4-4.5l3.9-3.9a16.3,16.3,0,0,1,9.1-4.9l6.1-.9,4.2-.6a27.4,27.4,0,0,0,4.9-1.1,6.8,6.8,0,0,0,3-2.1l0.3-.4c3.2-4.1,6.5-8.3,9.7-12.6H374c9.6-12.9,9.4-13.7,9.3-14V-1.3l-0.2-.2-0.3-.2a1.3,1.3,0,0,0-.8-0.3h-0.2l-0.6.2-7.9,2.5c-1.5.5-2.6,2-3.5,3.2l-1.1,1.5c-4.5,5-10.3,7.6-17.6,8h-0.3c-3.1.2-6.4,0.3-9.6,0.7l-5.2.8-4.7.8h-2.2a12.4,12.4,0,0,1,3.7-3.1l0.7-.5,0.9-.6,4.9-3.2,2.4-1.6A88.3,88.3,0,0,1,354.1-.5c2.6-1.1,5.9-2.5,9.2-2.5a9.3,9.3,0,0,1,5.2,1.5A6.3,6.3,0,0,0,372-.4a8.2,8.2,0,0,0,3-.6l2.3-.8,2.8-1h0.2c7.7-3.2,7.9-3.3,12.6-10.4,1.6-2.5,3.2-5.1,4.7-7.5l1.2-2,2.3-3.4a46.2,46.2,0,0,0,3.4-5.4,21.7,21.7,0,0,0,2.4-11.2v-0.7l-6.1,2.4-0.7,1.3L399-37.8a29.5,29.5,0,0,1-11.7,12l-1.4.8-8.3,4.5-5,2.4-1.2.6a11,11,0,0,1-3.4,1.3h-0.5c-0.3-.3.1-1,0.6-1.7l0.3-.5,0.8-1.4c0.6-1,1.3-2.1,2-3.1l2.8-3.7,1.8-2.2c3.7-4.2,7.7-8.6,12.2-11.3a12.6,12.6,0,0,1,6.2-1.9h2.8a10.7,10.7,0,0,0,3.9-.6,45.5,45.5,0,0,0,5.7-2.7l1.2-.7,0.8-.5,1.6-4.1,1-2.4h2c-2,5.2-3.5,10.3-5.2,16.5l-1.6,5.6-0.8,2.8,1.3,3.2,3,7.4c0.7,1.7,1.9,3.9,4.9,4.3l1.5,0.4h0.3a5.6,5.6,0,0,1,4,4L421.4-6a63,63,0,0,1,1.7,8.2l0.3,2.3c0.2,2,.5,4.1.7,6.2v0.2c0.5,3.5.2,4.6-.1,5h-0.3a3.4,3.4,0,0,1-1.9-1.5l-0.6-.7L420,12.6l-1.8-1.9a50.1,50.1,0,0,1-8.7-12.4,11.7,11.7,0,0,1-.4-10.1,6.1,6.1,0,0,0,.4-2.5,4.2,4.2,0,0,0-.5-1.6l-0.2-.4-2.3-5-1.3-2.8-0.5.6a11.5,11.5,0,0,0-2.2,5.6l-0.2.9c-1,4.9-2,10.3-2.5,15.6-0.7,7.3.8,15.1,4.8,23.9l0.8,1.9c1.1,2.7,2.3,5.4,4.5,7.3a3.1,3.1,0,0,0,1.9.3h0.7a14.6,14.6,0,0,1,4.7,1.4c6.1,3.6,10.3,8,12.9,13.5a12.3,12.3,0,0,1,.7,2.3,1,1,0,0,1-.2.8,0.9,0.9,0,0,1-.7.4h-0.2l-2.4-1-1.6-.7-1.6-.6-0.8-.3h-0.4l-0.2.4a14.9,14.9,0,0,0-1.2,4.5v0.7c-0.2,1.6-.3,2.8-1.1,2.8l-1.1-.4a9,9,0,0,1-1.6-1.1l-0.3-.3-0.7-.7a2,2,0,0,0-1.1-.4c-1.2,0-1.5,1.5-1.8,2.6l-0.2.7a18.2,18.2,0,0,0-.5,3L412.8,61v0.6c-0.2,1.2-.3,2.2-1.3,2.7h-0.1a7.8,7.8,0,0,1-1.5-3l-0.3-.8V60l-1.5-4.2a50.6,50.6,0,0,1-2.5-9.6,17.9,17.9,0,0,1,1.8-11.7l0.6-1.2,0.3-.5c0.2-.4,0-0.7-0.9-2.3l-0.2-.4c-3.5-6.8-6.2-12.7-7.6-19.1a59.1,59.1,0,0,1-1-7.6c-0.1-1.1-.2-2.3-0.3-3.4V-0.4h-0.6A1.5,1.5,0,0,0,395.6,1V1.3a239,239,0,0,0-6.9,28.9c-0.8,4.7-1.5,9.4-2.2,14s-1,6.9-1.6,10.4a16.5,16.5,0,0,0,.3,7.6c1.5,5,3,10.1,4.5,15h0a4.2,4.2,0,0,0,.8,1.5c1.5,1.8,4.9,3.1,8.1,3.1a8.7,8.7,0,0,0,2.9-.4l2-.7c3.1-1.1,6.4-2.3,9.6-3.2a18,18,0,0,1,4.6-.6,14.6,14.6,0,0,1,7.4,2l1.7,0.9a23.6,23.6,0,0,1,3.9,2.4l0.3,0.3-0.2.2-1,1a13.9,13.9,0,0,1-2,1.7,24.3,24.3,0,0,1-3.5,2,18.6,18.6,0,0,1-7.7,1.7H415c-2.2-.2-4.4-0.5-6.7-1a12.7,12.7,0,0,1-4.3-2.1l-1.3-.8a22.2,22.2,0,0,0-6.7-2.8l-2.2-.7-1.4-.5-0.8-.2v1.8a9.1,9.1,0,0,0,.3,1.6c0.4,1.3.9,2.6,1.3,3.8,2.9,7.5,3.1,7.7,11.1,9.1l13.1,2.3,6.4,1.1h0.1a18.8,18.8,0,0,0,4.2-3.1c2-1.8,4-3.6,6.9-4.1h0.3V91.9c0.2-1.3.3-2.5,1.7-3.2a7.5,7.5,0,0,1,3.5-1.1l1.3,0.2c2.7,0.8,2.9,2.9,2.7,4.5s-2.6,3.7-4.8,3.7a3.2,3.2,0,0,1-1.9-.6l-0.5-.4a2.8,2.8,0,0,0-1.8-.9h-0.2a6.7,6.7,0,0,0-4,1.4l-0.8.6a8.9,8.9,0,0,0-3.4,3.7c-0.3.8,0.8,1.7,3.1,3l0.3,0.2,1.7,1.1a46.4,46.4,0,0,0,4.1,2.6l0.3,0.2a6.8,6.8,0,0,0,2.9,1.1,1.9,1.9,0,0,0,1.1-.3,6.6,6.6,0,0,1,3.6-1.2h0a4.7,4.7,0,0,1,2.5.8,6.7,6.7,0,0,1,1.5,1.4,4.4,4.4,0,0,1,.8,4.4c-0.7,2-1.7,3-3.1,3.2h-0.4a7.3,7.3,0,0,1-5-2.4,8.6,8.6,0,0,1-1.4-2.9l-0.7-2V109h-0.2c-1.4-.7-2.8-1.5-4.2-2.3-3.3-1.9-6.7-3.9-10.8-4.6l-10.3-1.8-10.6-1.8h-0.2l-1,.2-0.6.2h-0.5v0.5a13.7,13.7,0,0,0,2.5,4.8l0.4,0.5c2,2.8,4.3,5.6,6.4,8.1s6.1,7,9.2,10.3l4.1,4.2,1.2,1a8.2,8.2,0,0,1,2.3,2.4l0.2,0.4,0.5-.2,1-.7a2,2,0,0,1,1-.6h0.5a3.3,3.3,0,0,1,1.4.3,7.5,7.5,0,0,1,2.8,2.9,4,4,0,0,1,.5,3.6,3.8,3.8,0,0,1-2.6,2.4l-1.9.3a4.6,4.6,0,0,1-3-1,4.8,4.8,0,0,1-1.4-2.1,4,4,0,0,1-.1-2v-0.6a3.4,3.4,0,0,0-1.3-2.9l-8.1-9-5-5.5-3.7-3.9-0.3-.3a2.6,2.6,0,0,0-1.6-1.3c-1,0-1.1,1.1-1.2,1.7v0.3c-0.9,5.4.1,11.2,0.9,15.1a58.7,58.7,0,0,0,2.3,8.2l0.2,0.5a6,6,0,0,0,.7,1.5,1.8,1.8,0,0,0,1.2.8h0.4a6.2,6.2,0,0,1,2.9,1.7,3.4,3.4,0,0,1,.6,3c-0.4,1.5-2.1,3.2-3.7,3.2a5.2,5.2,0,0,1-4.1-2.5c-1.2-1.8-.7-3.2.7-4.8a1.3,1.3,0,0,0,.3-0.6,1.2,1.2,0,0,0,0-.4,87.4,87.4,0,0,0-2.5-10.3c-1.8-5.9-1.4-11.9-.9-18.3l0.2-2.2-4.7-6.6a35.6,35.6,0,0,1-4.6-8.5c-2-5.6-4.1-11.3-6.1-16.8l-1.9-5-0.8-1.9-0.5-1.1h-0.3c-2,.1-2.1,1.7-2.2,2.5-0.3,3.8-.9,7.6-1.4,11.3a134.9,134.9,0,0,0-1.7,17.8,80.6,80.6,0,0,1-.7,10.8c-0.6,4.4,1,7.8,5,10.5a30,30,0,0,1,8,8.3c2.1,3,3.2,6.6,4.2,10.2l0.6,1.9a34.1,34.1,0,0,1,1,12.8,14.4,14.4,0,0,1-1.9-2l-0.9-1-3.3-3.7a73.8,73.8,0,0,1-6-7.8l-2.8-4.1-0.8-1.2a12,12,0,0,0-1.9-2.6l-0.6-.6-0.2.9a37.6,37.6,0,0,0-.5,8.9c0,1.1,0,2.1,0,3.1a30,30,0,0,0,1.4,9.9,4.1,4.1,0,0,0,2.5,2.8c3.3,1.4,6,3.8,8.4,7.6,3.9,6.2,6.1,11.6,6.8,17.1l0.2,1.6c0.1,0.7.2,1.5,0.3,2.2s0.2,0.9.3,1.3a7.3,7.3,0,0,1,.2,3.2,1.1,1.1,0,0,1-.4.6h-0.1l-2.7-3.3-1-1.3-2.3-2.9-0.4.4a8.2,8.2,0,0,0-2.1,4.7,13.2,13.2,0,0,1-.5,2,12.9,12.9,0,0,0-.5,2.1,7.6,7.6,0,0,1-.9,2.9Zm-6.1-14.9h0.2a7,7,0,0,1,2.2,2.6,20,20,0,0,1,1.5,4.3,25.2,25.2,0,0,0,1.2,3.7,2.5,2.5,0,0,0,.9,1.2l0.4,0.3,0.3-.5a19.4,19.4,0,0,0,1.7-5.6l0.3-1.2a13.7,13.7,0,0,0,.2-1.4c0.1-1.1.3-2.5,0.9-3l0.5-.2h0.1l0.5,0.4a22.5,22.5,0,0,1,2.9,3.9,3.2,3.2,0,0,0,1.1,1.2h0.5a1.8,1.8,0,0,0,.7-1.6c0-3.1-1-6.8-3-11.6a47.5,47.5,0,0,0-6.2-10.2,15.8,15.8,0,0,0-9.3-5.9h-0.4c-3,2.1-4.8,5.4-5.4,10a52,52,0,0,0-.4,9.4c0.1,2.6.4,5.2,0.6,7.7v1.1a19.6,19.6,0,0,0,1.1,5.8,0.8,0.8,0,0,0,.7.6c0.8,0,1.2-1.3,1.2-1.6a12.2,12.2,0,0,1,.7-1.8l0.6-1.4,0.8-1.8,0.4-.9a8.1,8.1,0,0,1,2.4-3.5h0.1Zm-1.7-57.1c-1.2,1.6-.3,3.5.4,4.9l0.3,0.6a68.7,68.7,0,0,0,3.9,7.3,92,92,0,0,0,10.7,13.5l0.7,0.7h0.5l0.2-.2a4.4,4.4,0,0,0,.4-1.9,26.8,26.8,0,0,0-1.9-9l-0.7-1.9a40.1,40.1,0,0,0-1.7-4.4,28.2,28.2,0,0,0-4.2-5.9l-0.4-.5a13.2,13.2,0,0,0-1.6-1.8,6,6,0,0,0-2.4-1.1,0.8,0.8,0,0,0-.8.5,3.2,3.2,0,0,0,.4,2.5c0.9,1.9,1.9,3.7,3,5.5s0.7,1.8.7,1.8l-0.8-.9h-0.1a17,17,0,0,1-2.3-3.1,20.7,20.7,0,0,1-1-2.3,13.3,13.3,0,0,0-2.4-4.3l-0.4-.4Zm-21.1,20.7a6.2,6.2,0,0,1,1.8,2.5l0.2,0.5a14.2,14.2,0,0,0,.9,1.9,1.5,1.5,0,0,0,1,.9h0.1c1.1,0,1.4-1.9,1.4-5.3,0-.3,0-0.6,0-0.7,0.1-2,.2-4.1.2-6.1a85.3,85.3,0,0,0-.9-12.2,8.3,8.3,0,0,0-1.1-2.9,5.7,5.7,0,0,0-4.9-3,5.6,5.6,0,0,0-3.4,1.3,24.9,24.9,0,0,0-4.9,5c-3.7,5.2-5.3,11.4-6.3,16.7a1.6,1.6,0,0,0,.2,1.3,1.8,1.8,0,0,0,1.3.7h0c0.5,0,1-.5,2.6-2.2l0.5-.5,0.5-.5a5.8,5.8,0,0,1,1.9-1.5h0.1c1.2,1.8,1.6,4.7,1.8,6.6v0.5a3,3,0,0,0,.4,1.6,0.9,0.9,0,0,0,.8.5,1,1,0,0,0,.7-0.3l1.6-1.5a28.3,28.3,0,0,1,3.5-3.1h0.1ZM342.7,61.9a7,7,0,0,0-1.9,3.8l-0.2.9a35.7,35.7,0,0,0-1,5.2v0.2a65.7,65.7,0,0,0-.6,7.8q0,0.9-.1,1.7c-0.1,2.7-.3,5.5-0.5,8.1v1.3c-0.2,3.2-.1,6.4-0.1,9.5v1.2a0.8,0.8,0,0,0,.8.9,0.9,0.9,0,0,0,.6-0.3,8.2,8.2,0,0,0,1.9-2.7l0.5-1.3c1.9-4.7,3.9-9.5,5.7-14.3a41.9,41.9,0,0,0,2.4-14.4c0-2.3-.1-4.7-0.3-7.4,0-.4,0-0.9,0-1.4s0-3.9-1.6-5.2l-0.4-.2h0a0.7,0.7,0,0,0-.6.3c-1.9,2.6-2.3,5.9-2.6,9v1.2a65.8,65.8,0,0,1-2.7,14.2v0.4a5.8,5.8,0,0,1-.4,1,1.3,1.3,0,0,1-.1-0.4,26.1,26.1,0,0,1,.7-5.3c0.2-.8.3-1.6,0.4-2.3l0.3-2.1c0.2-1.2.4-2.5,0.6-3.7l0.2-.8c0.6-2.5,1-4.6,0-5.2l-0.3-.2Zm63.4,21.4a2.4,2.4,0,0,0-1.4.4,1.5,1.5,0,0,0-.6.7,1,1,0,0,0,0,.8c0.4,0.9,2.2,1.5,2.7,1.7l3.3,0.8a26.6,26.6,0,0,0,5.1.5h1.4a21.1,21.1,0,0,0,6.4-1.4c0.1,0,5.6-2.7,5.8-3.5V83l-0.2-.2a14.9,14.9,0,0,0-5-3.4,16,16,0,0,0-5.7-1.4H417a18.5,18.5,0,0,0-4.9.7l-2.9,1.1-0.8.5-1.5.9h0.2l-0.4.9a10.2,10.2,0,0,0,2.9.6H410l2.4,0.5,0.9,0.2h0.2a14.9,14.9,0,0,1-3.3.2h-1.1l-1.4-.2Zm-39-42.1a15.2,15.2,0,0,0-1.9,8.8,77.7,77.7,0,0,0,1.6,9.8l0.9,3.9,0.8,3.5c0.1,0.7.2,1.4,0.3,2.2a14.2,14.2,0,0,0,1.1,4.5l0.9-.3,0.4-.8,0.3-.6a45,45,0,0,0,2.8-12.3,52.5,52.5,0,0,0-.6-14.2,14.9,14.9,0,0,0-1-3.4,5.3,5.3,0,0,0-1-1.4l-0.5-.6-0.4-.5-0.4.5a3.4,3.4,0,0,0-.5,3v0.5l0.3,1.5c1.3,6.6,1.2,8.3.8,8.5s-0.9-.6-1.3-4.4V48.8a30.2,30.2,0,0,0-1.7-7.7l-0.4-1Zm45.6-7.3a6.5,6.5,0,0,0-6.4,6c-0.5,4-.8,8.2.9,12.3l1.2,2.9,0.5,1.3,0.3,1a7.2,7.2,0,0,0,1.4,2.8l0.4,0.2h0a0.8,0.8,0,0,0,.8-0.7c0.2-.8.4-1.5,0.5-2.3a30.3,30.3,0,0,0,.7-3.1V54.2c0.1-.7.4-2.7,1-3h0.2a2.1,2.1,0,0,1,.9.4l2.2,1.3,0.4,0.3a4.1,4.1,0,0,0,1.8,1h0.2c0.9-.2,1.1-1.6,1.3-3V50.7c0.4-3.8.8-4.8,0.9-5l3.1,1.2h0.3a6.2,6.2,0,0,0,2.1.7h0a0.9,0.9,0,0,0,.7-0.3,0.8,0.8,0,0,0,.1-0.7,6,6,0,0,0-.6-1.3c-3.1-4.7-7.4-7.8-11.6-10.7l-0.7-.3h-0.3A6.3,6.3,0,0,0,412.7,33.9Zm-66.3-2.1c-3.5.2-6.7,1.9-9.8,4.9s-4.8,5.2-7.1,7.8l-3.7,4.2-0.9.9a10.8,10.8,0,0,0-2.4,3,0.8,0.8,0,0,0-.1.6,0.7,0.7,0,0,0,.7.5h0.3a18.4,18.4,0,0,0,3.2-1.2l1.6-.7,4.9-2.1c6.1-2.9,10.5-5.8,14-9.3a12.8,12.8,0,0,0,3.7-5.9l0.3-.9-0.9.3-1.1.3-1.9.7-1.7.9-0.9.4h-0.2l-0.5.2h0a4.6,4.6,0,0,1,1.7-1.1H346a7.9,7.9,0,0,0,2.8-2.2l0.3-.4-0.4-.3-0.2-.2L348,32h-1.5ZM363-2a17.9,17.9,0,0,0-7.4,1.5,91.7,91.7,0,0,0-19.4,12.7,1.1,1.1,0,0,0-.2,1c0,0.2,0,.4,0,0.6h1l-0.3.4c0.6-.2,6.9-0.7,9.6-1l2.2-.2h1.3c3.4-.4,7-0.7,10.2-2.2a21.2,21.2,0,0,0,4.8-2.8A15.6,15.6,0,0,0,367,5.8l0.6-1,1-1.6h-0.3v-1a28.2,28.2,0,0,0-7.3,1.5l-1.7.6a12.8,12.8,0,0,1-4.2,1.2,4.4,4.4,0,0,1,1.8-.9l0.6-.2,1.4-.5,4-1.4,1.1-.3A7.4,7.4,0,0,0,367.9.5l0.4-.4-0.4-.3A6.7,6.7,0,0,0,363.3-2H363Zm47.2-7.9-0.4.5A2.1,2.1,0,0,0,409-8a5.2,5.2,0,0,0,.3,2.1l0.4,1.5A19.4,19.4,0,0,0,411-.6a35.8,35.8,0,0,0,4.8,7.1c1,1.2,2.1,2.2,3.1,3.3l2.4,2.4a2.1,2.1,0,0,0,.9.7h0.6a0.8,0.8,0,0,0,.4-0.6,21,21,0,0,0-.5-6.2l-0.3-1.8c-0.4-2.4-.8-5.3-1.5-8.2a17.2,17.2,0,0,0-2.5-5.5,4.2,4.2,0,0,0-3.6-2.2l-1.6.3H413v0.2c-0.1.3-.3,0.6,1.7,5.9V-5a29.3,29.3,0,0,1,.9,3,2,2,0,0,1-.1,1.1h-0.1a6.4,6.4,0,0,1-.9-2l-0.2-.6L413.6-5a16.1,16.1,0,0,0-2.5-5l-0.5-.6Zm-16.8-31h-0.5c-7,1.2-12.4,7.3-16.5,12.6-1,1.3-2,2.8-2.9,4.1L372.8-23a9.2,9.2,0,0,0-1.7,2.9v0.2a0.9,0.9,0,0,0,.6.9h0.6a15.5,15.5,0,0,0,3.9-1.7l1.4-.7,5.5-2.9a50.5,50.5,0,0,0,9.9-7.3,18.3,18.3,0,0,0,2.8-3.5v-0.2c1.2-1.9,1.8-3.1,1.2-3.7a1.1,1.1,0,0,0-.7-0.3,5.5,5.5,0,0,0-3.2,1.6l-0.7.6-3.4,2.3-1.1.7,0.7-.6h0.2a29.4,29.4,0,0,1,3.1-2.3H392c1.4-.8,2.6-1.7,2.6-2.6a1,1,0,0,0-.6-0.8Z"/><path class="b" d="M449.6,87.2h-0.6a1.3,1.3,0,0,1-.1-0.5,11.6,11.6,0,0,1,4.3-3.8H454a0.5,0.5,0,0,1-.1.4,9.8,9.8,0,0,1-2.9,3.1l-1.2,1h-0.2Z"/><path class="b" d="M443.4,149.1h-0.2l-0.4-.2a11.2,11.2,0,0,1-3.4-2.2c-0.6-.7-0.5-1.1-0.3-1.3a0.5,0.5,0,0,1,.4-0.2,3.9,3.9,0,0,1,1.7.9l0.6,0.4,0.6,0.4a4.7,4.7,0,0,1,1.4,1,1.1,1.1,0,0,1-.1,1,0.5,0.5,0,0,1-.3.3h0Z"/><path class="b" d="M436.6,154.6a1.7,1.7,0,0,1-.6-0.9v-0.3a15.2,15.2,0,0,1-1.3-3.4h0a0.7,0.7,0,0,1,0-.8h0.2l0.6-.2,0.3,0.7c0.6,1.2,1.8,3.6,1.5,4.7a0.6,0.6,0,0,1-.4.4h-0.1Z"/><path class="b" d="M459.8,123.9l-0.4-.2a4.9,4.9,0,0,1-1.2-1.6l-0.3-.5c-0.4-.8-1.3-2.3-1-3H457c0.7,0,2.7,3.6,2.9,4.7a0.8,0.8,0,0,1,0,.6h-0.1Z"/><path class="b" d="M463.8,114.1a4.3,4.3,0,0,1-2.9-.8v-0.2a0.2,0.2,0,0,1,0-.2,2.5,2.5,0,0,1,1.6-.7h0.7a4.1,4.1,0,0,1,2.9.8,0.4,0.4,0,0,1,.1.4,1.2,1.2,0,0,1-.8.6l-1.5.2h0Z"/><path class="b" d="M419.4,158.7l-1.2-1a10.1,10.1,0,0,1-2.9-3.1,0.8,0.8,0,0,1,0-.9h0.5c1.4,0.4,2.5,1.9,3.5,3.3l0.7,1A1.3,1.3,0,0,1,419.4,158.7Z"/><path class="b" d="M410.9,161.8h-0.1c-0.6-.5-0.8-1.8-0.5-3.9a1.2,1.2,0,0,1,.2-0.6l0.2,0.2a5.2,5.2,0,0,1,.5,2.7A3.5,3.5,0,0,1,410.9,161.8Z"/><path class="b" d="M453.2,91.7h-1.1a3.9,3.9,0,0,1-1.6-.6h0.4l1.7-.2c1,0,1.7.2,1.8,0.6a0.2,0.2,0,0,1,0,.1,2,2,0,0,1-1.3.3h0Z"/><path class="b" d="M335.2,42.7a6.8,6.8,0,0,1,2-1.5l1-.6,0.6-.5a13.5,13.5,0,0,1,2.7-1.8h0.1l-0.3.3-1.3,1A34.4,34.4,0,0,1,335.2,42.7Z"/><path class="b" d="M666.2,116.9a2.1,2.1,0,0,1-1.4-.5c-1.5-1.2-1.8-4.1-1.2-6.1,1.5-5.3,5.2-9.5,8.8-13.4,2-2.2,4.1-4.6,6.6-7.6l0.5-.6a38.5,38.5,0,0,0,5-7.2l-0.9-.5a5.6,5.6,0,0,1-1.6,1.5l-1.1.9a19.7,19.7,0,0,0-1.7,1.9l-1.2,1.4a18.7,18.7,0,0,1-6.5,4.8,6.2,6.2,0,0,1-2.3.5,3.7,3.7,0,0,1-3.1-1.4,3.9,3.9,0,0,1-.3-3.6c0.8-2.4,2.7-4.5,5.7-6.3l4.9-2.8c4.5-2.5,9.1-5.1,12.9-8.6l0.4-.3L688.9,68l-0.4.2-1.2.8-2.7,1.7-7.6,3.9-0.9.2a3.2,3.2,0,0,1-2.9-2.3c-0.5-2.1,2.1-4.7,3.7-6.3l0.2-.2c3.8-3.8,9-6.1,13.6-7.8l2.9-1c3.7-1.2,7.4-2.4,9.8-5.8l0.6-1.1a12.5,12.5,0,0,1,1.8-2.9v-1h-0.5a0.9,0.9,0,0,0-.8.2c-1.9,2.4-8.9,7.8-13.4,7.8a3.3,3.3,0,0,1-3.1-1.7c-1.5-2.6,2.4-5.9,4.1-7.2a39.9,39.9,0,0,1,8.4-4.3c3.9-1.6,7.9-3.3,10.7-6.3a10.1,10.1,0,0,0,1.5-2.2,29.2,29.2,0,0,0,2.5-8.3l0.6-2.8a2.1,2.1,0,0,0-.1-1.4l-0.3-.7-0.5.6-0.2.2a2.3,2.3,0,0,0-.5.7,34.8,34.8,0,0,1-11,12.8l-0.7.5c-1.1.8-2.7,2.1-4,2.1h-0.6c-1.1-.5-1.9-2.3-1.8-3.7s0.9-4,2.7-6.4c2.9-4,6.7-7.2,10.4-10.3s7.4-6.2,10.2-10.1l0.7-.7a3,3,0,0,0,1.3-2.4,4,4,0,0,0-.1-0.7V1.4L720.5-.1l-0.6,1.4c-2,4.5-5.5,7.4-8.8,10.2h-0.2a6.4,6.4,0,0,1-4.2,1.5l-1.9-.3a1.9,1.9,0,0,1-1.3-1.1,6,6,0,0,1,.4-4.5c1.4-2.8,3.6-5,5.8-7.3l0.6-.6c3.7-3.7,7.1-7.8,10.4-11.7l0.9-1.1a23.1,23.1,0,0,0,3.3-5.1,11.2,11.2,0,0,0,.8-3c0.1-.5.2-1,0.3-1.4v-0.4a5.8,5.8,0,0,0,.2-1.6v-1.4l-0.8,1.1-0.6.8-1.3,1.7-3.1,4.6a83.2,83.2,0,0,1-4.9,7c-1.9,2.3-5.2,5.1-8.1,5.1h-0.6a1.6,1.6,0,0,1-1.5-1.9c0.4-5.6,2.8-9.5,7.9-13l7.3-5.2,5.7-4.1a3.8,3.8,0,0,0,1.5-3.2c0-.3.1-0.5,0.1-0.8l0.6-3.5,0.9-4.9a2.5,2.5,0,0,0,0-.8v-1.9l-1.2,1.6-0.5.7-2.3,3.5L722-34.8c-3.4,5.4-6.9,8.5-11.3,10l-1.1.2a1.3,1.3,0,0,1-1.4-1.2c-0.3-1.5.5-3.6,1.1-5.2l0.2-.5c2.3-5.7,6.2-9.7,11.2-14.3l5.8-5.1a5.6,5.6,0,0,0,1.6-2.3h4.2l1.4,2.2c1.5,2.4,3.1,4.9,4.9,7.1a82.4,82.4,0,0,1,5.4,8.3l1.2,2c1.4,2.4,2.3,6.2,1.3,8.8a5,5,0,0,1-2.6,2.7,5.5,5.5,0,0,1-2.3.5c-3.9,0-7-4.6-8.1-7.8s-1.2-3.9-1.7-5.8l-0.8-3a1.7,1.7,0,0,0-.4-0.6l-0.3-.4-0.6-.8-0.3,1-0.3,1.1c-0.2.7-.4,1.3-0.5,1.9l-0.2,1.4a38.4,38.4,0,0,0-.7,5.2,4.9,4.9,0,0,0,.9,2.5l0.3,0.5,3.5,6.3,1.2,2.2c2.3,4.1,4.8,8.5,7.1,13A8.6,8.6,0,0,1,742-1.4a2.9,2.9,0,0,1-.7,2.3,3.4,3.4,0,0,1-2.5.9l-1.7-.2c-2-.5-2.7-1.9-3.6-3.6L733-2.9a32.9,32.9,0,0,1-3-8.5l-0.4-1.6c-0.5-2-1-4-1.4-6.1L727.5-22l-1,.2a8.5,8.5,0,0,1-.4,2.3,12.3,12.3,0,0,0-.4,1.8,14.3,14.3,0,0,1-.3,1.8,17.2,17.2,0,0,0-.3,1.7c-0.4,4,0,7.3,1.4,9.6l1.8,3.2c1.4,2.5,2.8,5,4.2,7.5a25.5,25.5,0,0,1,3.6,11.6c0.1,2.2-.2,5.9-1.4,7.3a1.4,1.4,0,0,1-1,.5,2.9,2.9,0,0,1-1.4-.5c-3.8-2.3-6.2-8.6-7-13.3a32,32,0,0,0-1.5-5l-0.8-2.2V4.3h-1.2l-0.4,1.4-0.6,2.2-0.3,1.7-0.3,1.4a5.9,5.9,0,0,0,.6,4.4,25.5,25.5,0,0,1,1.5,3.6,29.2,29.2,0,0,0,1.4,3.3c0.8,1.5,1.7,3.1,2.5,4.5a65.5,65.5,0,0,1,3.8,7.5c1,2.5,2.7,8.4,1.4,10.4a1.6,1.6,0,0,1-1.4.7c-1.7,0-4.1-2-5-3.6-2-3.8-3.7-7.7-5.1-11a15.2,15.2,0,0,1-.8-2.9l-0.3-1.4V25.9h-0.9c-0.8,0-2,4.7-2,4.8a8.4,8.4,0,0,0,.4,2.2l0.2,0.7a38.8,38.8,0,0,0,2,5.8l1.2,3,1,2.8c1.7,4.3,3.4,8.8,2.1,13.1a3.5,3.5,0,0,1-1.6,2.1,3,3,0,0,1-1.5.4,4.3,4.3,0,0,1-3.3-1.6,15.9,15.9,0,0,1-2.9-8.3c-0.1-1-.1-2.1-0.2-3.2a35,35,0,0,0-.6-6l-0.2-1-0.7.8a17.9,17.9,0,0,0-2,3.3l-0.7,1.4c-0.8,1.5-.4,2.9,0,4.2l0.2,0.7,0.8,3.2c0.7,2.7,1.4,5.5,2.4,8.2a28,28,0,0,1,1.2,7.1c0.1,0.8.1,1.7,0.2,2.5a13.9,13.9,0,0,1-.2,3.6v1a2.4,2.4,0,0,1-2.4,2.1h-0.8c-1.9-.7-3.4-4-4-5.4-2.2-5.1-2-10.9-1.8-16.4V56a5.5,5.5,0,0,0-.2-1.8l-0.2-.7-0.6.5a12,12,0,0,0-2.2,3.3l-0.8,1.4a1.3,1.3,0,0,0-.1,1.4,68,68,0,0,1,3.2,22.8V83A54.1,54.1,0,0,1,702.3,94a3.4,3.4,0,0,1-3,2.8,2.7,2.7,0,0,1-2.1-1.3c-4.5-6.3-3.4-15.6-2.6-23.1l0.4-4.1h-1.3l-0.2.2-1,1.5a24.5,24.5,0,0,0-2.5,4.2,2.8,2.8,0,0,0,.4,2.2,5.4,5.4,0,0,1,.5,1.2c0.5,3,.8,6,1.1,9s0.6,6.1,1.2,9.1a60.4,60.4,0,0,1,1.2,9.8c0.1,2.5.2,7-2.1,8.3a2,2,0,0,1-1.1.3,3.4,3.4,0,0,1-2.3-1c-2.2-2.2-2.6-5.9-2.9-8.9s-0.5-4.4-.7-6.8c-0.1-.8-0.1-1.6-0.1-2.4a22,22,0,0,0-.5-5l-1,.3a16.7,16.7,0,0,1-.8,1.9l-0.6,1.4c-1.7,6.1-5.7,13-12.3,21.1C669.3,115.6,667.6,116.9,666.2,116.9Zm4.4-16.1c-2.2,1.7-4.3,8.7-4.7,13.6v0.3l1.1,0.8,0.3-.5,0.2-.5a5.9,5.9,0,0,0,.5-1.2l0.8-2.8,0.6-2.3,1.3-4.6,1.1-3.8Zm19.7,7H691a1.3,1.3,0,0,0,1.1-.4c0.4-.5.4-1.2,0.2-2.5h-1Zm-1.9-.3,1.4,0.3,0.2-.3a9,9,0,0,0,1.2-4.2,12.6,12.6,0,0,1,.5-2.5h0v2.5l1.6-.2-0.4-2.7-1.1.2h0l-1.5-.4Zm-0.8-5.3,1.4,0.4,1.5-6.1H691l0.6-5.9h-1.4l-0.9,5.8h-0.1Zm-15.2-.2,1.4,0.5,1.9-5.1a3.5,3.5,0,0,0,.3,1.3l0.5,1.1,2.3-5.5-1.3-.5-0.2.4-0.4.6a5.3,5.3,0,0,0-1.1,2.1l-1.5-.6Zm17.8-2.2,1.4,0.3,0.5-2.3-1.3-.3Zm9.2-20.1-2.9,10.7,1.4,0.3,0.2-.2a1.1,1.1,0,0,0,.4-0.5l0.6-2c0.6-1.8,1.2-3.7,1.7-5.6s0.5-2.1-.4-3l-0.6-.6Zm-0.3,9,0.9-.3c1.9-.7,1.5-2,1.3-2.8a4,4,0,0,1-.2-0.7h-1Zm-10.3-8.9-1.1,7,1.5,0.2,1.4-7.5-1.7-.2v0.5Zm6.9,5.9,1.1-.8c1.3-1,3.5-8.8,2.5-10.4l-0.6-1Zm14.5-12.2H712l0.2-6.5h-1.4Zm-1.7-3.3,1.4,0.3,0.7-3.6-1.5-.3Zm-17.4-3.4,1.4,1.1,2.3-3.1-1.1-.9Zm-11.9-2.1-1.3.7,0.5,1.3,1.8-1.2-0.5-.8h-0.5Zm30,0.6,1.6,0.2V63.3h-1.3ZM688.8,49l-0.3.5c-0.5.6-1.3,1.5,0.1,2.9l0.6,0.6,1.1-4.1-1.3-.4Zm10.3-3.8c-2.5.8-3.5,2.9-4.2,4.8l0.8,0.5,5.1-5.8Zm14.5,4.4,1.5,0.3V49.1c0-.3,0-0.5,0-0.8a0.6,0.6,0,0,0-.5-0.5h-0.1l-0.6-.2Zm-10.8-7.1,1,1.4,2.6-1.8-1-1.3ZM727.3,39v2.6h0.8a0.8,0.8,0,0,0,.8-0.6,6.2,6.2,0,0,0,0-1.1V39h-1.6Zm-2-5.8v1.5c-0.4,3.7-.5,4.9,1.3,5.6l0.7,0.3L726.7,33Zm-2.2-4.6a9.7,9.7,0,0,1-.2,2.3c-0.3,1.6-.6,3.4.7,5l0.6,0.8,0.3-1a9.9,9.9,0,0,0-.4-7.4Zm-26.5,4.8v0.5a1.4,1.4,0,0,0,.2.7,1.3,1.3,0,0,0,.6.4h0.1l0.3,0.2,0.7-.8-1.1-1.7Zm5.6-8.8a24.6,24.6,0,0,0-3.2,8.7l-0.2.7h0.7c1.4-.2,3.3-5.2,3.5-8.1l1,0.8,1.8-1.9-1.3-1-1.4,2a6.5,6.5,0,0,0,0-.9V23.3Zm18.6,6.4h1.7V22.8H721ZM719,24.2h1.5V22.7a0.6,0.6,0,0,0-.6-0.4H719v2Zm13.5-.4,1.1-.8a4.1,4.1,0,0,0,1.2-5.1l-0.6-1Zm-13.7-5.4V22h1.6l-0.3-3.6h-1.4Zm7-9.8,1-.2V7.9a1.5,1.5,0,0,0,0-1.3,1.8,1.8,0,0,0-1.3-.7l-0.9-.2Zm2.5-4.6,0.3,2.7,1.5-.2-0.5-2.7ZM714.5,2l1.2,0.6,1-1.5-1-.7ZM737.9-.2L738.8,1l2.5-1.6-1-1.5Zm-5.5-7.2,0.5,2.1,1.4-.4-0.7-2ZM712.9-18.2l1.3,1.2,3.8-4.2-1.3-1.2ZM708.3-27l0.9,1.9,1.5-.9-0.3-.4-0.8-1.3Zm3.1-1.8,1.2,0.5,0.3-2.3h-1.2Zm27.3-5.2,1.3,4.6,1.4-.4v-0.5l-0.9-4.3Zm-2.2-9,1.5,1.7,0.7-.5v-0.5l-1-1.6Zm-6.1-7.8,0.2,0.2a0.8,0.8,0,0,0,.6.4h0.1l0.5-.2H732l0.9-.4-1.9-1Z"/><path class="b" d="M304.5,150.1a3.8,3.8,0,0,1-1.5-.4c-4.4-1.9-5.2-8.5-5-12.1a60.7,60.7,0,0,0-2.3-19.3c-0.4-1.6-.9-3.3-1.4-4.8l-1.2-3.9c-0.1-.5-0.3-1.1-0.4-1.8s-0.9-4.3-2.4-5.6L290,102l-0.3.4-1.1,1.3c-1.7,1.9-3.2,3.7-5.9,3.7h-1.3a3.3,3.3,0,0,1-2.7-1.8c-0.6-1.3-.2-3.1.8-4.8a43.6,43.6,0,0,1,3.4-4.6c2.9-3.6,5.6-6.9,5.5-12s-0.1-12.7,0-18.9c0-2.7.1-5.4,0.1-8.1a6.4,6.4,0,0,0-.1-1V54.4l-0.7.7-1.8,1.7c-1.4,1.3-2.8,2.6-4.2,3.7a5.3,5.3,0,0,1-3.2,1.2c-1.8,0-2.9-1.2-2.9-3.3s2.5-6.2,7.5-8.7l1.7-.8c4.1-2,7-3.5,8.6-8.9s4.3-13.1,6.7-19.4l2.6-7.1,0.3-.9A16.4,16.4,0,0,0,304,7.6v-1l-0.8.6-1.7,1.1-4,2.6a8.1,8.1,0,0,1-3.8,1.4,1.9,1.9,0,0,1-1.9-1.3c-0.8-2.1.7-6.5,3.7-8.9A28.6,28.6,0,0,1,302-1.7c4-1.8,7.5-3.4,9.3-9.4l4.6-14.5v-0.3l0.8-2.5c1.3-3.8,2.6-7.7,2.4-11.7h-1c-0.4,1.6-3.8,4.1-6.3,4.1a2.2,2.2,0,0,1-1.3-.3,1.5,1.5,0,0,1-.7-1.2c-0.2-2.4,4.3-6.5,6.6-8.8l1.8-1.7c1-1.1,2.3-2.7,2.4-4.3v-0.6h1.4c0.5,3.3,2.4,5.7,5.9,7.7a12.8,12.8,0,0,1,6.4,8,3.1,3.1,0,0,1-.2,2.7,3.5,3.5,0,0,1-2.9,1h0c-3.4,0-6.3-2.4-7.9-6.6l-0.5-1.6-0.3-1-0.5-1.5-1.4,4.7-1.8,6.3-2.2,7.6c-1.5,5.3-3.1,10.8-4.7,16.2-0.8,2.8-1.3,5.9,1.5,9.3s6.8,8.4,6.5,14.5c-0.1,1.3-.5,2.8-2.4,2.8a6.1,6.1,0,0,1-3.2-1.2c-3.4-2.3-4.5-7-4-10.4,0.1-1.1.2-2.2,0.3-3.3V0.1l-1.7-.4-0.2.4-1.3,2.5A40.7,40.7,0,0,0,305.3,8c-2.7,7.9-5.4,15.9-8,23.7l-4,11.9c-0.8,2.3-.1,4,2.1,5.2,5.1,2.8,10.7,8.2,11.4,15.1a3.6,3.6,0,0,1-.7,2.8,3.1,3.1,0,0,1-2.4.9l-1.5-.2c-2.6-.6-5.1-3.4-7.2-8.1-0.5-1.2-1.2-2.4-1.8-3.6l-0.8-1.6-0.2-.3H291c-0.5.1-.9,0.1-1.2,7.9-0.2,3.9-.2,7.8-0.2,8.5,0,3.9.3,7.9,0.5,11.7,0.1,1.8.2,3.5,0.3,5.3,0.2,3.9,3.7,5.7,6.7,7.2l1.9,1c4.4,2.6,7.2,5.3,8.8,8.6,0.7,1.5.8,2.6,0.4,3.3a2.5,2.5,0,0,1-2.2.8,8.8,8.8,0,0,1-6-2.6l-1.3-1.5a48.1,48.1,0,0,0-5.9-6.3l-1.1-.9,0.2,1.4,0.3,1.6c0.2,1.2.4,2.4,0.7,3.6,3.1,13.4,8.3,25.9,13.4,37.4a11.5,11.5,0,0,1,1.2,4.3,5.8,5.8,0,0,1-1.4,4A2.5,2.5,0,0,1,304.5,150.1Zm-4.8-16.9a26.4,26.4,0,0,1-.5,3.1,21.3,21.3,0,0,0-.4,2.3,15,15,0,0,0,.8,5.2c0.5,1.3,2.4,4.4,4.4,4.4s1.5-.3,2.1-1.9c1.5-3.8-3.5-11.3-5.7-13.6l-0.7.7v-0.2Zm-3.4-36.8-1,.2a16.7,16.7,0,0,0,7.6,10.1,5,5,0,0,0,2.3.8,1.3,1.3,0,0,0,1.3-.8c0.6-1.6-1.5-5.3-2.8-6.6a29.5,29.5,0,0,0-4.7-2.6l-2.8-1.4v0.2Zm-9.5-2.2c-3.4,2-6.9,6.5-7.6,9.9a2.5,2.5,0,0,0,.3,2.1,2.3,2.3,0,0,0,1.8.6h0.4A6.9,6.9,0,0,0,287,103a9.4,9.4,0,0,0,.6-8.7l-0.2-.5Zm6.6-43.7c0.5,1.3.9,2.7,1.3,4,1.2,4.1,2.4,8,6.1,10.7a3.7,3.7,0,0,0,2.2.8,2.5,2.5,0,0,0,2.1-1,3,3,0,0,0,.2-2.8c-2-5.4-5.5-9.2-11.1-12.2l-1.2-.6Zm-6.2-.8c-4.4.9-7.3,2.5-8.9,4.9s-1.5,2.9-1.2,3.8a1.6,1.6,0,0,0,1,1h0.8a6,6,0,0,0,3.7-1.8c2.1-2,4.7-4.8,5.2-7.5V49.5Zm24.6-48c-0.8,3.1-.6,9.1,2,11.8a5.1,5.1,0,0,0,3.3,1.6,2.1,2.1,0,0,0,2.1-1.7c0.5-1.7-1.1-4.3-2.4-6.4l-0.9-1.6a9.8,9.8,0,0,0-2.5-3.5l-0.8-.5L312,1Zm-6-2.8c-8.3,1.3-14,6.2-13.3,11.6v0.5H293c4.3-.2,11.9-6.7,13.4-11.4l0.2-.8h-0.8Zm18-44.5c0.6,4.3,1.4,8.1,5.2,10.3a3.4,3.4,0,0,0,1.7.6,1.7,1.7,0,0,0,1.5-.8,4.3,4.3,0,0,0,0-3.8,12.8,12.8,0,0,0-7.8-6.9l-0.8-.3v0.8Zm-13.5,7.5h1.2c4.1-.2,6.8-3.1,7.1-7.8v-1.5Z"/><path class="b" d="M255.2,49.1a1,1,0,0,1-.7-0.8,81.2,81.2,0,0,1-3-25.8c0.3-1.4.4-3,.6-4.5a45.4,45.4,0,0,1,.9-5.8,43.7,43.7,0,0,1,2.2-6.1c0.5-1.2,1-2.4,1.4-3.7l1-2.5c1.5-3.8,3.4-8.5,2.4-11.9l-0.4-1.5-0.5,1.5-1.1,3.3c-2.3,6.6-4.5,12.9-8.6,18.8a1.1,1.1,0,0,1-.7.6h0c-0.7-.2-1.1-2.4-1.2-3.3l-0.2-.9a70.3,70.3,0,0,1-1.3-7,36.2,36.2,0,0,1,.3-13.6,79.4,79.4,0,0,1,5.2-13.6l1.1-2.4a3.2,3.2,0,0,0,.2-2.2L252-34.4c-0.9-2.7-1.7-5.4-2.9-8a76.3,76.3,0,0,0-5.9-10.7H247l0.6,0.8a45,45,0,0,1,3.4,4.8,2.7,2.7,0,0,0,1.2,1.2h3.3c5,0,10.1,2.3,14,4.4a102.1,102.1,0,0,1,10.2,6h0.2c6.6,4.5,7,5.9,7,6.1h-0.4l-6.9.4H270l1.1,0.8c4.8,3.3,7.4,7.8,10.1,12.7l1.3,2.3,1.5,2.4,1.4,2.3a2.5,2.5,0,0,1,.2.8h-0.9a74.9,74.9,0,0,1-13-5.6,32.4,32.4,0,0,1-5.8-4.2L265-19c-2-2.5-3.1-3.7-3.9-3.7h-0.2a1,1,0,0,0-.7.5c-0.5.9,0,2.9,0.6,4.7v0.3a8.2,8.2,0,0,0,.9,2.1,44.7,44.7,0,0,0,2.7,3.7,27.7,27.7,0,0,1,3.9,5.8,72.4,72.4,0,0,1,3.9,11.4l0.3,1.2a42.3,42.3,0,0,1,1.8,10.3c0,5.6-.1,11.9-2.8,16.5-2.6-1.4-3.9-4.7-5-7.6l-0.5-1.2-1,.2c0.4,4.3-.7,7.9-2.4,12.1a73.4,73.4,0,0,1-3.8,7.5L258,46.5a7.2,7.2,0,0,1-1.3,1.5l-0.5.5A1.6,1.6,0,0,1,255.2,49.1Zm7.1-59.5A27.7,27.7,0,0,0,261-5a50.8,50.8,0,0,0,.4,6.6c0.2,1.2.3,2.5,0.5,3.8,0.6,5.5,1.3,11.3,3.9,16l0.4,0.9c3.5,6.9,4.1,7.4,4.6,7.4h0.1l0.8-.3c0.5-.2,1.1-0.4.7-10.1V18.9a63.5,63.5,0,0,0-1.2-10.3c-1.3-6.1-3.2-13.2-8.1-19v-0.2h-0.4Zm-9.7-16.4c-2.8,5.7-5.4,11.1-5.6,17.2a55.2,55.2,0,0,0,1,10.1c0.2,1.5.5,3,.7,4.4l0.2,1.2,0.7-1c2.6-3.4,5-9.5,6.1-15.5s0.7-13.4-1.8-17.4l-0.5-.8Zm7.9-16.5a15.8,15.8,0,0,0-6.1,1.2l-0.7.3,0.5,0.5a35.2,35.2,0,0,0,11.6,8.5A27.5,27.5,0,0,0,277-30.5a38.7,38.7,0,0,0,5.9-.5l1-.2-0.7-.7a51.2,51.2,0,0,0-13.4-9.3A22.4,22.4,0,0,0,260.5-43.3Zm-3.7,8.1,1.5,2.1,1.3-1-1.6-2.1Zm-5.5-8.7,1.5,1.6,0.3-.6a1,1,0,0,0,0-1.2l-0.5-.4h-0.1l-0.4-.3Z"/><path class="b" d="M574.2,20.3l-0.9-.2c-1.3-.6-1.7-1.3-1.4-2.5l1-4.3c1-4.2,2-8.6,3.2-12.9L576.5-1h1.2c-0.7,2.2-1.4,4.5-2,6.7L575,7.6a45,45,0,0,0-1.2,6.3c-0.1.9-.3,1.9-0.4,2.8V17l1.3,0.8,0.3-.2c7.2-4.5,14.7-9.7,20.3-17.5L596-1h1.8v0.2c-2.3,3.5-5.7,6.5-8.9,9.5l-2.2,2c-3.2,3-6.8,5.7-10.3,8.3l-0.6.5a2.3,2.3,0,0,1-1.5.8h0Z"/><path class="b" d="M242.7,113.8a1.3,1.3,0,0,1-.6-1,12.6,12.6,0,0,1,.2-3.3c0.1-.6.2-1.1,0.2-1.7a93.4,93.4,0,0,0,.3-10.3h-1a8.6,8.6,0,0,1-1,3.1l-0.3.7-0.3.9a6.9,6.9,0,0,1-.6,1.4l-0.3.4a1,1,0,0,1-.3-0.9,9.7,9.7,0,0,1,1.2-3,15.8,15.8,0,0,0,1-2c0.6-1.8,1.2-3.7,1.6-5.5l0.2-.9a2,2,0,0,0-.1-1V90.3l-1,.2V90.3a25.4,25.4,0,0,1-2.1,3l-0.3.4a2.8,2.8,0,0,1-1,1.1h-0.2c0-.1.1-0.8,1.5-3.1l0.3-.5c1.6-3,3.1-6.3,2.4-10.2l-0.2-.6V80L242,78.8l-0.6,1.1a25,25,0,0,0-1.2,3.1c-0.8,2.2-1.5,4.3-3.4,5.5a5.1,5.1,0,0,1,.3-1.1l1.1-2.2,1.3-2.8a24,24,0,0,0,1.9-7.4,12.6,12.6,0,0,0-.2-2.9c-0.1-.4-0.1-0.8-0.2-1.2V70.4h-1.3l-0.4,1.3-0.7,2.1-0.2.4c-0.6,1.6-1.3,3.3-2.1,4.9l-0.6.3a2.1,2.1,0,0,1,0-.7c0.9-2.9,1.9-5.8,2.8-8.6l0.3-1,0.3-.6a4.6,4.6,0,0,0,.4-1.3,14.7,14.7,0,0,0,0-3.1c-0.1-1-.3-2.1-0.4-3.1l-0.2-.9a11.4,11.4,0,0,0-.6-2.4L237.8,56l-0.3,1.6L237,59.8c-0.8,3.9-1.5,7.6-3.7,10.9h-0.1a8.8,8.8,0,0,1,.2-1.1l0.6-2.4a56.7,56.7,0,0,1,1.8-6.2,20,20,0,0,0,1.2-6.9,29.7,29.7,0,0,0-.5-4.9l-0.3-1.9a1.1,1.1,0,0,0-.3-0.6h-0.1V46.5l-1.3-.2v0.6c0,0.2,0,.3,0,0.5a6.8,6.8,0,0,1-.1,1l-1.6,9.3a3.7,3.7,0,0,1-1.6,2.2l0.6-2.3c0.6-2.4,1.2-4.8,1.6-7.3s1-7-.3-10.8h-1l-0.2,1a14.7,14.7,0,0,1-.4,2.1c-0.5,1.8-1.2,3.6-1.9,5.2h-0.2V47.7l0.4-1.6c0.2-.6.3-1.3,0.4-2l0.4-2.1a31.9,31.9,0,0,0,.8-6.4,12.6,12.6,0,0,0-1.1-4.3l-0.7-1.8V29.1l-1.2.3-0.2,2.2c-0.1,1.4-.2,2.8-0.3,4.3v0.7a6.7,6.7,0,0,1-1,4l-0.3.3V40.2c0.1-1.1.2-2,.3-2.9s0.2-1.4.3-2.1,0.3-2.4.4-3.7V30.5a14.1,14.1,0,0,0-.2-4.9,26.7,26.7,0,0,0-2.2-4.9l-1-2-0.2-.4-1.2.3V20c0,0.7,0,1.4,0,2.2,0.1,3,.2,6.5-0.8,9.7a2.6,2.6,0,0,1-.2.6h-0.3V31c0.1-1.5.3-3.1,0.3-4.7s0-3.1-.1-4.5,0-1.3-.1-2,0-.9,0-1.3a18.4,18.4,0,0,0-.1-3,9.3,9.3,0,0,0-3-6l-0.9-.8v2.1c0,0.6.1,1.1,0.1,1.7q0.2,5.3.3,10.6a1,1,0,0,1-.1.5l-0.5.5-0.4-.5c-0.1-1.3-.1-2.7-0.1-4s0-2.4-.1-3.7-0.3-4.9-.4-7.1V8.7a14.1,14.1,0,0,0-.4-2.9,15,15,0,0,0-3-6.1l-0.9-1.1V0c0,0.4,0,.8,0,1.2s0,1.3.1,1.9l0.3,3.8c0.2,2.1.4,4.3,0.6,6.4a4,4,0,0,1-.4,1.5V15h-0.1V15c-0.1-1.3-.2-2.6-0.3-3.8s-0.3-4.1-.5-6.2c-0.4-3.6-.8-6.8-1.4-9.8a4.6,4.6,0,0,0-1.1-2l-0.6-.8-0.3-.5a24.1,24.1,0,0,0-1.8-2.5l-0.9.4,0.2,1c0.1,0.7.3,1.4,0.4,2.1v0.7c0.5,3.1.9,6.3,1.3,9.5a1.5,1.5,0,0,1-.6.8h-0.1a1.4,1.4,0,0,1-.1-0.7V3.1c-0.3-2.8-.6-5.2-1-7.6V-5a57.7,57.7,0,0,0-1.8-8,11.8,11.8,0,0,0-2-3.3L201-17.4a9.5,9.5,0,0,0-1.7-1.9l-1.2-1,0.4,1.5,0.2,0.8,0.4,1.7,0.9,3,1.2,4.3a5.6,5.6,0,0,1,.3,1.8,0.9,0.9,0,0,1-.4.5l-0.5-.2a10.2,10.2,0,0,1-.9-2.8,36.3,36.3,0,0,0-1.8-7.2l-0.4-1.3a48.5,48.5,0,0,0-2-5.4,6.3,6.3,0,0,0-1.6-1.9l-0.6-.5-0.7-.6a12.9,12.9,0,0,1-1.9-1.8h-1c0,0.2,0,.4-0.1.6a1.7,1.7,0,0,0,0,.9l1,2.3,1.2,2.9c0.5,1.3,1,2.7,1.4,4l0.4,1a0.8,0.8,0,0,1,.1.4l-0.2.5-0.2-.2-0.9-2.6-0.9-2.6-1.2-2.9-1.3-3.2a27.5,27.5,0,0,1-1-3.2,3.1,3.1,0,0,0-1-1.9l-0.4-.4c-2-2.1-4.2-4.4-6.8-6.8l-6.5-5.8-2.3-2.1-0.6-.2h-0.5l-1.7-.4,1.2,1.2,1.1,1.2,2,2.1,3.3,3.1,2.6,2.5,2.9,2.8a16.7,16.7,0,0,1,2.1,2.4,2.3,2.3,0,0,1-.1.6h-0.5l-4.7-5.3-1.7-2-1.3.9,0.3,0.4,0.5,0.8,1.3,1.7,3.4,4,1.3,1.5,0.2,0.3,0.7,0.8,2,1.6,3.3,2.7a1,1,0,0,1,.2.7,0.4,0.4,0,0,1-.4.4l-0.5-.2a41.8,41.8,0,0,1-3.1-2.8l-0.5-.5a8.9,8.9,0,0,0-1.8-1.5l-1.2-.7,0.5,1.3,0.4,1a18.5,18.5,0,0,0,.9,2.2l1.5,2.6,0.9,1.6,0.7,1.2a14.9,14.9,0,0,0,1.4,2.4,18.5,18.5,0,0,0,2,2.1l1.2,1.2,3.9,4.2,2.4,2.6a1,1,0,0,1,.3.6,0.8,0.8,0,0,1-.3.5l-0.4.2a1.4,1.4,0,0,1-.6-0.5l-4-4.9L189.5-14l-0.3.8v0.3a0.9,0.9,0,0,0-.1.7,13.9,13.9,0,0,0,2.6,4.7L193-5.9a16.7,16.7,0,0,1,2.5,3,23.2,23.2,0,0,0,4.2,5,38,38,0,0,1,3.5,3.8l1.3,1.5a1,1,0,0,1,.3.7,0.6,0.6,0,0,1-.3.4h-0.3a1.4,1.4,0,0,1-.7-0.7l-2.3-2.9-1.1-1.3L194.7-3a2,2,0,0,0-1.1-.8L192.7-4,193-3.1v0.3a3.7,3.7,0,0,0,.3.8L194-.7c0.7,1.4,1.4,2.8,2.1,4.2A30.8,30.8,0,0,0,199,7.8l4.1,4.8,1.9,2.2,1.1,1.2,1.7,1.9c0.8,0.9.4,1.3,0.2,1.5l-0.4.2a1.6,1.6,0,0,1-.7-0.6V18.9l-3.5-4.2L201,11.9l-0.3-.3-0.4-.3-1,.5v0.5l0.6,1.2c0.4,0.9.8,1.8,1.3,2.7s2.2,4,3.4,6.1l1.8,2.7,1.6,2.3,0.8,1.2c1,1.4,3.1,4.2,2.7,5.2h0a8.1,8.1,0,0,1-1-1.4l-0.2-.4-1.9-2.9-0.7-1-1.9-2.8-1.1-1.6-1.2.5v0.4l0.2,1.2c0.1,0.9.3,1.8,0.5,2.7s0.5,1.9.8,2.8,0.6,2.1.8,3.1,0.6,3,.8,4.5l0.3,1.6a0.9,0.9,0,0,1-.2.7l-0.4.2-0.4-.2c-0.4-.5-0.5-2.3-0.6-3.5a15.9,15.9,0,0,0-.2-1.8,86,86,0,0,0-3.2-11l-1,.2v0.7c0.1,0.5.1,1.1,0.2,1.6a12.2,12.2,0,0,1,0,1.3v1.5c0,0.6-.1,1.1-0.1,1.7s0,0.9,0,1.4,0,1.7-.1,2.6v0.2c0,0.6-.1,2.1-0.8,2.2H200c-0.3-.4.1-2,0.3-2.8a7.8,7.8,0,0,0,.2-1,27.5,27.5,0,0,0,.1-3.3c0-.5,0-1.1,0-1.6a38.1,38.1,0,0,0-.4-5.5c-0.4-2.2-.9-4.3-1.5-6.4l-0.6-2.3a1.6,1.6,0,0,0-.4-0.7V14.3l-0.2-.2-1.1.2v1.5c0,0.7.1,1.5,0.1,2.2,0,3.2-.1,6.7-0.2,10.2a2.1,2.1,0,0,1-.4.9h0a1.9,1.9,0,0,1-.1-1.4,5.8,5.8,0,0,0,.1-0.8c0-1,0-1.9,0-2.9s0-3,0-4.5V18.6a47.5,47.5,0,0,0-.3-5.6,64.1,64.1,0,0,0-1.3-6.4V6.2c-0.3-1.2-.7-2.4-1.1-3.6l-0.2-.5A2.7,2.7,0,0,0,191.6.7l-0.8-.5v2c0,0.8,0,1.6.1,2.3l0.2,3.3c0.1,1.9.2,4,.3,5.9a3.4,3.4,0,0,1-.5,1.6l-0.5.2h0l-0.2-.4a40.6,40.6,0,0,0,0-9.9c-0.1-1.1-.2-2.2-0.2-3.3V1.6c-0.1-2.8-.3-5.7-1.6-8.4l-1-2.1-0.6-1.3-1.1.2v0.4c0,0.4,0,.8,0,1.1s0,1.7-.1,2.5-0.4,3.4-.7,5l-0.3.3-0.2-.4a40.6,40.6,0,0,0-.6-13.2c-0.5-2.1-1.1-4.2-1.7-6.3l-0.8-2.7v-0.5c0.6-1.9-.3-3.2-1.2-4.3a5.7,5.7,0,0,1-1.1-1.8v-0.5l-1.4.5v0.4l0.4,1.6c0.3,1.2.6,2.4,0.8,3.6s0.7,4.9,1.1,7.4l0.2,1.5a0.6,0.6,0,0,1-.1.4l-0.5.4a1.3,1.3,0,0,1-.2-0.5c-0.2-1-.3-1.9-0.4-2.9s-0.5-3.4-.8-5.1c-0.7-3.2-1.7-6.4-2.6-9.5v-0.2a3.9,3.9,0,0,0-.8-1.3l-0.5-.7-2.2-3.7-1.1-1.9-1.4.6,0.6,2.3,1.2,4.3,0.4,1.4c0.4,1.4.8,2.8,1.1,4.2a4.9,4.9,0,0,1-.1,1.8v0.2h-0.1a4.9,4.9,0,0,1-.7-1.5l-1.5-5.9c-0.8-3.4-1.7-6.8-2.6-10.2a52.8,52.8,0,0,0-2.9-7.6,4.9,4.9,0,0,0-1.6-1.7l-0.7-.6h6.5l3.4,0.7,4.2,0.9a15.7,15.7,0,0,1,3.1,1.2,1.1,1.1,0,0,1,.1.5,1.3,1.3,0,0,1-.6.5l-2.2-.6-1-.3-0.9-.3-3.7-1h-0.8l-1.3.2-0.7.2,0.4,0.6,0.3,0.4a2.9,2.9,0,0,0,.9,1,19,19,0,0,0,3.1,1.6l0.7,0.3c2.1,0.9,4.3,1.8,6.6,2.5l5.4,1.4,2.3,0.6h0.8a0.6,0.6,0,0,1,0,.3c-0.2.8-.4,0.8-0.6,0.8h-0.4L181-43.6l-2.4-.7h-0.4l-0.8.2-0.6.3,1.1,1.2,1.4,1.4a8.7,8.7,0,0,0,4.8,2.2l1.8,0.5,3.3,1.1,1.8,0.6,0.9,0.2,1.6,0.3,3.8,0.8,0.4,0.5h0l-0.5.3c-1.7-.3-3.5-0.8-5-1.2l-3.1-.9-2.4-.7h-2.1l0.3,0.8v0.3a1.1,1.1,0,0,0,.4.6l1.2,0.9a21.8,21.8,0,0,0,2.9,2,12.2,12.2,0,0,0,2.9.9l1.2,0.3,4.7,1.4,3.9,1.2h2l0.7,0.5h-0.1l-0.5.5-4.1-1-1.6-.4-6-1.5h-0.4l-0.6,1,0.7,0.8,1.1,1.3a9.9,9.9,0,0,0,5.1,2.6l2.2,0.7,10.5,4h0.6l0.5,0.2a0.6,0.6,0,0,1,0,.4,0.6,0.6,0,0,1-.6.6l-0.9-.2-7-2.9-2.2-.9-1.8-.8-1.2-.5-0.9.9,1.3,1.6,2.3,2.8a9.7,9.7,0,0,0,3.7,2.5l1.1,0.5a28.7,28.7,0,0,0,3.5,1.4l2.7,1,2.8,1.3,4,1.8a1,1,0,0,1,.6.5,0.4,0.4,0,0,1-.1.3h-1L214.4-12l-3.8-1.7-2.9-1.1-1.5-.5-0.9-.3,0.3,0.9c0.8,2.9,3.5,5.4,5,6.6a8.6,8.6,0,0,0,3.1,1.4l1.7,0.6,1.7,0.7L220.4-4a19.9,19.9,0,0,1,3.8,2.5l0.6,0.4a1.3,1.3,0,0,1-.1.6h-0.4l-0.7-.4L223-1.2l-2.3-1.3c-2.6-1.5-5.3-3.1-8.3-3.4h-0.6v0.6a9.8,9.8,0,0,0,3.6,6,15.2,15.2,0,0,0,3.9,1.7l2.3,0.8A40.9,40.9,0,0,1,226.6,6a4.2,4.2,0,0,1,1,1L228,7.6a0.6,0.6,0,0,1-.3.5,2.1,2.1,0,0,1-1-.5l-6.6-4.1a7.7,7.7,0,0,0-1.7-.7l-0.8-.3-0.9-.3L217,3.1c0.6,2.3,1.3,4.6,3.3,6a17.5,17.5,0,0,0,3,1.6l2.4,1.1,3.6,2.4,1.2,0.9,0.5,0.4a9.6,9.6,0,0,1,1.7,1.4,1.7,1.7,0,0,1-.1.9h-0.6a5.2,5.2,0,0,1-1.2-.9l-0.2-.2-1.1-1.1a20.3,20.3,0,0,0-2.4-2.1,23.7,23.7,0,0,0-3-1.7l-1.5-.8-0.6-.4v0.7a5.5,5.5,0,0,0,1.3,4.1l0.5,0.8c0.5,0.9,1.1,1.7,1.7,2.4l0.8,1h0.1l0.3,0.4a31.6,31.6,0,0,0,6.5,4.9,54.9,54.9,0,0,1,6.1,4l1.4,1a2.4,2.4,0,0,1-.2.6H240l-2.9-2.2-1.7-1.3-4-3-1.9-1.4-1-.7-0.3.3a1.9,1.9,0,0,0-.5,1.5c0.2,2,2.9,4.3,5.9,6.7l1.7,1.4a45.1,45.1,0,0,0,3.9,3.6l1.3,1.1,3.8,3.2a0.7,0.7,0,0,1,.3.4,1.1,1.1,0,0,1-.4.7h-0.1l-0.2-.2-0.3-.4-1.6-1.4-1.4-1.3-1.3-1.3a31.3,31.3,0,0,0-7-5.6l-1.1-.6,0.4,1.2c1.3,4.1,3.7,9.4,7.3,11.6a17.8,17.8,0,0,1,3.2,2.6l1.4,1.3,0.7,0.6,1.5,1.3a21.3,21.3,0,0,1,2,2.3v0.3h-0.4l-2.5-2.4-1.7-1.7-4.5-4.3-2.1-1.9-0.7.7a2.1,2.1,0,0,1,.2,1.1,4.2,4.2,0,0,0,.1,1,11.6,11.6,0,0,0,1,2.1l0.2,0.4a20.3,20.3,0,0,0,4.1,5l3,2.6,3.1,2.7a21.6,21.6,0,0,1,2.7,3,2.5,2.5,0,0,1-.1.7h-0.5a19.8,19.8,0,0,0-4.2-4.6l-2-1.8-2.7-2.6L239.2,50l-0.7.4c-0.8.5-.6,1.8,2.6,7.2l0.2,0.4a16.3,16.3,0,0,0,4.3,5.4,6.9,6.9,0,0,1,1.3,1.5l0.6,0.8,1.3,1.5a40.8,40.8,0,0,1,2.7,3.3,24.6,24.6,0,0,1,2,3.6l0.4,0.8v0.2h-0.5l-0.7-1.1-0.7-1.2c-1.9-2.5-3.9-5.2-6.1-7.8a31,31,0,0,0-2.2-2.4l-1.1-1.1-0.4-.4-0.4.5c-2,2.7.7,6.6,2.2,8.7h0.1l2,2.7,0.9,1.1a21.9,21.9,0,0,1,1.8,3l0.8,1.4a12.7,12.7,0,0,0,1.3,1.8,9.2,9.2,0,0,1,1.5,2.1l0.2,0.5a1.8,1.8,0,0,1,.3.7v0.3a39.2,39.2,0,0,1-4.4-6.5l-2-3.4a8.8,8.8,0,0,0-2.5-2.8l-0.6-.4v0.7a9.9,9.9,0,0,0,.4,4.8,39.6,39.6,0,0,0,4.8,8.8c1,1.5,2,3.1,2.9,4.7a17.5,17.5,0,0,1,1.1,2.7h-0.2l-3.3-5.4-0.5-.9c-1.3-2.7-2.1-4.1-3.1-4.1H245a1.1,1.1,0,0,0-.7.6c-0.5.9,0.1,2.6,0.8,4.3v0.3a57.5,57.5,0,0,0,3.7,7.8c1.1,2,2.2,4.1,3.1,6.3a1,1,0,0,1-.2.7l-0.3.3-0.3-.3c-0.6-1-1-2.1-1.5-3.1s-0.9-2.1-1.5-3.2l-0.5-.9a12.6,12.6,0,0,1-1.9-5.1h-1v0.5a25.3,25.3,0,0,0,.7,6.2,22.8,22.8,0,0,0,1.9,4.1,31.2,31.2,0,0,1,1.4,2.8,16.4,16.4,0,0,1,1.1,3.5,2,2,0,0,1-.4.9l-0.5-1.2a60.3,60.3,0,0,0-3.8-8.6l-0.9.5c0.3,0.6.1,2.1-.1,3.1s-0.1.9-.2,1.2l-0.4,4.6-0.3,3.1c0,0.2,0,.5,0,0.9a4.9,4.9,0,0,1-.3,2.3ZM171.1-40.4l0.2,0.4,2.2,4,1.4-.9-2.7-4.1Zm-7.4,0-0.5-.2c-0.6-1.7-1.1-3.5-1.5-5a43.2,43.2,0,0,0-2.5-7.5h2.4l-0.6.4,0.6,2.5,1.2,4.9,0.4,1.5c0.3,0.9.5,1.9,0.7,2.9a1.3,1.3,0,0,1-.2.5h0Z"/><path class="b" d="M813.4,78.3h0Z"/><path class="b" d="M821.6,90.9h0Z"/><path class="b" d="M818.9,143A137.4,137.4,0,0,1,837,107.7l-0.7-.7-4.8,2.7a56,56,0,0,1,28.8-38.5,20.7,20.7,0,0,1,6.1-2.3,2.6,2.6,0,0,0,1.4-.5,2.5,2.5,0,0,0,.6-1.2l0.6-2.1c1.1-3.8,2.2-7.5,2.1-11.6,0-1.2-.1-2.4-0.2-3.5-0.2-3.4-.5-7,0.4-10.3l-0.9-.4a50.3,50.3,0,0,0-5.7,8.5l-0.8,1.4a1.4,1.4,0,0,1-1,.8,1.7,1.7,0,0,1-1.2-1.7,29,29,0,0,1,0-6.5c0.1-.9.1-1.7,0.2-2.6a79.1,79.1,0,0,1,1.8-13.8,37.4,37.4,0,0,1,5.5-13.4A21.6,21.6,0,0,1,873,8.2c2-1.7,4.1-3.5,5.1-5.9A25.5,25.5,0,0,0,879.4-8V-9.2c-0.4-8.7-.7-17.6-1.6-26.5a17.5,17.5,0,0,0-.4-2.2,11.6,11.6,0,0,1-.5-3.1h-1l-0.2,2.7c-0.1,1.6-.2,3.3-0.4,4.9a101,101,0,0,1-7.9,31.2l-0.4,1.1A13,13,0,0,1,866,.7a2,2,0,0,1-.7.5h-0.2a2,2,0,0,1-.5-0.9c0.1-1,.2-1.9.3-2.9s0.3-1.8.3-2.7a151.3,151.3,0,0,0-.8-24.6,28.4,28.4,0,0,1,1.2-11.4,62.9,62.9,0,0,1,2.6-6.5l1.3-3,0.3-.9,0.5-1.4h2.4l-1,1.3c-3,3.9-4.4,8.4-5.7,12.8a20,20,0,0,0-.7,6.1c0,2.2.1,4.5,0.3,6.6s0.1,2.5.2,3.8,0.1,3.2.1,4.8v2.6h1.1v-0.5L873-53.1h6.3l0.7,1.2,2.2,3.6,4.5,7.6c1.7,2.9,3.2,5.8,4.7,8.7l2.6,5.3,1.7,3.4L899-17l1.6,3.1,1.5-.7-0.2-.4-0.5-1.1a19.9,19.9,0,0,1-1-2.3c-0.8-2.6-1.7-5.3-2.4-7.9l-0.7-2.3a65.9,65.9,0,0,0-8.8-18.5,38.3,38.3,0,0,0-5.4-5.8h1.5a52.6,52.6,0,0,1,7.3,9.8,49.9,49.9,0,0,1,4.5,10l0.3,0.7c1.7,4.9,3.4,10,5.3,14.9l1.4,3.3A28.6,28.6,0,0,1,906-5.7a1.7,1.7,0,0,1-.1,1,6.7,6.7,0,0,1-1.4-.9h-0.2c-7.5-5.1-12.1-14.4-16.1-22.7L886-32.9c-0.7-1.3-1.3-2.7-1.8-4l-1.4-3-3.4-6.9-1.1-2.2-0.3-.5-0.3-.4-0.8-1.2v2a2.8,2.8,0,0,0,0,.8c0.4,1.9.8,3.9,1.2,5.8s1.2,5.7,1.6,8.5a76.2,76.2,0,0,1,.6,8.8c0.1,2.5.2,5,.5,7.6l0.2,1.7c0.4,3.4.8,7,1,10.5,0,0.4,0,.8,0,1.2,0,2.7.1,5.6,2.6,7.6,5.8,4.7,9.4,9.4,11.4,14.9s2.6,12,3.1,17.5l1,12a1.3,1.3,0,0,1-.1.8,3.2,3.2,0,0,1-1.4-1.2c-1.1-1.5-2.1-3.1-3.1-4.6L894,40.4l-6.7-10.1-0.7-.9a6.6,6.6,0,0,1-1.3-2.1h-1a101.3,101.3,0,0,1-6.5,51.4l-0.9-1.9-0.5-1c-0.6-1.6-1.2-3.2-1.7-4.8a37.4,37.4,0,0,1-1-4.2,29.9,29.9,0,0,0-1.4-5.4l-0.2-.6-0.5.4a2,2,0,0,0-.8,1.4l-1.5,7.3a1.4,1.4,0,0,0,.3,1.4,30.8,30.8,0,0,1,2,3.3l1,1.8c0.6,1,1.3,2,2,2.9s1.4,1.9,2,2.9c3.8,6.4,5.6,14.4,5.4,23.6s-1.7,15.6-3.3,23.2a170,170,0,0,1-12.6-26.2l-0.5-1.3-0.5,1.3a90.3,90.3,0,0,1-23.4,35.1,52,52,0,0,1,1.7-16.5l-0.9-.4A86.2,86.2,0,0,1,818.9,143Zm44.8-56.6-3.9,5.3-2.2,3c-2.9,3.9-6,7.9-8.1,12.4s-4,9.1-4.9,13.8c-0.4,2-.6,4.1-0.9,6.1l-0.4,2.8-0.7,5.1,1.3,0.4,0.2-.4,3.4-6.2c7.5-13.8,15.3-28.1,18.9-44.1l-0.9-.4ZM827,132.8l1.1,0.6,1.9-3.1-1.1-.6Zm6.7-10.7a11.2,11.2,0,0,0-2.3,5.2,24.3,24.3,0,0,1-.7,2.4l-0.6,1.6,1.3-1c1.7-1.3,3.6-6.3,3.1-8l-0.3-.8Zm-1.7-2.8a34.7,34.7,0,0,0-4.9,9.3l0.9,0.5a30.3,30.3,0,0,0,5.8-10.7l-0.9-.4Zm6.6-3.7c-2.1,1.1-3.5,7.2-3.6,10V127l0.9-1.1,0.6-.6a5.7,5.7,0,0,0,1-1.3,24.3,24.3,0,0,0,1.8-6.7l0.2-1a0.6,0.6,0,0,0-.3-0.6l-0.2-.2h-0.3Zm26.8-26c-2.7,10.3-7.5,19.8-12.1,29.1l-3.6,7.2,0.8,0.6h0.1l0.4-.3,1.4-1.7L855,121a27.3,27.3,0,0,0,5.7-9.5c0.5-1.4,1-2.9,1.5-4.3s1.4-3.7,2-5.6,1.4-5.3,1.9-7.9l0.7-3.2a1.4,1.4,0,0,0,0-.6h0V89.4l-1.2-.4v0.5Zm-25.5,26.6h1.2v-0.3l0.6-1.4,0.3-.7-1.3-.4Zm37.8-16.4a44.6,44.6,0,0,0,.2,13.2h1a40.3,40.3,0,0,0-.2-13.2h-1Zm-39.1,11.8,0.8,0.6c1.8-1.5,2.4-2.1,1.8-3.7l-0.4-1.1Zm31.6-1.7v0.5l0.6,1.8,1.2-.5-0.9-2.2Zm-21.2-8-3.7,7.9,1.3,0.6,0.2-.4,3.8-7.9h-0.1l3.4-4.7-0.8-.6-0.8.8a12.2,12.2,0,0,0-2.8,3.4l-0.2.4,1,0.7-1.2-.5Zm30.9,7.9h1.3v-2.3h-1.4v2.4ZM863.4,75.4a329.1,329.1,0,0,1-28.6,28.9l-0.4.3,0.8,1,0.3-.2,1.6-.8a26.4,26.4,0,0,1,3.4-1.6,33.1,33.1,0,0,0,11.5-7.2,45.2,45.2,0,0,0,9.3-12l0.5-.9c0.4-.8.8-1.5,1.2-2.3s0.8-2.1,1.2-3.1l0.5-1.3,0.2-.4-1.2-.6Zm-0.3-3.7-1,.5-2.2,1.2c-1.9,1-3.8,2-5.6,3.1a37.1,37.1,0,0,0-12.2,12.2c-1.6,2.7-3.1,5.6-4.5,8.4l-1.6,3.2a1.4,1.4,0,0,0-.1.7c0,0.1,0,.3,0,0.5v1.2l0.9-.8C847,93,855.7,83,864.4,72.7l0.3-.3-0.8-1Zm10.2,19.5a2.9,2.9,0,0,0-.4,1.5c0.2,1.6.4,3.3,0.6,4.9l0.3,1.8h1A5.8,5.8,0,0,0,875,97c-0.1-1.6-.3-3.1-0.4-4.7V90.7h-0.1l-0.3-4.9-1.4.2v0.5a9.8,9.8,0,0,1-.1,1.1,4.3,4.3,0,0,0,.7,3.5v0.2Zm-3.3-6.3,0.5,2.6,1.2-.2V84.5Zm-4.7-6.7-0.3.5-0.8,1.4-0.9,1.9-0.6,1.3,1.6,0.7,0.2-.5,1.8-4.9h0l1.3-2.7-1.6-.6Zm10.6-9.3,1.3,0.5,0.2-.3a19.8,19.8,0,0,0,3-9V59.5l-1.1-.4a23.6,23.6,0,0,0,2.4-9.8V48.9l-1.3-.4-5,15.2,1.5,0.5,0.2-.4,0.9-1.9,1-2.3Zm3.4-27.6-0.2.4a6,6,0,0,0-.5,1l-4.3,12.8a2.6,2.6,0,0,0-.1,1c0,0.2,0,.3,0,0.5V58l0.8-.7,0.3-.2a0.9,0.9,0,0,0,.4-0.4l1.5-4.3,2.6-7.4-0.5,1.4a12,12,0,0,0-.9,4.7h1a38.6,38.6,0,0,0,1.3-4.7V46.2a0.9,0.9,0,0,1,.2-0.4c1.6-1.3,1.4-3.1,1-4.6l-0.3-1.1-0.6,1-0.2.4-0.3.5V41l-1.2-.2Zm-3,14.3,1.3,0.8,1.2-2.5-1.2-.6Zm1.3-2.4,1.2,0.4,0.7-1.6-1.3-.6Zm1.3-16.7-1.4,3.4A64.9,64.9,0,0,0,873.7,51l-0.3,1.5,1.1-1c1.4-1.3,5.8-13.6,5.3-15.1l-0.4-1.5Zm5.1,8.2c-1.5,1.3-1.8,5.7-.5,7.1l0.8,0.9,0.6-8.8ZM879,9.1l-0.3.3a2,2,0,0,0-.5.6l-1.7,3.7-2.7,5.8-1.6,3.2c-0.9,1.7-1.8,3.5-2.6,5.4s-2.1,5.6-3,8.3l-1.6,4.4-0.5,1A8,8,0,0,0,864,43a3.9,3.9,0,0,0-.2,1.2c0,0.2,0,.3,0,0.5v0.4l1.4,0.4,0.2-.3,1.3-2.2c1-1.6,2-3.3,2.9-5h0.1c1.7-3.2,3.5-6.6,5-10s3.4-8.1,5-12.7a8.7,8.7,0,0,0,.1-5.9l-0.3-.8Zm-5.3,35.9,1.3,0.4,0.8-2.1-1.4-.5ZM881.6,11c-0.1.5-.2,1.1-0.3,1.6a7,7,0,0,0-.2,3.6l0.6,2.1a17.3,17.3,0,0,0,3.1,6.7,31.1,31.1,0,0,1,2.3,3.3l0.4,0.7,2,3.1,2.2,3.4,1.5,2.1,1.3,1.8,1.9,3,1.1,1.7,1-.4V42.9c0-.3.1-0.7,0.1-1a4.9,4.9,0,0,0-.1-0.7V40.9c-0.6-4.8-2.7-9-5.2-13.6-1.3-2.4-2.8-4.7-4.3-7l-2.1-3.2-1.7-2.8L883.2,11a0.8,0.8,0,0,0-.7-0.3h-0.8V11Zm-4.1-6a41.7,41.7,0,0,0-7.2,6.7A29.8,29.8,0,0,0,865,23.1,69.6,69.6,0,0,0,862.6,36a26.2,26.2,0,0,0,0,3.1c0,0.5.1,0.9,0.1,1.4v1.7l0.9-1.5a19.2,19.2,0,0,0,1.5-3.2l0.3-.7,1.2-3c1.1-2.9,2.3-5.9,3.6-8.7s1.5-3,2.3-4.4,1.4-2.4,2-3.7c1.4-2.9,2.7-5.9,3.9-8.8l0.2-.4a6.3,6.3,0,0,0,.4-1.7V4.9l0.2-1.3Zm2,34.5h3V34.3l-1.2-.2Zm2-36.1a7.2,7.2,0,0,0,.5,2.9c1.2,2.5,2.6,4.9,3.9,7l2.4,4,2.4,3.9,3.2,5.6,1.6,2.8,0.7,1.2,0.5,0.9,1.3-.3V30.3l-0.2-1.7c-0.1-.6-0.2-1.3-0.2-1.9a25.2,25.2,0,0,0-.8-4.7,31.6,31.6,0,0,0-2-4.6l-1-2.1C892,11.5,889,8.8,886,6.2c-1.2-1.1-2.5-2.2-3.7-3.4l-0.9-1V3.5Zm-2.7,26.8,0.5,0.2,0.8,0.2,0.6-2.1-1.4-.3Zm-5.8-75.5c-2.2,10.7-3.7,21.5-5.1,31.9l-0.8,6.3h0.7a2.5,2.5,0,0,0,1.4-1.5c3-5.8,6.8-32.1,4.7-36.6l-0.6-1.4ZM883-43a5.4,5.4,0,0,0,.6,2.4l1.1,2.3c1,2.2,2.1,4.5,3.2,6.7l0.5,0.9c3.5,7.1,7.1,14.4,12.1,20.8L901-9.2,901.3-9l0.3,0.3,0.7-.5c0.4-.3.4-0.3-1.5-3.8L897-20.1l-6.4-11.8-1-1.7-4.1-7.1-1.2-2-0.4-.5v-0.2l-0.9-1V-43Zm-1.9-3.3,1.1,2.2,1.3-.6-1.3-2.2ZM843.4-10.9a1.2,1.2,0,0,1-.4-0.5c-0.1-1.5-.1-3.1-0.1-4.6v-0.5q0-4.9,0-9.7c0-.6,0-1.2,0-1.8,0-4.8,0-9.2,1.8-13.7s2.5-6,4.8-8.2a25,25,0,0,1,4.1-3.2h1.6a20.6,20.6,0,0,0-4.4,3.2,23.3,23.3,0,0,0-6.7,13.5,54.6,54.6,0,0,0-.6,6.8c0,1.2,0,2.4.1,3.5v2L845-24v-0.4l0.2-.8a9,9,0,0,1,.4-1.6l1-2.4A85.6,85.6,0,0,1,851.6-40a39,39,0,0,1,6.9-9.2,27.5,27.5,0,0,1,5.3-3.9h6.1l-0.4.2c-3,1.6-4.9,4.1-6.6,6.5l-2.3,3.1c-1.7,2.2-3.4,4.5-5,6.8a53.1,53.1,0,0,0-3.5,6.2c-1.1,2.2-2.1,4.5-3,6.7v0.2l-1.3,3.2-1.4,3.4c-0.9,2-1.8,4-2.8,5.9h-0.2Zm20.9-41.3-0.8.4-1.7,1a27.9,27.9,0,0,0-5.9,5.9l-1.7,2a29.3,29.3,0,0,0-3.9,6.6l-0.3.6c-1.2,2.4-2.2,4.9-3.1,7.3l-0.7,1.6a25.3,25.3,0,0,0-1.3,3.9c-0.3,1.4-.5,2.8-0.7,4.2l-0.3,1.8v0.5l1.3,0.3,0.2-.3c1.3-2.6,2.4-5.4,3.4-8.1a72.7,72.7,0,0,1,4.7-10.4A106.1,106.1,0,0,1,862-47l3.2-4.2,0.3-.4-0.9-.8Z"/><path class="b" d="M938,53.5l-1-6.8c-0.8-5.8-1.6-11.2-2.4-16.7a140.7,140.7,0,0,1-.7-23.7c0.1-1.5.2-3.1,0.3-4.6h1.3c-0.8,1.3-.8,3-0.4,5.8V8.3l0.6-.4L938,6.8l4-2.2L946.2,2l0.5-.3h0.9L934.7,8.9V9.6a12.2,12.2,0,0,0-.1,1.7c0,1.3.1,2.5,0.2,3.9v2.5l0.7-.3,3.7-1.6c3.3-1.5,6.5-2.8,9.6-4.5,0.9-.5,1.3-1.7,1.7-2.8l0.4-1.1a46.6,46.6,0,0,0,2-5.7h2.6a8.5,8.5,0,0,0,.8,3.4l1.8,4,5.5,12.1c0.4,0.9.7,1.8,1.2,3l0.8,2,0.3,0.8,0.5-.6,1.8-1.9a31.7,31.7,0,0,0,4-4.7c0.5-.8,0-2-0.6-3.3l-0.4-1.1-5-13.6H967c1.1,2.8,2.2,5.7,3.3,8.5L973,17l0.2,0.6,0.5-.4c2.4-1.8,2.9-3.7,1.7-6.3l-4.2-9.3h1.2l3.6,8.4,0.5,0.9,0.4,0.6,0.3,0.5,0.4-.4c1.8-1.9,2.7-3.6,1.6-6.3L978,1.7h3.6L982,2.8l0.5-.7,0.3-.4h1.7a89.7,89.7,0,0,1-11.7,18.9,64.6,64.6,0,0,1-9.3,9l-4.8,4.2L942.3,49.1l-3.3,3.4Zm2.5-5.3,1.4-1.3,1.3-1.3c1.2-1.1,2.4-2.2,3.6-3.4a2.8,2.8,0,0,0,.4-2.3c-0.3-1.4-.7-2.8-1-4.2l-0.4-1.4-0.4-1.7Zm0.6-10c-4.2,2.6-4.4,3.2-2.9,8.4l0.4,1.5,3.7-10.6Zm2.7-11.7-2,1.1a40.2,40.2,0,0,0-4.5,2.7,4.4,4.4,0,0,0-1.3,3.2,32.5,32.5,0,0,0,.3,4.3l0.2,1.8v0.7l0.6-.2c4.8-1.8,7.4-6.4,7.4-13V26.1Zm4.3-6.4v0.4c-0.1.4-.2,0.8-0.3,1.2a5.5,5.5,0,0,0-.3,2.8c0.8,2.9,1.7,5.7,2.7,8.5l1,3.2v0.4h0.5c1.6-.4,2.7-0.9,3.2-1.8s0.2-1.7-.5-3.3l-3.4-7.7-1.6-3.6h-1.4ZM952.6,8c-1,2.6-1.9,5.1-2.7,7.6a4.1,4.1,0,0,0,.2,2.7l4.9,10.8,2,4.4L959,32l4.7-3.8c0.5-.4.2-1.5,0.1-1.8L955.3,5.7a1.1,1.1,0,0,0-.4-0.4l-0.4-.3-0.5-.5Zm-4.3,4.4-2.6,1.3a38.8,38.8,0,0,1-4.7,2.2c-7.3,2.6-6.9,8.2-5.6,13.3l0.2,0.6,0.6-.3,2.5-1.4c2.3-1.2,4.6-2.5,6.8-4a3.8,3.8,0,0,0,1.1-2.6l0.2-1,1.4-5,1-3.6Z"/><path class="b" d="M177.5,66.8c-2.1,0-4.2-2-5.4-5a4,4,0,0,1,.7-4.2l1.6-1.8,1.1-1.2-0.2-.3-0.5-1a14.5,14.5,0,0,0-1.2-2.1c-5.4-7.1-10.6-14.1-16.1-20.8a22.5,22.5,0,0,0-1.9-2l-1.1-1.1-0.6-.6-0.3.7-0.4.9a4.9,4.9,0,0,0-.4,1.4c-0.2,2.2-.4,4.5-0.6,6.9a8.7,8.7,0,0,0,.9,5c1.2,2.3.3,6.1-2,7.7a3.1,3.1,0,0,1-1.8.6c-1.8,0-3.6-1.5-4.9-2.8a4.1,4.1,0,0,1-.2-6,12.6,12.6,0,0,1,2.6-2.1l2.1-1.1,1.1-.5h0.2V37.4a28.7,28.7,0,0,0,1-8.7c0-1.3,0-2.6.1-3.8a2.8,2.8,0,0,0-.1-1.2,2.8,2.8,0,0,0-.6-0.9C143,14.6,134.7,7,126.9,0l-1.1-1.1a7.5,7.5,0,0,0-3-2.4l-0.7-.2v0.7a18.7,18.7,0,0,0,.7,3.4,21.8,21.8,0,0,1,.6,2.9c0.2,1.3.3,2.6,0.4,4.1,0.3,4,.6,8.5,2.4,11.9a4.6,4.6,0,0,1,.2,3.9,5.8,5.8,0,0,1-3.7,3.5h-0.8c-1.5,0-2.3-1.2-3.3-2.9a9.4,9.4,0,0,1-.8-2.2,3.8,3.8,0,0,1,1.6-4.6l2.3-1.3,1-.5H123V14.7c0.4-6.1-1.2-15.5-3.5-20.2-1-2.1-3.1-3.6-5-5l-1.3-1c-2.6-2-5.4-4-8.5-6.2C99-21.6,93-25.3,87.4-28.8L85-30.1l-1.3-.7L83-31.1v0.8c0,0.3,0,.5-0.1.7a1.9,1.9,0,0,0,.1,1.2l4.7,8.6L91-13.6a7.8,7.8,0,0,0,3.9,3.4,24,24,0,0,1,3.4,1.8,6,6,0,0,1,2.6,7.2,4.3,4.3,0,0,1-4,3.4l-1.4-.2a14.1,14.1,0,0,1-6.5-3.9A6,6,0,0,1,87.8-9a19.4,19.4,0,0,1,1.1-2l0.6-1h0.1a10.5,10.5,0,0,0-2-5l-0.3-.6c-3.1-5.1-6.4-10-9.5-14.5a8.3,8.3,0,0,0-3.1-2.7,200,200,0,0,0-23.3-10,16.5,16.5,0,0,0-3.5-.7l-2-.3-1-.2,0.5,0.9c0.5,0.9,4.1,6.2,6.5,9.7l1.7,2.6-0.3.8,1-.4,0.9-.2a3.1,3.1,0,0,1,1.7.5,4.3,4.3,0,0,1,1.8,2.3h0.1a8.4,8.4,0,0,1,.1,7.7,7.2,7.2,0,0,1-5.3,4.1H52.3c-2.5,0-4.5-1.4-5.7-4.3a5.6,5.6,0,0,1,2.1-6.8l2.2-1.5,1.1-.8,0.3-.2-0.2-.4a37.8,37.8,0,0,0-6.9-11A35.6,35.6,0,0,0,42-46.2l-1.5-1.3a14,14,0,0,0-4.8-2.9A80.7,80.7,0,0,0,26-53.1h3.7a23.4,23.4,0,0,0,6.1.9,15.8,15.8,0,0,0,5.3-.9h2.5l-1.5.7a1,1,0,0,0-.6.7,1,1,0,0,0,.3.8h0.1a4.5,4.5,0,0,0,1.7,1.4l0.6,0.2c2.4,0.9,4.8,1.9,7.3,2.6a116.1,116.1,0,0,1,14,5.7c2.7,1.2,5.5,2.5,8.3,3.7a9.6,9.6,0,0,0,3.5.8c8.7-.1,18.8-0.4,28.8-3.6h0.3v-0.3l0.3-1.1c0.2-.8.4-1.7,0.7-2.5s2.1-3.1,3.6-3.1h0.3c2.5,0.3,3.9,1.2,4.7,3a10.1,10.1,0,0,1-1.5,9.5,3.8,3.8,0,0,1-2.9,1.5H111c-1.7-.3-2.7-1.9-3.7-3.4l-1-1.4-0.2-.2h-0.3l-3.5.7c-2.7.6-5.2,1.1-7.7,1.5s-5,.6-7.4.8l-3.3.3H83.2l0.2,0.6v0.5a1.3,1.3,0,0,0,.5.9l0.7,0.5,5.6,3.6,5.3,3.1,8.4,5.1a116.8,116.8,0,0,1,10.4,7.8l2.1,1.7c4.3,3.4,10.1,4.1,15.6,4.8,2.1,0.3,4,.5,5.9.9l1.5,0.2a4.4,4.4,0,0,0,3.5-1.6,9.7,9.7,0,0,1,2.6-1.8l0.9-.5a5,5,0,0,1,2.5-.7,4.1,4.1,0,0,1,3.7,2.7,9.8,9.8,0,0,1-1.6,9.5,4.8,4.8,0,0,1-3.6,1.5A4.9,4.9,0,0,1,142.6.5L142-1.9l-0.4-1.5h-0.3a67.4,67.4,0,0,0-13.1-2.3l-3.5-.4h-1.1l0.6,0.9,0.6,0.9a4.7,4.7,0,0,0,.8,1.1l9.9,9L138.2,8a29.1,29.1,0,0,1,5.8,5.7c4,4.5,9.3,8,16.7,10.8,3.2,1.2,6.5,2.3,9.7,3.4l4.4,1.4h0.2l0.7-.4a8.8,8.8,0,0,1,3.7-1.3,3.9,3.9,0,0,1,2.5,1,5.8,5.8,0,0,1,1.5,6.1,5.4,5.4,0,0,1-5.6,3.9h-0.4a2.9,2.9,0,0,1-2.4-1.5,8.3,8.3,0,0,1-1.3-6V30.8l-0.3-.2a50,50,0,0,0-8.9-3.4l-3.1-1.1a39.9,39.9,0,0,0-5.2-1.6l-0.2,1H156a15.5,15.5,0,0,1,1.5,1.9l0.7,0.9,2.3,2.8,1.3,1.6c3.2,3.9,6.4,8,9.5,12.4,0.7,1,1.4,2.2,2.2,3.4,1.8,3,3.9,6.4,6.6,8.2s3.5,4,1.5,7.3S179,66.8,177.5,66.8Zm-0.7-8.9a3.1,3.1,0,0,0-3.1,2.1,5.8,5.8,0,0,0,1.1,4.6,3.6,3.6,0,0,0,2.8,1.7h0.4a3.1,3.1,0,0,0,2.1-2c0.6-1.4.8-3.5,0.1-4.7A4.1,4.1,0,0,0,176.8,57.9Zm-28-17a3.8,3.8,0,0,0-1.7.5,3.7,3.7,0,0,0-2,2.3,4,4,0,0,0,.7,3.2h0.1l0.3,0.3a7.9,7.9,0,0,0,1.7,1.2l1,0.2a2.4,2.4,0,0,0,1.3-.3,4.3,4.3,0,0,0,1.6-5.3A3.2,3.2,0,0,0,148.8,40.8Zm29.8-11.6a2.3,2.3,0,0,0-1.5.5,4.2,4.2,0,0,0-.6,6.3,3.2,3.2,0,0,0,2.6,1.2,3.1,3.1,0,0,0,2.1-.8,4.2,4.2,0,0,0,.5-5.6A3.9,3.9,0,0,0,178.6,29.3ZM121.8,18.4a2.4,2.4,0,0,0-1.7.7,2.2,2.2,0,0,0-.6,1.7,6.1,6.1,0,0,0,1.1,3.1,2.1,2.1,0,0,0,1.7.9,3,3,0,0,0,2.8-2.7,3.8,3.8,0,0,0-2.1-3.4A2.8,2.8,0,0,0,121.8,18.4Zm26.6-26a4.5,4.5,0,0,0-2,.5,4.5,4.5,0,0,0-2.6,4.4c0.1,1.7.4,3.5,2.3,4.6a3.5,3.5,0,0,0,1.7.5,3,3,0,0,0,2.4-1.2,7.1,7.1,0,0,0,1.3-6A3.2,3.2,0,0,0,148.3-7.5ZM91.8-9.3l-1.3.2a3.6,3.6,0,0,0-1.6,1.3,3,3,0,0,0-.5,2.5c0.5,2.3,3.5,4.2,6,5.6A3.4,3.4,0,0,0,96,.7,3.4,3.4,0,0,0,98.7-.8a3.9,3.9,0,0,0,.4-3.6A9.4,9.4,0,0,0,91.8-9.3ZM54.1-29.7c-2.7,0-5.7,2.2-6.1,4.5a4.9,4.9,0,0,0,1,4,4.6,4.6,0,0,0,3.5,1.6,5,5,0,0,0,2.4-.6,6.8,6.8,0,0,0,2.9-4.5,4.4,4.4,0,0,0-.7-3.7A3.8,3.8,0,0,0,54.1-29.7Zm57.4-15a2.5,2.5,0,0,0-2.5,2.1l-0.2.8a10.3,10.3,0,0,0-.3,1.7,4.6,4.6,0,0,0,1.1,3.6,2.8,2.8,0,0,0,2.1.9h0.6c1.4-.3,2.8-1.9,2.6-4.6a7,7,0,0,0-1.3-3.4A2.5,2.5,0,0,0,111.6-44.8Z"/></g></svg>