<svg xmlns="http://www.w3.org/2000/svg" width="240.3" height="990.8" viewBox="0 0 240.3 990.8"><defs><style>.a{opacity:0.2;}.b{fill:#e5e1cf;}</style></defs><title>foliage-right</title><g class="a"><path class="b" d="M864.3,784.8c4-7.7,10.3-13.4,16.9-19.3,3.4-3,6.9-6.2,10.1-9.7l0.9-1-5.3.6-8.6,1-1.5.2c-2.9.3-5.8,0.6-8.3,2.4a27.3,27.3,0,0,0-4.1,3.8l-1.2,1.2a42.8,42.8,0,0,1-19.6,11.6,20.3,20.3,0,0,1-5.4.7,47,47,0,0,1-11.3-1.9l-5.6-1.3a7.7,7.7,0,0,1-2.2-1l-0.8-.4v-0.4c9.5-5.3,19.7-8.2,30.6-11.2l11.7-3.4,1.5-.5-5.7-1.9-11.7-3.8h-0.8a7.6,7.6,0,0,0-2.2.4,43.5,43.5,0,0,1-12.4,1.8,28.6,28.6,0,0,1-4.8-.4,24.3,24.3,0,0,1-8.3-3.5,29.4,29.4,0,0,1-8.1-6.9c6.8,0.5,13.6,1.2,20.4,2.1a15.5,15.5,0,0,1,6.3,1.8l0.6-.8a23.1,23.1,0,0,0-3.5-3.1,23.9,23.9,0,0,1-3.3-2.9,49.4,49.4,0,0,1-6.3-9.1c-1.7-3-3.4-5.8-5.5-9.2-0.2-.3-0.8-1.8-1.4-3.3s-1.9-4.7-2.4-5.6a25,25,0,0,1,7.3,1.5c6.5,2.5,11.2,9.1,15.4,14.9l1.1,1.5c3.5,4.8,6.9,10,6.9,16.4,0,1.1,1.5,2.4,2.5,2.7,4.6,1.7,9.2,3.1,13.9,4.6a14.8,14.8,0,0,0,2.6.5l1.6,0.2,1.1,0.2-0.6-1-0.7-1-0.7-1.1-2.6-4.5a78.5,78.5,0,0,1-5.5-10.5c-1-2.4-1.8-4.9-2.6-7.4-2-5.9-4-12-8-17.2h0c0-.6,0-1.1,0-1.7h0.1l1.2,0.3,0.4,0.2c2.4,1.2,4.8,2.5,7.1,3.9,6.8,4.1,11.2,9,13.5,14.8l1.3,3.2c2.8,6.7,5.7,13.5,2.9,21.2l-0.2.6h0.6l4.2,0.2c7.3,0,18.1-1.4,20-3l0.4-.3-0.3-.4-0.3-.4a4.1,4.1,0,0,0-.8-1l-3.3-2.4c-1.9-1.4-3.8-2.8-5.6-4.3-6-5-9.2-18.5-6.2-25.8a2,2,0,0,1,1-.3h0.2a4.8,4.8,0,0,1,1.5,1.4l0.2,0.2c7.7,8.8,12.8,19.4,16,33.3v0.4l8.2-1.1-0.4-.7-0.8-1.3-1.2-2-0.8-1.5a7.4,7.4,0,0,1-1.4-3.4c0.1-4.9.3-10,.6-14.8,0.1-2.7.3-5.4,0.4-8.1a26.5,26.5,0,0,0-.1-2.7,16.3,16.3,0,0,1,.1-4.2c1.6,0.3,2.7,2,3.7,3.6l1.1,1.6a17.7,17.7,0,0,1,3.5,6.7,29.7,29.7,0,0,1,.1,16.9l-1.6,5.6-1,3.7,30.7-2.9-0.7-.7-1.4-1.5a31.7,31.7,0,0,1-2.5-2.8l-1.3-1.7a17.7,17.7,0,0,1-3.4-5.2c-2.5-7.6-4.9-15.9-7.6-26.1h-0.1c-0.5-.5-0.2-3.3-0.1-4.6s0.1-1.2.1-1.5a0.7,0.7,0,0,1,0-.2l0.6-.2c3.7,0,12.4,12.4,13.8,15,3.8,6.9,5.7,15,6,25.2v0.2c0.1,4.4.3,4.8,4.9,4.8a166.6,166.6,0,0,1,33.3,3.6,34.5,34.5,0,0,0,4,.5l1.8,0.2h0.4l0.5-1.5-0.3-.2-2.1-1.5a30.6,30.6,0,0,0-4.9-3,21.8,21.8,0,0,1-11.7-12.6,22.6,22.6,0,0,1,1.2-17.8,2.8,2.8,0,0,1,.7-0.8H971a3,3,0,0,1,.7.8l1.1,2.6a38.1,38.1,0,0,0,1.8,4l5.2,9.4c3.4,6,6.9,12.3,10,18.6,1.8,3.6,4,3.8,6.9,4h1.4l-0.5-.8c-4-7.1-4.6-17.8-1.5-25.4,1.1-2.6,3-5.9,6.3-7.3v0.2a3.5,3.5,0,0,0-.4,1.3l-0.2,3.8c-0.4,7.1-.7,14.3.2,21.4,0.4,3.1,1.1,8.3,4.9,9.9a46.5,46.5,0,0,0,6.2,1.9,41.2,41.2,0,0,1,6.8,2.2l7.9,3.7v1.6l-1.8-.7-1.2-.2-1.4.2-3.8,1.7c-2.5,1.2-4.9,2.3-7.5,2.6l-4.1.2c-3,0-6-.2-9-0.5l-4.8-.3a2.8,2.8,0,0,1-1-.6l-0.6-.4,16.8-7.3,0.2-1.5h-0.4l-4.3-1.3c-3.5-1.1-7.1-2.2-10.8-3a14.2,14.2,0,0,0-3.2-.4,7.2,7.2,0,0,0-3.4.7c-3.1,1.7-6.1,3.5-9,5.4s-5.2,3.2-7.8,4.7c-6.3,3.5-11.5,5.1-16.5,5.1a22.9,22.9,0,0,1-8.1-1.5l-2.8-.8-0.8-.2c8.1-7.7,17.8-12.6,30.3-15.5l1.2-.3-1.1-.6-0.8-.5-0.8-.3H970l-22.2-1.9h-0.3a4,4,0,0,0-2.4.8c-2.7,2.3-5.5,4.7-8.1,7.3s-2.2,2.4-3.1,3.7a41.1,41.1,0,0,1-3.8,4.3c-8.6,8-17.8,11.9-28.1,11.9h-0.2a6.6,6.6,0,0,1-2-.5l-0.7-.2,4.2-3.9c9-8.5,17.4-16.6,28.9-22.1l1.6-.8-1.8-.2h-1.8l-7.5.9-19.6,2.4c-5.7.8-5.8,1.2-6.3,6.6v0.5a15.2,15.2,0,0,1-1.8,5.7c-4,7.4-11.3,11.3-17.7,14.3-2.9,1.3-5.9,2.4-8.9,3.5l-3.7,1.4Zm18.3-62.2,1.6,2.5,0.5-.2,1-.7-1.8-2.4Z" transform="translate(-788)"/><path class="b" d="M1026.9,632.2a2.7,2.7,0,0,1-2.3-1c-1.5-2,.9-5.7,3.2-8.7v9.6h-0.9Z" transform="translate(-788)"/><path class="b" d="M968.1,645.1a4.4,4.4,0,0,1-2.9-1.3,3.6,3.6,0,0,1,.7-2.9,110.5,110.5,0,0,1,9.7-8,27.1,27.1,0,0,1,6.9-3.8c1.4-.6,2.8-1.2,4.1-1.9l-0.3-.9h-3.9c-3.8,0-7.8,0-11.2,1.4l-5,2c-5.2,2.2-10.6,4.4-16,6.3a17.6,17.6,0,0,1-5.3,1c-1.5,0-2.5-.3-3-1a2,2,0,0,1-.4-1.7c0.4-1.4,2.2-2.6,3.7-3.2l3.6-1.5c2.6-1.1,5.3-2.1,7.8-3.4l1-.5-1-.4a10.4,10.4,0,0,0-3.7-.5l-2.5-.2c-2.7-.5-5.4-1.3-7.6-2l-2.5-.8c-6.7-2-13.7-4.1-20.3-6.6a7.7,7.7,0,0,1-5.3-7.1,3.4,3.4,0,0,1,.9-2.5c1-1,2.7-1.5,5-1.5a22.3,22.3,0,0,1,8,1.6c3.6,1.6,7.1,3.6,10.6,5.6l5.8,3.2c4.8,2.5,9.7,5,14.4,7.3h0.1l0.6-.8a65.1,65.1,0,0,0-9.6-7.4l-1.9-1.1c-2.5-1.5-5.2-3-7-5.2a4,4,0,0,1-1.1-3.5,4.8,4.8,0,0,1,2.8-3.2,6.6,6.6,0,0,1,2.9-.7,8.7,8.7,0,0,1,5.1,1.9c4.5,3.3,8.9,6.9,12.8,10.3l0.2,0.2a91.7,91.7,0,0,1,9.6,9h0.1c1.3,1.5,2.4,2.8,4.5,2.8h0.8l4.5-.7,16.3-2.5a6.1,6.1,0,0,0,1.7-.7l1.3-.6,1.3-.6-1.3-.4-1.4-.4-1.5-.4-5.5-1.2a88,88,0,0,1-12.5-3.2c-2.4-.9-9.5-4.5-10.4-7.9a2.4,2.4,0,0,1,.6-2.3,3.7,3.7,0,0,1,3-1.2c3.2,0,7.4,2,10.2,3.4l1.6,0.7a120.9,120.9,0,0,1,15.1,8.3l1.1,0.7c2.1,1.4,4.6,3,6.9,3h0.3c2.5-.1,5-1.3,7.4-2.4l3.1-1.3,0.6-.2-0.4-.5-0.2-.2a1.1,1.1,0,0,0-.5-0.5l-1.7-.5c-8.1-2.3-16.4-5.2-22.8-11.5a5.7,5.7,0,0,1-1.5-4,4.4,4.4,0,0,1,2.8-1.3h0.2a46.1,46.1,0,0,1,11,3.1c3.6,1.7,7.1,3.6,11.2,5.9l1.5,0.8,4.1,2.2,1.2,0.7,1.6,1v4.6c-2.1,1-4.2,2.1-5.5,3.8-5,6.4-10.6,13.7-17.8,18.9-2.6,1.9-4.8,2.9-6.6,2.9h0a3.7,3.7,0,0,1-2.2-.7c-1.5-1.1-1.6-2.2-.4-4.1s3.9-4.4,6.3-6.2,2.4-1.9,3.6-2.9l3.4-3,1.1-.9h-1.4c-3.8.1-9.3,2.4-12.5,4.5a41.5,41.5,0,0,0-6.2,5.4l-2.8,2.7c-6.3,5.7-12.1,8.9-18.2,10.2h-0.4Zm-14.8-30.3,3.3,1.8,0.8-1.3-3.2-2Z" transform="translate(-788)"/><path class="b" d="M1027.8,602.7l-1.1-.5a50,50,0,0,1-10.2-6,2.9,2.9,0,0,1-1.4-2.6,3.5,3.5,0,0,1,2.5-2.4,12.8,12.8,0,0,1,4.6-.9,17.2,17.2,0,0,1,5.6,1v11.3h0Z" transform="translate(-788)"/><path class="b" d="M1027.8,990.8l-1.4-2a1.8,1.8,0,0,1-.2-0.7h0.8l0.8,1v1.6h0Z" transform="translate(-788)"/><path class="b" d="M1027.8,944.4l-0.7-2.5-0.2-.5a3.2,3.2,0,0,0-1.2-1.8,28,28,0,0,1-2.3-2.6l-2.2-2.8-2-2.6-1.8-2.2-1.8-2.2a1.2,1.2,0,0,1,0-.3h0.6l0.3,0.3,0.7,0.9,2.8,3.4,1.9,2.5,1.6,2.1a1.8,1.8,0,0,0,.7.5l0.5,0.3,0.5-.9h0.1a13,13,0,0,1-.6-2.7l-0.2-.9-0.2-.8a6.5,6.5,0,0,0-.8-2.4,49.9,49.9,0,0,0-3.8-4.5l-1-1.1a38.1,38.1,0,0,0-5.5-5.3,10.7,10.7,0,0,1-2.1-2.3,1,1,0,0,1,.1-0.6h0.7a5.8,5.8,0,0,1,1.4,1.2l3.1,3.3,2.2,2.4,1.3,1.2,0.6,0.6,1.1,1.1-0.3-1.5a9.8,9.8,0,0,0-.8-2.5l-0.6-1.4a12.1,12.1,0,0,0-1.9-3.5,59.5,59.5,0,0,0-6.1-5.8l-0.4-.3c-1.9-1.6-3.9-3.2-6.2-4.8h-0.1l-0.5-.5h0.1l0.7-.2h0.3l7.8,6.1,0.5,0.4,1.7,1.5,0.8,0.7,0.8-.5a24.8,24.8,0,0,0-1.3-2.9l-0.3-.5-0.4-1a4.7,4.7,0,0,0-1.2-2c-2.4-2.1-5-4.1-8-6.3l-5.3-3.6-3.3-2.2v-0.2h0.4a4.1,4.1,0,0,1,1.6.5l5.5,3.8,3.2,2.3,1.6,1,1,0.6,1.2,0.7-0.5-1.3a15.4,15.4,0,0,0-3.9-5.8,14.5,14.5,0,0,0-2.4-1.9h-0.2l-6.1-4.1-3.2-2-3.6-2.2a1.1,1.1,0,0,1-.2-0.6l0.7-.2h0l0.5,0.2,9.3,5.8,1.5,1,1.8,1.2-0.2-1.2a9.6,9.6,0,0,0-3.8-5.8,18.8,18.8,0,0,0-2.6-1.6l-1.2-.7-1.8-1.1-4-2.4-4.3-2.2-1.4-.7,0.2-.3h0.6c3.4,0.8,6.4,2.7,9.1,4.3l1.9,1.1,1.2,0.7,0.9-.9-0.2-.3-1.2-1.9a27.7,27.7,0,0,0-3.2-4.4,14.5,14.5,0,0,0-4.3-2.7l-0.9-.4-3.5-1.5-2.1-.9-2.8-1.3-0.6-.3,0.5-.2h0.5a7.8,7.8,0,0,1,3.6,1.2l0.6,0.3,3.9,1.9,2,1,0.9-.9-0.3-.4-1.3-1.5a12.9,12.9,0,0,0-3.2-3.2,33,33,0,0,0-6.1-2.6l-2.1-.8-2-.6-1.7-.5v-0.2l0.2-.2,5.5,1,2.1,0.7,1,0.4,0.5-.8c-2.7-3.1-6.3-4.7-9.5-5.8s-4.9-1.6-7.3-2.3l-2.3-.7a4.1,4.1,0,0,1,1.8-.4l1,0.2,9.1,3.4,0.9,0.5,0.5,0.3,0.5,0.3,0.5-1.3v-0.2h0a1.1,1.1,0,0,0-.4-0.6l-1.6-1.3a30.6,30.6,0,0,0-4.1-3,20.6,20.6,0,0,0-6.7-2.5,58.4,58.4,0,0,1-6.4-1.6l-2.5-.7-1-.4h1.1c3.7,0,7,1.2,10.6,2.4l2.1,0.7,1.6,0.5-1-1.3a11.8,11.8,0,0,0-1.8-1.8l-0.7-.6-2.5-2a15.1,15.1,0,0,0-2.8-1.6l-1.4-.3h-0.7l-1.2-.2-9-1.9-0.7-.4,0.6-.4,5.4,0.7H959l2.3,0.4,1.4,0.3,0.6-1.2-0.3-.2-1-.8a13,13,0,0,0-2.4-1.7,24.7,24.7,0,0,0-7.6-2.2l-3.2-.3-2.5-.2-1.2-.3a6.3,6.3,0,0,1,3.1-.7,19.1,19.1,0,0,1,3.7.5,26,26,0,0,0,3.4.5h1.2l-0.8-.9-0.3-.3-0.4-.4c-3.1-2.6-6.8-3-10.3-3.1h-1.8c-1.9,0-2.3-.3-2.3-0.3v-0.2a2.9,2.9,0,0,1,1.5-.3h0.5l3.5-.3h0l0.6-.8-0.4-.4a2.1,2.1,0,0,0-.9-0.6l-0.9-.2c-1.9-.5-3.8-1-5.7-1.4l-2.3-.2a9.9,9.9,0,0,1-3.3-.5,1,1,0,0,1-.6-0.7h0.5l1.6,0.2,1,0.2h0.7a8.9,8.9,0,0,1,3.3.8l0.5-.8a96.1,96.1,0,0,0-9.3-5l-1.6-.7a13.1,13.1,0,0,1-3-1.5,1.5,1.5,0,0,1-.6-1,0.6,0.6,0,0,1,.4-0.2H926a5.9,5.9,0,0,1,2.1.9l0.8,0.4,2.7,1.3,4.5,2.1,1.1,0.4c1,0.4,2.5.9,2.8,1.5l0.9-.5a62,62,0,0,0-5.7-7.9l-0.9-1.1a2.1,2.1,0,0,1,1,.1,16.9,16.9,0,0,1,2.5,2.8,31.8,31.8,0,0,1,1.8,2.7,23.6,23.6,0,0,0,2.7,3.8,26.2,26.2,0,0,0,5.2,3.9l0.5,0.3,0.5-.8a13,13,0,0,1-3.6-4.4l-0.6-.9c-0.6-1-1.4-2-2.1-3s-1.4-1.9-2-2.9l-0.2-.3a0.5,0.5,0,0,1,.5-0.2,1,1,0,0,1,.7.2c1.5,1.9,2.8,4,4,6a59.4,59.4,0,0,0,5.1,7.3l0.2,0.3c1.2,1.5,2.4,2.9,3.5,2.9a1.1,1.1,0,0,0,.8-0.3c0.8-.8-0.3-2.7-1.9-5l-0.6-.9-3.1-5.8a0.9,0.9,0,0,1,0-.2h0.1a18.3,18.3,0,0,1,1.8,2.4c1,1.7,1.9,3.4,2.7,5.1a40.9,40.9,0,0,0,5.4,8.8,10.2,10.2,0,0,0,4.1,2.8l0.7,0.3v-0.8a9,9,0,0,0-1.2-3.7l-1.9-3.6a40.4,40.4,0,0,1-3.5-7.4h0.4a1.8,1.8,0,0,1,.5.6l0.3,0.4a9.5,9.5,0,0,1,1.1,2.4,13,13,0,0,0,.9,2.1l0.9,1.4a22.4,22.4,0,0,1,1.7,3.2l0.5,1.3,1.3,3.2v0.2c1.1,2.4,2.9,6.5,6.2,6.5h1l-0.2-.6-0.4-1.5a31.9,31.9,0,0,0-1-3.2c-1.2-3.2-2.6-6.4-3.8-9.5l-0.7-1.3-0.6-1.2a1.2,1.2,0,0,1,.2-0.5h0.3l0.5,0.7a25.4,25.4,0,0,1,2.2,3.6,42.3,42.3,0,0,1,1.5,4.1l0.6,1.9,0.4,1a7.1,7.1,0,0,1,.6,1.9,16.7,16.7,0,0,0,2.6,6.7l0.3,0.4c2.8,5,3.9,6.1,4.7,6.1h0.3l0.7-.4-0.5-2.1-0.9-3.8c-0.2-.9-0.4-1.8-0.6-2.7a20.6,20.6,0,0,0-1.9-6.2v-0.4h0l0.6,0.3a22.2,22.2,0,0,1,1.3,4c0.3,1.4.6,2.8,0.8,4.1s0.5,2.7.8,4a21,21,0,0,0,2.3,6.3l0.2,0.4a11.9,11.9,0,0,0,1.4,2l0.8,0.6a2.2,2.2,0,0,1,.9.8l1-.2-0.7-2.9-1.4-6.2-0.6-2.4c-0.3-1.2-.6-2.3-0.8-3.5a0.8,0.8,0,0,1,.2-0.5h0.3a22,22,0,0,1,1,3c0.2,0.6.3,1.3,0.4,2l0.2,1,0.4,1.9a18.4,18.4,0,0,1,.7,4.2c0,4.4,3.5,9.2,6.5,12.5l0.8,0.9V868a32.3,32.3,0,0,0-1.3-9.1l-0.4-1.8c-0.1-.6-0.3-1.3-0.4-1.9s-0.3-1.5-.4-2.2l-0.2-.5v-0.3h0.7c0.2,0,.4,0,0.5.6s0.5,3.1.8,5.1l0.3,1.7a46.5,46.5,0,0,0,1.2,5.3,22.1,22.1,0,0,1,.4,2.2c0.6,3.8,1.4,9.1,4,9.1h0.9v-1.2l-0.3-2.4-0.6-5.1-0.3-2.2c-0.2-1.2-.3-2.5-0.4-3.7l0.2-.4,0.6,0.2,0.2,1.8a56.6,56.6,0,0,1,.5,7.5,32.6,32.6,0,0,0,1,8.3l0.2,0.4h0.1l0.5,1.2c0.4,0.9.8,1.9,1.3,2.8l0.4,0.9a5.7,5.7,0,0,0,3,3.3l0.7,0.3V887c0-.6.1-1.2,0.1-1.7a24.5,24.5,0,0,0,0-3.6,20.9,20.9,0,0,0-.6-3.2l-0.4-1.6v-0.3a5.4,5.4,0,0,1-.2-1.6l0.4-.5a1.7,1.7,0,0,1,.9.5,9.9,9.9,0,0,1,.3,2.2v2.2c0.1,1.5.3,3,.3,4.5a21.6,21.6,0,0,1-.2,2.7,18,18,0,0,0-.2,3.5c0.2,2.5,1.9,4.4,3.6,6.1l0.7,0.7,0.2-.9,0.2-.9a8,8,0,0,0,.3-1.9c0-3-.1-5.6-0.3-8a1.8,1.8,0,0,1,.1-1.2h0.6l0.3,0.6a4.3,4.3,0,0,1,.4,1.4,41.9,41.9,0,0,1-.1,6,23.1,23.1,0,0,1-.4,2.5,15.6,15.6,0,0,0-.5,4.3,10.1,10.1,0,0,0,3.5,6.3l0.5,0.3,0.3-.5c1.3-2.8,1.3-6,1.3-9.1,0-.9,0-1.9,0-2.7a5.9,5.9,0,0,0,0-.7,2.8,2.8,0,0,1,0-.8l0.4-.4,0.6,0.2v0.7a20.5,20.5,0,0,1,.2,4.7l-0.4,3.7-0.2,1.9a14.7,14.7,0,0,1-.4,1.8,8.9,8.9,0,0,0-.4,3.5c0.3,2,1.1,5.6,3.3,7.8l0.7,0.7,0.2-.9,0.3-1.6c0.2-1.1.4-2.1,0.6-3.1s0.3-2.8.5-4.2,0.3-3.2.5-4.8a1.5,1.5,0,0,1,.6-0.8h0.3a1,1,0,0,1,.1.8c-0.2,1.5-.3,3-0.5,4.4l-0.3,3.2c-0.1,1-.3,2-0.5,3a29.5,29.5,0,0,0-.6,3.8c0,0.4-.1.8-0.1,1.2a10,10,0,0,0,.3,4.6l1.3,3.5,0.8,2.1,1.2-.3,0.2-1.3,0.3-2,0.3-2.5c0.3-2.5.6-5,1-7.5v7.8l-0.6,3.5c-0.1.8-.3,1.6-0.5,2.3a10.1,10.1,0,0,0-.3,5.9l0.6,1.7,0.4,1h0.6v8.5h0Z" transform="translate(-788)"/><path class="b" d="M1027.8,973l-2.2-2.2c-1.1-1.1-2.5-2.5-3.7-4v-0.5h0.5l2.2,2.2,1.1,1.1,1.9,1.8V973h0Z" transform="translate(-788)"/><path class="b" d="M1027.8,966.1l-1.5-1.6-7.7-7.6-4.5-4.4a5.1,5.1,0,0,1-.9-1.4h0.3a5.1,5.1,0,0,1,1.7.8c1.1,1,2.2,2.1,3.2,3.2l1.1,1.1,3.3,3.3,1.6,1.7,1.2-.9-1.1-1.9-2.2-3.9-0.3-.8a4,4,0,0,0-.7-1.4l-0.2-.2c-2.3-2.4-4.6-4.9-7-7.2s-2.7-2.3-4.1-3.4l-2.4-1.9-0.3-.5,0.6-.3h0.4l1.2,0.9,6,4.8c1,0.8,1.9,1.7,2.8,2.6l1.2,1.2,0.3,0.3,1.1-1-0.4-.4a5.8,5.8,0,0,1-1.1-1.9c-0.5-1.4-1.2-2.9-3.2-3.3h-0.1l-0.2-.3-2-2.1-4.7-4.8a41.9,41.9,0,0,0-11.5-7.4l-0.3-.4h0.4l4.8,2,2.3,1.2,1,0.6,0.4,0.2,0.7-.9-0.2-.3-0.6-.9-1.4-2c-1.7-2.6-4.2-4.2-6.7-5.8l-0.3-.2-2.8-1.9a42,42,0,0,0-8.8-5.1l-0.3-.4h0l0.5-.3a3.5,3.5,0,0,1,1.7.4l5.1,3.4,2.8,1.9,2,1.3,1.8,1.1v-1a2.7,2.7,0,0,0-.7-1.7l-0.3-.4c-0.8-1-1.7-2-2.7-2.9l-0.4-.4a65.9,65.9,0,0,0-5-4.4,49.1,49.1,0,0,0-4.8-3.1l-0.7-.4-4-2.3-2.6-1.5-0.7-.3a2,2,0,0,1-1.2-.9h1.1l9.2,5.1,1.9,1.2,0.9,0.6,0.4,0.2,0.7-.9v-0.5a1.6,1.6,0,0,0-.4-0.7l-1.7-1.7c-1.6-1.6-3.2-3.2-4.9-4.6a39.4,39.4,0,0,0-4.7-3.2l-1.4-.9-3-1.6-1-.3c-0.8-.2-2.5-0.7-2.6-1.2a0.2,0.2,0,0,1,.1-0.2,0.5,0.5,0,0,1,.5-0.2,5.1,5.1,0,0,1,1.9.6h0.1l2.4,1.3,1.2,0.7,1.5,0.8,0.9,0.5,0.6,0.3,1.2,0.7,1.4,1,0.6,0.4,0.7-.7a88.6,88.6,0,0,0-8.1-8.6l-1.5-1.1c-1-.7-2.6-1.8-2.8-2.4a0.6,0.6,0,0,1,0-.5l0.5-.2,0.6,0.2,1.3,1.1,3.5,3.1,2.4,2.4,2.1,2.2,2.2,1.8,1,0.8,0.3,0.2,1-.8-0.9-1.8-1.6-3.1-0.5-1.1-1.6-3.2-0.2-.4a7.4,7.4,0,0,1-.7-1.6h0c1.1,0.2,2.6,3.5,3.3,5.1l0.6,1.3,1.3,2.6c0.4,1,.9,2,1.4,3s2.5,4.4,3.7,6.2l1.8,2.6,0.8,1.1,0.3,0.4,1.1-.7v-1l-1.3-3.4-2-5.4v-0.2a1.7,1.7,0,0,1-.2-1l0.4-.2h0.3a1.1,1.1,0,0,1,1,1l0.9,2.5,0.6,1.6,1,2.9c0.7,2,1.4,4.1,2.1,6.1a31.8,31.8,0,0,0,2.3,4.8c0.8,1.4,1.7,2.8,2.6,4.1l0.9,1.3,0.6,0.6,0.2,0.2,0.6,0.7,0.2-.9a2.1,2.1,0,0,0-.1-1.4l-3.2-8.3-0.6-1.6c-0.4-1.2-.9-2.4-1.4-3.5s-0.3-1,.1-1.2h0.4a0.9,0.9,0,0,1,.6.7l0.7,1.9a39.2,39.2,0,0,1,1.6,5.1,23.9,23.9,0,0,0,2.3,6.3,17.2,17.2,0,0,1,1.3,3.8c0.2,0.7.4,1.4,0.6,2.1a14.3,14.3,0,0,0,2.9,4.8,1,1,0,0,0,.7.3h0.3l0.9,0.2-1.3-3.3-2.3-6a1.6,1.6,0,0,1-.2-0.8l0.4-.2h0.4c0.1,0,.4,0,0.6.7l1.1,3.5,1.7,5.7,0.4,1.7a19.2,19.2,0,0,0,.8,2.8,15.4,15.4,0,0,0,1.4,2.5l0.8,1.2,0.9,1.6,1.6,2.7a19,19,0,0,0,1.5,2l0.7,0.8,0.9,1.1v-1.4a9.3,9.3,0,0,0-.4-2.4l-0.2-.7a42.6,42.6,0,0,1-.9-4.2,0.8,0.8,0,0,1,.1-0.6h0.5a1,1,0,0,1,.5.5c0.3,1.4.5,2.9,0.7,4.3l0.4,2.7a5.1,5.1,0,0,0,.3,1v0.4l0.7,1.9,1.8,5.2a21.8,21.8,0,0,0,.9,2l0.4,0.9,0.2,0.4,1.3-.5v11.4h0Zm-4.6-10.8,2.6,4.4,1.1-.6-2.3-4.6Zm3.9-3.3c-0.8-2.3-1.6-4.6-2.3-6.9a1.8,1.8,0,0,1,.2-0.6h0l0.6,0.3a17.3,17.3,0,0,1,1,3.1c0.3,1.3.7,2.7,1,4v2Z" transform="translate(-788)"/><path class="b" d="M1027.8,980.6l-1.7-2a1.9,1.9,0,0,1,0-.7h0.9a3.1,3.1,0,0,1,.8.8h0v1.9h0Z" transform="translate(-788)"/><path class="b" d="M884.5,182.3a1.3,1.3,0,0,1-.7-0.5,18.3,18.3,0,0,1-2-2.6,20.8,20.8,0,0,1-2.7-6.1,47.8,47.8,0,0,1-1.1-14.1v-1.5a121.3,121.3,0,0,1,2.4-17.8c0.6-2.8,1.3-5.6,2.2-8.6l0.2-.8-0.9-.4-0.5,1.1c-2.7,5.7-5.5,11.5-8,17.3a174.4,174.4,0,0,0-9.6,27.9,0.4,0.4,0,0,1-.3.3h-0.2c-0.4-21,11.7-40.3,24.1-58.4l0.4-.8v-0.4l0.2-1.9-1.1,1.5-7.8,11.2c-1.5,2.1-3.2,4.2-4.7,6.2l-4,5.1a50,50,0,0,0-6.9,13.1l-0.3.2h-0.1a0.1,0.1,0,0,1,0-.1c1.2-5.2,3.7-10.1,6.2-14.6s5.4-9.4,8.2-13.8a208.3,208.3,0,0,1,20.4-26.3h0.1a83.1,83.1,0,0,1,5.5-10.8l-0.8-.6-0.8.7A132.5,132.5,0,0,0,890.9,99c-2.3,2.9-4.7,5.9-6.9,8.8h-0.1c-4.3,5.6-8.8,11.5-13.7,16.8h-0.4a0.3,0.3,0,0,1,.1-0.3c4.6-6.2,9.1-12.5,13.4-18.6l8-11.3A77.1,77.1,0,0,1,902.4,82l6.3-5.4a24.2,24.2,0,0,1,4.7-3.1h0.2a24.2,24.2,0,0,1,2.3-3.5l-0.6-.8-3.5,1.3-3,1.1a28.3,28.3,0,0,0-7.5,4.7c-3.5,3-7,6.1-10.4,9.1l-3.3,2.9h-0.4a0.2,0.2,0,0,1,0-.2c1.5-1.8,3.3-3.6,5-5.2h0.1l1.6-1.6,2.4-2.4,4-4,0.4-.4a33.4,33.4,0,0,1,5.8-5,26.4,26.4,0,0,1,4.8-2.2l1.6-.6a23.8,23.8,0,0,0,6.8-4.4,47.9,47.9,0,0,1,6.8-5l1.7-1,3.1-1.9a110.7,110.7,0,0,0,11.8-8.9,41.8,41.8,0,0,0,4-4.3l-0.6-.7A150.2,150.2,0,0,1,932.3,48H932L928.1,50c-7.1,3.5-14.6,7.4-20.9,12.8l-2.6,2.4h-0.1c-0.1-.1-0.1-0.1,0-0.2h0.1l2.3-2.1,2-2.1h0.1a52.5,52.5,0,0,1,6.6-6.1c3.3-2.4,6.8-4.6,10.1-6.8l2.6-1.7a90.6,90.6,0,0,1,12.8-6.9l6.6-2.7,2.2-.6a12.6,12.6,0,0,0,3.9-1.4l0.9-.6,1.3-.9,0.7-.4,0.6-.4-0.3-.9h-0.9l-4,.3c-4,.4-8.7,1-13.3,2h-0.6a26.5,26.5,0,0,0-5.9,1.9,16.6,16.6,0,0,0-3,1.9l-0.5.5a4.6,4.6,0,0,1-1.6,1.3h-0.2a3.7,3.7,0,0,1,.8-1.7V37.5a13.1,13.1,0,0,1,4.4-4.3,19.4,19.4,0,0,1,6-2.3,39.9,39.9,0,0,1,5.9-.8l4.9-.2h0.5a63.9,63.9,0,0,0,14.8-2,58.7,58.7,0,0,0,7-2.3l3.3-1.6,3.5-1.6h0.4l6-2.8,1.2-.5-0.3-.9a84.6,84.6,0,0,1-9.9,1.2h-2c-2.2,0-4.4-.2-6.5-0.3s-4.3-.3-6.6-0.3a28.8,28.8,0,0,0-6.2.6l-2.4.7h-0.1a0.2,0.2,0,0,1-.3-0.2,0.3,0.3,0,0,1,.2-0.3,151.1,151.1,0,0,1,17.7-5.4,60.5,60.5,0,0,1,7.3-1.2l3.6-.2a50.8,50.8,0,0,1,8.7.8,37.4,37.4,0,0,0,6.4.5h1.6a42.9,42.9,0,0,1,9.6-3.6l5-1.5c1.4-.5,2.8-1.1,4.2-1.8l3.4-1.5-0.2-1a63.3,63.3,0,0,1-19.7-4h2.8V0.8a60.5,60.5,0,0,0,12.1,2.7,55.7,55.7,0,0,0,6.3.3c2.2,0,4.5-.1,7-0.3V4.2l-1.7.3-1.8.4-1.5.4a28.5,28.5,0,0,0-4.6,1.4l-2.2.9c-1.5.7-3.1,1.4-4.7,1.9l-5,1.5-5.9,1.8,0.2,1h1.6a3,3,0,0,1,1.5.2,3.3,3.3,0,0,1-.9.8l-0.3.2-3,2.8c-2.3,2.2-4.1,4.1-5.7,6l-2.1,2.5,0.8,0.7a40.8,40.8,0,0,1,3.2-3,63.7,63.7,0,0,0,5.6-5.1c1.2-1.2,2.2-2.6,3.3-3.9l1.4-1.8h0.8c1.9-.9,4-1.6,5.9-2.3l1.5-.5,3-1.1,1.5-.4,0.8-.2,1.5-.3a32.9,32.9,0,0,0,4.2-1.4l2.3-.9V6.9l-7.3,2.4-0.8.3h-0.1a45.8,45.8,0,0,0-7.4,7.9c-2,2.5-4.3,5.5-6.5,8.5s-4.4,6.2-6.3,9.2L996.4,40l-0.6,1.1a7.2,7.2,0,0,1-1.9,2.8,9.6,9.6,0,0,1,.3-1.7c0.3-.9.6-1.8,0.9-2.7a44.6,44.6,0,0,1,2.6-5.4,116.2,116.2,0,0,1,6.6-10.2l0.9-1.3c2.6-3.7,5.5-7.9,9.3-10.7l-0.5-.9-1.6.5-1.9.7-4.2,1.5h-0.2v0.2a47.8,47.8,0,0,1-9.3,9.9,43.8,43.8,0,0,0-5.7,5.4A69.6,69.6,0,0,0,987,35v0.2c-3.1,4.6-6,8.7-8.9,12.7-1.3,1.8-2.9,3.9-4.6,6.1s-3.9,4-4.2,4h-0.4c-0.1-.2.3-1,1.2-2.4l0.3-.5,1.9-3.1,2.3-3.6,1.6-2.5c2.7-4.3,5.2-8,7.6-11.4a114.6,114.6,0,0,1,13.4-16.3l-0.5-.8-3.4,1.4h-0.2l-3.5,1.4-5.9,2.4-1.8.8-3,1.2h-0.3a113.6,113.6,0,0,0-9.7,9.8,149.4,149.4,0,0,0-9.2,12c-2.5,3.6-4.9,7.3-7.3,10.9L951,59.4,949.4,62c-0.7,1.1-1.4,2.2-2.1,3.3a28,28,0,0,1-2.3,3,6.1,6.1,0,0,1-2,1.5h-0.2a1.1,1.1,0,0,1,0-.6,6.4,6.4,0,0,1,1.1-2l0.5-.7,1.8-2.9,1.5-2.3,2.1-3.3,0.7-1.2c2.1-3.4,4.3-6.9,6.5-10.3a118.3,118.3,0,0,1,11.3-14.6l-0.6-.8-2.4,1.1-0.5.2-2,.8a24.5,24.5,0,0,0-5.2,2.5c-6.5,4.5-10.1,11.8-13.6,18.9-1.4,2.9-2.8,5.7-4.3,8.2l-1.3,2.2c-2.7,4.5-5.4,9.1-7.9,13.7s-3.6,7.3-5.3,10.8v0.2l-2.7,5.8-0.2.2H922a0.6,0.6,0,0,1-.5-0.2,4.3,4.3,0,0,1,.3-1.9V93c0.4-1.6,1-3.2,1.5-4.8l0.2-.5a80,80,0,0,1,3-7.7c2-4.3,4.3-8.4,6.5-12.5l2.1-3.8c2.7-4.9,5.5-9.9,8.4-14.8l-0.7-.7-1.3.9-0.8.6-2.3,1.8-3.3,2.6c-2.1,1.5-4.3,3-6.4,4.3l-0.5.4v0.2h-0.1l-0.3.6a104.5,104.5,0,0,0-7.5,14.2,46.1,46.1,0,0,0-3.1,15.6c-0.1,1.8-.1,3.6-0.1,5.5,0,7.8-.1,15.9-4.8,22.8h-0.3v-0.2l-0.2-.2s0,0,0-.1a58.3,58.3,0,0,0,2.2-13.7c0.1-2.5.1-5,.1-7.2s0-4,0-6a53.3,53.3,0,0,1,1.6-12.9,37.5,37.5,0,0,1,2.1-5.7l-0.8-.5L916,73c-1.3,1.6-2.5,3.2-3.7,4.9l-0.5.6h0A55.5,55.5,0,0,0,909.4,90a42.1,42.1,0,0,1-1.5,7.6l-0.7,2.2a42.6,42.6,0,0,0-1.7,5.9,53.7,53.7,0,0,0-.5,11.8c0.2,6.2.4,12.6-2.9,18.6l-0.3.2V136l-0.3-.2s-0.1,0,0-.1c1.3-4.2.7-8.3,0.1-12.2-0.2-1-.3-2-0.4-3a50,50,0,0,1,.8-15.4,149,149,0,0,1,4.3-16.3l0.7-2.3-0.9-.3L904.7,89h0l-2,4.7c-1.4,3.4-3.1,7.5-4.5,11.5a41.9,41.9,0,0,0-2.8,11.7,35.2,35.2,0,0,0,.4,6.3,42.2,42.2,0,0,1,.4,5.2,0.4,0.4,0,0,1-.3.4h-0.5c-2.8-3.3-3.6-8.4-2.4-15.1l-0.9-.3a20,20,0,0,0-1.3,2.5l-0.7,1.3c-0.8,1.4-1.4,2.5-1.3,3.1s0.3,2.5.5,3.7,0.3,2.5.5,3.7c0.3,3.5.6,7.1,0.7,11.2s0.1,7.1,0,11.6c0,0.9,0,1.8,0,2.7a76.8,76.8,0,0,1-.4,8.5,0.3,0.3,0,0,1-.1.3h0a1.3,1.3,0,0,1-.7-0.6,8.9,8.9,0,0,1-.8-2.6v-0.3a47.2,47.2,0,0,1-.7-5.6v-0.7c-0.3-3.8-.5-7.6-0.8-11.1s-0.4-7.8-.6-11.4v-1.1h-1l-0.3,1.7-1.7,9.7c-0.8,4.2-1.5,8.6-2,12.9a55.8,55.8,0,0,0,.1,14.8,65.2,65.2,0,0,0,1.8,7.9c0.2,0.7.5,1.4,0.7,2l0.6,1.9v0.3a6.5,6.5,0,0,1,.4,1.8,0.7,0.7,0,0,1-.2.7h0Zm-2.3-47-0.9,3.7a120,120,0,0,0-2.4,16.4c-0.6,7.5-.7,16,2.8,22.5l0.9-.4a70.6,70.6,0,0,1-2.2-9.1,56.5,56.5,0,0,1-.2-14.4c0.5-4.9,1.4-9.9,2.2-14.7l0.7-3.7Zm-5.6,2.5a110.7,110.7,0,0,0-4.9,10,113.6,113.6,0,0,0-5.6,15.9l1,0.3c1.7-5,3.5-9.9,5.8-15.2,1.5-3.5,3.1-7.1,4.6-10.5Zm12.3,16.3h0Zm-2.1-31.7c-0.1,2.2,0,4.4.1,6.6v1.9c0.1,1.7.1,3.4,0.2,5h1c-0.1-2.3-.1-4.9-0.2-7.9,0-.8,0-1.6-0.1-2.4s-0.1-2.1-.1-3.1h-1Zm9.1-22a232.3,232.3,0,0,0-17,22.6l-4,6.2,0.8,0.5,6.2-8.7,4.3-6c3.3-4.6,6.7-9.4,10.4-13.9h0.2Zm-9.2,14.3-4.6,6.4-5.2,7.6,0.8,0.6,0.9-1.3,8.9-12.7Zm17.4-16.5c-0.8,3.1-1.5,5.9-1.9,8.4a49.9,49.9,0,0,0-.3,15.8v0.9c0.1,1,.3,2,0.4,3h1c0.1-.5.1-1,0.1-1.6s0.1-3.6.1-6V117c0-3.2-.1-6.6.2-9.9a70.9,70.9,0,0,1,1.2-8.7ZM901,92.7a91.4,91.4,0,0,0-4.5,10.2h0l-0.6,1.7h0v0.2c-0.4,1.2-.8,2.3-1.1,3.3l-0.3,1.1h0v0.4c-1.5,5.7-1.7,10.3-.7,14.2l1-.3c-1.3-5.1.2-10.9,1.6-15.4s2.5-7.2,4.1-11.4l0.2-.4,1.4-3.5Zm15.8-11.9a45.5,45.5,0,0,0-1.3,12.3c0,0.9,0,1.9,0,2.9,0,2.8.1,5.6-.1,8.4h1q0.1-.9.2-1.9c0.2-2.7.2-5.5,0.2-8.1s0-4.6.1-6.9a41.8,41.8,0,0,1,.9-6.9l-1-.2v0.4Zm-6.7-4.5a91.6,91.6,0,0,0-7.9,6.7l-0.2.2a83.1,83.1,0,0,0-11,13l-3.9,5.3,0.8,0.6,2.2-2.8a141.1,141.1,0,0,1,10.6-12l3-2.9a54.6,54.6,0,0,0,7-7.4Zm-2,12.3a129.2,129.2,0,0,0-3.1,13.2l1,0.2,0.7-2c0.4-1.3.9-2.6,1.3-4a53,53,0,0,0,1.2-7.2Zm29-26.7-2.3,4L934,67.3c-2.4,4.2-4.8,8.5-6.8,12.9-0.6,1.4-1.3,2.9-1.8,4.4l0.9,0.4c1.9-3.9,3.9-7.7,5.9-11.5l4.4-8.3,2.7-5.3-0.9-.5Zm-3.8-8-5.9,3.5a49.3,49.3,0,0,0-7.1,5.2,23.6,23.6,0,0,1-6,4.1l-2.6,1a27.8,27.8,0,0,0-4.2,1.8,25.5,25.5,0,0,0-5.2,4.2l0.7,0.8a26.1,26.1,0,0,1,4.9-3l3.8-1.5,3.1-1.2a21.4,21.4,0,0,0,6.7-4.6,45.1,45.1,0,0,1,6.6-5.4l0.3-.2,5.5-3.7Zm-7.8,7.3-1.1.9c-1.8,1.6-2.6,4.3-3.3,6.8l-0.2.6,0.9,0.4c1.5-3,3.1-5.9,4.4-8Zm49-35.6a1.2,1.2,0,0,1-.2.7A126.5,126.5,0,0,0,957.1,47c-2.1,3.2-4.1,6.5-6,9.6l-1.5,2.5-1.8,3L946.6,64l0.8,0.5c1-1.4,1.9-2.9,2.8-4.3l1.3-2.1c3-4.7,5.8-8.9,8.4-12.7a147.5,147.5,0,0,1,9.5-12.5,76.2,76.2,0,0,1,5.4-5.7l3-2.6,1.4-.9-0.4-.9-1.9.8-2.5,1.2,0.2,0.6-0.2-.2v0.4Zm14.7,2.3a228.4,228.4,0,0,0-16.5,24l0.8,0.6a167.2,167.2,0,0,0,13.3-19.3c1-1.6,2-3.2,3.1-4.7ZM945.5,39.3l-4.3,1.9a98.5,98.5,0,0,0-9,4.2,58.1,58.1,0,0,0-4.9,3.2l-1.7,1.2,0.5,0.9,2.5-1.2c6.1-3,11.8-5.8,17.3-9.2Zm1,3.5-2.6,2.5-1,.9,0.6,0.8,0.7-.6a13.4,13.4,0,0,1,1.9-1.5h0.2l0.2-.2,0.9-1.3ZM946,37.7L940.3,40l-4.7,2.3,0.5,0.9,5.2-2.3,5.2-2.3Zm19.6-7.5-0.9.2-1.2.2h-0.2l-2.9,1.1-2,.7a18.1,18.1,0,0,0-6.7,5.2,16.2,16.2,0,0,0-2,3.1L949,42.2l0.9,0.5c2.7-4,5.3-6.7,8.1-8.2a43.2,43.2,0,0,1,4.4-1.9l2.2-.9,1.4-.6Zm-13.5.1h-2.9a55.8,55.8,0,0,0-10.7.9,17.4,17.4,0,0,0-8.4,4.2l0.6,0.8a22.3,22.3,0,0,1,5.9-2.5l2.4-.6c3.2-.7,6.6-1.1,9.8-1.5h0.5l2.9-.3v-1Zm60.7-16.1a59.5,59.5,0,0,0-7.2,8.7l-0.9,1.2a82.5,82.5,0,0,0-6.7,10.5l0.9,0.5c2.2-3.5,4.6-6.8,6.4-9.3l2.4-3.3c1.8-2.6,3.7-5.2,5.8-7.6ZM971.5,26.1l-5.2,1.8a56.9,56.9,0,0,1-9.3,2v1l5.2-.6,1.9-.4a27.4,27.4,0,0,0,4.6-1.4l2.4-1.2,0.7-.3ZM995,15.9l-2.9.7h-0.1l-0.7.4-0.9.4-4.6,2.1-2.3,1.1-2.1,1,0.4,0.9H982l0.9-.4,5.9-2.5,3.6-1.5h0.1l2.9-1.2Zm-13.8,1.2-3.1.3-2.8.3v1l6-.6v-1Zm-1.6-3.8H977a57.3,57.3,0,0,0-7.8,1.2c-2.6.6-5.4,1.3-8.6,2.3l0.2,1h2.7c5-.1,10.1-0.2,15.2-0.8,3.3-.4,6.8-0.9,11.4-1.7v-1h-0.6A60.7,60.7,0,0,0,979.6,13.3Zm47-11.6-8.4-1.2h3.7l5.8,0.9V1.8Z" transform="translate(-788)"/><path class="b" d="M1028.3,0h-3l3,0.8V0Z" transform="translate(-788)"/><path class="b" d="M1027.8,845.7c-8.5-1.4-17.1-4.5-26.3-9.4a64.7,64.7,0,0,1-10.5-7.6l-4.9-4-18-13.6-3.9-2.7-1.1-.7,6.6-2.2,16-5.2a140.7,140.7,0,0,1,23.2-4.8,61.7,61.7,0,0,1,8.2-.6,50.4,50.4,0,0,1,10.8,1.1v2.6a6.1,6.1,0,0,0-5-2.6l-4.5-.4-2.6-.3h-1.1l0.6,0.9,1.5,2.2a40.3,40.3,0,0,0,2.5,3.5l2.1,2.5,6.4,7.5v0.9l-4.1-5-6.8-8.4c-1.8-2.3-2.9-3.3-4.9-3.3a15.1,15.1,0,0,0-4.3.9l-0.7.2,0.5,0.6,1.5,1.8,2.9,3.6,3.2,3.7,4.8,5.6c2.1,2.5,4.8,3,7.7,3.5v2.2l-0.8-.2c-2-.5-4-1-5.9-1.7a7.4,7.4,0,0,0-7.1,1.1l-3.5,2.4-11.1,7.6-2.7,1.7-1.8,1.1-0.7.4,0.7,0.4,2.2,1.4a31.7,31.7,0,0,0,5.3,3.1h0.5a5.7,5.7,0,0,0,2.6-1.2l1-.6,20.9-12.1,0.5-.3v1.3c-5.7,2.8-11.2,6.2-16.5,9.5l-6.3,3.8-0.6.3,0.5,0.5a4.5,4.5,0,0,0,6.5.6c5.2-3.6,10.5-7.2,15.7-10.7l0.7-.5v1.5l-1.1.7-14.3,9.3-0.8.7-0.5.5-0.5.4,0.5,0.4a6.5,6.5,0,0,0,3.7,1.4,5.4,5.4,0,0,0,2.8-.9c3.3-2,6.6-3.8,10.1-5.8v3.6l-1.9,1.2-3,1.8-1.5.9-0.8.5,0.8,0.4a17.5,17.5,0,0,0,6.4,1.7v1.4h0Zm-25.7-32.9a4.3,4.3,0,0,0-2.3.7l-9.9,6.7-3.9,2.7,1.9,1.7,4.5,3.9,0.6,0.2a2.6,2.6,0,0,0,1.2-.4l18.9-12a1.1,1.1,0,0,0,.4-0.5l0.2-.4,0.4-.6-3.6-.7-8-1.4h-0.4Zm-7.2-1a3.6,3.6,0,0,0-1.6.3c-2.7,1.3-5.3,2.7-7.9,4.1l-3,1.6-0.4.2,0.2,0.4c0.8,1.7,1.6,2.9,2.9,2.9a5,5,0,0,0,2.6-1.1l6.9-4.7,3.3-2.2-0.2-1.4h-2.8Zm-24.6-1.5,1.5,1.1,4,2.9a1.9,1.9,0,0,0,1.1.3l1.2-.2,3.9-1.7,1.3-.6,1.6-.7-16.2-2.2Zm35.8-13.6h-0.4l-1.7.2-3.8.8-2.5.6,0.4,0.6,2.2,3.4c2,3,3.9,5.9,6,8.6,0.6,0.8,1.9,1,3.1,1.2l1.1,0.2a38.9,38.9,0,0,0,8.3,1.2h1.1l-13.7-16.8h-0.3Zm-12.9,2.4a16.5,16.5,0,0,0-6.6,1.8l-0.6.3,0.4,0.5,1.8,2.3c1.6,2,3.3,4.1,5.1,6a3.8,3.8,0,0,0,2.7.7h1l5.1,0.5,3.8,0.4-0.6-.9-1.7-2.3a38.7,38.7,0,0,1-3-4.3C998.8,800.8,996.3,799.1,993.2,799.1Zm-10,3.1h-0.8a32.3,32.3,0,0,0-4.1,1.1l-1.7.5-0.6.2,0.3,0.6c2.1,3.5,5.7,5.4,10.4,5.4a21.3,21.3,0,0,0,3.7-.4h0.8l-0.5-.7-1.4-1.8a40.2,40.2,0,0,0-3.4-4A4.1,4.1,0,0,0,983.2,802.2Zm-8.8,2.9c-1.1,0-2.4.6-4.5,1.6l-1.4.7,11.1,1.8-0.9-1C977,806.2,976,805.1,974.4,805.1Z" transform="translate(-788)"/><path class="b" d="M899.6,591.1a5.9,5.9,0,0,1-4.5-1.8,5.4,5.4,0,0,1-1.2-4.3c0.5-4.5,2.2-7.8,5.3-10.1a50.1,50.1,0,0,1,6.8-4.2l-0.5-.9H906a2.3,2.3,0,0,1,0-1,1.1,1.1,0,0,1,.8-0.2h1.6l3.3,0.3a13.8,13.8,0,0,1,8.2,4.2v0.2h0.2c0.3,0,.4,0,3.5-2.9H924l10.4-9.9,2-2a62.9,62.9,0,0,1,9.7-8.2h0.2c4.5-2.8,4.5-3.1,4.5-3.5v-0.3l-0.2-.2a5.6,5.6,0,0,0-3-.9h-0.4a65.1,65.1,0,0,0-8.4-.5,93.7,93.7,0,0,0-11.5.8l-1.7.2c-3.3.3-7.5,0.7-9.6,3.2a26.3,26.3,0,0,1-6.9,5.6l-0.4.3a5.7,5.7,0,0,1-2.2.9,3.1,3.1,0,0,1-1.4-.6h0l-0.4-.8a15.9,15.9,0,0,1-7.2,1.6,17.3,17.3,0,0,1-7.6-1.7,8.7,8.7,0,0,1-4.5-4.9,7.8,7.8,0,0,1,.2-6.2,7.3,7.3,0,0,1,4.3-3.8,21.1,21.1,0,0,1,6.8-1c1.8,0,3.6.2,5.5,0.3l2.6,0.2-0.3-.8a3.7,3.7,0,0,1-.4-1.5,0.9,0.9,0,0,1,.5-0.9h0.6a11.3,11.3,0,0,1,6.3,3.5A34.3,34.3,0,0,1,914,542l0.6,0.9c1.6,2.4,1.9,2.8,2.3,2.8h1.9l1.7-.2a58.7,58.7,0,0,1,12.9-1.4h6.9l2,0.2,2.4,0.2a4.4,4.4,0,0,0,1.9-.4l0.4-.2v-0.4a3.7,3.7,0,0,0-1.8-1.9l-0.6-.4-2.8-1.9c-2.1-1.5-4.2-3-6.4-4.3a97.4,97.4,0,0,0-10.5-5.4,106.6,106.6,0,0,0-22.5-7.2h-1.4a12.1,12.1,0,0,0-4.9,1.3l-1.1.5a30.3,30.3,0,0,1-7.6,2.2h-2.5l-0.7-.6a0.3,0.3,0,0,1,0,.2h0v-0.9l-4.4.3h-3a29.4,29.4,0,0,1-4.5-.7,27.6,27.6,0,0,1-9.9-4.8,6.1,6.1,0,0,1-2.4-4.9,5.8,5.8,0,0,1,2.5-4.6,13.2,13.2,0,0,1,7.8-2.4h1.7a21.6,21.6,0,0,1,6.3.7l3.6,1.2,4.6,1.5,0.5,0.2v-0.5a1.8,1.8,0,0,0-.2-1.1v-0.2a0.5,0.5,0,0,1,0-.3h0.2c1.8,0.8,3.6,1.8,5.3,2.7l1.3,0.7a9.6,9.6,0,0,1,4.4,6.4v0.3H898l5.1,1.4,10.7,3.1a96.6,96.6,0,0,1,22.8,10.1c1.7,1.1,3.4,2.3,5,3.6,4.1,3.1,8.4,6.4,14,6.9a150.6,150.6,0,0,1,21.6,3.3h0.3a37.6,37.6,0,0,0,7.6,1.2h0.7l-0.2-.6-0.2-.8a11.4,11.4,0,0,0-.4-1.5,175.9,175.9,0,0,0-8.2-17.8l-3.2-6.3c-1.9-3.8-7.7-5.7-12-7l-2.3-.7a132.4,132.4,0,0,0-18.8-5.2l-1.8-.2a10.7,10.7,0,0,0-5.5,1.7c-1.6.9-4.7,2.4-6.6,2.4a1.2,1.2,0,0,1-1.3-.6,0.9,0.9,0,0,1,.5-0.6l1.4-1.1-1.8.2h-1.4c-5.7,0-12.1-3.2-15.5-6.4a11,11,0,0,1-3.1-9.6,4.8,4.8,0,0,1,3.7-3.7,11,11,0,0,1,2.8-.4,19.4,19.4,0,0,1,6.5,1.3,27.4,27.4,0,0,1,7.7,4.7l1.1,0.9a0.9,0.9,0,0,0,.6.2,0.8,0.8,0,0,0,.8-0.8,3.5,3.5,0,0,0-.1-0.9v-0.3a1,1,0,0,1,.1-0.7h0.2a3.5,3.5,0,0,1,1.3.5H930c3.7,1.9,5.8,4.5,6.6,8.1l0.4,1.5,0.3,1.1h0.3c6.8,1.8,14,3.8,21.1,6.2l3.9,1.5a56,56,0,0,0,6.8,2.3l0.8,0.2-0.2-.8c-1.8-8.5-13.6-24.5-23.3-31.7h-0.2l-1.5.3-3,.6-1.9.2c-2.3,0-4-1-6.2-2.4h-0.2c-1.3-.8-2.7-1.7-3.2-3.1a1.5,1.5,0,0,0-.3-0.5,1.4,1.4,0,0,0-.7-0.4c-6-2-14.2-9-13.4-16.2,0.3-2.9,2.3-5.8,5.4-5.8l1.3,0.2a20.8,20.8,0,0,1,9.8,5.7,51.5,51.5,0,0,1,4.2,5.1l1.1,1.4,0.7,0.9,0.2-1.1a0.8,0.8,0,0,1,.8-0.5,4.7,4.7,0,0,1,2.8,1.4c2.5,2.8,4.9,5.9,4.7,10s3.3,6.6,6.1,9.1l2.2,2,3.3,3.6c10.1,12,16.7,26.7,23.1,40.9l3.8,8.3c0.7,1.4,1.4,2.8,2.1,4.2l1,2v0.2h0.3a63.3,63.3,0,0,1,11.1,2.6,76.7,76.7,0,0,0,10.2,2.5h0.5v-0.5c0-.3.1-0.6,0.1-0.9a4.9,4.9,0,0,0,0-1.6c-0.8-3.9-6.2-13.9-9.1-16.8s-9.3-9.2-14.5-13.5c-0.1-1,.6-1.6,1.5-2.3l0.4-.3a20.7,20.7,0,0,0,3.1-3.4,27.8,27.8,0,0,0,4-8.5c1.5-5.3,1.9-10.8,2.2-16.2v-2.2a7.1,7.1,0,0,0,0-.8c-0.1-1.2,0-1.6.8-1.6h0c0.8,0,1.7,3,2.2,4.4a14.1,14.1,0,0,0,.6,1.9,28.9,28.9,0,0,0,4.4,6.5,12.9,12.9,0,0,0,7.9,4.7,1.5,1.5,0,0,1,1.2.6c0.4,0.7-.3,2-0.7,2.9l-0.3.5a19.3,19.3,0,0,0-1.7,6.8,23,23,0,0,0,3.4,13.2,9.6,9.6,0,0,0,2.6,2.6,8.4,8.4,0,0,1,2.2,2.1c0.6,0.9,0,1.5-1.5,2.5l-0.6.4a15,15,0,0,0-6.1,11.8,22.7,22.7,0,0,0,.8,6.3v0.6a4.4,4.4,0,0,0,1,2.5,3.8,3.8,0,0,0,1.9.5h0.7l3.8,1,6.6,1.7v1.5a81.1,81.1,0,0,0-10.7-2.9l-0.9-.2a29.6,29.6,0,0,0-6-.8,11.8,11.8,0,0,0-3.1.4,23.7,23.7,0,0,0-7.9,4.4c-4.6,3.5-7.4,7.3-8.6,11.6a17.4,17.4,0,0,0-.5,3.9,12.3,12.3,0,0,1-.8,4.7H989l-1.4-.2a40.2,40.2,0,0,0-12.2-1.8,82.5,82.5,0,0,0-15.5,1.8,38.6,38.6,0,0,0-5.1,1.5l-2.6.9-1.4.3h-0.3a1.1,1.1,0,0,1,.2-1.7l1.9-1.9a43,43,0,0,0,5.5-6.3,34.6,34.6,0,0,0,4.6-10.2l0.4-1.4,0.2-.6h0a4.4,4.4,0,0,1,1.4-.1,45.4,45.4,0,0,1,5,.5l2.4,0.3h0.1c3.8-.2,6.7-2,8.2-4.9l1.1-2.2,0.4-.9a2,2,0,0,1,1.1-.3,6.9,6.9,0,0,1,1.9.4l0.6,0.2a31.4,31.4,0,0,0,5.3,1h5.3a48.6,48.6,0,0,0,4.8-.7,1.2,1.2,0,0,0,.8-0.4,1,1,0,0,0-.1-1.4,2,2,0,0,0-.9-0.5l-0.8-.3a42.2,42.2,0,0,0-4.1-1.2l-8.6-1.9a227.1,227.1,0,0,0-23.1-4.4h-0.6a33.6,33.6,0,0,0-4.1-.3,11.5,11.5,0,0,0-4.6.9c-7.2,3-13.2,8.1-18.1,12.6-2.7,2.4-5.3,4.9-7.8,7.4l-2.8,2.6a37.6,37.6,0,0,0-5.6,5.9,18.3,18.3,0,0,0-1.9,4l-0.9,2.2c-0.8,1.7-2.4,4.1-3.2,4.1a0.4,0.4,0,0,1-.3-0.2,0.8,0.8,0,0,0-.5-0.4h0a0.8,0.8,0,0,0-.6.2,8.5,8.5,0,0,1-2.8,1.8l-2.4,1-5,2.1a8.9,8.9,0,0,1-2.9.5h-0.3Zm6.4-19.3c-1.3,0-2.6,1-3.8,1.8l-0.9.7a12.7,12.7,0,0,0-5.6,7.1c-0.3,1.1-1.1,4.7.6,7a4.6,4.6,0,0,0,3.9,1.8,10.9,10.9,0,0,0,4-.9l0.4-.2a22.3,22.3,0,0,0,7.2-4.1c2.1-2.1,2-4.9,1.9-7.1s-1.5-2.7-2.7-3.4l-0.4-.2-1.1-.7a6.8,6.8,0,0,0-3.4-1.6h-0.1Zm3.3-2.5a1.9,1.9,0,0,0-1.6.5,1,1,0,0,0-.2.8,3.1,3.1,0,0,0,1.6,1.7h0.1l3.9,2.3a2.6,2.6,0,0,1,1.5,2.8c0,0.3-.1.7-0.1,1.1s-0.6,3.9.4,5v0.2h0.2c0.6,0,3-4.9,3-5,0.8-2.2.8-4,0-5.4s-2.3-2.6-4.7-3.3A17.6,17.6,0,0,0,909.4,569.3Zm55.2-3.9-1.2,2.9c-0.9,2.1-1.7,4.1-2.6,6a20.6,20.6,0,0,1-2.7,3.8,26.9,26.9,0,0,0-3.3,4.7l-0.5,1,1.1-.3,1.9-.6,3-.9,2.6-.6,2.2-.5a45.8,45.8,0,0,1,10-1.4,21.3,21.3,0,0,1,4.9.5l4.9,0.9,2.6,0.4H988V581l0.2-1.6c0.1-.9.2-1.8,0.3-2.6a13.1,13.1,0,0,1,2.9-7.6l1.5-1.9,1.5-2,0.6-1,0.3-.5,0.4-.6h-2.2l-3,1.4a76.9,76.9,0,0,0-11.7,6.4,51.2,51.2,0,0,1-7.4,4.5l-0.7.2h-0.2a7.6,7.6,0,0,1,2-2.2l2.3-1.6,1.5-1a45.4,45.4,0,0,1,8.2-4.8c2.2-.9,4.4-2.1,6.8-3.4l3.6-1.9,1.2-.6-1.4-.3c-1.8-.4-3.5-0.6-5.2-0.8a35.5,35.5,0,0,1-6.2-1.2h-0.4l-0.2.4-0.4.7-0.7,1.4a8.9,8.9,0,0,1-7.9,5.6h-4.4l-3-.3-1.2-.2h-0.4Zm-58.2-28.4a1,1,0,0,0-.7.3,1.2,1.2,0,0,0-.3.9,2.2,2.2,0,0,0,.4,1.1l1,1.5a15.2,15.2,0,0,1,2.6,4.8,2.9,2.9,0,0,1,.1.8,5.5,5.5,0,0,1-1.2,2.6l-0.7,1.2v0.2c-1.1,1.9-1.5,2.9-1.3,3.5a0.8,0.8,0,0,0,.4.5h0.5c1.4,0,3.8-2,6-3.9l0.6-.5a4.3,4.3,0,0,0,1.7-3,4.3,4.3,0,0,0-1.1-3.2l-0.5-.6c-1.9-2.3-4.1-4.8-6.9-6.2l-0.5-.2h0Zm-8.1,1.9a37.3,37.3,0,0,0-6.7.7c-2.7.5-4.4,2.3-5.1,5.2a6.4,6.4,0,0,0,2.3,6.6c2,1.8,5.8,3,9.6,3a12.8,12.8,0,0,0,5.9-1.2,5.5,5.5,0,0,0,1.9-1.6c1.2-1.6,2.4-3.5,2.3-5.7a6.3,6.3,0,0,0-2.8-5.3C903.8,539.5,901.4,539,898.3,539Zm110.2,4.1,1.3-.5-0.5-1.8-0.9-3c-0.6-1.9-1.3-3.8-1.9-5.6-2-5.6-4.1-11.3-4.3-17.1s0.4-6.2.7-6.5h0.3v1.3l0.2,4c0.5,9.2,3.7,18.1,6.7,25.7a12.5,12.5,0,0,0,.9,1.7l0.6,1,0.4,0.7,6.7-8.8-0.2-.3-1.8-2.7a57.8,57.8,0,0,1-3.6-5.8,20,20,0,0,1-1.7-9,24.8,24.8,0,0,1,1.4-7.2l0.8-2.6-1-.3a0.4,0.4,0,0,1,.4-0.3c-0.8-.1-6-4.2-6.5-4.7s-2.1-2.5-3.1-3.8l-2.1-2.7-0.3-.4-0.4.3c-1.1.8-1.2,2.2-1.2,3.2-0.4,5.8-1.4,13.1-5.4,19.2a33.2,33.2,0,0,1-2.5,3.1l-1.5,1.8,0.8,0.6-0.3.2h-0.1c1.1,0.4,10.1,9.7,11.9,11.9s5.5,7.2,5.7,7.9l0.3-.5ZM888.8,512.7a8.1,8.1,0,0,0,1.3,3.2,7.7,7.7,0,0,1,1.1,2.5c0.3,1.4-1,2.4-2.4,3.5a8.1,8.1,0,0,0-2.5,2.8l0.9,0.4-0.2.2,2.3-.4,1.6-.3a17.5,17.5,0,0,0,2.6-1.2l0.5-.3c2.1-1.1,3-3.1,2.2-5.1-1.3-3.6-3.6-5.5-7-6h-0.7v0.7Zm-18.3-4.3a12.8,12.8,0,0,0-6.8,1.7,5.1,5.1,0,0,0-2.7,4,5.4,5.4,0,0,0,2.4,4.5,27.4,27.4,0,0,0,15.9,5.5,20.6,20.6,0,0,0,3.5-.3c1.6-.3,4.5-1.1,6-3.3s0.4-4.4-.5-6.3l-0.6-1.2c-0.5-1-2.3-1.4-3.6-1.7l-0.7-.2-2.1-.6C878,509.6,874.2,508.4,870.5,508.4Zm59.6-10.9a0.8,0.8,0,0,0-.7.4,1,1,0,0,0-.1.6c0.1,0.6.2,1.1,0.3,1.7l0.2,1.2,0.3,1.9,0.4,2.1c0.3,1.7-.9,3.2-2,4.6h-0.1l-1.1,1.5a0.6,0.6,0,0,0,0,.6,0.6,0.6,0,0,0,.6.3,7.9,7.9,0,0,0,1.9-.5,18.9,18.9,0,0,0,2.7-1.5,7,7,0,0,0,3.3-5.1,7.1,7.1,0,0,0-1.9-5.3,9,9,0,0,0-3.2-2.4h-0.5Zm-19.3-5.4a4.7,4.7,0,0,0-3.5,1.3,4.6,4.6,0,0,0-1.1,3.5,9.1,9.1,0,0,0,3.1,6.7c3.7,3.3,8.5,5.2,14.6,5.8h1.9a4.4,4.4,0,0,0,3.7-4.7c-0.1-2.6-.5-4.1-2.7-5.9a25.5,25.5,0,0,0-3.9-2.5l-1.1-.6-1-.6a18.8,18.8,0,0,0-9.7-3h-0.3Zm29-21a12,12,0,0,0,.4,2.6c0.4,1.7.8,3.5-.2,4.7s-1.9.9-3.2,1h-1.4l-2.7.7-0.4.2v0.4a2.3,2.3,0,0,0,1.4,1.3,18,18,0,0,0,7.1,1.7,5.4,5.4,0,0,0,4.1-1.4,4.4,4.4,0,0,0,1-3.5,10.4,10.4,0,0,0-2-5.1l-1.4-1.7a12.6,12.6,0,0,0-2.3-1.6h-0.5v0.5Zm-18.5-13.3a3.5,3.5,0,0,0-2.7,1.1,6.4,6.4,0,0,0-1.8,4.9c0.3,4.6,5,9.2,7.8,11.6a14.8,14.8,0,0,0,9.3,3.1,13.4,13.4,0,0,0,4.1-.6,2,2,0,0,0,.9-0.5c0.6-.7.2-5.2-0.2-5.7l-0.6-.7a52.8,52.8,0,0,0-8.2-8.9C928.1,460.5,924.4,457.8,921.4,457.8Z" transform="translate(-788)"/><path class="b" d="M865.9,516a1.1,1.1,0,0,1-.9-1,1.3,1.3,0,0,1,.3-1.2,1.5,1.5,0,0,1,1.1-.6c0.4,0,.7.3,0.7,1a1.9,1.9,0,0,1-.5,1.4,1.1,1.1,0,0,1-.8.4h0Z" transform="translate(-788)"/><path class="b" d="M924,465.3a2.2,2.2,0,0,1-1.5-.6,0.5,0.5,0,0,1-.1-0.4,1.5,1.5,0,0,1,1.6-1h0.6a1,1,0,0,1,.6,1.1,1.1,1.1,0,0,1-.9.9H924Z" transform="translate(-788)"/><path class="b" d="M892.6,547.9a2.2,2.2,0,0,1-1.1-.3,0.9,0.9,0,0,1-.4-1.2,1.3,1.3,0,0,1,1.3-.6,1.4,1.4,0,0,1,1.4.8,1.1,1.1,0,0,1-.2.9,1.3,1.3,0,0,1-1,.4h0Z" transform="translate(-788)"/><path class="b" d="M913.4,500.8a2.4,2.4,0,0,1-2.2-1.3,2.1,2.1,0,0,1,.3-1.7,0.8,0.8,0,0,1,.6-0.3,1.3,1.3,0,0,1,.8.4,5.5,5.5,0,0,1,1.1,1.4,1.7,1.7,0,0,1,.3,1.2,0.4,0.4,0,0,1-.3.3h-0.5Z" transform="translate(-788)"/><path class="b" d="M899,586.5a1.2,1.2,0,0,1-.9-0.6,0.9,0.9,0,0,1-.2-0.7h0.1a1.7,1.7,0,0,1,1.1.7,0.9,0.9,0,0,1,.2.6v0.2H899Z" transform="translate(-788)"/><path class="b" d="M939,696.1c-0.8,0-2.1-.1-2.2-0.8a3.5,3.5,0,0,1,.5-2.7,95.7,95.7,0,0,1,8.1-7.9,24,24,0,0,1,12.2-5.9,12.2,12.2,0,0,0,2.4-.7l1.3-.5-0.3-1h-0.2a13.8,13.8,0,0,1-3.6-1.2l-1.4-.5-0.8-.3-4.7-1.4-1.1-.4a16.9,16.9,0,0,0-5.3-1.4,2,2,0,0,0-2.1,1.1c-4,8.5-14.7,14.4-22.6,16.8a186.7,186.7,0,0,1-21.3,5.5h-0.5a2,2,0,0,1-1.3-.4,2.9,2.9,0,0,1-.1-2c0.3-1.7,2.2-4.1,3.6-5.8l1-1.2a30.4,30.4,0,0,1,8.9-7.5c5.8-3.5,12.4-4,18.9-4.5h0.6a71.2,71.2,0,0,0,7.3-1.1l2.9-.5a1.7,1.7,0,0,0,1.1-1.2l0.3-.5-2.1-.7-3.7-1.1-22.8-6.9h-0.5a2.9,2.9,0,0,0-1.8.7l-4.3,4.1a106.5,106.5,0,0,1-8.3,7.5,108,108,0,0,1-30.5,16.5l-0.9.2-0.5-.2a1.9,1.9,0,0,1-.2-1.4c0.7-11.1,8.8-23.8,21-26.1,6.7-1.2,13.7-2.5,20.9-2.5h0.8v-1l-1.5-.4a30.8,30.8,0,0,1-8.5-3.3A77.4,77.4,0,0,1,878.2,638a87.4,87.4,0,0,1-7.4-10.5c-0.4-.7-2.8-5.6-3.5-7.2l2-.3a6.4,6.4,0,0,1,1.9.3,56.3,56.3,0,0,1,14.1,6.2c4.6,3,10.5,7,15.1,12.1s7,11.5,9.1,17.8a5.4,5.4,0,0,0,3.5,3.8l9.4,2.9,15.6,4.9c6.1,2,12.5,4,18.8,5.9s12.2,3.3,17.5,4.4,10.2,1.6,15.1,2.1l2.9,0.3c1.4,0.2,13.1,1.3,16.5,1.3,0.7,0,1.3,0,1.4-.5l0.2-1-0.3-.2-1.7-1-3.8-2.3a104.6,104.6,0,0,1-15.7-12.5l-0.4-.4c-3.4-3.3-6.9-6.7-9.4-10.8l-0.4-.7c-0.7-1-1.6-2.4-1.2-3.1a1.5,1.5,0,0,1,1.2-.6h1a18,18,0,0,1,5,1l0.6,0.2c8,2.3,18.2,5.9,25.5,13.1,4.5,4.4,7,9.7,9.8,16.3a2.2,2.2,0,0,0,2.2,1.5h0.7l4.4-.5V682a211.2,211.2,0,0,1-22.8,1.4,115.8,115.8,0,0,1-29.2-3.4l-1.5-.2a3.9,3.9,0,0,0-2.7,1l-1.8,1.7a24.5,24.5,0,0,1-3.8,3.2c-5.3,3.4-11.1,6.8-17.6,8.5l-0.6.2C946.1,694.9,941.8,696.1,939,696.1Zm3.7-3.8,0.2,1h0.2c8.6,0,15.5-4.4,21.4-8.5l-0.5-.9Zm-5.2-17.9c-5.9,2.3-12.2,4.8-18.3,7.9-4.1,2.1-8.4,4.1-12.6,6l-5.5,2.6-0.4.2,0.6,1.5,3.2-.7c6.5-1.4,13.3-2.8,19.5-5.9,4.7-2.3,9-5.6,14.1-10.7ZM965,679c-7.4,0-17.3,4-20.9,10.6l-0.6,1,1.2-.3a112.7,112.7,0,0,0,17.6-7.2l6.3-2.9,1.5-.7-1.6-.3A19.7,19.7,0,0,0,965,679Zm-39.7-3.5c-8.2,0-18.3,4.1-21.6,11.9l-0.5,1.2L930.2,676l-1.6-.3Zm-29.2-5A77.5,77.5,0,0,0,874,684.3l0.5,0.8c7.4-2.4,14.2-6.7,22.1-13.8Zm5.7-8.6-4.5.5a71.1,71.1,0,0,0-10.6,1.7c-4.9,1.3-10.3,3.4-13.1,9.1l-1.1,2.2c-0.9,1.9-1.9,3.8-2.7,5.8l-0.9,2.2-0.4,1.2,1.1-.6a58.9,58.9,0,0,0,6.9-4.3c2.4-1.7,4.9-3.5,7.7-5.2l2.3-1.3,10.3-6,4.3-2.8,2.2-1.4,1-.6-1.1-.3-0.6-.2h-0.8Zm78.8-9.4,0.6,0.7,0.4,0.4,0.6,0.8c4.1,5.7,9.5,10.4,14.2,14.3,3.1,2.5,6.4,4.8,9.6,7l3.3,2.3a5.7,5.7,0,0,0,1.7.7l0.7,0.2,1.1,0.4-0.5-1.1c-1.5-3.4-28.3-25.9-30.8-25.9h-1Zm8.9,2.3,0.2,0.3h0.1l0.3,0.5,1.4,1.2,3.9,3.2,8.3,6.9,5.3,4.6,3.7,3.3,1.2,0.8,0.8,0.5,1,0.6-0.3-1.2c-1.1-4.5-2.8-7.8-5.4-10.4s-6.6-5.1-10.2-7l-0.3-.2c-2-1.1-4.2-2.1-6.2-3l-2.8-1.3-0.4-.2ZM874.1,627.6c1,7.3,22.4,27.5,31.1,29.3l1.4,0.3-0.9-1.1-0.5-.6-0.8-.9-2.1-1.9-2.9-2.7-4.4-4.2-5-4.8-9.1-8.4-4.1-3.6-1.8-1.6-1-.9Zm-0.5-3.5,32.6,29.7,0.8-.6-0.4-.9-0.6-1.5-1.4-2.9a37.4,37.4,0,0,0-3-5.6,37.9,37.9,0,0,0-6.4-6.7c-6.2-5.4-11.8-9-17.6-11.2l-2.2-.8-1.2-.4Z" transform="translate(-788)"/><path class="b" d="M1025.2,474.1h-10.8c-2,0-3.3-.1-3.6-2.1a2.1,2.1,0,0,1,1-2.3c2.4-1.8,5.4-2,8.2-2h5.3a5.8,5.8,0,0,0,2.4-.4v1.8l-5.4-.3h-3c-1.7.1-5.8,0.6-7.2,1.8a1.3,1.3,0,0,0-.3,1.7,2.4,2.4,0,0,0,2.2.9l2.1-.2h1.1l10.3-.3v1.4h-2.6Zm2.6-8-3.5-2.2a92.1,92.1,0,0,0-8.9-5.1,72.5,72.5,0,0,0-21.3-6.4,69.6,69.6,0,0,0-7.4-.5l-4.8-.2-12.3-1.3-1.2-.2a2.7,2.7,0,0,1-1.1-.3,0.9,0.9,0,0,1-.5-0.8,4,4,0,0,1,1.8-2.6,8.3,8.3,0,0,1,4.1-1h1.1c4.5,0.5,9.1,1.4,13.5,2.2l5.3,1,3.8,0.7-0.7-1-0.7-1a2.3,2.3,0,0,0-.7-0.8l-4.2-2.7-7.7-4.9-1.1-.7a12.3,12.3,0,0,0-8.2-2.6H943.5a3.7,3.7,0,0,1-2.3-.6,4.2,4.2,0,0,1,.4-2.9,6,6,0,0,1,5.5-3.1h0.1c3.6,0.1,7.3.4,10.9,0.7l3,0.3,3.3,0.5,1.5,0.2h0.4l0.5-1.6-0.4-.2-3-1.4c-2.2-1.1-4.5-2.2-6.8-3.1l-6.4-2.2c-2.6-.9-5.2-1.7-7.7-2.8a6.8,6.8,0,0,0-2.7-.5,13.8,13.8,0,0,0-3.8.7l-2.1.5c-4,.7-8.1,1.7-11.9,2.6s-5,1.4-7.4,2.2l-2.5.8-1.3.2a2,2,0,0,1-1.3-.4,2.4,2.4,0,0,1-.7-1,4.6,4.6,0,0,1,2.1-5.6,18.6,18.6,0,0,1,3.7-1.6l0.9-.3,3.7-1.2,2-.6V414h-0.4l-1.2-.3-2.8-.5-7.4-.9-2.2-.3-2.2-.4a24.8,24.8,0,0,0-4.3-.5h-1.5a8.6,8.6,0,0,0-4,2.3l-1.6,1.3-7.8,5.5-1.4,1-1.8,1.4c-2,1.6-4.2,3.3-6.5,3.8h-0.9a3.2,3.2,0,0,1-3-1.9,4.7,4.7,0,0,1,.6-4.9,29.9,29.9,0,0,1,5-4.6l1.9-1.5,1.8-1.2,1.4-.9,1.2-.8H880l-3.3.2c-3.9.2-7.9,0.4-11.8,0.9l-4.5.7a78.6,78.6,0,0,1-8.6,1l-4.8.4c-2.2.2-4.4,0.4-6.6,0.4H839l-12.5-.6a20.8,20.8,0,0,1-5.1-1.3h-0.2c-1.8-.6-2.8-1.3-2.5-3a3.2,3.2,0,0,1,3.5-2.6h0.3a37.5,37.5,0,0,1,7.6,1.1l5.4,1.6a68.1,68.1,0,0,0,7.5,2.1,39.1,39.1,0,0,0,7.6.7,68.8,68.8,0,0,0,8.8-.6c6.3-.8,12.8-1.3,19-1.7l8.1-.6a2.5,2.5,0,0,0,1.8-.8l0.6-.6-0.8-.3-3.1-1-6.8-2.1-6.7-1.8-9.1-2.6c-1.9-.6-4.8-2.2-4.4-4.3a2.1,2.1,0,0,1,1.4-1.6h0.7a6.8,6.8,0,0,1,1.8.4,210,210,0,0,1,32.8,12.2l1.5,0.7a24.8,24.8,0,0,0,7,2.6l4.2,0.4,4.4,0.5h0.8l8.5,1.5,3.2,0.5,1.8,0.3,0.6-1.6-0.3-.2-1.4-.9-3-1.9-2.2-1.4-4.3-2.9-1-.6c-1.8-1.2-4.1-2.6-3.5-4.6a2.9,2.9,0,0,1,2.6-1.8h0.4c2.4,0.6,5.2,1.3,7.1,2.8a94.7,94.7,0,0,1,11.1,10.3c4.3,4.7,9.6,7,14.1,8.6s9.6,3.8,14.3,5.7l6.6,2.7,1.1,0.2,1.1-.2,0.8-.3-0.7-.6-2.4-2c-1.8-1.5-3.6-3-5.3-4.7-3.3-3.3-6.6-6.8-9.8-10.5a1.8,1.8,0,0,1-.4-2,2.5,2.5,0,0,1,2.3-1.3h0.2c2.9,0.2,5.6,2.8,7.5,4.6a50.3,50.3,0,0,1,6.5,7.8l2.1,3c4.1,6.1,8,11.8,14.3,16,3.4,2.3,6.9,4.5,10.3,6.6l4.3,2.7,0.4,0.2,1.2-1.3-0.3-.3-1-1.1a25.4,25.4,0,0,1-2-2.3l-4.7-6.7-0.2-.3c-1.8-2.6-5.2-7.4-2.1-10a1.8,1.8,0,0,1,1.2-.5c1.1,0,2.1,1.1,2.7,2.1l8.8,15.2,1.6,2.9c2.1,4,4.4,8.2,8.4,10.5l10.7,5.8,4,2.2V466h0Zm-52.9-16.1h0.5l17.9,1.4-0.5-.5h1v-1.1h-1l0.5-.4-6.2-1.2-4.5-.8a49.1,49.1,0,0,0-7.6-.5h-3.4a2.4,2.4,0,0,0-1.3.3,1.5,1.5,0,0,0-.6,1.9c0.4,0.9,1.9,1.1,4,1.1h1Zm16.2-22.4a0.8,0.8,0,0,0-.7.4c-0.5.9,0.6,3.2,0.8,3.7a33.8,33.8,0,0,0,3.1,5c1.2,1.6,2.5,3,3.7,4.4l1.3,1.4,0.6,0.7,0.5,0.5a5.8,5.8,0,0,1,1.1,1.2l1-.2a16.1,16.1,0,0,0-.9-3.1c-2.1-5.7-5.5-10.7-9.1-13.4A2.6,2.6,0,0,0,991.1,427.5Zm-39.3,3.1-3.2.3h-0.4c-1.9.2-4,.6-4.9,1.4a1.3,1.3,0,0,0-.3,1.6c0.3,0.6,1.2.7,2.2,0.7h1l9.6-.2,8.4-.2h0.5l-0.4-.5h1v-1c0-.5,0-0.5-8.4-1.8A32.6,32.6,0,0,0,951.7,430.7Zm-57.3-20.5a12.4,12.4,0,0,0-3.1.6l-0.9.2a32.1,32.1,0,0,0-5.8,2l-2.2.9c-3.3,1.4-6.7,2.8-8.6,6.3a4.8,4.8,0,0,0-.5,3.5,1.6,1.6,0,0,0,1.4,1.2,3.5,3.5,0,0,0,1.2-.3h0.2a23.2,23.2,0,0,0,6.2-4l2.3-1.8,7-4.9,1.2-.7,0.9-.5a5.9,5.9,0,0,0,1.9-1.6l0.4-.6-0.7-.2h-0.9Zm32.6,6.2a28.5,28.5,0,0,0-10.2,2.2l-1.1.4c-2.5.8-4.8,1.7-5.4,3a1.7,1.7,0,0,0,.1,1.7,2.4,2.4,0,0,0,2.1.8l1.4-.2,5.7-1.4,9-2.6,5.2-1.5L933,418l-0.8-.6-0.7-.5A18.9,18.9,0,0,0,927.1,416.3Zm28-8a1.2,1.2,0,0,0-1,.4c-0.8,1,.6,2.5,1.5,3.5l0.3,0.4a43.7,43.7,0,0,0,3.8,4.3c2.6,2.6,5.3,5,8.4,6.3l1,0.4-0.4-1.1a27.1,27.1,0,0,0-8.8-11.8C959.9,410.7,956.8,408.3,955.1,408.3Zm-129.4-.2h-1.8c-1,.1-3.1.3-3.1,1.6a1.5,1.5,0,0,0,.1.6c0.4,0.8,1.4,1,2.3,1.1h0.6a34.8,34.8,0,0,0,5.3,1.1,42.5,42.5,0,0,0,5.4.4h5.1l0.5-.9a29.7,29.7,0,0,0-10.8-3.7Zm89.3-8.9a2.2,2.2,0,0,0-1.6.6l-0.3.5c-0.6,1.4,1.6,3.5,6.4,6.2l4.2,2.2H924l1,0.4a11.4,11.4,0,0,1,2.9,1.4l0.9-.4c-1-2.6-3-5-6.3-7.4S917.3,399.3,915.1,399.3Zm-53.7-4h-0.7a0.9,0.9,0,0,0-.7.6,1.4,1.4,0,0,0,.5,1.2,5.5,5.5,0,0,0,1.5,1l0.3,0.2a27.8,27.8,0,0,0,4.8,2,24.7,24.7,0,0,0,7.1,1.5,7.6,7.6,0,0,0,2.6-.4l1.3-.5-11.3-4-1.4-.5a19.6,19.6,0,0,0-3.3-1.1h-0.7Z" transform="translate(-788)"/><path class="b" d="M1027.8,453.7a29.7,29.7,0,0,1-1.6-3.6,3.5,3.5,0,0,1,.7-3.8,1.9,1.9,0,0,1,.9-0.6v2.3a1.5,1.5,0,0,0-.6.6c-0.5.8,0,2.3,0.5,3.7h0.1v1.3Z" transform="translate(-788)"/><path class="b" d="M1027.8,727l-4.2-1.8a145.7,145.7,0,0,1-25.8-15.3l-1.6-1.1c-2.3-1.6-9-6.3-9.9-7.4,0.7-1.3,2.4-1.3,3.9-1.4l7.2-.3,8.8-.3,6.7,0.3a47.6,47.6,0,0,1,15,4v3.9l-0.2.2,0.2,0.2V727h0Zm-0.9-9.8-7.9,2.1,0.4,1.5h0.4a15.6,15.6,0,0,0,5.4-1.4l2.1-.8h0.5l-0.4-1.3h-0.5Zm-11.4.4,0.4,1.4,3.1-.8-0.4-1.4Zm3.1-.6,0.4,1.4,2.8-.8-0.4-1.3Zm3.5-.6,0.6,0.4,0.7,0.3h0.4l0.4-.3h0.1l0.3-.3-0.7-1.1Zm-13.4-1.7a4.4,4.4,0,0,0,3.4,1.4c1.6,0,3.7-.6,6.8-2l1.5-.7-1.7-.3h-1.7a21.5,21.5,0,0,0-3.8.4,19.9,19.9,0,0,1-3.5.4h-2Zm-1.1-5.1,2.9,1.2,0.2-.5,0.3-.8-2.9-1Zm5.1-.1,1.9,0.3,0.2-1.3-1.9-.4ZM993.4,704l1.4,1.4,1.1-1-1.6-1.5Zm2.4-2.7,1.3,0.8a5.4,5.4,0,0,0,2.8.6,5.2,5.2,0,0,0,3.6-1.2l0.9-1Zm9.3,1.1h2.6v-1.4h-2.6v1.5Z" transform="translate(-788)"/><path class="b" d="M933.1,129.3c17.2-21.4,33.9-40.6,51-58.4l-1,1.2-1.9,2.2-0.3.4,0.4,0.3,0.3,0.3,0.4,0.3,3.3,0.8,12.6,2.9h0.3a4,4,0,0,0,2.2-1l11.1-9.4,4.1-3.6,2-1.8-0.2-1.4-10.8-2.2-2.1-.4a21.7,21.7,0,0,1-4.6-1.1,4.5,4.5,0,0,0-1.6-.4,2.3,2.3,0,0,0-1.7.8L992.8,62,991,63.7l4-4.1c5.7-5.7,11.4-11.2,18.1-15.2a39,39,0,0,1,14.6-5.3v2.6c-4,.9-8.8,2.6-10.6,5l-0.5.7,11.1,1.7v0.6l-10.4-1.6-0.9-.2-1.9-.2a2.7,2.7,0,0,0-1.4.3c-3.3,1.8-6.4,3.8-9.8,5.9l-3.8,2.4-0.7.5,0.8,0.4,0.9,0.5,0.8,0.4,2.1,0.4,14.7,2.8h0.3a3.9,3.9,0,0,0,2.2-.8c1.5-1.1,2.9-2.3,4.5-3.8l2.7-2.5v1c-2.2,1.9-4.4,4.6-2.8,9.2a1.7,1.7,0,0,1,0,.6,4.3,4.3,0,0,0,0,.5l0.7,15.1,0.7-.5,1.3-1.1V80a100.8,100.8,0,0,1-27.6,23.5c-11.7,6.9-24.3,11.8-35.1,15.8l-12.6,4.4-6.4,2.2a64.6,64.6,0,0,1-7.3,1.9Zm4.4-2.8h3.1l5.3-1.7c4.3-1.3,8.7-2.7,12.9-4.3l3.3-1c4.4-1.3,8.9-2.6,10.4-8.5a50.1,50.1,0,0,1,2.1-5.9l1.2-3.1,0.5-1.4ZM963.5,99a3.6,3.6,0,0,0-2.3,1l-9.4,9.6-5.1,5.2-3.4,3.4-2,1.9,1.1,1.2,0.3-.2a234.1,234.1,0,0,0,29.6-20.6l0.9-.7-1.1-.2a54.9,54.9,0,0,0-8.6-.8h0Zm18.3-3.3-1.7,1.5a14.5,14.5,0,0,0-3,3.1,14.6,14.6,0,0,0-1.6,3.9l-0.6,1.9-2.2,5.9-1.1,3,1.3,1.2,0.3-.2,1.4-.8c1.2-.6,2.4-1.3,2.9-2.4,1.5-3.6,2.8-7.3,4-10.9l1.1-3.4a3.3,3.3,0,0,0,.1-1.3c0-.3,0-0.6,0-1V94.9Zm28-23.5-0.9.5-1.2.7-4.6,3.9c-4.3,3.7-8.8,7.5-13,11.5l-1.8,1.5c-1.8,1.4-3.7,2.9-4.4,5.6s-1.9,6.2-2.9,9.3l-1.6,4.7a3.7,3.7,0,0,0-.1,1.3c0,0.2,0,.4,0,0.7v0.7l0.6-.2,0.7-.2,1.3-.4a111.8,111.8,0,0,0,23.3-13.2c1.1-.8,2.7-1.9,2.9-3.3,1-5.7,1.7-11.4,2.5-17.3a20.4,20.4,0,0,0,0-3.5c0-.6-0.1-1.2-0.1-1.9V71.7Zm-45,26,3.3,0.2,3.5,0.2a10.4,10.4,0,0,0,7.8-3.1l0.7-.7-2.2-.5-1.7-.4-2.1-.3-3.7-.7-2.4-.3c-2.5,0-3.3,1.6-4.2,4.8l-0.2.6h1.1Zm50.5-31.4-1.5,1.4c-1.5,1.2-2.9,2.4-2.3,5.3a20.1,20.1,0,0,1-.2,6.9c-0.1.9-.2,1.7-0.3,2.5-0.3,2.6-.6,5.3-0.9,7.9l-0.4,3.5v0.8l0.7-.2c3.8-1.1,6.4-4.2,6.4-7.7q0-1.4,0-2.9v1.7c0.1,1.1.2,2.2,0.3,3.4v1.1l0.8-.8,1.7-1.8a19.5,19.5,0,0,1,2.9-2.6,3.9,3.9,0,0,0,2-3.6c0-2.1,0-4.2.1-6.2s0.1-5.4,0-8.2a23,23,0,0,0-.6-4.3l-0.4-2.1V59.8l-0.6.4c-3.2,2.2-5.7,4.2-5.6,8.2a53.1,53.1,0,0,1-.3,5.7v0.7c0-1.1,0-2.3,0-3.4a16,16,0,0,0-.4-2.8l-0.3-1.7-0.2-1ZM976.5,80.8a1.9,1.9,0,0,0-1.4.6l-5.7,7.1-1.7,2.2,0.5,1.5,2.6,0.4,9.7,1.5h0.1a1.9,1.9,0,0,0,1.1-.5l8-6.4,2.8-2.2-0.6-.4-0.5-.4-0.8-.4-13.9-3h-0.3Zm4.5-4.4c-1.8,0-3,1.1-3.6,3.4v0.5l1.2,0.2,1.4,0.2,3.1,0.6,8.1,1.7,1.7,0.2c1.7,0,3-.8,4.2-2.6l0.4-.6-1.6-.4-1.6-.4-4.3-1-7.1-1.7Z" transform="translate(-788)"/><path class="b" d="M827.1,131.9h0Z" transform="translate(-788)"/><path class="b" d="M835.3,144.5h0Z" transform="translate(-788)"/><path class="b" d="M1002.4,392a2.1,2.1,0,0,1-1.9-.8,1.3,1.3,0,0,1,.1-1.8c9.1-10,17.2-17.9,27.1-24h0v2a69.1,69.1,0,0,0-23.8,21l-0.6.8h1a43.7,43.7,0,0,0,23.4-7.7v2a25.9,25.9,0,0,1-5.6,3c-3.1,1.2-6.3,2-9.4,2.9l-3.7,1-1.3.4A18.5,18.5,0,0,1,1002.4,392Z" transform="translate(-788)"/><path class="b" d="M1027.8,355.6c-1.8-1.1-3.6-2.3-4.9-3.3l-2.7-1.9c-3.1-2.2-6.3-4.5-9.4-6.9a50.2,50.2,0,0,1-5.7-5.8l-0.9-1a66.6,66.6,0,0,1-4.3-5.6,2.2,2.2,0,0,1-.1-0.9v-0.3c1.4,0.4,4.5,1.2,12.1,3l9.2,2.2a72.9,72.9,0,0,1,6.7,2.8v3.4c-5.9-2.5-12.4-5.4-18.9-7l-1.7-.3a5.6,5.6,0,0,1-3.2-1l-0.7.8,4.8,4.3c6.1,5.5,12.4,11.2,19.6,15.3v2.4h0Z" transform="translate(-788)"/><path class="b" d="M866.8,377.1c-0.7-1.5,1.5-3.1,4-4.7l1.5-1,0.7-.6c4.5-3.7,9.2-7.5,13.9-10.9,2.2-1.6,4.6-3.2,6.9-4.7l3.1-2.1,0.8-.6,0.6-.5-0.2-1.1h-2.6l-5,.5-10.1.9H868.8a28,28,0,0,1-4.3-.3c-5.2-.8-12.3-2.9-12.3-4.6s3.5-3.1,5.5-3.9l0.9-.3a59.6,59.6,0,0,1,21.8-4.4,45.4,45.4,0,0,1,21.6,5.3l1.6,0.9,2.9,1.5,0.8,0.2h0.6c4.7-1.5,9.3-3,14-4.9l1-.4-2.4-1.2-3.1-1.6-1.2-.6c-1.4-.7-2.9-1.5-4.3-2.4-9.5-6.1-18.8-12.1-27.1-19.5a49.2,49.2,0,0,1-3.5-3.5l-1.1-1.1a1.9,1.9,0,0,0-1.4-.7,2.3,2.3,0,0,0-1.2.4c-5,3.2-11.5,3.5-17.6,3.5h-0.7a76.4,76.4,0,0,1-15-1.2,40.7,40.7,0,0,1-7.9-2.3l-1-.4c-2-.8-7.3-2.8-7.2-4.4,0.1-3.1,8.1-5,11.9-5.4a54.2,54.2,0,0,1,5.7-.3,55.3,55.3,0,0,1,14,1.8c2.8,0.7,5.5,1.7,8.2,2.6l3.9,1.3,1.3,0.3,0.9,0.2,0.6-.9-0.2-.3-0.9-1.1-2-2.5-2.1-2.9c-2.4-3.4-5-6.9-7.3-10.4a5.6,5.6,0,0,0-3.4-2.2l-0.9-.3-22.4-8.6-4.7-1.8h-1.4l-3.2.2c-2.8.2-5.7,0.3-8.6,0.7l-2.9.2a49.9,49.9,0,0,1-10-1.4l-2.3-.5c-4-.8-9.2-2.1-13.6-5a1.7,1.7,0,0,1-.9-1.1,1.6,1.6,0,0,1,1.1-.9c5.2-2.3,12-4.9,17.9-4.9a14.5,14.5,0,0,1,5.3.9,11.7,11.7,0,0,0,2.7.6l1.4,0.2,1.5,0.3-1-1.1c-6.7-7.4-11.2-16-15-24.3l1.1,0.2a12.3,12.3,0,0,1,3,.7l1,0.4c5.9,2.5,12.1,5.1,17.4,8.8a35.4,35.4,0,0,1,7.6,7.1,29.1,29.1,0,0,1,4,8.2l0.9,2.3,0.5,1.3a33.8,33.8,0,0,1,2.3,7.4c0.2,1.1,1.5,2,2.2,2.4l5.6,2.6,2.5,1.1h0.3a10.7,10.7,0,0,0,2.9,1l1.1,0.2-0.7-1.1-0.3-.5-1.9-2.4-3.9-4.9c-6.7-8.9-11.9-19.7-16.4-34.2a1.8,1.8,0,0,1-.1-1.5h0.4c1.5,0,4.6,2,6,2.9l0.6,0.4a77.7,77.7,0,0,1,11.7,8.4c4.6,4.1,7.4,7.7,9.2,11.5s2.2,9.2,2.5,13.9c0.1,1.3.1,2.6,0.2,3.9a13.4,13.4,0,0,1,0,1.8,8.7,8.7,0,0,0,.2,2.9,18.6,18.6,0,0,0,2.6,4.9c11.9,17.8,26.7,31.8,44,41.6l0.9,0.2h1.8l-0.7-.9-1-1.4-1.9-2.6-1.7-1.8a25.1,25.1,0,0,1-2.1-2.3,109,109,0,0,1-9.5-14.3l-0.7-1.3c-2.1-3.8-5.5-10-4.6-13.9a45.7,45.7,0,0,1,8.8,5.6c1.6,1.2,3.2,2.4,4.8,3.4,5.8,3.7,10.7,9.3,15,16.9a100,100,0,0,1,4.8,10.5c1.3,3.2,2.7,6.6,4.4,9.8a3,3,0,0,0,1.7,1.3c12.6,3.8,25.8,6.7,37.1,9.2l9.6,2.1,2.1,0.6,1.4,0.4,0.6-1.1-0.2-.3-0.5-.6-1.3-1.3-2.4-2.1a58.2,58.2,0,0,1-4.6-4.1,6.8,6.8,0,0,0-4.5-2.1c-3.7-.4-7.1-2.1-10.2-3.7-13.4-7.1-23-15.8-29.3-26.7a3.3,3.3,0,0,1-.6-1.7c0-.4.1-1.4,2.6-1.4,6,0,19.8,6.2,22.3,7.5l2.6,1.2,1.5,0.7,0.9,0.4-0.2-1-0.2-1c-0.1-.6-0.2-1.2-0.3-1.7a64.8,64.8,0,0,1-1.7-18.6,2.4,2.4,0,0,1,.2-1,0.6,0.6,0,0,1,.5-0.4c1.9,0,5.9,5.1,7.3,6.7l0.6,0.7,1,1.2c4.2,4.8,8.5,9.9,10.9,15.7a34.9,34.9,0,0,1,2.1,20c-0.4,2-.7,4-0.9,5.6a1.5,1.5,0,0,0,.4,1.2l0.8,0.8c4.9,4.4,9.5,8.6,16.2,10.2l5.7,1.4c7.2,1.8,14.7,3.8,21.8,4l8.2,0.2v1.7h-0.3l-4-.3c-9-.6-18.1-2.5-26.9-4.3l-6.2-1.3-1.6-.5-0.4-.2-0.2.4c-3.9,6.8-10.8,10.4-17.7,13.1a54.7,54.7,0,0,1-16.5,3.6H953c-1.4.1-3.7,0.3-6,.3-4.4,0-5.7-.8-6.1-1.3a1.1,1.1,0,0,1-.1-1.1c2.8-8.5,17.2-12.2,23.3-13.4l9.6-2,2.5-.5a2.7,2.7,0,0,0,1.4-1.1l0.6-.7-1.2-.2h-0.6l-2.3-.5-4.2-1-6.2-1.3-5-1c-7.4-1.6-16.2-3.5-25-6l-1.3-.5a6,6,0,0,0-2.5-.8h-0.1a36,36,0,0,0-8.7,2.1h-0.3c-2.3.7-4.5,1.7-6.6,2.6l-3.3,1.4a4.3,4.3,0,0,0-2,1.8l-1.7,3.4a38.1,38.1,0,0,1-5.5,9.1l-0.6.7c-3.7,4-7.4,8.2-12.4,10.4a37.2,37.2,0,0,1-11.5,2.7h-0.6c-1.8.2-7.3,0.8-9.1,0.8h-0.2Zm32.4-23c-4.6,2.1-8.3,5-11.8,7.8l-1.7,1.3c-2.7,2.1-5.5,4.2-8.3,6.1l-4.5,3.3a0.6,0.6,0,0,0-.3.7c0.3,0.8,2.6.8,3.1,0.8a35,35,0,0,0,5.1-.5,27.2,27.2,0,0,0,9.5-3.5c3.7-2.3,5.9-5.3,8.2-8.4l2-2.6,1.6-2.2,0.7-1,0.3-.4-1.4-1-1.7,2.2-0.6.7a13.1,13.1,0,0,1-1.3,1.6l-0.8.8c-1.1,1.1-2.5,2.6-3.8,2.8a1.1,1.1,0,0,1,.1-0.7,3.7,3.7,0,0,1,1-.9l0.4-.3a18.3,18.3,0,0,0,4.8-5.9l0.6-1.3Zm83.2,2a29.3,29.3,0,0,0-6.7,1.2l-2.4.6h-0.1c-4,.8-8.2,1.6-12.2,2.8a55.4,55.4,0,0,0-8.9,3.7,45,45,0,0,0-5.7,3.7l-0.6.4a11.4,11.4,0,0,0-1.7,1.7l-0.8.9-0.6.6,0.9,0.2a23.4,23.4,0,0,0,5.5.6c11.6,0,30-5.6,32.2-11.1l0.3-.7h-3.7a33,33,0,0,0-4,1.5l-0.9.4-1,.5-1,.5h-0.3a1,1,0,0,1-.1-0.9,1.9,1.9,0,0,1,1.3-.9l4.8-1.4c2.6-.7,5.2-1.5,7.7-2.4a0.9,0.9,0,0,0,.7-0.9,0.8,0.8,0,0,0-.7-0.7Zm-113.6-8.9-0.6.2a0.7,0.7,0,0,0-.2.9v0.7l1.8-.5-0.4-1.5Zm-1.7-4.2,1.5,1.3,0.4-.3,0.7-.9-1.8-1.3Zm5.1-.6,0.9,0.2,1.4,0.3h0a0.8,0.8,0,0,0,.7-0.7v-0.2l0.2-.5-2.9-.7Zm82.3-45.2v0.6a6.2,6.2,0,0,0-.1.8c-0.1,5.7,1,11.3,2,16.8l0.2,1.2a24.7,24.7,0,0,0,3.4,7.8l0.7,1.3c1.5,2.6,3.2,5.1,4.8,7.5l0.6,0.9c1.2,1.8,2.5,3.6,3.8,5.3l0.4,0.5,0.8,0.8,0.4,0.3,0.5,0.4,0.3-.6a2.2,2.2,0,0,0,.3-1.9l-1-2.3-0.8-1.9-0.4-1.1c-1.5-3.7-3.1-7.5-3.2-11.7a1.8,1.8,0,0,1,1,1.6,8.7,8.7,0,0,0,.4,2.3v0.2c4,11,4.2,11,4.7,11h0.1l0.8-.2v-0.3l0.2-.9a5.9,5.9,0,0,0,.3-2.1c-0.5-5.9-1.4-12.7-4.5-18.4s-6.5-9.2-10.2-13.3l-1.6-1.8-1.9-2.2-1.1-1.3Zm-62.9.4v1.1c1,5.5,4.2,10.2,6.8,14a118.5,118.5,0,0,0,8.5,10.7l3.3,3.8a48.4,48.4,0,0,0,4.7,5.1,29.6,29.6,0,0,0,3.6,2.6l1.6,1.1,1.4,1-0.6-1.6a16.8,16.8,0,0,0-2.6-4.4l-3.6-4.3-4.1-4.9a2.5,2.5,0,0,1-.2-1.2h0a30.8,30.8,0,0,1,5.3,5.7,29.7,29.7,0,0,0,5.6,5.9l1.3,0.9-0.5-1.5v-0.5l-0.2-.6-1.4-3.2a66.6,66.6,0,0,0-5.5-10.9l-0.4-.6c-3.1-4.6-6.2-9.4-11.3-12.4l-7.2-4.4-3.2-2-0.3-.2ZM958,330.4l1.4,1.7,1.1-.9-1.3-1.7Zm-14.9-2.9,4,2.8,1-1.4-3.8-3.1Zm10.8-1,2,2.2,1.2-1.1-2-2.3Zm-13.1-.7,2,1.3,0.9-1.2-1.9-1.6Zm9.2-3.6,3.1,3.5,1.1-1-3.2-3.5Zm-11.9-7.2,3.8,1.7,0.5-1.3-3.5-2Zm-92.6-13.2a36.7,36.7,0,0,0-5.1.3,19.9,19.9,0,0,0-9,3l-0.5.4,0.5,0.4,0.6,0.5a4.8,4.8,0,0,0,1.1.9c6,2.9,11.2,4.5,16.2,4.9l4.5,0.2a47.3,47.3,0,0,1,5.5.3l2.7,0.2a38.9,38.9,0,0,0,9.4-1.4,8.6,8.6,0,0,0,1.8-.7l0.7-.4,1.2-.5-1.3-.4a11.8,11.8,0,0,0-3.5-.6h-0.2l-2.5.2-2.9.2h-0.9l-3.5-.2h-3a3.9,3.9,0,0,1-1.6-.7l-0.4-.3,11.4,0.2,0.3-1.2-0.3-.2-0.8-.5a7.9,7.9,0,0,0-2-1h-0.3c-3.1-.9-6.4-1.8-9.6-2.4A46.8,46.8,0,0,0,845.6,301.7Zm4.6-35.8a45.4,45.4,0,0,1,4.6,7.1,50.2,50.2,0,0,0,4,6.3l0.8,1V279c0-1,0-2,0-3s0-.8-0.1-1.2a35.1,35.1,0,0,0-2.8-13.4c-2.5-5.6-7.3-9.7-10.7-12.3a87.7,87.7,0,0,0-7.8-5.2l-3.5-2.2-0.3-.2-0.9.6V243a6.6,6.6,0,0,0,.3,1.1l1,2.7c0.9,2.5,1.9,5.1,3,7.6s1.4,2.9,2.1,4.2,1.4,2.5,1.9,3.8a50.9,50.9,0,0,0,8,12.4,25.4,25.4,0,0,0,2.6,2.5l1.2,1,0.3,0.3,0.9-.7v-0.6a3.2,3.2,0,0,0-.2-0.9c-0.9-2.1-1.7-3.9-2.6-5.6a5.9,5.9,0,0,0-.8-1.1l-0.4-.5C850.5,268,849.9,267.1,850.2,265.9Zm-13.5,8.7,1-.6-0.2-.7-0.2-.8-0.3-.8c-0.3-.9-0.6-1.8-1-2.6a30.5,30.5,0,0,1-1.2-3.3,18.2,18.2,0,0,0-2.6-5.7,38,38,0,0,0-14.1-11.4l-1.5-.6c-5.9-2.3-9-3.8-9.3-4.4h-1c-0.4,6,19.1,28.9,25.4,29.9h0.6v-0.6a0.9,0.9,0,0,0-.1-0.7l-4-4.8-2.6-3.1a2.8,2.8,0,0,1-.9-1.6,1,1,0,0,1,.3-0.5Zm-33.9-8.3,0.4,0.2,2.6,1.3,0.6-1.3-0.4-.3-2.7-1.3Z" transform="translate(-788)"/><path class="b" d="M905.3,204.5h0Z" transform="translate(-788)"/><path class="b" d="M1027.4,166.3a40.5,40.5,0,0,1-3.8-4.8c-1-1.6-.8-5.3.5-7.6a2.7,2.7,0,0,1,2.1-1.7,2.8,2.8,0,0,1,1.6.6v13.9Zm-1.7-10.9-1.1,1.6,0.4,0.3,0.8,0.6,1.5-1.9-1.3-1Z" transform="translate(-788)"/><path class="b" d="M928.9,216.7a3.3,3.3,0,0,1-1.6-.3,1.6,1.6,0,0,1-.9-1.3c-0.1-1.9,3.1-4.7,4.6-5.7a37.9,37.9,0,0,1,6-3.1h0.3a56.1,56.1,0,0,0,16.2-10.7l3.4-3.6a52.6,52.6,0,0,1,5.6-5.5l1.1-.9h-1.7l-2.5.3-8.6,1.8c-12.4,2.6-25.3,5.2-36.1,12.5l-3.1,2.2a43.1,43.1,0,0,1-5.8,3.8,14.3,14.3,0,0,1-6.4,1.7,8.9,8.9,0,0,1-3.5-.7c-1.2-.5-2.4-1.6-2.3-2.8s1.3-2.1,3.5-2.7c7.2-2.2,14.5-4.5,21.5-6.8l13.4-4.3c4.5-1.4,9.1-2.7,13.5-3.9l2.5-.7,3.2-.7,2.7-.6,4.1-1.2,2.1-.6,1.3-.4-1.2-.6-0.7-.3-0.7-.3-6-2.2c-4.8-1.8-9.9-3.7-14.9-5.1s-8.4-2.1-12.5-3l-8.2-1.8a10.6,10.6,0,0,1-3.9-2.4c-1.2-1-1.8-1.9-1-3s2-1.5,4.1-1.5h1.1c5.2,0.3,9.9,3.6,14.2,6.6l2.3,1.6a14.7,14.7,0,0,0,4.3,1.7l1.3,0.4,6.9,2.1,6,1.8,3.4,1.2a37.6,37.6,0,0,0,7,2.1c2.2,0.3,4.6.5,6.8,0.7l2.3,0.2c2.9,0.3,5.9.4,9.3,0.4s8.9-.2,13.2-0.4v-1a12.6,12.6,0,0,1-2.1-2l-1.2-1.3a51.4,51.4,0,0,0-4.6-3.1c-1.9-1.1-3.9-2.1-5.8-3.1l-4.7-2.5-1.7-1a13.7,13.7,0,0,0-5.4-2.4c-6.5-.9-11.4-2.6-15.4-5.4a6.2,6.2,0,0,1-2.1-4.9,3.2,3.2,0,0,1,1.4-2.8,3.1,3.1,0,0,1,1.7-.4h0.3c4.5,0.1,8,3.5,11.5,6.8l3.1,2.8,0.8,0.7a12.1,12.1,0,0,0,1.9,1.5l8.4,4.8c6.4,3.6,13.1,7.3,18.9,12.1,1.5,1.3,3.7,1.4,5.7,1.4h3.1c2.9,0.3,5.8.9,8.6,1.4l0.9,0.2h3l-0.6-.8-0.5-.7a6,6,0,0,0-.9-1.1l-4.6-4.1c-2.3-2-4.6-4-6.8-6.2l-1-1c-1.8-1.8-3.5-3.6-6.3-4.4-5.9-1.7-9.9-3.9-13.2-7-1.5-1.4-1.3-3-.9-4.4s1.2-1.6,2.7-1.6h0.6c5.7,0.5,9.1,4.5,11.9,8.7a16.2,16.2,0,0,0,2.9,3.5l6.2,5.5,4.7,4.2,7.7,6.5,1.2,1.1a10.5,10.5,0,0,0,3.7,2.6h0v3.1h-0.4l-2.8-.3a7.2,7.2,0,0,0-2.7.5,19,19,0,0,0-5.2,3.7l-1.3,1.1-2.9,2.5a105.5,105.5,0,0,1-11.2,8.7,9.4,9.4,0,0,1-4.9,1.4,6.5,6.5,0,0,1-2.3-.4c-1.2-.5-1.8-1-1.8-1.6s5.6-5.1,7.8-6l4.1-1.5c3.4-1.2,6.9-2.3,9.9-4.5a25,25,0,0,0,2.7-2.4l1.4-1.3,0.7-.6-0.8-.2-1.2-.4-1.7-.5-3.8-.6a50.7,50.7,0,0,0-8.6-1c-3.6,0-6.4.9-8.5,2.7a44,44,0,0,1-5.2,3.7,46.7,46.7,0,0,0-5.1,3.6c-3.7,3.1-7.2,6.6-10.7,10.1-1.9,1.9-5.3,4.3-8.6,4.7H964a3.4,3.4,0,0,1-3.3-2,3.7,3.7,0,0,1,1.3-4.1,17.8,17.8,0,0,1,8.2-3.8c7.1-1.3,12.4-5.3,17.6-9.6l1.1-.8c1.4-1,3-2.2,3.5-3.3a2.6,2.6,0,0,0,.2-0.9,1,1,0,0,0-.3-0.8,1.4,1.4,0,0,0-1-.4h-8.2a93,93,0,0,0-15.7,2.4c-2,.4-3,1.9-4.1,3.4l-1.2,1.5c-2.1,2.3-4.3,4.4-6.3,6.3l-6,5.5-6.5,6a98.4,98.4,0,0,1-8.5,7.4A12.4,12.4,0,0,1,928.9,216.7Zm-27.6-12.1,0.9,0.7a2.8,2.8,0,0,0,1.7.8,2.1,2.1,0,0,0,1.7-1.1h0.1l3.8-1.4-0.6-1.3h-0.4a4.3,4.3,0,0,0-3.5,1.9h0ZM918.6,168l0.4,0.3,6.2,2.3,0.7-1.8-6.8-2Zm36.6-12.2h-1l0.6,0.8a9.3,9.3,0,0,0,6.2,3.8h0.7l-0.2-.7c-0.5-1.9-3.7-4-6.2-4h-0.2Z" transform="translate(-788)"/><path class="b" d="M1002.6,290.5a28.7,28.7,0,0,1-12-2.6h-0.2c-1.1-.5-4.3-1.9-4.4-2.6s1.5-2.1,3.8-2.3l1.3-.2,5.9-.8,3.2-.4,1.3-.2-1-.7-2.2-1.8a11.4,11.4,0,0,0-4.3-2.7l-2.1-.2-3,.2-2.8.2h-5l-8.1-.2h-2.4a14.4,14.4,0,0,0-7,1.5l-2.4,1.4c-2.2,1.3-4.1,2.5-6.9,2.8h-2.8a30,30,0,0,1-5.1-.4h-0.9c-1.7-.3-4.1-0.6-5.4-1.5a13.3,13.3,0,0,1,4-2.4l1.3-.6a25.1,25.1,0,0,1,6.6-2.3l1.3-.2-1.1-.7a8,8,0,0,0-2.9-.9,8.9,8.9,0,0,1-2.3-.6l-1.2-.6a9.8,9.8,0,0,0-2.9-1.3h-1.3a16.2,16.2,0,0,0-5.2,1.2,19.3,19.3,0,0,1-3.9,1l-3.8.2a34.2,34.2,0,0,1-6.9-.7,47.1,47.1,0,0,1-10.1-3.4l-2.7-1.6c-3-1.8-5-2.9-6.2-3.5a22.7,22.7,0,0,1,10.3-2h10.6l-1.2-.9-1.3-1-1.5-1.1h-0.2l-8.3-5.4-0.6-.4a11.9,11.9,0,0,0-3.1-1.6,54.3,54.3,0,0,1-19.2-10.4,81.8,81.8,0,0,1-8-7.6c-1.8-1.9-2.2-3.1-2.1-3.4a0.8,0.8,0,0,1,.7-0.2h0.9l2.6,0.6L885,231a44.6,44.6,0,0,1,9.3,3,41.8,41.8,0,0,1,15.3,10.6,17.9,17.9,0,0,1,2.8,4.6c1.1,2.3,2.2,4.7,5.2,6.4l10,5.6,2.4,1.1c2.1,0.9,4.7,2,5.6,3.3l0.8-.6-6.8-9.5a41.6,41.6,0,0,1-4.9-8.2,20.4,20.4,0,0,1-1.4-8.8c0.1-.9.4-0.9,0.6-0.9s1.3,0.2,3.2,1.8c5,4.2,8.9,10.9,10.9,18.6s3.7,12.3,11.5,13.3l1.5,0.4,1.7,0.5,3,0.2h2.7l-0.8-.9-1.8-2-3.1-3.6c-3.2-4.1-4.5-8.2-3.8-12.7,0.1-.7.3-1.5,0.7-1.5a1.8,1.8,0,0,1,.9.4c6.2,4.5,12.9,10.4,15,19.6a3.3,3.3,0,0,0,3.5,2.9l4.3,0.2,5.4,0.3h0.3l2.7-.3,1.7-.2h1.3l-12.9-9.5-0.6-.4c-0.9-.7-3.2-2.2-3.1-3.1a1.5,1.5,0,0,1,1-.8,7.8,7.8,0,0,1,2.5-.4,16.1,16.1,0,0,1,6.2,1.4,32,32,0,0,1,6.9,4.8l0.8-.6c-3-4.9-5.9-9.3-10.9-11.9s-8.4-5.7-11.9-8.7a57.2,57.2,0,0,1-8.2-8.6,69.2,69.2,0,0,1-5-7.9l-1.4-2.5a8.5,8.5,0,0,1-.7-1.9l-0.3-.8,0.2-.8,0.5,0.2,2.4,0.6c13.9,3,24.5,13.4,27.1,26.6,0.9,4.3,3.8,7.8,6.7,11.2l2.4,2.9,0.2,0.3,1.7-.5v-0.4c0-.6-0.1-1.2-0.2-1.8a26,26,0,0,1-.2-4c0.2-3.4.5-6.9,1.1-11.1a2,2,0,0,1,1.1-1.2,2.1,2.1,0,0,1,1.2,1l1.3,3.3a66.4,66.4,0,0,1,3.6,10.3,43.3,43.3,0,0,1,.7,8.7c0,1.3.1,2.7,0.1,4.1v0.5h0.5l1.7-.3,4.4-.6a4.1,4.1,0,0,0,3-1,3.5,3.5,0,0,0,.5-2.8,20.1,20.1,0,0,1,.3-5.3l0.2-1.5a4.1,4.1,0,0,1,.5-1.3v-0.3h0.3a3.2,3.2,0,0,1,1.3.7,84.3,84.3,0,0,1,5.4,6.9,3.5,3.5,0,0,0,3.2,1.7h1.7l7.4-.7v1.6l-9.3.6,0.6,12.9h0.3a15.4,15.4,0,0,0,4.4.7,14.5,14.5,0,0,0,4-.6v0.9l-5.1.9a44.4,44.4,0,0,0-9.3,2.1A30.4,30.4,0,0,1,1002.6,290.5Zm2.3-16.5a12.3,12.3,0,0,0-3.9.8l-1.6.3-1.5.2-1,.2,0.8,0.7a32.6,32.6,0,0,0,14.3,7.8h0.3l1.2-1-0.2-.4-0.8-1.3a17.5,17.5,0,0,1-1.5-2.7C1009.7,275.6,1007.7,274,1004.8,274Z" transform="translate(-788)"/></g></svg>