<svg xmlns="http://www.w3.org/2000/svg" width="300" height="80" viewBox="0 0 300 80"><defs><style>.a{opacity:0.6;}.b{fill:#0a0b0b;}</style></defs><title>west-elm</title><g class="a"><path class="b" d="M107.5,42.3h6.3a2,2,0,0,0,2.2-1.1,5.6,5.6,0,0,0-2.3-7.2,7.2,7.2,0,0,0-9.6,3.7A10.8,10.8,0,0,0,108.6,52h3.9a1.4,1.4,0,0,1,.1-0.7l1.2-.2c1.2-.5,3.1-1,2.4-2.7s-1.9,0-2.8.3c-3.9,1.2-7.1,0-7.4-4.7C106,42.8,106.3,42.3,107.5,42.3Zm0.7-5.7a4.1,4.1,0,0,1,2.6-.6c1.6,0.1,3,.7,3,2.5s-1.7,1.3-2.8,1.4H109c-0.8-.2-2.2.7-2.4-0.7S107.4,37.2,108.3,36.6Z"/><path class="b" d="M172.7,42.3H179a1.9,1.9,0,0,0,2-1c1.2-2.3.3-5.9-1.9-7.1a7.1,7.1,0,0,0-10.2,3.9,10.8,10.8,0,0,0-.5,5.8v0.4c0,3.7,1.9,5.7,5.2,7.7h3.9c0.3-1,1-.6,1.5-0.8s2.9-1,2.3-2.7-1.9-.2-2.7.1c-4.1,1.4-7.3-.5-7.5-4.6C171,42.8,171.4,42.3,172.7,42.3Zm1.4-6.1a3.9,3.9,0,0,1,2.6-.1c1.3,0.3,2.3,1.1,2.1,2.6s-1.4,1.2-2.5,1.2h-1.9c-0.9-.2-2.5.7-2.8-0.6S172.8,36.8,174.1,36.2Z"/><path class="b" d="M129.9,41.4a12.3,12.3,0,0,1-2.5-1.4,2.2,2.2,0,0,1,1.4-4.1l3.8,0.5a0.4,0.4,0,0,0,.5-0.4c0.9-1.1.2-1.6-.7-2a8.6,8.6,0,0,0-3.8-.6c-2.4.1-4.2,1.2-4.9,3.7s0.2,4.1,2.5,5.5l3.3,1.7c1,0.6,2.1,1.3,1.9,2.6a2.7,2.7,0,0,1-2.2,2.3,4.1,4.1,0,0,0-1,.6,3.5,3.5,0,0,1-1.2-.3c-1.1-.8-2.5-2.1-3.5-0.6s1.2,2,2.1,2.8,0.1,0.4.1,0.4h4.9c2.1-1,4-2.8,3.8-5.5S132.1,42.4,129.9,41.4Z"/><path class="b" d="M222.8,37.4c-0.7-3.4-3.7-4.7-6.7-2.9s-2.2,1.3-4.1,0a5.1,5.1,0,0,0-4.2-.5c-1.3.3-1.9,1.5-3.2,2.1s-0.1-2.2-1.5-2-1.1,1.4-1.1,2.3c0,4.2,0,8.5,0,12.7,0,0.9-.2,1.9,1.2,2s1.1-1,1.2-1.9c0.1-3.1-.3-6.2.5-9.2s2.5-4.1,4.3-3.9,2.2,2.3,2.5,3.9a14.4,14.4,0,0,1,.1,2.2c0,2.4,0,4.9,0,7.3,0,0.7-.2,1.5,1,1.6s1.3-.7,1.3-1.6,0-2.1,0-3.2-0.3-5.1.8-7.4,2-3.2,4.1-2.8S221,38.3,221,40s0,6.2,0,9.3c0,1.4.1,2.3,1.7,1.3H223V37.4h-0.2ZM203.6,48v0h0Z"/><path class="b" d="M192,28.7c-1.2-.1-2.5-0.5-3.5.3a0.9,0.9,0,0,0,.3,1.6c1.8,0.3,1.5,1.6,1.5,2.8q0,8,0,16.1c0,0.9.1,1.6,1.3,1.7s1.2-.8,1.2-1.6q0-4.7,0-9.5c0-3.2,0-6.3,0-9.5C192.8,29.7,193,28.8,192,28.7Z"/><path class="b" d="M97,33.9c-1.4-.5-1.7.5-1.9,1.5-0.7,2.6-1.3,5.3-1.9,8-0.3.8-.3,1.7-0.9,2.4a1.5,1.5,0,0,1-.7-1.3l-2.1-8.8c-0.2-.9-0.4-1.8-1.7-1.7a1.6,1.6,0,0,0-1.5,1.5c-0.2.8-.4,1.6-0.7,2.3-0.9,2.6-1.4,5.4-2.8,8.5-0.8-3.8-1.9-7-2.4-10.3S79,33.5,77,34v1.5c2,4.6,2.6,9.5,3.8,13.5h0.1c0,1,.1.4,0.2,0.5s0.4,1.9,1.5,1.7,1.4-1.5,1.6-2.6a1,1,0,0,0,.4-1l2.6-8,0.5,0.2L91,52h1.5c1.9-3,2.2-6.4,3.2-9.5s1.2-4.3,1.8-6.3S98.2,34.3,97,33.9Z"/><path class="b" d="M149.2,48.8c-2.4.4-3.6-.8-3.9-3V41.3c0.4-1.7-.5-3.6.7-5.3h3.7c0.7,0,1.5.1,1.5-1s-0.8-.9-1.5-1-3.1.7-4.3-.8,0.1-2.3,0-3.4,0.3-1.6-.8-1.7a1.7,1.7,0,0,0-1.8,1.4,7.3,7.3,0,0,0-.2,1.9c0,1.2.1,2.3-1.6,2.3a1,1,0,0,0-1.1,1.1c0,0.6.2,1.2,0.9,1.2s1.8,1.2,1.8,2.5,0.1,1.9.2,2.9a17.4,17.4,0,0,0,.1,5c-0.2,2.5,1,3.6,2.9,5.6h3.4a1.9,1.9,0,0,0,0-.6c1.3-.1,2.2-0.7,1.9-2.1S149.9,48.7,149.2,48.8Z"/></g></svg>