<svg xmlns="http://www.w3.org/2000/svg" width="300" height="80" viewBox="0 0 300 80"><defs><style>.a{fill:#0a0b0b;opacity:0.6;}</style></defs><title>williams-sonoma</title><path class="a" d="M18.1,32.2h0.9a1,1,0,0,1,.7.2L20,33l5.5,16.3h1l3.9-12.5,4.2,12.5h1L40,34.8a4.9,4.9,0,0,1,1-2,3.1,3.1,0,0,1,1.7-.6V31.1H36.5v1.1l1.8,0.3a1,1,0,0,1,.6,1,2,2,0,0,1,0,.5v0.5l-3,10.2L32.2,33.8,32,33.2a1.3,1.3,0,0,1,0-.4,0.5,0.5,0,0,1,.1-0.4l0.3-.2h1.8V31.1H26.9v1.1h2L29,32.6l0.8,2.3-3.1,9.7L23,33.2V32.9a1.2,1.2,0,0,1,0-.3,0.3,0.3,0,0,1,.2-0.3h2.1V31.1H18.1v1.1h0ZM44.2,48.9h8.4V47.8H50.7L50,47.5a1.1,1.1,0,0,1-.2-0.8V33.4a1.1,1.1,0,0,1,.3-1l1.3-.2h1.2V31.1H44.2v1.1H46l0.7,0.3a1,1,0,0,1,.2.8v13a1.5,1.5,0,0,1-.3,1.3,8.3,8.3,0,0,1-2.5.2v1.1h0Zm25.2,0,0.5-6.7H68.8c-0.3,2.5-1.2,4.1-2.6,5a7.5,7.5,0,0,1-3.7.7,5.2,5.2,0,0,1-2.2-.3,1.4,1.4,0,0,1-.4-1.3V33.4a1.1,1.1,0,0,1,.4-1.1l2.4-.2V31.1H54.3v1.1l2.3,0.2a1,1,0,0,1,.4,1.1V46.5a1.7,1.7,0,0,1-.2.8,0.8,0.8,0,0,1-.6.4H54.3v1.1H69.4Zm16.8,0,0.5-6.7H85.6c-0.3,2.5-1.2,4.1-2.6,5a7.5,7.5,0,0,1-3.7.7,5.2,5.2,0,0,1-2.2-.3,1.4,1.4,0,0,1-.4-1.3V33.4a1.1,1.1,0,0,1,.4-1.1l2.4-.2V31.1H71.1v1.1l2.3,0.2a1,1,0,0,1,.4,1.1V46.5a1.8,1.8,0,0,1-.1.8,0.8,0.8,0,0,1-.6.4H71.1v1.1H86.2Zm1.9,0h8.3V47.8H94.6l-0.7-.3a1.1,1.1,0,0,1-.2-0.8V33.4a1,1,0,0,1,.3-1l1.3-.2h1.2V31.1H88.1v1.1H90l0.7,0.3a1,1,0,0,1,.2.8v13a1.5,1.5,0,0,1-.4,1.3,8.2,8.2,0,0,1-2.4.2v1.1h0Zm18.3-14.3-2.9,7.2h5.8Zm0.2-3.9h1L114.6,47a1.2,1.2,0,0,0,.8.7h1.3v1.1h-7.8V47.8H111l0.4-.2a0.5,0.5,0,0,0,.1-0.4V46.6L110,43.1h-6.9l-0.4.9-0.3.7-0.2.7-0.2.5a2.9,2.9,0,0,0-.1.5,1.1,1.1,0,0,0,.6,1.1,6.3,6.3,0,0,0,1.9.3v1.1H98V47.8a3.7,3.7,0,0,0,1.6-.4,3,3,0,0,0,1-1.3V45.8l6-15.1h0Zm11.2,18.2h7.1V47.8a3.3,3.3,0,0,1-2.4-.8,4,4,0,0,1-.5-2.4V32.3l6.1,16.6h1L135,32.4V45.6c0,0.4,0,.8,0,1a2.2,2.2,0,0,1,0,.5,1,1,0,0,1-.9.5h-1.8v1.1h8.4V47.8l-2.3-.2a0.7,0.7,0,0,1-.5-0.8V34.1a2.2,2.2,0,0,1,.4-1.6,6.8,6.8,0,0,1,2.4-.3V31.1h-6.4l-4.7,13.4-4.9-13.4H118v1.1h1.7l0.8,0.2a0.8,0.8,0,0,1,.3.7V44.3a3.8,3.8,0,0,1-.8,2.9,4,4,0,0,1-2.1.6v1.1h0Zm24.6-6.7,0.2,6.9h0.9l1.1-1.8a7.6,7.6,0,0,0,2.2,1.4,8.5,8.5,0,0,0,3.2.6,6.2,6.2,0,0,0,4.3-1.5,4.9,4.9,0,0,0,1.7-3.8,5,5,0,0,0-1.1-3.4,6.4,6.4,0,0,0-3.4-1.8l-3.6-.9a6.4,6.4,0,0,1-2.2-.9,2.6,2.6,0,0,1-1.1-2.1,2.9,2.9,0,0,1,.9-2,3.8,3.8,0,0,1,2.8-.9,4.7,4.7,0,0,1,3.8,1.7,9.1,9.1,0,0,1,1.9,3.8h1.1l-0.3-6.4h-0.9l-1,1.6a6.6,6.6,0,0,0-1.6-1.1,7.6,7.6,0,0,0-3.1-.6,5.5,5.5,0,0,0-4,1.5,4.9,4.9,0,0,0-1.5,3.6,4.1,4.1,0,0,0,1.8,3.6,13.9,13.9,0,0,0,3.9,1.4l2.4,0.6a5.3,5.3,0,0,1,2.6,1.3,2.9,2.9,0,0,1,.7,1.9,3,3,0,0,1-1.1,2.4,4.7,4.7,0,0,1-3.2.9,5.5,5.5,0,0,1-4.4-1.8,8.6,8.6,0,0,1-1.9-4.2h-1.1Zm16.7-.9h6.3v-2h-6.3v2Zm9,0.9,0.2,6.9h0.9l1.1-1.8a7.3,7.3,0,0,0,2.2,1.4,8.4,8.4,0,0,0,3.2.6,6.2,6.2,0,0,0,4.3-1.5,4.9,4.9,0,0,0,1.7-3.8,5,5,0,0,0-1.1-3.4,6.4,6.4,0,0,0-3.4-1.8l-3.6-.9a6.4,6.4,0,0,1-2.2-.9,2.6,2.6,0,0,1-1.1-2.1,2.9,2.9,0,0,1,.9-2,3.8,3.8,0,0,1,2.8-.9,4.7,4.7,0,0,1,3.8,1.7,8.9,8.9,0,0,1,1.9,3.8h1.1l-0.3-6.4H180l-1,1.6a6.4,6.4,0,0,0-1.6-1.1,7.5,7.5,0,0,0-3.1-.6,5.5,5.5,0,0,0-4,1.5,4.9,4.9,0,0,0-1.5,3.6,4.1,4.1,0,0,0,1.8,3.6,13.6,13.6,0,0,0,3.9,1.4l2.4,0.6a5.3,5.3,0,0,1,2.6,1.3,3,3,0,0,1,.7,1.9,3,3,0,0,1-1.1,2.4,4.8,4.8,0,0,1-3.2.9,5.5,5.5,0,0,1-4.4-1.8,8.7,8.7,0,0,1-2-4.2h-1.1Zm19.2,2.5a5,5,0,0,0,9.5,0,14.8,14.8,0,0,0,.7-5,12.2,12.2,0,0,0-.8-4.9,4.6,4.6,0,0,0-4.5-3,4.9,4.9,0,0,0-4.6,3,12.5,12.5,0,0,0-.8,5.1,14.1,14.1,0,0,0,.7,4.7h0Zm11.2-11a9.2,9.2,0,0,1,2.3,6.2,9.7,9.7,0,0,1-2.3,6.3,8,8,0,0,1-6.5,3.1,8.2,8.2,0,0,1-6.1-2.7,9.1,9.1,0,0,1-2.6-6.5,9.4,9.4,0,0,1,2.4-6.5,8.4,8.4,0,0,1,12.7.1h0Zm2.6,15.2h7.4V47.8a4.9,4.9,0,0,1-2.2-.5,3,3,0,0,1-.8-2.5V34.2L217,49.3h1V34.9a2.8,2.8,0,0,1,.8-2.2,5.1,5.1,0,0,1,2.1-.5V31.1h-7.2v1.1a5.2,5.2,0,0,1,1.9.4,2.1,2.1,0,0,1,1,1.9v9.9L206.6,31.1h-5.3v1.1h2.1a1.8,1.8,0,0,1,.9.7V44.3c0,1.5-.2,2.4-0.6,2.8a4.5,4.5,0,0,1-2.4.8v1.1h0Zm23.9-4.2a5,5,0,0,0,9.5,0,15.2,15.2,0,0,0,.7-5,12,12,0,0,0-.8-4.9,4.6,4.6,0,0,0-4.5-3,4.9,4.9,0,0,0-4.6,3,12.6,12.6,0,0,0-.8,5.1,14,14,0,0,0,.7,4.7h0Zm11.2-11a9.2,9.2,0,0,1,2.3,6.2,9.7,9.7,0,0,1-2.3,6.3,8,8,0,0,1-6.5,3.1,8.2,8.2,0,0,1-6.1-2.7,9,9,0,0,1-2.6-6.5,9.4,9.4,0,0,1,2.4-6.5,8,8,0,0,1,6.2-2.9,8.1,8.1,0,0,1,6.4,2.9h0ZM239,48.9h7.1V47.8a3.3,3.3,0,0,1-2.4-.8,3.9,3.9,0,0,1-.5-2.4V32.3l6.1,16.6h1l5.8-16.5V45.6c0,0.4,0,.8,0,1a1.9,1.9,0,0,1,0,.5,1,1,0,0,1-.9.5h-1.8v1.1h8.3V47.8l-2.3-.2a0.7,0.7,0,0,1-.5-0.8V34.1a2.2,2.2,0,0,1,.4-1.6,6.7,6.7,0,0,1,2.4-.3V31.1h-6.4l-4.7,13.4-4.9-13.4h-6.5v1.1h1.7l0.8,0.2a0.9,0.9,0,0,1,.3.7V44.3c0,1.4-.3,2.4-0.8,2.9a4,4,0,0,1-2.1.6v1.1h0Zm32.6-14.3-2.9,7.2h5.8l-3-7.2h0Zm0.2-3.9h1L279.8,47a1.1,1.1,0,0,0,.8.7h1.3v1.1h-7.8V47.8h2.1l0.4-.2a0.5,0.5,0,0,0,.2-0.4V46.6l-1.4-3.5h-6.9L268,44l-0.3.7-0.2.7v0.5a1.9,1.9,0,0,0-.1.5,1.1,1.1,0,0,0,.6,1.1,6.3,6.3,0,0,0,2,.3v1.1h-6.7V47.8a3.7,3.7,0,0,0,1.6-.4,2.8,2.8,0,0,0,1-1.3l0.2-.3,6-15.1h0Z"/></svg>