<svg xmlns="http://www.w3.org/2000/svg" width="299.6" height="45.5" viewBox="0 0 299.6 45.5"><defs><style>.a{opacity:0.5;}.b{fill:#ceb07c;}</style></defs><title>divider_accomodations</title><g class="a"><path class="b" d="M80,26.2c-2.2.4-4.2,0.2-6.4,0.4s-6.2.4-9.3,0.4c-5.4-.2-10.9,0-16.2,0l-21.2-.2a90.1,90.1,0,0,0-15.6.9,16,16,0,0,0-6.2,1.8A7.4,7.4,0,0,0,1.7,38a4.6,4.6,0,0,0,.7,1.3,6.5,6.5,0,0,0,3.1,2,11.8,11.8,0,0,0,4.4.2,2.3,2.3,0,0,0,2-1.8,4,4,0,0,1,.5-0.9,0.9,0.9,0,0,1,.5-0.2,1,1,0,0,1,.4.5,4.5,4.5,0,0,1-4.2,3.3,10.4,10.4,0,0,0-2.4.2,5.1,5.1,0,0,1-3.3-1.1,12.5,12.5,0,0,1-2.4-2A3.8,3.8,0,0,1,.1,37.7a8.6,8.6,0,0,1,1.3-6,8.4,8.4,0,0,1,2.7-2.9,12.7,12.7,0,0,1,5.1-2.2,35.8,35.8,0,0,1,6.2-.7l6.2-.5c2-.2,2.4-0.7,1.3-2.2l-1.1-1.6a5.5,5.5,0,0,1-.9-2.9,9.6,9.6,0,0,1,2.2-6.9A10.3,10.3,0,0,1,36,10.1a6.1,6.1,0,0,1,2,2.4,4,4,0,0,1-1.6,5.4l-0.7.2a7.9,7.9,0,0,1-6-1.5V16.1a0.3,0.3,0,0,1,.4,0,6.5,6.5,0,0,1,1.6.7,11.7,11.7,0,0,0,2.4.7,5.4,5.4,0,0,0,1.8-.4A2,2,0,0,0,37.1,15a5.2,5.2,0,0,0-2-3.5,7.8,7.8,0,0,0-7.4-1.3,7.5,7.5,0,0,0-3.3,12.5,4.8,4.8,0,0,0,2.5,1.6,40.5,40.5,0,0,0,4.2.7l5.1,0.4,5.6,0.2c2.7,0,5.3-.4,8,0l1.3-.2,6.5-.2H75.1a17.9,17.9,0,0,0,4.4-.5h1.3a0.7,0.7,0,0,1,.4.4,0.7,0.7,0,0,1-.2.5A1,1,0,0,1,80,26.2Zm7.4-.5-0.9.2a0.5,0.5,0,0,1-.2-0.7l0.7-.5a0.7,0.7,0,0,1,.4.4C87.8,25.1,87.6,25.5,87.4,25.7Zm5.8,0a0.6,0.6,0,0,1-.7-0.5,1.1,1.1,0,0,1,1.3-.9,1.5,1.5,0,0,1,.5.5A1.2,1.2,0,0,1,93.2,25.7Zm8.5-.5a0.6,0.6,0,0,1-.7.2,0.4,0.4,0,0,1-.4-0.4,0.8,0.8,0,0,1,.7-1.1l0.7,0.4A4.7,4.7,0,0,1,101.8,25.1Z"/><path class="b" d="M197.5,24.2l0.7-.4A0.8,0.8,0,0,1,199,25a0.4,0.4,0,0,1-.4.4,0.6,0.6,0,0,1-.7-0.2A4.7,4.7,0,0,1,197.5,24.2Zm7.8,0.5a1.5,1.5,0,0,1,.5-0.5,1.1,1.1,0,0,1,1.3.9,0.6,0.6,0,0,1-.7.5A1.2,1.2,0,0,1,205.3,24.8Zm6.9,0.2a0.7,0.7,0,0,1,.4-0.4l0.7,0.5a0.5,0.5,0,0,1-.2.7l-0.9-.2C212,25.5,211.8,25.1,212.2,25Zm6.5,0.7a0.7,0.7,0,0,1-.2-0.5,0.7,0.7,0,0,1,.4-0.4h1.3a17.9,17.9,0,0,0,4.4.5H242l6.5,0.2,1.3,0.2c2.7-.4,5.3,0,8,0l5.6-.2,5.1-.4a40.5,40.5,0,0,0,4.2-.7,4.8,4.8,0,0,0,2.5-1.6A7.5,7.5,0,0,0,272,10.3a7.8,7.8,0,0,0-7.4,1.3,5.2,5.2,0,0,0-2,3.5,2,2,0,0,0,1.3,2.2,5.4,5.4,0,0,0,1.8.4,11.8,11.8,0,0,0,2.4-.7,6.5,6.5,0,0,1,1.6-.7,0.3,0.3,0,0,1,.4,0v0.5a7.9,7.9,0,0,1-6,1.5l-0.7-.2a4,4,0,0,1-1.6-5.4,6.1,6.1,0,0,1,2-2.4,10.3,10.3,0,0,1,13.1,1.6,9.6,9.6,0,0,1,2.2,6.9,5.5,5.5,0,0,1-.9,2.9l-1.1,1.6c-1.1,1.5-.7,2,1.3,2.2l6.2,0.5a35.8,35.8,0,0,1,6.2.7,12.7,12.7,0,0,1,5.1,2.2,8.4,8.4,0,0,1,2.7,2.9,8.6,8.6,0,0,1,1.3,6,3.8,3.8,0,0,1-1.1,1.8,12.5,12.5,0,0,1-2.4,2,5.1,5.1,0,0,1-3.3,1.1,10.4,10.4,0,0,0-2.4-.2,4.5,4.5,0,0,1-4.2-3.3,1,1,0,0,1,.4-0.5,0.9,0.9,0,0,1,.5.2,4,4,0,0,1,.5.9,2.3,2.3,0,0,0,2,1.8,11.8,11.8,0,0,0,4.4-.2,6.5,6.5,0,0,0,3.1-2,4.6,4.6,0,0,0,.7-1.3,7.4,7.4,0,0,0-3.5-8.5,16,16,0,0,0-6.2-1.8,90.1,90.1,0,0,0-15.6-.9l-21.2.2c-5.3,0-10.7-.2-16.2,0-3.1,0-6.2-.2-9.3-0.4s-4.2,0-6.4-.4A1,1,0,0,1,218.8,25.7Z"/><path class="b" d="M146.4,16a18.9,18.9,0,0,1,4-.4l0.2-1.1a0.4,0.4,0,0,1,.5-0.3h0a0.4,0.4,0,0,1,.3.5l-0.2,1c3.8,0.2,7.1,1.6,8.9,3.9a1.5,1.5,0,0,1,.5-0.6,8.5,8.5,0,0,1,3.7-1.8,1.5,1.5,0,0,1,1.3.1,0.8,0.8,0,0,1,0-.4,0.9,0.9,0,0,0,.2-0.9,2.4,2.4,0,0,0-1.8.4c-2.7-.5-5.5-3.3-8.6-4.2-1-.7-2.9-1.3-3.6-1.8s-3.7-1.7-3-3.2c1.1,1.6,5.3.7,5.7,0.6,3.1-.8,3,0.7,3.4.4l0.2-.3c0.3-.5-2.2-3.7-2.3-3.9-1.4-2.1-5.5-1.6-6.1-.1s-0.6-.4-0.5-0.8c3-6.2,11.7-.2,11.3.3s1.2,0.2,1.4.2,8.5,5.2,8.2,7.9,0.2,1.6-.2,2.2l-0.5.5c1.3,1.8.7,4.2-1.2,6.6a0.8,0.8,0,0,1-.7.3h0a1.7,1.7,0,0,1-.3.9c-0.6,1-1.5,1.5-4.6,2.4a1.3,1.3,0,0,1-1-.2,7,7,0,0,1-.1.8l-0.5.7h0.3a25,25,0,0,1,4.2-1.5l1.7-.2h0.1a7.7,7.7,0,0,1,1.9-1.5,4.7,4.7,0,0,1,1.6-.7h0.1l0.3-.6a8.4,8.4,0,0,1,1.4-1.6c0.5-.5.8-0.6,0.9-0.4h0c0.6-.4,1.8.3,2,1.4s-1.6-.7-2.2,0h0l-0.9,1a10.4,10.4,0,0,1-1.1,1.5,6.7,6.7,0,0,1-1.8,1.4c-0.2.1-1.8,1.2-2,.9a20.8,20.8,0,0,0-4.7,1.9c-0.2.1-3,1.3-3.2,1.1l-0.4.8,0.5-.2c1.9-.6,5.8-2.3,7.9-2.7a1.4,1.4,0,0,1,1.3.2h0.2a9.9,9.9,0,0,1,2.8-.4l1.1,0.2a2.8,2.8,0,0,1,.8-0.7,10.9,10.9,0,0,1,2.6-1.1,1.8,1.8,0,0,1,1.2-.2h0.1c0.6-.2,1.7.8,1.6,1.9a1.9,1.9,0,0,0-1.8-.8c-0.3.6-.7,0.5-2.2,1.2a17.3,17.3,0,0,1-2.1,1.1,12.3,12.3,0,0,1-2.5.2h-1.8l-0.3.3c-0.7.4-4.5,0.8-7.3,2.3a13.4,13.4,0,0,1-3.2.9l-0.2.4,1.4-.2c1-.3,2.5-1,4.1-1.4a31.5,31.5,0,0,1,4-.7,1.4,1.4,0,0,1,1.2.2h0.1c1,0.4,2.4.5,3.5,1.1a0.8,0.8,0,0,1,.5.4h0.1c-0.1,0,3.1.7,3.4,1.1l0.3,0.2c0.5,0.5.1,4-1,4.4a6.3,6.3,0,0,0,0-3.5h0a1.6,1.6,0,0,1-1.2.2c-1-.5-1.3,0-2.6-0.7a0.5,0.5,0,0,1-.5-0.5,26.6,26.6,0,0,1-3-1.4h-0.1a15.9,15.9,0,0,1-7,1.4,28.1,28.1,0,0,0-3.9.5l-0.3.5c0.3-.1.5,0,0.4,0.2l0.7-.3,2.2-.5a1.4,1.4,0,0,1,1.5.5c1.9,0.1,1.5,2.2,1.4,2.8l-0.3.4a0.6,0.6,0,0,1,.3.6,5.7,5.7,0,0,1-.7,2.8,1.1,1.1,0,0,1-.7.6,3.7,3.7,0,0,1-3.4,2.4,6.7,6.7,0,0,1-4.9-1.8c1.1-2.4,3.2-2.5,4.8-2.6a7.1,7.1,0,0,1,.8-1.6h-0.6a1.8,1.8,0,0,1-1.3-.5c-1.4-.3-1.8-0.5-2-0.8h0a24,24,0,0,1-4.4,1.6,33.5,33.5,0,0,1-4.6.5h-0.1c0,0.3-.4.7-1.5,1.4a1.8,1.8,0,0,1-.9,1l-0.5.3a7.1,7.1,0,0,1,1.4,1.1c1.5-.5,3.4-1.3,5.4.4a6.7,6.7,0,0,1-3.7,3.7,3.7,3.7,0,0,1-4.1-.8,1.1,1.1,0,0,1-.9-0.3,5.7,5.7,0,0,1-1.8-2.2,0.6,0.6,0,0,1,.1-0.7l-0.4-.2c-0.4-.4-1.6-2.2.1-3.1a1.4,1.4,0,0,1,1.2-1l2.2-.5h0.8c-0.1-.1,0-0.3.2-0.3l-0.4-.2a29.6,29.6,0,0,0-3.8,1.2,16.2,16.2,0,0,1-6.7,1.8,11.1,11.1,0,0,1-1.2,1.6h-0.1a0.7,0.7,0,0,1-.3.5c-0.8,1.1-1.3.8-2,1.7a1.6,1.6,0,0,1-1.2.3h0c-0.1.9,1,2.7,1.5,3.2-1.1,0-2.9-3-2.7-3.6l0.2-.3c-0.1-.3,2.7-2.5,2.6-2.4h0.1a0.7,0.7,0,0,1,.3-0.6c0.8-1.1,1-.6,1.8-1.5h0.1a1.6,1.6,0,0,1,1-.7,31.6,31.6,0,0,1,3.9-1.2c1.6-.3,3.2-0.3,4.3-0.5l1.3-.4-0.5-.4a18.8,18.8,0,0,1-2.9.4c-3.1-.1-6.7,1.2-7.5,1.1h-0.1a6.1,6.1,0,0,1-1.9,1,16.4,16.4,0,0,1-2.3.9c0.4,0.4-2.2,0-2.4,0s-1.9.2-2.4-.1a1.8,1.8,0,0,0-1.5,1.5c-0.5-1,0-2.3.6-2.4h0.1c0-.2.3-0.3,1.2-0.4a10.9,10.9,0,0,1,2.8,0l1,0.2a2.9,2.9,0,0,1,1-.7,9.9,9.9,0,0,1,2.7-.8h0.3c-0.1-.4.2-0.8,1.1-1.1s6.3-.7,8.3-1h0l-0.6-.5a19.2,19.2,0,0,1-3.1-.1c-3.2-.6-4.3.4-5.2,0.2h-0.1c-0.1.4-2,.1-2.2,0a7.1,7.1,0,0,1-2.1-.5c0,0.2-1.6-.8-1.7-0.8a8.8,8.8,0,0,1-1.5-.7,1.9,1.9,0,0,0-1.7.9c-0.2-1.1.7-2.1,1.4-2h0.1a1.3,1.3,0,0,1,.9.1,8.4,8.4,0,0,1,2,.9l0.5,0.3h0.1a5.7,5.7,0,0,1,1.8,0,7.7,7.7,0,0,1,2.4.6h0l0.6-.5a4.2,4.2,0,0,1,1.3-.1,23.8,23.8,0,0,1,4.3,0l-0.6-.4-0.5-.9-0.6.2c-3.1.5-3.2,0.8-4.2,0.1a1.6,1.6,0,0,1-.6-0.7c-0.1.3-.6,0.1-0.9,0-2.8-1.4-4.2-3.3-3.6-5.6-0.8-.3-1.4-0.8-1.2-1.6s3.6-11.5,4.3-9.9c0.2-.1.7-1,1.2-0.8s5.7-6.5,9.7-2.8c0.3,0.3.4,0.7-.1,0.4s-3.8.2-4.2,0.7-2.8,3.4-2.2,3.8h0.2c0.5,0.1,1.1-2.5,4.3-3.1a2.9,2.9,0,0,0,2.6-2.2c1.3,1.1-1.3,3.6-1.7,4.3l-1.6,2.7c-0.5,2.7-5.8,8.4-7.1,9.4l0.2,0.2,0.2,0.3a1.5,1.5,0,0,1,1.1-.7,7,7,0,0,1,3.7.1h0.6a12.7,12.7,0,0,1,6.4-6.5l-0.6-.8a0.4,0.4,0,0,1,.1-0.6h0a0.4,0.4,0,0,1,.6.1l0.6,0.9A18.9,18.9,0,0,1,146.4,16Z"/></g></svg>