<svg xmlns="http://www.w3.org/2000/svg" width="368.58" height="30.84" viewBox="0 0 368.58 30.84"><defs><style>.a{opacity:0.5;}.b{fill:#e2d7be;}.c{fill:#ceb07c;}</style></defs><title>divider-plane</title><g class="a"><path class="b" d="M441,397.41c-0.41,0-.83,0-1.64,0s-1.08,0-1.46,0-0.82,0-1.63,0h-1.54l-1.52,0c-0.81,0-1.21,0-1.6,0s-0.71,0-1.42,0a6.64,6.64,0,0,1-1.26-.09,12.3,12.3,0,0,0-2-.14,13.49,13.49,0,0,0-1.7.11,7.75,7.75,0,0,1-1.25.08l-1.56,0-1.48,0c-0.67,0-1,0-1.38-.06a17.5,17.5,0,0,0-1.79-.07,9.68,9.68,0,0,0-1.74.14,7.19,7.19,0,0,1-1.2.08c-0.68,0-1,0-1.4,0s-0.88-.06-1.73-0.05h-1.56l-1.49,0c-0.7,0-1.05,0-1.43,0s-0.86,0-1.71,0-1.26,0-1.63.06-0.67,0-1.37.05a11.33,11.33,0,0,0-1.71.11,8.66,8.66,0,0,1-1.25.07c-0.72,0-1.07,0-1.45,0s-0.84,0-1.66,0-1.12,0-1.49,0-0.81,0-1.58,0a8.31,8.31,0,0,1-1.28-.09,13.43,13.43,0,0,0-1.93-.13,11.73,11.73,0,0,0-1.72.12,8,8,0,0,1-1.22.08l-1.47,0c-0.41,0-.82,0-1.62,0s-1.26,0-1.64.06-0.67,0-1.36.06h-3.09a15.87,15.87,0,0,0-1.65.08c-0.36,0-.65.06-1.34,0.06a4.66,4.66,0,0,1-1.14-.11,9.64,9.64,0,0,0-2.15-.22,12.77,12.77,0,0,0-1.71.1,7.4,7.4,0,0,1-1.25.08,13.9,13.9,0,0,0-1.68.1,11.3,11.3,0,0,1-1.28.07c-0.72,0-1.09,0-1.46,0s-0.84,0-1.65,0-1.23,0-1.62.05-0.68,0-1.39,0a12.54,12.54,0,0,1-1.35-.06,15.11,15.11,0,0,0-1.82-.09c-0.81,0-1.22,0-1.61,0s-0.69,0-1.41,0-1.07,0-1.44,0-0.84,0-1.67,0-1.23,0-1.63.06-0.67.05-1.37,0-1.23,0-1.63.06-0.67.05-1.37,0.05-1.06,0-1.44,0-0.84,0-1.67,0-1.22,0-1.61,0-0.69,0-1.42,0A12.6,12.6,0,0,1,337,398a17.75,17.75,0,0,0-1.79-.08c-0.73,0-1.1,0-1.48,0s-0.81,0-1.6,0l-1.54,0h-1.51c-0.93,0-1.68,0-1.21.77s0.87,0.17,1.81.17l1.55,0,1.49,0c0.73,0,1.12,0,1.48,0l1.6,0a11.74,11.74,0,0,1,1.37.06c0.43,0,.92.08,1.79,0.08s1.21,0,1.6-.06,0.7,0,1.41,0,1.07,0,1.45,0,0.84,0,1.67,0,1.22,0,1.62-.06,0.67-.05,1.38,0,1.25,0,1.62-.06,0.67,0,1.37,0,1.07,0,1.45,0,0.84,0,1.67,0,1.22,0,1.61,0,0.69,0,1.41,0a11.3,11.3,0,0,1,1.35.06,16.9,16.9,0,0,0,1.82.08c0.82,0,1.23,0,1.62-.05s0.69,0,1.39,0,1.09,0,1.47,0,0.83,0,1.65,0a13.19,13.19,0,0,0,1.68-.1,9.22,9.22,0,0,1,1.28-.07,12.43,12.43,0,0,0,1.7-.11,9.16,9.16,0,0,1,1.25-.08,5,5,0,0,1,1.13.12,9.49,9.49,0,0,0,2.15.22c0.85,0,1.27,0,1.65-.07s0.65-.06,1.34-0.06h3.08c0.84,0,1.26,0,1.64-.06s0.67,0,1.37-.05,1.09,0,1.48,0l1.61,0a11.37,11.37,0,0,0,1.73-.12,7.56,7.56,0,0,1,1.22-.08,7.06,7.06,0,0,1,1.28.09,13.47,13.47,0,0,0,1.93.13h3.08c0.72,0,1.07,0,1.46,0s0.84,0,1.65,0a12.07,12.07,0,0,0,1.71-.11,8.06,8.06,0,0,1,1.24-.08c0.84,0,1.26,0,1.63-.06s0.68,0,1.38,0,1.05,0,1.42,0,0.86,0,1.7,0h1.56l1.5,0c0.68,0,1,0,1.4,0s0.88,0.06,1.73.06a9.73,9.73,0,0,0,1.74-.14,6.37,6.37,0,0,1,1.19-.09,12.45,12.45,0,0,1,1.36.05c0.43,0,.92.08,1.79,0.08l1.55,0,1.5,0a13.38,13.38,0,0,0,1.71-.1,8.5,8.5,0,0,1,1.26-.08,7.25,7.25,0,0,1,1.26.09,11.74,11.74,0,0,0,2,.14c0.81,0,1.2,0,1.59,0s0.7,0,1.43,0h3.06l1.47,0c0.41,0,.83,0,1.64,0s1.08,0,1.47,0,0.82,0,1.63,0a1,1,0,0,0,1-.46c0.12-.24.44,0,0.23-0.31-0.47-.74-0.87-0.17-1.81-0.17Z" transform="translate(-327.71 -379.58)"/><path class="b" d="M693,397.41c-0.41,0-.83,0-1.64,0s-1.08,0-1.46,0-0.82,0-1.63,0h-1.54l-1.52,0c-0.81,0-1.21,0-1.6,0s-0.71,0-1.42,0a6.64,6.64,0,0,1-1.26-.09,12.3,12.3,0,0,0-2-.14,13.49,13.49,0,0,0-1.7.11,7.75,7.75,0,0,1-1.25.08l-1.56,0-1.48,0c-0.67,0-1,0-1.38-.06a17.5,17.5,0,0,0-1.79-.07,9.68,9.68,0,0,0-1.74.14,7.19,7.19,0,0,1-1.2.08c-0.68,0-1,0-1.4,0s-0.88-.06-1.73-0.05h-1.56l-1.49,0c-0.7,0-1.05,0-1.43,0s-0.86,0-1.71,0-1.26,0-1.63.06-0.67,0-1.37.05a11.33,11.33,0,0,0-1.71.11,8.66,8.66,0,0,1-1.25.07c-0.72,0-1.07,0-1.45,0s-0.84,0-1.66,0-1.12,0-1.49,0-0.81,0-1.58,0a8.31,8.31,0,0,1-1.28-.09,13.43,13.43,0,0,0-1.93-.13,11.73,11.73,0,0,0-1.72.12,8,8,0,0,1-1.22.08l-1.47,0c-0.41,0-.82,0-1.62,0s-1.26,0-1.64.06-0.67,0-1.36.06H630a15.87,15.87,0,0,0-1.65.08c-0.36,0-.65.06-1.34,0.06a4.66,4.66,0,0,1-1.14-.11,9.64,9.64,0,0,0-2.15-.22,12.77,12.77,0,0,0-1.71.1,7.4,7.4,0,0,1-1.25.08,13.9,13.9,0,0,0-1.68.1,11.3,11.3,0,0,1-1.28.07c-0.72,0-1.09,0-1.46,0s-0.84,0-1.65,0-1.23,0-1.62.05-0.68,0-1.39,0a12.54,12.54,0,0,1-1.35-.06,15.11,15.11,0,0,0-1.82-.09c-0.81,0-1.22,0-1.61,0s-0.69,0-1.41,0-1.07,0-1.44,0-0.84,0-1.67,0-1.23,0-1.63.06-0.67.05-1.37,0-1.23,0-1.63.06-0.67.05-1.37,0.05-1.06,0-1.44,0-0.84,0-1.67,0-1.22,0-1.61,0-0.69,0-1.42,0a12.6,12.6,0,0,1-1.36-.05,17.75,17.75,0,0,0-1.79-.08c-0.73,0-1.1,0-1.48,0s-0.81,0-1.6,0l-1.54,0H581c-0.93,0-1.68,0-1.21.77s0.87,0.17,1.81.17l1.55,0,1.49,0c0.73,0,1.12,0,1.48,0l1.6,0a11.74,11.74,0,0,1,1.37.06c0.43,0,.92.08,1.79,0.08s1.21,0,1.6-.06,0.7,0,1.41,0,1.07,0,1.45,0,0.84,0,1.67,0,1.22,0,1.62-.06,0.67-.05,1.38,0,1.25,0,1.62-.06,0.67,0,1.37,0,1.07,0,1.45,0,0.84,0,1.67,0,1.22,0,1.61,0,0.69,0,1.41,0a11.3,11.3,0,0,1,1.35.06,16.9,16.9,0,0,0,1.82.08c0.82,0,1.23,0,1.62-.05s0.69,0,1.39,0,1.09,0,1.47,0,0.83,0,1.65,0a13.19,13.19,0,0,0,1.68-.1,9.22,9.22,0,0,1,1.28-.07,12.43,12.43,0,0,0,1.7-.11,9.16,9.16,0,0,1,1.25-.08,5,5,0,0,1,1.13.12,9.49,9.49,0,0,0,2.15.22c0.85,0,1.27,0,1.65-.07s0.65-.06,1.34-0.06h3.08c0.84,0,1.26,0,1.64-.06s0.67,0,1.37-.05,1.09,0,1.48,0l1.61,0a11.37,11.37,0,0,0,1.73-.12,7.56,7.56,0,0,1,1.22-.08,7.06,7.06,0,0,1,1.28.09,13.47,13.47,0,0,0,1.93.13H649c0.72,0,1.07,0,1.46,0s0.84,0,1.65,0a12.07,12.07,0,0,0,1.71-.11,8.06,8.06,0,0,1,1.24-.08c0.84,0,1.26,0,1.63-.06s0.68,0,1.38,0,1.05,0,1.42,0,0.86,0,1.7,0h1.56l1.5,0c0.68,0,1,0,1.4,0s0.88,0.06,1.73.06a9.73,9.73,0,0,0,1.74-.14,6.37,6.37,0,0,1,1.19-.09,12.45,12.45,0,0,1,1.36.05c0.43,0,.92.08,1.79,0.08l1.55,0,1.5,0a13.38,13.38,0,0,0,1.71-.1,8.5,8.5,0,0,1,1.26-.08,7.25,7.25,0,0,1,1.26.09,11.74,11.74,0,0,0,2,.14c0.81,0,1.2,0,1.59,0s0.7,0,1.43,0h3.06l1.47,0c0.41,0,.83,0,1.64,0s1.08,0,1.47,0,0.82,0,1.63,0a1,1,0,0,0,1-.46c0.12-.24.44,0,0.23-0.31-0.47-.74-0.87-0.17-1.81-0.17Z" transform="translate(-327.71 -379.58)"/><path class="c" d="M493.77,396.68a115.09,115.09,0,0,0,12.9,8c2.6,1.4,5,3,7.8,4.2a0.43,0.43,0,0,1,.4.4,0.83,0.83,0,0,1,.2.8,1,1,0,0,1-.8.3,0.61,0.61,0,0,1-.6-0.1c-0.8-.4-1.5-0.8-2.3-1.2-3.4-2-6.9-4-10.3-6.1-3.7-2.2-7.3-4.5-11-6.8-1.1-.7-2.1-1.3-2.5-2.7a3.81,3.81,0,0,0-.9-0.9c-0.3-.3-0.6-0.5-0.9-0.8a1.2,1.2,0,0,1,0-1.5c0.3-.2.7-0.5,1-0.7,3.8-1.7,7.5-3.3,11.4-4.7,4.8-1.6,9.7-2.9,14.5-4.3,0.8-.3,1.6-0.5,2.4-0.8a1.88,1.88,0,0,1,2.5.7c0.3,0.4.6,0.9,0.9,1.3a58,58,0,0,0,4,5.7,2.29,2.29,0,0,1,.3,2.4c-0.3.8-.6,1.7-0.9,2.6a1.29,1.29,0,0,0,.9,1.5c0.6,0.1,1.3.3,1.9,0.4,0.8,0.1,1.7.1,2.5,0.2a21.78,21.78,0,0,1,6.1,1.5,2.27,2.27,0,0,1,1.6,1.8,38.16,38.16,0,0,0,1.9,5.7,8.7,8.7,0,0,0,1.6,3,1.33,1.33,0,0,1,.1.9,1.05,1.05,0,0,1-1.2.3,2,2,0,0,1-.8-0.4,46.75,46.75,0,0,0-7.1-3.5,16.68,16.68,0,0,0-5.4-1.5,0.78,0.78,0,0,0-1,.5,4.61,4.61,0,0,1-.9,1.7,42.94,42.94,0,0,0-3.5,5.2,0.87,0.87,0,0,1-.7.5,1.07,1.07,0,0,1-.9-1.1c0.9-1.4,1.7-2.7,2.6-4a7.22,7.22,0,0,0,1.4-2.4c-0.5-.8-1.4-0.9-2-1.5a2.19,2.19,0,0,0-.5-0.3c-0.4-.1-0.9-0.1-1.3-0.2l-5.3-.6a72.35,72.35,0,0,1-11.4-2.5c-2.3-.6-4.6-1.4-7-2a7.55,7.55,0,0,0-1.5,0v-0.2l-0.1.1C492.47,396,493.17,396.28,493.77,396.68Zm25.2-3a0.89,0.89,0,0,0,.8-0.5,10.67,10.67,0,0,0,1-3.6,1.06,1.06,0,0,0-.7-0.6c-0.4.1-.8,0.1-1.3,0.2-1.3.4-2.6,0.7-3.9,1.1a3.88,3.88,0,0,1-2.8-.3,5.5,5.5,0,0,0-3.3-.5c-3.7.3-7.4,0.5-11.1,0.8a12.88,12.88,0,0,0-3.9.8,1.47,1.47,0,0,1-.3.2,1.09,1.09,0,0,0,.4.5,7.83,7.83,0,0,0,2.2.4c1.5,0.2,3.1.3,4.7,0.4,4.8,0.3,9.6.7,14.7,1.1H519Zm-14.4-5c1.5-.1,3.1-0.3,4.7-0.4,1.9-.2,3.9-0.6,5.8.3a1.71,1.71,0,0,0,1,0,6.47,6.47,0,0,0,2.9-1.1,1.11,1.11,0,0,0,.4-1.1,19.81,19.81,0,0,0-2.3-4,1.83,1.83,0,0,0-1.3-.8,7.71,7.71,0,0,0-3.7.4c-2.4.7-4.8,1.6-7.2,2.2-3.6,1-6.9,2.5-10.4,3.8a3,3,0,0,0-.7.5,0.37,0.37,0,0,0-.1.3,0.38,0.38,0,0,0,.2.2c0.4,0.1.8,0.1,1.3,0.2C498.27,388.58,501.37,388.78,504.57,388.68Zm-5.1,5.4a21,21,0,0,0-2.5,0,0.45,0.45,0,0,0-.4.3,0.39,0.39,0,0,0,.2.5,5.91,5.91,0,0,0,1.4.6c1.3,0.4,2.7.6,4,1a72.46,72.46,0,0,0,13,2.4c1.6,0.1,3.3.3,5,.5a4.11,4.11,0,0,1,2.6.9,5.06,5.06,0,0,0,2.3.9,28,28,0,0,1,6.9,2.3,15.66,15.66,0,0,0,2.3.9,0.63,0.63,0,0,0,.8-0.7,2.91,2.91,0,0,0-.2-0.9c-0.3-1.1-.8-2.2-1.1-3.3a3.24,3.24,0,0,0-2.7-2.3,48.12,48.12,0,0,0-5.2-1.1c-5.6-.6-11.1-1.2-16.6-1.4-2.5-.1-4.9-0.2-7.3-0.5a10.19,10.19,0,0,0-2.5-.2v0.1Z" transform="translate(-327.71 -379.58)"/></g></svg>