<svg xmlns="http://www.w3.org/2000/svg" width="299.6" height="39.8" viewBox="0 0 299.6 39.8"><defs><style>.a{opacity:0.5;}.b{fill:#ceb07c;}</style></defs><title>divider_registry</title><g class="a"><path class="b" d="M80,22.7c-2.2.4-4.2,0.2-6.4,0.4s-6.2.4-9.3,0.4c-5.4-.2-10.9,0-16.2,0l-21.2-.2a90.1,90.1,0,0,0-15.6.9A16,16,0,0,0,5.1,26a7.4,7.4,0,0,0-3.5,8.5,4.6,4.6,0,0,0,.7,1.3,6.5,6.5,0,0,0,3.1,2,11.8,11.8,0,0,0,4.4.2,2.3,2.3,0,0,0,2-1.8,4,4,0,0,1,.5-0.9,0.9,0.9,0,0,1,.5-0.2,1,1,0,0,1,.4.5,4.5,4.5,0,0,1-4.2,3.3,10.4,10.4,0,0,0-2.4.2A5.1,5.1,0,0,1,3.5,38a12.5,12.5,0,0,1-2.4-2A3.8,3.8,0,0,1,.1,34.2a8.6,8.6,0,0,1,1.3-6,8.4,8.4,0,0,1,2.7-2.9,12.7,12.7,0,0,1,5.1-2.2,35.8,35.8,0,0,1,6.2-.7l6.2-.5c2-.2,2.4-0.7,1.3-2.2L21.7,18a5.5,5.5,0,0,1-.9-2.9,9.6,9.6,0,0,1,2.2-6.9A10.3,10.3,0,0,1,36,6.6a6.1,6.1,0,0,1,2,2.4,4,4,0,0,1-1.6,5.4l-0.7.2a7.9,7.9,0,0,1-6-1.5V12.5a0.3,0.3,0,0,1,.4,0,6.5,6.5,0,0,1,1.6.7A11.7,11.7,0,0,0,34,14a5.4,5.4,0,0,0,1.8-.4,2,2,0,0,0,1.3-2.2,5.2,5.2,0,0,0-2-3.5,7.8,7.8,0,0,0-7.4-1.3,7.5,7.5,0,0,0-3.3,12.5,4.8,4.8,0,0,0,2.5,1.6,40.5,40.5,0,0,0,4.2.7L36.2,22l5.6,0.2c2.7,0,5.3-.4,8,0l1.3-.2,6.5-.2H75.1a17.9,17.9,0,0,0,4.4-.5h1.3a0.7,0.7,0,0,1,.4.4,0.7,0.7,0,0,1-.2.5A1,1,0,0,1,80,22.7Zm7.4-.5-0.9.2a0.5,0.5,0,0,1-.2-0.7l0.7-.5a0.7,0.7,0,0,1,.4.4C87.8,21.6,87.6,22,87.4,22.2Zm5.8,0a0.6,0.6,0,0,1-.7-0.5,1.1,1.1,0,0,1,1.3-.9,1.5,1.5,0,0,1,.5.5A1.2,1.2,0,0,1,93.2,22.2Zm8.5-.5a0.6,0.6,0,0,1-.7.2,0.4,0.4,0,0,1-.4-0.4,0.8,0.8,0,0,1,.7-1.1l0.7,0.4A4.7,4.7,0,0,1,101.8,21.6Z"/><path class="b" d="M152.6,28.1h0.1l-1,4.5a24,24,0,0,1-1.1,3.4,27.8,27.8,0,0,1-1.9,3.1l-0.7.6a1.1,1.1,0,0,1-1.4-.6V38.5a5.8,5.8,0,0,0-2.6-4.5l-1.4-.7-2-1.1-2.3-1.4a52.8,52.8,0,0,1-6.6-3.9,8.6,8.6,0,0,0-1.9-1.1,8.4,8.4,0,0,1-1.4-.8,10.7,10.7,0,0,0-1.1-1.1,20,20,0,0,1-4.5-6.1,7.5,7.5,0,0,1-.6-5.2,3.8,3.8,0,0,1,1.9-2.6,4.1,4.1,0,0,1,3.4-.8,27.9,27.9,0,0,1,7.7,2.5l0.6,0.2a0.4,0.4,0,0,0,.3-0.2,14.6,14.6,0,0,0,.5-2.2,5.1,5.1,0,0,1,1.5-2.5,3.6,3.6,0,0,1,3.3-1,3,3,0,0,1,1.4.3,17.6,17.6,0,0,1,4.2,3,45.8,45.8,0,0,1,3.4,4.8,11.9,11.9,0,0,1,1.4,3.3,18.2,18.2,0,0,0,.6,2.4,13.1,13.1,0,0,1,.6,6.9C152.7,27,152.7,27.6,152.6,28.1ZM125.1,10.8H125C125.1,11,125.1,11,125.1,10.8Zm16.6,17.7a0.1,0.1,0,0,1-.1.1c-0.1.1,0,.2,0.2,0.2h0.1A0.6,0.6,0,0,0,141.7,28.5ZM175.6,8.8a25.3,25.3,0,0,1-2,6.5,32.2,32.2,0,0,1-5,6.7,30.4,30.4,0,0,0-2.6,3,11.8,11.8,0,0,1-3.4,3.3l-0.3.3a19.5,19.5,0,0,1-4.2,2.5,4.7,4.7,0,0,1-2.2.6h-0.6a0.6,0.6,0,0,1,0-.5l0.8-.7a5.8,5.8,0,0,0,1.8-2.8,9.3,9.3,0,0,0,.2-3.1c-0.6-4.2-1.7-8.1-4.4-11.4A13.7,13.7,0,0,1,151,7.6a20.8,20.8,0,0,1-.7-2.8,3.7,3.7,0,0,1,1-3.3,3.9,3.9,0,0,1,5-.9l1.4,0.9c0.8,0.6,1.5,1.2,2.2,1.8a11.8,11.8,0,0,1,2.6,3.2c0.6,1.2.8,1.6,1.9,0.1l0.7-.9a10.7,10.7,0,0,1,2.7-2.3,5.7,5.7,0,0,1,4.3-.9,3.9,3.9,0,0,1,3.5,3.7V8.8Zm-20-4.5V4.5h0.1a4.3,4.3,0,0,0-1-1.7h-0.2c-0.2.1-.3,0.2-0.2,0.3A4.3,4.3,0,0,0,155.7,4.3Z"/><path class="b" d="M197.5,20.7l0.7-.4a0.8,0.8,0,0,1,.7,1.1,0.4,0.4,0,0,1-.4.4,0.6,0.6,0,0,1-.7-0.2A4.7,4.7,0,0,1,197.5,20.7Zm7.8,0.5a1.5,1.5,0,0,1,.5-0.5,1.1,1.1,0,0,1,1.3.9,0.6,0.6,0,0,1-.7.5A1.2,1.2,0,0,1,205.3,21.3Zm6.9,0.2a0.7,0.7,0,0,1,.4-0.4l0.7,0.5a0.5,0.5,0,0,1-.2.7l-0.9-.2C212,22,211.8,21.6,212.2,21.4Zm6.5,0.7a0.7,0.7,0,0,1-.2-0.5,0.7,0.7,0,0,1,.4-0.4h1.3a17.9,17.9,0,0,0,4.4.5H242l6.5,0.2,1.3,0.2c2.7-.4,5.3,0,8,0l5.6-.2,5.1-.4a40.5,40.5,0,0,0,4.2-.7,4.8,4.8,0,0,0,2.5-1.6A7.5,7.5,0,0,0,272,6.7,7.8,7.8,0,0,0,264.5,8a5.2,5.2,0,0,0-2,3.5,2,2,0,0,0,1.3,2.2,5.4,5.4,0,0,0,1.8.4,11.8,11.8,0,0,0,2.4-.7,6.5,6.5,0,0,1,1.6-.7,0.3,0.3,0,0,1,.4,0v0.5a7.9,7.9,0,0,1-6,1.5l-0.7-.2a4,4,0,0,1-1.6-5.4,6.1,6.1,0,0,1,2-2.4,10.3,10.3,0,0,1,13.1,1.6,9.6,9.6,0,0,1,2.2,6.9,5.5,5.5,0,0,1-.9,2.9l-1.1,1.6c-1.1,1.5-.7,2,1.3,2.2l6.2,0.5a35.8,35.8,0,0,1,6.2.7,12.7,12.7,0,0,1,5.1,2.2,8.4,8.4,0,0,1,2.7,2.9,8.6,8.6,0,0,1,1.3,6,3.8,3.8,0,0,1-1.1,1.8,12.5,12.5,0,0,1-2.4,2,5.1,5.1,0,0,1-3.3,1.1,10.4,10.4,0,0,0-2.4-.2,4.5,4.5,0,0,1-4.2-3.3,1,1,0,0,1,.4-0.5,0.9,0.9,0,0,1,.5.2,4,4,0,0,1,.5.9,2.3,2.3,0,0,0,2,1.8,11.8,11.8,0,0,0,4.4-.2,6.5,6.5,0,0,0,3.1-2,4.6,4.6,0,0,0,.7-1.3,7.4,7.4,0,0,0-3.5-8.5,16,16,0,0,0-6.2-1.8,90.1,90.1,0,0,0-15.6-.9l-21.2.2c-5.3,0-10.7-.2-16.2,0-3.1,0-6.2-.2-9.3-0.4s-4.2,0-6.4-.4A1,1,0,0,1,218.8,22.2Z"/></g></svg>