<svg xmlns="http://www.w3.org/2000/svg" width="299.6" height="44.3" viewBox="0 0 299.6 44.3"><defs><style>.a{opacity:0.5;}.b{fill:#ceb07c;}</style></defs><title>divider_when-where</title><g class="a"><path class="b" d="M130.9,44.3a7.7,7.7,0,0,1-5.4-2.4c-1.9-2-2.2-5.8-.6-8.3a44.1,44.1,0,0,1,22.3-18.4,12.1,12.1,0,0,1,4.4-1,6.7,6.7,0,0,1,4.5,1.7c1.6,1.4,3.1,3.1,2.4,5.7a3,3,0,0,0,.2,2.7,3,3,0,0,0,2.5.9h1.2a15.3,15.3,0,0,1,10.8,4.2,5.2,5.2,0,0,1,1.7,4.1,4.7,4.7,0,0,1-1.9,3.6c-2.3,1.7-5,3.7-8.1,4.7a55.6,55.6,0,0,1-9.4,1.3h-0.1a54.1,54.1,0,0,1-7.5.7h0a18.8,18.8,0,0,1-5.6-.8,12.6,12.6,0,0,0-3.7-.6,9.8,9.8,0,0,0-4.7,1.2A6.3,6.3,0,0,1,130.9,44.3Zm21.3-26.8h-0.8a11.1,11.1,0,0,0-4,.9c-10,5.2-16.3,11.3-20,19.3a2.2,2.2,0,0,0-.2,2.1c0.3,0.5,1.1.8,2.2,0.8h0.5c2.9,0,4.7-1.6,5.4-4.9a7.5,7.5,0,0,1,3.8-5.1,47.7,47.7,0,0,1,11.2-4.8,6.9,6.9,0,0,0,4.3-3.4l0.3-.6c0.5-.7,1.1-1.6.4-2.6A3.8,3.8,0,0,0,152.2,17.5Zm7.8,10.4-2.5.2H157a2.4,2.4,0,0,0-1.7.7,64.5,64.5,0,0,1-5.2,5c-1.5,1.3-3,2.7-4.4,4.2l-0.6.6H146l4.4-.2c5.5-.2,11.2-0.4,16.6-2.1a12,12,0,0,0,2.6-1.3c1-.6,2.2-1.4,2-3a3.1,3.1,0,0,0-2.8-2.8l-2.8-.6A28.7,28.7,0,0,0,160.1,27.9Zm-13.6,2.9c-2.5.7-5.4,1.5-7.6,5.4l-0.5.8,0.9-.3c3.6-1.2,5.8-2.8,7.6-5.4l0.5-.8Z"/><path class="b" d="M156.9,1.5c-1.3,3.1-1.6,6.3-2.2,9.6s-0.8,4.5-.2,7.2,1.1-.5.9-1.2,0.1-4,.5-6.1a34.4,34.4,0,0,1,1.9-7.7c0.3-.6-0.3-2.9-0.8-1.7h0Z"/><path class="b" d="M154.9,19a32.2,32.2,0,0,0,10-.8c2.5-.5,5.3-1.1,7-3.2,0.4-.5,0-2.8-0.6-2.1-1.9,2.3-5.9,2.8-8.6,3.2a32.6,32.6,0,0,1-7.8.4c-0.7-.1-0.7,2.3.1,2.4h0Z"/><path class="b" d="M157.3,2.6c2-.5,4.3.3,6.2,0.7s0.7-2.3-.1-2.4-4.2-1.2-6.2-.7-0.5,2.6.1,2.4h0Z"/><path class="b" d="M163.5,3.2a24.1,24.1,0,0,1,3.3,1.7c1.1,0.7,1.9,1.8,2.9,2.5s0.9-1.9.2-2.3-1.9-1.8-2.9-2.5A24.2,24.2,0,0,0,163.8.9c-0.7-.3-0.9,2-0.2,2.3h0Z"/><path class="b" d="M169.5,7c0.4,1.1.6,2.2,1,3.3a29.9,29.9,0,0,1,.6,3.9c0.3,1.6,1.2.4,1-.7s-0.2-2.7-.5-4-0.7-2.6-1.1-3.8-1.1.5-.9,1.2h0Z"/><path class="b" d="M162.8,1.5c-0.3.6-.3,1.3-0.5,1.9a2.2,2.2,0,0,0,0,1.7c0.2,0.4.6,0.4,0.7,0s0.3-1.3.5-1.9a2.2,2.2,0,0,0,0-1.7c-0.2-.4-0.6-0.4-0.7,0h0Z"/><path class="b" d="M162.9,5.8l1.9,1.7a19.8,19.8,0,0,1,2.1,1.6c0.7,0.7,1-1.6.5-2.1a16,16,0,0,0-1.9-1.5l-2.1-1.8c-0.7-.7-1,1.6-0.5,2.1h0Z"/><path class="b" d="M167.5,9.5a12.9,12.9,0,0,0,3,.3c0.7,0,.7-2.4-0.1-2.4a12.9,12.9,0,0,1-3-.3c-0.6-.1-0.8,2.2.1,2.4h0Z"/><path class="b" d="M162.5,3.9a12.4,12.4,0,0,0-3.2,2.2,2,2,0,0,0-.1,1.7c0.1,0.4.4,0.8,0.7,0.4a11.6,11.6,0,0,1,2.9-2c0.6-.4.3-2.7-0.3-2.3h0Z"/><path class="b" d="M166.3,8.2l-1.2,2.9a2.2,2.2,0,0,0,0,1.7c0.2,0.4.6,0.4,0.7,0l1.2-2.9a2.2,2.2,0,0,0,0-1.7c-0.2-.4-0.6-0.4-0.7,0h0Z"/><path class="b" d="M157.3,2.6a13.1,13.1,0,0,0,2.5,5.8c0.7,0.7.9-1.6,0.5-2.1a11,11,0,0,1-2.1-4.9C158.1,1,157.8.6,157.4,1a2.1,2.1,0,0,0-.1,1.7h0Z"/><path class="b" d="M159.8,8.2c1.1,2,3.2,2.7,4.9,4.1a19.9,19.9,0,0,0,6.8,3c0.8,0.2.9-2.2,0.2-2.3a23.8,23.8,0,0,1-6-2.4c-1.6-1-4.3-2.4-5.2-4s-1.1,1.1-.7,1.7h0Z"/><path class="b" d="M159.1,6.6c-1.4,3.3-2.4,6.7-3.8,9.9-0.3.6,0.3,2.9,0.8,1.7,1.4-3.3,2.4-6.7,3.8-9.9,0.3-.6-0.3-2.9-0.8-1.7h0Z"/><path class="b" d="M155.6,18.8a36.3,36.3,0,0,0,4.8-2.5c1.6-.9,3.3-1.2,4.6-2.5s0.1-2.8-.3-2.3-3.1,1.6-4.6,2.5a36.4,36.4,0,0,1-4.8,2.5c-0.6.2-.5,2.6,0.3,2.3h0Z"/><path class="b" d="M80,24.6c-2.2.4-4.2,0.2-6.4,0.4s-6.2.4-9.3,0.4c-5.4-.2-10.9,0-16.2,0l-21.2-.2a90.1,90.1,0,0,0-15.6.9,16,16,0,0,0-6.2,1.8,7.4,7.4,0,0,0-3.5,8.5,4.6,4.6,0,0,0,.7,1.3,6.5,6.5,0,0,0,3.1,2,11.8,11.8,0,0,0,4.4.2,2.3,2.3,0,0,0,2-1.8,4,4,0,0,1,.5-0.9,0.9,0.9,0,0,1,.5-0.2,1,1,0,0,1,.4.5,4.5,4.5,0,0,1-4.2,3.3,10.4,10.4,0,0,0-2.4.2,5.1,5.1,0,0,1-3.3-1.1,12.5,12.5,0,0,1-2.4-2A3.8,3.8,0,0,1,.1,36a8.6,8.6,0,0,1,1.3-6,8.4,8.4,0,0,1,2.7-2.9A12.7,12.7,0,0,1,9.1,25a35.8,35.8,0,0,1,6.2-.7l6.2-.5c2-.2,2.4-0.7,1.3-2.2l-1.1-1.6a5.5,5.5,0,0,1-.9-2.9,9.6,9.6,0,0,1,2.2-6.9A10.3,10.3,0,0,1,36,8.4a6.1,6.1,0,0,1,2,2.4,4,4,0,0,1-1.6,5.4l-0.7.2a7.9,7.9,0,0,1-6-1.5V14.4a0.3,0.3,0,0,1,.4,0,6.5,6.5,0,0,1,1.6.7,11.7,11.7,0,0,0,2.4.7,5.4,5.4,0,0,0,1.8-.4,2,2,0,0,0,1.3-2.2,5.2,5.2,0,0,0-2-3.5,7.8,7.8,0,0,0-7.4-1.3,7.5,7.5,0,0,0-3.3,12.5,4.8,4.8,0,0,0,2.5,1.6,40.5,40.5,0,0,0,4.2.7l5.1,0.4L41.8,24c2.7,0,5.3-.4,8,0l1.3-.2,6.5-.2H75.1a17.9,17.9,0,0,0,4.4-.5h1.3a0.7,0.7,0,0,1,.4.4,0.7,0.7,0,0,1-.2.5A1,1,0,0,1,80,24.6Zm7.4-.5-0.9.2a0.5,0.5,0,0,1-.2-0.7L87,23a0.7,0.7,0,0,1,.4.4C87.8,23.5,87.6,23.9,87.4,24Zm5.8,0a0.6,0.6,0,0,1-.7-0.5,1.1,1.1,0,0,1,1.3-.9,1.5,1.5,0,0,1,.5.5A1.2,1.2,0,0,1,93.2,24Zm8.5-.5a0.6,0.6,0,0,1-.7.2,0.4,0.4,0,0,1-.4-0.4,0.8,0.8,0,0,1,.7-1.1l0.7,0.4A4.7,4.7,0,0,1,101.8,23.5Z"/><path class="b" d="M197.5,22.6l0.7-.4a0.8,0.8,0,0,1,.7,1.1,0.4,0.4,0,0,1-.4.4,0.6,0.6,0,0,1-.7-0.2A4.7,4.7,0,0,1,197.5,22.6Zm7.8,0.5a1.5,1.5,0,0,1,.5-0.5,1.1,1.1,0,0,1,1.3.9,0.6,0.6,0,0,1-.7.5A1.2,1.2,0,0,1,205.3,23.1Zm6.9,0.2a0.7,0.7,0,0,1,.4-0.4l0.7,0.5a0.5,0.5,0,0,1-.2.7l-0.9-.2C212,23.9,211.8,23.5,212.2,23.3Zm6.5,0.7a0.7,0.7,0,0,1-.2-0.5,0.7,0.7,0,0,1,.4-0.4h1.3a17.9,17.9,0,0,0,4.4.5H242l6.5,0.2,1.3,0.2c2.7-.4,5.3,0,8,0l5.6-.2,5.1-.4a40.5,40.5,0,0,0,4.2-.7,4.8,4.8,0,0,0,2.5-1.6A7.5,7.5,0,0,0,272,8.6a7.8,7.8,0,0,0-7.4,1.3,5.2,5.2,0,0,0-2,3.5,2,2,0,0,0,1.3,2.2,5.4,5.4,0,0,0,1.8.4,11.8,11.8,0,0,0,2.4-.7,6.5,6.5,0,0,1,1.6-.7,0.3,0.3,0,0,1,.4,0V15a7.9,7.9,0,0,1-6,1.5l-0.7-.2a4,4,0,0,1-1.6-5.4,6.1,6.1,0,0,1,2-2.4,10.3,10.3,0,0,1,13.1,1.6,9.6,9.6,0,0,1,2.2,6.9,5.5,5.5,0,0,1-.9,2.9l-1.1,1.6c-1.1,1.5-.7,2,1.3,2.2l6.2,0.5a35.8,35.8,0,0,1,6.2.7,12.7,12.7,0,0,1,5.1,2.2,8.4,8.4,0,0,1,2.7,2.9,8.6,8.6,0,0,1,1.3,6,3.8,3.8,0,0,1-1.1,1.8,12.5,12.5,0,0,1-2.4,2,5.1,5.1,0,0,1-3.3,1.1,10.4,10.4,0,0,0-2.4-.2,4.5,4.5,0,0,1-4.2-3.3,1,1,0,0,1,.4-0.5,0.9,0.9,0,0,1,.5.2,4,4,0,0,1,.5.9,2.3,2.3,0,0,0,2,1.8,11.8,11.8,0,0,0,4.4-.2,6.5,6.5,0,0,0,3.1-2,4.6,4.6,0,0,0,.7-1.3,7.4,7.4,0,0,0-3.5-8.5,16,16,0,0,0-6.2-1.8,90.1,90.1,0,0,0-15.6-.9l-21.2.2c-5.3,0-10.7-.2-16.2,0-3.1,0-6.2-.2-9.3-0.4s-4.2,0-6.4-.4A1,1,0,0,1,218.8,24Z"/></g></svg>