<svg xmlns="http://www.w3.org/2000/svg" width="368.58" height="45.45" viewBox="0 0 368.58 45.45"><defs><style>.a{opacity:0.5;}.b{fill:#e2d7be;}.c{fill:#ceb07c;}</style></defs><title>divider-crab</title><g class="a"><path class="b" d="M441,397.41c-0.41,0-.83,0-1.64,0s-1.08,0-1.46,0-0.82,0-1.63,0h-1.54l-1.52,0c-0.81,0-1.21,0-1.6,0s-0.71,0-1.42,0a6.64,6.64,0,0,1-1.26-.09,12.3,12.3,0,0,0-2-.14,13.49,13.49,0,0,0-1.7.11,7.75,7.75,0,0,1-1.25.08l-1.56,0-1.48,0c-0.67,0-1,0-1.38-.06a17.5,17.5,0,0,0-1.79-.07,9.68,9.68,0,0,0-1.74.14,7.19,7.19,0,0,1-1.2.08c-0.68,0-1,0-1.4,0s-0.88-.06-1.73-0.05h-1.56l-1.49,0c-0.7,0-1.05,0-1.43,0s-0.86,0-1.71,0-1.26,0-1.63.06-0.67,0-1.37.05a11.33,11.33,0,0,0-1.71.11,8.66,8.66,0,0,1-1.25.07c-0.72,0-1.07,0-1.45,0s-0.84,0-1.66,0-1.12,0-1.49,0-0.81,0-1.58,0a8.31,8.31,0,0,1-1.28-.09,13.43,13.43,0,0,0-1.93-.13,11.73,11.73,0,0,0-1.72.12,8,8,0,0,1-1.22.08l-1.47,0c-0.41,0-.82,0-1.62,0s-1.26,0-1.64.06-0.67,0-1.36.06h-3.09a15.87,15.87,0,0,0-1.65.08c-0.36,0-.65.06-1.34,0.06a4.66,4.66,0,0,1-1.14-.11,9.64,9.64,0,0,0-2.15-.22,12.77,12.77,0,0,0-1.71.1,7.4,7.4,0,0,1-1.25.08,13.9,13.9,0,0,0-1.68.1,11.3,11.3,0,0,1-1.28.07c-0.72,0-1.09,0-1.46,0s-0.84,0-1.65,0-1.23,0-1.62.05-0.68,0-1.39,0a12.54,12.54,0,0,1-1.35-.06,15.11,15.11,0,0,0-1.82-.09c-0.81,0-1.22,0-1.61,0s-0.69,0-1.41,0-1.07,0-1.44,0-0.84,0-1.67,0-1.23,0-1.63.06-0.67.05-1.37,0-1.23,0-1.63.06-0.67.05-1.37,0.05-1.06,0-1.44,0-0.84,0-1.67,0-1.22,0-1.61,0-0.69,0-1.42,0A12.6,12.6,0,0,1,337,398a17.75,17.75,0,0,0-1.79-.08c-0.73,0-1.1,0-1.48,0s-0.81,0-1.6,0l-1.54,0h-1.51c-0.93,0-1.68,0-1.21.77s0.87,0.17,1.81.17l1.55,0,1.49,0c0.73,0,1.12,0,1.48,0l1.6,0a11.74,11.74,0,0,1,1.37.06c0.43,0,.92.08,1.79,0.08s1.21,0,1.6-.06,0.7,0,1.41,0,1.07,0,1.45,0,0.84,0,1.67,0,1.22,0,1.62-.06,0.67-.05,1.38,0,1.25,0,1.62-.06,0.67,0,1.37,0,1.07,0,1.45,0,0.84,0,1.67,0,1.22,0,1.61,0,0.69,0,1.41,0a11.3,11.3,0,0,1,1.35.06,16.9,16.9,0,0,0,1.82.08c0.82,0,1.23,0,1.62-.05s0.69,0,1.39,0,1.09,0,1.47,0,0.83,0,1.65,0a13.19,13.19,0,0,0,1.68-.1,9.22,9.22,0,0,1,1.28-.07,12.43,12.43,0,0,0,1.7-.11,9.16,9.16,0,0,1,1.25-.08,5,5,0,0,1,1.13.12,9.49,9.49,0,0,0,2.15.22c0.85,0,1.27,0,1.65-.07s0.65-.06,1.34-0.06h3.08c0.84,0,1.26,0,1.64-.06s0.67,0,1.37-.05,1.09,0,1.48,0l1.61,0a11.37,11.37,0,0,0,1.73-.12,7.56,7.56,0,0,1,1.22-.08,7.06,7.06,0,0,1,1.28.09,13.47,13.47,0,0,0,1.93.13h3.08c0.72,0,1.07,0,1.46,0s0.84,0,1.65,0a12.07,12.07,0,0,0,1.71-.11,8.06,8.06,0,0,1,1.24-.08c0.84,0,1.26,0,1.63-.06s0.68,0,1.38,0,1.05,0,1.42,0,0.86,0,1.7,0h1.56l1.5,0c0.68,0,1,0,1.4,0s0.88,0.06,1.73.06a9.73,9.73,0,0,0,1.74-.14,6.37,6.37,0,0,1,1.19-.09,12.45,12.45,0,0,1,1.36.05c0.43,0,.92.08,1.79,0.08l1.55,0,1.5,0a13.38,13.38,0,0,0,1.71-.1,8.5,8.5,0,0,1,1.26-.08,7.25,7.25,0,0,1,1.26.09,11.74,11.74,0,0,0,2,.14c0.81,0,1.2,0,1.59,0s0.7,0,1.43,0h3.06l1.47,0c0.41,0,.83,0,1.64,0s1.08,0,1.47,0,0.82,0,1.63,0a1,1,0,0,0,1-.46c0.12-.24.44,0,0.23-0.31-0.47-.74-0.87-0.17-1.81-0.17Z" transform="translate(-327.71 -372.48)"/><path class="b" d="M693,397.41c-0.41,0-.83,0-1.64,0s-1.08,0-1.46,0-0.82,0-1.63,0h-1.54l-1.52,0c-0.81,0-1.21,0-1.6,0s-0.71,0-1.42,0a6.64,6.64,0,0,1-1.26-.09,12.3,12.3,0,0,0-2-.14,13.49,13.49,0,0,0-1.7.11,7.75,7.75,0,0,1-1.25.08l-1.56,0-1.48,0c-0.67,0-1,0-1.38-.06a17.5,17.5,0,0,0-1.79-.07,9.68,9.68,0,0,0-1.74.14,7.19,7.19,0,0,1-1.2.08c-0.68,0-1,0-1.4,0s-0.88-.06-1.73-0.05h-1.56l-1.49,0c-0.7,0-1.05,0-1.43,0s-0.86,0-1.71,0-1.26,0-1.63.06-0.67,0-1.37.05a11.33,11.33,0,0,0-1.71.11,8.66,8.66,0,0,1-1.25.07c-0.72,0-1.07,0-1.45,0s-0.84,0-1.66,0-1.12,0-1.49,0-0.81,0-1.58,0a8.31,8.31,0,0,1-1.28-.09,13.43,13.43,0,0,0-1.93-.13,11.73,11.73,0,0,0-1.72.12,8,8,0,0,1-1.22.08l-1.47,0c-0.41,0-.82,0-1.62,0s-1.26,0-1.64.06-0.67,0-1.36.06H630a15.87,15.87,0,0,0-1.65.08c-0.36,0-.65.06-1.34,0.06a4.66,4.66,0,0,1-1.14-.11,9.64,9.64,0,0,0-2.15-.22,12.77,12.77,0,0,0-1.71.1,7.4,7.4,0,0,1-1.25.08,13.9,13.9,0,0,0-1.68.1,11.3,11.3,0,0,1-1.28.07c-0.72,0-1.09,0-1.46,0s-0.84,0-1.65,0-1.23,0-1.62.05-0.68,0-1.39,0a12.54,12.54,0,0,1-1.35-.06,15.11,15.11,0,0,0-1.82-.09c-0.81,0-1.22,0-1.61,0s-0.69,0-1.41,0-1.07,0-1.44,0-0.84,0-1.67,0-1.23,0-1.63.06-0.67.05-1.37,0-1.23,0-1.63.06-0.67.05-1.37,0.05-1.06,0-1.44,0-0.84,0-1.67,0-1.22,0-1.61,0-0.69,0-1.42,0a12.6,12.6,0,0,1-1.36-.05,17.75,17.75,0,0,0-1.79-.08c-0.73,0-1.1,0-1.48,0s-0.81,0-1.6,0l-1.54,0H581c-0.93,0-1.68,0-1.21.77s0.87,0.17,1.81.17l1.55,0,1.49,0c0.73,0,1.12,0,1.48,0l1.6,0a11.74,11.74,0,0,1,1.37.06c0.43,0,.92.08,1.79,0.08s1.21,0,1.6-.06,0.7,0,1.41,0,1.07,0,1.45,0,0.84,0,1.67,0,1.22,0,1.62-.06,0.67-.05,1.38,0,1.25,0,1.62-.06,0.67,0,1.37,0,1.07,0,1.45,0,0.84,0,1.67,0,1.22,0,1.61,0,0.69,0,1.41,0a11.3,11.3,0,0,1,1.35.06,16.9,16.9,0,0,0,1.82.08c0.82,0,1.23,0,1.62-.05s0.69,0,1.39,0,1.09,0,1.47,0,0.83,0,1.65,0a13.19,13.19,0,0,0,1.68-.1,9.22,9.22,0,0,1,1.28-.07,12.43,12.43,0,0,0,1.7-.11,9.16,9.16,0,0,1,1.25-.08,5,5,0,0,1,1.13.12,9.49,9.49,0,0,0,2.15.22c0.85,0,1.27,0,1.65-.07s0.65-.06,1.34-0.06h3.08c0.84,0,1.26,0,1.64-.06s0.67,0,1.37-.05,1.09,0,1.48,0l1.61,0a11.37,11.37,0,0,0,1.73-.12,7.56,7.56,0,0,1,1.22-.08,7.06,7.06,0,0,1,1.28.09,13.47,13.47,0,0,0,1.93.13H649c0.72,0,1.07,0,1.46,0s0.84,0,1.65,0a12.07,12.07,0,0,0,1.71-.11,8.06,8.06,0,0,1,1.24-.08c0.84,0,1.26,0,1.63-.06s0.68,0,1.38,0,1.05,0,1.42,0,0.86,0,1.7,0h1.56l1.5,0c0.68,0,1,0,1.4,0s0.88,0.06,1.73.06a9.73,9.73,0,0,0,1.74-.14,6.37,6.37,0,0,1,1.19-.09,12.45,12.45,0,0,1,1.36.05c0.43,0,.92.08,1.79,0.08l1.55,0,1.5,0a13.38,13.38,0,0,0,1.71-.1,8.5,8.5,0,0,1,1.26-.08,7.25,7.25,0,0,1,1.26.09,11.74,11.74,0,0,0,2,.14c0.81,0,1.2,0,1.59,0s0.7,0,1.43,0h3.06l1.47,0c0.41,0,.83,0,1.64,0s1.08,0,1.47,0,0.82,0,1.63,0a1,1,0,0,0,1-.46c0.12-.24.44,0,0.23-0.31-0.47-.74-0.87-0.17-1.81-0.17Z" transform="translate(-327.71 -372.48)"/><path class="c" d="M508.56,388.48a18.89,18.89,0,0,1,4-.45l0.17-1.12a0.41,0.41,0,0,1,.47-0.34h0a0.41,0.41,0,0,1,.34.47l-0.15,1c3.82,0.17,7.11,1.58,8.93,3.85a1.53,1.53,0,0,1,.55-0.64,8.54,8.54,0,0,1,3.71-1.79,1.51,1.51,0,0,1,1.26.13,0.78,0.78,0,0,1,0-.43,1,1,0,0,0,.17-0.91,2.37,2.37,0,0,0-1.81.36c-2.73-.47-5.49-3.34-8.63-4.17-1-.67-2.91-1.33-3.62-1.82s-3.74-1.71-3-3.25c1.09,1.58,5.32.68,5.68,0.59,3.12-.83,3,0.71,3.45.41a1.59,1.59,0,0,0,.18-0.35c0.35-.54-2.16-3.69-2.3-3.9-1.44-2.1-5.47-1.56-6.11-.11-0.3.46-.64-0.41-0.47-0.76,3-6.16,11.72-.2,11.33.32s1.2,0.19,1.38.22c0.19-.6,8.48,5.21,8.21,7.93,0.24,1.3.2,1.56-.2,2.24a1.53,1.53,0,0,1-.54.5c1.33,1.84.75,4.21-1.17,6.62a0.83,0.83,0,0,1-.7.32h0a1.7,1.7,0,0,1-.28.85c-0.59,1-1.52,1.54-4.6,2.38a1.26,1.26,0,0,1-1-.17,7,7,0,0,1-.09.84c-0.17.22-.34,0.46-0.51,0.7a2,2,0,0,1,.32-0.15,25,25,0,0,1,4.17-1.52,6.5,6.5,0,0,1,1.67-.23,0.26,0.26,0,0,1,.1-0.14,7.66,7.66,0,0,1,1.93-1.52,4.74,4.74,0,0,1,1.59-.74h0.08a2.71,2.71,0,0,1,.34-0.61,8.36,8.36,0,0,1,1.45-1.64c0.52-.51.76-0.56,0.88-0.44l0,0c0.57-.35,1.81.27,2,1.36-0.71-.4-1.62-0.7-2.19,0h0c-0.18.2-.47,0.46-0.92,1a10.41,10.41,0,0,1-1.13,1.49,6.7,6.7,0,0,1-1.75,1.43c-0.17.12-1.77,1.19-2,.93a20.78,20.78,0,0,0-4.71,1.88c-0.23.13-3,1.34-3.2,1.1l-0.42.75a1.51,1.51,0,0,1,.46-0.22c1.92-.61,5.77-2.3,7.92-2.73a1.36,1.36,0,0,1,1.26.19,0.73,0.73,0,0,1,.22-0.07,9.9,9.9,0,0,1,2.76-.42,3.16,3.16,0,0,1,1.1.17,2.84,2.84,0,0,1,.83-0.66,10.89,10.89,0,0,1,2.6-1.15,1.84,1.84,0,0,1,1.15-.18l0.09,0c0.64-.18,1.66.78,1.57,1.89a1.92,1.92,0,0,0-1.8-.78c-0.32.65-.66,0.5-2.21,1.24a17.25,17.25,0,0,1-2.08,1.13,12.34,12.34,0,0,1-2.52.17,9.86,9.86,0,0,1-1.79,0,1.09,1.09,0,0,1-.28.26c-0.72.44-4.46,0.81-7.25,2.26a13.4,13.4,0,0,1-3.17.95l-0.22.37c0.48-.08,1-0.14,1.36-0.22,1-.27,2.55-1,4.13-1.43a31.52,31.52,0,0,1,4-.66,1.39,1.39,0,0,1,1.22.2l0.06,0c1,0.43,2.4.46,3.51,1.06a0.81,0.81,0,0,1,.53.39l0.07,0c-0.1,0,3.09.71,3.39,1.06a0.44,0.44,0,0,1,.31.15c0.46,0.48.07,4-1,4.43a6.27,6.27,0,0,0,0-3.5l0,0.07a1.57,1.57,0,0,1-1.23.24c-1-.5-1.35,0-2.55-0.68a0.54,0.54,0,0,1-.49-0.5,26.55,26.55,0,0,1-3-1.37l-0.1.06a15.89,15.89,0,0,1-7,1.37,28.08,28.08,0,0,0-3.93.55L519,405c0.27-.08.47,0,0.44,0.18a1.76,1.76,0,0,1,.71-0.33l2.18-.48a1.45,1.45,0,0,1,1.5.46c1.94,0.09,1.54,2.21,1.37,2.76a0.91,0.91,0,0,1-.27.37,0.63,0.63,0,0,1,.34.56,5.72,5.72,0,0,1-.66,2.75,1.09,1.09,0,0,1-.68.64,3.72,3.72,0,0,1-3.39,2.4,6.71,6.71,0,0,1-4.87-1.79c1.1-2.39,3.2-2.48,4.77-2.62a7.1,7.1,0,0,1,.81-1.6,3.93,3.93,0,0,1-.59,0,1.78,1.78,0,0,1-1.28-.55c-1.4-.27-1.85-0.49-2-0.75l0,0a24,24,0,0,1-4.42,1.58,33.53,33.53,0,0,1-4.59.49l-0.09,0c0,0.28-.39.67-1.47,1.45a1.78,1.78,0,0,1-.94,1,3.91,3.91,0,0,1-.52.29,7.1,7.1,0,0,1,1.41,1.11c1.48-.53,3.43-1.32,5.43.38a6.71,6.71,0,0,1-3.67,3.67,3.72,3.72,0,0,1-4.09-.76,1.09,1.09,0,0,1-.88-0.3,5.72,5.72,0,0,1-1.76-2.22,0.63,0.63,0,0,1,.08-0.65,0.91,0.91,0,0,1-.4-0.23c-0.39-.42-1.64-2.18.09-3.08a1.45,1.45,0,0,1,1.17-1l2.18-.48a1.76,1.76,0,0,1,.79,0c-0.08-.12,0-0.26.22-0.33l-0.4-.24a29.65,29.65,0,0,0-3.82,1.25,16.17,16.17,0,0,1-6.72,1.8,11.14,11.14,0,0,1-1.25,1.64l-0.09,0a0.74,0.74,0,0,1-.28.51c-0.8,1.14-1.3.8-2,1.69a1.57,1.57,0,0,1-1.22.3l0,0c-0.1.91,1,2.67,1.45,3.2-1.12,0-2.94-3-2.72-3.63a0.45,0.45,0,0,1,.19-0.25c-0.14-.3,2.73-2.47,2.63-2.43h0.12a0.67,0.67,0,0,1,.29-0.55c0.83-1.12,1-.59,1.79-1.46l0.08-.08a1.62,1.62,0,0,1,1-.69,31.62,31.62,0,0,1,3.91-1.16c1.6-.29,3.23-0.28,4.26-0.48,0.31-.06.81-0.24,1.26-0.37l-0.51-.35a18.81,18.81,0,0,1-2.94.39c-3.13-.1-6.67,1.2-7.51,1.11l-0.14,0a6.14,6.14,0,0,1-1.91,1,16.43,16.43,0,0,1-2.31.9c0.39,0.36-2.21,0-2.44,0-1.59,0-1.92.22-2.41-.11a1.78,1.78,0,0,0-1.46,1.47c-0.55-1,0-2.27.63-2.37h0.09c0-.18.35-0.34,1.17-0.42a10.89,10.89,0,0,1,2.85,0,3.2,3.2,0,0,1,1,.22,2.86,2.86,0,0,1,1-.72,9.9,9.9,0,0,1,2.69-.78,0.67,0.67,0,0,1,.27,0c-0.06-.4.21-0.83,1.1-1.06,2.13-.54,6.31-0.7,8.3-1h0l-0.64-.48a19.17,19.17,0,0,1-3.13-.05c-3.24-.57-4.3.43-5.16,0.22l-0.13,0c-0.11.36-2,.05-2.24,0a7.13,7.13,0,0,1-2.08-.54c0,0.24-1.55-.77-1.7-0.84a8.82,8.82,0,0,1-1.53-.7,1.89,1.89,0,0,0-1.74.95c-0.2-1.1.72-2.15,1.38-2l0.07,0a1.34,1.34,0,0,1,.9.13,8.37,8.37,0,0,1,2,.88,3.09,3.09,0,0,1,.48.34l0.05,0a5.66,5.66,0,0,1,1.8,0,7.66,7.66,0,0,1,2.39.57h0a1.45,1.45,0,0,1,.55-0.5,4.24,4.24,0,0,1,1.35-.1,23.82,23.82,0,0,1,4.31,0l-0.62-.4a6.77,6.77,0,0,1-.46-0.93,1.84,1.84,0,0,1-.61.21c-3.15.52-3.24,0.79-4.2,0.11a1.61,1.61,0,0,1-.64-0.73c-0.12.27-.58,0.12-0.89,0-2.81-1.41-4.18-3.32-3.64-5.6-0.81-.31-1.38-0.81-1.16-1.56-0.46-2.09,3.6-11.48,4.28-9.86,0.15-.1.72-1,1.16-0.78,0.12,0.05,5.69-6.46,9.69-2.78,0.28,0.26.38,0.73-.08,0.44-1.19-1-3.82.18-4.2,0.67-0.15.2-2.77,3.4-2.23,3.75a0.67,0.67,0,0,0,.22.09c0.49,0.11,1.14-2.5,4.32-3.06a2.85,2.85,0,0,0,2.59-2.2c1.28,1.11-1.26,3.55-1.72,4.34s-1,1.64-1.63,2.65c-0.51,2.69-5.8,8.45-7.05,9.36a0.64,0.64,0,0,0,.23.2,0.46,0.46,0,0,1,.18.27,1.49,1.49,0,0,1,1.12-.7,7,7,0,0,1,3.72.05,2.76,2.76,0,0,1,.55.15,12.68,12.68,0,0,1,6.39-6.47l-0.56-.84a0.41,0.41,0,0,1,.12-0.57h0a0.41,0.41,0,0,1,.57.12l0.62,0.94A18.94,18.94,0,0,1,508.56,388.48Z" transform="translate(-327.71 -372.48)"/></g></svg>