<svg xmlns="http://www.w3.org/2000/svg" width="257.9" height="504.4" viewBox="0 0 257.9 504.4"><defs><style>.a{isolation:isolate;}.b{fill:#e2d7be;}.c{opacity:0.7;mix-blend-mode:darken;}.d{fill:#353433;}</style></defs><title>header_image</title><g class="a"><path class="b" d="M191.5,457.2v0.3h-8.1l-3-.3a4,4,0,0,0-2.2.3,3.2,3.2,0,0,1-1.1.3l-1.2.3a2.7,2.7,0,0,1-1.5.4h-1.5a54.4,54.4,0,0,1-6.6-.1H166a42,42,0,0,1-7.1-.1H158a0.9,0.9,0,0,0-1.1.9c0,0.8-.1,1.5-0.1,2.2v0.9a3.7,3.7,0,0,1,.1,1.2,1.6,1.6,0,0,0,.3,1.1,0.4,0.4,0,0,1-.4.4,0.8,0.8,0,0,1-.5.1,1.9,1.9,0,0,1-1.2,0,1.8,1.8,0,0,0-1.5-.1h-1.3c-0.1-.1,0-0.1.1-0.3h1.5a0.8,0.8,0,0,1,.5-0.1,1,1,0,0,0,.3-0.5v-0.5l-0.4-4c0-.9-0.1-1.2-1.2-1.2h-5.8a10,10,0,0,0-2.8,0h-2.3l-9.7-.3c-2.2,0-4.3.3-6.5,0.4h-7.7a0.8,0.8,0,0,0-.8.9,3.7,3.7,0,0,1,.1,1.2,8.7,8.7,0,0,1,.1,3.2,3.4,3.4,0,0,0,.3,1.6v1.3a1,1,0,0,0,.7.1,3.6,3.6,0,0,0,1.6-.4,49.1,49.1,0,0,1,6.3-1.9,26.8,26.8,0,0,1,4.6-.7h1.1l5.1,0.9,3.1,0.7a5.7,5.7,0,0,0,2.2.1,12.4,12.4,0,0,0,3.9-.5h1.5l1.2-.3a0.7,0.7,0,0,1-.5.3c-1.6.4-3.1,0.8-4.8,1.1a14.8,14.8,0,0,1-4.8-.4,30,30,0,0,0-5-1.2,14,14,0,0,0-5.8,0l-2,.4a6.4,6.4,0,0,0-2.3.7l-3.2,1.2a7.2,7.2,0,0,1-3,.5l-3.4-.5-2.3-.4h-1.2l-2.8.7a6.4,6.4,0,0,0-2,.8,13.2,13.2,0,0,1-9.8,1.5,24.1,24.1,0,0,0-3-.8H92.1l-2.6.5,0.3-.3h0.3c2.4-.5,2.2-0.5,5,0.1l1.2,0.4a16.8,16.8,0,0,0,2.6.4,14.1,14.1,0,0,0,4-.7,11.3,11.3,0,0,0,1.9-.8l2.2-.9a4,4,0,0,1,1.3-.5l1.2-.3a11.9,11.9,0,0,1,3.8-.3,1.5,1.5,0,0,0,1.5-.4v-0.3c-0.3-1.5-.1-3-0.3-4.4a10.4,10.4,0,0,0-.3-2,0.6,0.6,0,0,0-.5-0.5h-1.3a10.4,10.4,0,0,1-2-.3H105a6.5,6.5,0,0,1-2.3,0h-1.2a1.3,1.3,0,0,0-.9.3,1.9,1.9,0,0,1-1.2.1,10.7,10.7,0,0,0-2-.4l-3.9.3a16.7,16.7,0,0,0-3.6.4l-1.7.3H87.6a0.3,0.3,0,0,1-.1-0.3h0.4c0.3-.1.3-0.3,0.1-0.5s-0.1-.1-0.1-0.3-0.1-.3.1-0.3h1.6v-0.3H83.9a41.7,41.7,0,0,0-5.8.3,0.5,0.5,0,0,1-.1-0.3h0.1a7.8,7.8,0,0,1,2.6-.4h3.2a16.2,16.2,0,0,0,2.6,0,1.6,1.6,0,0,1,.8,0,0.7,0.7,0,0,0,.5,0,8.8,8.8,0,0,1,1.9,0c0.4,0.1.5-.1,0.7-0.5a0.5,0.5,0,0,1,.5-0.7h1.3l0.4,0.3a0.7,0.7,0,0,0,.7.4h1.6a2.3,2.3,0,0,0,1.3-.4A31.8,31.8,0,0,0,101,453c0.1,0,.3,0,0.3-0.1a32.3,32.3,0,0,0,3.8-3.6c0.8-1.3,1.7-2.6,2.4-3.9s1.2-2.4,1.7-3.5a61.8,61.8,0,0,0,2.6-7c0.1-.3.1-0.5,0.3-0.8a6.7,6.7,0,0,0,.7-1.7,0.3,0.3,0,0,1,.4-0.3,7.3,7.3,0,0,0,3-.7,1,1,0,0,1,1.2.7,16,16,0,0,0,1.1,2.2,28.9,28.9,0,0,1,1.9,3.5,29.5,29.5,0,0,0,2.3,3.4l2.8,3.1,1.7,1.2a7.8,7.8,0,0,0,1.3,1.6,15.4,15.4,0,0,0,1.5,1.5,7.7,7.7,0,0,0,1.5,1.5,13.5,13.5,0,0,0,4.8,2.8,1.5,1.5,0,0,0,1.3-.1,15.1,15.1,0,0,0,3-2.2l3.2-3,1.9-2,1.7-2.2c0.9-1.2,1.7-2.4,2.6-3.6a58.9,58.9,0,0,0,3.2-5.8,1.9,1.9,0,0,0,.1-1.2c-0.1-.1.1-0.4,0.3-0.5a2.2,2.2,0,0,1,.9,0l1.1,0.3a2,2,0,0,1,.9.4,1.8,1.8,0,0,1,.9,1.5,11.8,11.8,0,0,0,.9,3.1,44.1,44.1,0,0,0,4.7,7.5,21,21,0,0,0,5.7,5.2l0.5,0.4,4.8,2.3a11.2,11.2,0,0,0,2.8.8,1.4,1.4,0,0,1,1.1.3h0a0.1,0.1,0,0,1-.1.1,1,1,0,0,1-.7.1,17.7,17.7,0,0,1-5.2-1.7l-1.9-.8a15.8,15.8,0,0,1-4-2.6,4.6,4.6,0,0,1-1.2-1.1,31.8,31.8,0,0,1-4.4-6.1l-2-3.2H158a2.5,2.5,0,0,0,.3,2,8.9,8.9,0,0,0,1.6,2.3l2.6,3.1a11.3,11.3,0,0,1,1.1,1.6l1.2,2.2a7.8,7.8,0,0,0,2.3,2.4c0.1,0,.3.1,0.3,0s0.1-.3.1-0.4-0.1-.1-0.1-0.3h0c-0.1-.1,0-0.3.1-0.3h0.3a9.4,9.4,0,0,0,2.2,1.9,22,22,0,0,0,2.3,1.5l0.7,0.5a5.2,5.2,0,0,0,3.1.9l2.4,0.3,5.4,0.3h1.2a10,10,0,0,0,2.8.1h3.8ZM86.3,470.3h0.3a0.5,0.5,0,0,0-.1.3H86.3C86.2,470.4,86.2,470.3,86.3,470.3Zm0.3,0a0.1,0.1,0,0,0,.1-0.1H86.6Zm0.5-.5,1.1-.5a0.6,0.6,0,0,1-.4.5l-1.1.4Zm-0.4.4h0Zm1.5-.9h0Zm1.3,0H88.3A3.7,3.7,0,0,1,89.5,469.2Zm-0.1-10.8H88.9A0.5,0.5,0,0,0,89.4,458.4Zm15.9-3.6a18.6,18.6,0,0,0,2.2-2.4c0.4-.7.9-1.3,1.3-2.2a34.2,34.2,0,0,0,1.6-4.8,0.3,0.3,0,0,0,0-.4h-0.1l-0.4.3-1.1,1.9-2.4,3.6a12.8,12.8,0,0,1-2.6,2.8l-1.2,1.2-1.6,1.1c-0.1,0-.3,0-0.3-0.1v-0.3a0.5,0.5,0,0,0,.3-0.3,18.5,18.5,0,0,0,3.5-3,8.4,8.4,0,0,0,1.2-1.6,18.6,18.6,0,0,1,2.3-3.4l0.4-.5a15.7,15.7,0,0,0,2.2-4.8,0.8,0.8,0,0,0,.1-0.5,0.4,0.4,0,0,1-.1-0.3c-0.1,0-.3,0-0.3.1a2.1,2.1,0,0,0-.7.9,33.5,33.5,0,0,1-3,5.8,13.7,13.7,0,0,1-2.4,3.1l-1.5,1.3a8.1,8.1,0,0,1-1.1,1.1,25.3,25.3,0,0,1-3.2,1.9l-0.4.4c-0.1,0-.1.3-0.1,0.4s1.2,0.5,2.3.4H103a1.9,1.9,0,0,0,1.5-.7Zm1.7,0.9,1.3-2.8h0v-0.3c-0.1,0-.3,0-0.3.1s-1.7,1.9-2.7,2.8a0.4,0.4,0,0,0-.1.5,0.5,0.5,0,0,0,.5.3h0.3A0.8,0.8,0,0,0,107,455.7Zm-1.1,1.7a0.1,0.1,0,0,0-.1-0.1h0.1Zm4.6-3.9a10.6,10.6,0,0,0,1.1-3.5,4,4,0,0,0,.3-1.2,27.5,27.5,0,0,0,.7-3.2,0.6,0.6,0,0,0-.1-0.5h0c-0.1,0-.3,0-0.3.1a31.5,31.5,0,0,0-1.5,3.8,16,16,0,0,1-1.5,3.5,4.7,4.7,0,0,0-.8,1.9,3.5,3.5,0,0,1-.4,1.1,3,3,0,0,0-.1.5c0,0.1.1,0.3,0.1,0.4a1.2,1.2,0,0,0,1.5-.5A16.1,16.1,0,0,0,110.5,453.6Zm-1.3,3.8h0Zm4.7-1.5a6,6,0,0,1-.1-1.5c0-2.3-.1-4.6-0.3-6.9a0.5,0.5,0,0,0-.1-0.4c0-.1-0.3.1-0.3,0.3a18.1,18.1,0,0,0-.9,3.6,9.4,9.4,0,0,1-.8,2.6l-1.2,2c-0.1.5,0,.8,0.5,0.8h2.6A0.6,0.6,0,0,0,113.9,455.9Zm-2.7-17.1a0.4,0.4,0,0,0,.3.4,0.3,0.3,0,0,0,.3-0.3l0.3-.7v-0.8h-0.3A3.3,3.3,0,0,0,111.2,438.8Zm0.8,3.4a0.6,0.6,0,0,0,.4.4,0.3,0.3,0,0,0,.3-0.3,6.9,6.9,0,0,0,.3-1.5,1,1,0,0,0,0-.7v-0.3h-0.3A5.5,5.5,0,0,0,112,442.1Zm4.3,23.5v-0.3c-0.1,0-.3,0-0.3.1a0.4,0.4,0,0,0,.1.3A0.1,0.1,0,0,0,116.3,465.7Zm8.7-9.8-0.5-.3a8.6,8.6,0,0,1-2.7-2.2l-1.9-1.7a8,8,0,0,1-1.9-2.8l-0.4-.8h-0.3a0.5,0.5,0,0,0-.1.4,38,38,0,0,0,.3,5.5,6.7,6.7,0,0,0,.3,1.6,0.7,0.7,0,0,0,.7.7,0.8,0.8,0,0,0,.5.1h6.1a0.5,0.5,0,0,0,.1-0.3C125.3,456.3,125.2,456,125.1,455.9Zm7.8-.3a3.1,3.1,0,0,1-.7-0.7l-0.7-.9-2.7-2.4a10.6,10.6,0,0,0-2-1.6l-1.1-.8a9.7,9.7,0,0,1-2.8-3.4,3.4,3.4,0,0,0-.5-0.9,19,19,0,0,0-1.9-3.1,3.2,3.2,0,0,0-.7-0.7,0.1,0.1,0,0,0-.1-0.1c0,0.1-.1.1-0.1,0.3a1,1,0,0,0,.1.7,11.8,11.8,0,0,0,.7,2,9,9,0,0,0,1.2,2.8l1.9,2.7a9.8,9.8,0,0,0,2.6,2.7,0.5,0.5,0,0,0,.3.3,6.5,6.5,0,0,0,1.9,1.5l3.2,1.6h0.1a0.5,0.5,0,0,1-.3.3l-1.2-.3-2.8-1.5-0.9-.5a27.8,27.8,0,0,1-3.8-4.2l-1.2-1.6a10.3,10.3,0,0,1-1.6-3.8l-1.2-4.2a1.3,1.3,0,0,0-.5-0.7c0-.1-0.1-0.1-0.3-0.1h-0.1a8.5,8.5,0,0,0,.1,4.8,48.6,48.6,0,0,0,1.7,4.7,18.9,18.9,0,0,0,3.4,4.7,0.3,0.3,0,0,0,.3.3,3.4,3.4,0,0,0,.9.5l0.7,0.8,0.4,0.3a11.1,11.1,0,0,0,4.7,1.2l2.8-.4c0.1,0,.3,0,0.3-0.1v-0.3Zm-15.5-21a5.7,5.7,0,0,0,.8,2.6,4.5,4.5,0,0,0,1.3.8h0.3a28.5,28.5,0,0,1-1.5-2.8,0.7,0.7,0,0,1-.3-0.4,0.5,0.5,0,0,0-.3-0.3s-0.1-.1-0.1,0h-0.3Zm1.6,22.7h-0.1c-0.3,0-.4,0-0.3.1h0.3C119,457.5,119,457.5,119,457.3Zm0.7-19.4h0Zm16.1,17.4h0.4l2.2-.8,1.9-.5a7.7,7.7,0,0,0,3.1-2,17.4,17.4,0,0,1,2.2-2.3,22.6,22.6,0,0,0,1.3-1.9,10.3,10.3,0,0,1,1.5-2.2,29.6,29.6,0,0,0,2-3.5,19,19,0,0,1,1.7-3.2,1.4,1.4,0,0,1,.8-0.7l0.4-.3a3.8,3.8,0,0,0,0-1.7H153a0.7,0.7,0,0,0-.4.7l-1.6,2.7a46.5,46.5,0,0,1-3,4.2,1.3,1.3,0,0,1-.5.7l-1.2,1.5a13.4,13.4,0,0,1-1.9,2l-1.2,1.2a46.6,46.6,0,0,1-5.8,4.7,5.1,5.1,0,0,1-2,.1,1.3,1.3,0,0,1-.7-0.5l-0.8-.7a11.9,11.9,0,0,1-3.4-2.4,2.2,2.2,0,0,0-1.2-.7,1.9,1.9,0,0,1-1.1-.9c0-.1-0.1-0.3-0.1-0.4l-1.7-1.6a10,10,0,0,0-1.6-1.7l-2.4-2.7-1.1-1.2h-0.4c-0.1,0-.1.3,0,0.4a5.5,5.5,0,0,0,.9,1.5,14.8,14.8,0,0,1,1.1,2,5.8,5.8,0,0,1,.5.9,8.7,8.7,0,0,0,2.3,2.7,24.7,24.7,0,0,0,3,2.3l0.7,0.4a2.1,2.1,0,0,1,1.1.8,4.9,4.9,0,0,0,2.8,2.2,0.1,0.1,0,0,0,.1.1,0.1,0.1,0,0,1,.1.1c0.1,0.1,0,.3-0.1.3s-0.4,0-.4.3a0.7,0.7,0,0,0,.3.5,1.9,1.9,0,0,0,1.6.8,5.5,5.5,0,0,0,2.6,0,0.3,0.3,0,0,0,.4-0.3c0.1,0,.1-0.1.1-0.3a1,1,0,0,0-.8-0.3A2.2,2.2,0,0,1,135.8,455.3Zm-6.6-5.1-0.3-.3,0.4,0.3h-0.1Zm17.4,3.9,1.6-2.2v-0.4l-0.7.3-0.9.9a4.1,4.1,0,0,1-2.7,1.2l-1.7.4-2.8,1.2c0,0.1,0,.3.1,0.3a15.3,15.3,0,0,0,3.5,0h0.5a1.1,1.1,0,0,0,.7-0.7,0.6,0.6,0,0,1,.5-0.1A2.6,2.6,0,0,0,146.6,454.1Zm-2.4,3.2a5.1,5.1,0,0,0-2-.1,0.7,0.7,0,0,0,.4.3,0.7,0.7,0,0,1,.5,0h1.1Zm6.3-11.4a30.2,30.2,0,0,0,1.9-5.2,0.5,0.5,0,0,0,.1-0.4h-0.3a18.8,18.8,0,0,0-1.3,2.2,30.5,30.5,0,0,1-2.2,3.5,17.1,17.1,0,0,1-1.7,2.6,5.1,5.1,0,0,1-1.5,1.9c-0.8.9-1.9,1.9-2.7,2.7h-0.1a0.7,0.7,0,0,0-.1.4h0.3a11.4,11.4,0,0,0,2.3-.5l0.7-.5a12.9,12.9,0,0,0,1.3-1.3,6.4,6.4,0,0,0,1.5-1.7A28.9,28.9,0,0,0,150.5,445.9Zm-1.9,9.4,0.5-.3a12.1,12.1,0,0,0,3.4-4.8,9.4,9.4,0,0,0,.7-3.4V445h0.1v-2.2a2.3,2.3,0,0,0-.1-0.9h0c-0.1,0-.3,0-0.3.1a7.9,7.9,0,0,0-.8,1.9,1.5,1.5,0,0,0,0,1.1,1.3,1.3,0,0,1-.1,1.2,11.5,11.5,0,0,1-.8,2.3,5.6,5.6,0,0,1-.9,2l-3.1,3.9a4.6,4.6,0,0,1-.8.8l-0.4.4H146a3.9,3.9,0,0,0,1.2.3A1.7,1.7,0,0,0,148.6,455.3Zm3.1,2a10.5,10.5,0,0,0-1.9-.3h-2.4a1.8,1.8,0,0,0,1.1.4h3.1a26.1,26.1,0,0,0,.3-0.3C151.8,457.3,151.8,457.3,151.7,457.3Zm-3.5-5.9h0Zm0.5-.7a0.4,0.4,0,0,1-.1.3,2,2,0,0,0,.5-0.5A0.4,0.4,0,0,0,148.7,450.7Zm0.5-1.2v0.7A1.1,1.1,0,0,0,149.3,449.5Zm0,15.3h1.3a0.1,0.1,0,0,1-.1.1h-1.2Zm0.9-15.9a0.7,0.7,0,0,0-.5.1,0.7,0.7,0,0,0-.3.4A1.1,1.1,0,0,0,150.2,449Zm3.4,5.7c-0.1-.9-0.1-1.7-0.3-2.6a5.9,5.9,0,0,0-.1-0.7h-0.5a12,12,0,0,1-2.8,3.5l-0.3.4a0.7,0.7,0,0,0,.3.5H153a0.6,0.6,0,0,0,.5-0.5v-0.5Zm-3.4-5.8c0-.3,0-0.3-0.1-0.1h0.1Zm12.4,6.9a0.7,0.7,0,0,0-.3-0.5,36.1,36.1,0,0,0-4.4-2.4h-0.5a0.5,0.5,0,0,1-.1.3v2.4a0.6,0.6,0,0,0,.4.4h5S162.7,455.7,162.6,455.7Zm-4.8-3.9a3.4,3.4,0,0,0,1.6,1.1h0.3a0.1,0.1,0,0,0-.1-0.1L158,451h-0.5A0.6,0.6,0,0,0,157.7,451.8Zm9.6,3.9-0.4-.3-2.4-1.7a17.9,17.9,0,0,1-3.9-3.9l-1.2-1.5a10.3,10.3,0,0,1-1.1-1.5,0.4,0.4,0,0,0-.5.1,0.5,0.5,0,0,1-.1.3V449a1.9,1.9,0,0,0,.5,1.3l1.5,1.5,2.6,2.4,2,1.6,1.7,0.4a3.7,3.7,0,0,0,1.2,0c0-.1.1-0.1,0.1-0.3v-0.3Zm-9.4-12.5a5.1,5.1,0,0,1,1.6,1.3l2.2,2.3c0.1,0,.3,0,0.3-0.1h0l-0.8-1.1-2.6-3.1a0.5,0.5,0,0,0-.3-0.3H158c-0.1,0-.1,0-0.1.1A0.8,0.8,0,0,0,157.9,443.2Zm0.7,1.2-0.4-.3h-0.3c0,0.1-.1.3-0.1,0.4a1.5,1.5,0,0,0,.4,1.1l1.5,2.2a22,22,0,0,0,2.8,3.2,21.5,21.5,0,0,0,4.7,3.8,2.8,2.8,0,0,0,1.7.7h0.3a3.2,3.2,0,0,0-1.2-.8,6.9,6.9,0,0,1-3-2.6,24.6,24.6,0,0,0-2.3-3C161.4,447.4,159.9,445.9,158.6,444.4Zm8.7,21.4h2a1.6,1.6,0,0,1-1.1.3l-2.7.3h-1.9l-4.3-.9a0.5,0.5,0,0,0-.3-0.3,2.2,2.2,0,0,1,.9,0l0.8,0.3a18.4,18.4,0,0,0,3.8.7A8.8,8.8,0,0,0,167.3,465.8Zm3.5-8.9c-1.9-.4-1.9-0.4-2.6-0.1s0,0.1.1,0.1h2.4Z" transform="translate(-0.1)"/><path class="b" d="M52.8,84a0.6,0.6,0,0,0-.5.5,0.7,0.7,0,0,0,.9.5,0.6,0.6,0,0,0,.5-0.5A0.6,0.6,0,0,0,52.8,84Z" transform="translate(-0.1)"/><path class="b" d="M103.4,3.1h0.5a1.1,1.1,0,0,0,.5-0.5A6.5,6.5,0,0,0,102.7,0a1.6,1.6,0,0,0-.9.2,1,1,0,0,0-.2.5C101.8,1.5,102.5,2.1,103.4,3.1Z" transform="translate(-0.1)"/><path class="b" d="M72.7,17c2,2,4.4,3.8,6.4,5.6a75.1,75.1,0,0,0,7.7,6A29,29,0,0,1,90,30.9h2.7l-0.8-.4a6.9,6.9,0,0,1-2.9-1.8c-3.8-3.4-8.1-6.7-11.5-10.5L74,15.2a12.8,12.8,0,0,0-1.6-.5,1.4,1.4,0,0,1-1.1.5v0.4C72.3,16.1,72.2,16.7,72.7,17Z" transform="translate(-0.1)"/><path class="b" d="M102.5,23.7c-0.5,0-.7.9-0.2,1.6a6.1,6.1,0,0,1,1.6,1.8h0.7l0.5-.5c-0.5-.7-0.7-1.5-1.1-2.2A1.5,1.5,0,0,0,102.5,23.7Z" transform="translate(-0.1)"/><path class="b" d="M71.6,63.9c0-.2,0-0.3,0-0.5H71.3a0.8,0.8,0,0,0,0,.7l0.2,0.3C71.6,64.3,71.6,64.1,71.6,63.9Z" transform="translate(-0.1)"/><path class="b" d="M91.2,95.1a1.3,1.3,0,0,0-.7.2c-0.5.2-.2,0.7,0.5,0.9l0.7-.4A1.3,1.3,0,0,0,91.2,95.1Z" transform="translate(-0.1)"/><path class="b" d="M108.3,10.8c0.2-.4.5-0.5,0.2-0.9a5.7,5.7,0,0,0-.7-0.9,1.5,1.5,0,0,0-.7.7,2.9,2.9,0,0,0,.7,1.1h0.5Z" transform="translate(-0.1)"/><path class="b" d="M71.3,44a5.7,5.7,0,0,1,.2-1.3V42.4A84.4,84.4,0,0,1,63,39.7a1.6,1.6,0,0,0-.9-0.2l-0.4.2a1.5,1.5,0,0,0-.2.7,13.2,13.2,0,0,0,1.9,1.5,38.2,38.2,0,0,0,8,2.3h0Z" transform="translate(-0.1)"/><path class="b" d="M92.4,66H89.1c-3.1,1.8-6.1,3.6-9.2,5.6s-3.4,1.8-5,2.9a0.7,0.7,0,0,0-.2.5h1.1a8.7,8.7,0,0,0,3.8-1.6c3.4-1.6,6.8-3.2,9.9-5a17.5,17.5,0,0,0,3.2-2.1,0.5,0.5,0,0,0,.3-0.4H92.4Z" transform="translate(-0.1)"/><path class="b" d="M193.6,14.1h0.7a2,2,0,0,0,2.1-1.6V12.1a1,1,0,0,0-.8-0.4,3.4,3.4,0,0,0-2.7,1.1,0.4,0.4,0,0,0-.2.6A1.4,1.4,0,0,0,193.6,14.1Z" transform="translate(-0.1)"/><path class="b" d="M172.6,11.1h0.9c1.1-1,1.8-1.7,1.6-2.7a0.8,0.8,0,0,0-.5-0.3,0.3,0.3,0,0,0-.5-0.1,4.4,4.4,0,0,0-2,1.8C171.9,10.2,172.2,10.1,172.6,11.1Z" transform="translate(-0.1)"/><path class="b" d="M169.7,28.1l0.6-.2c4.5-2.4,8.1-5.3,12.1-8.4V19.2a0.7,0.7,0,0,0-.3-0.4l-1-.2-3.2,1.6a106.6,106.6,0,0,0-9.5,6,0.8,0.8,0,0,0,0,1.3Z" transform="translate(-0.1)"/><path class="b" d="M114.9,26.1c0.4,1.6.8,3.1,1.2,4.7H118c-0.3-1-.6-2.1-0.9-3.1-0.7-3.5-2.5-6.7-4.3-10a1.2,1.2,0,0,0-1.1-.7c-0.5,0-.5.4-0.2,1.1A29,29,0,0,1,114.9,26.1Z" transform="translate(-0.1)"/><path class="b" d="M191.9,30.9h4.9c0.7,0,1.3-.3,1.6-0.3a23.3,23.3,0,0,0,4-1.8,0.8,0.8,0,0,0,.5-0.4,0.8,0.8,0,0,0,0-.7,1,1,0,0,0-.9-0.4c-2.5.5-4.7,1.1-7.2,1.8l-2.9.5a1.3,1.3,0,0,0-.5.7v0.3h0.5Z" transform="translate(-0.1)"/><path class="b" d="M130,14.7a63.3,63.3,0,0,1,.2,6.5,26.3,26.3,0,0,0,1.6,8.4,1.5,1.5,0,0,0,.6,1.2h1.2a5,5,0,0,0-.2-1.8,15.2,15.2,0,0,1-1.1-6.4V17.7c1-3.8.2-8-.5-12.3a4.4,4.4,0,0,0-.8-2,1.8,1.8,0,0,0-1.3-.4,1.7,1.7,0,0,0-.7.5c0.2,2.4.2,4.7,0.5,6.9A28.9,28.9,0,0,1,130,14.7Z" transform="translate(-0.1)"/><path class="b" d="M141.9,18.1l0.2-.4c0-.7-0.2-1.5-0.2-2.9s-0.2-1.3-.7-2.2-0.5-.4-0.7-0.4a0.8,0.8,0,0,0-.5.4c-0.9,1.8-.2,3.6.9,5.3A1.6,1.6,0,0,0,141.9,18.1Z" transform="translate(-0.1)"/><path class="b" d="M142.3,30.8h1.2L151,19.6a33.3,33.3,0,0,0,2.5-4.7,0.7,0.7,0,0,0,0-.7c0-.2-0.2-0.1-0.2-0.1h-0.7c-0.5,0-.9.8-1.1,1.4-3.6,5-6.8,10.2-10.6,15.2h1.4Z" transform="translate(-0.1)"/><path class="b" d="M161.1,5.8c0.7-.7,1.6-1.6,1.4-2.7a1.2,1.2,0,0,0-1.6-.5,2.7,2.7,0,0,0-1.8,1.8,1,1,0,0,0,.2,1.1A1.4,1.4,0,0,0,161.1,5.8Z" transform="translate(-0.1)"/><path class="b" d="M113.7,66.1h-2a117.7,117.7,0,0,1-8.1,10.4c-2.3,2.5-4.1,5.1-6.1,7.6a3.4,3.4,0,0,0-.2,1.5,0.7,0.7,0,0,0,.5.6h0.5c2.3-3,4.5-5.7,7-8.4s6.3-7.6,9.2-11.5h-0.7Z" transform="translate(-0.1)"/><path class="b" d="M173.7,71.5l0.2-.2-0.2-.2v0.4Z" transform="translate(-0.1)"/><path class="b" d="M160.4,76.9a2.5,2.5,0,0,0-1.1-.9,3,3,0,0,1-1.1-.2c0,0.2-.2.2-0.5,0.2s-0.2.5-.2,0.7a0.9,0.9,0,0,0,.5.7c2.7,2.5,5.6,4.9,8.3,7.3l1.8,1.6,0.9,0.4c0.2,0.2.5,0.2,0.5,0s0.7-.4.5-0.5A51,51,0,0,0,160.4,76.9Z" transform="translate(-0.1)"/><path class="b" d="M154.3,92.9a1.8,1.8,0,0,0-1.4-.2,1.1,1.1,0,0,0-.5.6c-0.2,1.5.7,2.7,2,3.7h0.9l0.5-.4c-0.2-.9-0.7-1.9-0.9-3A1.1,1.1,0,0,0,154.3,92.9Z" transform="translate(-0.1)"/><path class="b" d="M150.5,67.7l-2-1.6h-0.4l-1.1-.2h-1.5a25.5,25.5,0,0,0,6.4,4A2.5,2.5,0,0,0,150.5,67.7Z" transform="translate(-0.1)"/><path class="b" d="M183.7,75.1a0.5,0.5,0,0,0-.7.5l0.7,0.5a0.5,0.5,0,0,0,.7-0.5A1.8,1.8,0,0,0,183.7,75.1Z" transform="translate(-0.1)"/><path class="b" d="M206.9,47.9a7.3,7.3,0,0,0-4.3-1.3c-0.2-.2-0.7.2-0.7,0.5s0,0.5.2,0.7a4.5,4.5,0,0,0,3.4,1.1l0.9-.2a0.6,0.6,0,0,0,.5-0.5A0.2,0.2,0,0,0,206.9,47.9Z" transform="translate(-0.1)"/><path class="b" d="M217.9,23.9l-0.7.5a1.8,1.8,0,0,0,.7.5l0.5-.5A1,1,0,0,1,217.9,23.9Z" transform="translate(-0.1)"/><path class="b" d="M202.6,59.1l-3.8-1a7.1,7.1,0,0,0,.1,1v0.5l1.9,0.3a2.3,2.3,0,0,0,1.6,0,0.4,0.4,0,0,0,.5-0.4C202.8,59.3,202.8,59.1,202.6,59.1Z" transform="translate(-0.1)"/><path class="b" d="M162.9,65.8H158a12.3,12.3,0,0,0,2.4,1.2c4.1,1.3,8.1,3,12.4,4h0.9a31.4,31.4,0,0,0-5-2.9A48.6,48.6,0,0,0,162.9,65.8Z" transform="translate(-0.1)"/><polygon class="b" points="152 70 152.2 69.9 151.8 69.9 152 70"/><path class="b" d="M120.1,83.3c0,0.2.2,0.4,0.2,0.5a1.3,1.3,0,0,1,.7-0.4,1.3,1.3,0,0,0-.7-0.4S119.8,83.3,120.1,83.3Z" transform="translate(-0.1)"/><path class="b" d="M118,91.3a5.1,5.1,0,0,0-.7,1.6v5.2h-0.2a35.2,35.2,0,0,0,.2,5,2.5,2.5,0,0,0,.2,1.3c0,0.2.2,0.2,0.5,0.2a0.6,0.6,0,0,0,.8-0.4c0.5-3.8.5-7.6,1.5-11.4V91.5a2.5,2.5,0,0,0-.8-0.5A1.5,1.5,0,0,0,118,91.3Z" transform="translate(-0.1)"/><path class="b" d="M123.7,66.1l-1.8-.2h-1.1V67a19.2,19.2,0,0,1,.7,1.8l0.9,0.4a0.9,0.9,0,0,0,.9-0.4c0.2-.9.4-1.6,0.6-2.6h-0.1Z" transform="translate(-0.1)"/><path class="b" d="M121.9,73.7a1.5,1.5,0,0,0-1.1.7,1.9,1.9,0,0,1-.2,1.1,1.1,1.1,0,0,0,.2.9,1.8,1.8,0,0,0,.7.5l0.5-.2a4.2,4.2,0,0,0,1.1-2.2A1.1,1.1,0,0,0,121.9,73.7Z" transform="translate(-0.1)"/><path class="b" d="M144.2,75.7a0.9,0.9,0,0,0-.7.5,5.5,5.5,0,0,0,2.5,3.5c0,0.2.2,0.2,0.5,0a0.6,0.6,0,0,0,.2-0.4,4.6,4.6,0,0,0-1.6-3.4A1.6,1.6,0,0,0,144.2,75.7Z" transform="translate(-0.1)"/><path class="b" d="M138.8,66h-1.6l0.9,0.9,0.9,0.4a2.5,2.5,0,0,0,.5-0.7l-0.2-.7h-0.5Z" transform="translate(-0.1)"/><path class="b" d="M134,70.6c-0.4-1.5-.7-3.1-1-4.6h-2.4a65.3,65.3,0,0,1,1.6,6.4,176.1,176.1,0,0,0,4.7,18l0.5,0.2a0.8,0.8,0,0,0,.5-0.4c0.2-.9-0.5-1.8-0.7-2.9C135.8,82,135.2,76.2,134,70.6Z" transform="translate(-0.1)"/><path class="b" d="M13.7,134.6c5.6,0.5,8.4,2.5,8.4,6.1v2c0,0.3-.2.5-0.7,0.5H21.1c-0.5,0-.7-1-0.8-3.1-1.8-2.5-3.8-3.6-5.9-3.6-4.9,0-8.7,4.3-11.2,12.7a0.4,0.4,0,0,0,.3.3c-0.2,2.1-.5,3.1-0.7,3.1a0.4,0.4,0,0,0,.3.3,49.1,49.1,0,0,0-.6,9.9v1a0.4,0.4,0,0,1-.3.3c0,0.2.2,0.2,0.3,0.2l-0.3,1.6v3.5c0,0.3-.2.5-0.7,0.5a3.6,3.6,0,0,1,.7,1.6H1.9a0.4,0.4,0,0,0,.3.3l-0.3,3.6,0.3,2.3-0.3,1.8a2.4,2.4,0,0,1,.3,1.1H1.9l0.3,0.7v1.8l-0.7,1,1,3.4-0.3.7a2.8,2.8,0,0,1,.3.8H2.2a6.4,6.4,0,0,1,.3,1c0,1,.2,4.8.3,11.5L3.2,202l-0.3.7,0.3,2c0,0.2-.2.2-0.3,0.2l0.7,5.6a0.4,0.4,0,0,1-.3.3l1.8,15.8H4.7l1.3,9H5.7c1.5,7.7,3.6,11.5,6.7,11.5s6.9-3.3,9.4-9.7h1a13.7,13.7,0,0,1,.2,2q-1.7,6.2-6.4,8.9a8.3,8.3,0,0,1-4.6,1H11q-4.2,0-7.4-12.3a0.4,0.4,0,0,1,.3-0.3,59.9,59.9,0,0,1-.7-9.7v-0.8a24.5,24.5,0,0,1-1-3.8H2.6l-0.3-.7v-2.1a3.9,3.9,0,0,0-.3-1.3l0.3-.5a10.3,10.3,0,0,0-.8-4.1V211c0-.2,0-0.3.2-0.3a14.1,14.1,0,0,1-.5-3.6H1.4a6.5,6.5,0,0,1-.3-1c0-5.7-.3-15.1-1-28.4l0.3-.7a6.4,6.4,0,0,1-.3-1c0.2-3.8.3-6.1,0.3-7.1H0.7l-0.3-.7v-0.3a0.4,0.4,0,0,1,.3-0.3L0.4,167v-2.1a0.4,0.4,0,0,1,.3-0.3L0.4,164l0.3-2.3-0.3-.5a3.9,3.9,0,0,0,.3-1.3c0-.7-0.2-1-0.3-1,0.5-7.7,1.5-13,2.8-15.8a45,45,0,0,1,5.9-7.7,22.3,22.3,0,0,1,3.6-.8h1Z" transform="translate(-0.1)"/><path class="b" d="M40.8,133.9l-0.7.8v2.8a49.1,49.1,0,0,0-.7,4.9,39.3,39.3,0,0,0,.7,7.2H39.8l0.3,0.7v1.1a0.4,0.4,0,0,1-.3.3l0.3,0.7v3.6a4.2,4.2,0,0,1-.3,1.2c0.2,0.7.3,1.1,0.3,1.3a0.4,0.4,0,0,1-.3.3l0.3,0.5c0,0.2-.2.7-0.3,1.3s0.2,0.2.3,0.2c-0.2,1.8-.5,2.8-0.7,2.8l0.3,0.7c0,0.5-.2.7-0.3,0.7l0.3,3v3.3a0.4,0.4,0,0,1-.3.3l0.3,0.7v3.3c0,2.1.2,5.1,0.3,9.2a0.4,0.4,0,0,0-.3.3h3.9c0.2,0,.3,0,0.3.2l0.5-.2,0.7,0.2,0.7-.2a1.2,1.2,0,0,0,.8.2c0.5,0,.7,0,0.7-0.2l2.1,0.2h0.3l4.6-.2v-3.5c0-.8-0.2-1.8-0.3-3.3l0.3-.7-0.3-1.8V175a0.4,0.4,0,0,1,.3-0.3,0.4,0.4,0,0,0-.3-0.3c0.2-4.9.3-7.4,0.5-7.6a20,20,0,0,1-.2-3.1,97.9,97.9,0,0,1,.8-15.1l-0.3-.7a5.5,5.5,0,0,0,.7-2.5,0.4,0.4,0,0,0-.3-0.3c0.2-2.6.3-3.9,0.7-3.9a0.4,0.4,0,0,0-.3-0.3l0.3-1.5-0.3-1.5h0.3l-0.3-.7v-2.5c0-.2.2-0.2,0.3-0.2a0.4,0.4,0,0,0-.3-0.3l2.5-1c0,0.7.2,1,.3,1L58,135.7v3.9a0.4,0.4,0,0,1-.3.3,0.4,0.4,0,0,0,.3.3c-0.3,0-.8,6.7-1.3,20H56.6l0.2,0.5v0.3c0,0.5-.2.7-0.5,0.7l0.3,0.7v2.1a0.4,0.4,0,0,1-.3.3l0.3,0.5v3.1a22.6,22.6,0,0,1-.3,2.6,0.4,0.4,0,0,0,.3.3L56.3,173v0.7l0.3,1.8-0.3.7,0.3,0.7a7.6,7.6,0,0,0-.3.8,5.4,5.4,0,0,1,.3,1,7.8,7.8,0,0,1-.3.8l0.5,6.1-0.2.7c0.5,5.9.7,11.8,0.8,17.6l-0.3.7,0.3,1.8v3.6a0.4,0.4,0,0,1-.3.3l0.3,0.7v0.3a4.2,4.2,0,0,1-.3,1.2l0.3,0.7a0.4,0.4,0,0,1-.3.3l0.3,3v5.3a4.2,4.2,0,0,0,.3,1.1,4.2,4.2,0,0,0-.3,1.2,0.4,0.4,0,0,0,.3.3l-0.3,1.6v1.8a4.2,4.2,0,0,0,.3,1.1c-0.2,2.1-.5,3.3-0.7,3.3l0.3,0.7a130.3,130.3,0,0,0,1,15.4l-1,.7H56.7c-0.8-2-1.3-3.1-1.3-3.3a4,4,0,0,0,.7-2.1,3.9,3.9,0,0,1-.3-1.3H56l-0.3-.5v-1a0.4,0.4,0,0,1,.3-0.3l-0.3-.5v-4.6l-0.3-2.1h0.3l-0.3-.7V229a0.4,0.4,0,0,1,.3-0.3l-0.3-.7v-4.8c0-.2.2-0.7,0.3-1.3a0.4,0.4,0,0,0-.3-0.3l0.3-1.8c-0.2-3.5-.3-6.6-0.3-9v-2.1l0.7-1c-0.7-.2-1-0.8-1-2.3V205a0.4,0.4,0,0,1,.3-0.3,5.2,5.2,0,0,0-.3-1,4.2,4.2,0,0,1,.3-1.2l-0.7-3.9a0.4,0.4,0,0,1,.3-0.3l-0.3-1.5v-0.3a4.2,4.2,0,0,1,.3-1.2,0.4,0.4,0,0,0-.3-0.3,5.3,5.3,0,0,0,.3-1c-0.2-2.6-.3-4.6-0.3-6.4l-0.2-.5-0.7.2H44.1l-1.3.3-1.2-.3H40.2c0,1.5.2,3.9,0.3,7.1,0,0.5-.2,1.5-0.3,3.3a85.7,85.7,0,0,1,.5,9.5V208c0,0.2,0,.3-0.2.3l0.2,0.7v3.9l0.3,2.1H40.7l0.3,0.5a100.8,100.8,0,0,0,.7,10.2c0,0.2-.2.2-0.3,0.2a17.9,17.9,0,0,0,.7,3.8l-0.3.5a0.4,0.4,0,0,0,.3.3L41.7,232v4.6l0.3,2.1H41.7a0.4,0.4,0,0,0,.3.3l-0.3,1.5c0.2,4.4.3,6.9,0.3,7.4l-1.5,1.2a4,4,0,0,0-1.3-1.5l0.3-1.6v-2.6a0.4,0.4,0,0,1,.3-0.3l-0.3-.7c0.2-3.1.3-5.1,0.3-5.8l-0.3-.7,0.3-.5c-0.2-2.1-.3-3.8-0.3-4.9a0.8,0.8,0,0,1,.3-0.8L39.6,228v-0.5c0-1.8-.2-4.4-0.3-7.9a0.4,0.4,0,0,1,.3-0.3l-0.3-1.6v-2.6l-0.3-2.1h0.3l-0.3-.7v-4.8l-0.3-2c0-.2.2-0.2,0.3-0.2a64.8,64.8,0,0,1-.5-8.5v-1.5c0-.2,0-0.3.2-0.3s0-.3-0.2-0.3a2.1,2.1,0,0,1,.2-1c-0.2-4.6-.5-6.9-0.8-6.9l0.3-2.1c-0.2-5.7-.3-9.5-0.3-11.7H38l-0.3-.5c0-.8.2-1.3,0.3-1.3l-0.3-2.1v-9.4c0-1.8.2-3.8,0.3-6.4l-0.3-.5a0.4,0.4,0,0,1,.3-0.3l-0.3-2.1v-1.8a0.4,0.4,0,0,1,.3-0.3,11.4,11.4,0,0,1-.7-2.8l0.3-.7a22.5,22.5,0,0,1-.3-2.6v-0.3a49.1,49.1,0,0,0,.7-4.9v-3.6Z" transform="translate(-0.1)"/><path class="b" d="M82.2,138.3c4.4,5.3,6.7,10.3,6.8,15.4,0.5,0,1,2.8,1.5,8.2H90.3l0.5,1.3a2.4,2.4,0,0,0-.3,1.1,0.4,0.4,0,0,1,.3.3l-0.5.3a17.3,17.3,0,0,1,.5,3.3,0.4,0.4,0,0,1-.3.3l0.3,1.5c0,3.5-.2,5.3-0.5,5.3s0,0.2.2,0.2a16.1,16.1,0,0,1-1.1,4.6,6.4,6.4,0,0,1,.3,1c-0.5.2-1.5,2.8-3.1,7.6-0.5.2-1.6,1.8-3.6,4.9s-5.3,3.6-6.1,3.6v0.3a94.9,94.9,0,0,1,4.6,11.2q1,0,6.4,16.8c0.8,1.3,3.3,6.7,7.2,16.4a0.4,0.4,0,0,0-.3.3c0.3,0,1,1.3,2.1,3.9a1.7,1.7,0,0,1-.8,1.2c-1.2-.7-1.8-1.3-1.8-1.8l-9.2-21.8a240.7,240.7,0,0,0-10.4-25.6l-3,.3c0,0.8-.2,1.3-0.3,1.3l0.3,0.5-0.3.7a7.7,7.7,0,0,1,.3.8,6.4,6.4,0,0,1-.3,1l0.3,1.2c-0.2,2.1-.3,3.6-0.3,4.6s0.2,0.7.3,0.7l-0.3,1.5v6.7a2.4,2.4,0,0,1-.3,1.2,3.1,3.1,0,0,1,.3,1.3v2.1c0,0.2-.2.2-0.3,0.2a3.9,3.9,0,0,1,.7,2v8l0.3,3.1H71.8a4.3,4.3,0,0,1,.5,1.8v0.7l-0.2.5c0.5,0,.8,2.6.8,8l-1.1.8c0-.5-0.5-0.7-1.3-0.7v-0.5a20.9,20.9,0,0,0-.3-2.8,0.4,0.4,0,0,1,.3-0.3,99.8,99.8,0,0,1-.5-10l0.2-.7a15.2,15.2,0,0,1-.5-4.8v-10a3.9,3.9,0,0,0-.3-1.3c0-.2.2-0.2,0.3-0.2a6.5,6.5,0,0,0-.3-1c0.2-2.6.3-4.8,0.3-6.4V207a0.4,0.4,0,0,1,.3-0.3l-0.3-.7v-1.8a0.4,0.4,0,0,1,.3-0.3,3.5,3.5,0,0,1-.7-1.8c0.2-2.1.3-3.6,0.3-4.8a0.5,0.5,0,0,1-.7-0.7q1-1.2,1-4.9c0-.2-0.2-0.7-0.3-1.8l0.5-.3c0-.2,0-0.2-0.2-0.2l0.2-3.1v-3a0.4,0.4,0,0,1,.3-0.3l-0.3-.7,0.3-4.9c0-.2-0.2-0.2-0.3-0.2l0.3-1.6v-6.1c0.2-1.5.3-2.1,0.7-2.1l-0.3-.5v-3.9a0.4,0.4,0,0,1,.3-0.3l-0.3-.7v-1.8a0.4,0.4,0,0,1,.3-0.3l-0.3-.7,0.3-2-0.3-1.6a0.4,0.4,0,0,1,.3-0.3,20.3,20.3,0,0,0-.7-4.1l0.3-.7L70.4,149h0.3l-0.3-.7V148a2.4,2.4,0,0,1,.3-1.2,6.5,6.5,0,0,1-.3-1l0.3-.7-0.3-.5,0.3-1.8a3.1,3.1,0,0,0-.3-1.3,1.3,1.3,0,0,1,.7-1.2l-0.7-3.1q0.2-3,2.5-3Q80,135.6,82.2,138.3Zm-9.4,0V145a2.4,2.4,0,0,0,.3,1.1,2.4,2.4,0,0,0-.3,1.2v1a2.4,2.4,0,0,0,.3,1.1l-0.3.7,0.3,1.5-0.3.7,0.3,1.8a0.4,0.4,0,0,1-.3.3l0.3,0.7v1.5a0.4,0.4,0,0,1-.3.3l0.7,2.6c-0.2,2.1-.5,3.1-0.7,3.1a2.8,2.8,0,0,1,.3.8l-0.3.7,0.3,0.7-0.3,1.2a0.4,0.4,0,0,0,.3.3c-0.2,2.1-.5,3.3-0.7,3.3l0.3,0.7a0.4,0.4,0,0,1-.3.3l0.3,0.7v0.5a0.4,0.4,0,0,1-.3.3l0.3,0.7a0.4,0.4,0,0,1-.3.3,0.4,0.4,0,0,0,.3.3l-0.6,8.4,0.3,0.7a1.2,1.2,0,0,1-.5,1,1.1,1.1,0,0,0,.5.8c-0.3,4.8-.6,7.1-0.8,7.1a0.4,0.4,0,0,0,.3.3l-0.3,3v1.1l0.8,0.3c5.3-1.5,8.9-3.8,10.7-6.9,3.3-6.2,4.9-11.2,4.9-15h0.2l-0.2-.7,0.2-.5c0-.2,0-0.3-0.2-0.3l0.2-2.1V168a0.4,0.4,0,0,1,.3-0.3l-0.3-.5c0-12.8-2.5-22-7.6-27.8a13.2,13.2,0,0,0-7.6-2.6Z" transform="translate(-0.1)"/><path class="b" d="M112.2,136.3l-0.2,3.6v1.8a128.8,128.8,0,0,1-1,17.3,34.7,34.7,0,0,1,.3,4.3v0.3a0.4,0.4,0,0,1-.3.3l0.3,0.7v10l0.3,1.8a0.4,0.4,0,0,1-.3.3l0.3,2.1v3.3a0.4,0.4,0,0,1-.3.3l0.3,0.7v2a0.4,0.4,0,0,1-.3.3l0.3,0.7v3.3l0.3,2.1h-0.3l0.3,0.7a0.4,0.4,0,0,1-.3.3l0.3,0.7v1.8a22.7,22.7,0,0,1-.3,2.6,0.4,0.4,0,0,0,.3.3l-0.3,1.5a4.9,4.9,0,0,0,.3,1.6,31.3,31.3,0,0,0-.3,3.3v4.6a4.2,4.2,0,0,0,.3,1.2,3.9,3.9,0,0,0-.3,1.3V215a4.2,4.2,0,0,0,.3,1.1l-0.3.7c0.2,1.2.3,1.6,0.3,1.8l-0.3,1.2a4.9,4.9,0,0,1,.3,1.6h-0.3l0.3,0.5v0.3l-0.7,2.1a0.7,0.7,0,0,1,.7.7v3.3a0.4,0.4,0,0,1-.3.3l0.3,0.7v0.3c0,0.2-.2.2-0.3,0.2l0.5,3.8-0.2.5a31.7,31.7,0,0,0,.5,5.6,7.9,7.9,0,0,0-.3.8c0.2,3.8.3,5.8,0.3,6.4l-0.3.7c0.2,0.2-.5.2-1.8-0.3v-4.3a31.3,31.3,0,0,0-.3-3.3,0.4,0.4,0,0,1,.3-0.3c-0.3-3.4-.5-6.9-0.5-10.7l0.2-1.8a19.9,19.9,0,0,1-.2-3.1v-3l-0.3-1.5H110l-0.3-.7v-0.3a0.8,0.8,0,0,1,.3-0.8l-0.3-1.6V203.1a3.9,3.9,0,0,1,.3-1.3,7.7,7.7,0,0,1-.3-0.8H110l-0.3-.7V200a0.4,0.4,0,0,1,.3-0.3l-0.3-.5c0.2-1.8.3-3.1,0.3-3.9a5.3,5.3,0,0,1-.3-1l0.3-.7c-0.5-7.1-.7-11-0.7-12.2s0.5-1.8.7-1.8-0.8-3.4-1-8.5a22.6,22.6,0,0,0,.3-2.6V153.2a0.4,0.4,0,0,1,.3-0.3c0-.2-0.2-0.2-0.3-0.2l0.3-1.6a0.4,0.4,0,0,0-.3-0.3l0.3-1.5v-2.6a0.4,0.4,0,0,1,.3-0.3q-0.3-10.8,1-10.8c0.8-1.2,1.3-1,1.2.5S112.1,136.3,112.2,136.3Z" transform="translate(-0.1)"/><path class="b" d="M136.2,135.9a13.9,13.9,0,0,1,7.6,5.4l1.6,3.3c-0.2,2.5-.5,3.8-1,3.8s-1.6-1.8-2.1-5.3c-2.1-3.1-4.6-4.8-7.2-4.8,0-.2-0.2-0.3-0.7-0.3-3.1.5-4.6,2.8-4.6,7.2v3.3a3.1,3.1,0,0,1-.3,1.3,11.6,11.6,0,0,1,.7,3.9h-0.3a9.6,9.6,0,0,1,.7,2.8h-0.3A73.3,73.3,0,0,1,132,166a26.6,26.6,0,0,1,1.7,6.9h-0.3a112.9,112.9,0,0,1,3,11.7l3.5,12.6h-0.3c0.8,2.5,2.1,8.7,4.3,18.9h-0.3c0.5,0.8,1.3,4.3,2.1,10h-0.3a58.2,58.2,0,0,1,1.2,8.2c0,6.9-2,11.3-5.7,13.5a9.6,9.6,0,0,1-4.3,1.2c-2.6,0-5.6-1.6-8.7-4.9-1.2-1.6-2.1-5.4-3.1-11.5h0.3l-0.3-.7v-0.8q0-4.2,1.5-4.9a1.4,1.4,0,0,1,1,1v0.5c0,1.5-.2,2.1-0.7,2.1l1,5.6-0.3.5c1.2,4.6,3,7.7,5.4,9.5a10.4,10.4,0,0,0,3.6,1.1l1.6-.3v0.3c1.6,0,3.6-2,5.7-6.1a27.5,27.5,0,0,0,.5-4.6v-0.2a69.2,69.2,0,0,0-1.5-12.5l0.3-.7c-4.1-19.2-7.6-33.8-10.4-44a229.1,229.1,0,0,1-4.8-25.6l0.2-3-0.2-4.3c0-6.4,2.5-9.7,7.2-9.7h1.5Z" transform="translate(-0.1)"/><path class="b" d="M156.8,133.9l2,0.3,0.5-.3c2.1,0.2,3.1.3,3.1,0.5s0.3,0,.3-0.2c2.5,0.3,3.6.7,3.6,0.8l0.5-.3h0.3a0.4,0.4,0,0,1,.3.3l0.7-.3h0.8a0.4,0.4,0,0,1,.3.3,4,4,0,0,1,1.8-.7l1,0.3,0.7-.3,1.5,0.3,1.1-.3a0.4,0.4,0,0,1,.3.3l1.5-.3h2.5a3.9,3.9,0,0,1,1.3.3,2.2,2.2,0,0,1,2.3,0l0.7-.3c1.8,0.5,2.8,1.1,2.8,1.6a2.9,2.9,0,0,1-2.8,1.5,0.5,0.5,0,0,0-.7-0.7,0.8,0.8,0,0,0-.8.3l-1.5-.3h-6.7l-1.5.3a0.4,0.4,0,0,0-.3-0.3c-0.5,1.2-.7,3.5-0.6,7.1v2.5a5.6,5.6,0,0,1,1,3.6h-0.3c0.2,1.5.3,2.1,0.5,2.1l-0.2,1.5a25.5,25.5,0,0,0,.2,3.3l-0.2.7,0.2,1.8v1.8c0,0.2,0,.3-0.2.3s0.7,2.5.8,6.1a6.4,6.4,0,0,0-.3,1,2.4,2.4,0,0,1,.3,1.1h-0.3l0.3,0.7v0.3c0,0.2-.2.2-0.3,0.2l0.3,0.7a0.4,0.4,0,0,1-.3.3l0.3,0.7a0.4,0.4,0,0,1-.3.3l0.3,0.5a0.4,0.4,0,0,1-.3.3l0.3,0.7a0.4,0.4,0,0,1-.3.3c0,0.2.2,0.2,0.3,0.2l-0.3,2.1v0.3l0.3,3.1h-0.3l0.3,0.5c-0.5,5.6-.8,9.5-0.8,11.7v2.1l0.2,3.6h-0.2c0,0.2,0,.3.2,0.3-0.2,1.8-.2,2.8-0.2,3,0.2,12,.2,19.4.2,22.5l0.3,0.7-0.3.7a2.8,2.8,0,0,0,.3.8l-0.3,1.5c0.2,1.2.3,2,.3,2.5H173l0.3,0.7a0.4,0.4,0,0,1-.3.3,0.4,0.4,0,0,0,.3.3l-0.5,12.2a18.1,18.1,0,0,1,.2,3.6,1.3,1.3,0,0,1-1.8-1.5c0-.5,0-0.7-0.2-0.7l0.2-2.1v-3.9l-0.2-2.1h0.2l-0.2-.7v-2.5c0-.2,0-0.2.2-0.2s0-.3-0.2-0.3l0.2-1.6c0-.5,0-0.8-0.2-0.8l0.2-1.5v-3.9a25.5,25.5,0,0,0-.5-6.4l0.3-.7-0.3-1.8v-0.3a0.4,0.4,0,0,1,.3-0.3l-0.3-.5V208l0.3-1.8a4,4,0,0,1-.7-2.1h0.3a0.4,0.4,0,0,0-.3-0.3c0.2-10.7.5-19.4,0.8-26.5v-3.9a0.4,0.4,0,0,1,.3-0.3l-0.3-.5v-5.8l-0.2-1.6h0.2l-0.2-.5V163a2.4,2.4,0,0,1,.2-1.2c0-.2,0-0.3-0.2-0.3a1.8,1.8,0,0,1,.2-0.8c0-.5-0.2-2-0.5-4.3h0.3l-0.7-2.5,0.3-1.5c-0.5-4.9-.8-10.2-1-15.6l-3.6.3c-4.4-.3-6.7-0.6-6.7-0.8l-0.5.2c-2.1-.3-3.1-0.7-3.1-1.1v-0.7a1.7,1.7,0,0,1,1-.8h0.2Z" transform="translate(-0.1)"/><path class="b" d="M202.8,134h1.5c0.7,0,1-.2,1-0.3l1.5,0.3h7.1c2,0.5,3,1,3,1.1v0.7l-0.3.7c-2.8-.2-4.4-0.3-4.8-0.7l-1.3.3h-1.8l-1.2-.3-1.3.3h-0.3c-0.2,0-.2-0.2-0.2-0.3l-0.7.3h-2.8c0,0.8-.2,1.1-0.3,1.2a0.4,0.4,0,0,0,.3.3,5.3,5.3,0,0,0-.3,1l0.3,1.5c-0.8,5.9-1.1,9.2-1.1,10l0.3,0.7-0.3,2.1c0.2,3.5.3,5.6,0.3,6.1a0.4,0.4,0,0,1-.3.3l0.3,1.5v5.4c0,0.2.2,0.7,0.3,1.3a4.2,4.2,0,0,0-.3,1.2v3.9l-0.3,1.8a4.8,4.8,0,0,1,.3,1.5v0.7a4.2,4.2,0,0,1-.3,1.2l0.3,0.7a5.5,5.5,0,0,1-.7,2.5,4.1,4.1,0,0,1,.3,1.1c-0.2,1.5-.3,2.3-0.3,2.5l0.3,0.7-0.3,1.8v2.5a0.4,0.4,0,0,1-.3.3l0.7,1.1,0.7-.3h10.2a1.4,1.4,0,0,1,1,1c0,0.8-3.6,1.3-10.7,1.5a5.1,5.1,0,0,0-1.8-.3V193a21.1,21.1,0,0,1,.3,2.8V197c0,1.8-.2,3.8-0.3,6.4a7.9,7.9,0,0,1,.3.8h-0.3l0.3,0.7a4.8,4.8,0,0,1-.3,1.5c0.2,4.3.5,8.4,1,12.2H201l0.7,1.6-0.3,1.8c0.2,1.8.3,3.6,0.3,5.4h-0.3a9.2,9.2,0,0,1,.5,3.3v1.8c0,0.2,0,.3-0.2.3l0.2,0.7v0.3c0,0.2,0,.3-0.2.3l0.2,0.5c0,0.2,0,.3-0.2.3s0,0.3.2,0.3l-0.2,1.5v1l0.5,0.8a3.8,3.8,0,0,1-.3,1.3l0.7,5.1h8.2l1.8-.3a1.8,1.8,0,0,1,1.3.7l0.5-.3h2.1a1.4,1.4,0,0,1,1,1v0.8c-0.7,0-1,.2-1,0.7l-0.7-.3h-0.5c-0.7,0-1,.2-1,0.3-2.1-.2-3.3-0.5-3.3-0.7l-0.7.3H209l-1.2-.3a21.1,21.1,0,0,1-4.6.7l-1-.3c0,0.5-.2.7-0.5,0.7s-1.5-1.5-2-4.3a0.4,0.4,0,0,1,.3-0.3l-0.3-1.5v-1.5a32.1,32.1,0,0,0-.2-4.6,49.6,49.6,0,0,0,.2-5.1v-4.3a2.5,2.5,0,0,0-.2-1.3c0-.2,0-0.3.2-0.3l-0.2-2.1V221c-0.5-6.6-.7-10.2-0.7-10.7V207a4.2,4.2,0,0,0-.3-1.1c0.2-.7.3-1.2,0.3-1.3V204l-0.3-1.6h0.3a8.1,8.1,0,0,1-.3-0.8l0.3-.7a7.6,7.6,0,0,1-.3-0.8h0.3a0.4,0.4,0,0,0-.3-0.3l0.3-3.1v-1.8l-0.3-1.5h0.3l-0.3-.7V192c0-.2.2-0.2,0.3-0.2a0.4,0.4,0,0,0-.3-0.3l0.3-1.6v-5.7l0.3-1.8a7.7,7.7,0,0,1-.3-0.8h0.3a0.4,0.4,0,0,0-.3-0.3,34,34,0,0,0,.6-8.2V169c0-.2,0-0.3.2-0.3l-0.2-.7a84.9,84.9,0,0,0-.7-10.8,0.4,0.4,0,0,1,.3-0.3l-0.3-1.5a96.9,96.9,0,0,1,1.1-15.6,0.4,0.4,0,0,0-.3-0.3c0.3-4.1.8-6.1,1.6-6.1h0.5Z" transform="translate(-0.1)"/><path class="b" d="M230.4,133c1.6,1.1,3.3,4.4,5.1,9.7,7.1,14,13.8,26.4,20.1,37.8h0.3l-0.3-1.5v-5.6a3.6,3.6,0,0,0-.3-1.6l0.3-1.8v-4.4c0-.2.2-0.2,0.3-0.2a6.8,6.8,0,0,1-.7-3.4v-0.7a0.4,0.4,0,0,1,.3-0.3l-0.5-3.8,0.2-1.1c-0.2-1.8-.2-3.1-0.2-4.1h0.2a1.8,1.8,0,0,1-.2-0.8,3.2,3.2,0,0,1,.2-1.3,18,18,0,0,1-.2-2.8v-0.7c0-.2,0-0.2.2-0.2s0-.3-0.2-0.3l0.2-3.1v-0.3q-0.5-5.2-.5-5.9v-1.3a1.8,1.8,0,0,1,.8-0.8c0.3,0,1,.7,2,2.1l-0.3,1.5a6.5,6.5,0,0,0,.3,1,0.4,0.4,0,0,1-.3.3l0.3,1.5c-0.2,4.8-.3,8.2-0.3,10.7l0.3,1.5-0.3.7a2.4,2.4,0,0,1,.3,1.1,0.4,0.4,0,0,1-.3.3l0.3,0.7c0.2,5.7.3,10.5,0.3,14.3v0.7a0.4,0.4,0,0,1-.3.3l0.3,0.5v2.3a12.6,12.6,0,0,0,.2,2.5l-0.5,3.6c0,1,.2,2.3.3,4.1-0.2,4.1-.3,7.9-0.3,11.2,0.2,1.5.3,2.3,0.3,2.5h-0.3l0.3,0.7v1.2a0.4,0.4,0,0,1-.3.3,0.4,0.4,0,0,0,.3.3l-0.3,3.1v2.5a12.5,12.5,0,0,0,.3,2.5l-0.7,5.9,0.3,0.7-0.3.7,0.3,1.8a0.4,0.4,0,0,1-.3.3l0.3,0.7v1.5a0.4,0.4,0,0,1-.3.3l0.3,0.7v3.1c0,0.2-.2.2-0.3,0.2l0.3,0.7V228a2.4,2.4,0,0,1-.3,1.2,3.9,3.9,0,0,1,.3,1.3v0.7a0.4,0.4,0,0,1-.3.3,0.4,0.4,0,0,0,.3.3,83.7,83.7,0,0,0-.6,10.5l-0.3.7c0,0.2.2,0.2,0.3,0.2-0.2,2.8-.5,4.1-1.3,4.1h-0.5q-1,0-1-4.9a0.5,0.5,0,0,0,.7-0.7v-3.4a0.4,0.4,0,0,1,.3-0.3,0.4,0.4,0,0,0-.3-0.3,23.7,23.7,0,0,1,.8-4.6,1.2,1.2,0,0,0-.5-1l0.2-2.1v-0.3l-0.2-2.1h0.2c0-.2,0-0.3-0.2-0.3l0.2-1.5v-9.4a0.3,0.3,0,0,1,.3-0.3l-0.3-.5V201.5c0-.2.2-0.2,0.3-0.2l-0.3-.7v-0.3a0.4,0.4,0,0,1,.3-0.3l-0.3-.7V188.5a0.4,0.4,0,0,1,.3-0.3l-0.3-.7a31.2,31.2,0,0,0,.3-3.3c-4.1-6.2-9.5-15.9-16.1-28.9a72.5,72.5,0,0,1-8.1-17.1H231v3.5a0.4,0.4,0,0,1-.3.3l0.3,0.7v4.9a0.4,0.4,0,0,1-.3.3l0.3,0.7v1.5c0,4.8.2,7.6,0.7,8.7a0.4,0.4,0,0,1-.3.3l0.3,1.5v1a0.4,0.4,0,0,1-.3.3l0.3,0.7v9.9a0.4,0.4,0,0,1-.3.3c0.5,1.1.7,3.9,0.7,8v3.8l0.3,1.8-0.3.7,0.3,1.8h-0.3a0.4,0.4,0,0,0,.3.3c-0.2,1.8-.5,2.8-0.7,2.8l0.3,0.7v1.8c0,0.8.2,2,.3,3.4a0.4,0.4,0,0,1-.3.3l0.3,1.5v1c0,1.6-.2,3.6-0.3,5.9l0.3,0.5-0.3,2v0.3l0.3,2.1h-0.3l0.3,0.7V214c0,1.5.2,3.8,0.3,6.9h-0.3c0,0.2.2,0.2,0.3,0.2a11.4,11.4,0,0,0-.7,3.1l0.3,4.4h-0.3l0.3,0.5v1.6a21.3,21.3,0,0,1-.3,2.8,0.4,0.4,0,0,0,.3.3l-0.3,2.1v3.1a22.6,22.6,0,0,1-.3,3.1,13.1,13.1,0,0,1,.3,2.8v1.5a0.5,0.5,0,0,1-.7.7h-0.3c-0.3,0-.7-1-1.2-3.1,0.2-5.8.3-10.5,0.3-14.3v-8c0-.2,0-0.3.2-0.3l-0.2-.5v-0.3c0-.2,0-0.3.2-0.3l-0.2-.7c0-.2,0-0.3.2-0.3l-0.2-1.5v-1a3.6,3.6,0,0,1,.2-1.3,1.8,1.8,0,0,1-.2-0.8h0.2c0-.2,0-0.3-0.2-0.3l0.2-3.1v-0.3c0-1.8,0-3.6-.2-5.6a12.5,12.5,0,0,0,.2-2.5l-0.2-1.5h0.2a2.9,2.9,0,0,1-.2-1c0-.2,0-0.3.2-0.3l-0.2-1.5v-2.6l-0.3-3h0.3l-0.3-.7v-2c0-.2.2-0.2,0.3-0.2a0.4,0.4,0,0,0-.3-0.3q0.2-3.4.5-3.5a4.3,4.3,0,0,1-.5-1.8V174.3a2.4,2.4,0,0,0-.3-1.1,3.9,3.9,0,0,0,.3-1.3v-1.5l-0.3-1.6h0.3a0.4,0.4,0,0,0-.3-0.3l0.3-1.5v-3.8l-0.3-1.8,0.3-.7a2.8,2.8,0,0,1-.3-0.8,0.4,0.4,0,0,1,.3-0.3,64.9,64.9,0,0,1-1-8.4v-2a2.4,2.4,0,0,1,.3-1.2,3.1,3.1,0,0,1-.3-1.3l0.3-.5-0.3-.7a13.8,13.8,0,0,0,.3-2.1l-0.3-.7a3.9,3.9,0,0,0,.3-1.3,2.4,2.4,0,0,0-.3-1.1,0.4,0.4,0,0,1,.3-0.3l-0.3-2.1V134a1.4,1.4,0,0,1,1-1h0.5Z" transform="translate(-0.1)"/><path class="b" d="M29.1,291.8H28.7c0.3,0.8.7,4.6,1.2,11.3H29.6a0.4,0.4,0,0,0,.3.3,23.4,23.4,0,0,1-.5,3.9l0.5,1.1a0.4,0.4,0,0,1-.3.3l1,4.8H30.2l0.3,0.7a0.4,0.4,0,0,1-.3.3l0.3,1.5v1.8l-0.3.7a0.7,0.7,0,0,1,.7.7c-0.2,1.2-.3,1.6-0.3,1.8l0.3,1.2a6.5,6.5,0,0,0-.3,1,2.8,2.8,0,0,1,.3.8,0.4,0.4,0,0,1-.3.3l0.3,2.1v1.5a0.4,0.4,0,0,1-.3.3l0.3,0.7a0.4,0.4,0,0,1-.3.3l0.3,1.5v1c0,0.2-.2.2-0.3,0.2l0.3,0.7v0.3a0.4,0.4,0,0,1-.3.3l0.3,0.7v3.6l0.3,1.8a2.8,2.8,0,0,0-.3.8,0.4,0.4,0,0,0,.3.3l-0.3,2.1v3.6a0.4,0.4,0,0,1-.3.3l0.3,0.7a0.4,0.4,0,0,1-.3.3,0.4,0.4,0,0,0,.3.3l-0.3,1.5v3a0.4,0.4,0,0,1-.3.3l0.3,0.7a0.4,0.4,0,0,1-.3.3,0.4,0.4,0,0,0,.3.3q-0.5,6.4-1,6.4c0,0.2.2,0.2,0.3,0.2l-0.3,1.6v1.8q0,10.6-6.9,17.3a19.9,19.9,0,0,1-5.7,2.5c-4.1,0-6.7-1.5-7.9-4.6s-2.8-6.7-4-15.4c0-.2,0-0.3.2-0.3l-0.2-1.5c-0.2-4.9-.3-7.7-0.3-8.2H5.1l-0.3-.7,0.3-1.8a0.4,0.4,0,0,0-.3-0.3,2.8,2.8,0,0,1,.3-0.8l-0.7-9.2H4.8l-0.3-.7V334c0-.2.2-0.2,0.3-0.2l-0.3-.7v-4.6c0-1.6.2-3.6,0.3-5.7a0.4,0.4,0,0,0-.3-0.3l0.3-1.5v-1a22.5,22.5,0,0,0-.3-2.6,6.5,6.5,0,0,0,.3-1,2.4,2.4,0,0,1-.3-1.1H4.8a0.4,0.4,0,0,0-.3-0.3,6.5,6.5,0,0,1,.3-1,42.6,42.6,0,0,1-.7-7.9v-1.8a0.4,0.4,0,0,1,.3-0.3l-0.3-.5v-0.3a3.9,3.9,0,0,1,.3-1.3l-0.3-.5c1.3-14,2.8-22.5,4.2-26,2.8-6.1,6.2-9,10.3-9S26.6,274.9,29.1,291.8ZM9.8,279.2c-0.7,2.1-1.1,3.3-1.5,3.3l0.3,0.7c-0.8,5.4-1.5,8.2-1.8,8.7a0.4,0.4,0,0,0,.3.3l-0.3,1.5v0.3l0.3,0.7c-0.5,0-.8,1-1,2.8,0,0.2.2,0.2,0.3,0.2l-0.3,2.1V305a0.4,0.4,0,0,1-.3.3l0.3,0.5v2.1L6.6,310H6.2l0.3,0.7v2.1a20.9,20.9,0,0,0,.3,2.8,2.8,2.8,0,0,0-.3.8,0.4,0.4,0,0,1,.3.3l-0.7.3,0.3,0.7v4.4a0.4,0.4,0,0,1-.3.3l0.3,0.7v2.1a0.4,0.4,0,0,1-.3.3l0.3,0.5v5.3a0.4,0.4,0,0,1-.3.3c0.2,0.8.3,1.2,0.7,1.1l-0.3,1.5v0.3a3.8,3.8,0,0,0,.3,1.3l-0.3.5a21,21,0,0,1,.3,2.8v0.3a0.4,0.4,0,0,1-.3.3,11.8,11.8,0,0,1,.7,2.6H6.9a0.4,0.4,0,0,0,.3.3l-0.3,1.2,0.3,1.6H6.9a0.4,0.4,0,0,0,.3.3l-0.3,1.5a2.8,2.8,0,0,1,.3.8H6.9L7.3,349a2.4,2.4,0,0,1-.3,1.2,0.4,0.4,0,0,0,.3.3l-0.3,2.1a109,109,0,0,0,1.8,18.6l-0.3.7a23.9,23.9,0,0,0,4.3,8.7l0.7-.2a13,13,0,0,0,3.9.8q5.2-2,6.9-5.4c2.8-5.6,4.3-16.1,4.2-31.4v-1.8a0.4,0.4,0,0,1,.3-0.3c0-.2-0.2-0.2-0.3-0.2l0.3-1.6v-7.2a3.9,3.9,0,0,1,.3-1.3,2.8,2.8,0,0,1-.3-0.8h0.3l-0.3-.7v-0.3c0-.2.2-0.2,0.3-0.2l-0.3-.7v-3.6a36.6,36.6,0,0,0-.7-8.2h0.3a112.1,112.1,0,0,1-1.2-11.8,2.9,2.9,0,0,0,.2-1c0-.2,0-0.3-0.2-0.3l0.2-1.5v-3.1c0-.2.2-0.2,0.3-0.2l-0.3-.7v-0.3a28.5,28.5,0,0,0-.8-6.4h0.3c-1.8-10.8-3.8-18.4-6.1-22.8l-3.1-.5c-1.5,0-3.8,2-6.6,6.1a5.5,5.5,0,0,1-1.6,3.6Z" transform="translate(-0.1)"/><path class="b" d="M57,272.9c4.4,5.3,6.7,10.3,6.8,15.4,0.5,0,1,2.8,1.5,8.2H65l0.5,1.3a2.4,2.4,0,0,0-.3,1.2,0.4,0.4,0,0,1,.3.3l-0.5.3a17.3,17.3,0,0,1,.5,3.3,0.4,0.4,0,0,1-.3.3l0.3,1.5c0,3.5-.2,5.3-0.5,5.3s0,0.2.2,0.2a16,16,0,0,1-1.1,4.6,6.4,6.4,0,0,1,.3,1c-0.5.2-1.5,2.8-3.1,7.6-0.5.2-1.6,1.8-3.6,4.9s-5.3,3.6-6.1,3.6v0.3a94.7,94.7,0,0,1,4.6,11.2q1,0,6.4,16.8c0.8,1.3,3.3,6.7,7.2,16.4a0.4,0.4,0,0,0-.3.3c0.3,0,1,1.3,2.1,3.9a1.7,1.7,0,0,1-.8,1.2c-1.2-.7-1.8-1.3-1.8-1.8l-9.2-21.8a240.6,240.6,0,0,0-10.4-25.6l-3,.3c0,0.8-.2,1.3-0.3,1.3l0.3,0.5-0.3.7a7.7,7.7,0,0,1,.3.8,6.4,6.4,0,0,1-.3,1l0.3,1.2c-0.2,2.1-.3,3.6-0.3,4.6s0.2,0.7.3,0.7l-0.3,1.5v6.7a2.4,2.4,0,0,1-.3,1.2,3.1,3.1,0,0,1,.3,1.3v2.1c0,0.2-.2.2-0.3,0.2a3.9,3.9,0,0,1,.7,2v8l0.3,3.1H46.6a4.3,4.3,0,0,1,.5,1.8v0.7l-0.2.5c0.5,0,.8,2.6.8,8l-1.1.8c0-.5-0.5-0.7-1.3-0.7v-0.5a21,21,0,0,0-.3-2.8,0.4,0.4,0,0,1,.3-0.3,99.8,99.8,0,0,1-.5-10l0.2-.7a15.2,15.2,0,0,1-.5-4.8v-10a3.9,3.9,0,0,0-.3-1.3c0-.2.2-0.2,0.3-0.2a6.5,6.5,0,0,0-.3-1c0.2-2.6.3-4.8,0.3-6.4v-1.5a0.4,0.4,0,0,1,.3-0.3l-0.3-.7v-1.8a0.4,0.4,0,0,1,.3-0.3,3.5,3.5,0,0,1-.7-1.8c0.2-2.1.3-3.6,0.3-4.8a0.5,0.5,0,0,1-.7-0.7q1-1.2,1-4.9c0-.2-0.2-0.7-0.3-1.8l0.5-.3c0-.2,0-0.2-0.2-0.2l0.2-3.1v-3a0.4,0.4,0,0,1,.3-0.3l-0.3-.7,0.3-4.9c0-.2-0.2-0.2-0.3-0.2l0.3-1.6v-6.1c0.2-1.5.3-2.1,0.7-2.1l-0.3-.5v-3.9a0.4,0.4,0,0,1,.3-0.3l-0.3-.7v-1.8a0.4,0.4,0,0,1,.3-0.3l-0.3-.7,0.3-2-0.3-1.6a0.4,0.4,0,0,1,.3-0.3,20.3,20.3,0,0,0-.7-4.1l0.3-.7-0.3-1.5h0.3l-0.3-.7v-0.3a2.4,2.4,0,0,1,.3-1.1,6.5,6.5,0,0,1-.3-1l0.3-.7-0.3-.5,0.3-1.8a3.1,3.1,0,0,0-.3-1.3,1.3,1.3,0,0,1,.7-1.2l-0.7-3.1q0.2-3,2.5-3Q54.7,270.2,57,272.9Zm-9.4,0v6.7a2.2,2.2,0,0,1,0,2.3v1a2.4,2.4,0,0,0,.3,1.1l-0.3.7,0.3,1.5-0.3.7,0.3,1.8a0.4,0.4,0,0,1-.3.3l0.3,0.7v1.5a0.4,0.4,0,0,1-.3.3l0.7,2.6c-0.2,2.1-.5,3.1-0.7,3.1a2.8,2.8,0,0,1,.3.8l-0.3.7,0.3,0.7-0.3,1.2a0.4,0.4,0,0,0,.3.3c-0.2,2.1-.5,3.3-0.7,3.3l0.3,0.7a0.4,0.4,0,0,1-.3.3l0.3,0.7v0.5a0.4,0.4,0,0,1-.3.3l0.3,0.7a0.4,0.4,0,0,1-.3.3,0.4,0.4,0,0,0,.3.3L47,316.2l0.3,0.7a1.2,1.2,0,0,1-.5,1,1.1,1.1,0,0,0,.5.8c-0.3,4.8-.6,7.1-0.8,7.1a0.4,0.4,0,0,0,.3.3l-0.3,3v1.1l0.8,0.3c5.3-1.5,8.9-3.8,10.7-6.9,3.3-6.2,4.9-11.2,4.9-15h0.2l-0.2-.7,0.2-.5c0-.2,0-0.3-0.2-0.3l0.2-2.1v-2.5a0.4,0.4,0,0,1,.3-0.3l-0.3-.5c0-12.8-2.5-22-7.6-27.8a13.2,13.2,0,0,0-7.6-2.6Z" transform="translate(-0.1)"/><path class="b" d="M86.5,270.4v1.5a12.7,12.7,0,0,0,.3,2.5,52.6,52.6,0,0,0-.6,10.4v3.6a3.9,3.9,0,0,1-.3,1.3l0.3,0.5-0.3,3.6,0.3,0.7-0.3.7,0.3,1.8a0.4,0.4,0,0,1-.3.3l0.3,0.7v2.6a3.9,3.9,0,0,1-.3,1.3c0,0.2.2,0.2,0.3,0.2a6.4,6.4,0,0,1-.3,1l0.3,2.1-0.3,3.6,0.7,1.3a0.4,0.4,0,0,1-.3.5l0.3,3.1V318c0,1.1-.2,2.6-0.3,4.3l0.3,0.7a2.4,2.4,0,0,0-.3,1.2,6.5,6.5,0,0,1,.3,1H86.3a14.3,14.3,0,0,1,.7,3.9l-0.3.7a2.8,2.8,0,0,0,.3.8c-0.2,2.1-.3,3.8-0.3,4.9v0.8c0,0.8.2,2,.3,3.5l-0.7,2.5c0,0.2.2,0.2,0.3,0.2L86.3,344l0.7,14H86.6l0.3,0.7v0.5a0.4,0.4,0,0,1-.3.3,0.4,0.4,0,0,0,.3.3l-0.3,1.5L87,364H86.6a2.8,2.8,0,0,1,.3.8c0,0.5-.2.7-0.3,0.7l0.3,2.1v2.1a2.4,2.4,0,0,1-.3,1.1,3.9,3.9,0,0,1,.3,1.3v0.3c0,0.2-.2.2-0.3,0.2l0.3,0.7v3.1a0.4,0.4,0,0,1-.3.3l0.3,0.5V378a0.4,0.4,0,0,1-.3.3,2.8,2.8,0,0,1,.3.8h3l1.8,0.3a0.4,0.4,0,0,0,.3-0.3l2.1,0.3H97l1.5-.3v0.3l4.8-.8,0.7,0.8v0.7c0,0.8-1.6,1.3-4.8,1.5H97.8a0.4,0.4,0,0,1-.3-0.3l-0.5.3H89.9l-4.6.3a3.9,3.9,0,0,0-1.2-1.8,14.3,14.3,0,0,1,.7-3.9,3.1,3.1,0,0,1-.3-1.3h0.3c0-.2-0.2-0.2-0.3-0.2a19.6,19.6,0,0,0,.5-2.8l-0.2-1.5,0.2-1.3a14.8,14.8,0,0,0-.5-2.5,12.2,12.2,0,0,0,.3-2l-0.3-.7a0.4,0.4,0,0,1,.3-0.3l-0.3-2.1V349.7a0.4,0.4,0,0,1,.3-0.3l-0.3-.7v-3.6l-0.3-1.5h0.3a0.4,0.4,0,0,0-.3-0.3l0.3-2.1v-8.5a0.4,0.4,0,0,1,.3-0.3,2.8,2.8,0,0,1-.3-0.8,6.4,6.4,0,0,1,.3-1,2.8,2.8,0,0,0-.3-0.8,3.9,3.9,0,0,1,.3-1.3,43.2,43.2,0,0,0-.7-5.4l0.3-.7a2.8,2.8,0,0,1-.3-0.8h0.3l-0.3-.7,0.3-1.2a6.5,6.5,0,0,1-.3-1h0.3l-0.3-.7v-0.5a0.4,0.4,0,0,1,.3-0.3,0.4,0.4,0,0,0-.3-0.3l0.3-1.5c0-.2-0.2-0.8-0.3-1.8h0.3a0.4,0.4,0,0,0-.3-0.3l0.3-2.1a2.4,2.4,0,0,0-.3-1.2,0.4,0.4,0,0,1,.3-0.3l-0.3-3.1v-3.9a2.4,2.4,0,0,0-.3-1.2,3.1,3.1,0,0,0,.3-1.3v-1.5a12.7,12.7,0,0,0-.3-2.5l0.3-1.5-0.3-2.8c0-.2.2-0.2,0.3-0.2l-0.3-1.6v-0.5a20.1,20.1,0,0,1,.7-3.5v-9.4c0-1.5-.2-3.6-0.3-6.7l1.1-.7C86,269.7,86.5,270,86.5,270.4Z" transform="translate(-0.1)"/><path class="b" d="M128.3,277.7v2.8c0,0.2.2,0.7,0.3,1.3l-0.3.5a5.3,5.3,0,0,0,.3,1c0,0.5-.2.7-0.3,0.7,1.3,13.1,2.7,24.3,4.1,34.8a0.4,0.4,0,0,1-.3.3q3,20.5,3,23.2h-0.3l6,36.1c-0.2,1.5-.3,2.1-0.8,2.1h-0.3c-0.8,0-1.6-3.9-2.6-12l-2.8-16.1h0.3l-0.3-.7a0.4,0.4,0,0,1,.3-0.3,80.6,80.6,0,0,0-2-10.5,5.3,5.3,0,0,1,.3-1,16.5,16.5,0,0,0-1-5.3,0.4,0.4,0,0,1,.3-0.3l-1.2-8.5h-2.3a42.2,42.2,0,0,0-8.2.8V327c-1.1,14-2.3,23.3-3.4,28.3l0.3,0.7c-1,5.4-1.6,8.2-2,8.2l0.3,0.7c-0.2,2.8-.5,4.1-1,4.1l0.3,0.7q-0.2,6.7-1,7.9l0.3,1.3c-0.3,2.1-.7,3.1-1.1,3.1h-0.3a1.4,1.4,0,0,1-1-1v-2.5a0.4,0.4,0,0,1,.3-0.3,0.4,0.4,0,0,0-.3-0.3l2-11.2-0.3-.5,1.5-8.9h0.3l-0.3-.7c1.1-6.1,2.3-14.6,3.4-26,0-.2,0-0.3-0.2-0.3,0.2-3.5.3-5.1,0.8-5.1l-0.3-.7,0.3-.7a0.4,0.4,0,0,0-.3-0.3l0.3-3.1v-2.3a0.4,0.4,0,0,1,.3-0.3l-0.3-.5V317a0.4,0.4,0,0,1,.3-0.3,0.4,0.4,0,0,0-.3-0.3c0.3-4.1.7-6.1,1-6.1a0.4,0.4,0,0,0-.3-0.3c0.6-6.4,1.1-10.2,1.6-11.3a0.4,0.4,0,0,0-.3-0.3c0.7-5.1,1.3-8.9,1.8-11.7l-0.2-.7a11.4,11.4,0,0,1,.5-2.6,0.4,0.4,0,0,0-.3-0.3c0.8-9.4,1.5-14,2.3-14a2.1,2.1,0,0,1,1-.2l1.2,2.1A36.1,36.1,0,0,0,128.3,277.7Zm-5.1,17.1a0.4,0.4,0,0,0,.3.3c-0.5,3-.8,4.4-0.8,4.4l0.2,0.5c-0.2,4.3-.5,6.4-0.8,6.4a0.4,0.4,0,0,0,.3.3c-0.2,1.5-.3,2.1-0.7,2.1a0.4,0.4,0,0,0,.3.3c-0.5,3.3-.8,8.2-1.3,15.3a14.5,14.5,0,0,1,5.4-1h4.1l0.7-.3-1-5.4,0.3-1.2c-0.5-1-1.2-4.4-2-10.5a3.9,3.9,0,0,0,.3-1.3L128,304v-2.6c0-.8-0.3-3.1-0.8-7.6h0.2c-0.8-3.4-1.2-8.9-1.2-15.9-0.5,0-.8,1.2-1.3,3.6l0.3,0.7A108.5,108.5,0,0,1,123.2,294.8Z" transform="translate(-0.1)"/><path class="b" d="M152.9,267.7c1.6,1.1,3.3,4.4,5.1,9.7,7.1,14,13.8,26.4,20.1,37.8h0.3l-0.3-1.5V308a3.5,3.5,0,0,0-.3-1.6l0.3-1.8v-4.4c0-.2.2-0.2,0.3-0.2a6.8,6.8,0,0,1-.7-3.4v-0.7a0.4,0.4,0,0,1,.3-0.3l-0.5-3.8,0.2-1.2c-0.2-1.8-.2-3.1-0.2-4.1h0.2a1.8,1.8,0,0,1-.2-0.8,3.2,3.2,0,0,1,.2-1.3,17.9,17.9,0,0,1-.2-2.8v-0.7c0-.2,0-0.2.2-0.2s0-.3-0.2-0.3l0.2-3.1V277q-0.5-5.2-.5-5.9v-1.3a1.8,1.8,0,0,1,.8-0.8c0.3,0,1,.7,2,2.1l-0.3,1.5a6.4,6.4,0,0,0,.3,1,0.4,0.4,0,0,1-.3.3l0.3,1.5c-0.2,4.8-.3,8.2-0.3,10.7l0.3,1.5-0.3.7a2.4,2.4,0,0,1,.3,1.2,0.4,0.4,0,0,1-.3.3l0.3,0.7c0.2,5.8.3,10.5,0.3,14.3v0.7a0.4,0.4,0,0,1-.3.3l0.3,0.5v2.3a12.4,12.4,0,0,0,.2,2.5l-0.5,3.6c0,1,.2,2.3.3,4.1-0.2,4.1-.3,7.9-0.3,11.2,0.2,1.5.3,2.3,0.3,2.5h-0.3l0.3,0.7V334a0.4,0.4,0,0,1-.3.3,0.4,0.4,0,0,0,.3.3l-0.3,3.1v2.5a12.7,12.7,0,0,0,.3,2.5l-0.6,5.9,0.3,0.7-0.3.7,0.3,1.8a0.4,0.4,0,0,1-.3.3l0.3,0.7v1.5a0.4,0.4,0,0,1-.3.3l0.3,0.7v3.1c0,0.2-.2.2-0.3,0.2l0.3,0.7v3.5a2.4,2.4,0,0,1-.3,1.1,3.9,3.9,0,0,1,.3,1.3v0.7a0.4,0.4,0,0,1-.3.3,0.4,0.4,0,0,0,.3.3,83.7,83.7,0,0,0-.6,10.5l-0.3.7c0,0.2.2,0.2,0.3,0.2-0.2,2.8-.5,4.1-1.3,4.1h-0.5q-1,0-1-4.9a0.5,0.5,0,0,0,.7-0.7v-3.5a0.4,0.4,0,0,1,.3-0.3,0.4,0.4,0,0,0-.3-0.3,23.5,23.5,0,0,1,.8-4.6,1.2,1.2,0,0,0-.5-1l0.2-2.1v-0.3l-0.2-2.1h0.2c0-.2,0-0.3-0.2-0.3l0.2-1.5v-9.4a0.4,0.4,0,0,1,.3-0.3l-0.3-.5V336.1c0-.2.2-0.2,0.3-0.2l-0.3-.7V335a0.4,0.4,0,0,1,.3-0.3l-0.3-.7V323.2a0.4,0.4,0,0,1,.3-0.3l-0.3-.7a31.6,31.6,0,0,0,.3-3.3C174,312.7,168.5,303,162,290a72.6,72.6,0,0,1-8.1-17.1h-0.3v3.5a0.4,0.4,0,0,1-.3.3l0.3,0.7v4.9a0.4,0.4,0,0,1-.3.3l0.3,0.7v1.5c0,4.8.2,7.6,0.7,8.7a0.4,0.4,0,0,1-.3.3l0.3,1.5v1a0.4,0.4,0,0,1-.3.3l0.3,0.7v9.9a0.4,0.4,0,0,1-.3.3c0.5,1.1.7,3.9,0.7,8v3.8l0.3,1.8-0.3.7,0.3,1.8h-0.3a0.4,0.4,0,0,0,.3.3c-0.2,1.8-.5,2.8-0.7,2.8l0.3,0.7v1.8c0,0.8.2,2,.3,3.5a0.4,0.4,0,0,1-.3.3l0.3,1.5v1c0,1.6-.2,3.6-0.3,5.9l0.3,0.5-0.3,2v0.3l0.3,2.1h-0.3l0.3,0.7v1.8c0,1.5.2,3.8,0.3,6.9H155c0,0.2.2,0.2,0.3,0.2a11.4,11.4,0,0,0-.7,3.1l0.3,4.4h-0.3l0.3,0.5v1.6a21.1,21.1,0,0,1-.3,2.8,0.4,0.4,0,0,0,.3.3l-0.3,2.1v3.1a22.5,22.5,0,0,1-.3,3.1,13,13,0,0,1,.3,2.8v1.5a0.5,0.5,0,0,1-.7.7h-0.3c-0.3,0-.7-1-1.2-3.1,0.2-5.8.3-10.5,0.3-14.3v-8c0-.2,0-0.3.2-0.3l-0.2-.5v-0.3c0-.2,0-0.3.2-0.3l-0.2-.7c0-.2,0-0.3.2-0.3l-0.2-1.5v-1a3.6,3.6,0,0,1,.2-1.3,1.8,1.8,0,0,1-.2-0.8H153c0-.2,0-0.3-0.2-0.3l0.2-3.1v-0.3c0-1.8,0-3.6-.2-5.6a12.5,12.5,0,0,0,.2-2.5l-0.2-1.5H153a2.9,2.9,0,0,1-.2-1c0-.2,0-0.3.2-0.3l-0.2-1.5v-2.6l-0.3-3h0.3l-0.3-.7v-2c0-.2.2-0.2,0.3-0.2a0.4,0.4,0,0,0-.3-0.3q0.2-3.4.5-3.5a4.3,4.3,0,0,1-.5-1.8V308.9a2.4,2.4,0,0,0-.3-1.2,3.9,3.9,0,0,0,.3-1.3V305l-0.3-1.6h0.3a0.4,0.4,0,0,0-.3-0.3l0.3-1.5v-3.8l-0.3-1.8,0.3-.7a2.8,2.8,0,0,1-.3-0.8,0.4,0.4,0,0,1,.3-0.3,64.8,64.8,0,0,1-1-8.4v-2a2.4,2.4,0,0,1,.3-1.2,3.1,3.1,0,0,1-.3-1.3l0.3-.5-0.3-.7a13.7,13.7,0,0,0,.3-2.1l-0.3-.7a3.9,3.9,0,0,0,.3-1.3,2.4,2.4,0,0,0-.3-1.2,0.4,0.4,0,0,1,.3-0.3l-0.3-2.1v-3.8a1.4,1.4,0,0,1,1-1h0.5Z" transform="translate(-0.1)"/><path class="b" d="M194.1,267.9c2.3,1,6.4,8.2,12.3,21.8,0.8,3.1,2.3,9.9,4.3,20.4h-0.3c1.8,9.7,2.8,16.6,2.8,20.7a0.4,0.4,0,0,1-.3.3l0.3,0.5V333a0.4,0.4,0,0,1-.3.3l0.3,0.5v4.3c0,13.1-2.4,24.2-7.2,32.9-4.1,6.1-8,10.4-12.1,12.5,0-.3-0.5-0.7-1.3-1s-0.2,1-.5,1-1-1-1-2.5v-2.6a0.4,0.4,0,0,1,.3-0.3,0.4,0.4,0,0,0-.3-0.3l0.3-1.5a3.1,3.1,0,0,0-.3-1.3l0.3-.7a8,8,0,0,0-.3-0.8,17.2,17.2,0,0,0,.7-4.6l-0.3-1.1a6.4,6.4,0,0,0,.3-1,0.4,0.4,0,0,0-.3-0.3l0.3-1.5v-0.7a27.1,27.1,0,0,1,.3-4.8c-0.2-2-.3-3.9-0.3-5.7s0.2-4.4.3-8.5a3.1,3.1,0,0,1-.3-1.3h0.3l-0.3-.5v-1a0.4,0.4,0,0,1,.3-0.3l-0.3-.5a0.4,0.4,0,0,1,.3-0.3l-0.3-.7v-1.5a3.8,3.8,0,0,1,.3-1.3,2.2,2.2,0,0,1,0-2.3,6.3,6.3,0,0,1-.3-1h0.3l-0.3-.7,0.3-.5a6.4,6.4,0,0,1-.3-1h0.3l-0.3-.7c0-.2.2-0.2,0.3-0.2l-0.3-2.1v-2.5a0.4,0.4,0,0,1,.3-0.3l-0.3-.7v-0.5a0.4,0.4,0,0,1,.3-0.3l-0.3-.7v-0.7c0-.2.2-0.2,0.3-0.2l-0.3-.7v-1.5c0-4.4.2-6.7,0.5-6.7l-0.2-.7V301.6c0-.2,0-0.3.2-0.3l-0.2-.5v-1.5c0-.2,0-0.3.2-0.3s0-.3-0.2-0.3l0.2-1.5v-0.3a5.1,5.1,0,0,0-.2-1.6l0.2-1.8v-3.3a2.4,2.4,0,0,1,.3-1.1,3.9,3.9,0,0,1-.3-1.3v-0.5l0.3-2a3.3,3.3,0,0,1-.3-1.8l0.3-.5-0.3-.7,0.3-2.1-0.3-.7a0.4,0.4,0,0,1,.3-0.3l-0.3-1.5v-2.5c0-.2.2-0.2,0.3-0.2l-0.3-.7c0.2-2.1.3-4.1,0.3-5.7l1-.7h0.7Zm0,4.6,0.2,1.1a12,12,0,0,0-.2,1.8c0,0.2,0,.3.2,0.3l-0.2,1.5v6.1a0.4,0.4,0,0,1-.3.3l0.3,0.7v15c0,0.2-.2.2-0.3,0.2l0.3,0.7V302a0.4,0.4,0,0,1-.3.3,0.4,0.4,0,0,0,.3.3l-0.3,1.5c0,0.5.2,0.7,0.3,0.7l-0.3,2.1v6.9l-0.3,1.8a4.9,4.9,0,0,1,.3,1.6,0.4,0.4,0,0,1-.3.3,2.8,2.8,0,0,1,.3.8l-0.3.7,0.3,0.5-0.3.7a3.1,3.1,0,0,1,.3,1.3h-0.3c0,0.2.2,0.2,0.3,0.2l-0.3,1.6,0.3,1.1h-0.3l0.3,0.7v7.6l0.3,1.5h-0.3a0.4,0.4,0,0,0,.3.3l-0.3,1.5v7.9c0,0.7.2,1,.3,1l-0.3,1.5v7.1c0,1.8.2,3.8,0.3,5.8a27.9,27.9,0,0,0-.3,4.9v0.8a0.4,0.4,0,0,1-.3.3,0.4,0.4,0,0,0,.3.3l-0.3,1.5v4.9a0.4,0.4,0,0,1-.3.3,2.8,2.8,0,0,1,.3.8c0,0.5-.2.7-0.3,0.7l0.3,2.1v1.5a2.4,2.4,0,0,1-.3,1.2,6.4,6.4,0,0,1,.3,1h-0.3a4.4,4.4,0,0,1,.3,1.8h0.3c0-.2,1.6-1.8,5.1-4.6,5.1-6.1,7.7-10.4,7.9-12.5s1.5-3.9,1.8-4.1l-0.3-.7q0.7-2.5,1-2.5l-0.3-.7c0.8,0,1.5-5.4,2.1-16.1h0.3l-0.3-.5a0.4,0.4,0,0,1,.3-0.3l-0.3-2.1v-3.9l-0.3-3.6h0.3l-0.3-.7a134.9,134.9,0,0,0-1.5-14.6v-1.2c-0.5-.3-0.8-2.6-1.2-7.1-0.2,0-.5-1-1-2.8h0.3c-1.5-6.7-2.6-11.7-3.6-15.1-0.5-.5-1.6-2.6-3.1-6.4-3.1-5.9-5.3-9.2-6.1-10h-0.3C194.3,272.4,194.3,272.5,194.1,272.5Z" transform="translate(-0.1)"/><path class="b" d="M249.9,291.5h-0.3c0.3,0.8.7,4.6,1.2,11.3h-0.3a0.4,0.4,0,0,0,.3.3,23.4,23.4,0,0,1-.5,3.9l0.5,1.1a0.4,0.4,0,0,1-.3.3l1,4.8H251l0.3,0.7a0.4,0.4,0,0,1-.3.3l0.3,1.5v1.8l-0.3.7a0.7,0.7,0,0,1,.7.7c-0.2,1.2-.3,1.6-0.3,1.8l0.3,1.2a6.5,6.5,0,0,0-.3,1,2.8,2.8,0,0,1,.3.8,0.4,0.4,0,0,1-.3.3l0.3,2.1v1.5a0.4,0.4,0,0,1-.3.3l0.3,0.7a0.4,0.4,0,0,1-.3.3l0.3,1.5v1c0,0.2-.2.2-0.3,0.2l0.3,0.7v0.3a0.4,0.4,0,0,1-.3.3l0.3,0.7v3.6L252,339a2.8,2.8,0,0,0-.3.8,0.4,0.4,0,0,0,.3.3l-0.3,2.1v3.6a0.4,0.4,0,0,1-.3.3l0.3,0.7a0.4,0.4,0,0,1-.3.3,0.4,0.4,0,0,0,.3.3l-0.3,1.5v3a0.4,0.4,0,0,1-.3.3l0.3,0.7a0.4,0.4,0,0,1-.3.3,0.4,0.4,0,0,0,.3.3q-0.5,6.4-1,6.4c0,0.2.2,0.2,0.3,0.2l-0.3,1.6v1.8q0,10.6-6.9,17.3a19.9,19.9,0,0,1-5.7,2.5c-4.1,0-6.7-1.5-7.9-4.6s-2.8-6.7-4-15.4c0-.2,0-0.3.2-0.3l-0.2-1.5c-0.2-4.9-.3-7.7-0.3-8.2h0.3l-0.3-.7,0.3-1.8a0.4,0.4,0,0,0-.3-0.3,2.8,2.8,0,0,1,.3-0.8l-0.7-9.2h0.3l-0.3-.7v-6.1c0-.2.2-0.2,0.3-0.2l-0.3-.7v-4.6c0-1.6.2-3.6,0.3-5.8a0.4,0.4,0,0,0-.3-0.3l0.3-1.5v-1a22.4,22.4,0,0,0-.3-2.6,6.5,6.5,0,0,0,.3-1,2.4,2.4,0,0,1-.3-1.1h0.3a0.4,0.4,0,0,0-.3-0.3,6.5,6.5,0,0,1,.3-1,42.5,42.5,0,0,1-.7-7.9v-1.8a0.4,0.4,0,0,1,.3-0.3l-0.3-.5v-0.3a3.9,3.9,0,0,1,.3-1.3l-0.3-.5c1.3-14,2.8-22.5,4.2-26,2.8-6.1,6.2-9,10.3-9S247.4,274.6,249.9,291.5Zm-19.2-12.6c-0.7,2.1-1.1,3.3-1.5,3.3l0.3,0.7c-0.8,5.4-1.5,8.2-1.8,8.7a0.4,0.4,0,0,0,.3.3l-0.3,1.5v0.3l0.3,0.7c-0.5,0-.8,1-1,2.8,0,0.2.2,0.2,0.3,0.2l-0.3,2.1v5.3a0.4,0.4,0,0,1-.3.3l0.3,0.5v2.1l0.3,2.1H227l0.3,0.7v2.1a21.2,21.2,0,0,0,.3,2.8,2.8,2.8,0,0,0-.3.8,0.4,0.4,0,0,1,.3.3l-0.7.3,0.3,0.7V322a0.4,0.4,0,0,1-.3.3l0.3,0.7v2.1a0.4,0.4,0,0,1-.3.3l0.3,0.5v5.3a0.4,0.4,0,0,1-.3.3c0.2,0.8.3,1.1,0.7,1.1l-0.3,1.5v0.3a3.9,3.9,0,0,0,.3,1.3l-0.3.5a20.9,20.9,0,0,1,.3,2.8v0.3a0.4,0.4,0,0,1-.3.3,11.7,11.7,0,0,1,.7,2.6h-0.3a0.4,0.4,0,0,0,.3.3l-0.3,1.2,0.3,1.6h-0.3a0.4,0.4,0,0,0,.3.3l-0.3,1.5a2.8,2.8,0,0,1,.3.8h-0.3l0.3,0.7a2.4,2.4,0,0,1-.3,1.2,0.4,0.4,0,0,0,.3.3l-0.3,2.1a109,109,0,0,0,1.8,18.6l-0.3.7a23.9,23.9,0,0,0,4.3,8.7l0.7-.2a13,13,0,0,0,3.9.8q5.2-2,6.9-5.4c2.8-5.6,4.3-16.1,4.2-31.4v-1.8a0.4,0.4,0,0,1,.3-0.3c0-.2-0.2-0.2-0.3-0.2l0.3-1.6v-7.2a3.8,3.8,0,0,1,.3-1.3,2.8,2.8,0,0,1-.3-0.8h0.3l-0.3-.7v-0.3c0-.2.2-0.2,0.3-0.2l-0.3-.7v-3.6a36.7,36.7,0,0,0-.7-8.2h0.3a111.5,111.5,0,0,1-1.2-11.8,2.9,2.9,0,0,0,.2-1c0-.2,0-0.3-0.2-0.3l0.2-1.5v-3.1c0-.2.2-0.2,0.3-0.2l-0.3-.7v-0.3a28.5,28.5,0,0,0-.8-6.4h0.3c-1.8-10.8-3.8-18.4-6.1-22.8l-3.1-.5c-1.5,0-3.8,2-6.6,6.1a5.5,5.5,0,0,1-1.6,3.6Z" transform="translate(-0.1)"/><path class="b" d="M86,50l-0.2,3.2h0a6.9,6.9,0,0,0-.2,1.5,4.6,4.6,0,0,1-.3,1.6,3.8,3.8,0,0,1-.9,1.4,1.8,1.8,0,0,1-1.3.6A1.9,1.9,0,0,1,82,58a3.7,3.7,0,0,1-.9-1.2,10.1,10.1,0,0,1-.7-1.8,17.1,17.1,0,0,1-.4-2q-0.1-1-.2-2.1t-0.1-2.7,0-1.8,0.1-2.2,0.1-1.5V41.8q0-.4.1-0.9A8.4,8.4,0,0,1,80,40l0.3-.8,0.4-.7A1.8,1.8,0,0,1,82,38h1.1l0.7,0.4L84.4,39l0.4,0.7,0.3,0.8a15.7,15.7,0,0,1,.3,1.7A56.9,56.9,0,0,1,86,50Zm-2.2-9.4a2.7,2.7,0,0,0-.6-1,1.1,1.1,0,0,0-.7-0.4l-0.6.2-0.4.5-0.3.7a6.1,6.1,0,0,0-.2,1v1q-0.1.5-.1,1.1v1q0,0.4,0,1t0,0.7v0.5a33.2,33.2,0,0,0,.4,4.7q0.8,5.2,2.2,5.2a1.1,1.1,0,0,0,.8-1,9.7,9.7,0,0,0,.5-2.4q0.3-2.4.3-3.5t0-1.6,0-1.4-0.1-1.7l-0.2-1.8a12.8,12.8,0,0,0-.3-1.7Z" transform="translate(-0.1)"/><path class="b" d="M93.4,45.3l-0.2,1.8q0,1.3.3,4.8a14.4,14.4,0,0,0,.7,3.9,2,2,0,0,0,1.8.8,2.2,2.2,0,0,0,1.8-.7h0.8v0.3a1.8,1.8,0,0,1-.5,1.3,3.3,3.3,0,0,1-4,.3,3.8,3.8,0,0,1-1.3-1.5,17.6,17.6,0,0,1-.7-4.8q-0.3-3.8-.2-5.9a17.6,17.6,0,0,1,.2-3,4.5,4.5,0,0,1-.1-0.8,3,3,0,0,1,1.2-2.5,4.5,4.5,0,0,1,2.9-.9,2.4,2.4,0,0,1,1.2.3,1,1,0,0,1,.6.9,0.5,0.5,0,0,1-.2.4H97a0.6,0.6,0,0,1-.6-0.3H96a2.3,2.3,0,0,0-2.5,1.7,7.7,7.7,0,0,0-.2,2.2v1.8Z" transform="translate(-0.1)"/><path class="b" d="M107.3,42.9v3.3a16.3,16.3,0,0,0,.4,3.9h0a9.4,9.4,0,0,0-.2,1.9l0.2,4.6q0,1.2-.7,1.2a0.7,0.7,0,0,1-.6-0.4,2,2,0,0,1-.2-0.9l0.2-4.1q0-1.3-.2-4t-0.2-4V42.4a7.4,7.4,0,0,0-.2-2.4h-1.4l-0.6-.2a0.6,0.6,0,0,1-.3-0.5,0.7,0.7,0,0,1,.6-0.5l1.5-.3,2.6-.2,0.6,0.2a0.6,0.6,0,0,1,.3.5,0.6,0.6,0,0,1-.2.5l-0.5.2h-1.2A26.8,26.8,0,0,1,107.3,42.9Z" transform="translate(-0.1)"/><path class="b" d="M115.5,58.2a0.8,0.8,0,0,1-.6-0.3,0.9,0.9,0,0,1,0-1.3,0.9,0.9,0,0,1,.7-0.3,0.9,0.9,0,0,1,.6.3,1,1,0,0,1,.3.7,0.8,0.8,0,0,1-.3.6Z" transform="translate(-0.1)"/><path class="b" d="M126.8,57.7l-3.9.2-0.6-.2a0.7,0.7,0,0,1-.3-0.6h0a5.3,5.3,0,0,0,.9-1.7l0.5-1.4a38.4,38.4,0,0,0,2.2-5.9,22.8,22.8,0,0,0,.7-5.8q0-3.1-1.2-3.2a1.6,1.6,0,0,0-.6,1.2,0.9,0.9,0,0,1-.8.9,0.6,0.6,0,0,1-.6-0.8,2.9,2.9,0,0,1,.7-2,1.2,1.2,0,0,1,.9-0.4h0a2.2,2.2,0,0,1,1.9.8,3.1,3.1,0,0,1,.6,1.1l0.2,0.8c0,0.2.1,0.4,0.1,0.7s0,0.9,0,1.4a25.9,25.9,0,0,1-.6,5,22.6,22.6,0,0,1-1.4,4.7l-0.9,1.8a19.3,19.3,0,0,0-1,2.4l2.9-.3,0.8,0.6Z" transform="translate(-0.1)"/><path class="b" d="M136.2,49.2V46.1a4.2,4.2,0,0,1-2.3-1.4,3.7,3.7,0,0,1-.9-2.5q0-3.3,1.4-4.3a1.8,1.8,0,0,1,1.1-.3,2.1,2.1,0,0,1,1.7.6,3,3,0,0,1,.5,1.8q0,2.5-.2,7.4t-0.2,7.4l-0.2,1.8v0.5q0,1-.7,1l-0.5-.5Q136.2,56.5,136.2,49.2Zm-1.8-9c-0.1.4-.1,0.8-0.2,1.1a10.1,10.1,0,0,0-.1,1.1,1.4,1.4,0,0,0,.2.8,1.9,1.9,0,0,0,.4,1.1l0.4,0.3,0.5,0.2,0.6,0.3q0.1-1.9.1-5.2a1.9,1.9,0,0,0-.2-0.9,0.7,0.7,0,0,0-.6-0.3,0.8,0.8,0,0,0-.7.4A3.2,3.2,0,0,0,134.4,40.2Z" transform="translate(-0.1)"/><path class="b" d="M144.6,58.2a0.8,0.8,0,0,1-.6-0.3,0.9,0.9,0,0,1-.3-0.6,0.9,0.9,0,0,1,.3-0.7,0.9,0.9,0,0,1,.7-0.3,0.9,0.9,0,0,1,.6.3,1,1,0,0,1,.3.7,0.8,0.8,0,0,1-.3.6Z" transform="translate(-0.1)"/><path class="b" d="M155.9,57.7l-3.9.2-0.6-.2a0.7,0.7,0,0,1-.3-0.6h0a5.3,5.3,0,0,0,.9-1.7l0.5-1.4a38.3,38.3,0,0,0,2.2-5.9,22.8,22.8,0,0,0,.7-5.8q0-3.1-1.2-3.2a1.6,1.6,0,0,0-.6,1.2,0.9,0.9,0,0,1-.8.9,0.6,0.6,0,0,1-.6-0.8,2.9,2.9,0,0,1,.7-2,1.2,1.2,0,0,1,.9-0.4h0a2.2,2.2,0,0,1,1.9.8,3.1,3.1,0,0,1,.6,1.1l0.2,0.8c0,0.2.1,0.4,0.1,0.7s0,0.9,0,1.4a26,26,0,0,1-.6,5,22.6,22.6,0,0,1-1.4,4.7l-0.9,1.8a19.2,19.2,0,0,0-1,2.4l2.9-.3,0.8,0.6Z" transform="translate(-0.1)"/><path class="b" d="M162.4,42.4a8.5,8.5,0,0,1,.3-2.9,1.9,1.9,0,0,1,.9-1.1h0.8l0.9,0.3,0.7,0.4,0.4,0.4,0.3,0.4,0.2,0.5,0.2,0.5v1l0.2,1.2,0.2,1.3,0.2,1.5L168,47l0.2,1.5q0.1,1.5.1,2.8,0,6.4-2.8,6.4a1.6,1.6,0,0,1-1.2-.6,4.3,4.3,0,0,1-.8-1.6,19.7,19.7,0,0,1-.5-2.1,19.1,19.1,0,0,1-.3-2.3q-0.2-2-.2-3.4V42.4Zm1.2,3,0.3,2.5q0,2,.2,4.2,0.4,4.4,1.6,4.4a0.9,0.9,0,0,0,.7-0.8,7.6,7.6,0,0,0,.4-1.8,28.6,28.6,0,0,0,.3-3.2,63,63,0,0,0-.9-8.6,4.4,4.4,0,0,0-.7-1.9,1.3,1.3,0,0,0-.9-0.6,0.9,0.9,0,0,0-.8.4,1.8,1.8,0,0,0-.3,1.1v4.3Z" transform="translate(-0.1)"/><path class="b" d="M177.7,56.6h0.9q1.1,0,1.1.6t-2.9.8h-1.5a0.6,0.6,0,0,1-.3-0.6V56.6h0.9q0.6,0,.6-0.4,0-3.9-.4-10V44.7q-0.2-2.1-.2-3.3V40.5q0-1.2-.9-1.2h-0.6q-0.7,0-.7-0.5t2.1-.7a1.2,1.2,0,0,1,1.1.4,1.3,1.3,0,0,0,0,.5q0,0.4,0,.9t0.2,2a24,24,0,0,1,.2,3q0,1.4.3,5.4t0.3,6.1v0.2Z" transform="translate(-0.1)"/><path class="b" d="M189.2,57.3l-0.6.5-0.9.2a1.6,1.6,0,0,1-1-.3,1.8,1.8,0,0,1-.6-0.7,4.2,4.2,0,0,1-.3-1,6.8,6.8,0,0,1-.2-1.1V53.8c0-.4,0-0.7-0.1-0.9a50.3,50.3,0,0,1-.4-6.1q0-8.8,2.7-8.8l0.4,0.2a0.5,0.5,0,0,1,.2.4,0.6,0.6,0,0,1-.3.5l-0.7.3a5.8,5.8,0,0,0-.7,2.7q-0.3,2.2-.3,3.9h0.6a1.4,1.4,0,0,1,.9.4,3.1,3.1,0,0,1,.8,1,7.5,7.5,0,0,1,.5,1.5,15.8,15.8,0,0,1,.3,1.7q0.1,0.8.2,1.7t0.1,2.2,0,1.3a4.4,4.4,0,0,1-.1.8A2,2,0,0,1,189.2,57.3Zm-0.9-6q-0.4-4.3-1.4-4.5a1.1,1.1,0,0,0-.4.6,2.9,2.9,0,0,0-.1.8,58.2,58.2,0,0,0,.6,7v1.1l0.2,0.3a0.8,0.8,0,0,0,.6.3q0.6,0,.6-1.7A38.7,38.7,0,0,0,188.3,51.2Z" transform="translate(-0.1)"/><path class="b" d="M195.2,31h-13a9.1,9.1,0,0,0-2-.2h-10l-2,.2H142.3l-2-.2H123.7l-1.1-.2a6.8,6.8,0,0,0-2.2-.3H73.8c-1,0-1.8,0-1.8,1s0.8,0.2,1.8.3h46.5l1.1,0.2a6.7,6.7,0,0,0,2.2.3h17.9l2,0.2h23.3l2-.2h12.6a8.7,8.7,0,0,0,2,.2h13.3a1.8,1.8,0,0,0,1.4-.6c0.3-.3.5,0,0.5-0.4s-0.8-.2-1.8-0.2h-1.6ZM75.4,65.8h13a9.1,9.1,0,0,0,2,.2h10l2-.2h25.9l2,0.2H147l1.1,0.2a6.8,6.8,0,0,0,2.2.3h46.5c1,0,1.8,0,1.8-1s-0.8-.2-1.8-0.3H150.3l-1.1-.2a6.7,6.7,0,0,0-2.2-.3H129.1l-2-.2H103.8l-2,.2H89.2a8.7,8.7,0,0,0-2-.2H73.9a1.8,1.8,0,0,0-1.4.6c-0.3.3-.5,0-0.5,0.4s0.8,0.2,1.8.2h1.6Zm-3-34.9c-0.1.3-.6,0-1,1.5a2.5,2.5,0,0,0,.1,1.4,5,5,0,0,1,.1,1,9.4,9.4,0,0,0,.1,1.3,7.6,7.6,0,0,1,.1,1c0,0.5,0,.8,0,1.1s0,0.6,0,1.2,0,0.9,0,1.3,0,0.5,0,1.1a6.9,6.9,0,0,1-.1,1,8.3,8.3,0,0,0-.1,1.3c0,0.6,0,.9,0,1.2s0,0.5,0,1.1,0,0.8,0,1.1,0,0.6,0,1.3,0,1,0,1.3a9.1,9.1,0,0,1,0,1.1c0,0.6,0,1,0,1.3a9.4,9.4,0,0,1,0,1.1c0,0.5,0,.8,0,1.1s0,0.6,0,1.3,0,0.9,0,1.2,0,0.5,0,1.1a7,7,0,0,1-.1,1,9.8,9.8,0,0,0-.1,1.3c0,0.6,0,.8,0,1.1s0,0.6,0,1.2,0,0.9,0,1.2,0,0.6,0,1.2,0,0.9.7,0.9,0.2-.2.2-0.9,0-.9,0-1.2,0-.6,0-1.1,0-.8,0-1.1,0-.6,0-1.2a6.5,6.5,0,0,1,.1-1,10.4,10.4,0,0,0,.1-1.3c0-.6,0-0.9,0-1.2s0-.5,0-1.1,0-.8,0-1.1,0-.6,0-1.3,0-.9,0-1.3a9.4,9.4,0,0,1,0-1.1c0-.6,0-1,0-1.3s0-.5,0-1.1,0-.8,0-1.1,0-.6,0-1.3,0-.9,0-1.2,0-.5,0-1.1a6.2,6.2,0,0,1,.1-1,9.3,9.3,0,0,0,.1-1.3c0-.6,0-0.9,0-1.3s0-.5,0-1.1,0-.8,0-1.1,0-.6,0-1.2a8.9,8.9,0,0,0-.1-1.3,6.2,6.2,0,0,1-.1-1,8.5,8.5,0,0,0-.1-1.3c0-.3.1-0.6,0.1-1.1s0.1-.2.2-0.4Zm125.5,1c0.1,0.3.2,0,.2,0.4s0.1,0.8.1,1.1a8.5,8.5,0,0,0-.1,1.3,6.2,6.2,0,0,1-.1,1A8.9,8.9,0,0,0,198,37c0,0.6,0,.9,0,1.2s0,0.6,0,1.1,0,0.8,0,1.1,0,0.6,0,1.3a9.3,9.3,0,0,0,.1,1.3,6.2,6.2,0,0,1,.1,1c0,0.5,0,.8,0,1.1s0,0.6,0,1.2,0,0.9,0,1.3,0,0.5,0,1.1,0,0.8,0,1.1,0,0.6,0,1.3a9.4,9.4,0,0,1,0,1.1c0,0.3-.1.6,0,1.3s0,0.9,0,1.3,0,0.5,0,1.1,0,0.8,0,1.1,0,0.6,0,1.2a10.4,10.4,0,0,0,.1,1.3,6.5,6.5,0,0,1,.1,1c0,0.6,0,.9,0,1.2s0,0.6,0,1.1,0,0.9,0,1.1,0,0.6,0,1.2-0.5.9,0.2,0.9,0.7-.2.7-0.9,0-.9,0-1.2,0-.6,0-1.2,0-.9,0-1.2,0-.6,0-1.1a9.8,9.8,0,0,0-.1-1.3,7,7,0,0,1-.1-1c0-.6,0-0.8,0-1.1s0-.6,0-1.2,0-.9,0-1.3,0-.5,0-1.1a9.4,9.4,0,0,1,0-1.1c0-.3,0-0.6,0-1.3a9.1,9.1,0,0,1,0-1.1c0-.3.1-0.6,0-1.3s0-.9,0-1.3,0-.5,0-1.1,0-.8,0-1.1,0-.6,0-1.2a8.3,8.3,0,0,0-.1-1.3,6.9,6.9,0,0,1-.1-1c0-.5,0-0.8,0-1.1s0-.6,0-1.3,0-.9,0-1.2,0-.6,0-1.1a7.6,7.6,0,0,1,.1-1,9.4,9.4,0,0,0,.1-1.3,5,5,0,0,1,.1-1,2.5,2.5,0,0,0,.1-1.4c-0.4-1.5-.9-1.1-1-1.5Z" transform="translate(-0.1)"/><path class="b" d="M87.8,492.9H87.2l-0.4.2v7.6H88q1.4,0,1.4.7h0a1.1,1.1,0,0,1-.6.5l-0.7.2H86.6a1.3,1.3,0,0,1-1.2-.4,0.9,0.9,0,0,1-.1-0.4V483.5l2.1-.2,0.8,0.2a0.7,0.7,0,0,1,.4.6q0,0.7-1.1.7h-1l0.2,4.1q0,0.5-.1,1.4t-0.1,1.4h1.2l0.5,0.2a0.6,0.6,0,0,1,.2.5,0.8,0.8,0,0,1-.2.5Z" transform="translate(-0.1)"/><path class="b" d="M99.4,483.5q0.5,3.5,1,9t0.5,8.6a0.7,0.7,0,0,1-.8.8,0.7,0.7,0,0,1-.8-0.6v-3.2l-1.2-.4-1.6-.2a5.8,5.8,0,0,0-.5,2.1,5.6,5.6,0,0,1-.5,2.2q-1.2,0-1.3-.5t2.3-10.3l0.8-4.4q0.7-3.2,1.4-3.2l0.7,0.2h0Zm-0.1,13-0.2-2.7q-0.5-5.7-.5-6.3t0-.7a23.3,23.3,0,0,0-.7,3.5L97.3,494l-0.2.8a6.9,6.9,0,0,0-.3,1.6l1.7,0.3h1Z" transform="translate(-0.1)"/><path class="b" d="M106.3,501.7a0.5,0.5,0,0,1,.6-0.7l0.7,0.2,0.8,0.2a1,1,0,0,0,.7-0.4,3,3,0,0,0,.6-1,7,7,0,0,0,.4-2.3,7.6,7.6,0,0,0-.4-2.2,14,14,0,0,0-.9-2.2l-1-2.1a10.2,10.2,0,0,1-1.2-4.5,3.9,3.9,0,0,1,1.2-3,2.2,2.2,0,0,1,1.5-.6l0.9,0.2a1.4,1.4,0,0,1,.6.6v0.5a2.7,2.7,0,0,1-1.4-.2,1.2,1.2,0,0,0-.8.4,2.5,2.5,0,0,0-.6,1.7,7.3,7.3,0,0,0,.3,2,14.1,14.1,0,0,0,.7,1.9l0.8,1.6,0.7,1.2,0.3,0.5v0.2l0.3,1,0.3,1.1a7.4,7.4,0,0,1,.3,2,6.5,6.5,0,0,1-.8,3.2,3.3,3.3,0,0,1-1.1,1.2,2.3,2.3,0,0,1-1.2.4h-1l-0.8-.3A0.6,0.6,0,0,1,106.3,501.7Z" transform="translate(-0.1)"/><path class="b" d="M120.2,487.6v3.2a15.8,15.8,0,0,0,.4,3.8h0a9,9,0,0,0-.2,1.9l0.2,4.4q0,1.2-.7,1.2a0.6,0.6,0,0,1-.6-0.4,1.9,1.9,0,0,1-.2-0.9l0.2-3.9q0-1.3-.2-3.8t-0.2-3.8v-2.2a7.2,7.2,0,0,0-.2-2.3h-1.3l-0.6-.2a0.6,0.6,0,0,1-.2-0.5,0.7,0.7,0,0,1,.6-0.5l1.4-.3,2.5-.2,0.5,0.2a0.6,0.6,0,0,1,.2.5,0.6,0.6,0,0,1-.2.5l-0.5.2H120A25.9,25.9,0,0,1,120.2,487.6Z" transform="translate(-0.1)"/><path class="b" d="M133.2,494.5l-0.2,3.1h0a6.7,6.7,0,0,0-.2,1.5,4.4,4.4,0,0,1-.3,1.5,3.6,3.6,0,0,1-.8,1.3,1.7,1.7,0,0,1-1.2.6,1.9,1.9,0,0,1-1.2-.5,3.6,3.6,0,0,1-.9-1.2,9.6,9.6,0,0,1-.6-1.7,16.2,16.2,0,0,1-.4-1.9q-0.1-.9-0.2-2t-0.1-2.6,0-1.7c0-.8.1-1.5,0.1-2.2s0.1-1.1.1-1.5v-0.9c0-.2,0-0.5.1-0.9a7.7,7.7,0,0,1,.1-0.9l0.3-.8,0.4-.7a1.7,1.7,0,0,1,1.2-.6h1.1l0.7,0.3,0.5,0.6,0.4,0.7,0.3,0.8a14.9,14.9,0,0,1,.3,1.7A55.1,55.1,0,0,1,133.2,494.5Zm-2.2-9a2.6,2.6,0,0,0-.6-1,1,1,0,0,0-.7-0.3l-0.5.2-0.3.5-0.3.7a5.5,5.5,0,0,0-.2.9v1c0,0.3-.1.7-0.1,1.1v1c0,0.3,0,.6,0,0.9s0,0.6,0,.7v0.5a32.2,32.2,0,0,0,.4,4.6q0.7,5.1,2.1,5.1a1.1,1.1,0,0,0,.8-0.9,9.4,9.4,0,0,0,.5-2.3q0.2-2.4.2-3.4t0-1.5,0-1.3c0-.6-0.1-1.1-0.1-1.6l-0.2-1.7a12.3,12.3,0,0,0-.3-1.7Z" transform="translate(-0.1)"/><path class="b" d="M145.6,484.6v16.7a0.9,0.9,0,0,1-.5.9h-0.9l-0.2-.2v-0.6q-0.1-.9-0.9-3.7a75.6,75.6,0,0,1-1.9-8.1V489a0.8,0.8,0,0,0-.1-0.4,4.6,4.6,0,0,0-.2-1.3l-0.2-.9V502h-0.9v-0.5a2.6,2.6,0,0,0,0-.8,13.3,13.3,0,0,1-.1-1.4q0-.8-0.2-3.7t-0.2-3.5V489l0.2-4.5a2,2,0,0,1,.1-1l0.7-.2h0.5a0.7,0.7,0,0,1,.4.6,3.5,3.5,0,0,0,.1.8l0.3,0.9,0.3,0.8v1.2q0.1,0.9.2,1.6t0.5,2l0.7,2.4a19.4,19.4,0,0,1,.9,4.7,2.3,2.3,0,0,1,.2.9V483.4a0.7,0.7,0,0,1,.8-0.6q0.7,0,.7,1h0A1.6,1.6,0,0,0,145.6,484.6Z" transform="translate(-0.1)"/><path class="b" d="M154.5,500.9V501a3.7,3.7,0,0,1-.3,1.3,4.8,4.8,0,0,1-.9,1.4,1.5,1.5,0,0,1-1.1.6h-0.7v-0.9l0.5-.4a2.2,2.2,0,0,0,.9-1.1,1.4,1.4,0,0,1-.7-1.1,1.1,1.1,0,0,1,.4-0.9,1.3,1.3,0,0,1,.8-0.3,0.9,0.9,0,0,1,.7.3,2.2,2.2,0,0,1,.4.8h0Z" transform="translate(-0.1)"/><path class="b" d="M171.1,496.9q1.7-9.5,2-13.2h0a0.8,0.8,0,0,1,.3-0.5l0.5-.2h0.4a0.6,0.6,0,0,1,.3.5q0,2.9.2,8.8T175,501a1.4,1.4,0,0,1-.5,1.2h-0.3q-0.5.1-.6-0.2a2.2,2.2,0,0,1,0-.4v-0.4q0-1.9,0-2.9t0-2.9q0-1.9,0-7.1l-0.6,2.9-0.6,3.1-0.3,1.6-0.2,1.2-0.2,1q-0.3,1.1-.8,1.1t-0.8-2.3-0.8-4.7l-0.9-4.9q0,2.3,0,3.4l0.2,10.3a1.3,1.3,0,0,1-.4.9,0.9,0.9,0,0,1-.8-0.4,2.4,2.4,0,0,1-.2-1.1V486.8q0-1.6,0-3.2l0.7-.4q0.7,0.1,1.5,4.3t1.1,6.2Z" transform="translate(-0.1)"/><path class="b" d="M181,490.1v-2.7a8.7,8.7,0,0,0-.1-1.6l-0.3-1a2.3,2.3,0,0,1-.2-0.7,0.7,0.7,0,0,1,.1-0.4l0.3-.2h1.7a3.3,3.3,0,0,1,2.2,1.1,5.4,5.4,0,0,1,1.7,2.8,12.7,12.7,0,0,1,.2,1.9v1.4a4.2,4.2,0,0,0,.2,1.1v1.1a1.6,1.6,0,0,0-.1.7,11.4,11.4,0,0,1-.9,4.1,8.8,8.8,0,0,1-2.1,3.4l-1.3,1-0.7.2-0.7-.2a0.7,0.7,0,0,1-.4-0.6q0.5-.6.5-2.9t-0.2-4.1Q181,491.5,181,490.1Zm1.6,8.1v2.4q1.9-1.4,2.7-5a19.3,19.3,0,0,0,.4-3.9q0-6.9-3.4-6.9h0q0,2.3.2,6.8T182.6,498.2Z" transform="translate(-0.1)"/><path class="b" d="M145.5,276.5l-1.3.2a26.3,26.3,0,0,1-6,.8c-1.1,0-7.1.4-8.1,0.9a4.4,4.4,0,0,0-2.5,3l-0.2,1.1a0.7,0.7,0,0,1-.7.2,1.3,1.3,0,0,1-.5-0.8c-0.4-.8-0.7-1.7-1.2-2.6l-0.4-.8c-0.8-1.3.1-1.3-1.6-1.1l-2.4.4-1.8.5-5.6,1.4a18.5,18.5,0,0,1-6.8.6,6.2,6.2,0,0,1-4.6-2.5,18,18,0,0,1-3.3-6.9,14,14,0,0,0-.5-2.1,15.9,15.9,0,0,0-.7-2.2,2.4,2.4,0,0,0-.9-0.9,1.8,1.8,0,0,0-1.7-.4l-1.8.4-0.4-.2a1,1,0,0,1,.3-0.4,4.8,4.8,0,0,0,2.3-1.2,3.2,3.2,0,0,0,1-2.1c0.1-2.1.4-4.1,0.4-6.1a15.3,15.3,0,0,0-.1-2.3,4.3,4.3,0,0,1,1-3.1,9,9,0,0,1,4.3-2.7,13.1,13.1,0,0,1,3.8-.3c2.2,0.2,4.3.2,6.5,0.3a38.9,38.9,0,0,0,9.8-1.2,22.7,22.7,0,0,0,3.1-1.1,3.1,3.1,0,0,0,2.1-3V241a0.9,0.9,0,0,1,1-.5,4,4,0,0,1,.7.7,2.7,2.7,0,0,1,.2.9,4.7,4.7,0,0,0,2.3,2.7,8.6,8.6,0,0,0,3.8,1,25.8,25.8,0,0,0,8.4-.8l6.1-1.7a21.1,21.1,0,0,1,5.8-1,10.7,10.7,0,0,1,3.5.5,3.2,3.2,0,0,1,2.1,1.9,6,6,0,0,1,.5,2.7c-0.1,2,0,3.8-.2,5.8a4,4,0,0,0,1.8,3.4l0.7,0.3a0.6,0.6,0,0,1,.5.5,0.6,0.6,0,0,1-.6.4l-1.8.2a1,1,0,0,0-.9.9,24.4,24.4,0,0,0-.1,2.8,3.8,3.8,0,0,0,.1,1.1,14.2,14.2,0,0,1-1.3,8.3,6.8,6.8,0,0,1-4.1,3.6,9.6,9.6,0,0,1-2.8.9l-2.4.5A13.3,13.3,0,0,1,145.5,276.5ZM97,263.4a1.8,1.8,0,0,0-.1.4H97a1.3,1.3,0,0,0,.2-0.4H97Zm2.1-12.7c-0.2.2-.1,0.3,0.1,0.3h0.2v-0.2H99.1Zm3.4,4.2V255h0.1Zm2.9,1v0h-0.2Zm-0.6-7.7a0.4,0.4,0,0,0-.2.2v0.2a6.1,6.1,0,0,0,2.6.5,1.2,1.2,0,0,0,.6-0.4,0.4,0.4,0,0,0-.3-0.5,8.2,8.2,0,0,0-2.3-.2Zm3.6,15.3h0Zm11.8-15.1h-0.2a0.8,0.8,0,0,0-1.1-.7,0.3,0.3,0,0,0-.1.2c-0.1,0,0,.1,0,0.2l1.2,0.2h0.1Zm19.6,23.3h0Zm8,3.3h-3.5a0.5,0.5,0,0,0-.3.3l0.4,0.2h3.6a1.2,1.2,0,0,0,1-.3A1.2,1.2,0,0,0,147.6,275Zm-0.6-5.3a0.2,0.2,0,0,0,.2.4,0.3,0.3,0,0,0,.4-0.2l-0.5-.2H147Zm8.8,3.4c-0.3-.1-0.8.3-0.7,0.5v0.2a0.5,0.5,0,0,0,.6-0.3,0.3,0.3,0,0,0,.1-0.2v-0.2Zm1.5-5.4H157c-0.2.1-.1,0.2,0,0.3h0.2v-0.2Z" transform="translate(-0.1)"/><g class="c"><path class="d" d="M121.1,267l0.2,1.6-3.8.5-0.2-1.6h1l-0.9-1.6-5.3.6-0.5,1.7h1l0.2,1.6-3.8.5-0.2-1.6h1l2.9-9.7h-1.2l-0.2-1.6,4.9-.6,0.2,1.6H115l5.1,8.8h1Zm-4.7-2.8-2.4-4.1-1.4,4.5Z" transform="translate(-0.1)"/><path class="d" d="M133.9,256.2l1.1,9h1.2l0.2,1.8-3.3.4-6.6-8.8,0.9,7.8h1.1l0.2,1.7-4.1.5-0.2-1.7h1.2l-1.1-9h-1.2l-0.2-1.8,3.4-.4,6.5,8.9-0.9-7.8H131l-0.2-1.8,4.1-.5,0.2,1.8h-1.2Z" transform="translate(-0.1)"/><path class="d" d="M149.9,258.9a6.3,6.3,0,0,1-5.4,7l-4.7.6-0.2-1.8,1.3-.2-1.1-9-1.3.2-0.2-1.8,4.7-.6A6.3,6.3,0,0,1,149.9,258.9Zm-1.8.2a4.5,4.5,0,0,0-5-4l-1.5.2,1.1,9,1.5-.2A4.5,4.5,0,0,0,148.1,259.1Z" transform="translate(-0.1)"/></g></g></svg>