<svg xmlns="http://www.w3.org/2000/svg" width="96.18" height="42.3" viewBox="0 0 96.18 42.3"><defs><style>.a{fill:#683333;}</style></defs><title>heading-registry</title><path class="a" d="M43.76,11a8.85,8.85,0,0,1,2.46,5.64c0.18,0,.36,1,0.54,3H46.7l0.18,0.48a0.87,0.87,0,0,0-.12.42,0.13,0.13,0,0,1,.12.12l-0.18.12a6.28,6.28,0,0,1,.18,1.2,0.13,0.13,0,0,1-.12.12l0.12,0.54a4.08,4.08,0,0,1-.18,1.92c0,0.06,0,.06.06,0.06a5.86,5.86,0,0,1-.42,1.68,2.33,2.33,0,0,1,.12.36,9.62,9.62,0,0,0-1.14,2.76A6.91,6.91,0,0,0,44,31.23a5.78,5.78,0,0,1-2.22,1.32v0.12a34.67,34.67,0,0,1,1.68,4.08q0.36,0,2.34,6.12a65.33,65.33,0,0,1,2.64,6,0.13,0.13,0,0,0-.12.12,3.73,3.73,0,0,1,.78,1.44,0.62,0.62,0,0,1-.3.42,1.11,1.11,0,0,1-.66-0.66l-3.36-8A88.05,88.05,0,0,0,41,32.85L39.92,33a0.55,0.55,0,0,1-.12.48l0.12,0.18-0.12.24a2.93,2.93,0,0,1,.12.3,2.33,2.33,0,0,1-.12.36L39.92,35c-0.06.78-.12,1.32-0.12,1.68,0,0.18.06,0.24,0.12,0.24l-0.12.54v2.46a0.87,0.87,0,0,1-.12.42,1.13,1.13,0,0,1,.12.48v0.78c0,0.06-.06.06-0.12,0.06a1.43,1.43,0,0,1,.24.72v2.94L40,46.41H39.92a1.56,1.56,0,0,1,.18.66v0.24L40,47.49c0.18,0,.3,1,0.3,2.94l-0.42.3c0-.18-0.18-0.24-0.48-0.24V50.31a7.65,7.65,0,0,0-.12-1,0.13,0.13,0,0,1,.12-0.12,36.44,36.44,0,0,1-.18-3.66l0.06-.24a5.57,5.57,0,0,1-.18-1.74V39.87A1.42,1.42,0,0,0,39,39.39c0-.06.06-0.06,0.12-0.06A2.4,2.4,0,0,0,39,39c0.06-1,.12-1.74.12-2.34V36.09A0.13,0.13,0,0,1,39.26,36l-0.12-.24V35.07A0.13,0.13,0,0,1,39.26,35,1.26,1.26,0,0,1,39,34.29c0.06-.78.12-1.32,0.12-1.74a0.2,0.2,0,0,1-.24-0.24,3.1,3.1,0,0,0,.36-1.8c0-.06-0.06-0.24-0.12-0.66l0.18-.12c0-.06,0-0.06-0.06-0.06l0.06-1.14V27.45a0.13,0.13,0,0,1,.12-0.12l-0.12-.24,0.12-1.8c0-.06-0.06-0.06-0.12-0.06l0.12-.6V22.41a0.87,0.87,0,0,1,.24-0.78l-0.12-.18V20a0.13,0.13,0,0,1,.12-0.12l-0.12-.24V19a0.13,0.13,0,0,1,.12-0.12l-0.12-.24,0.12-.72-0.12-.6a0.13,0.13,0,0,1,.12-0.12,7.44,7.44,0,0,0-.24-1.5l0.12-.24-0.12-.54h0.12l-0.12-.24V14.55a0.87,0.87,0,0,1,.12-0.42,2.36,2.36,0,0,1-.12-0.36l0.12-.24-0.12-.18,0.12-.66a1.13,1.13,0,0,0-.12-0.48,0.48,0.48,0,0,1,.24-0.42l-0.24-1.14a0.94,0.94,0,0,1,.9-1.08A5.7,5.7,0,0,1,43.76,11Zm-3.42,0v2.46a0.86,0.86,0,0,0,.12.42,0.87,0.87,0,0,0-.12.42v0.36a0.86,0.86,0,0,0,.12.42l-0.12.24,0.12,0.54-0.12.24,0.12,0.66a0.13,0.13,0,0,1-.12.12l0.12,0.24v0.54a0.13,0.13,0,0,1-.12.12l0.24,1a2.18,2.18,0,0,1-.24,1.14,1,1,0,0,1,.12.3l-0.12.24,0.12,0.24-0.12.42a0.13,0.13,0,0,0,.12.12,2.59,2.59,0,0,1-.24,1.2l0.12,0.24a0.13,0.13,0,0,1-.12.12L40.34,23v0.18a0.13,0.13,0,0,1-.12.12l0.12,0.24a0.13,0.13,0,0,1-.12.12,0.13,0.13,0,0,0,.12.12L40.1,26.85l0.12,0.24a0.45,0.45,0,0,1-.18.36,0.41,0.41,0,0,0,.18.3,11.93,11.93,0,0,1-.3,2.58,0.13,0.13,0,0,0,.12.12l-0.12,1.08V32a1,1,0,0,1,.3.12,6.2,6.2,0,0,0,3.9-2.52,12.68,12.68,0,0,0,1.8-5.46H46l-0.06-.24L46,23.67c0-.06,0-0.12-0.06-0.12L46,22.77v-0.9a0.13,0.13,0,0,1,.12-0.12L46,21.57c0-4.68-.9-8-2.76-10.14a4.8,4.8,0,0,0-2.76-1Z" transform="translate(-38.9 -9.15)"/><path class="a" d="M55.1,9.51h0.54c0.24,0,.36-0.06.36-0.12l0.54,0.12h2.58a2.39,2.39,0,0,1,1.08.42v0.24l-0.12.24a4.87,4.87,0,0,1-1.74-.24c-0.24.06-.42,0.12-0.48,0.12H57.2a1.51,1.51,0,0,1-.42-0.12c-0.24.06-.42,0.12-0.48,0.12H56.18c-0.06,0-.06-0.06-0.06-0.12l-0.24.12h-1c0,0.3-.06.42-0.12,0.42a0.13,0.13,0,0,0,.12.12,1.94,1.94,0,0,0-.12.36l0.12,0.54c-0.3,2.16-.42,3.36-0.42,3.66l0.12,0.24-0.12.78c0.06,1.26.12,2,.12,2.22a0.13,0.13,0,0,1-.12.12l0.12,0.54v2c0,0.06.06,0.24,0.12,0.48a1.52,1.52,0,0,0-.12.42v1.44l-0.12.66a1.76,1.76,0,0,1,.12.54v0.24a1.52,1.52,0,0,1-.12.42l0.12,0.24a2,2,0,0,1-.24.9,1.53,1.53,0,0,1,.12.42c-0.06.54-.12,0.84-0.12,0.9l0.12,0.24-0.12.66v0.9a0.13,0.13,0,0,1-.12.12l0.24,0.42,0.24-.12H58.4a0.51,0.51,0,0,1,.36.36c0,0.3-1.32.48-3.9,0.54a1.84,1.84,0,0,0-.66-0.12v0.12a7.64,7.64,0,0,1,.12,1v0.42c0,0.66-.06,1.38-0.12,2.34a2.79,2.79,0,0,1,.12.3H54.2l0.12,0.24a1.75,1.75,0,0,1-.12.54c0.06,1.56.18,3.06,0.36,4.44H54.44L54.68,41l-0.12.66c0.06,0.66.12,1.32,0.12,2H54.56a3.37,3.37,0,0,1,.18,1.2v0.66c0,0.06,0,.12-0.06.12l0.06,0.24v0.12c0,0.06,0,.12-0.06.12l0.06,0.18c0,0.06,0,.12-0.06.12s0,0.12.06,0.12L54.68,47v0.36l0.18,0.3a1.41,1.41,0,0,1-.12.48L55,50h3l0.66-.12a0.64,0.64,0,0,1,.48.24L59.3,50h0.78a0.51,0.51,0,0,1,.36.36v0.3c-0.24,0-.36.06-0.36,0.24l-0.24-.12H59.66c-0.24,0-.36.06-0.36,0.12a2.6,2.6,0,0,1-1.2-.24l-0.24.12H57.32a1.54,1.54,0,0,1-.42-0.12,7.74,7.74,0,0,1-1.68.24,2,2,0,0,1-.36-0.12c0,0.18-.06.24-0.18,0.24-0.3,0-.54-0.54-0.72-1.56a0.13,0.13,0,0,1,.12-0.12L54,48.81V48.27a11.67,11.67,0,0,0-.06-1.68A18,18,0,0,0,54,44.73V43.17a0.91,0.91,0,0,0-.06-0.48c0-.06,0-0.12.06-0.12l-0.06-.78V41.25c-0.18-2.4-.24-3.72-0.24-3.9v-1.2a1.52,1.52,0,0,0-.12-0.42c0.06-.24.12-0.42,0.12-0.48V35.07l-0.12-.6h0.12a2.82,2.82,0,0,1-.12-0.3l0.12-.24a2.82,2.82,0,0,1-.12-0.3h0.12a0.13,0.13,0,0,0-.12-0.12l0.12-1.14V31.71l-0.12-.54h0.12l-0.12-.24V30.69c0-.06.06-0.06,0.12-0.06a0.13,0.13,0,0,0-.12-0.12l0.12-.6v-2.1l0.12-.66a2.91,2.91,0,0,1-.12-0.3h0.12a0.13,0.13,0,0,0-.12-0.12,12.42,12.42,0,0,0,.24-3V22.29c0-.06,0-0.12.06-0.12l-0.06-.24a31.08,31.08,0,0,0-.24-4,0.13,0.13,0,0,1,.12-0.12l-0.12-.54a35.36,35.36,0,0,1,.42-5.7A0.13,0.13,0,0,0,54,11.49c0.12-1.5.3-2.22,0.6-2.22h0.18Z" transform="translate(-38.9 -9.15)"/><path class="a" d="M71.54,9.51V9.69q0,0.27-.9.36V9.93c-2.34.42-3.54,1-3.54,1.92a23.74,23.74,0,0,0-.78,2.94L66.44,15a1,1,0,0,1-.24.66,0.13,0.13,0,0,0,.12.12c-0.36,2.46-.6,6.12-0.78,11.1H65.42a8.79,8.79,0,0,1,.24,1.56H65.54l0.12,0.24v2.34l-0.12.66q0.54,4.68.54,4.86L66,36.81l0.48,3.12-0.12.18c0,0.06.12,1,.3,2.88H66.5L67,45.45a0.13,0.13,0,0,1-.12.12l0.36,1.86H67.1A3.63,3.63,0,0,0,68.54,50l0.9,0.54,0.18-.12,0.24,0.12C71.24,49.77,72,48.93,72,48c0.24-.18.48-1.2,0.66-3.12l-0.12-.54c0-.54.06-0.78,0.24-0.78L72.62,43V42.33c0.06-.36.12-0.54,0.24-0.54l-0.12-.24v-2l0.12-.78a2.56,2.56,0,0,1-1.14-.3l-0.18.06H71.42c-0.06,0-.12,0-0.12-0.06l-0.24.06-0.18-.06-0.6.06V38.49l-0.18.06H70a0.71,0.71,0,0,1-.48-0.42V37.89a0.77,0.77,0,0,1,.72-0.3,11.31,11.31,0,0,0,1.2.12H72.2l0.3,0.18,0.12-.18,0.24,0.06,0.54-.06a1.2,1.2,0,0,1,.36.66,6.83,6.83,0,0,0-.36,1.74,2,2,0,0,0,.24,1L73.4,42.69l0.24,0.12c-0.42,4.74-1.2,7.38-2.22,7.86a3.89,3.89,0,0,1-1.68.78c-1,0-2-.78-3-2.34A0.13,0.13,0,0,1,66.86,49a30.88,30.88,0,0,1-1.08-5.76v-0.3c0-.06,0-0.12.06-0.12a13.53,13.53,0,0,1-.3-2.82h0.12l-0.24-.54a0.13,0.13,0,0,1,.12-0.12,9.11,9.11,0,0,1-.24-1.86h0.12l-0.12-.24a0.13,0.13,0,0,1,.12-0.12,18.39,18.39,0,0,1-.54-3.42V31.35l-0.12-1.08h0.12L64.76,30V29.79c0-.72-0.06-1.8-0.12-3.3h0.12l-0.12-.24V25.59a0.13,0.13,0,0,1,.12-0.12,1,1,0,0,1-.12-0.3l0.12-.24a0.13,0.13,0,0,0-.12-0.12A6.14,6.14,0,0,1,65,23.13,0.13,0.13,0,0,0,64.88,23L65,21.93V21c0-.06,0-0.12.06-0.12s0-.12-0.06-0.12a56.69,56.69,0,0,1,1.2-9.18A3.18,3.18,0,0,1,68,9.69a10.27,10.27,0,0,1,3.3-.54Z" transform="translate(-38.9 -9.15)"/><path class="a" d="M79,10.29L79,11.61v0.66a47,47,0,0,1-.36,6.3,12.64,12.64,0,0,1,.12,1.56v0.12a0.13,0.13,0,0,1-.12.12l0.12,0.24v3.66l0.12,0.66a0.13,0.13,0,0,1-.12.12l0.12,0.78V27a0.13,0.13,0,0,1-.12.12l0.12,0.24v0.72a0.13,0.13,0,0,1-.12.12l0.12,0.24v1.2L79,30.45H78.86L79,30.69a0.13,0.13,0,0,1-.12.12L79,31.05v0.66a8.2,8.2,0,0,1-.12,1,0.13,0.13,0,0,0,.12.12l-0.12.54a1.78,1.78,0,0,0,.12.6,11.42,11.42,0,0,0-.12,1.2v1.68a1.54,1.54,0,0,0,.12.42,1.41,1.41,0,0,0-.12.48V39a1.52,1.52,0,0,0,.12.42l-0.12.24c0.06,0.42.12,0.6,0.12,0.66l-0.12.42a1.78,1.78,0,0,1,.12.6H78.86L79,41.55v0.12l-0.24.78a0.25,0.25,0,0,1,.24.24v1.2a0.13,0.13,0,0,1-.12.12L79,44.25v0.12c0,0.06-.06.06-0.12,0.06L79,45.81,79,46a11.56,11.56,0,0,0,.18,2,2.77,2.77,0,0,0-.12.3c0.06,1.38.12,2.1,0.12,2.34L79,50.91c0.06,0.06-.18.06-0.66-0.12V49.23a11.46,11.46,0,0,0-.12-1.2,0.13,0.13,0,0,1,.12-0.12c-0.12-1.26-.18-2.52-0.18-3.9l0.06-.66a7.25,7.25,0,0,1-.06-1.14V41.13l-0.12-.54H78.2l-0.12-.24V40.23a0.28,0.28,0,0,1,.12-0.3l-0.12-.6V34.71a1.41,1.41,0,0,1,.12-0.48,2.79,2.79,0,0,1-.12-0.3H78.2l-0.12-.24V33.57a0.13,0.13,0,0,1,.12-0.12l-0.12-.18c0.06-.66.12-1.14,0.12-1.44a1.92,1.92,0,0,1-.12-0.36l0.12-.24C78,28.65,78,27.21,78,26.79a1,1,0,0,1,.24-0.66A9.31,9.31,0,0,1,77.84,23a8.2,8.2,0,0,0,.12-1V16.47a0.13,0.13,0,0,1,.12-0.12c0-.06-0.06-0.06-0.12-0.06l0.12-.6A0.13,0.13,0,0,0,78,15.57L78.08,15v-1A0.13,0.13,0,0,1,78.2,14q-0.09-4,.36-4c0.3-.42.48-0.36,0.42,0.18C79,10.23,79,10.29,79,10.29Z" transform="translate(-38.9 -9.15)"/><path class="a" d="M87.8,10.17a5.1,5.1,0,0,1,2.76,2l0.6,1.2c-0.06.9-.18,1.38-0.36,1.38s-0.6-.66-0.78-1.92a3.33,3.33,0,0,0-2.64-1.74c0-.06-0.06-0.12-0.24-0.12-1.14.18-1.68,1-1.68,2.64v1.2a1.13,1.13,0,0,1-.12.48,4.23,4.23,0,0,1,.24,1.44H85.46a3.49,3.49,0,0,1,.24,1H85.58a26.76,26.76,0,0,1,.66,3.42,9.71,9.71,0,0,1,.6,2.52H86.72a41.22,41.22,0,0,1,1.08,4.26l1.26,4.62H88.94c0.3,0.9.78,3.18,1.56,6.9H90.38a15.78,15.78,0,0,1,.78,3.66H91a21.24,21.24,0,0,1,.42,3c0,2.52-.72,4.14-2.1,4.92a3.51,3.51,0,0,1-1.56.42,4.73,4.73,0,0,1-3.18-1.8,12.24,12.24,0,0,1-1.14-4.2H83.6l-0.12-.24v-0.3q0-1.53.54-1.8a0.51,0.51,0,0,1,.36.36v0.18c0,0.54-.06.78-0.24,0.78l0.36,2-0.12.18a5.89,5.89,0,0,0,2,3.48,3.79,3.79,0,0,0,1.32.42l0.6-.12v0.12c0.6,0,1.32-.72,2.1-2.22a10.05,10.05,0,0,0,.18-1.68V46.59A25.24,25.24,0,0,0,90,42l0.12-.24c-1.5-7-2.76-12.36-3.78-16.08a83.85,83.85,0,0,1-1.74-9.36l0.06-1.08-0.06-1.56c0-2.34.9-3.54,2.64-3.54H87.8Z" transform="translate(-38.9 -9.15)"/><path class="a" d="M95.3,9.45L96,9.57l0.18-.12a2.79,2.79,0,0,1,1.14.18c0.06,0,.12,0,0.12-0.06a3.34,3.34,0,0,1,1.32.3L99,9.75h0.12a0.13,0.13,0,0,1,.12.12l0.24-.12h0.3a0.13,0.13,0,0,1,.12.12,1.46,1.46,0,0,1,.66-0.24,2.34,2.34,0,0,0,.36.12l0.24-.12,0.54,0.12c0.06,0,.18-0.06.42-0.12a0.13,0.13,0,0,1,.12.12l0.54-.12h0.9a1.43,1.43,0,0,1,.48.12,0.79,0.79,0,0,1,.84,0l0.24-.12a1.29,1.29,0,0,1,1,.6,1.05,1.05,0,0,1-1,.54,0.2,0.2,0,0,0-.24-0.24,0.28,0.28,0,0,0-.3.12l-0.54-.12h-2.46l-0.54.12a0.13,0.13,0,0,0-.12-0.12,8,8,0,0,0-.24,2.58V14a2,2,0,0,1,.36,1.32H101a1.37,1.37,0,0,0,.18.78l-0.06.54a9.39,9.39,0,0,0,.06,1.2l-0.06.24,0.06,0.66v0.66c0,0.06,0,.12-0.06.12a6.81,6.81,0,0,1,.3,2.22,2.42,2.42,0,0,0-.12.36,0.86,0.86,0,0,1,.12.42H101.3l0.12,0.24v0.12c0,0.06-.06.06-0.12,0.06l0.12,0.24a0.13,0.13,0,0,1-.12.12l0.12,0.24a0.13,0.13,0,0,1-.12.12l0.12,0.18a0.13,0.13,0,0,1-.12.12l0.12,0.24a0.13,0.13,0,0,1-.12.12c0,0.06.06,0.06,0.12,0.06l-0.12.78v0.12l0.12,1.14H101.3l0.12,0.18c-0.18,2-.3,3.48-0.3,4.26v0.78L101.18,33h-0.06c0,0.06,0,.12.06,0.12-0.06.66-.06,1-0.06,1.08,0.06,4.38.06,7.08,0.06,8.22l0.12,0.24-0.12.24a1,1,0,0,0,.12.3l-0.12.54c0.06,0.42.12,0.72,0.12,0.9h-0.12l0.12,0.24a0.13,0.13,0,0,1-.12.12,0.13,0.13,0,0,0,.12.12l-0.18,4.44a6.67,6.67,0,0,1,.06,1.32,0.49,0.49,0,0,1-.66-0.54c0-.18,0-0.24-0.06-0.24l0.06-.78V47.85l-0.06-.78h0.06l-0.06-.24v-0.9c0-.06,0-0.06.06-0.06s0-.12-0.06-0.12l0.06-.6c0-.18,0-0.3-0.06-0.3l0.06-.54V42.87a9.31,9.31,0,0,0-.18-2.34l0.12-.24-0.12-.66V39.51a0.13,0.13,0,0,1,.12-0.12l-0.12-.18v-2.7l0.12-.66a1.46,1.46,0,0,1-.24-0.78h0.12a0.13,0.13,0,0,0-.12-0.12c0.06-3.9.18-7.08,0.3-9.66V23.85a0.13,0.13,0,0,1,.12-0.12l-0.12-.18v-2.1l-0.06-.6h0.06l-0.06-.18v-0.6a0.9,0.9,0,0,1,.06-0.42c0-.06,0-0.12-0.06-0.12a0.66,0.66,0,0,1,.06-0.3c0-.18-0.06-0.72-0.18-1.56h0.12l-0.24-.9,0.12-.54c-0.18-1.8-.3-3.72-0.36-5.7-0.12,0-.54.06-1.32,0.12a11.5,11.5,0,0,1-2.46-.3L96,10.41c-0.78-.12-1.14-0.24-1.14-0.42V9.75a0.62,0.62,0,0,1,.36-0.3H95.3Z" transform="translate(-38.9 -9.15)"/><path class="a" d="M115.4,11a8.85,8.85,0,0,1,2.46,5.64c0.18,0,.36,1,0.54,3h-0.06l0.18,0.48a0.87,0.87,0,0,0-.12.42,0.13,0.13,0,0,1,.12.12l-0.18.12a6.32,6.32,0,0,1,.18,1.2,0.13,0.13,0,0,1-.12.12l0.12,0.54a4.08,4.08,0,0,1-.18,1.92c0,0.06,0,.06.06,0.06a5.87,5.87,0,0,1-.42,1.68,2.27,2.27,0,0,1,.12.36A9.62,9.62,0,0,0,117,29.43a6.91,6.91,0,0,0-1.32,1.8,5.78,5.78,0,0,1-2.22,1.32v0.12a34.67,34.67,0,0,1,1.68,4.08q0.36,0,2.34,6.12a65.34,65.34,0,0,1,2.64,6A0.13,0.13,0,0,0,120,49a3.74,3.74,0,0,1,.78,1.44,0.62,0.62,0,0,1-.3.42,1.11,1.11,0,0,1-.66-0.66l-3.36-8a87.94,87.94,0,0,0-3.78-9.36l-1.08.12a0.55,0.55,0,0,1-.12.48l0.12,0.18-0.12.24a2.94,2.94,0,0,1,.12.3,2.34,2.34,0,0,1-.12.36L111.56,35c-0.06.78-.12,1.32-0.12,1.68,0,0.18.06,0.24,0.12,0.24l-0.12.54v2.46a0.87,0.87,0,0,1-.12.42,1.14,1.14,0,0,1,.12.48v0.78c0,0.06-.06.06-0.12,0.06a1.43,1.43,0,0,1,.24.72v2.94l0.12,1.14h-0.12a1.56,1.56,0,0,1,.18.66v0.24l-0.06.18c0.18,0,.3,1,0.3,2.94l-0.42.3c0-.18-0.18-0.24-0.48-0.24V50.31a7.57,7.57,0,0,0-.12-1,0.13,0.13,0,0,1,.12-0.12,36.44,36.44,0,0,1-.18-3.66l0.06-.24a5.57,5.57,0,0,1-.18-1.74V39.87a1.43,1.43,0,0,0-.12-0.48c0-.06.06-0.06,0.12-0.06a2.46,2.46,0,0,0-.12-0.36c0.06-1,.12-1.74.12-2.34V36.09A0.13,0.13,0,0,1,110.9,36l-0.12-.24V35.07A0.13,0.13,0,0,1,110.9,35a1.26,1.26,0,0,1-.24-0.66c0.06-.78.12-1.32,0.12-1.74a0.2,0.2,0,0,1-.24-0.24,3.1,3.1,0,0,0,.36-1.8c0-.06-0.06-0.24-0.12-0.66l0.18-.12c0-.06,0-0.06-0.06-0.06L111,28.53V27.45a0.13,0.13,0,0,1,.12-0.12L111,27.09l0.12-1.8c0-.06-0.06-0.06-0.12-0.06l0.12-.6V22.41a0.87,0.87,0,0,1,.24-0.78l-0.12-.18V20a0.13,0.13,0,0,1,.12-0.12l-0.12-.24V19a0.13,0.13,0,0,1,.12-0.12l-0.12-.24,0.12-.72-0.12-.6a0.13,0.13,0,0,1,.12-0.12,7.5,7.5,0,0,0-.24-1.5l0.12-.24-0.12-.54h0.12l-0.12-.24V14.55a0.86,0.86,0,0,1,.12-0.42,2.31,2.31,0,0,1-.12-0.36l0.12-.24-0.12-.18,0.12-.66a1.14,1.14,0,0,0-.12-0.48,0.47,0.47,0,0,1,.24-0.42l-0.24-1.14a0.94,0.94,0,0,1,.9-1.08Q114.59,10,115.4,11ZM112,11v2.46a0.87,0.87,0,0,0,.12.42,0.87,0.87,0,0,0-.12.42v0.36a0.87,0.87,0,0,0,.12.42l-0.12.24,0.12,0.54-0.12.24,0.12,0.66a0.13,0.13,0,0,1-.12.12l0.12,0.24v0.54a0.13,0.13,0,0,1-.12.12l0.24,1a2.17,2.17,0,0,1-.24,1.14,1,1,0,0,1,.12.3l-0.12.24,0.12,0.24-0.12.42a0.13,0.13,0,0,0,.12.12,2.6,2.6,0,0,1-.24,1.2L112,22.65a0.13,0.13,0,0,1-.12.12L112,23v0.18a0.13,0.13,0,0,1-.12.12L112,23.55a0.13,0.13,0,0,1-.12.12,0.13,0.13,0,0,0,.12.12l-0.24,3.06,0.12,0.24a0.45,0.45,0,0,1-.18.36,0.41,0.41,0,0,0,.18.3,11.87,11.87,0,0,1-.3,2.58,0.13,0.13,0,0,0,.12.12l-0.12,1.08V32a1,1,0,0,1,.3.12,6.2,6.2,0,0,0,3.9-2.52,12.68,12.68,0,0,0,1.8-5.46h0.06l-0.06-.24,0.06-.18c0-.06,0-0.12-0.06-0.12l0.06-.78v-0.9a0.13,0.13,0,0,1,.12-0.12l-0.12-.18c0-4.68-.9-8-2.76-10.14a4.81,4.81,0,0,0-2.76-1Z" transform="translate(-38.9 -9.15)"/><path class="a" d="M125.54,10c0.18,0,.54,1.08,1,3.24,0.24,0.24.9,2.46,2,6.66a33.13,33.13,0,0,1,1.86,6h0.12a114.05,114.05,0,0,1,3.42-13.68,1.66,1.66,0,0,1,.36-0.78,0.13,0.13,0,0,0-.12-0.12,2.2,2.2,0,0,1,.42-1.2h0.24a0.25,0.25,0,0,1,.24.24v0.9a74.88,74.88,0,0,0-3.78,14.52q-0.27,0-.54,4.32l0.06,0.24-0.06.18a1.33,1.33,0,0,1,.06.48l-0.18.12a6.32,6.32,0,0,1,.18,1.2h-0.06l0.06,0.24c0,0.12,0,.18-0.06.18l0.06,0.78V36a9.39,9.39,0,0,1-.06,1.2l0.06,0.24-0.06.24,0.06,0.54-0.06.24,0.06,0.18-0.06.24c0,0.06,0,.12.06,0.12l-0.06.54V40l0.06,0.78h-0.06L130.82,41l-0.06.66c0,0.06,0,.12.06,0.12l-0.06.6v1.08a0.13,0.13,0,0,1-.12.12,0.13,0.13,0,0,0,.12.12l-0.12.54v1.68a8.34,8.34,0,0,1-.12,1,0.13,0.13,0,0,0,.12.12l-0.12.54c0.06,1,.12,1.5.12,1.56h-0.12l0.24,1.44a2.34,2.34,0,0,0-.12.36H130.4a1.11,1.11,0,0,1-.66-0.24,1.61,1.61,0,0,1,.24-1l-0.12-.24V49a8.12,8.12,0,0,0-.12-1.14,4.72,4.72,0,0,0,.12-1c0-.06-0.06-0.06-0.12-0.06A20,20,0,0,0,130,43l-0.12-.24a9.34,9.34,0,0,0,.18-1.92L130,39.75H130c0-.06,0-0.12-0.06-0.12a5.74,5.74,0,0,1,.18-1.32,0.87,0.87,0,0,1-.12-0.42h0.12L130,37.65V36.39a4,4,0,0,0-.06-0.84l0.18-1.92a4.66,4.66,0,0,1-.12-0.9h0.12c0-.06-0.06-0.06-0.12-0.06-0.06-1.74-.06-3.06-0.06-3.9V27.51c0-.06,0-0.06.06-0.06-1.14-4.14-2.34-8.1-3.54-11.88a11,11,0,0,0-.66-2.1,16.39,16.39,0,0,1-.66-3.36l0.24-.12h0.12Z" transform="translate(-38.9 -9.15)"/></svg>