<svg xmlns="http://www.w3.org/2000/svg" width="214.79" height="42.3" viewBox="0 0 214.79 42.3"><defs><style>.a{fill:#683333;}</style></defs><title>heading-hitched</title><path class="a" d="M408.11,364.08a13.21,13.21,0,0,0,.36,2.46v1a1.42,1.42,0,0,0,.12.48l-0.12.18a2.36,2.36,0,0,1,.12.36c0,0.18-.06.24-0.12,0.24,0.48,4.74,1,8.94,1.5,12.72a0.13,0.13,0,0,1-.12.12q1.08,7.47,1.08,8.46h-0.12l2.16,13.2a0.82,0.82,0,0,1-.3.78h-0.12c-0.3,0-.6-1.44-1-4.38l-1-5.88h0.12l-0.12-.24a0.13,0.13,0,0,1,.12-0.12,29.35,29.35,0,0,0-.72-3.84,2.33,2.33,0,0,0,.12-0.36,6.42,6.42,0,0,0-.36-1.92,0.13,0.13,0,0,1,.12-0.12l-0.42-3.12h-0.84a14.49,14.49,0,0,0-3,.3v0.12a85.22,85.22,0,0,1-1.26,10.32l0.12,0.24a10.71,10.71,0,0,1-.72,3l0.12,0.24c-0.06,1-.18,1.5-0.36,1.5l0.12,0.24a8.87,8.87,0,0,1-.36,2.88l0.12,0.48c-0.12.78-.24,1.14-0.42,1.14h-0.12a0.51,0.51,0,0,1-.36-0.36v-0.9a0.13,0.13,0,0,1,.12-0.12,0.13,0.13,0,0,0-.12-0.12l0.72-4.08-0.12-.18,0.54-3.24h0.12l-0.12-.24c0.42-2.22.84-5.4,1.26-9.48,0-.06,0-0.12-0.06-0.12,0.06-1.26.12-1.86,0.3-1.86l-0.12-.24,0.12-.24a0.13,0.13,0,0,0-.12-0.12l0.12-1.14V381.3a0.13,0.13,0,0,1,.12-0.12l-0.12-.18v-0.12a0.13,0.13,0,0,1,.12-0.12,0.13,0.13,0,0,0-.12-0.12c0.12-1.5.24-2.22,0.36-2.22a0.13,0.13,0,0,0-.12-0.12,29.28,29.28,0,0,1,.6-4.14,0.13,0.13,0,0,0-.12-0.12c0.24-1.86.48-3.24,0.66-4.26l-0.06-.24a3.69,3.69,0,0,1,.18-1,0.13,0.13,0,0,0-.12-0.12c0.3-3.42.6-5.1,0.84-5.1a1.06,1.06,0,0,1,.36-0.06Zm-0.78,4.08a39.6,39.6,0,0,1-.72,4.62,0.13,0.13,0,0,0,.12.12,8.7,8.7,0,0,1-.3,1.62l0.06,0.18c-0.06,1.56-.18,2.34-0.3,2.34a0.13,0.13,0,0,0,.12.12,1.13,1.13,0,0,1-.24.78,0.13,0.13,0,0,0,.12.12c-0.18,1.2-.3,3.06-0.48,5.58a5.3,5.3,0,0,1,2-.36h1.5l0.24-.12-0.36-2,0.12-.42a19.8,19.8,0,0,1-.72-3.84,1.14,1.14,0,0,0,.12-0.48l-0.24-.3v-1c0-.3-0.12-1.2-0.3-2.76h0.06a29.26,29.26,0,0,1-.42-5.82,2.13,2.13,0,0,0-.48,1.32Z" transform="translate(-402.47 -362.88)"/><path class="a" d="M421.79,364.74a8.85,8.85,0,0,1,2.46,5.64c0.18,0,.36,1,0.54,3h-0.06l0.18,0.48a0.87,0.87,0,0,0-.12.42,0.13,0.13,0,0,1,.12.12l-0.18.12a6.28,6.28,0,0,1,.18,1.2,0.13,0.13,0,0,1-.12.12l0.12,0.54a4.08,4.08,0,0,1-.18,1.92c0,0.06,0,.06.06,0.06a5.86,5.86,0,0,1-.42,1.68,2.33,2.33,0,0,1,.12.36,9.62,9.62,0,0,0-1.14,2.76A6.91,6.91,0,0,0,422,385a5.78,5.78,0,0,1-2.22,1.32v0.12a34.67,34.67,0,0,1,1.68,4.08q0.36,0,2.34,6.12a65.33,65.33,0,0,1,2.64,6,0.13,0.13,0,0,0-.12.12,3.73,3.73,0,0,1,.78,1.44,0.62,0.62,0,0,1-.3.42,1.11,1.11,0,0,1-.66-0.66l-3.36-8a88.05,88.05,0,0,0-3.78-9.36l-1.08.12a0.55,0.55,0,0,1-.12.48l0.12,0.18-0.12.24a2.93,2.93,0,0,1,.12.3,2.33,2.33,0,0,1-.12.36l0.12,0.42c-0.06.78-.12,1.32-0.12,1.68,0,0.18.06,0.24,0.12,0.24l-0.12.54v2.46a0.87,0.87,0,0,1-.12.42,1.13,1.13,0,0,1,.12.48v0.78c0,0.06-.06.06-0.12,0.06a1.43,1.43,0,0,1,.24.72V399l0.12,1.14H418a1.56,1.56,0,0,1,.18.66V401l-0.06.18c0.18,0,.3,1,0.3,2.94l-0.42.3c0-.18-0.18-0.24-0.48-0.24V404a7.65,7.65,0,0,0-.12-1,0.13,0.13,0,0,1,.12-0.12,36.44,36.44,0,0,1-.18-3.66l0.06-.24a5.57,5.57,0,0,1-.18-1.74V393.6a1.42,1.42,0,0,0-.12-0.48c0-.06.06-0.06,0.12-0.06a2.4,2.4,0,0,0-.12-0.36c0.06-1,.12-1.74.12-2.34v-0.54a0.13,0.13,0,0,1,.12-0.12l-0.12-.24V388.8a0.13,0.13,0,0,1,.12-0.12,1.26,1.26,0,0,1-.24-0.66c0.06-.78.12-1.32,0.12-1.74a0.2,0.2,0,0,1-.24-0.24,3.1,3.1,0,0,0,.36-1.8c0-.06-0.06-0.24-0.12-0.66l0.18-.12c0-.06,0-0.06-0.06-0.06l0.06-1.14v-1.08a0.13,0.13,0,0,1,.12-0.12l-0.12-.24,0.12-1.8c0-.06-0.06-0.06-0.12-0.06l0.12-.6v-2.22a0.87,0.87,0,0,1,.24-0.78l-0.12-.18v-1.44a0.13,0.13,0,0,1,.12-0.12l-0.12-.24v-0.66a0.13,0.13,0,0,1,.12-0.12l-0.12-.24,0.12-.72-0.12-.6a0.13,0.13,0,0,1,.12-0.12,7.44,7.44,0,0,0-.24-1.5l0.12-.24-0.12-.54h0.12l-0.12-.24v-0.12a0.87,0.87,0,0,1,.12-0.42,2.36,2.36,0,0,1-.12-0.36l0.12-.24-0.12-.18,0.12-.66a1.13,1.13,0,0,0-.12-0.48,0.48,0.48,0,0,1,.24-0.42l-0.24-1.14a0.94,0.94,0,0,1,.9-1.08A5.7,5.7,0,0,1,421.79,364.74Zm-3.42,0v2.46a0.8,0.8,0,0,1,0,.84v0.36a0.86,0.86,0,0,0,.12.42l-0.12.24,0.12,0.54-0.12.24,0.12,0.66a0.13,0.13,0,0,1-.12.12l0.12,0.24v0.54a0.13,0.13,0,0,1-.12.12l0.24,1a2.18,2.18,0,0,1-.24,1.14,1,1,0,0,1,.12.3l-0.12.24,0.12,0.24-0.12.42a0.13,0.13,0,0,0,.12.12,2.59,2.59,0,0,1-.24,1.2l0.12,0.24a0.13,0.13,0,0,1-.12.12l0.12,0.24v0.18a0.13,0.13,0,0,1-.12.12l0.12,0.24a0.13,0.13,0,0,1-.12.12,0.13,0.13,0,0,0,.12.12l-0.24,3.06,0.12,0.24a0.45,0.45,0,0,1-.18.36,0.41,0.41,0,0,0,.18.3,11.93,11.93,0,0,1-.3,2.58,0.13,0.13,0,0,0,.12.12L418,385.26v0.42a1,1,0,0,1,.3.12,6.2,6.2,0,0,0,3.9-2.52,12.68,12.68,0,0,0,1.8-5.46H424l-0.06-.24,0.06-.18c0-.06,0-0.12-0.06-0.12l0.06-.78v-0.9a0.13,0.13,0,0,1,.12-0.12L424,375.3c0-4.68-.9-8-2.76-10.14a4.8,4.8,0,0,0-2.76-1Z" transform="translate(-402.47 -362.88)"/><path class="a" d="M432.77,363l0.36,0.24h0.54c0.24,0,.36-0.06.36-0.12l0.54,0.12h2.58a1.8,1.8,0,0,1,1.08.42v0.24l-0.12.24a6,6,0,0,1-1.74-.24,1.4,1.4,0,0,1-.48.12h-0.66a0.86,0.86,0,0,1-.42-0.12,1.4,1.4,0,0,1-.48.12h-0.12c-0.06,0-.06-0.06-0.06-0.12l-0.24.12h-1c0,0.3-.06.42-0.12,0.42a0.13,0.13,0,0,0,.12.12,2.33,2.33,0,0,1-.12.36l0.12,0.54c-0.3,2.16-.42,3.36-0.42,3.66l0.12,0.24-0.12.78c0.06,1.26.12,2,.12,2.22a0.13,0.13,0,0,1-.12.12l0.12,0.54v2a1.41,1.41,0,0,0,.12.48,0.87,0.87,0,0,0-.12.42v1.44l-0.12.66a1.2,1.2,0,0,1,.12.54v0.24a0.87,0.87,0,0,1-.12.42l0.12,0.24a2.47,2.47,0,0,1-.24.9,0.87,0.87,0,0,1,.12.42c-0.06.54-.12,0.84-0.12,0.9l0.12,0.24-0.12.66v0.9a0.13,0.13,0,0,1-.12.12l0.24,0.42,0.24-.12h3.72a0.51,0.51,0,0,1,.36.36c0,0.3-1.32.48-3.9,0.54a1.6,1.6,0,0,0-.66-0.12v0.12a7.62,7.62,0,0,1,.12,1v0.42c0,0.6-.06,1.38-0.12,2.34a1,1,0,0,1,.12.3h-0.12l0.12,0.24a1.2,1.2,0,0,1-.12.54c0.06,1.62.18,3.06,0.36,4.44h-0.12l0.24,0.6-0.12.66c0.06,0.66.12,1.32,0.12,2h-0.12a3.15,3.15,0,0,1,.18,1.2v0.66c0,0.06,0,.12-0.06.12l0.06,0.24v0.12c0,0.06,0,.12-0.06.12l0.06,0.18c0,0.06,0,.12-0.06.12s0,0.12.06,0.12l-0.06.54v0.36l0.18,0.3a1.13,1.13,0,0,1-.12.48l0.24,1.86h3l0.66-.12a0.64,0.64,0,0,1,.48.24l0.18-.12h0.78a0.51,0.51,0,0,1,.36.36v0.3c-0.24,0-.36.06-0.36,0.24l-0.24-.12h-0.18c-0.24,0-.36.06-0.36,0.12a2.6,2.6,0,0,1-1.2-.24l-0.24.12h-0.54a0.87,0.87,0,0,1-.42-0.12,7.74,7.74,0,0,1-1.68.24,2.38,2.38,0,0,0-.36-0.12c0,0.18-.06.24-0.18,0.24-0.3,0-.54-0.54-0.72-1.56a0.13,0.13,0,0,1,.12-0.12l-0.12-.54V402a11.67,11.67,0,0,0-.06-1.68,18,18,0,0,0,.06-1.86V396.9a1.17,1.17,0,0,0-.06-0.48c0-.06,0-0.12.06-0.12l-0.06-.78V395c-0.18-2.4-.24-3.72-0.24-3.9v-1.2a0.87,0.87,0,0,0-.12-0.42,1.41,1.41,0,0,0,.12-0.48V388.8l-0.12-.6h0.12a1,1,0,0,1-.12-0.3l0.12-.24a1,1,0,0,1-.12-0.3h0.12a0.13,0.13,0,0,0-.12-0.12l0.12-1.14v-0.66l-0.12-.54h0.12l-0.12-.24v-0.24c0-.06.06-0.06,0.12-0.06a0.13,0.13,0,0,0-.12-0.12l0.12-.6v-2.1l0.12-.66a1,1,0,0,1-.12-0.3h0.12a0.13,0.13,0,0,0-.12-0.12,13.4,13.4,0,0,0,.24-3V376c0-.06,0-0.12.06-0.12l-0.06-.24a31.08,31.08,0,0,0-.24-4,0.13,0.13,0,0,1,.12-0.12l-0.12-.54a34.86,34.86,0,0,1,.42-5.7,0.13,0.13,0,0,0-.12-0.12c0.12-1.5.3-2.22,0.6-2.22h0.18Z" transform="translate(-402.47 -362.88)"/><path class="a" d="M455.63,363.24v0.18q0,0.27-.9.36v-0.12c-2.34.42-3.54,1-3.54,1.92a23.69,23.69,0,0,0-.78,2.94l0.12,0.24a1,1,0,0,1-.24.66,0.13,0.13,0,0,0,.12.12c-0.36,2.46-.6,6.12-0.78,11.1h-0.12a8.79,8.79,0,0,1,.24,1.56h-0.12l0.12,0.24v2.34l-0.12.66q0.54,4.68.54,4.86l-0.12.24,0.48,3.12-0.12.18c0,0.06.12,1,.3,2.88h-0.12l0.48,2.46a0.13,0.13,0,0,1-.12.12l0.36,1.86h-0.12a3.63,3.63,0,0,0,1.44,2.58l0.9,0.54,0.18-.12,0.24,0.12c1.38-.78,2.1-1.62,2.1-2.52,0.24-.18.48-1.2,0.66-3.12l-0.12-.54c0-.54.06-0.78,0.24-0.78l-0.12-.6v-0.66c0.06-.36.12-0.54,0.24-0.54l-0.12-.24v-2l0.12-.78a2.56,2.56,0,0,1-1.14-.3l-0.18.06h-0.12c-0.06,0-.12,0-0.12-0.06l-0.24.06-0.18-.06-0.6.06v-0.06l-0.18.06h-0.12a0.71,0.71,0,0,1-.48-0.42v-0.24a0.77,0.77,0,0,1,.72-0.3,11.32,11.32,0,0,0,1.2.12h0.78l0.3,0.18,0.12-.18L457,391.5l0.54-.06a1.2,1.2,0,0,1,.36.66,6.83,6.83,0,0,0-.36,1.74,2,2,0,0,0,.24,1l-0.24,1.56,0.24,0.12c-0.42,4.74-1.2,7.38-2.22,7.86a3.89,3.89,0,0,1-1.68.78c-1,0-2-.78-3-2.34a0.13,0.13,0,0,1,.12-0.12,30.88,30.88,0,0,1-1.08-5.76v-0.3c0-.06,0-0.12.06-0.12a13.57,13.57,0,0,1-.3-2.82h0.12l-0.24-.54a0.13,0.13,0,0,1,.12-0.12,9.14,9.14,0,0,1-.24-1.86h0.12l-0.12-.24a0.13,0.13,0,0,1,.12-0.12,18.41,18.41,0,0,1-.54-3.42v-2.34L448.85,384H449l-0.12-.24v-0.24c0-.72-0.06-1.8-0.12-3.3h0.12l-0.12-.24v-0.66a0.13,0.13,0,0,1,.12-0.12,1,1,0,0,1-.12-0.3l0.12-.24a0.13,0.13,0,0,0-.12-0.12,6.14,6.14,0,0,1,.36-1.68,0.13,0.13,0,0,0-.12-0.12l0.12-1.08v-0.9c0-.06,0-0.12.06-0.12s0-.12-0.06-0.12a56.69,56.69,0,0,1,1.2-9.18,3.18,3.18,0,0,1,1.8-1.92,10.27,10.27,0,0,1,3.3-.54Z" transform="translate(-402.47 -362.88)"/><path class="a" d="M463.13,363l0.36,0.24H464c0.24,0,.36-0.06.36-0.12l0.54,0.12h2.58a1.8,1.8,0,0,1,1.08.42v0.24l-0.12.24a6,6,0,0,1-1.74-.24,1.4,1.4,0,0,1-.48.12h-0.66a0.86,0.86,0,0,1-.42-0.12,1.4,1.4,0,0,1-.48.12h-0.12c-0.06,0-.06-0.06-0.06-0.12l-0.24.12h-1c0,0.3-.06.42-0.12,0.42a0.13,0.13,0,0,0,.12.12,2.33,2.33,0,0,1-.12.36l0.12,0.54c-0.3,2.16-.42,3.36-0.42,3.66l0.12,0.24-0.12.78c0.06,1.26.12,2,.12,2.22a0.13,0.13,0,0,1-.12.12L463,373v2a1.41,1.41,0,0,0,.12.48,0.87,0.87,0,0,0-.12.42v1.44l-0.12.66a1.2,1.2,0,0,1,.12.54v0.24a0.87,0.87,0,0,1-.12.42l0.12,0.24a2.47,2.47,0,0,1-.24.9,0.87,0.87,0,0,1,.12.42c-0.06.54-.12,0.84-0.12,0.9l0.12,0.24-0.12.66v0.9a0.13,0.13,0,0,1-.12.12l0.24,0.42,0.24-.12h3.72a0.51,0.51,0,0,1,.36.36c0,0.3-1.32.48-3.9,0.54a1.6,1.6,0,0,0-.66-0.12v0.12a7.62,7.62,0,0,1,.12,1v0.42c0,0.6-.06,1.38-0.12,2.34a1,1,0,0,1,.12.3h-0.12l0.12,0.24a1.2,1.2,0,0,1-.12.54c0.06,1.62.18,3.06,0.36,4.44h-0.12l0.24,0.6-0.12.66c0.06,0.66.12,1.32,0.12,2H463a3.15,3.15,0,0,1,.18,1.2v0.66c0,0.06,0,.12-0.06.12l0.06,0.24v0.12c0,0.06,0,.12-0.06.12l0.06,0.18c0,0.06,0,.12-0.06.12s0,0.12.06,0.12l-0.06.54v0.36l0.18,0.3a1.13,1.13,0,0,1-.12.48l0.24,1.86h3l0.66-.12a0.64,0.64,0,0,1,.48.24l0.18-.12h0.78a0.51,0.51,0,0,1,.36.36v0.3c-0.24,0-.36.06-0.36,0.24l-0.24-.12h-0.18c-0.24,0-.36.06-0.36,0.12a2.6,2.6,0,0,1-1.2-.24l-0.24.12h-0.54a0.87,0.87,0,0,1-.42-0.12,7.74,7.74,0,0,1-1.68.24,2.38,2.38,0,0,0-.36-0.12c0,0.18-.06.24-0.18,0.24-0.3,0-.54-0.54-0.72-1.56a0.13,0.13,0,0,1,.12-0.12l-0.12-.54V402a11.67,11.67,0,0,0-.06-1.68,18,18,0,0,0,.06-1.86V396.9a1.17,1.17,0,0,0-.06-0.48c0-.06,0-0.12.06-0.12l-0.06-.78V395c-0.18-2.4-.24-3.72-0.24-3.9v-1.2a0.87,0.87,0,0,0-.12-0.42,1.41,1.41,0,0,0,.12-0.48V388.8l-0.12-.6h0.12a1,1,0,0,1-.12-0.3l0.12-.24a1,1,0,0,1-.12-0.3h0.12a0.13,0.13,0,0,0-.12-0.12l0.12-1.14v-0.66l-0.12-.54h0.12l-0.12-.24v-0.24c0-.06.06-0.06,0.12-0.06a0.13,0.13,0,0,0-.12-0.12l0.12-.6v-2.1l0.12-.66a1,1,0,0,1-.12-0.3h0.12a0.13,0.13,0,0,0-.12-0.12,13.4,13.4,0,0,0,.24-3V376c0-.06,0-0.12.06-0.12l-0.06-.24a31.08,31.08,0,0,0-.24-4,0.13,0.13,0,0,1,.12-0.12l-0.12-.54a34.86,34.86,0,0,1,.42-5.7,0.13,0.13,0,0,0-.12-0.12c0.12-1.5.3-2.22,0.6-2.22h0.18Z" transform="translate(-402.47 -362.88)"/><path class="a" d="M472.25,363.18L473,363.3l0.18-.12a2.8,2.8,0,0,1,1.14.18c0.06,0,.12,0,0.12-0.06a3.33,3.33,0,0,1,1.32.3l0.18-.12H476a0.13,0.13,0,0,1,.12.12l0.24-.12h0.3a0.13,0.13,0,0,1,.12.12,1.46,1.46,0,0,1,.66-0.24,2.29,2.29,0,0,0,.36.12l0.24-.12,0.54,0.12c0.06,0,.18-0.06.42-0.12a0.13,0.13,0,0,1,.12.12l0.54-.12h0.9a1.42,1.42,0,0,1,.48.12,0.79,0.79,0,0,1,.84,0l0.24-.12a1.29,1.29,0,0,1,1,.6,1.05,1.05,0,0,1-1,.54,0.2,0.2,0,0,0-.24-0.24,0.28,0.28,0,0,0-.3.12l-0.54-.12h-2.46l-0.54.12a0.13,0.13,0,0,0-.12-0.12,8,8,0,0,0-.24,2.58v0.9a2,2,0,0,1,.36,1.32H478a1.38,1.38,0,0,0,.18.78l-0.06.54a9.39,9.39,0,0,0,.06,1.2l-0.06.24,0.06,0.66v0.66c0,0.06,0,.12-0.06.12a6.84,6.84,0,0,1,.3,2.22,2.36,2.36,0,0,0-.12.36,0.87,0.87,0,0,1,.12.42h-0.12l0.12,0.24v0.12c0,0.06-.06.06-0.12,0.06l0.12,0.24a0.13,0.13,0,0,1-.12.12l0.12,0.24a0.13,0.13,0,0,1-.12.12l0.12,0.18a0.13,0.13,0,0,1-.12.12l0.12,0.24a0.13,0.13,0,0,1-.12.12c0,0.06.06,0.06,0.12,0.06l-0.12.78V379l0.12,1.14h-0.12l0.12,0.18c-0.18,2-.3,3.48-0.3,4.26v0.78l0.06,1.32h-0.06c0,0.06,0,.12.06,0.12-0.06.66-.06,1-0.06,1.08,0.06,4.38.06,7.08,0.06,8.22l0.12,0.24-0.12.24a1,1,0,0,0,.12.3l-0.12.54c0.06,0.42.12,0.72,0.12,0.9h-0.12l0.12,0.24a0.13,0.13,0,0,1-.12.12,0.13,0.13,0,0,0,.12.12l-0.18,4.44a6.67,6.67,0,0,1,.06,1.32,0.49,0.49,0,0,1-.66-0.54c0-.18,0-0.24-0.06-0.24l0.06-.78v-1.44l-0.06-.78h0.06l-0.06-.24v-0.9c0-.06,0-0.06.06-0.06s0-.12-0.06-0.12l0.06-.6c0-.18,0-0.3-0.06-0.3l0.06-.54V396.6a9.3,9.3,0,0,0-.18-2.34l0.12-.24-0.12-.66v-0.12a0.13,0.13,0,0,1,.12-0.12l-0.12-.18v-2.7l0.12-.66a1.45,1.45,0,0,1-.24-0.78h0.12a0.13,0.13,0,0,0-.12-0.12c0.06-3.9.18-7.08,0.3-9.66v-1.44a0.13,0.13,0,0,1,.12-0.12l-0.12-.18v-2.1l-0.06-.6h0.06l-0.06-.18v-0.6a0.89,0.89,0,0,1,.06-0.42c0-.06,0-0.12-0.06-0.12a0.65,0.65,0,0,1,.06-0.3c0-.18-0.06-0.72-0.18-1.56h0.12l-0.24-.9,0.12-.54c-0.18-1.8-.3-3.72-0.36-5.7-0.12,0-.54.06-1.32,0.12a11.5,11.5,0,0,1-2.46-.3l-0.18.06c-0.78-.12-1.14-0.24-1.14-0.42v-0.24a0.62,0.62,0,0,1,.36-0.3h0.06Z" transform="translate(-402.47 -362.88)"/><path class="a" d="M486.71,363.18l0.72,0.12,0.18-.12a2.8,2.8,0,0,1,1.14.18c0.06,0,.12,0,0.12-0.06a3.33,3.33,0,0,1,1.32.3l0.18-.12h0.12a0.13,0.13,0,0,1,.12.12l0.24-.12h0.3a0.13,0.13,0,0,1,.12.12,1.46,1.46,0,0,1,.66-0.24,2.29,2.29,0,0,0,.36.12l0.24-.12,0.54,0.12c0.06,0,.18-0.06.42-0.12a0.13,0.13,0,0,1,.12.12l0.54-.12h0.9a1.42,1.42,0,0,1,.48.12,0.79,0.79,0,0,1,.84,0l0.24-.12a1.29,1.29,0,0,1,1,.6,1.05,1.05,0,0,1-1,.54,0.2,0.2,0,0,0-.24-0.24,0.28,0.28,0,0,0-.3.12l-0.54-.12h-2.46l-0.54.12a0.13,0.13,0,0,0-.12-0.12,8,8,0,0,0-.24,2.58v0.9a2,2,0,0,1,.36,1.32h-0.12a1.38,1.38,0,0,0,.18.78l-0.06.54a9.39,9.39,0,0,0,.06,1.2l-0.06.24,0.06,0.66v0.66c0,0.06,0,.12-0.06.12a6.84,6.84,0,0,1,.3,2.22,2.36,2.36,0,0,0-.12.36,0.87,0.87,0,0,1,.12.42h-0.12l0.12,0.24v0.12c0,0.06-.06.06-0.12,0.06l0.12,0.24a0.13,0.13,0,0,1-.12.12l0.12,0.24a0.13,0.13,0,0,1-.12.12l0.12,0.18a0.13,0.13,0,0,1-.12.12l0.12,0.24a0.13,0.13,0,0,1-.12.12c0,0.06.06,0.06,0.12,0.06l-0.12.78V379l0.12,1.14h-0.12l0.12,0.18c-0.18,2-.3,3.48-0.3,4.26v0.78l0.06,1.32h-0.06c0,0.06,0,.12.06,0.12-0.06.66-.06,1-0.06,1.08,0.06,4.38.06,7.08,0.06,8.22l0.12,0.24-0.12.24a1,1,0,0,0,.12.3l-0.12.54c0.06,0.42.12,0.72,0.12,0.9h-0.12l0.12,0.24a0.13,0.13,0,0,1-.12.12,0.13,0.13,0,0,0,.12.12l-0.18,4.44a6.67,6.67,0,0,1,.06,1.32,0.49,0.49,0,0,1-.66-0.54c0-.18,0-0.24-0.06-0.24l0.06-.78v-1.44l-0.06-.78h0.06l-0.06-.24v-0.9c0-.06,0-0.06.06-0.06s0-.12-0.06-0.12l0.06-.6c0-.18,0-0.3-0.06-0.3l0.06-.54V396.6a9.3,9.3,0,0,0-.18-2.34l0.12-.24-0.12-.66v-0.12a0.13,0.13,0,0,1,.12-0.12l-0.12-.18v-2.7l0.12-.66a1.45,1.45,0,0,1-.24-0.78h0.12a0.13,0.13,0,0,0-.12-0.12c0.06-3.9.18-7.08,0.3-9.66v-1.44a0.13,0.13,0,0,1,.12-0.12l-0.12-.18v-2.1l-0.06-.6h0.06l-0.06-.18v-0.6a0.89,0.89,0,0,1,.06-0.42c0-.06,0-0.12-0.06-0.12a0.65,0.65,0,0,1,.06-0.3c0-.18-0.06-0.72-0.18-1.56h0.12l-0.24-.9,0.12-.54c-0.18-1.8-.3-3.72-0.36-5.7-0.12,0-.54.06-1.32,0.12a11.5,11.5,0,0,1-2.46-.3l-0.18.06c-0.78-.12-1.14-0.24-1.14-0.42v-0.24a0.62,0.62,0,0,1,.36-0.3h0.06Z" transform="translate(-402.47 -362.88)"/><path class="a" d="M503.15,364l-0.06,1.32V366a47,47,0,0,1-.36,6.3,12.64,12.64,0,0,1,.12,1.56V374a0.13,0.13,0,0,1-.12.12l0.12,0.24V378l0.12,0.66a0.13,0.13,0,0,1-.12.12l0.12,0.78v1.2a0.13,0.13,0,0,1-.12.12l0.12,0.24v0.72a0.13,0.13,0,0,1-.12.12L503,382.2v1.2l0.12,0.78H503l0.12,0.24a0.13,0.13,0,0,1-.12.12l0.12,0.24v0.66a8.2,8.2,0,0,1-.12,1,0.13,0.13,0,0,0,.12.12l-0.12.54a1.78,1.78,0,0,0,.12.6,11.42,11.42,0,0,0-.12,1.2v1.68a1.54,1.54,0,0,0,.12.42,1.41,1.41,0,0,0-.12.48v1.32a1.52,1.52,0,0,0,.12.42l-0.12.24c0.06,0.42.12,0.6,0.12,0.66l-0.12.42a1.78,1.78,0,0,1,.12.6H503l0.12,0.18v0.12l-0.24.78a0.25,0.25,0,0,1,.24.24v1.2a0.13,0.13,0,0,1-.12.12l0.12,0.24v0.12c0,0.06-.06.06-0.12,0.06l0.18,1.38-0.06.18a11.56,11.56,0,0,0,.18,2,2.77,2.77,0,0,0-.12.3c0.06,1.38.12,2.1,0.12,2.34l-0.12.24c0.06,0.06-.18.06-0.66-0.12V403a11.46,11.46,0,0,0-.12-1.2,0.13,0.13,0,0,1,.12-0.12c-0.12-1.26-.18-2.52-0.18-3.9l0.06-.66a7.25,7.25,0,0,1-.06-1.14v-1.08l-0.12-.54h0.12l-0.12-.24V394a0.28,0.28,0,0,1,.12-0.3l-0.12-.6v-4.62a1.41,1.41,0,0,1,.12-0.48,2.79,2.79,0,0,1-.12-0.3h0.12l-0.12-.24V387.3a0.13,0.13,0,0,1,.12-0.12l-0.12-.18c0.06-.66.12-1.14,0.12-1.44a1.92,1.92,0,0,1-.12-0.36l0.12-.24c-0.18-2.58-.24-4-0.24-4.44a1,1,0,0,1,.24-0.66,9.31,9.31,0,0,1-.36-3.12,8.2,8.2,0,0,0,.12-1V370.2a0.13,0.13,0,0,1,.12-0.12c0-.06-0.06-0.06-0.12-0.06l0.12-.6a0.13,0.13,0,0,0-.12-0.12l0.12-.54v-1a0.13,0.13,0,0,1,.12-0.12q-0.09-4,.36-4c0.3-.42.48-0.36,0.42,0.18C503.09,364,503.09,364,503.15,364Z" transform="translate(-402.47 -362.88)"/><path class="a" d="M508.13,362.88c0.6,0.42,1.2,1.62,1.86,3.54,2.58,5.1,5,9.66,7.32,13.8h0.12l-0.12-.54v-2a1.3,1.3,0,0,0-.12-0.6l0.12-.66v-1.62c0-.06.06-0.06,0.12-0.06a2.47,2.47,0,0,1-.24-1.26V373.2a0.13,0.13,0,0,1,.12-0.12l-0.18-1.38,0.06-.42c-0.06-.66-0.06-1.14-0.06-1.5h0.06a0.66,0.66,0,0,1-.06-0.3,1.17,1.17,0,0,1,.06-0.48,6.59,6.59,0,0,1-.06-1v-0.24c0-.06,0-0.06.06-0.06s0-.12-0.06-0.12l0.06-1.14V366.3q-0.18-1.89-.18-2.16v-0.48a0.66,0.66,0,0,1,.3-0.3,1.71,1.71,0,0,1,.72.78l-0.12.54a2.42,2.42,0,0,0,.12.36,0.13,0.13,0,0,1-.12.12L518,365.7c-0.06,1.74-.12,3-0.12,3.9l0.12,0.54-0.12.24a0.86,0.86,0,0,1,.12.42,0.13,0.13,0,0,1-.12.12l0.12,0.24c0.06,2.1.12,3.84,0.12,5.22v0.24a0.13,0.13,0,0,1-.12.12l0.12,0.18v0.84a4.57,4.57,0,0,0,.06.9L518,380c0,0.36.06,0.84,0.12,1.5-0.06,1.5-.12,2.88-0.12,4.08,0.06,0.54.12,0.84,0.12,0.9H518l0.12,0.24v0.42a0.13,0.13,0,0,1-.12.12,0.13,0.13,0,0,0,.12.12L518,388.5v0.9a4.66,4.66,0,0,0,.12.9l-0.24,2.16L518,392.7l-0.12.24L518,393.6a0.13,0.13,0,0,1-.12.12L518,394v0.54a0.13,0.13,0,0,1-.12.12l0.12,0.24V396c0,0.06-.06.06-0.12,0.06L518,396.3v1.26a0.86,0.86,0,0,1-.12.42,1.4,1.4,0,0,1,.12.48v0.24a0.13,0.13,0,0,1-.12.12,0.13,0.13,0,0,0,.12.12,30.64,30.64,0,0,0-.24,3.84l-0.12.24c0,0.06.06,0.06,0.12,0.06-0.06,1-.18,1.5-0.48,1.5h-0.18q-0.36,0-.36-1.8a0.2,0.2,0,0,0,.24-0.24v-1.26a0.13,0.13,0,0,1,.12-0.12A0.13,0.13,0,0,0,517,401a8.53,8.53,0,0,1,.3-1.68,0.45,0.45,0,0,0-.18-0.36l0.06-.78V398.1l-0.06-.78h0.06c0-.06,0-0.12-0.06-0.12l0.06-.54v-3.42a0.13,0.13,0,0,1,.12-0.12l-0.12-.18v-5c0-.06.06-0.06,0.12-0.06l-0.12-.24v-0.12a0.13,0.13,0,0,1,.12-0.12l-0.12-.24v-4a0.13,0.13,0,0,1,.12-0.12l-0.12-.24a11.55,11.55,0,0,0,.12-1.2A115.62,115.62,0,0,1,511.43,371a26.49,26.49,0,0,1-2.94-6.24h-0.12v1.26a0.13,0.13,0,0,1-.12.12l0.12,0.24v1.8a0.13,0.13,0,0,1-.12.12l0.12,0.24v0.54a11.07,11.07,0,0,0,.24,3.18,0.13,0.13,0,0,1-.12.12l0.12,0.54v0.36a0.13,0.13,0,0,1-.12.12l0.12,0.24v3.6a0.13,0.13,0,0,1-.12.12,10.1,10.1,0,0,1,.24,2.94v1.38l0.12,0.66-0.12.24,0.12,0.66h-0.12a0.13,0.13,0,0,0,.12.12,2,2,0,0,1-.24,1l0.12,0.24v0.66c0,0.3.06,0.72,0.12,1.26a0.13,0.13,0,0,1-.12.12l0.12,0.54v0.36c0,0.6-.06,1.32-0.12,2.16l0.12,0.18-0.12.72v0.12l0.12,0.78h-0.12l0.12,0.24v0.66c0,0.54.06,1.38,0.12,2.52h-0.12c0,0.06.06,0.06,0.12,0.06a4.19,4.19,0,0,0-.24,1.14l0.12,1.62h-0.12l0.12,0.18v0.6a7.65,7.65,0,0,1-.12,1,0.13,0.13,0,0,0,.12.12l-0.12.78v1.14a8.19,8.19,0,0,1-.12,1.14,4.75,4.75,0,0,1,.12,1v0.54a0.2,0.2,0,0,1-.24.24h-0.12a1.87,1.87,0,0,1-.42-1.14c0.06-2.1.12-3.84,0.12-5.22v-2.94c0-.06,0-0.12.06-0.12l-0.06-.18v-0.12c0-.06,0-0.12.06-0.12l-0.06-.24c0-.06,0-0.12.06-0.12l-0.06-.54v-0.36a1.32,1.32,0,0,1,.06-0.48,0.65,0.65,0,0,1-.06-0.3h0.06c0-.06,0-0.12-0.06-0.12l0.06-1.14v-0.12c0-.66,0-1.32-0.06-2a4.53,4.53,0,0,0,.06-0.9l-0.06-.54h0.06a1.05,1.05,0,0,1-.06-0.36c0-.06,0-0.12.06-0.12l-0.06-.54v-1L508,384.78h0.12l-0.12-.24v-0.72c0-.06.06-0.06,0.12-0.06a0.13,0.13,0,0,0-.12-0.12,3.49,3.49,0,0,1,.18-1.26,1.56,1.56,0,0,1-.18-0.66v-3.78a0.87,0.87,0,0,0-.12-0.42A1.43,1.43,0,0,0,508,377V376.5l-0.12-.6H508a0.13,0.13,0,0,0-.12-0.12l0.12-.54v-1.38l-0.12-.66L508,373a1,1,0,0,1-.12-0.3,0.13,0.13,0,0,1,.12-0.12,23.71,23.71,0,0,1-.36-3.06v-0.72a0.87,0.87,0,0,1,.12-0.42,1.13,1.13,0,0,1-.12-0.48l0.12-.18-0.12-.24a5,5,0,0,0,.12-0.78l-0.12-.24a1.41,1.41,0,0,0,.12-0.48,0.87,0.87,0,0,0-.12-0.42,0.13,0.13,0,0,1,.12-0.12l-0.12-.78v-1.38a0.51,0.51,0,0,1,.36-0.36h0.18Z" transform="translate(-402.47 -362.88)"/><path class="a" d="M529,363.24v0.18q0,0.27-.9.36v-0.12c-2.34.42-3.54,1-3.54,1.92a23.64,23.64,0,0,0-.78,2.94l0.12,0.24a1,1,0,0,1-.24.66,0.13,0.13,0,0,0,.12.12c-0.36,2.46-.6,6.12-0.78,11.1h-0.12a8.8,8.8,0,0,1,.24,1.56H523l0.12,0.24v2.34l-0.12.66q0.54,4.68.54,4.86l-0.12.24,0.48,3.12-0.12.18c0,0.06.12,1,.3,2.88h-0.12l0.48,2.46a0.13,0.13,0,0,1-.12.12l0.36,1.86h-0.12a3.63,3.63,0,0,0,1.44,2.58l0.9,0.54,0.18-.12,0.24,0.12c1.38-.78,2.1-1.62,2.1-2.52,0.24-.18.48-1.2,0.66-3.12l-0.12-.54c0-.54.06-0.78,0.24-0.78l-0.12-.6v-0.66c0.06-.36.12-0.54,0.24-0.54l-0.12-.24v-2l0.12-.78a2.56,2.56,0,0,1-1.14-.3l-0.18.06h-0.12c-0.06,0-.12,0-0.12-0.06l-0.24.06-0.18-.06-0.6.06v-0.06l-0.18.06h-0.12a0.71,0.71,0,0,1-.48-0.42v-0.24a0.77,0.77,0,0,1,.72-0.3,11.29,11.29,0,0,0,1.2.12h0.78l0.3,0.18,0.12-.18,0.24,0.06,0.54-.06a1.2,1.2,0,0,1,.36.66,6.78,6.78,0,0,0-.36,1.74,1.94,1.94,0,0,0,.24,1l-0.24,1.56,0.24,0.12c-0.42,4.74-1.2,7.38-2.22,7.86a3.88,3.88,0,0,1-1.68.78c-1,0-2-.78-3-2.34a0.13,0.13,0,0,1,.12-0.12,31,31,0,0,1-1.08-5.76v-0.3c0-.06,0-0.12.06-0.12a13.5,13.5,0,0,1-.3-2.82h0.12l-0.24-.54a0.13,0.13,0,0,1,.12-0.12,9.08,9.08,0,0,1-.24-1.86h0.12l-0.12-.24a0.13,0.13,0,0,1,.12-0.12,18.27,18.27,0,0,1-.54-3.42v-2.34L522.17,384h0.12l-0.12-.24v-0.24c0-.72-0.06-1.8-0.12-3.3h0.12l-0.12-.24v-0.66a0.13,0.13,0,0,1,.12-0.12,1,1,0,0,1-.12-0.3l0.12-.24a0.13,0.13,0,0,0-.12-0.12,6.08,6.08,0,0,1,.36-1.68,0.13,0.13,0,0,0-.12-0.12l0.12-1.08v-0.9c0-.06,0-0.12.06-0.12s0-.12-0.06-0.12a56.69,56.69,0,0,1,1.2-9.18,3.18,3.18,0,0,1,1.8-1.92,10.26,10.26,0,0,1,3.3-.54Z" transform="translate(-402.47 -362.88)"/><path class="a" d="M542.57,363.12l-0.24.3v1a17.88,17.88,0,0,0-.24,1.8,14.39,14.39,0,0,0,.24,2.64h-0.12l0.12,0.24v0.42a0.13,0.13,0,0,1-.12.12l0.12,0.24v1.32a1.54,1.54,0,0,1-.12.42c0.06,0.24.12,0.42,0.12,0.48a0.13,0.13,0,0,1-.12.12l0.12,0.18c0,0.06-.06.24-0.12,0.48,0,0.06.06,0.06,0.12,0.06a2,2,0,0,1-.24,1l0.12,0.24c0,0.18-.06.24-0.12,0.24l0.12,1.08v1.2a0.13,0.13,0,0,1-.12.12l0.12,0.24v1.2c0,0.78.06,1.86,0.12,3.36a0.13,0.13,0,0,0-.12.12h1.44c0.06,0,.12,0,0.12.06l0.18-.06,0.24,0.06,0.24-.06a0.45,0.45,0,0,0,.3.06c0.18,0,.24,0,0.24-0.06l0.78,0.06h0.12c0.42,0,.9,0,1.68-0.06v-1.26c0-.3-0.06-0.66-0.12-1.2l0.12-.24-0.12-.66v-0.3a0.13,0.13,0,0,1,.12-0.12,0.13,0.13,0,0,0-.12-0.12,17.6,17.6,0,0,1,.18-2.76,7.31,7.31,0,0,1-.06-1.14,35.64,35.64,0,0,1,.3-5.52l-0.12-.24a2,2,0,0,0,.24-0.9,0.13,0.13,0,0,0-.12-0.12,2.59,2.59,0,0,1,.24-1.44,0.13,0.13,0,0,0-.12-0.12l0.12-.54-0.12-.54h0.12l-0.12-.24v-0.9c0-.06.06-0.06,0.12-0.06a0.13,0.13,0,0,0-.12-0.12l0.9-.36c0,0.24.06,0.36,0.12,0.36l-0.12.54v1.44a0.13,0.13,0,0,1-.12.12,0.13,0.13,0,0,0,.12.12c-0.12,0-.3,2.46-0.48,7.32h-0.06l0.06,0.18v0.12c0,0.18-.06.24-0.18,0.24l0.12,0.24v0.78a0.13,0.13,0,0,1-.12.12l0.12,0.18v1.14a8.1,8.1,0,0,1-.12,1,0.13,0.13,0,0,0,.12.12l-0.12.54v0.24l0.12,0.66-0.12.24,0.12,0.24a3,3,0,0,0-.12.3,1.89,1.89,0,0,1,.12.36,2.73,2.73,0,0,1-.12.3l0.18,2.22-0.06.24c0.18,2.16.24,4.32,0.3,6.42l-0.12.24,0.12,0.66v1.32a0.13,0.13,0,0,1-.12.12l0.12,0.24v0.12a1.5,1.5,0,0,1-.12.42l0.12,0.24a0.13,0.13,0,0,1-.12.12l0.12,1.08v1.92a0.79,0.79,0,0,1,0,.84,0.13,0.13,0,0,0,.12.12l-0.12.6v0.66a1.54,1.54,0,0,0,.12.42,2.57,2.57,0,0,1-.24,1.2l0.12,0.24a47.74,47.74,0,0,0,.36,5.64l-0.36.24h-0.3c-0.3-.72-0.48-1.14-0.48-1.2a1.45,1.45,0,0,0,.24-0.78,1.42,1.42,0,0,1-.12-0.48h0.12l-0.12-.18v-0.36a0.13,0.13,0,0,1,.12-0.12l-0.12-.18v-1.68l-0.12-.78H548l-0.12-.24v-1.2a0.13,0.13,0,0,1,.12-0.12l-0.12-.24v-1.74c0-.06.06-0.24,0.12-0.48a0.13,0.13,0,0,0-.12-0.12l0.12-.66c-0.06-1.26-.12-2.4-0.12-3.3v-0.78l0.24-.36c-0.24-.06-0.36-0.3-0.36-0.84V389.1a0.13,0.13,0,0,1,.12-0.12,2,2,0,0,0-.12-0.36,1.5,1.5,0,0,1,.12-0.42l-0.24-1.44a0.13,0.13,0,0,1,.12-0.12l-0.12-.54V386a1.52,1.52,0,0,1,.12-0.42,0.13,0.13,0,0,0-.12-0.12,2,2,0,0,0,.12-0.36c-0.06-1-.12-1.68-0.12-2.34l-0.06-.18-0.24.06h-3.54c-0.06,0-.24.06-0.48,0.12a1.5,1.5,0,0,0-.42-0.12h-0.54c0,0.54.06,1.44,0.12,2.58,0,0.18-.06.54-0.12,1.2a31.3,31.3,0,0,1,.18,3.48v0.3c0,0.06,0,.12-0.06.12l0.06,0.24V392l0.12,0.78h-0.12l0.12,0.18a36.84,36.84,0,0,0,.24,3.72c0,0.06-.06.06-0.12,0.06a6.59,6.59,0,0,0,.24,1.38l-0.12.18a0.13,0.13,0,0,0,.12.12l-0.12.54v1.68L543,401.4h-0.12a0.13,0.13,0,0,0,.12.12l-0.12.54c0.06,1.62.12,2.52,0.12,2.7l-0.54.42a1.47,1.47,0,0,0-.48-0.54l0.12-.6v-1a0.13,0.13,0,0,1,.12-0.12l-0.12-.24c0.06-1.14.12-1.86,0.12-2.1l-0.12-.24,0.12-.18c-0.06-.78-0.12-1.38-0.12-1.8a0.28,0.28,0,0,1,.12-0.3l-0.12-.6v-0.18c0-.66-0.06-1.62-0.12-2.88a0.13,0.13,0,0,1,.12-0.12l-0.12-.6v-1l-0.12-.78H542l-0.12-.24V390l-0.12-.72c0-.06.06-0.06,0.12-0.06a23.65,23.65,0,0,1-.18-3.12v-0.54c0-.06,0-0.12.06-0.12s0-.12-0.06-0.12a0.76,0.76,0,0,1,.06-0.36c-0.06-1.68-.18-2.52-0.3-2.52l0.12-.78c-0.06-2.1-.12-3.48-0.12-4.26h0.12l-0.12-.18a0.54,0.54,0,0,1,.12-0.48l-0.12-.78v-3.42c0-.66.06-1.38,0.12-2.34l-0.12-.18a0.13,0.13,0,0,1,.12-0.12l-0.12-.78v-0.66a0.13,0.13,0,0,1,.12-0.12,4.14,4.14,0,0,1-.24-1l0.12-.24a8.12,8.12,0,0,1-.12-1V366a18.07,18.07,0,0,0,.24-1.8v-1.32Z" transform="translate(-402.47 -362.88)"/><path class="a" d="M554,364L554,365.34V366a47.14,47.14,0,0,1-.36,6.3,12.74,12.74,0,0,1,.12,1.56V374a0.13,0.13,0,0,1-.12.12l0.12,0.24V378l0.12,0.66a0.13,0.13,0,0,1-.12.12l0.12,0.78v1.2a0.13,0.13,0,0,1-.12.12l0.12,0.24v0.72a0.13,0.13,0,0,1-.12.12l0.12,0.24v1.2l0.12,0.78h-0.12l0.12,0.24a0.13,0.13,0,0,1-.12.12l0.12,0.24v0.66a8.1,8.1,0,0,1-.12,1,0.13,0.13,0,0,0,.12.12l-0.12.54a1.79,1.79,0,0,0,.12.6,11.56,11.56,0,0,0-.12,1.2v1.68a1.56,1.56,0,0,0,.12.42,1.42,1.42,0,0,0-.12.48v1.32a1.54,1.54,0,0,0,.12.42l-0.12.24c0.06,0.42.12,0.6,0.12,0.66l-0.12.42a1.77,1.77,0,0,1,.12.6h-0.12l0.12,0.18v0.12l-0.24.78a0.25,0.25,0,0,1,.24.24v1.2a0.13,0.13,0,0,1-.12.12L554,398v0.12c0,0.06-.06.06-0.12,0.06l0.18,1.38-0.06.18a11.5,11.5,0,0,0,.18,2,2.71,2.71,0,0,0-.12.3c0.06,1.38.12,2.1,0.12,2.34l-0.12.24c0.06,0.06-.18.06-0.66-0.12V403a11.33,11.33,0,0,0-.12-1.2,0.13,0.13,0,0,1,.12-0.12c-0.12-1.26-.18-2.52-0.18-3.9l0.06-.66a7.31,7.31,0,0,1-.06-1.14v-1.08l-0.12-.54h0.12l-0.12-.24V394a0.28,0.28,0,0,1,.12-0.3l-0.12-.6v-4.62a1.4,1.4,0,0,1,.12-0.48,2.73,2.73,0,0,1-.12-0.3h0.12l-0.12-.24V387.3a0.13,0.13,0,0,1,.12-0.12l-0.12-.18c0.06-.66.12-1.14,0.12-1.44a1.89,1.89,0,0,1-.12-0.36l0.12-.24c-0.18-2.58-.24-4-0.24-4.44a1,1,0,0,1,.24-0.66,9.26,9.26,0,0,1-.36-3.12,8.31,8.31,0,0,0,.12-1V370.2a0.13,0.13,0,0,1,.12-0.12c0-.06-0.06-0.06-0.12-0.06l0.12-.6a0.13,0.13,0,0,0-.12-0.12l0.12-.54v-1a0.13,0.13,0,0,1,.12-0.12q-0.09-4,.36-4c0.3-.42.48-0.36,0.42,0.18C554,364,554,364,554,364Z" transform="translate(-402.47 -362.88)"/><path class="a" d="M557.69,363.18l0.72,0.12,0.18-.12a2.79,2.79,0,0,1,1.14.18c0.06,0,.12,0,0.12-0.06a3.34,3.34,0,0,1,1.32.3l0.18-.12h0.12a0.13,0.13,0,0,1,.12.12l0.24-.12h0.3a0.13,0.13,0,0,1,.12.12,1.46,1.46,0,0,1,.66-0.24,2.34,2.34,0,0,0,.36.12l0.24-.12,0.54,0.12c0.06,0,.18-0.06.42-0.12a0.13,0.13,0,0,1,.12.12l0.54-.12H566a1.43,1.43,0,0,1,.48.12,0.79,0.79,0,0,1,.84,0l0.24-.12a1.29,1.29,0,0,1,1,.6,1.05,1.05,0,0,1-1,.54,0.2,0.2,0,0,0-.24-0.24,0.28,0.28,0,0,0-.3.12l-0.54-.12H564l-0.54.12a0.13,0.13,0,0,0-.12-0.12,8,8,0,0,0-.24,2.58v0.9a2,2,0,0,1,.36,1.32h-0.12a1.37,1.37,0,0,0,.18.78l-0.06.54a9.39,9.39,0,0,0,.06,1.2l-0.06.24,0.06,0.66v0.66c0,0.06,0,.12-0.06.12a6.81,6.81,0,0,1,.3,2.22,2.42,2.42,0,0,0-.12.36,0.86,0.86,0,0,1,.12.42h-0.12l0.12,0.24v0.12c0,0.06-.06.06-0.12,0.06l0.12,0.24a0.13,0.13,0,0,1-.12.12l0.12,0.24a0.13,0.13,0,0,1-.12.12l0.12,0.18a0.13,0.13,0,0,1-.12.12l0.12,0.24a0.13,0.13,0,0,1-.12.12c0,0.06.06,0.06,0.12,0.06l-0.12.78V379l0.12,1.14h-0.12l0.12,0.18c-0.18,2-.3,3.48-0.3,4.26v0.78l0.06,1.32h-0.06c0,0.06,0,.12.06,0.12-0.06.66-.06,1-0.06,1.08,0.06,4.38.06,7.08,0.06,8.22l0.12,0.24-0.12.24a1,1,0,0,0,.12.3l-0.12.54c0.06,0.42.12,0.72,0.12,0.9h-0.12l0.12,0.24a0.13,0.13,0,0,1-.12.12,0.13,0.13,0,0,0,.12.12l-0.18,4.44a6.67,6.67,0,0,1,.06,1.32,0.49,0.49,0,0,1-.66-0.54c0-.18,0-0.24-0.06-0.24l0.06-.78v-1.44l-0.06-.78h0.06l-0.06-.24v-0.9c0-.06,0-0.06.06-0.06s0-.12-0.06-0.12l0.06-.6c0-.18,0-0.3-0.06-0.3l0.06-.54V396.6a9.31,9.31,0,0,0-.18-2.34l0.12-.24-0.12-.66v-0.12a0.13,0.13,0,0,1,.12-0.12l-0.12-.18v-2.7l0.12-.66a1.46,1.46,0,0,1-.24-0.78h0.12a0.13,0.13,0,0,0-.12-0.12c0.06-3.9.18-7.08,0.3-9.66v-1.44a0.13,0.13,0,0,1,.12-0.12l-0.12-.18v-2.1l-0.06-.6h0.06l-0.06-.18v-0.6a0.9,0.9,0,0,1,.06-0.42c0-.06,0-0.12-0.06-0.12a0.66,0.66,0,0,1,.06-0.3c0-.18-0.06-0.72-0.18-1.56h0.12l-0.24-.9,0.12-.54c-0.18-1.8-.3-3.72-0.36-5.7-0.12,0-.54.06-1.32,0.12a11.5,11.5,0,0,1-2.46-.3l-0.18.06c-0.78-.12-1.14-0.24-1.14-0.42v-0.24a0.62,0.62,0,0,1,.36-0.3h0.06Z" transform="translate(-402.47 -362.88)"/><path class="a" d="M581,365.58v0.72c0,0.12-.06.18-0.24,0.18h-0.12c-0.18,0-.24-0.36-0.3-1.14a2.7,2.7,0,0,0-2.16-1.32c-1.8,0-3.18,1.56-4.08,4.62a0.13,0.13,0,0,0,.12.12,1.64,1.64,0,0,1-.24,1.14,0.13,0.13,0,0,0,.12.12,16.5,16.5,0,0,0-.24,3.6V374a0.13,0.13,0,0,1-.12.12c0,0.06.06,0.06,0.12,0.06l-0.12.6V376c0,0.12-.06.18-0.24,0.18a1.31,1.31,0,0,1,.24.6h-0.12a0.13,0.13,0,0,0,.12.12l-0.12,1.32,0.12,0.84-0.12.66a1.54,1.54,0,0,1,.12.42h-0.12l0.12,0.24v0.66l-0.24.36,0.36,1.26-0.12.24a3,3,0,0,1,.12.3h-0.12a1.89,1.89,0,0,0,.12.36c0,0.42.06,1.74,0.12,4.2l0.12,0.18-0.12.24,0.12,0.72c0,0.06-.06.06-0.12,0.06l0.24,2a0.13,0.13,0,0,1-.12.12l0.66,5.76h-0.12l0.48,3.3H575c0.54,2.82,1.32,4.2,2.46,4.2,1.38,0,2.52-1.2,3.42-3.54h0.36a5,5,0,0,1,.06.72,5.14,5.14,0,0,1-2.34,3.24,3,3,0,0,1-1.68.36h-0.36q-1.53,0-2.7-4.5a0.13,0.13,0,0,1,.12-0.12,22.42,22.42,0,0,1-.24-3.54v-0.3a7.51,7.51,0,0,1-.36-1.38h0.12l-0.12-.24v-0.78c0-.06-0.06-0.24-0.12-0.48l0.12-.18a3.13,3.13,0,0,0-.3-1.5v-0.9c0-.06,0-0.12.06-0.12a4.59,4.59,0,0,1-.18-1.32h0.12a2,2,0,0,0-.12-0.36c0-2-.12-5.52-0.36-10.38l0.12-.24a2,2,0,0,0-.12-0.36c0.06-1.38.12-2.16,0.12-2.58h0.12l-0.12-.24v-0.12a0.13,0.13,0,0,1,.12-0.12l-0.12-.24V374.4a0.13,0.13,0,0,1,.12-0.12L573,374.1l0.12-.84-0.12-.18c0.06-.24.12-0.42,0.12-0.48,0-.24-0.06-0.36-0.12-0.36a17,17,0,0,1,1-5.76,17.84,17.84,0,0,1,2.16-2.82,9.78,9.78,0,0,1,1.32-.3h0.36C579.95,363.54,581,364.32,581,365.58Z" transform="translate(-402.47 -362.88)"/><path class="a" d="M587.81,363.12l-0.24.3v1a17.88,17.88,0,0,0-.24,1.8,14.39,14.39,0,0,0,.24,2.64h-0.12l0.12,0.24v0.42a0.13,0.13,0,0,1-.12.12l0.12,0.24v1.32a1.54,1.54,0,0,1-.12.42c0.06,0.24.12,0.42,0.12,0.48a0.13,0.13,0,0,1-.12.12l0.12,0.18c0,0.06-.06.24-0.12,0.48,0,0.06.06,0.06,0.12,0.06a2,2,0,0,1-.24,1l0.12,0.24c0,0.18-.06.24-0.12,0.24l0.12,1.08v1.2a0.13,0.13,0,0,1-.12.12l0.12,0.24v1.2c0,0.78.06,1.86,0.12,3.36a0.13,0.13,0,0,0-.12.12h1.44c0.06,0,.12,0,0.12.06l0.18-.06,0.24,0.06,0.24-.06a0.45,0.45,0,0,0,.3.06c0.18,0,.24,0,0.24-0.06l0.78,0.06h0.12c0.42,0,.9,0,1.68-0.06v-1.26c0-.3-0.06-0.66-0.12-1.2l0.12-.24-0.12-.66v-0.3a0.13,0.13,0,0,1,.12-0.12,0.13,0.13,0,0,0-.12-0.12,17.6,17.6,0,0,1,.18-2.76,7.31,7.31,0,0,1-.06-1.14,35.64,35.64,0,0,1,.3-5.52l-0.12-.24a2,2,0,0,0,.24-0.9,0.13,0.13,0,0,0-.12-0.12,2.59,2.59,0,0,1,.24-1.44,0.13,0.13,0,0,0-.12-0.12l0.12-.54-0.12-.54h0.12l-0.12-.24v-0.9c0-.06.06-0.06,0.12-0.06a0.13,0.13,0,0,0-.12-0.12l0.9-.36c0,0.24.06,0.36,0.12,0.36l-0.12.54v1.44a0.13,0.13,0,0,1-.12.12,0.13,0.13,0,0,0,.12.12c-0.12,0-.3,2.46-0.48,7.32h-0.06l0.06,0.18v0.12c0,0.18-.06.24-0.18,0.24l0.12,0.24v0.78a0.13,0.13,0,0,1-.12.12l0.12,0.18v1.14a8.1,8.1,0,0,1-.12,1,0.13,0.13,0,0,0,.12.12l-0.12.54v0.24l0.12,0.66-0.12.24,0.12,0.24a3,3,0,0,0-.12.3,1.89,1.89,0,0,1,.12.36,2.73,2.73,0,0,1-.12.3l0.18,2.22-0.06.24c0.18,2.16.24,4.32,0.3,6.42l-0.12.24,0.12,0.66v1.32a0.13,0.13,0,0,1-.12.12l0.12,0.24v0.12a1.5,1.5,0,0,1-.12.42l0.12,0.24a0.13,0.13,0,0,1-.12.12l0.12,1.08v1.92a0.79,0.79,0,0,1,0,.84,0.13,0.13,0,0,0,.12.12l-0.12.6v0.66a1.54,1.54,0,0,0,.12.42,2.57,2.57,0,0,1-.24,1.2l0.12,0.24a47.74,47.74,0,0,0,.36,5.64l-0.36.24h-0.3c-0.3-.72-0.48-1.14-0.48-1.2a1.45,1.45,0,0,0,.24-0.78,1.42,1.42,0,0,1-.12-0.48h0.12l-0.12-.18v-0.36a0.13,0.13,0,0,1,.12-0.12l-0.12-.18v-1.68l-0.12-.78h0.12l-0.12-.24v-1.2a0.13,0.13,0,0,1,.12-0.12l-0.12-.24v-1.74c0-.06.06-0.24,0.12-0.48a0.13,0.13,0,0,0-.12-0.12l0.12-.66c-0.06-1.26-.12-2.4-0.12-3.3v-0.78l0.24-.36c-0.24-.06-0.36-0.3-0.36-0.84V389.1a0.13,0.13,0,0,1,.12-0.12,2,2,0,0,0-.12-0.36,1.5,1.5,0,0,1,.12-0.42l-0.24-1.44a0.13,0.13,0,0,1,.12-0.12l-0.12-.54V386a1.52,1.52,0,0,1,.12-0.42,0.13,0.13,0,0,0-.12-0.12,2,2,0,0,0,.12-0.36c-0.06-1-.12-1.68-0.12-2.34l-0.06-.18-0.24.06H589c-0.06,0-.24.06-0.48,0.12a1.5,1.5,0,0,0-.42-0.12h-0.54c0,0.54.06,1.44,0.12,2.58,0,0.18-.06.54-0.12,1.2a31.3,31.3,0,0,1,.18,3.48v0.3c0,0.06,0,.12-0.06.12l0.06,0.24V392l0.12,0.78h-0.12l0.12,0.18a36.84,36.84,0,0,0,.24,3.72c0,0.06-.06.06-0.12,0.06a6.59,6.59,0,0,0,.24,1.38l-0.12.18a0.13,0.13,0,0,0,.12.12l-0.12.54v1.68l0.12,0.78h-0.12a0.13,0.13,0,0,0,.12.12l-0.12.54c0.06,1.62.12,2.52,0.12,2.7l-0.54.42a1.47,1.47,0,0,0-.48-0.54l0.12-.6v-1a0.13,0.13,0,0,1,.12-0.12l-0.12-.24c0.06-1.14.12-1.86,0.12-2.1l-0.12-.24,0.12-.18c-0.06-.78-0.12-1.38-0.12-1.8a0.28,0.28,0,0,1,.12-0.3l-0.12-.6v-0.18c0-.66-0.06-1.62-0.12-2.88a0.13,0.13,0,0,1,.12-0.12l-0.12-.6v-1l-0.12-.78h0.12l-0.12-.24V390l-0.12-.72c0-.06.06-0.06,0.12-0.06a23.65,23.65,0,0,1-.18-3.12v-0.54c0-.06,0-0.12.06-0.12s0-.12-0.06-0.12A0.76,0.76,0,0,1,587,385c-0.06-1.68-.18-2.52-0.3-2.52l0.12-.78c-0.06-2.1-.12-3.48-0.12-4.26h0.12l-0.12-.18a0.54,0.54,0,0,1,.12-0.48l-0.12-.78v-3.42c0-.66.06-1.38,0.12-2.34l-0.12-.18a0.13,0.13,0,0,1,.12-0.12l-0.12-.78v-0.66a0.13,0.13,0,0,1,.12-0.12,4.14,4.14,0,0,1-.24-1l0.12-.24a8.12,8.12,0,0,1-.12-1V366a18.07,18.07,0,0,0,.24-1.8v-1.32Z" transform="translate(-402.47 -362.88)"/><path class="a" d="M599.27,363l0.36,0.24h0.54c0.24,0,.36-0.06.36-0.12l0.54,0.12h2.58a1.8,1.8,0,0,1,1.08.42v0.24l-0.12.24a6,6,0,0,1-1.74-.24,1.4,1.4,0,0,1-.48.12h-0.66a0.86,0.86,0,0,1-.42-0.12,1.41,1.41,0,0,1-.48.12h-0.12c-0.06,0-.06-0.06-0.06-0.12l-0.24.12h-1c0,0.3-.06.42-0.12,0.42a0.13,0.13,0,0,0,.12.12,2.38,2.38,0,0,1-.12.36l0.12,0.54c-0.3,2.16-.42,3.36-0.42,3.66l0.12,0.24-0.12.78c0.06,1.26.12,2,.12,2.22a0.13,0.13,0,0,1-.12.12l0.12,0.54v2a1.42,1.42,0,0,0,.12.48,0.87,0.87,0,0,0-.12.42v1.44L599,378a1.2,1.2,0,0,1,.12.54v0.24a0.87,0.87,0,0,1-.12.42l0.12,0.24a2.47,2.47,0,0,1-.24.9,0.87,0.87,0,0,1,.12.42c-0.06.54-.12,0.84-0.12,0.9L599,381.9l-0.12.66v0.9a0.13,0.13,0,0,1-.12.12L599,384l0.24-.12h3.72a0.51,0.51,0,0,1,.36.36c0,0.3-1.32.48-3.9,0.54a1.6,1.6,0,0,0-.66-0.12v0.12a7.71,7.71,0,0,1,.12,1v0.42c0,0.6-.06,1.38-0.12,2.34a1,1,0,0,1,.12.3h-0.12l0.12,0.24a1.2,1.2,0,0,1-.12.54c0.06,1.62.18,3.06,0.36,4.44H599l0.24,0.6-0.12.66c0.06,0.66.12,1.32,0.12,2h-0.12a3.15,3.15,0,0,1,.18,1.2v0.66c0,0.06,0,.12-0.06.12l0.06,0.24v0.12c0,0.06,0,.12-0.06.12l0.06,0.18c0,0.06,0,.12-0.06.12s0,0.12.06,0.12l-0.06.54v0.36l0.18,0.3a1.14,1.14,0,0,1-.12.48l0.24,1.86h3l0.66-.12a0.65,0.65,0,0,1,.48.24l0.18-.12h0.78a0.51,0.51,0,0,1,.36.36v0.3c-0.24,0-.36.06-0.36,0.24l-0.24-.12h-0.18c-0.24,0-.36.06-0.36,0.12a2.6,2.6,0,0,1-1.2-.24l-0.24.12h-0.54a0.87,0.87,0,0,1-.42-0.12,7.73,7.73,0,0,1-1.68.24,2.38,2.38,0,0,0-.36-0.12c0,0.18-.06.24-0.18,0.24-0.3,0-.54-0.54-0.72-1.56a0.13,0.13,0,0,1,.12-0.12l-0.12-.54V402a11.76,11.76,0,0,0-.06-1.68,18.19,18.19,0,0,0,.06-1.86V396.9a1.18,1.18,0,0,0-.06-0.48c0-.06,0-0.12.06-0.12l-0.06-.78V395c-0.18-2.4-.24-3.72-0.24-3.9v-1.2a0.87,0.87,0,0,0-.12-0.42,1.42,1.42,0,0,0,.12-0.48V388.8l-0.12-.6h0.12a1,1,0,0,1-.12-0.3l0.12-.24a1,1,0,0,1-.12-0.3h0.12a0.13,0.13,0,0,0-.12-0.12l0.12-1.14v-0.66l-0.12-.54h0.12l-0.12-.24v-0.24c0-.06.06-0.06,0.12-0.06a0.13,0.13,0,0,0-.12-0.12l0.12-.6v-2.1l0.12-.66a1,1,0,0,1-.12-0.3h0.12a0.13,0.13,0,0,0-.12-0.12,13.4,13.4,0,0,0,.24-3V376c0-.06,0-0.12.06-0.12l-0.06-.24a31.24,31.24,0,0,0-.24-4,0.13,0.13,0,0,1,.12-0.12l-0.12-.54a34.91,34.91,0,0,1,.42-5.7,0.13,0.13,0,0,0-.12-0.12c0.12-1.5.3-2.22,0.6-2.22h0.18Z" transform="translate(-402.47 -362.88)"/><path class="a" d="M610.31,363c0.84,0.36,2.34,3,4.5,8,0.3,1.14.84,3.6,1.56,7.44h-0.12a48.85,48.85,0,0,1,1,7.56,0.13,0.13,0,0,1-.12.12l0.12,0.18v0.48a0.13,0.13,0,0,1-.12.12l0.12,0.18v1.56a24.84,24.84,0,0,1-2.64,12,13.43,13.43,0,0,1-4.44,4.56,0.65,0.65,0,0,0-.48-0.36c0,0.24-.06.36-0.18,0.36a0.81,0.81,0,0,1-.36-0.9v-1a0.13,0.13,0,0,1,.12-0.12,0.13,0.13,0,0,0-.12-0.12l0.12-.54a1.13,1.13,0,0,0-.12-0.48l0.12-.24a2.87,2.87,0,0,0-.12-0.3,6.28,6.28,0,0,0,.24-1.68l-0.12-.42a2.42,2.42,0,0,0,.12-0.36,0.13,0.13,0,0,0-.12-0.12l0.12-.54v-0.24a9.87,9.87,0,0,1,.12-1.74c-0.06-.72-0.12-1.44-0.12-2.1s0.06-1.62.12-3.12a1.12,1.12,0,0,1-.12-0.48h0.12l-0.12-.18v-0.36a0.13,0.13,0,0,1,.12-0.12l-0.12-.18a0.13,0.13,0,0,1,.12-0.12l-0.12-.24V389a1.4,1.4,0,0,1,.12-0.48,0.79,0.79,0,0,1,0-.84,2.34,2.34,0,0,1-.12-0.36h0.12l-0.12-.24,0.12-.18a2.27,2.27,0,0,1-.12-0.36h0.12l-0.12-.24c0-.06.06-0.06,0.12-0.06l-0.12-.78v-0.9a0.13,0.13,0,0,1,.12-0.12l-0.12-.24V384a0.13,0.13,0,0,1,.12-0.12l-0.12-.24V383.4c0-.06.06-0.06,0.12-0.06l-0.12-.24v-0.54c0-1.62.06-2.46,0.18-2.46l-0.06-.24V375.3c0-.06,0-0.12.06-0.12l-0.06-.18v-0.54c0-.06,0-0.12.06-0.12s0-.12-0.06-0.12l0.06-.54v-0.12a1.87,1.87,0,0,0-.06-0.6l0.06-.66v-1.2a0.87,0.87,0,0,1,.12-0.42,1.42,1.42,0,0,1-.12-0.48V370l0.12-.72a1.23,1.23,0,0,1-.12-0.66l0.12-.18-0.12-.24,0.12-.78-0.12-.24a0.13,0.13,0,0,1,.12-0.12l-0.12-.54v-0.9c0-.06.06-0.06,0.12-0.06l-0.12-.24c0.06-.78.12-1.5,0.12-2.1l0.36-.24h0.24Zm0,1.68,0.06,0.42a4.44,4.44,0,0,0-.06.66c0,0.06,0,.12.06,0.12l-0.06.54v2.22a0.13,0.13,0,0,1-.12.12l0.12,0.24v5.46c0,0.06-.06.06-0.12,0.06l0.12,0.24v0.66a0.13,0.13,0,0,1-.12.12,0.13,0.13,0,0,0,.12.12l-0.12.54c0,0.18.06,0.24,0.12,0.24l-0.12.78v2.52l-0.12.66a1.78,1.78,0,0,1,.12.6,0.13,0.13,0,0,1-.12.12,1,1,0,0,1,.12.3l-0.12.24,0.12,0.18-0.12.24a1.14,1.14,0,0,1,.12.48h-0.12c0,0.06.06,0.06,0.12,0.06l-0.12.6,0.12,0.42h-0.12l0.12,0.24v2.76l0.12,0.54h-0.12a0.13,0.13,0,0,0,.12.12l-0.12.54v2.88c0,0.24.06,0.36,0.12,0.36l-0.12.54v2.58c0,0.66.06,1.38,0.12,2.1a10.26,10.26,0,0,0-.12,1.8v0.3a0.13,0.13,0,0,1-.12.12,0.13,0.13,0,0,0,.12.12l-0.12.54V401a0.13,0.13,0,0,1-.12.12,1,1,0,0,1,.12.3c0,0.18-.06.24-0.12,0.24l0.12,0.78V403a0.87,0.87,0,0,1-.12.42,2.42,2.42,0,0,1,.12.36h-0.12a1.61,1.61,0,0,1,.12.66h0.12a12.36,12.36,0,0,1,1.86-1.68c1.86-2.22,2.82-3.78,2.88-4.56a3.82,3.82,0,0,1,.66-1.5l-0.12-.24a2.21,2.21,0,0,1,.36-0.9l-0.12-.24c0.3,0,.54-2,0.78-5.88h0.12l-0.12-.18a0.13,0.13,0,0,1,.12-0.12l-0.12-.78v-1.44l-0.12-1.32h0.12l-0.12-.24a49.35,49.35,0,0,0-.54-5.34v-0.42c-0.18-.12-0.3-1-0.42-2.58a2.9,2.9,0,0,1-.36-1h0.12c-0.54-2.46-1-4.26-1.32-5.52a9.83,9.83,0,0,1-1.14-2.34,21.76,21.76,0,0,0-2.22-3.66h-0.12C610.37,364.62,610.37,364.68,610.31,364.68Z" transform="translate(-402.47 -362.88)"/></svg>