<svg xmlns="http://www.w3.org/2000/svg" width="169.92" height="42.84" viewBox="0 0 169.92 42.84"><defs><style>.a{fill:#683333;}</style></defs><title>heading-accomodations</title><path class="a" d="M7.64,10.35A13.25,13.25,0,0,0,8,12.81v1a1.42,1.42,0,0,0,.12.48L8,14.49a2.33,2.33,0,0,1,.12.36c0,0.18-.06.24-0.12,0.24C8.48,19.83,9,24,9.5,27.81a0.13,0.13,0,0,1-.12.12q1.08,7.47,1.08,8.46H10.34l2.16,13.2a0.82,0.82,0,0,1-.3.78H12.08c-0.3,0-.6-1.44-1-4.38l-1-5.88h0.12l-0.12-.24a0.13,0.13,0,0,1,.12-0.12,29.44,29.44,0,0,0-.72-3.84,2.33,2.33,0,0,0,.12-0.36,6.41,6.41,0,0,0-.36-1.92,0.13,0.13,0,0,1,.12-0.12L9,30.39H8.12a14.5,14.5,0,0,0-3,.3v0.12A85.15,85.15,0,0,1,3.86,41.13L4,41.37a10.71,10.71,0,0,1-.72,3l0.12,0.24c-0.06,1-.18,1.5-0.36,1.5l0.12,0.24a8.87,8.87,0,0,1-.36,2.88L2.9,49.71c-0.12.78-.24,1.14-0.42,1.14H2.36A0.51,0.51,0,0,1,2,50.49v-0.9a0.13,0.13,0,0,1,.12-0.12A0.13,0.13,0,0,0,2,49.35l0.72-4.08L2.6,45.09l0.54-3.24H3.26l-0.12-.24c0.42-2.22.84-5.4,1.26-9.48,0-.06,0-0.12-0.06-0.12,0.06-1.26.12-1.86,0.3-1.86l-0.12-.24,0.12-.24a0.13,0.13,0,0,0-.12-0.12l0.12-1.14V27.57a0.13,0.13,0,0,1,.12-0.12l-0.12-.18V27.15A0.13,0.13,0,0,1,4.76,27a0.13,0.13,0,0,0-.12-0.12c0.12-1.5.24-2.22,0.36-2.22a0.13,0.13,0,0,0-.12-0.12,29.21,29.21,0,0,1,.6-4.14,0.13,0.13,0,0,0-.12-0.12c0.24-1.86.48-3.24,0.66-4.26L6,15.81a3.69,3.69,0,0,1,.18-1A0.13,0.13,0,0,0,6,14.73c0.3-3.42.6-5.1,0.84-5.1a1.06,1.06,0,0,1,.36-0.06ZM6.86,14.43a39.49,39.49,0,0,1-.72,4.62,0.13,0.13,0,0,0,.12.12A8.75,8.75,0,0,1,6,20.79L6,21c-0.06,1.56-.18,2.34-0.3,2.34a0.13,0.13,0,0,0,.12.12,1.13,1.13,0,0,1-.24.78,0.13,0.13,0,0,0,.12.12c-0.18,1.2-.3,3.06-0.48,5.58a5.3,5.3,0,0,1,2-.36h1.5L9,29.43l-0.36-2L8.72,27A19.82,19.82,0,0,1,8,23.19a1.13,1.13,0,0,0,.12-0.48l-0.24-.3v-1c0-.3-0.12-1.2-0.3-2.76H7.64a29.26,29.26,0,0,1-.42-5.82,2.13,2.13,0,0,0-.48,1.32Z" transform="translate(-2 -8.61)"/><path class="a" d="M24.5,11.85v0.72c0,0.12-.06.18-0.24,0.18H24.14c-0.18,0-.24-0.36-0.3-1.14a2.7,2.7,0,0,0-2.16-1.32c-1.8,0-3.18,1.56-4.08,4.62a0.13,0.13,0,0,0,.12.12,1.65,1.65,0,0,1-.24,1.14,0.13,0.13,0,0,0,.12.12,16.45,16.45,0,0,0-.24,3.6v0.36a0.13,0.13,0,0,1-.12.12c0,0.06.06,0.06,0.12,0.06l-0.12.6v1.26c0,0.12-.06.18-0.24,0.18a1.31,1.31,0,0,1,.24.6H17.12a0.13,0.13,0,0,0,.12.12l-0.12,1.32,0.12,0.84L17.12,26a1.52,1.52,0,0,1,.12.42H17.12l0.12,0.24v0.66L17,27.69,17.36,29l-0.12.24a2.84,2.84,0,0,1,.12.3H17.24a1.94,1.94,0,0,0,.12.36c0,0.42.06,1.74,0.12,4.2l0.12,0.18-0.12.24,0.12,0.72c0,0.06-.06.06-0.12,0.06l0.24,2a0.13,0.13,0,0,1-.12.12l0.66,5.76H18.14l0.48,3.3H18.5c0.54,2.82,1.32,4.2,2.46,4.2,1.38,0,2.52-1.2,3.42-3.54h0.36a5,5,0,0,1,.06.72,5.14,5.14,0,0,1-2.34,3.24,3,3,0,0,1-1.68.36H20.42q-1.53,0-2.7-4.5a0.13,0.13,0,0,1,.12-0.12,22.37,22.37,0,0,1-.24-3.54V43a7.46,7.46,0,0,1-.36-1.38h0.12l-0.12-.24V40.59c0-.06-0.06-0.24-0.12-0.48l0.12-.18a3.11,3.11,0,0,0-.3-1.5v-0.9c0-.06,0-0.12.06-0.12a4.58,4.58,0,0,1-.18-1.32h0.12a1.94,1.94,0,0,0-.12-0.36c0-2-.12-5.52-0.36-10.38l0.12-.24a1.94,1.94,0,0,0-.12-0.36c0.06-1.38.12-2.16,0.12-2.58H16.7l-0.12-.24V21.81a0.13,0.13,0,0,1,.12-0.12l-0.12-.24V20.67a0.13,0.13,0,0,1,.12-0.12l-0.12-.18,0.12-.84-0.12-.18c0.06-.24.12-0.42,0.12-0.48,0-.24-0.06-0.36-0.12-0.36a17,17,0,0,1,1-5.76,17.84,17.84,0,0,1,2.16-2.82,9.84,9.84,0,0,1,1.32-.3h0.36C23.48,9.81,24.5,10.59,24.5,11.85Z" transform="translate(-2 -8.61)"/><path class="a" d="M38.12,11.85v0.72c0,0.12-.06.18-0.24,0.18H37.76c-0.18,0-.24-0.36-0.3-1.14a2.7,2.7,0,0,0-2.16-1.32c-1.8,0-3.18,1.56-4.08,4.62a0.13,0.13,0,0,0,.12.12,1.65,1.65,0,0,1-.24,1.14,0.13,0.13,0,0,0,.12.12,16.45,16.45,0,0,0-.24,3.6v0.36a0.13,0.13,0,0,1-.12.12c0,0.06.06,0.06,0.12,0.06l-0.12.6v1.26c0,0.12-.06.18-0.24,0.18a1.31,1.31,0,0,1,.24.6H30.74a0.13,0.13,0,0,0,.12.12l-0.12,1.32,0.12,0.84L30.74,26a1.52,1.52,0,0,1,.12.42H30.74l0.12,0.24v0.66l-0.24.36L31,29l-0.12.24a2.84,2.84,0,0,1,.12.3H30.86a1.94,1.94,0,0,0,.12.36c0,0.42.06,1.74,0.12,4.2l0.12,0.18-0.12.24,0.12,0.72c0,0.06-.06.06-0.12,0.06l0.24,2a0.13,0.13,0,0,1-.12.12l0.66,5.76H31.76l0.48,3.3H32.12c0.54,2.82,1.32,4.2,2.46,4.2,1.38,0,2.52-1.2,3.42-3.54h0.36a5,5,0,0,1,.06.72,5.14,5.14,0,0,1-2.34,3.24,3,3,0,0,1-1.68.36H34q-1.53,0-2.7-4.5a0.13,0.13,0,0,1,.12-0.12,22.37,22.37,0,0,1-.24-3.54V43a7.46,7.46,0,0,1-.36-1.38H31l-0.12-.24V40.59c0-.06-0.06-0.24-0.12-0.48l0.12-.18a3.11,3.11,0,0,0-.3-1.5v-0.9c0-.06,0-0.12.06-0.12a4.58,4.58,0,0,1-.18-1.32h0.12a1.94,1.94,0,0,0-.12-0.36c0-2-.12-5.52-0.36-10.38l0.12-.24a1.94,1.94,0,0,0-.12-0.36c0.06-1.38.12-2.16,0.12-2.58h0.12l-0.12-.24V21.81a0.13,0.13,0,0,1,.12-0.12l-0.12-.24V20.67a0.13,0.13,0,0,1,.12-0.12l-0.12-.18,0.12-.84-0.12-.18c0.06-.24.12-0.42,0.12-0.48,0-.24-0.06-0.36-0.12-0.36a17,17,0,0,1,1-5.76,17.84,17.84,0,0,1,2.16-2.82,9.84,9.84,0,0,1,1.32-.3h0.36C37.1,9.81,38.12,10.59,38.12,11.85Z" transform="translate(-2 -8.61)"/><path class="a" d="M52.82,17.91H52.7a30.91,30.91,0,0,1,.42,4.14H53a0.13,0.13,0,0,0,.12.12,8.55,8.55,0,0,1-.18,1.44L53.12,24a0.13,0.13,0,0,1-.12.12l0.36,1.74H53.24l0.12,0.24a0.13,0.13,0,0,1-.12.12l0.12,0.54v0.66l-0.12.24a0.25,0.25,0,0,1,.24.24c-0.06.42-.12,0.6-0.12,0.66L53.48,29a2.36,2.36,0,0,0-.12.36,1,1,0,0,1,.12.3,0.13,0.13,0,0,1-.12.12l0.12,0.78v0.54a0.13,0.13,0,0,1-.12.12l0.12,0.24a0.13,0.13,0,0,1-.12.12l0.12,0.54v0.36c0,0.06-.06.06-0.12,0.06l0.12,0.24v0.12a0.13,0.13,0,0,1-.12.12l0.12,0.24v1.32l0.12,0.66a1,1,0,0,0-.12.3,0.13,0.13,0,0,0,.12.12l-0.12.78v1.32a0.13,0.13,0,0,1-.12.12l0.12,0.24a0.13,0.13,0,0,1-.12.12,0.13,0.13,0,0,0,.12.12l-0.12.54V40a0.13,0.13,0,0,1-.12.12l0.12,0.24a0.13,0.13,0,0,1-.12.12,0.13,0.13,0,0,0,.12.12A6.08,6.08,0,0,1,53,42.93C53,43,53.06,43,53.12,43l-0.12.6v0.66a8.36,8.36,0,0,1-2.52,6.3,7.26,7.26,0,0,1-2.1.9,2.7,2.7,0,0,1-2.88-1.68c-0.54-.6-1-2.46-1.44-5.64,0-.06,0-0.12.06-0.12l-0.06-.54c-0.06-1.8-.12-2.82-0.12-3h0.12l-0.12-.24,0.12-.66a0.13,0.13,0,0,0-.12-0.12,1,1,0,0,1,.12-0.3l-0.24-3.36h0.12l-0.12-.24V33.33c0-.06.06-0.06,0.12-0.06L43.82,33V31.35c0-.6.06-1.32,0.12-2.1a0.13,0.13,0,0,0-.12-0.12l0.12-.54V28.23a8.2,8.2,0,0,0-.12-1,2.33,2.33,0,0,0,.12-0.36,0.86,0.86,0,0,1-.12-0.42h0.12a0.13,0.13,0,0,0-.12-0.12A2.33,2.33,0,0,1,43.94,26a15.54,15.54,0,0,1-.24-2.88V22.47a0.13,0.13,0,0,1,.12-0.12l-0.12-.18V22.05a1.42,1.42,0,0,1,.12-0.48l-0.12-.18c0.48-5.1,1-8.22,1.56-9.48,1-2.22,2.28-3.3,3.78-3.3S51.92,11.73,52.82,17.91Zm-7-4.62a2.29,2.29,0,0,1-.54,1.2l0.12,0.24a15.4,15.4,0,0,1-.66,3.18,0.13,0.13,0,0,0,.12.12l-0.12.54v0.12l0.12,0.24c-0.18,0-.3.36-0.36,1,0,0.06.06,0.06,0.12,0.06l-0.12.78v1.92a0.13,0.13,0,0,1-.12.12L44.48,23v0.78l0.12,0.78H44.48l0.12,0.24v0.78a7.65,7.65,0,0,0,.12,1,1,1,0,0,0-.12.3,0.13,0.13,0,0,1,.12.12l-0.24.12,0.12,0.24V29a0.13,0.13,0,0,1-.12.12l0.12,0.24v0.78a0.13,0.13,0,0,1-.12.12l0.12,0.18v1.92a0.13,0.13,0,0,1-.12.12c0.06,0.3.12,0.42,0.24,0.42l-0.12.54v0.12a1.42,1.42,0,0,0,.12.48l-0.12.18a7.65,7.65,0,0,1,.12,1v0.12a0.13,0.13,0,0,1-.12.12,4.28,4.28,0,0,1,.24,1H44.72a0.13,0.13,0,0,0,.12.12L44.72,37l0.12,0.6H44.72a0.13,0.13,0,0,0,.12.12l-0.12.54a1,1,0,0,1,.12.3H44.72l0.12,0.24a0.87,0.87,0,0,1-.12.42,0.13,0.13,0,0,0,.12.12l-0.12.78a39.78,39.78,0,0,0,.66,6.78l-0.12.24a8.72,8.72,0,0,0,1.56,3.18l0.24-.06a4.76,4.76,0,0,0,1.44.3,4.38,4.38,0,0,0,2.52-2c1-2,1.56-5.88,1.56-11.46V36.45a0.13,0.13,0,0,1,.12-0.12c0-.06-0.06-0.06-0.12-0.06l0.12-.6V33a1.41,1.41,0,0,1,.12-0.48,1,1,0,0,1-.12-0.3h0.12L52.7,32V31.89c0-.06.06-0.06,0.12-0.06l-0.12-.24V30.27a13.4,13.4,0,0,0-.24-3h0.12A40.89,40.89,0,0,1,52.16,23a1.06,1.06,0,0,0,.06-0.36c0-.06,0-0.12-0.06-0.12l0.06-.54V20.79c0-.06.06-0.06,0.12-0.06l-0.12-.24V20.37a10.43,10.43,0,0,0-.3-2.34H52a31,31,0,0,0-2.22-8.34,7.62,7.62,0,0,1-1.14-.18c-0.54,0-1.38.72-2.4,2.22a2,2,0,0,1-.6,1.32Z" transform="translate(-2 -8.61)"/><path class="a" d="M59.36,11.37a16.76,16.76,0,0,1,1.38,3.24,8.23,8.23,0,0,1,1.5,3.18v0.36a0.54,0.54,0,0,1,.48.66H63c0.66-.6,2-3.18,3.84-7.74a1.59,1.59,0,0,1,.66-1.14H67.7a1.48,1.48,0,0,1,.54,1.14,0.16,0.16,0,0,0-.18.18v0.48q0,1.35-.36,5.22a11.41,11.41,0,0,1,.12,1.2H67.7l0.12,0.24a0.13,0.13,0,0,1-.12.12l0.24,2.64a0.47,0.47,0,0,1-.24.42,2.4,2.4,0,0,1,.12.36,4.12,4.12,0,0,1-.12.78l0.12,0.54c-0.06,1-.12,1.8-0.12,2.46a1,1,0,0,0,.12.3l-0.12.24c0.06,0.54.12,1,.12,1.32l-0.12.48c0,0.06.06,0.06,0.12,0.06l-0.12.6v1.44a0.13,0.13,0,0,1-.12.12l0.12,0.18v0.36a0.13,0.13,0,0,1-.12.12,1,1,0,0,1,.12.3l-0.12.24a1.8,1.8,0,0,1,.24.78,7.66,7.66,0,0,0-.12,1l0.12,0.42a0.13,0.13,0,0,1-.12.12l0.12,0.54v1.2a1.13,1.13,0,0,0,.12.48l-0.12.24A49.23,49.23,0,0,0,68.18,42H68.06l0.12,0.18v2.34l0.06,1.14H68.18l0.06,0.18v0.78c0,0.06,0,.12-0.06.12l0.18,0.48a1,1,0,0,1-.12.3,27.58,27.58,0,0,1,.24,3l-0.3.24H68.06c-0.3,0-.48-0.48-0.48-1.44H67.7a0.13,0.13,0,0,0-.12-0.12l-0.18-6h0.06a0.65,0.65,0,0,1-.06-0.3,14.61,14.61,0,0,0-.24-3.36,2.36,2.36,0,0,0,.12-0.36,2.84,2.84,0,0,0-.12-0.3l0.12-.42a7.63,7.63,0,0,0-.24-2A0.87,0.87,0,0,0,67.16,36c0-.18-0.06-0.48-0.12-0.9l0.12-.78C67.1,33.93,67,33.63,67,33.45a0.13,0.13,0,0,1,.12-0.12L67,32.79V27.57a0.13,0.13,0,0,1,.12-0.12L67,27.27a0.13,0.13,0,0,1,.12-0.12L67,26.91V26.49c0-.24.06-0.36,0.12-0.36L67,25.59V23.25a0.86,0.86,0,0,1,.12-0.42A1.41,1.41,0,0,1,67,22.35h0.12L67,22.17V21.69a0.13,0.13,0,0,1,.12-0.12L67,21.39l0.12-.24A0.86,0.86,0,0,1,67,20.73h0.12L67,20.49V20.13a8.6,8.6,0,0,0-.12-1.44A11,11,0,0,0,67,17.13v-0.3a1.42,1.42,0,0,1,.12-0.48L67,16.17l0.12-.6L67,15a12.74,12.74,0,0,0,.24-2.64V12.27H67.16a22.49,22.49,0,0,1-1.8,3.78c0,0.78-.78,2.22-2.34,4.2H62.84a19.16,19.16,0,0,1-1.56-3.12,46.85,46.85,0,0,0-2.34-4.86H58.82l0.12,0.24v1.32a0.13,0.13,0,0,1-.12.12,1,1,0,0,1,.12.3l0.12,1.8-0.12.24,0.12,0.18a0.13,0.13,0,0,1-.12.12l0.12,0.54v0.78a0.13,0.13,0,0,0,.12.12,2.59,2.59,0,0,1-.24,1.2,2.4,2.4,0,0,1,.12.36l-0.12.24a0.13,0.13,0,0,0,.12.12l-0.12.78V23a0.87,0.87,0,0,0,.12.42l-0.12.24a7.83,7.83,0,0,0,.24,2.1c-0.06.66-.12,1.14-0.12,1.56v1.86a0.13,0.13,0,0,1-.12.12l0.12,0.24v0.3a1.41,1.41,0,0,1-.12.48,0.87,0.87,0,0,1,.12.42v0.36l-0.12.18,0.24,0.12a2.36,2.36,0,0,1-.12.36,1.06,1.06,0,0,0,.24.84l-0.12.6v0.3l0.12,0.66a0.13,0.13,0,0,1-.12.12L59.3,35v0.66a0.13,0.13,0,0,1-.12.12l0.18,0.66L59.3,37a19.18,19.18,0,0,0,.18,2.16c0,0.06-.06.06-0.12,0.06l0.12,0.6v1.56a0.87,0.87,0,0,0,.12.42,0.13,0.13,0,0,1-.12.12,18.34,18.34,0,0,1,.36,4.2H59.72a1.62,1.62,0,0,1,.24.78H59.84L60,47.13c0,0.48.06,1.86,0.18,4.2L60,51.45H59.84q-0.45,0-.54-1.44l0.06-.24a8.49,8.49,0,0,0-.18-1.32,0.13,0.13,0,0,1,.12-0.12l-0.12-.54V47.43c-0.18-4.38-.3-7.14-0.48-8.28h0.12l-0.12-.24V38a0.87,0.87,0,0,0-.12-0.42,2.36,2.36,0,0,0,.12-0.36l-0.12-.78H58.7l-0.18-1.08,0.06-.24a1.05,1.05,0,0,1-.06-0.36h0.06l-0.06-.18v-2l-0.12-.72h0.12l-0.12-.24V30.93a1.94,1.94,0,0,0-.12-0.9c0.06-.54.12-0.9,0.12-1.2V25.89a0.87,0.87,0,0,1,.12-0.42l-0.12-.24c-0.06-2.28-.12-3.78-0.12-4.44a17.57,17.57,0,0,1,.24-2.64l-0.36-5.76h0.12l-0.12-.24V11.91a8.2,8.2,0,0,1,.12-1l-0.12-.24c0.06-.54.18-0.78,0.42-0.78S59.18,10.41,59.36,11.37Z" transform="translate(-2 -8.61)"/><path class="a" d="M82.76,17.91H82.64a30.91,30.91,0,0,1,.42,4.14H82.94a0.13,0.13,0,0,0,.12.12,8.55,8.55,0,0,1-.18,1.44L83.06,24a0.13,0.13,0,0,1-.12.12l0.36,1.74H83.18l0.12,0.24a0.13,0.13,0,0,1-.12.12l0.12,0.54v0.66l-0.12.24a0.25,0.25,0,0,1,.24.24c-0.06.42-.12,0.6-0.12,0.66L83.42,29a2.36,2.36,0,0,0-.12.36,1,1,0,0,1,.12.3,0.13,0.13,0,0,1-.12.12l0.12,0.78v0.54a0.13,0.13,0,0,1-.12.12l0.12,0.24a0.13,0.13,0,0,1-.12.12l0.12,0.54v0.36c0,0.06-.06.06-0.12,0.06l0.12,0.24v0.12a0.13,0.13,0,0,1-.12.12l0.12,0.24v1.32l0.12,0.66a1,1,0,0,0-.12.3,0.13,0.13,0,0,0,.12.12l-0.12.78v1.32a0.13,0.13,0,0,1-.12.12l0.12,0.24a0.13,0.13,0,0,1-.12.12,0.13,0.13,0,0,0,.12.12l-0.12.54V40a0.13,0.13,0,0,1-.12.12l0.12,0.24a0.13,0.13,0,0,1-.12.12,0.13,0.13,0,0,0,.12.12,6.08,6.08,0,0,1-.36,2.34C82.94,43,83,43,83.06,43l-0.12.6v0.66a8.36,8.36,0,0,1-2.52,6.3,7.26,7.26,0,0,1-2.1.9,2.7,2.7,0,0,1-2.88-1.68c-0.54-.6-1-2.46-1.44-5.64,0-.06,0-0.12.06-0.12L74,43.47c-0.06-1.8-.12-2.82-0.12-3H74l-0.12-.24L74,39.57a0.13,0.13,0,0,0-.12-0.12,1,1,0,0,1,.12-0.3l-0.24-3.36h0.12l-0.12-.24V33.33c0-.06.06-0.06,0.12-0.06L73.76,33V31.35c0-.6.06-1.32,0.12-2.1a0.13,0.13,0,0,0-.12-0.12l0.12-.54V28.23a8.2,8.2,0,0,0-.12-1,2.33,2.33,0,0,0,.12-0.36,0.86,0.86,0,0,1-.12-0.42h0.12a0.13,0.13,0,0,0-.12-0.12A2.33,2.33,0,0,1,73.88,26a15.54,15.54,0,0,1-.24-2.88V22.47a0.13,0.13,0,0,1,.12-0.12l-0.12-.18V22.05a1.42,1.42,0,0,1,.12-0.48l-0.12-.18c0.48-5.1,1-8.22,1.56-9.48,1-2.22,2.28-3.3,3.78-3.3S81.86,11.73,82.76,17.91Zm-7-4.62a2.29,2.29,0,0,1-.54,1.2l0.12,0.24a15.4,15.4,0,0,1-.66,3.18,0.13,0.13,0,0,0,.12.12l-0.12.54v0.12l0.12,0.24c-0.18,0-.3.36-0.36,1,0,0.06.06,0.06,0.12,0.06l-0.12.78v1.92a0.13,0.13,0,0,1-.12.12L74.42,23v0.78l0.12,0.78H74.42l0.12,0.24v0.78a7.65,7.65,0,0,0,.12,1,1,1,0,0,0-.12.3,0.13,0.13,0,0,1,.12.12l-0.24.12,0.12,0.24V29a0.13,0.13,0,0,1-.12.12l0.12,0.24v0.78a0.13,0.13,0,0,1-.12.12l0.12,0.18v1.92a0.13,0.13,0,0,1-.12.12c0.06,0.3.12,0.42,0.24,0.42l-0.12.54v0.12a1.42,1.42,0,0,0,.12.48l-0.12.18a7.65,7.65,0,0,1,.12,1v0.12a0.13,0.13,0,0,1-.12.12,4.28,4.28,0,0,1,.24,1H74.66a0.13,0.13,0,0,0,.12.12L74.66,37l0.12,0.6H74.66a0.13,0.13,0,0,0,.12.12l-0.12.54a1,1,0,0,1,.12.3H74.66l0.12,0.24a0.87,0.87,0,0,1-.12.42,0.13,0.13,0,0,0,.12.12l-0.12.78a39.78,39.78,0,0,0,.66,6.78l-0.12.24a8.72,8.72,0,0,0,1.56,3.18L77,50.25a4.76,4.76,0,0,0,1.44.3,4.38,4.38,0,0,0,2.52-2c1-2,1.56-5.88,1.56-11.46V36.45a0.13,0.13,0,0,1,.12-0.12c0-.06-0.06-0.06-0.12-0.06l0.12-.6V33a1.41,1.41,0,0,1,.12-0.48,1,1,0,0,1-.12-0.3h0.12L82.64,32V31.89c0-.06.06-0.06,0.12-0.06l-0.12-.24V30.27a13.4,13.4,0,0,0-.24-3h0.12A40.89,40.89,0,0,1,82.1,23a1.06,1.06,0,0,0,.06-0.36c0-.06,0-0.12-0.06-0.12l0.06-.54V20.79c0-.06.06-0.06,0.12-0.06l-0.12-.24V20.37a10.43,10.43,0,0,0-.3-2.34H82a31,31,0,0,0-2.22-8.34,7.62,7.62,0,0,1-1.14-.18c-0.54,0-1.38.72-2.4,2.22a2,2,0,0,1-.6,1.32Z" transform="translate(-2 -8.61)"/><path class="a" d="M89.24,9.27c0.84,0.36,2.34,3,4.5,8,0.3,1.14.84,3.6,1.56,7.44H95.18a48.84,48.84,0,0,1,1,7.56,0.13,0.13,0,0,1-.12.12l0.12,0.18V33a0.13,0.13,0,0,1-.12.12l0.12,0.18v1.56a24.84,24.84,0,0,1-2.64,12,13.43,13.43,0,0,1-4.44,4.56,0.65,0.65,0,0,0-.48-0.36c0,0.24-.06.36-0.18,0.36a0.81,0.81,0,0,1-.36-0.9v-1a0.13,0.13,0,0,1,.12-0.12,0.13,0.13,0,0,0-.12-0.12l0.12-.54a1.12,1.12,0,0,0-.12-0.48l0.12-.24a2.75,2.75,0,0,0-.12-0.3,6.28,6.28,0,0,0,.24-1.68l-0.12-.42a2.42,2.42,0,0,0,.12-0.36,0.13,0.13,0,0,0-.12-0.12l0.12-.54V44.43a10,10,0,0,1,.12-1.74c-0.06-.72-0.12-1.44-0.12-2.1s0.06-1.62.12-3.12A1.13,1.13,0,0,1,88.34,37h0.12l-0.12-.18V36.45a0.13,0.13,0,0,1,.12-0.12l-0.12-.18A0.13,0.13,0,0,1,88.46,36l-0.12-.24V35.25a1.42,1.42,0,0,1,.12-0.48,0.8,0.8,0,0,1,0-.84,2.41,2.41,0,0,1-.12-0.36h0.12l-0.12-.24,0.12-.18a2.34,2.34,0,0,1-.12-0.36h0.12l-0.12-.24c0-.06.06-0.06,0.12-0.06l-0.12-.78v-0.9a0.13,0.13,0,0,1,.12-0.12l-0.12-.24V30.27a0.13,0.13,0,0,1,.12-0.12l-0.12-.24V29.67c0-.06.06-0.06,0.12-0.06l-0.12-.24V28.83c0-1.62.06-2.46,0.18-2.46l-0.06-.24V21.57c0-.06,0-0.12.06-0.12l-0.06-.18V20.73c0-.06,0-0.12.06-0.12s0-.12-0.06-0.12L88.52,20V19.83a1.84,1.84,0,0,0-.06-0.6l0.06-.66v-1.2A0.87,0.87,0,0,1,88.64,17a1.42,1.42,0,0,1-.12-0.48V16.29l0.12-.72a1.23,1.23,0,0,1-.12-0.66l0.12-.18-0.12-.24,0.12-.78-0.12-.24a0.13,0.13,0,0,1,.12-0.12l-0.12-.54v-0.9c0-.06.06-0.06,0.12-0.06l-0.12-.24c0.06-.78.12-1.5,0.12-2.1L89,9.27h0.24Zm0,1.68,0.06,0.42a4.51,4.51,0,0,0-.06.66c0,0.06,0,.12.06,0.12l-0.06.54v2.22a0.13,0.13,0,0,1-.12.12l0.12,0.24v5.46c0,0.06-.06.06-0.12,0.06L89.24,21v0.66a0.13,0.13,0,0,1-.12.12,0.13,0.13,0,0,0,.12.12l-0.12.54c0,0.18.06,0.24,0.12,0.24l-0.12.78V26L89,26.67a1.78,1.78,0,0,1,.12.6,0.13,0.13,0,0,1-.12.12,1,1,0,0,1,.12.3L89,27.93l0.12,0.18L89,28.35a1.14,1.14,0,0,1,.12.48H89c0,0.06.06,0.06,0.12,0.06l-0.12.6,0.12,0.42H89l0.12,0.24v2.76l0.12,0.54H89.12a0.13,0.13,0,0,0,.12.12l-0.12.54V37c0,0.24.06,0.36,0.12,0.36l-0.12.54v2.58c0,0.66.06,1.38,0.12,2.1a10.13,10.13,0,0,0-.12,1.8v0.3a0.13,0.13,0,0,1-.12.12,0.13,0.13,0,0,0,.12.12L89,45.45v1.8a0.13,0.13,0,0,1-.12.12,1,1,0,0,1,.12.3c0,0.18-.06.24-0.12,0.24L89,48.69v0.54a0.86,0.86,0,0,1-.12.42A2.35,2.35,0,0,1,89,50H88.88a1.59,1.59,0,0,1,.12.66h0.12A12.36,12.36,0,0,1,91,49c1.86-2.22,2.82-3.78,2.88-4.56a3.82,3.82,0,0,1,.66-1.5l-0.12-.24a2.21,2.21,0,0,1,.36-0.9l-0.12-.24c0.3,0,.54-2,0.78-5.88h0.12l-0.12-.18a0.13,0.13,0,0,1,.12-0.12l-0.12-.78V33.15L95.3,31.83h0.12l-0.12-.24a49.34,49.34,0,0,0-.54-5.34V25.83c-0.18-.12-0.3-1-0.42-2.58a2.9,2.9,0,0,1-.36-1H94.1c-0.54-2.46-1-4.26-1.32-5.52a9.83,9.83,0,0,1-1.14-2.34,21.76,21.76,0,0,0-2.22-3.66H89.3C89.3,10.89,89.3,11,89.24,11Z" transform="translate(-2 -8.61)"/><path class="a" d="M106.46,12.81v1c0,0.06.06,0.24,0.12,0.48l-0.12.18a1.89,1.89,0,0,0,.12.36c0,0.18-.06.24-0.12,0.24,0.48,4.8,1,8.88,1.5,12.72a0.13,0.13,0,0,1-.12.12q1.08,7.47,1.08,8.46H108.8L111,49.59c-0.06.54-.12,0.78-0.3,0.78h-0.12c-0.3,0-.6-1.44-1-4.38l-1-5.88h0.12l-0.12-.24a0.13,0.13,0,0,1,.12-0.12,29.33,29.33,0,0,0-.72-3.84,1.89,1.89,0,0,1,.12-0.36,6.05,6.05,0,0,0-.36-1.92,0.13,0.13,0,0,1,.12-0.12l-0.42-3.12h-0.84a15.41,15.41,0,0,0-3,.3v0.12a85.15,85.15,0,0,1-1.26,10.32l0.12,0.24a10.7,10.7,0,0,1-.72,3l0.12,0.24c-0.06,1-.18,1.5-0.36,1.5l0.12,0.24a8.89,8.89,0,0,1-.36,2.88l0.12,0.48c-0.12.78-.24,1.14-0.42,1.14h-0.12a0.51,0.51,0,0,1-.36-0.36v-0.9a0.13,0.13,0,0,1,.12-0.12,0.13,0.13,0,0,0-.12-0.12l0.72-4.08-0.12-.18,0.54-3.24h0.12l-0.12-.24c0.42-2.22.84-5.34,1.26-9.48,0-.06,0-0.12-0.06-0.12,0.06-1.26.12-1.86,0.3-1.86L103,29.91l0.12-.24a0.13,0.13,0,0,0-.12-0.12l0.12-1.14V27.57a0.13,0.13,0,0,1,.12-0.12l-0.12-.18V27.15a0.13,0.13,0,0,1,.12-0.12,0.13,0.13,0,0,0-.12-0.12c0.12-1.5.24-2.22,0.36-2.22a0.13,0.13,0,0,0-.12-0.12,24,24,0,0,1,.6-4.14,0.13,0.13,0,0,0-.12-0.12c0.24-1.86.48-3.24,0.66-4.26l-0.06-.24a4.14,4.14,0,0,1,.18-1,0.13,0.13,0,0,0-.12-0.12c0.3-3.42.54-5.1,0.84-5.1a0.77,0.77,0,0,1,.36-0.06l0.42,0.78A13.21,13.21,0,0,0,106.46,12.81Zm-1.86,6.24a0.13,0.13,0,0,0,.12.12c-0.18,1.08-.3,1.62-0.3,1.62L104.48,21c-0.06,1.56-.18,2.34-0.3,2.34a0.13,0.13,0,0,0,.12.12,0.87,0.87,0,0,1-.24.78,0.13,0.13,0,0,0,.12.12c-0.18,1.2-.3,3-0.48,5.58a5.3,5.3,0,0,1,2-.36h1.5l0.24-.12-0.36-2,0.12-.42a19.84,19.84,0,0,1-.72-3.84,1.42,1.42,0,0,0,.12-0.48l-0.24-.3v-1c0-.3-0.12-1.14-0.3-2.76h0.06a28.09,28.09,0,0,1-.42-5.82c-0.18,0-.3.42-0.48,1.32l0.12,0.24A39.42,39.42,0,0,1,104.6,19.05Z" transform="translate(-2 -8.61)"/><path class="a" d="M114.14,9.45l0.72,0.12L115,9.45a2.79,2.79,0,0,1,1.14.18c0.06,0,.12,0,0.12-0.06a3.34,3.34,0,0,1,1.32.3l0.18-.12h0.12a0.13,0.13,0,0,1,.12.12l0.24-.12h0.3a0.13,0.13,0,0,1,.12.12,1.46,1.46,0,0,1,.66-0.24,2.34,2.34,0,0,0,.36.12L120,9.63l0.54,0.12c0.06,0,.18-0.06.42-0.12a0.13,0.13,0,0,1,.12.12l0.54-.12h0.9a1.43,1.43,0,0,1,.48.12,0.79,0.79,0,0,1,.84,0L124,9.63a1.29,1.29,0,0,1,1,.6,1.05,1.05,0,0,1-1,.54,0.2,0.2,0,0,0-.24-0.24,0.28,0.28,0,0,0-.3.12L123,10.53H120.5l-0.54.12a0.13,0.13,0,0,0-.12-0.12,8,8,0,0,0-.24,2.58V14a2,2,0,0,1,.36,1.32h-0.12a1.37,1.37,0,0,0,.18.78l-0.06.54a9.39,9.39,0,0,0,.06,1.2l-0.06.24L120,18.75v0.66c0,0.06,0,.12-0.06.12a6.81,6.81,0,0,1,.3,2.22,2.42,2.42,0,0,0-.12.36,0.86,0.86,0,0,1,.12.42h-0.12l0.12,0.24v0.12c0,0.06-.06.06-0.12,0.06l0.12,0.24a0.13,0.13,0,0,1-.12.12l0.12,0.24a0.13,0.13,0,0,1-.12.12l0.12,0.18a0.13,0.13,0,0,1-.12.12l0.12,0.24a0.13,0.13,0,0,1-.12.12c0,0.06.06,0.06,0.12,0.06l-0.12.78v0.12l0.12,1.14h-0.12l0.12,0.18c-0.18,2-.3,3.48-0.3,4.26v0.78L120,33H120c0,0.06,0,.12.06,0.12-0.06.66-.06,1-0.06,1.08,0.06,4.38.06,7.08,0.06,8.22l0.12,0.24-0.12.24a1,1,0,0,0,.12.3l-0.12.54c0.06,0.42.12,0.72,0.12,0.9H120l0.12,0.24A0.13,0.13,0,0,1,120,45a0.13,0.13,0,0,0,.12.12L120,49.53a6.67,6.67,0,0,1,.06,1.32,0.49,0.49,0,0,1-.66-0.54c0-.18,0-0.24-0.06-0.24l0.06-.78V47.85l-0.06-.78h0.06l-0.06-.24v-0.9c0-.06,0-0.06.06-0.06s0-.12-0.06-0.12l0.06-.6c0-.18,0-0.3-0.06-0.3l0.06-.54V42.87a9.31,9.31,0,0,0-.18-2.34l0.12-.24-0.12-.66V39.51a0.13,0.13,0,0,1,.12-0.12l-0.12-.18v-2.7l0.12-.66a1.46,1.46,0,0,1-.24-0.78h0.12a0.13,0.13,0,0,0-.12-0.12c0.06-3.9.18-7.08,0.3-9.66V23.85a0.13,0.13,0,0,1,.12-0.12l-0.12-.18v-2.1l-0.06-.6h0.06l-0.06-.18v-0.6a0.9,0.9,0,0,1,.06-0.42c0-.06,0-0.12-0.06-0.12a0.66,0.66,0,0,1,.06-0.3c0-.18-0.06-0.72-0.18-1.56h0.12l-0.24-.9,0.12-.54c-0.18-1.8-.3-3.72-0.36-5.7-0.12,0-.54.06-1.32,0.12a11.5,11.5,0,0,1-2.46-.3l-0.18.06c-0.78-.12-1.14-0.24-1.14-0.42V9.75a0.62,0.62,0,0,1,.36-0.3h0.06Z" transform="translate(-2 -8.61)"/><path class="a" d="M130.58,10.29l-0.06,1.32v0.66a47.14,47.14,0,0,1-.36,6.3,12.74,12.74,0,0,1,.12,1.56v0.12a0.13,0.13,0,0,1-.12.12l0.12,0.24v3.66l0.12,0.66a0.13,0.13,0,0,1-.12.12l0.12,0.78V27a0.13,0.13,0,0,1-.12.12l0.12,0.24v0.72a0.13,0.13,0,0,1-.12.12l0.12,0.24v1.2l0.12,0.78H130.4l0.12,0.24a0.13,0.13,0,0,1-.12.12l0.12,0.24v0.66a8.1,8.1,0,0,1-.12,1,0.13,0.13,0,0,0,.12.12l-0.12.54a1.79,1.79,0,0,0,.12.6,11.56,11.56,0,0,0-.12,1.2v1.68a1.56,1.56,0,0,0,.12.42,1.42,1.42,0,0,0-.12.48V39a1.54,1.54,0,0,0,.12.42l-0.12.24c0.06,0.42.12,0.6,0.12,0.66l-0.12.42a1.77,1.77,0,0,1,.12.6H130.4l0.12,0.18v0.12l-0.24.78a0.25,0.25,0,0,1,.24.24v1.2a0.13,0.13,0,0,1-.12.12l0.12,0.24v0.12c0,0.06-.06.06-0.12,0.06l0.18,1.38-0.06.18a11.5,11.5,0,0,0,.18,2,2.71,2.71,0,0,0-.12.3c0.06,1.38.12,2.1,0.12,2.34l-0.12.24c0.06,0.06-.18.06-0.66-0.12V49.23a11.33,11.33,0,0,0-.12-1.2,0.13,0.13,0,0,1,.12-0.12c-0.12-1.26-.18-2.52-0.18-3.9l0.06-.66a7.31,7.31,0,0,1-.06-1.14V41.13l-0.12-.54h0.12l-0.12-.24V40.23a0.28,0.28,0,0,1,.12-0.3l-0.12-.6V34.71a1.4,1.4,0,0,1,.12-0.48,2.73,2.73,0,0,1-.12-0.3h0.12l-0.12-.24V33.57a0.13,0.13,0,0,1,.12-0.12l-0.12-.18c0.06-.66.12-1.14,0.12-1.44a1.89,1.89,0,0,1-.12-0.36l0.12-.24c-0.18-2.58-.24-4-0.24-4.44a1,1,0,0,1,.24-0.66,9.26,9.26,0,0,1-.36-3.12,8.31,8.31,0,0,0,.12-1V16.47a0.13,0.13,0,0,1,.12-0.12c0-.06-0.06-0.06-0.12-0.06l0.12-.6a0.13,0.13,0,0,0-.12-0.12l0.12-.54v-1a0.13,0.13,0,0,1,.12-0.12q-0.09-4,.36-4c0.3-.42.48-0.36,0.42,0.18C130.52,10.23,130.52,10.29,130.58,10.29Z" transform="translate(-2 -8.61)"/><path class="a" d="M144.14,17.91H144a31.1,31.1,0,0,1,.42,4.14h-0.12a0.13,0.13,0,0,0,.12.12,8.51,8.51,0,0,1-.18,1.44L144.44,24a0.13,0.13,0,0,1-.12.12l0.36,1.74h-0.12l0.12,0.24a0.13,0.13,0,0,1-.12.12l0.12,0.54v0.66l-0.12.24a0.25,0.25,0,0,1,.24.24c-0.06.42-.12,0.6-0.12,0.66L144.8,29a2.42,2.42,0,0,0-.12.36,1,1,0,0,1,.12.3,0.13,0.13,0,0,1-.12.12l0.12,0.78v0.54a0.13,0.13,0,0,1-.12.12l0.12,0.24a0.13,0.13,0,0,1-.12.12l0.12,0.54v0.36c0,0.06-.06.06-0.12,0.06l0.12,0.24v0.12a0.13,0.13,0,0,1-.12.12l0.12,0.24v1.32l0.12,0.66a1,1,0,0,0-.12.3,0.13,0.13,0,0,0,.12.12l-0.12.78v1.32a0.13,0.13,0,0,1-.12.12l0.12,0.24a0.13,0.13,0,0,1-.12.12,0.13,0.13,0,0,0,.12.12l-0.12.54V40a0.13,0.13,0,0,1-.12.12l0.12,0.24a0.13,0.13,0,0,1-.12.12,0.13,0.13,0,0,0,.12.12q-0.18,2.34-.36,2.34c0,0.06.06,0.06,0.12,0.06l-0.12.6v0.66a8.36,8.36,0,0,1-2.52,6.3,7.26,7.26,0,0,1-2.1.9,2.7,2.7,0,0,1-2.88-1.68c-0.54-.6-1-2.46-1.44-5.64,0-.06,0-0.12.06-0.12l-0.06-.54c-0.06-1.8-.12-2.82-0.12-3h0.12l-0.12-.24,0.12-.66a0.13,0.13,0,0,0-.12-0.12,1,1,0,0,1,.12-0.3l-0.24-3.36h0.12l-0.12-.24V33.33c0-.06.06-0.06,0.12-0.06L135.14,33V31.35c0-.6.06-1.32,0.12-2.1a0.13,0.13,0,0,0-.12-0.12l0.12-.54V28.23a8.31,8.31,0,0,0-.12-1,2.38,2.38,0,0,0,.12-0.36,0.86,0.86,0,0,1-.12-0.42h0.12a0.13,0.13,0,0,0-.12-0.12,2.27,2.27,0,0,1,.12-0.36,15.5,15.5,0,0,1-.24-2.88V22.47a0.13,0.13,0,0,1,.12-0.12L135,22.17V22.05a1.41,1.41,0,0,1,.12-0.48L135,21.39c0.48-5.1,1-8.22,1.56-9.48,1-2.22,2.28-3.3,3.78-3.3S143.24,11.73,144.14,17.91Zm-7-4.62a2.27,2.27,0,0,1-.54,1.2l0.12,0.24a15.38,15.38,0,0,1-.66,3.18,0.13,0.13,0,0,0,.12.12l-0.12.54v0.12l0.12,0.24c-0.18,0-.3.36-0.36,1,0,0.06.06,0.06,0.12,0.06l-0.12.78v1.92a0.13,0.13,0,0,1-.12.12L135.8,23v0.78l0.12,0.78H135.8l0.12,0.24v0.78a7.71,7.71,0,0,0,.12,1,1,1,0,0,0-.12.3A0.13,0.13,0,0,1,136,27l-0.24.12,0.12,0.24V29a0.13,0.13,0,0,1-.12.12l0.12,0.24v0.78a0.13,0.13,0,0,1-.12.12l0.12,0.18v1.92a0.13,0.13,0,0,1-.12.12c0.06,0.3.12,0.42,0.24,0.42l-0.12.54v0.12a1.43,1.43,0,0,0,.12.48l-0.12.18a7.71,7.71,0,0,1,.12,1v0.12a0.13,0.13,0,0,1-.12.12,4.3,4.3,0,0,1,.24,1H136a0.13,0.13,0,0,0,.12.12L136,37l0.12,0.6H136a0.13,0.13,0,0,0,.12.12l-0.12.54a1,1,0,0,1,.12.3H136l0.12,0.24a0.86,0.86,0,0,1-.12.42,0.13,0.13,0,0,0,.12.12l-0.12.78a39.78,39.78,0,0,0,.66,6.78l-0.12.24a8.74,8.74,0,0,0,1.56,3.18l0.24-.06a4.75,4.75,0,0,0,1.44.3,4.38,4.38,0,0,0,2.52-2c1-2,1.56-5.88,1.56-11.46V36.45a0.13,0.13,0,0,1,.12-0.12c0-.06-0.06-0.06-0.12-0.06l0.12-.6V33a1.4,1.4,0,0,1,.12-0.48,1,1,0,0,1-.12-0.3h0.12L144,32V31.89c0-.06.06-0.06,0.12-0.06L144,31.59V30.27a13.4,13.4,0,0,0-.24-3h0.12a40.67,40.67,0,0,1-.42-4.32,1.07,1.07,0,0,0,.06-0.36c0-.06,0-0.12-0.06-0.12l0.06-.54V20.79c0-.06.06-0.06,0.12-0.06l-0.12-.24V20.37a10.43,10.43,0,0,0-.3-2.34h0.12a31,31,0,0,0-2.22-8.34A7.67,7.67,0,0,1,140,9.51c-0.54,0-1.38.72-2.4,2.22a2,2,0,0,1-.6,1.32Z" transform="translate(-2 -8.61)"/><path class="a" d="M150,9.15c0.6,0.42,1.2,1.62,1.86,3.54,2.58,5.1,5,9.66,7.32,13.8h0.12L159.2,26v-2a1.3,1.3,0,0,0-.12-0.6l0.12-.66V21c0-.06.06-0.06,0.12-0.06a2.47,2.47,0,0,1-.24-1.26V19.47a0.13,0.13,0,0,1,.12-0.12L159,18l0.06-.42c-0.06-.66-0.06-1.14-0.06-1.5h0.06a0.66,0.66,0,0,1-.06-0.3,1.17,1.17,0,0,1,.06-0.48,6.59,6.59,0,0,1-.06-1V14c0-.06,0-0.06.06-0.06s0-.12-0.06-0.12l0.06-1.14V12.57q-0.18-1.89-.18-2.16V9.93a0.66,0.66,0,0,1,.3-0.3,1.71,1.71,0,0,1,.72.78L159.8,11a2.42,2.42,0,0,0,.12.36,0.13,0.13,0,0,1-.12.12L159.92,12c-0.06,1.74-.12,3-0.12,3.9l0.12,0.54-0.12.24a0.86,0.86,0,0,1,.12.42,0.13,0.13,0,0,1-.12.12l0.12,0.24c0.06,2.1.12,3.84,0.12,5.22v0.24a0.13,0.13,0,0,1-.12.12L160,23.19V24a4.57,4.57,0,0,0,.06.9l-0.18,1.32c0,0.36.06,0.84,0.12,1.5-0.06,1.5-.12,2.88-0.12,4.08,0.06,0.54.12,0.84,0.12,0.9h-0.12L160,33v0.42a0.13,0.13,0,0,1-.12.12,0.13,0.13,0,0,0,.12.12l-0.12,1.14v0.9a4.66,4.66,0,0,0,.12.9l-0.24,2.16L159.92,39l-0.12.24,0.12,0.66a0.13,0.13,0,0,1-.12.12l0.12,0.24v0.54a0.13,0.13,0,0,1-.12.12l0.12,0.24v1.14c0,0.06-.06.06-0.12,0.06l0.12,0.24v1.26a0.86,0.86,0,0,1-.12.42,1.4,1.4,0,0,1,.12.48V45a0.13,0.13,0,0,1-.12.12,0.13,0.13,0,0,0,.12.12,30.64,30.64,0,0,0-.24,3.84l-0.12.24c0,0.06.06,0.06,0.12,0.06-0.06,1-.18,1.5-0.48,1.5H159q-0.36,0-.36-1.8a0.2,0.2,0,0,0,.24-0.24V47.55a0.13,0.13,0,0,1,.12-0.12,0.13,0.13,0,0,0-.12-0.12,8.53,8.53,0,0,1,.3-1.68,0.45,0.45,0,0,0-.18-0.36l0.06-.78V44.37L159,43.59h0.06c0-.06,0-0.12-0.06-0.12l0.06-.54V39.51a0.13,0.13,0,0,1,.12-0.12l-0.12-.18v-5c0-.06.06-0.06,0.12-0.06l-0.12-.24V33.75a0.13,0.13,0,0,1,.12-0.12l-0.12-.24v-4a0.13,0.13,0,0,1,.12-0.12l-0.12-.24a11.55,11.55,0,0,0,.12-1.2,115.62,115.62,0,0,1-5.88-10.56,26.49,26.49,0,0,1-2.94-6.24h-0.12v1.26a0.13,0.13,0,0,1-.12.12l0.12,0.24v1.8a0.13,0.13,0,0,1-.12.12l0.12,0.24v0.54a11.11,11.11,0,0,0,.24,3.18,0.13,0.13,0,0,1-.12.12l0.12,0.54v0.36a0.13,0.13,0,0,1-.12.12L150.5,20v3.6a0.13,0.13,0,0,1-.12.12,10.13,10.13,0,0,1,.24,2.94V28l0.12,0.66-0.12.24,0.12,0.66h-0.12a0.13,0.13,0,0,0,.12.12,1.94,1.94,0,0,1-.24,1l0.12,0.24v0.66c0,0.3.06,0.72,0.12,1.26a0.13,0.13,0,0,1-.12.12l0.12,0.54v0.36c0,0.6-.06,1.32-0.12,2.16l0.12,0.18-0.12.72v0.12l0.12,0.78h-0.12l0.12,0.24v0.66c0,0.54.06,1.38,0.12,2.52h-0.12c0,0.06.06,0.06,0.12,0.06a4.19,4.19,0,0,0-.24,1.14l0.12,1.62h-0.12l0.12,0.18v0.6a7.58,7.58,0,0,1-.12,1,0.13,0.13,0,0,0,.12.12l-0.12.78v1.14a8.12,8.12,0,0,1-.12,1.14,4.72,4.72,0,0,1,.12,1v0.54a0.2,0.2,0,0,1-.24.24h-0.12a1.87,1.87,0,0,1-.42-1.14c0.06-2.1.12-3.84,0.12-5.22V41.55c0-.06,0-0.12.06-0.12L150,41.25V41.13c0-.06,0-0.12.06-0.12L150,40.77c0-.06,0-0.12.06-0.12L150,40.11V39.75a1.33,1.33,0,0,1,.06-0.48A0.66,0.66,0,0,1,150,39H150c0-.06,0-0.12-0.06-0.12L150,37.71V37.59c0-.66,0-1.32-0.06-2a4.57,4.57,0,0,0,.06-0.9L150,34.11H150a1.06,1.06,0,0,1-.06-0.36c0-.06,0-0.12.06-0.12L150,33.09v-1l-0.12-1.08H150l-0.12-.24V30.09c0-.06.06-0.06,0.12-0.06a0.13,0.13,0,0,0-.12-0.12,3.49,3.49,0,0,1,.18-1.26,1.56,1.56,0,0,1-.18-0.66V24.21a0.87,0.87,0,0,0-.12-0.42,1.43,1.43,0,0,0,.12-0.48V22.77l-0.12-.6h0.12a0.13,0.13,0,0,0-.12-0.12l0.12-.54V20.13l-0.12-.66,0.12-.24a1,1,0,0,1-.12-0.3,0.13,0.13,0,0,1,.12-0.12,23.65,23.65,0,0,1-.36-3.06V15a0.86,0.86,0,0,1,.12-0.42,1.12,1.12,0,0,1-.12-0.48L149.6,14l-0.12-.24a5,5,0,0,0,.12-0.78l-0.12-.24a1.42,1.42,0,0,0,.12-0.48,0.87,0.87,0,0,0-.12-0.42,0.13,0.13,0,0,1,.12-0.12l-0.12-.78V9.51a0.51,0.51,0,0,1,.36-0.36H150Z" transform="translate(-2 -8.61)"/><path class="a" d="M168.26,10.17a5.09,5.09,0,0,1,2.76,2l0.6,1.2c-0.06.9-.18,1.38-0.36,1.38s-0.6-.66-0.78-1.92a3.33,3.33,0,0,0-2.64-1.74c0-.06-0.06-0.12-0.24-0.12-1.14.18-1.68,1-1.68,2.64v1.2a1.14,1.14,0,0,1-.12.48,4.25,4.25,0,0,1,.24,1.44h-0.12a3.47,3.47,0,0,1,.24,1H166a26.67,26.67,0,0,1,.66,3.42,9.73,9.73,0,0,1,.6,2.52h-0.12a41.21,41.21,0,0,1,1.08,4.26l1.26,4.62H169.4c0.3,0.9.78,3.18,1.56,6.9h-0.12a15.78,15.78,0,0,1,.78,3.66H171.5a21.24,21.24,0,0,1,.42,3c0,2.52-.72,4.14-2.1,4.92a3.5,3.5,0,0,1-1.56.42,4.74,4.74,0,0,1-3.18-1.8,12.27,12.27,0,0,1-1.14-4.2h0.12l-0.12-.24v-0.3q0-1.53.54-1.8a0.51,0.51,0,0,1,.36.36v0.18c0,0.54-.06.78-0.24,0.78l0.36,2-0.12.18a5.89,5.89,0,0,0,2,3.48,3.79,3.79,0,0,0,1.32.42l0.6-.12v0.12c0.6,0,1.32-.72,2.1-2.22a10.05,10.05,0,0,0,.18-1.68V46.59a25.33,25.33,0,0,0-.54-4.56l0.12-.24c-1.5-7-2.76-12.36-3.78-16.08a83.85,83.85,0,0,1-1.74-9.36l0.06-1.08-0.06-1.56c0-2.34.9-3.54,2.64-3.54h0.54Z" transform="translate(-2 -8.61)"/></svg>