<svg xmlns="http://www.w3.org/2000/svg" width="257.93" height="504.41" viewBox="0 0 257.93 504.41"><defs><style>.a{fill:#e2d7be;}</style></defs><title>header_image</title><path class="a" d="M495.29,611.88a18.44,18.44,0,0,1-3.77-.67,1.91,1.91,0,0,0-.81-0.27,2.19,2.19,0,0,0-.94,0,0.5,0.5,0,0,1,.27.27c1.48,0.4,2.83.67,4.31,0.94a8.93,8.93,0,0,0,1.88.13c0.94-.13,1.75-0.13,2.69-0.27a1.62,1.62,0,0,0,1.08-.27h-2A8.81,8.81,0,0,1,495.29,611.88Z" transform="translate(-330.76 -145.93)"/><path class="a" d="M509,602.46c-0.81-.13-1.61-0.13-2.42-0.27a5.24,5.24,0,0,1-3.09-.94,2.38,2.38,0,0,1-.67-0.54,22,22,0,0,1-2.29-1.48,9.4,9.4,0,0,1-2.15-1.88h-0.27c-0.13,0-.27.13-0.13,0.27v0.13c0,0.13,0,.27.13,0.27s0,0.4-.13.4-0.13,0-.27,0a7.83,7.83,0,0,1-2.29-2.42c-0.4-.81-0.81-1.48-1.21-2.15a11.28,11.28,0,0,0-1.08-1.61c-0.81-1.08-1.75-2.15-2.56-3.09a8.86,8.86,0,0,1-1.61-2.29,2.52,2.52,0,0,1-.27-2l0.13-.13a0.47,0.47,0,0,1,.27.13l2,3.23a31.81,31.81,0,0,0,4.44,6.05,4.62,4.62,0,0,0,1.21,1.08,15.76,15.76,0,0,0,4,2.56c0.67,0.27,1.34.54,1.88,0.81a17.66,17.66,0,0,0,5.25,1.75,1,1,0,0,0,.67-0.13,0.13,0.13,0,0,0,.13-0.13V599.9a1.45,1.45,0,0,0-1.08-.27,11.15,11.15,0,0,1-2.83-.81c-1.61-.81-3.23-1.61-4.84-2.29a1.87,1.87,0,0,1-.54-0.4,21,21,0,0,1-5.65-5.25,44.07,44.07,0,0,1-4.71-7.53,11.81,11.81,0,0,1-.94-3.09,1.82,1.82,0,0,0-.94-1.48,2,2,0,0,0-.94-0.4,4.19,4.19,0,0,0-1.08-.27,2.2,2.2,0,0,0-.94,0c-0.13.13-.4,0.4-0.27,0.54a1.9,1.9,0,0,1-.13,1.21,58.89,58.89,0,0,1-3.23,5.79c-0.81,1.21-1.62,2.42-2.56,3.63-0.54.67-1.21,1.48-1.75,2.15s-1.21,1.34-1.88,2c-1.08.94-2.15,2-3.23,3a15.11,15.11,0,0,1-3,2.15,1.54,1.54,0,0,1-1.34.13,13.5,13.5,0,0,1-4.84-2.83,7.71,7.71,0,0,1-1.48-1.48,15.44,15.44,0,0,1-1.48-1.48,7.8,7.8,0,0,1-1.35-1.61c-0.54-.4-1.21-0.81-1.75-1.21-0.94-1.08-1.88-2-2.83-3.09a29.55,29.55,0,0,1-2.29-3.36,29,29,0,0,0-1.88-3.5,16,16,0,0,1-1.08-2.15,1,1,0,0,0-1.21-.67,7.32,7.32,0,0,1-3,.67,0.34,0.34,0,0,0-.4.27,6.75,6.75,0,0,1-.67,1.75c-0.13.27-.13,0.54-0.27,0.81a61.82,61.82,0,0,1-2.56,7c-0.54,1.08-1.08,2.29-1.75,3.5s-1.61,2.56-2.42,3.9a32.22,32.22,0,0,1-3.77,3.63c0,0.13-.13.13-0.27,0.13a31.83,31.83,0,0,1-4.71,2.56,2.27,2.27,0,0,1-1.35.4H424a0.74,0.74,0,0,1-.67-0.4,0.71,0.71,0,0,0-.4-0.27h-1.35a0.48,0.48,0,0,0-.4.17,2.79,2.79,0,0,1-.13.43s0,0,0,.07a0.88,0.88,0,0,1-.32.52,2.28,2.28,0,0,1-.4.43h0.05v0.4c-0.27,0-.4.13-0.67,0.13a2.29,2.29,0,0,1-.94.13c-0.27,0-.27.13-0.13,0.27s0.13,0.13.13,0.27,0.13,0.4-.13.54-0.27.13-.4,0.13v0.13a0.27,0.27,0,0,0,.13.27h0.4c0.67-.13,1.21-0.13,1.75-0.27a16.73,16.73,0,0,1,3.63-.4,38,38,0,0,1,3.9-.27,10.72,10.72,0,0,1,2,.4,1.9,1.9,0,0,0,1.21-.13,1.28,1.28,0,0,1,.94-0.27c0.4,0,.81.13,1.21,0.13a6.52,6.52,0,0,0,2.29,0c1.35,0,2.83,0,4.17-.13h1.08a10.36,10.36,0,0,0,2,.27h1.35a0.58,0.58,0,0,1,.54.54,10.37,10.37,0,0,1,.27,2c0.13,1.48,0,3,.27,4.44v0.27a1.52,1.52,0,0,1-1.48.4,11.89,11.89,0,0,0-3.77.27,3.92,3.92,0,0,1-1.21.27,4,4,0,0,0-1.35.54c-0.67.27-1.48,0.67-2.15,0.94a11.32,11.32,0,0,1-1.88.81,14.1,14.1,0,0,1-4,.67,16.81,16.81,0,0,1-2.56-.4l-1.21-.4c-2.83-.67-2.56-0.67-5-0.13a0.42,0.42,0,0,1-.27.13l-0.27.27a17.4,17.4,0,0,1,2.56-.54,3.72,3.72,0,0,1,1.21.13,24.15,24.15,0,0,1,3,.81,13.22,13.22,0,0,0,9.82-1.48,6.35,6.35,0,0,1,2-.81c0.94-.27,1.88-0.4,2.83-0.67a3.72,3.72,0,0,1,1.21-.13c0.67,0.13,1.48.27,2.29,0.4a29.09,29.09,0,0,0,3.36.54,7.23,7.23,0,0,0,3-.54l3.23-1.21a6.42,6.42,0,0,1,2.29-.67l2-.4a14,14,0,0,1,5.78,0,30,30,0,0,1,5,1.21,14.78,14.78,0,0,0,4.84.4c1.75-.27,3.23-0.67,4.84-1.08a0.7,0.7,0,0,0,.54-0.27,3.92,3.92,0,0,1-1.21.27,6,6,0,0,0-1.48.13,12.42,12.42,0,0,1-3.9.54,5.65,5.65,0,0,1-2.15-.13c-1.08-.27-2-0.4-3.09-0.67-1.75-.27-3.36-0.67-5.11-0.94-0.4,0-.67-0.13-1.08-0.13a26.77,26.77,0,0,0-4.57.67,49.12,49.12,0,0,0-6.32,1.88,3.58,3.58,0,0,1-1.61.4,1,1,0,0,1-.67-0.13v-1.35a3.41,3.41,0,0,1-.27-1.61,8.71,8.71,0,0,0-.13-3.23,3.71,3.71,0,0,0-.13-1.21,0.82,0.82,0,0,1,.81-0.94,8.87,8.87,0,0,0,1.88-.13h1.35a17.25,17.25,0,0,1,2.69-.13h1.75c2.15-.13,4.31-0.4,6.46-0.4,3.23,0,6.46.13,9.69,0.27a3.72,3.72,0,0,1,1.21.13,3,3,0,0,0,1.08.13,10,10,0,0,1,2.83,0,6.54,6.54,0,0,0,1.62.13c1.08,0,2.15-.13,3.36-0.13,0.27,0,.54-0.13.81-0.13,1.08,0,1.21.27,1.21,1.21l0.4,4v0.54a1,1,0,0,1-.27.54,0.81,0.81,0,0,0-.54.13H483c-0.13.13-.27,0.13-0.13,0.27h1.34a1.85,1.85,0,0,1,1.48.13,1.88,1.88,0,0,0,1.21,0,0.81,0.81,0,0,0,.54-0.13,0.43,0.43,0,0,0,.4-0.4,1.62,1.62,0,0,1-.27-1.08,3.74,3.74,0,0,0-.13-1.21v-0.94c0-.67.13-1.34,0.13-2.15a0.9,0.9,0,0,1,1.08-.94,1.71,1.71,0,0,1,.81.13,42,42,0,0,0,7.13.13h0.54a54.36,54.36,0,0,0,6.59.13h1.48a2.71,2.71,0,0,0,1.48-.4,3.93,3.93,0,0,1,1.21-.27,3.18,3.18,0,0,0,1.08-.27,4.51,4.51,0,0,1,1.31-.3,3,3,0,0,1,.16-0.67Zm-65.65-16.82h0.27V586a1,1,0,0,1,0,.67,6.93,6.93,0,0,1-.27,1.48,0.29,0.29,0,0,1-.27.27,0.61,0.61,0,0,1-.4-0.4A5.48,5.48,0,0,1,443.36,585.64Zm-0.94-2.42h0.27v0.94a6.28,6.28,0,0,1-.27.67,0.29,0.29,0,0,1-.27.27,0.38,0.38,0,0,1-.27-0.4A3.31,3.31,0,0,1,442.41,583.22Zm-7.26,18.3a1.93,1.93,0,0,1-1.48.67,13,13,0,0,1-2.29.13h-0.54c-1.08.13-.94,0.13-2.29-0.4,0-.13,0-0.4.13-0.4l0.4-.4a25.34,25.34,0,0,0,3.23-1.88,8.13,8.13,0,0,0,1.08-1.08,13.38,13.38,0,0,0,1.48-1.35,13.68,13.68,0,0,0,2.42-3.09,33.56,33.56,0,0,0,3-5.79,2.06,2.06,0,0,1,.67-0.94c0-.13.13-0.13,0.27-0.13a0.42,0.42,0,0,0,.13.27,0.81,0.81,0,0,1-.13.54,15.7,15.7,0,0,1-2.15,4.84c-0.13.13-.27,0.4-0.4,0.54a18.52,18.52,0,0,0-2.29,3.36,8.39,8.39,0,0,1-1.21,1.61,18.55,18.55,0,0,1-3.5,3,0.51,0.51,0,0,1-.27.27v0.27c0,0.13.13,0.13,0.27,0.13a11.28,11.28,0,0,0,1.61-1.08l1.21-1.21a12.81,12.81,0,0,0,2.56-2.83l2.42-3.63c0.4-.67.67-1.21,1.08-1.88a0.72,0.72,0,0,1,.4-0.27h0.13v0.13a0.25,0.25,0,0,1,0,.4,34.13,34.13,0,0,1-1.61,4.84c-0.4.81-.94,1.48-1.35,2.15a18.49,18.49,0,0,1-2.15,2.42Zm1.61,0.81a0.27,0.27,0,0,1-.27-0.13,0.53,0.53,0,0,1-.54-0.27,0.4,0.4,0,0,1,.13-0.54c0.94-.94,1.75-2,2.69-2.83,0-.13.13-0.13,0.27-0.13v0.4c-0.4.94-.94,1.88-1.35,2.83A0.79,0.79,0,0,1,436.76,602.32Zm1.88-.13c0-.13-0.13-0.27-0.13-0.4a3,3,0,0,1,.13-0.54,3.53,3.53,0,0,0,.4-1.08,4.73,4.73,0,0,1,.81-1.88,16,16,0,0,0,1.48-3.5,31.37,31.37,0,0,1,1.48-3.77c0-.13.13-0.13,0.27-0.13V591a0.65,0.65,0,0,1,.13.54,27.58,27.58,0,0,1-.67,3.23,3.94,3.94,0,0,1-.27,1.21,10.58,10.58,0,0,1-1.08,3.5,16.09,16.09,0,0,1-1.08,2.15A1.21,1.21,0,0,1,438.65,602.19Zm5.25,0.27h-1.35a3.75,3.75,0,0,1-1.21-.13c-0.54,0-.67-0.27-0.54-0.81l1.21-2a9.38,9.38,0,0,0,.81-2.56,18.07,18.07,0,0,1,.94-3.63c0-.13.27-0.4,0.27-0.27a0.49,0.49,0,0,1,.13.4c0.13,2.29.27,4.57,0.27,6.86a6,6,0,0,0,.13,1.48A0.64,0.64,0,0,1,443.89,602.46Zm3.09,9.15a0.13,0.13,0,0,1-.13.13,0.41,0.41,0,0,1-.13-0.27c0-.13.13-0.13,0.27-0.13v0.27Zm1.35-31.21c0-.13.13,0,0.13,0a0.51,0.51,0,0,1,.27.27,0.71,0.71,0,0,0,.27.4,28.52,28.52,0,0,0,1.48,2.83h-0.27a4.48,4.48,0,0,1-1.35-.81,5.7,5.7,0,0,1-.81-2.56A0.47,0.47,0,0,1,448.33,580.39Zm7.53,21.79a0.47,0.47,0,0,1-.13.27H452.5v0.13c-0.94,0-1.88-.13-2.83-0.13a0.81,0.81,0,0,1-.54-0.13,0.72,0.72,0,0,1-.67-0.67,6.76,6.76,0,0,1-.27-1.61,38,38,0,0,1-.27-5.52,0.49,0.49,0,0,1,.13-0.4V594h0.27l0.4,0.81a8,8,0,0,0,1.88,2.83,22.23,22.23,0,0,1,1.88,1.75,8.65,8.65,0,0,0,2.69,2.15,1,1,0,0,1,.54.27C455.87,601.92,456,602.19,455.87,602.19Zm7.67-.4c0,0.13-.13.13-0.27,0.13l-2.83.4a11.11,11.11,0,0,1-4.71-1.21c-0.13-.13-0.27-0.13-0.4-0.27s-0.4-.54-0.67-0.81a3.39,3.39,0,0,1-.94-0.54,0.29,0.29,0,0,1-.27-0.27,18.88,18.88,0,0,1-3.36-4.71,48.55,48.55,0,0,1-1.75-4.71,8.49,8.49,0,0,1-.13-4.84l0.13-.13c0.13,0,.27,0,0.27.13a1.34,1.34,0,0,1,.54.67c0.4,1.48.81,2.83,1.21,4.17a10.33,10.33,0,0,0,1.61,3.77l1.21,1.61a27.8,27.8,0,0,0,3.77,4.17,5.84,5.84,0,0,0,.94.54,28.36,28.36,0,0,0,2.83,1.48c0.4,0.13.81,0.13,1.21,0.27a0.51,0.51,0,0,0,.27-0.27h-0.13l-3.23-1.61a6.54,6.54,0,0,1-1.88-1.48,0.51,0.51,0,0,1-.27-0.27,9.79,9.79,0,0,1-2.56-2.69c-0.54-.81-1.21-1.75-1.88-2.69a9,9,0,0,1-1.21-2.83,11.82,11.82,0,0,1-.67-2,1,1,0,0,1-.13-0.67c0-.13.13-0.13,0.13-0.27a0.13,0.13,0,0,1,.13.13,3.2,3.2,0,0,1,.67.67,19,19,0,0,1,1.88,3.09,3.38,3.38,0,0,1,.54.94,9.69,9.69,0,0,0,2.83,3.36,7.45,7.45,0,0,0,1.08.81,10.59,10.59,0,0,1,2,1.61c0.94,0.81,1.88,1.61,2.69,2.42,0.27,0.4.54,0.67,0.67,0.94a3.16,3.16,0,0,0,.67.67v0.27Zm4.31-.67a1,1,0,0,1,.81.27c0,0.13,0,.27-0.13.27a0.34,0.34,0,0,1-.4.27,5.46,5.46,0,0,1-2.56,0,1.92,1.92,0,0,1-1.61-.81,0.7,0.7,0,0,1-.27-0.54c0-.27.27-0.13,0.4-0.27s0.27-.13.13-0.27a0.13,0.13,0,0,0-.13-0.13,0.13,0.13,0,0,1-.13-0.13,4.9,4.9,0,0,1-2.83-2.15,2.09,2.09,0,0,0-1.08-.81,2.91,2.91,0,0,1-.67-0.4,24.7,24.7,0,0,1-3-2.29,8.72,8.72,0,0,1-2.29-2.69,5.89,5.89,0,0,0-.54-0.94,14.79,14.79,0,0,0-1.08-2,5.56,5.56,0,0,1-.94-1.48c-0.13-.13-0.13-0.4,0-0.4a0.49,0.49,0,0,1,.4.13c0.4,0.4.67,0.81,1.08,1.21,0.81,0.81,1.61,1.75,2.42,2.69a10,10,0,0,1,1.61,1.75c0.54,0.54,1.21,1.08,1.75,1.61,0,0.13.13,0.27,0.13,0.4a1.87,1.87,0,0,0,1.08.94,2.18,2.18,0,0,1,1.21.67,11.91,11.91,0,0,0,3.36,2.42c0.27,0.27.54,0.4,0.81,0.67a1.34,1.34,0,0,0,.67.54,5.13,5.13,0,0,0,2-.13,46.61,46.61,0,0,0,5.79-4.71l1.21-1.21a13.38,13.38,0,0,0,1.88-2c0.4-.54.81-0.94,1.21-1.48a1.35,1.35,0,0,0,.54-0.67,46.5,46.5,0,0,0,3-4.17c0.54-.94,1.08-1.88,1.61-2.69a0.74,0.74,0,0,1,.4-0.67H484V582a3.82,3.82,0,0,1,0,1.75,0.72,0.72,0,0,1-.4.27,1.38,1.38,0,0,0-.81.67,19,19,0,0,0-1.75,3.23,29.57,29.57,0,0,1-2,3.5,10.3,10.3,0,0,0-1.48,2.15,22.56,22.56,0,0,1-1.35,1.88,17.36,17.36,0,0,0-2.15,2.29,7.72,7.72,0,0,1-3.09,2c-0.67.13-1.21,0.4-1.88,0.54s-1.48.54-2.15,0.81c-0.13,0-.27.13-0.4,0.13A2.22,2.22,0,0,0,467.84,601.11Zm11.44-5.79a6.36,6.36,0,0,1-1.48,1.75,12.85,12.85,0,0,1-1.35,1.35,2.38,2.38,0,0,1-.67.54,11.44,11.44,0,0,1-2.29.54c-0.13,0-.13-0.13-0.27-0.13a0.67,0.67,0,0,1,.13-0.4l0.13-.13c0.81-.81,1.88-1.75,2.69-2.69a5.14,5.14,0,0,0,1.48-1.88,17.11,17.11,0,0,0,1.75-2.56,30.5,30.5,0,0,0,2.15-3.5,18.81,18.81,0,0,1,1.35-2.15,0.47,0.47,0,0,1,.27.13,0.49,0.49,0,0,1-.13.4,30.18,30.18,0,0,1-1.88,5.25A28.85,28.85,0,0,1,479.28,595.33Zm1.61-.4a1.11,1.11,0,0,1-.81.54,0.71,0.71,0,0,1,.27-0.4A0.65,0.65,0,0,1,480.89,594.92ZM480,596.14v-0.67A1.12,1.12,0,0,1,480,596.14Zm-5.65,7.26h-0.54a0.72,0.72,0,0,0-.54,0,0.71,0.71,0,0,1-.4-0.27,5.14,5.14,0,0,1,2,.13C474.7,603.27,474.43,603.4,474.3,603.4Zm1.08-2.42a0.65,0.65,0,0,0-.54.13,1.11,1.11,0,0,1-.67.67h-0.54a15.28,15.28,0,0,1-3.5,0c-0.13,0-.13-0.13-0.13-0.27l2.83-1.21c0.54-.13,1.21-0.27,1.75-0.4a4.15,4.15,0,0,0,2.69-1.21l0.94-.94c0.27-.13.4-0.13,0.67-0.27v0.4c-0.54.67-1.08,1.48-1.61,2.15A2.57,2.57,0,0,1,475.38,601Zm1.34,0.54-0.13-.13,0.4-.4a4.56,4.56,0,0,0,.81-0.81c1.08-1.34,2-2.56,3.09-3.9a5.57,5.57,0,0,0,.94-2,11.45,11.45,0,0,0,.81-2.29,1.31,1.31,0,0,0,.13-1.21,1.48,1.48,0,0,1,0-1.08,7.9,7.9,0,0,1,.81-1.88c0-.13.13-0.13,0.27-0.13v0.13a2.29,2.29,0,0,1,.13.94v2.15h-0.13v1.88a9.36,9.36,0,0,1-.67,3.36,12.13,12.13,0,0,1-3.36,4.84,1.91,1.91,0,0,1-.54.27,1.73,1.73,0,0,1-1.35.54A3.93,3.93,0,0,1,476.72,601.52Zm5.65,2a0.13,0.13,0,0,1-.13.13H482.1c-0.94,0-1.88.13-3,.13a1.79,1.79,0,0,1-1.08-.4v-0.27h0.54a7.74,7.74,0,0,1,1.88-.13,10.53,10.53,0,0,1,1.88.27c0.13,0,.13,0,0.13.13A0.13,0.13,0,0,1,482.37,603.54Zm1.88-2.42a0.58,0.58,0,0,1-.54.54c-0.13,0-.4.13-0.54,0.13h-2.69a0.7,0.7,0,0,1-.27-0.54c0.13-.13.13-0.27,0.27-0.4a12,12,0,0,0,2.83-3.5,0.47,0.47,0,0,1,.27-0.13,0.42,0.42,0,0,1,.27.13,5.86,5.86,0,0,1,.13.67c0.13,0.81.13,1.61,0.27,2.56v0.54Zm9.15-6.19a24.6,24.6,0,0,1,2.29,3,6.85,6.85,0,0,0,3,2.56,3.17,3.17,0,0,1,1.21.81v0.13c-0.13,0-.13.13-0.27,0.13a2.83,2.83,0,0,1-1.75-.67,21.49,21.49,0,0,1-4.71-3.77,22,22,0,0,1-2.83-3.23c-0.4-.67-0.94-1.34-1.48-2.15a1.53,1.53,0,0,1-.4-1.08c0-.13.13-0.27,0.13-0.4a0.47,0.47,0,0,1,.27-0.13c0.13,0.13.27,0.13,0.4,0.27C490.58,591.83,492.06,593.31,493.4,594.92Zm-4.84-6.86c0-.13,0-0.13.13-0.13a0.42,0.42,0,0,1,.27.13,0.51,0.51,0,0,1,.27.27c0.94,1.08,1.75,2,2.56,3.09a7.5,7.5,0,0,0,.81,1.08v0.13c0,0.13-.13.13-0.27,0.13-0.67-.81-1.48-1.48-2.15-2.29a5.07,5.07,0,0,0-1.61-1.34A0.82,0.82,0,0,1,488.56,588.06Zm-0.13,8.88h0.27a16.09,16.09,0,0,1,1.48,1.61,0.13,0.13,0,0,1,.13.13,0.47,0.47,0,0,0-.27.13,3.43,3.43,0,0,1-1.61-1.08,0.64,0.64,0,0,1-.27-0.67A0.27,0.27,0,0,0,488.43,596.94Zm4.84,4.84a0.5,0.5,0,0,1-.4.13h-2.29a13.92,13.92,0,0,1-2.29-.13,0.61,0.61,0,0,1-.4-0.4V599a0.47,0.47,0,0,0,.13-0.27,0.47,0.47,0,0,1,.27-0.13,0.27,0.27,0,0,1,.27.13,36.06,36.06,0,0,1,4.44,2.42,0.7,0.7,0,0,1,.27.54C493.4,601.65,493.27,601.79,493.27,601.79Zm4.71,0.13c0,0.13-.13.13-0.13,0.27a3.65,3.65,0,0,1-1.21,0c-0.67-.13-1.21-0.27-1.75-0.4l-2-1.62c-0.81-.81-1.75-1.61-2.56-2.42l-1.48-1.48a1.93,1.93,0,0,1-.54-1.34v-1.75a0.47,0.47,0,0,0,.13-0.27,0.4,0.4,0,0,1,.54-0.13,10.33,10.33,0,0,0,1.08,1.48,14.14,14.14,0,0,1,1.21,1.48,17.88,17.88,0,0,0,3.9,3.9c0.81,0.54,1.62,1.21,2.42,1.75,0.13,0.13.27,0.13,0.4,0.27v0.27Zm1.08,0.94c-0.13,0-.13,0-0.13-0.13,0.67-.27.67-0.27,2.56,0.13h-2.42Z" transform="translate(-330.76 -145.93)"/><path class="a" d="M417,616.18h0.27a0.47,0.47,0,0,0-.13.27H417C416.85,616.32,416.85,616.18,417,616.18Z" transform="translate(-330.76 -145.93)"/><path class="a" d="M417.26,616.18a0.13,0.13,0,0,0,.13-0.13v0.13h-0.13Z" transform="translate(-330.76 -145.93)"/><path class="a" d="M417.39,616v0Z" transform="translate(-330.76 -145.93)"/><path class="a" d="M418.87,615.1h0Z" transform="translate(-330.76 -145.93)"/><path class="a" d="M420.08,604.34v-0.13h-0.54v0.13A0.54,0.54,0,0,0,420.08,604.34Z" transform="translate(-330.76 -145.93)"/><path class="a" d="M436.63,603.4a0.13,0.13,0,0,0-.13-0.13,0.42,0.42,0,0,0-.27.13h0.4Z" transform="translate(-330.76 -145.93)"/><polygon class="a" points="109.1 457.34 108.97 457.47 109.1 457.47 109.1 457.34"/><path class="a" d="M449.68,603.27h-0.13c-0.27,0-.4,0-0.27.13h0.27C449.68,603.4,449.68,603.4,449.68,603.27Z" transform="translate(-330.76 -145.93)"/><path class="a" d="M450.35,583.89h0Z" transform="translate(-330.76 -145.93)"/><path class="a" d="M459.9,596.14l-0.27-.27c0.13,0.13.27,0.13,0.4,0.27H459.9Z" transform="translate(-330.76 -145.93)"/><path class="a" d="M478.87,597.35a0.47,0.47,0,0,0,.27-0.13A0.27,0.27,0,0,0,478.87,597.35Z" transform="translate(-330.76 -145.93)"/><path class="a" d="M479.41,596.67a0.42,0.42,0,0,1-.13.27,2,2,0,0,0,.54-0.54A0.38,0.38,0,0,0,479.41,596.67Z" transform="translate(-330.76 -145.93)"/><path class="a" d="M480.89,594.79c0-.27,0-0.27-0.13-0.13Z" transform="translate(-330.76 -145.93)"/><path class="a" d="M439,156.77c0.23-.36.45-0.54,0.23-0.91a5.72,5.72,0,0,0-.68-0.91,1.46,1.46,0,0,0-.68.73,2.88,2.88,0,0,0,.68,1.09H439Z" transform="translate(-330.76 -145.93)"/><path class="a" d="M403.36,162.94c2,2,4.4,3.81,6.43,5.63a75.08,75.08,0,0,0,7.73,6,27,27,0,0,1,3.36,2.48H421a13.43,13.43,0,0,0,1.53-.06l1.12-.05c-0.36-.19-0.73-0.38-1.13-0.55a6.92,6.92,0,0,1-2.93-1.82c-3.83-3.45-8.12-6.72-11.5-10.53-1.13-.91-2.26-2-3.38-2.91a12.75,12.75,0,0,0-1.59-.54,1.4,1.4,0,0,1-1.14.54v0.36C403,162,402.91,162.58,403.36,162.94Z" transform="translate(-330.76 -145.93)"/><path class="a" d="M434,149h0.45a1.13,1.13,0,0,0,.45-0.47,6.5,6.5,0,0,0-1.58-2.6,1.59,1.59,0,0,0-.9.15,1,1,0,0,0-.23.46C432.47,147.45,433.15,148,434,149Z" transform="translate(-330.76 -145.93)"/><path class="a" d="M433.15,169.66c-0.45,0-.68.85-0.23,1.58A6.11,6.11,0,0,1,434.5,173h0.68a3.1,3.1,0,0,1,.45-0.49c-0.45-.73-0.68-1.52-1.13-2.24A1.5,1.5,0,0,0,433.15,169.66Z" transform="translate(-330.76 -145.93)"/><path class="a" d="M421.87,241a1.31,1.31,0,0,0-.68.18c-0.45.18-.23,0.73,0.45,0.91a3.41,3.41,0,0,1,.68-0.36A1.3,1.3,0,0,0,421.87,241Z" transform="translate(-330.76 -145.93)"/><path class="a" d="M445.55,172c0.39,1.6.83,3.21,1.26,4.82l0.8,0a7.53,7.53,0,0,0,1.13-.05c-0.34-1.08-.68-2.17-0.94-3.29-0.68-3.45-2.48-6.72-4.29-10a1.19,1.19,0,0,0-1.13-.73c-0.45,0-.45.36-0.23,1.09A29,29,0,0,1,445.55,172Z" transform="translate(-330.76 -145.93)"/><path class="a" d="M383.52,229.95a0.63,0.63,0,0,0-.45.54,0.66,0.66,0,0,0,.9.54,0.63,0.63,0,0,0,.45-0.54A0.59,0.59,0,0,0,383.52,229.95Z" transform="translate(-330.76 -145.93)"/><path class="a" d="M402.18,210c0-.18,0-0.38,0-0.65l-0.16.06a0.82,0.82,0,0,0,0,.73l0.17,0.26C402.18,210.26,402.18,210.12,402.18,210Z" transform="translate(-330.76 -145.93)"/><path class="a" d="M402.3,188.79c0-.15,0-0.3.05-0.5a84.79,84.79,0,0,1-8.68-2.65,1.62,1.62,0,0,0-.9-0.18,0.86,0.86,0,0,0-.45.18,1.52,1.52,0,0,0-.23.73,14.08,14.08,0,0,0,2,1.45,41.31,41.31,0,0,0,8.08,2.25A8.28,8.28,0,0,1,402.3,188.79Z" transform="translate(-330.76 -145.93)"/><path class="a" d="M503.29,157h0.9c1.13-1,1.8-1.66,1.58-2.75a0.76,0.76,0,0,0-.45-0.28,0.34,0.34,0,0,0-.45-0.05,4.43,4.43,0,0,0-2,1.81C502.62,156.09,502.84,156,503.29,157Z" transform="translate(-330.76 -145.93)"/><path class="a" d="M500.36,174a1.61,1.61,0,0,1,.57-0.18c4.51-2.36,8.07-5.27,12.07-8.35v-0.36a0.67,0.67,0,0,0-.34-0.36,7.4,7.4,0,0,1-1-.18c-1.13.54-2.29,1.09-3.19,1.63a106.59,106.59,0,0,0-9.49,6,0.77,0.77,0,0,0,0,1.27A8.23,8.23,0,0,0,500.36,174Z" transform="translate(-330.76 -145.93)"/><path class="a" d="M423,212.12a13,13,0,0,1-1.91.13,9,9,0,0,1-1.53-.12c-3,1.76-6,3.54-9,5.47-1.58.91-3.38,1.79-5,2.88a0.74,0.74,0,0,0-.23.52h1.13a8.71,8.71,0,0,0,3.83-1.61c3.38-1.63,6.77-3.17,9.92-5a17.53,17.53,0,0,0,3.16-2.13,0.46,0.46,0,0,0,.28-0.27A6.55,6.55,0,0,0,423,212.12Z" transform="translate(-330.76 -145.93)"/><path class="a" d="M522.5,177c0.4,0,.79,0,1.58,0s1.33,0,1.76,0,0.78,0,1.57,0l0.35,0a23.53,23.53,0,0,0,5.31-2.17,0.78,0.78,0,0,0,.45-0.36,0.82,0.82,0,0,0,0-.73,1,1,0,0,0-.9-0.36c-2.48.54-4.74,1.09-7.22,1.82-0.9.18-2,.36-2.93,0.54a1.3,1.3,0,0,0-.45.73,0.94,0.94,0,0,0,.19.44h0.3Z" transform="translate(-330.76 -145.93)"/><path class="a" d="M524.27,160h0.68a2,2,0,0,0,2.05-1.6V158a1,1,0,0,0-.8-0.36,3.41,3.41,0,0,0-2.66,1.09,0.38,0.38,0,0,0-.2.62A1.4,1.4,0,0,0,524.27,160Z" transform="translate(-330.76 -145.93)"/><path class="a" d="M460.66,160.58a63.29,63.29,0,0,1,.23,6.54,26.34,26.34,0,0,0,1.58,8.35,1.52,1.52,0,0,0,.68,1.27,3.47,3.47,0,0,0,.36.11h0.59l0.18-.28a5,5,0,0,0-.19-1.82,15.24,15.24,0,0,1-1.09-6.36v-4.72c1-3.81.19-8-.49-12.35a4.43,4.43,0,0,0-.81-2,1.82,1.82,0,0,0-1.31-.36,1.66,1.66,0,0,0-.65.54c0.23,2.36.24,4.72,0.46,6.9A28.88,28.88,0,0,1,460.66,160.58Z" transform="translate(-330.76 -145.93)"/><path class="a" d="M472.62,164l0.23-.36c0-.73-0.23-1.45-0.23-2.91-0.23-.18-0.23-1.27-0.68-2.18,0-.36-0.45-0.36-0.68-0.36a0.78,0.78,0,0,0-.45.36c-0.9,1.82-.23,3.63.9,5.27A1.62,1.62,0,0,0,472.62,164Z" transform="translate(-330.76 -145.93)"/><path class="a" d="M472.89,176.85A6.09,6.09,0,0,0,474,177l7.62-11.49a33.31,33.31,0,0,0,2.48-4.72,0.68,0.68,0,0,0,0-.66c0-.18-0.23-0.11-0.23-0.11h-0.68c-0.45,0-.9.84-1.13,1.38-3.61,5-6.91,10.31-10.69,15.34A10.91,10.91,0,0,1,472.89,176.85Z" transform="translate(-330.76 -145.93)"/><path class="a" d="M491.79,151.69c0.68-.73,1.58-1.63,1.35-2.72a1.17,1.17,0,0,0-1.58-.54,2.69,2.69,0,0,0-1.8,1.82,1,1,0,0,0,.23,1.09A1.38,1.38,0,0,0,491.79,151.69Z" transform="translate(-330.76 -145.93)"/><path class="a" d="M494,211.91c-0.65,0-1,0-1.37,0s-0.9.06-1.79,0.06-1.32,0-1.76-.05H489a16.52,16.52,0,0,0,2.14,1.07c4.06,1.27,8.12,3,12.41,4h0.9a31.4,31.4,0,0,0-5-2.88A44.83,44.83,0,0,0,494,211.91Z" transform="translate(-330.76 -145.93)"/><path class="a" d="M491.11,222.87A2.51,2.51,0,0,0,490,222a3,3,0,0,1-1.13-.18c0,0.18-.23.18-0.45,0.18,0,0.18-.23.54-0.23,0.73a0.9,0.9,0,0,0,.45.73c2.71,2.54,5.64,4.9,8.35,7.26,0.68,0.54,1.13,1.09,1.8,1.63,0.23,0.18.68,0.18,0.9,0.36s0.45,0.18.45,0c0.45,0,.68-0.36.45-0.54A51,51,0,0,0,491.11,222.87Z" transform="translate(-330.76 -145.93)"/><path class="a" d="M504.42,217.42l0.23-.18-0.23-.18v0.36Z" transform="translate(-330.76 -145.93)"/><path class="a" d="M514.35,221a0.55,0.55,0,0,0-.68.54l0.68,0.54a0.55,0.55,0,0,0,.68-0.54A1.79,1.79,0,0,0,514.35,221Z" transform="translate(-330.76 -145.93)"/><path class="a" d="M481.19,213.6c-0.61-.45-1.19-0.91-1.75-1.38-0.27-.05-0.5-0.12-0.71-0.18a3.3,3.3,0,0,0-1.15-.17,12.26,12.26,0,0,0-1.24,0,25.5,25.5,0,0,0,6.2,3.86A2.46,2.46,0,0,0,481.19,213.6Z" transform="translate(-330.76 -145.93)"/><path class="a" d="M485,238.84a1.79,1.79,0,0,0-1.35-.18,1.1,1.1,0,0,0-.45.63c-0.23,1.45.68,2.71,2,3.71h0.9a4.11,4.11,0,0,1,.45-0.44c-0.23-.91-0.68-1.95-0.9-3A1.11,1.11,0,0,0,485,238.84Z" transform="translate(-330.76 -145.93)"/><path class="a" d="M548.63,169.84l-0.68.54a1.77,1.77,0,0,0,.68.54,2.61,2.61,0,0,1,.45-0.54A1,1,0,0,1,548.63,169.84Z" transform="translate(-330.76 -145.93)"/><path class="a" d="M444.34,212.19c-0.91,0-1.39,0-1.82-.07l-0.22,0a117.63,117.63,0,0,1-8,10.22c-2.26,2.54-4.06,5.08-6.09,7.63a3.39,3.39,0,0,0-.23,1.48,0.67,0.67,0,0,0,.45.57h0.45c2.26-3,4.51-5.66,7-8.38,3.22-3.63,6.22-7.49,9.09-11.33C444.76,212.29,444.57,212.19,444.34,212.19Z" transform="translate(-330.76 -145.93)"/><path class="a" d="M537.58,193.81a7.3,7.3,0,0,0-4.29-1.27c-0.23-.18-0.68.18-0.68,0.54-0.23.18,0,.54,0.23,0.73a4.46,4.46,0,0,0,3.38,1.09,2,2,0,0,0,.9-0.18,0.63,0.63,0,0,0,.45-0.54A0.22,0.22,0,0,0,537.58,193.81Z" transform="translate(-330.76 -145.93)"/><path class="a" d="M533.06,205.07a21.91,21.91,0,0,0-4.06-1v0.13a3.9,3.9,0,0,0,.29,1c0,0.1.14,0.22,0.15,0.34,0.64,0.09,1.35.17,2,.28a2.42,2.42,0,0,0,1.61,0,0.35,0.35,0,0,0,.35-0.36A0.33,0.33,0,0,0,533.06,205.07Z" transform="translate(-330.76 -145.93)"/><polygon class="a" points="152.01 70.04 152.24 69.86 151.78 69.86 152.01 70.04"/><path class="a" d="M452.54,219.6a1.48,1.48,0,0,0-1.13.73,1.91,1.91,0,0,1-.23,1.09,1.15,1.15,0,0,0,.23.91,1.77,1.77,0,0,0,.68.54,0.79,0.79,0,0,0,.45-0.18,4.24,4.24,0,0,0,1.13-2.18A1.1,1.1,0,0,0,452.54,219.6Z" transform="translate(-330.76 -145.93)"/><path class="a" d="M450.74,229.22c0,0.18.23,0.36,0.23,0.54a1.25,1.25,0,0,1,.68-0.36A1.25,1.25,0,0,0,451,229S450.51,229.22,450.74,229.22Z" transform="translate(-330.76 -145.93)"/><path class="a" d="M448.69,237.21a5.09,5.09,0,0,0-.69,1.63V244h-0.19a35.17,35.17,0,0,0,.23,5,2.47,2.47,0,0,0,.23,1.25c0,0.18.23,0.17,0.45,0.17a0.55,0.55,0,0,0,.81-0.37c0.45-3.81.48-7.63,1.48-11.44v-1.27a2.53,2.53,0,0,0-.82-0.54A1.45,1.45,0,0,0,448.69,237.21Z" transform="translate(-330.76 -145.93)"/><path class="a" d="M454.31,212a17.69,17.69,0,0,1-1.77-.1c-0.29,0-.58,0-1,0,0,0.34-.07.67-0.11,1,0.23,0.54.45,1.09,0.68,1.81,0.23,0.18.68,0.18,0.9,0.36a0.92,0.92,0,0,0,.9-0.51c0.2-.86.38-1.55,0.57-2.55h-0.16Z" transform="translate(-330.76 -145.93)"/><path class="a" d="M474.87,221.59a0.94,0.94,0,0,0-.68.54,5.53,5.53,0,0,0,2.48,3.45c0,0.18.23,0.18,0.45,0a0.61,0.61,0,0,0,.23-0.36,4.55,4.55,0,0,0-1.58-3.45A1.62,1.62,0,0,0,474.87,221.59Z" transform="translate(-330.76 -145.93)"/><path class="a" d="M464.72,216.51c-0.34-1.47-.69-3-0.94-4.45a7.5,7.5,0,0,0-.88.09,12.06,12.06,0,0,1-1.52.14c0.65,2.12,1.1,4.08,1.54,6.22a176.1,176.1,0,0,0,4.74,18l0.45,0.18a0.8,0.8,0,0,0,.45-0.36c0.23-.91-0.45-1.82-0.68-2.91C466.53,227.95,465.85,222.14,464.72,216.51Z" transform="translate(-330.76 -145.93)"/><path class="a" d="M469.42,212c-0.35,0-.75.06-1.37,0.06,0.23,0.26.48,0.51,0.74,0.76a1.89,1.89,0,0,0,.9.36,2.51,2.51,0,0,0,.45-0.73L470,212Z" transform="translate(-330.76 -145.93)"/><path class="a" d="M344.35,435.12c5.59,0.49,8.38,2.46,8.39,6.07v2c0,0.33-.16.49-0.66,0.49h-0.33c-0.49,0-.66-1-0.82-3.12-1.81-2.46-3.78-3.61-5.92-3.61-4.93,0-8.7,4.28-11.16,12.66a0.35,0.35,0,0,0,.33.33C334,452,333.69,453,333.52,453a0.35,0.35,0,0,0,.33.33,49.09,49.09,0,0,0-.65,9.86v1a0.35,0.35,0,0,1-.33.33c0,0.16.16,0.16,0.33,0.16l-0.33,1.64v3.45c0,0.33-.16.49-0.66,0.49a3.58,3.58,0,0,1,.66,1.64h-0.33a0.35,0.35,0,0,0,.33.33l-0.32,3.62,0.33,2.3L332.57,480a2.37,2.37,0,0,1,.33,1.15h-0.33l0.33,0.66v1.81l-0.66,1,1,3.45-0.33.66a2.77,2.77,0,0,1,.33.82h-0.33a6.44,6.44,0,0,1,.33,1c0,1,.17,4.76.34,11.5l0.33,0.49-0.33.66,0.33,2c0,0.16-.16.17-0.33,0.17l0.66,5.58a0.36,0.36,0,0,1-.33.33L335.74,527h-0.33l1.32,9h-0.33c1.49,7.72,3.63,11.5,6.75,11.49,3.78,0,6.9-3.29,9.35-9.7h1a13.71,13.71,0,0,1,.17,2q-1.72,6.16-6.4,8.88a8.32,8.32,0,0,1-4.6,1h-1q-4.19,0-7.41-12.31a0.35,0.35,0,0,1,.33-0.33,59.9,59.9,0,0,1-.67-9.69v-0.82a24.46,24.46,0,0,1-1-3.78h0.33l-0.33-.66V519.9a3.86,3.86,0,0,0-.33-1.31l0.33-.49a10.34,10.34,0,0,0-.83-4.11v-2.46c0-.16,0-0.33.16-0.33a14.06,14.06,0,0,1-.5-3.61h0.33a6.45,6.45,0,0,1-.33-1c0-5.75-.35-15.11-1-28.42l0.33-.66a6.4,6.4,0,0,1-.33-1c0.16-3.78.32-6.08,0.32-7.06h0.33l-0.33-.66v-0.33a0.35,0.35,0,0,1,.33-0.33l-0.33-.66v-2.14a0.35,0.35,0,0,1,.33-0.33l-0.33-.49,0.33-2.3-0.33-.49a3.89,3.89,0,0,0,.33-1.32c0-.66-0.17-1-0.33-1,0.48-7.72,1.46-13,2.78-15.78a45.06,45.06,0,0,1,5.91-7.73,22.44,22.44,0,0,1,3.61-.83h1Z" transform="translate(-330.76 -145.93)"/><path class="a" d="M371.45,434.43l-0.66.82V438a49.08,49.08,0,0,0-.65,4.93,39.34,39.34,0,0,0,.67,7.23h-0.33l0.33,0.66V452a0.35,0.35,0,0,1-.33.33l0.33,0.66v3.61a4.18,4.18,0,0,1-.33,1.15c0.17,0.66.33,1.15,0.33,1.31a0.35,0.35,0,0,1-.33.33l0.33,0.49c0,0.16-.16.66-0.33,1.31,0,0.16.16,0.16,0.33,0.16-0.16,1.81-.49,2.79-0.65,2.79l0.33,0.66c0,0.49-.16.66-0.33,0.66l0.33,3v3.29a0.35,0.35,0,0,1-.33.33l0.33,0.66V476c0,2.14.17,5.09,0.34,9.2a0.35,0.35,0,0,0-.33.33h3.94c0.16,0,.33,0,0.33.16l0.49-.17,0.66,0.16,0.66-.17a1.23,1.23,0,0,0,.82.16c0.49,0,.66,0,0.66-0.17l2.14,0.16h0.33c1.15,0,2.46,0,4.6-.17v-3.45c0-.82-0.17-1.81-0.33-3.29l0.33-.66-0.33-1.81v-0.82a0.35,0.35,0,0,1,.33-0.33,0.35,0.35,0,0,0-.33-0.33c0.16-4.93.32-7.39,0.48-7.56a20,20,0,0,1-.17-3.12,97.93,97.93,0,0,1,.8-15.12l-0.33-.66a5.52,5.52,0,0,0,.65-2.46,0.35,0.35,0,0,0-.33-0.33c0.16-2.63.32-3.94,0.65-3.94a0.35,0.35,0,0,0-.33-0.33l0.33-1.48-0.33-1.48h0.33l-0.33-.66v-2.46c0-.16.16-0.17,0.33-0.17a0.35,0.35,0,0,0-.33-0.33l2.46-1c0,0.66.17,1,.33,1l-0.33,1.48v3.94a0.35,0.35,0,0,1-.33.33,0.35,0.35,0,0,0,.33.33c-0.33,0-.81,6.74-1.29,20h-0.16l0.16,0.49v0.33c0,0.49-.16.66-0.49,0.66l0.33,0.66v2.14a0.35,0.35,0,0,1-.33.33l0.33,0.49v3.12a22.65,22.65,0,0,1-.33,2.63,0.35,0.35,0,0,0,.33.33l-0.33,1.48v0.66l0.33,1.81-0.33.66,0.33,0.66a7.63,7.63,0,0,0-.33.82,5.37,5.37,0,0,1,.33,1,7.86,7.86,0,0,1-.33.82l0.5,6.08-0.16.66c0.5,5.91.67,11.83,0.84,17.58l-0.33.66,0.33,1.81v3.61a0.35,0.35,0,0,1-.33.33l0.33,0.66v0.33a4.16,4.16,0,0,1-.33,1.15l0.33,0.66a0.35,0.35,0,0,1-.33.33l0.33,3V522a2.17,2.17,0,0,1,0,2.3,0.35,0.35,0,0,0,.33.33l-0.33,1.64v1.81a4.18,4.18,0,0,0,.33,1.15c-0.16,2.14-.49,3.29-0.65,3.29l0.33,0.66a130.28,130.28,0,0,0,1,15.44l-1,.66h-0.82c-0.82-2-1.32-3.12-1.32-3.29a4,4,0,0,0,.65-2.14,3.88,3.88,0,0,1-.33-1.31h0.33l-0.33-.49v-1a0.35,0.35,0,0,1,.33-0.33l-0.33-.49v-4.6L386,533.48h0.33l-0.33-.66v-3.29a0.35,0.35,0,0,1,.33-0.33l-0.33-.66v-4.76c0-.17.16-0.66,0.33-1.31a0.35,0.35,0,0,0-.33-0.33l0.33-1.81c-0.17-3.45-.34-6.57-0.34-9v-2.14l0.66-1c-0.66-.16-1-0.82-1-2.3v-0.33a0.35,0.35,0,0,1,.33-0.33,5.25,5.25,0,0,0-.33-1,4.19,4.19,0,0,1,.33-1.15l-0.66-3.94a0.35,0.35,0,0,1,.33-0.33l-0.33-1.48V497a4.21,4.21,0,0,1,.33-1.15,0.35,0.35,0,0,0-.33-0.33,5.27,5.27,0,0,0,.33-1c-0.17-2.63-.33-4.6-0.34-6.41l-0.16-.49-0.66.17H374.8c-0.16,0-.66.17-1.31,0.33a4.18,4.18,0,0,0-1.15-.33h-1.48c0,1.48.17,3.94,0.34,7.06,0,0.49-.16,1.48-0.32,3.29a85.74,85.74,0,0,1,.5,9.53v0.82c0,0.16,0,.33-0.16.33l0.16,0.66v3.94l0.33,2.14h-0.33l0.33,0.49a100.83,100.83,0,0,0,.67,10.18c0,0.16-.16.16-0.33,0.16a17.91,17.91,0,0,0,.66,3.78l-0.33.49a0.35,0.35,0,0,0,.33.33l-0.33,1.48v4.6l0.33,2.14h-0.33a0.35,0.35,0,0,0,.33.33l-0.33,1.48c0.17,4.44.34,6.9,0.34,7.39l-1.48,1.15a4,4,0,0,0-1.32-1.48l0.33-1.64v-2.63a0.35,0.35,0,0,1,.33-0.33l-0.33-.66c0.16-3.12.32-5.09,0.32-5.75l-0.33-.66,0.33-.49c-0.17-2.14-.33-3.78-0.33-4.93a0.77,0.77,0,0,1,.33-0.82l-0.33-1.64v-0.49c0-1.81-.17-4.44-0.34-7.89a0.35,0.35,0,0,1,.33-0.33l-0.33-1.64v-2.63l-0.33-2.14h0.33l-0.33-.66V508l-0.33-2c0-.16.16-0.16,0.33-0.16a64.79,64.79,0,0,1-.5-8.54v-1.48c0-.16,0-0.33.16-0.33,0-.16,0-0.33-0.16-0.33a2.09,2.09,0,0,1,.16-1c-0.17-4.6-.5-6.9-0.83-6.9l0.33-2.14c-0.17-5.75-.34-9.53-0.34-11.67h0.33l-0.33-.49c0-.82.16-1.31,0.33-1.31l-0.33-2.14v-9.36c0-1.81.16-3.78,0.32-6.41l-0.33-.49a0.35,0.35,0,0,1,.33-0.33l-0.33-2.14v-1.81a0.35,0.35,0,0,1,.33-0.33,11.39,11.39,0,0,1-.66-2.79l0.33-.66a22.49,22.49,0,0,1-.33-2.63v-0.33a49.16,49.16,0,0,0,.65-4.93v-3.62Z" transform="translate(-330.76 -145.93)"/><path class="a" d="M412.86,438.82c4.44,5.25,6.75,10.34,6.75,15.44,0.49,0,1,2.79,1.49,8.21h-0.16l0.49,1.31a2.37,2.37,0,0,0-.33,1.15,0.35,0.35,0,0,1,.33.33l-0.49.33a17.32,17.32,0,0,1,.5,3.29,0.35,0.35,0,0,1-.33.33l0.33,1.48c0,3.45-.16,5.26-0.49,5.26,0,0.16,0,.16.16,0.16a16.06,16.06,0,0,1-1.14,4.6,6.44,6.44,0,0,1,.33,1c-0.49.17-1.48,2.79-3.11,7.56-0.49.17-1.64,1.81-3.61,4.93-3.12,2.47-5.25,3.62-6.07,3.62v0.33a94.9,94.9,0,0,1,4.61,11.17q1,0,6.43,16.75c0.82,1.31,3.29,6.73,7.25,16.42a0.35,0.35,0,0,0-.33.33c0.33,0,1,1.31,2.14,3.94a1.7,1.7,0,0,1-.82,1.15c-1.15-.66-1.81-1.31-1.81-1.81l-9.23-21.84a240.72,240.72,0,0,0-10.38-25.62l-3,.33c0,0.82-.16,1.31-0.33,1.31l0.33,0.49-0.33.66a7.69,7.69,0,0,1,.33.82,6.41,6.41,0,0,1-.33,1l0.33,1.15c-0.16,2.14-.32,3.61-0.32,4.6,0,0.49.17,0.66,0.33,0.66l-0.33,1.48v6.74a2.37,2.37,0,0,1-.33,1.15,3.09,3.09,0,0,1,.33,1.31v2.14c0,0.16-.16.16-0.33,0.16a3.92,3.92,0,0,1,.66,2v8l0.33,3.12h-0.33a4.28,4.28,0,0,1,.49,1.81v0.66l-0.16.49c0.49,0,.82,2.63.83,8l-1.15.82c0-.49-0.49-0.66-1.31-0.66v-0.49a20.93,20.93,0,0,0-.33-2.79,0.35,0.35,0,0,1,.33-0.33,99.79,99.79,0,0,1-.5-10l0.16-.66a15.24,15.24,0,0,1-.5-4.76v-10a3.89,3.89,0,0,0-.33-1.31c0-.16.16-0.16,0.33-0.16a6.46,6.46,0,0,0-.33-1c0.16-2.63.32-4.76,0.32-6.41v-1.48a0.35,0.35,0,0,1,.33-0.33l-0.33-.66v-1.81a0.35,0.35,0,0,1,.33-0.33,3.46,3.46,0,0,1-.66-1.81c0.16-2.14.32-3.61,0.32-4.76a0.54,0.54,0,0,1-.66-0.66q1-1.23,1-4.93c0-.16-0.17-0.66-0.33-1.81l0.49-.33c0-.16,0-0.16-0.16-0.16l0.16-3.12v-3a0.35,0.35,0,0,1,.33-0.33l-0.33-.66,0.32-4.93c0-.16-0.16-0.16-0.33-0.16l0.33-1.64V470c0.16-1.48.33-2.14,0.65-2.14l-0.33-.49v-3.94a0.35,0.35,0,0,1,.33-0.33l-0.33-.66v-1.81a0.35,0.35,0,0,1,.33-0.33l-0.33-.66,0.33-2-0.33-1.64a0.35,0.35,0,0,1,.33-0.33,20.32,20.32,0,0,0-.66-4.11l0.33-.66L401,449.51h0.33l-0.33-.66v-0.33a2.38,2.38,0,0,1,.33-1.15,6.55,6.55,0,0,1-.33-1l0.33-.66-0.33-.49,0.33-1.81a3.08,3.08,0,0,0-.33-1.31,1.31,1.31,0,0,1,.66-1.15L401,437.85q0.24-3,2.46-3Q410.64,436.11,412.86,438.82Zm-9.36,0v6.74a2.18,2.18,0,0,1,0,2.3v1a2.38,2.38,0,0,0,.33,1.15l-0.33.66,0.33,1.48-0.33.66,0.33,1.81a0.35,0.35,0,0,1-.33.33l0.33,0.66v1.48a0.35,0.35,0,0,1-.33.33l0.66,2.63c-0.16,2.14-.49,3.12-0.65,3.12a2.76,2.76,0,0,1,.33.82l-0.33.66,0.33,0.66-0.33,1.15a0.35,0.35,0,0,0,.33.33c-0.16,2.14-.49,3.29-0.65,3.29l0.33,0.66a0.35,0.35,0,0,1-.33.33l0.33,0.66v0.49a0.35,0.35,0,0,1-.33.33l0.33,0.66a0.35,0.35,0,0,1-.33.33,0.35,0.35,0,0,0,.33.33l-0.65,8.38,0.33,0.66a1.23,1.23,0,0,1-.49,1,1.13,1.13,0,0,0,.49.82c-0.32,4.76-.65,7.07-0.81,7.07a0.35,0.35,0,0,0,.33.33l-0.33,3v1.15a2.78,2.78,0,0,1,.82.33c5.26-1.48,8.87-3.79,10.67-6.91,3.28-6.25,4.92-11.18,4.91-15H419l-0.17-.66,0.16-.49c0-.17,0-0.33-0.16-0.33L419,471v-2.46a0.35,0.35,0,0,1,.33-0.33l-0.33-.49c0-12.81-2.49-22-7.59-27.76a13.16,13.16,0,0,0-7.56-2.62Z" transform="translate(-330.76 -145.93)"/><path class="a" d="M442.92,436.81l-0.16,3.61v1.81a128.75,128.75,0,0,1-1,17.25,34.71,34.71,0,0,1,.33,4.27v0.33a0.35,0.35,0,0,1-.33.33l0.33,0.66v10l0.33,1.81a0.35,0.35,0,0,1-.33.33l0.33,2.14v3.29a0.35,0.35,0,0,1-.33.33l0.33,0.66v2a0.35,0.35,0,0,1-.33.33l0.33,0.66v3.29l0.33,2.14h-0.33l0.33,0.66a0.35,0.35,0,0,1-.33.33l0.33,0.66v1.81a22.66,22.66,0,0,1-.33,2.63,0.35,0.35,0,0,0,.33.33l-0.33,1.48a4.86,4.86,0,0,0,.33,1.64,31.26,31.26,0,0,0-.32,3.29v4.6a4.18,4.18,0,0,0,.33,1.15,3.86,3.86,0,0,0-.33,1.31v3.61a4.18,4.18,0,0,0,.33,1.15l-0.33.66c0.17,1.15.33,1.64,0.33,1.81l-0.33,1.15a4.86,4.86,0,0,1,.33,1.64h-0.33l0.33,0.49v0.33l-0.65,2.14a0.69,0.69,0,0,1,.66.66v3.29a0.35,0.35,0,0,1-.33.33l0.33,0.66v0.33c0,0.16-.16.16-0.33,0.16l0.5,3.78-0.16.49a31.72,31.72,0,0,0,.5,5.58,7.86,7.86,0,0,0-.33.82c0.17,3.78.34,5.75,0.34,6.41L443,548c0.16,0.16-.49.17-1.81-0.33v-4.27a31.31,31.31,0,0,0-.33-3.29,0.36,0.36,0,0,1,.33-0.33c-0.33-3.45-.5-6.9-0.5-10.68l0.16-1.81a19.92,19.92,0,0,1-.17-3.12v-3l-0.33-1.48h0.33l-0.33-.66V518.8a0.77,0.77,0,0,1,.33-0.82l-0.33-1.64V503.68a3.86,3.86,0,0,1,.33-1.31,7.71,7.71,0,0,1-.33-0.82h0.33l-0.33-.66v-0.33a0.35,0.35,0,0,1,.33-0.33l-0.33-.49c0.16-1.81.33-3.12,0.32-3.94a5.27,5.27,0,0,1-.33-1l0.33-.66c-0.5-7.06-.67-11-0.67-12.16,0.16-1.15.49-1.81,0.66-1.81-0.49-.66-0.83-3.45-1-8.54A22.65,22.65,0,0,0,440,469l0-15.28a0.35,0.35,0,0,1,.33-0.33c0-.16-0.17-0.16-0.33-0.16l0.33-1.64a0.35,0.35,0,0,0-.33-0.33l0.33-1.48v-2.63a0.35,0.35,0,0,1,.33-0.33q-0.26-10.84,1-10.84c0.82-1.15,1.31-1,1.15.49C442.76,436.65,442.76,436.81,442.92,436.81Z" transform="translate(-330.76 -145.93)"/><path class="a" d="M466.91,436.46a14,14,0,0,1,7.56,5.41l1.65,3.28c-0.16,2.46-.49,3.78-1,3.78-0.82,0-1.64-1.81-2.14-5.25-2.14-3.12-4.61-4.76-7.23-4.76,0-.16-0.16-0.33-0.66-0.33-3.12.5-4.6,2.8-4.59,7.23v3.29a3.1,3.1,0,0,1-.33,1.31,11.66,11.66,0,0,1,.66,3.94h-0.33a9.57,9.57,0,0,1,.66,2.79h-0.33a73.26,73.26,0,0,1,1.82,9.36,26.59,26.59,0,0,1,1.65,6.9H464a112.88,112.88,0,0,1,3,11.66l3.46,12.65H470.1c0.82,2.46,2.15,8.71,4.29,18.89h-0.33c0.49,0.82,1.32,4.27,2.15,10h-0.33a58.21,58.21,0,0,1,1.16,8.21c0,6.9-2,11.34-5.73,13.48a9.65,9.65,0,0,1-4.27,1.15c-2.63,0-5.59-1.64-8.71-4.92-1.15-1.64-2.14-5.42-3.13-11.5h0.33l-0.33-.66v-0.82q0-4.19,1.47-4.93a1.4,1.4,0,0,1,1,1v0.49c0,1.48-.16,2.14-0.66,2.14l1,5.58-0.33.49c1.15,4.6,3,7.72,5.43,9.52A10.36,10.36,0,0,0,466.7,547l1.64-.33V547c1.64,0,3.61-2,5.74-6.09a27.51,27.51,0,0,0,.49-4.6v-0.17a69.17,69.17,0,0,0-1.49-12.48l0.33-.66c-4.13-19.22-7.6-33.84-10.4-44a229.16,229.16,0,0,1-4.79-25.62l0.16-3-0.17-4.27c0-6.41,2.45-9.7,7.22-9.7h1.48Z" transform="translate(-330.76 -145.93)"/><path class="a" d="M487.44,434.46l2,0.33,0.49-.33c2.14,0.16,3.12.33,3.12,0.49,0.16,0,.33,0,0.33-0.16,2.46,0.33,3.61.65,3.61,0.82l0.49-.33h0.33a0.35,0.35,0,0,1,.33.33l0.66-.33h0.82a0.35,0.35,0,0,1,.33.33,4,4,0,0,1,1.81-.66,6.42,6.42,0,0,0,1,.33l0.66-.33,1.48,0.33c0.16,0,.49-0.17,1.15-0.33a0.35,0.35,0,0,1,.33.33l1.48-.33h2.46a3.88,3.88,0,0,1,1.31.33,2.18,2.18,0,0,1,2.3,0l0.66-.33c1.81,0.49,2.79,1.15,2.79,1.64a2.88,2.88,0,0,1-2.79,1.48,0.54,0.54,0,0,0-.66-0.66,0.77,0.77,0,0,0-.82.33l-1.48-.33h-6.74l-1.48.33a0.35,0.35,0,0,0-.33-0.33c-0.49,1.15-.65,3.45-0.65,7.07v2.46a5.59,5.59,0,0,1,1,3.61h-0.33c0.17,1.48.33,2.14,0.5,2.13l-0.16,1.48a25.53,25.53,0,0,0,.17,3.29l-0.16.66,0.17,1.81v1.81c0,0.16,0,.33-0.16.33,0.33,0.49.66,2.46,0.83,6.08a6.43,6.43,0,0,0-.33,1,2.38,2.38,0,0,1,.33,1.15h-0.33l0.33,0.66v0.33c0,0.16-.16.16-0.33,0.17l0.33,0.66a0.35,0.35,0,0,1-.33.33l0.33,0.66a0.35,0.35,0,0,1-.33.33l0.33,0.49a0.35,0.35,0,0,1-.33.33l0.33,0.66a0.35,0.35,0,0,1-.33.33c0,0.16.16,0.16,0.33,0.16l-0.33,2.14v0.33l0.33,3.12h-0.33l0.33,0.49c-0.49,5.59-.81,9.53-0.81,11.67v2.14l0.17,3.61h-0.16c0,0.17,0,.33.17,0.33-0.16,1.81-.16,2.79-0.16,3,0.18,12,.19,19.39.19,22.51L504,525.3l-0.33.66a2.76,2.76,0,0,0,.33.82l-0.33,1.48c0.17,1.15.33,2,.33,2.46h-0.33l0.33,0.66a0.35,0.35,0,0,1-.33.33,0.35,0.35,0,0,0,.33.33l-0.48,12.16a18.09,18.09,0,0,1,.17,3.61,1.34,1.34,0,0,1-1.81-1.48c0-.49,0-0.66-0.17-0.66l0.16-2.14v-3.94l-0.17-2.14h0.16l-0.17-.66v-2.46c0-.16,0-0.16.16-0.16,0-.17,0-0.33-0.17-0.33l0.16-1.64c0-.49,0-0.82-0.17-0.82l0.16-1.48V526a25.5,25.5,0,0,0-.5-6.41l0.33-.66-0.33-1.81v-0.33a0.36,0.36,0,0,1,.33-0.33l-0.33-.49v-7.39l0.33-1.81a4,4,0,0,1-.66-2.13h0.33a0.35,0.35,0,0,0-.33-0.33c0.15-10.68.47-19.39,0.79-26.45v-3.94a0.35,0.35,0,0,1,.33-0.33l-0.33-.49V467.3l-0.17-1.64h0.16l-0.17-.49v-1.64a2.44,2.44,0,0,1,.16-1.15c0-.16,0-0.33-0.16-0.33a1.78,1.78,0,0,1,.16-0.82c0-.49-0.17-2-0.5-4.27h0.33l-0.66-2.46,0.33-1.48c-0.5-4.93-.83-10.19-1-15.61-0.33,0-1.48.17-3.61,0.33-4.44-.32-6.74-0.65-6.74-0.81l-0.49.16c-2.14-.33-3.12-0.65-3.12-1.15v-0.66a1.7,1.7,0,0,1,1-.82h0.16Z" transform="translate(-330.76 -145.93)"/><path class="a" d="M533.44,434.57h1.48c0.66,0,1-.17,1-0.33l1.48,0.33h7.07c2,0.49,3,1,3,1.15v0.66l-0.33.66c-2.79-.16-4.44-0.32-4.77-0.65-0.66.17-1.15,0.33-1.31,0.33h-1.81a4.15,4.15,0,0,1-1.15-.33c-0.66.17-1.15,0.33-1.31,0.33H536.4c-0.16,0-.16-0.16-0.17-0.33l-0.66.33h-2.79c0,0.82-.16,1.15-0.33,1.15a0.35,0.35,0,0,0,.33.33,5.25,5.25,0,0,0-.33,1l0.33,1.48c-0.81,5.92-1.14,9.2-1.14,10l0.33,0.66-0.33,2.14c0.17,3.45.34,5.59,0.34,6.08a0.35,0.35,0,0,1-.33.33l0.33,1.48v5.42c0,0.16.17,0.66,0.33,1.31a4.19,4.19,0,0,0-.33,1.15v3.94L531.68,475a4.84,4.84,0,0,1,.33,1.48v0.66a4.18,4.18,0,0,1-.33,1.15l0.33,0.66a5.51,5.51,0,0,1-.65,2.46,4.13,4.13,0,0,1,.33,1.15c-0.16,1.48-.33,2.3-0.33,2.46l0.33,0.66-0.33,1.81v2.46a0.35,0.35,0,0,1-.33.33l0.66,1.15,0.66-.33h10.19a1.41,1.41,0,0,1,1,1c0,0.82-3.61,1.32-10.68,1.49a5.05,5.05,0,0,0-1.81-.33v0.33a21.09,21.09,0,0,1,.33,2.79v1.15c0,1.81-.16,3.78-0.32,6.41a7.89,7.89,0,0,1,.33.82h-0.33l0.33,0.66a4.83,4.83,0,0,1-.33,1.48c0.17,4.27.5,8.38,1,12.16h-0.33l0.66,1.64-0.33,1.81c0.17,1.81.33,3.61,0.33,5.42h-0.33a9.25,9.25,0,0,1,.5,3.29V533c0,0.16,0,.33-0.16.33l0.16,0.66v0.33c0,0.16,0,.33-0.16.33l0.16,0.49c0,0.16,0,.33-0.16.33,0,0.17,0,.33.16,0.33l-0.16,1.48v1l0.49,0.82a3.85,3.85,0,0,1-.33,1.31l0.66,5.09h8.21l1.81-.33a1.78,1.78,0,0,1,1.32.66l0.49-.33h2.14a1.4,1.4,0,0,1,1,1v0.82c-0.66,0-1,.17-1,0.66l-0.66-.33h-0.49c-0.66,0-1,.17-1,0.33-2.14-.16-3.29-0.49-3.29-0.65l-0.66.33h-1.48a4.2,4.2,0,0,1-1.15-.33,21.09,21.09,0,0,1-4.6.66,5.28,5.28,0,0,1-1-.33c0,0.49-.16.66-0.49,0.66-0.82,0-1.48-1.48-2-4.27a0.35,0.35,0,0,1,.33-0.33l-0.33-1.48v-1.48a32.09,32.09,0,0,0-.17-4.6,49.6,49.6,0,0,0,.16-5.09v-4.27a2.49,2.49,0,0,0-.17-1.31c0-.16,0-0.33.16-0.33L530.25,523v-1.48c-0.5-6.57-.67-10.18-0.67-10.68v-3.29a4.16,4.16,0,0,0-.33-1.15c0.16-.66.33-1.15,0.33-1.31v-0.49l-0.33-1.64h0.33a8.15,8.15,0,0,1-.33-0.82l0.33-.66a7.66,7.66,0,0,1-.33-0.82h0.33a0.35,0.35,0,0,0-.33-0.33l0.33-3.12v-1.81l-0.33-1.48h0.33l-0.33-.66v-0.66c0-.16.16-0.16,0.33-0.16a0.35,0.35,0,0,0-.33-0.33l0.33-1.64v-5.75l0.33-1.81a7.77,7.77,0,0,1-.33-0.82h0.33a0.35,0.35,0,0,0-.33-0.33,34,34,0,0,0,.65-8.22v-3.94c0-.17,0-0.33.16-0.33l-0.16-.66a84.89,84.89,0,0,0-.67-10.84,0.35,0.35,0,0,1,.33-0.33l-0.33-1.48a96.9,96.9,0,0,1,1.13-15.61,0.35,0.35,0,0,0-.33-0.33c0.32-4.11.82-6.08,1.64-6.08h0.49Z" transform="translate(-330.76 -145.93)"/><path class="a" d="M561,433.56c1.64,1.15,3.29,4.43,5.1,9.69,7.08,14,13.83,26.43,20.09,37.76h0.33l-0.33-1.48v-5.59a3.56,3.56,0,0,0-.33-1.64l0.33-1.81v-4.44c0-.16.17-0.16,0.33-0.17a6.79,6.79,0,0,1-.66-3.45v-0.66a0.35,0.35,0,0,1,.33-0.33l-0.5-3.78,0.16-1.15c-0.17-1.81-.17-3.12-0.17-4.11h0.16a1.79,1.79,0,0,1-.16-0.82,3.21,3.21,0,0,1,.16-1.31,18,18,0,0,1-.17-2.79v-0.66c0-.16,0-0.16.16-0.16,0-.17,0-0.33-0.16-0.33l0.16-3.12v-0.33q-0.5-5.17-.5-5.91v-1.31a1.82,1.82,0,0,1,.82-0.82c0.33,0,1,.66,2,2.13l-0.33,1.48a6.45,6.45,0,0,0,.33,1,0.35,0.35,0,0,1-.33.33l0.33,1.48c-0.16,4.76-.32,8.21-0.31,10.68l0.33,1.48-0.33.66a2.4,2.4,0,0,1,.33,1.15,0.35,0.35,0,0,1-.33.33l0.33,0.66c0.17,5.75.34,10.51,0.35,14.29v0.66a0.35,0.35,0,0,1-.33.33l0.33,0.49v2.3a12.6,12.6,0,0,0,.17,2.46l-0.49,3.62c0,1,.17,2.3.33,4.11-0.16,4.11-.32,7.89-0.32,11.17,0.17,1.48.33,2.3,0.33,2.46h-0.33l0.33,0.66v1.15a0.35,0.35,0,0,1-.33.33,0.35,0.35,0,0,0,.33.33l-0.32,3.12v2.46a12.55,12.55,0,0,0,.33,2.46l-0.65,5.92,0.33,0.66-0.33.66,0.33,1.81a0.36,0.36,0,0,1-.33.33l0.33,0.66v1.48a0.35,0.35,0,0,1-.33.33l0.33,0.66v3.12c0,0.17-.16.17-0.33,0.17l0.33,0.66v3.45a2.4,2.4,0,0,1-.33,1.15,3.86,3.86,0,0,1,.33,1.31v0.66a0.36,0.36,0,0,1-.33.33,0.35,0.35,0,0,0,.33.33,83.69,83.69,0,0,0-.64,10.52l-0.33.66c0,0.16.16,0.16,0.33,0.16-0.16,2.79-.49,4.11-1.31,4.11h-0.49q-1,0-1-4.93a0.54,0.54,0,0,0,.66-0.66v-3.45a0.35,0.35,0,0,1,.33-0.33,0.35,0.35,0,0,0-.33-0.33,23.66,23.66,0,0,1,.82-4.6,1.23,1.23,0,0,0-.49-1L586,530.3V530l-0.17-2.14H586c0-.17,0-0.33-0.16-0.33L586,526v-9.36a0.35,0.35,0,0,1,.33-0.33l-0.33-.49,0-13.8c0-.16.16-0.16,0.33-0.17l-0.33-.66v-0.33a0.35,0.35,0,0,1,.33-0.33l-0.33-.66V489.06a0.35,0.35,0,0,1,.33-0.33l-0.33-.66a31.24,31.24,0,0,0,.32-3.29c-4.11-6.24-9.55-15.92-16.13-28.9A72.55,72.55,0,0,1,562,438.81H561.7v3.45a0.35,0.35,0,0,1-.33.33l0.33,0.66v4.93a0.35,0.35,0,0,1-.33.33l0.33,0.66v1.48c0,4.76.17,7.56,0.67,8.71a0.35,0.35,0,0,1-.33.33l0.33,1.48v1a0.35,0.35,0,0,1-.33.33l0.33,0.66V473a0.35,0.35,0,0,1-.33.33c0.49,1.15.66,3.94,0.67,8v3.78l0.33,1.81-0.33.66,0.33,1.81h-0.33a0.35,0.35,0,0,0,.33.33c-0.16,1.81-.49,2.79-0.65,2.79l0.33,0.66V495c0,0.82.17,2,.33,3.45a0.35,0.35,0,0,1-.33.33l0.33,1.48v1c0,1.64-.16,3.61-0.32,5.92l0.33,0.49-0.33,2V510l0.33,2.13h-0.33l0.33,0.66v1.81c0,1.48.17,3.78,0.34,6.9h-0.33c0,0.17.16,0.17,0.33,0.17a11.45,11.45,0,0,0-.65,3.12l0.33,4.44h-0.33l0.33,0.49v1.64a21.31,21.31,0,0,1-.33,2.79,0.35,0.35,0,0,0,.33.33l-0.33,2.14v3.12a22.61,22.61,0,0,1-.33,3.12,13.08,13.08,0,0,1,.33,2.79v1.48a0.54,0.54,0,0,1-.66.66h-0.33c-0.33,0-.66-1-1.15-3.12,0.16-5.75.32-10.51,0.31-14.29v-8c0-.17,0-0.33.16-0.33l-0.17-.49v-0.33c0-.16,0-0.33.16-0.33l-0.16-.66c0-.17,0-0.33.16-0.33L561,518.33v-1a3.64,3.64,0,0,1,.16-1.31,1.78,1.78,0,0,1-.17-0.82h0.16c0-.17,0-0.33-0.16-0.33l0.16-3.12v-0.33c0-1.81,0-3.62-.17-5.59a12.46,12.46,0,0,0,.16-2.46L561,501.9h0.16a2.89,2.89,0,0,1-.16-1c0-.16,0-0.33.16-0.33L561,499.11v-2.63l-0.33-3h0.33l-0.33-.66v-2c0-.17.16-0.17,0.33-0.17a0.35,0.35,0,0,0-.33-0.33q0.24-3.45.49-3.45a4.3,4.3,0,0,1-.5-1.81V474.79a2.37,2.37,0,0,0-.33-1.15,3.9,3.9,0,0,0,.33-1.32v-1.48l-0.33-1.64h0.33a0.35,0.35,0,0,0-.33-0.33l0.33-1.48v-3.78l-0.33-1.81,0.33-.66a2.75,2.75,0,0,1-.33-0.82,0.35,0.35,0,0,1,.33-0.33,64.87,64.87,0,0,1-1-8.38v-2a2.37,2.37,0,0,1,.33-1.15,3.08,3.08,0,0,1-.33-1.31l0.33-.49-0.33-.66a13.77,13.77,0,0,0,.33-2.14l-0.33-.66a3.87,3.87,0,0,0,.33-1.31,2.38,2.38,0,0,0-.33-1.15,0.35,0.35,0,0,1,.33-0.33l-0.33-2.14v-3.78a1.41,1.41,0,0,1,1-1H561Z" transform="translate(-330.76 -145.93)"/><path class="a" d="M359.73,301.78H359.4c0.33,0.82.66,4.6,1.16,11.33h-0.33a0.35,0.35,0,0,0,.33.33,23.41,23.41,0,0,1-.49,3.94l0.49,1.15a0.35,0.35,0,0,1-.33.33l1,4.76h-0.33l0.33,0.66a0.35,0.35,0,0,1-.33.33l0.33,1.48v1.81l-0.33.66a0.69,0.69,0,0,1,.66.66c-0.16,1.15-.33,1.64-0.33,1.81l0.33,1.15a6.49,6.49,0,0,0-.33,1,2.77,2.77,0,0,1,.33.82,0.35,0.35,0,0,1-.33.33l0.33,2.14v1.48a0.35,0.35,0,0,1-.33.33l0.33,0.66a0.35,0.35,0,0,1-.33.33l0.33,1.48v1c0,0.17-.16.17-0.33,0.17l0.33,0.66v0.33a0.35,0.35,0,0,1-.33.33l0.33,0.66v3.61l0.33,1.81a2.77,2.77,0,0,0-.33.82,0.35,0.35,0,0,0,.33.33l-0.33,2.14v3.61a0.35,0.35,0,0,1-.33.33l0.33,0.66a0.35,0.35,0,0,1-.33.33,0.35,0.35,0,0,0,.33.33l-0.33,1.48v3a0.35,0.35,0,0,1-.33.33l0.33,0.66a0.35,0.35,0,0,1-.33.33,0.35,0.35,0,0,0,.33.33q-0.49,6.41-1,6.41c0,0.16.16,0.16,0.33,0.16l-0.33,1.64v1.81q0,10.6-6.88,17.26a20,20,0,0,1-5.75,2.47c-4.11,0-6.74-1.47-7.89-4.59-1.48-1.64-2.8-6.73-4-15.44,0-.16,0-0.33.16-0.33l-0.17-1.48c-0.17-4.93-.34-7.72-0.34-8.21h0.33l-0.33-.66,0.33-1.81a0.35,0.35,0,0,0-.33-0.33,2.79,2.79,0,0,1,.33-0.82l-0.67-9.2h0.33l-0.33-.66V344c0-.17.16-0.17,0.33-0.17l-0.33-.66v-4.6c0-1.64.16-3.61,0.32-5.75a0.35,0.35,0,0,0-.33-0.33l0.33-1.48v-1a22.48,22.48,0,0,0-.33-2.63,6.49,6.49,0,0,0,.33-1,2.37,2.37,0,0,1-.33-1.15h0.33a0.35,0.35,0,0,0-.33-0.33,6.46,6.46,0,0,1,.33-1,42.57,42.57,0,0,1-.67-7.88v-1.81a0.35,0.35,0,0,1,.33-0.33l-0.33-.49v-0.33a3.86,3.86,0,0,1,.33-1.31l-0.33-.49c1.3-14,2.77-22.51,4.24-26,2.79-6.08,6.23-9,10.34-9C353.79,276.32,357.25,284.86,359.73,301.78ZM340.5,289.15c-0.65,2.14-1.15,3.29-1.48,3.29l0.33,0.66c-0.82,5.42-1.47,8.22-1.8,8.71a0.35,0.35,0,0,0,.33.33l-0.33,1.48v0.33l0.33,0.66c-0.49,0-.82,1-1,2.79,0,0.17.16,0.17,0.33,0.17l-0.33,2.14v5.26a0.35,0.35,0,0,1-.33.33l0.33,0.49v2.14l0.33,2.14h-0.33l0.33,0.66v2.14a20.87,20.87,0,0,0,.33,2.79,2.78,2.78,0,0,0-.33.82,0.35,0.35,0,0,1,.33.33l-0.66.33,0.33,0.66v4.44a0.35,0.35,0,0,1-.33.33l0.33,0.66v2.14a0.35,0.35,0,0,1-.33.33l0.33,0.49v5.26a0.35,0.35,0,0,1-.33.33c0.17,0.82.33,1.15,0.66,1.15l-0.33,1.48v0.33a3.85,3.85,0,0,0,.33,1.31l-0.33.49a21,21,0,0,1,.33,2.79v0.33a0.35,0.35,0,0,1-.33.33,11.76,11.76,0,0,1,.66,2.63h-0.33a0.35,0.35,0,0,0,.33.33L337.61,354l0.33,1.64h-0.33a0.35,0.35,0,0,0,.33.33l-0.33,1.48a2.8,2.8,0,0,1,.33.82h-0.33l0.33,0.66a2.38,2.38,0,0,1-.33,1.15,0.35,0.35,0,0,0,.33.33l-0.33,2.14a109,109,0,0,0,1.83,18.56l-0.33.66a23.91,23.91,0,0,0,4.28,8.7l0.66-.17a13,13,0,0,0,3.94.82q5.17-2,6.89-5.43c2.79-5.59,4.25-16.1,4.24-31.38v-1.81a0.35,0.35,0,0,1,.33-0.33c0-.16-0.16-0.16-0.33-0.16l0.33-1.64v-7.23a3.85,3.85,0,0,1,.33-1.31,2.78,2.78,0,0,1-.33-0.82h0.33l-0.33-.66v-0.33c0-.16.16-0.16,0.33-0.16l-0.33-.66v-3.61a36.61,36.61,0,0,0-.67-8.21h0.33a112.13,112.13,0,0,1-1.16-11.83,2.87,2.87,0,0,0,.16-1c0-.17,0-0.33-0.16-0.33l0.16-1.48v-3.12c0-.17.16-0.17,0.33-0.17l-0.33-.66v-0.33a28.52,28.52,0,0,0-.83-6.41h0.33c-1.82-10.84-3.8-18.4-6.1-22.83a20.57,20.57,0,0,1-3.12-.49c-1.48,0-3.78,2-6.56,6.08a5.48,5.48,0,0,1-1.64,3.62Z" transform="translate(-330.76 -145.93)"/><path class="a" d="M387.64,282.85c4.44,5.25,6.75,10.34,6.75,15.44,0.49,0,1,2.79,1.49,8.21h-0.16l0.49,1.31a2.38,2.38,0,0,0-.33,1.15,0.35,0.35,0,0,1,.33.33l-0.49.33a17.33,17.33,0,0,1,.5,3.28,0.35,0.35,0,0,1-.33.33l0.33,1.48c0,3.45-.16,5.26-0.49,5.26,0,0.17,0,.17.16,0.17a16,16,0,0,1-1.14,4.6,6.4,6.4,0,0,1,.33,1c-0.49.16-1.48,2.79-3.11,7.56-0.49.17-1.64,1.81-3.61,4.93-3.12,2.47-5.25,3.62-6.07,3.62v0.33a94.67,94.67,0,0,1,4.61,11.17q1,0,6.43,16.75c0.82,1.31,3.29,6.73,7.25,16.42a0.35,0.35,0,0,0-.33.33c0.33,0,1,1.31,2.14,3.94a1.7,1.7,0,0,1-.82,1.15c-1.15-.66-1.81-1.31-1.81-1.81l-9.22-21.84a240.6,240.6,0,0,0-10.38-25.62l-3,.33c0,0.82-.16,1.31-0.33,1.31l0.33,0.49-0.33.66a7.74,7.74,0,0,1,.33.82,6.43,6.43,0,0,1-.33,1l0.33,1.15c-0.16,2.14-.32,3.61-0.32,4.6,0,0.49.17,0.66,0.33,0.66l-0.33,1.48v6.74a2.37,2.37,0,0,1-.33,1.15,3.1,3.1,0,0,1,.33,1.31v2.14c0,0.16-.16.16-0.33,0.16a3.92,3.92,0,0,1,.66,2v8l0.33,3.12h-0.33a4.28,4.28,0,0,1,.5,1.81v0.66l-0.16.49c0.49,0,.82,2.63.83,8l-1.15.82c0-.49-0.49-0.66-1.32-0.66v-0.49a21,21,0,0,0-.33-2.79,0.35,0.35,0,0,1,.33-0.33,99.75,99.75,0,0,1-.5-10l0.16-.66a15.24,15.24,0,0,1-.5-4.76v-10a3.88,3.88,0,0,0-.33-1.31c0-.16.16-0.16,0.33-0.16a6.54,6.54,0,0,0-.33-1c0.16-2.63.32-4.76,0.32-6.41v-1.48a0.35,0.35,0,0,1,.33-0.33l-0.33-.66v-1.81a0.35,0.35,0,0,1,.33-0.33,3.46,3.46,0,0,1-.66-1.81c0.16-2.14.32-3.61,0.32-4.76a0.54,0.54,0,0,1-.66-0.66q1-1.23,1-4.93c0-.17-0.17-0.66-0.33-1.81l0.49-.33c0-.16,0-0.16-0.16-0.16l0.16-3.12v-3a0.35,0.35,0,0,1,.33-0.33l-0.33-.66,0.32-4.93c0-.16-0.16-0.16-0.33-0.16l0.33-1.64v-6.08c0.16-1.48.33-2.14,0.65-2.14l-0.33-.49v-3.94a0.35,0.35,0,0,1,.33-0.33l-0.33-.66v-1.81a0.35,0.35,0,0,1,.33-0.33l-0.33-.66,0.33-2-0.33-1.64a0.35,0.35,0,0,1,.33-0.33,20.33,20.33,0,0,0-.66-4.11l0.33-.66-0.33-1.48h0.33l-0.33-.66v-0.33a2.37,2.37,0,0,1,.33-1.15,6.49,6.49,0,0,1-.33-1l0.33-.66-0.33-.49,0.33-1.81a3.1,3.1,0,0,0-.33-1.31,1.31,1.31,0,0,1,.66-1.15l-0.66-3.12q0.24-3,2.46-3Q385.42,280.14,387.64,282.85Zm-9.36,0v6.74a2.18,2.18,0,0,1,0,2.3v1a2.38,2.38,0,0,0,.33,1.15l-0.33.66,0.33,1.48-0.33.66,0.33,1.81a0.35,0.35,0,0,1-.33.33l0.33,0.66v1.48a0.35,0.35,0,0,1-.33.33l0.66,2.63c-0.16,2.14-.49,3.12-0.65,3.12a2.77,2.77,0,0,1,.33.82l-0.33.66,0.33,0.66-0.33,1.15a0.35,0.35,0,0,0,.33.33c-0.16,2.14-.49,3.29-0.65,3.29l0.33,0.66a0.35,0.35,0,0,1-.33.33l0.33,0.66v0.49a0.35,0.35,0,0,1-.33.33l0.33,0.66a0.35,0.35,0,0,1-.33.33,0.35,0.35,0,0,0,.33.33l-0.65,8.38,0.33,0.66a1.23,1.23,0,0,1-.49,1,1.14,1.14,0,0,0,.49.82c-0.32,4.76-.65,7.06-0.81,7.07a0.35,0.35,0,0,0,.33.33l-0.33,3v1.15a2.73,2.73,0,0,1,.82.33c5.26-1.49,8.87-3.79,10.67-6.91,3.28-6.25,4.92-11.18,4.91-15h0.16L393.6,318l0.16-.49c0-.16,0-0.33-0.16-0.33l0.16-2.14v-2.46a0.35,0.35,0,0,1,.33-0.33l-0.33-.49c0-12.82-2.49-22-7.59-27.76a13.16,13.16,0,0,0-7.56-2.62Z" transform="translate(-330.76 -145.93)"/><path class="a" d="M417.21,280.35v1.48a12.66,12.66,0,0,0,.33,2.46,52.61,52.61,0,0,0-.65,10.35v3.61a3.85,3.85,0,0,1-.33,1.31l0.33,0.49-0.32,3.61,0.33,0.66-0.33.66,0.33,1.81a0.35,0.35,0,0,1-.33.33l0.33,0.66v2.63a3.86,3.86,0,0,1-.33,1.31c0,0.16.16,0.16,0.33,0.16a6.35,6.35,0,0,1-.33,1l0.33,2.14-0.32,3.61,0.66,1.31a0.41,0.41,0,0,1-.33.49l0.33,3.12V328c0,1.15-.16,2.63-0.32,4.27l0.33,0.66a2.37,2.37,0,0,0-.33,1.15,6.46,6.46,0,0,1,.33,1h-0.33a14.32,14.32,0,0,1,.66,3.94l-0.33.66a2.76,2.76,0,0,0,.33.82c-0.16,2.14-.32,3.78-0.32,4.93v0.82c0,0.82.17,2,.33,3.45L417,352.15c0,0.17.16,0.16,0.33,0.16L417,354l0.67,14h-0.33l0.33,0.66v0.49a0.35,0.35,0,0,1-.33.33,0.35,0.35,0,0,0,.33.33l-0.33,1.48,0.33,2.79h-0.33a2.78,2.78,0,0,1,.33.82c0,0.49-.16.66-0.33,0.66l0.33,2.14v2.14a2.37,2.37,0,0,1-.33,1.15,3.88,3.88,0,0,1,.33,1.31v0.33c0,0.16-.16.16-0.33,0.16l0.33,0.66v3.12a0.35,0.35,0,0,1-.33.33l0.33,0.49V388a0.35,0.35,0,0,1-.33.33,2.77,2.77,0,0,1,.33.82h3l1.81,0.33a0.35,0.35,0,0,0,.33-0.33l2.14,0.33h2.79l1.48-.33v0.33l4.76-.83,0.66,0.82v0.66c0,0.82-1.64,1.32-4.76,1.49h-1.31a0.35,0.35,0,0,1-.33-0.33l-0.49.33h-7.06c-1,0-2.46.17-4.6,0.33a3.86,3.86,0,0,0-1.15-1.81,14.31,14.31,0,0,1,.65-3.94,3.09,3.09,0,0,1-.33-1.31h0.33c0-.16-0.16-0.16-0.33-0.16a19.57,19.57,0,0,0,.49-2.79l-0.17-1.48,0.16-1.31a14.81,14.81,0,0,0-.5-2.46,12.19,12.19,0,0,0,.33-2l-0.33-.66a0.35,0.35,0,0,1,.33-0.33l-0.33-2.13V359.71a0.35,0.35,0,0,1,.33-0.33l-0.33-.66v-3.62l-0.33-1.48h0.33a0.35,0.35,0,0,0-.33-0.33l0.33-2.14v-8.54a0.35,0.35,0,0,1,.33-0.33,2.76,2.76,0,0,1-.33-0.82,6.37,6.37,0,0,1,.33-1,2.79,2.79,0,0,0-.33-0.82,3.86,3.86,0,0,1,.33-1.31,43.18,43.18,0,0,0-.66-5.42l0.33-.66a2.77,2.77,0,0,1-.33-0.82h0.33l-0.33-.66,0.33-1.15a6.5,6.5,0,0,1-.33-1h0.33L414.8,328v-0.49a0.35,0.35,0,0,1,.33-0.33,0.35,0.35,0,0,0-.33-0.33l0.33-1.48c0-.16-0.17-0.82-0.33-1.81h0.33a0.35,0.35,0,0,0-.33-0.33l0.33-2.14a2.38,2.38,0,0,0-.33-1.15,0.35,0.35,0,0,1,.33-0.33l-0.33-3.12v-3.94a2.38,2.38,0,0,0-.33-1.15,3.1,3.1,0,0,0,.33-1.31v-1.48a12.7,12.7,0,0,0-.33-2.46l0.33-1.48-0.33-2.79c0-.17.16-0.17,0.33-0.17l-0.33-1.64v-0.49a20.14,20.14,0,0,1,.65-3.45v-9.36c0-1.48-.17-3.61-0.34-6.74l1.15-.66C416.72,279.7,417.21,280,417.21,280.35Z" transform="translate(-330.76 -145.93)"/><path class="a" d="M458.95,287.7v2.79c0,0.17.16,0.66,0.33,1.31l-0.33.49a5.26,5.26,0,0,0,.33,1c0,0.49-.16.66-0.33,0.66,1.33,13.14,2.66,24.31,4.15,34.83a0.35,0.35,0,0,1-.33.33q3,20.45,3,23.16h-0.33l6,36.14c-0.16,1.48-.33,2.14-0.82,2.14h-0.33c-0.82,0-1.65-3.94-2.64-12l-2.81-16.1h0.33l-0.33-.66a0.35,0.35,0,0,1,.33-0.33,80.56,80.56,0,0,0-2-10.51,5.25,5.25,0,0,1,.33-1,16.49,16.49,0,0,0-1-5.26,0.36,0.36,0,0,1,.33-0.33l-1.16-8.54h-2.3a42.23,42.23,0,0,0-8.21.83V337c-1.13,14-2.27,23.33-3.42,28.26l0.33,0.66c-1,5.42-1.63,8.22-2,8.22l0.33,0.66c-0.16,2.79-.49,4.11-1,4.11l0.33,0.66q-0.24,6.65-1,7.89l0.33,1.31c-0.33,2.14-.65,3.12-1.15,3.12h-0.33a1.41,1.41,0,0,1-1-1v-2.46a0.35,0.35,0,0,1,.33-0.33,0.35,0.35,0,0,0-.33-0.33l2-11.17-0.33-.49,1.47-8.87h0.33l-0.33-.66c1.14-6.08,2.28-14.62,3.42-26,0-.16,0-0.33-0.17-0.33,0.16-3.45.32-5.09,0.82-5.09l-0.33-.66,0.33-.66a0.35,0.35,0,0,0-.33-0.33l0.32-3.12v-2.3a0.35,0.35,0,0,1,.33-0.33l-0.33-.49V327a0.35,0.35,0,0,1,.33-0.33,0.36,0.36,0,0,0-.33-0.33c0.32-4.11.65-6.08,1-6.08a0.35,0.35,0,0,0-.33-0.33c0.65-6.41,1.14-10.19,1.63-11.34a0.35,0.35,0,0,0-.33-0.33c0.65-5.09,1.3-8.87,1.79-11.67l-0.16-.66a11.36,11.36,0,0,1,.49-2.63,0.35,0.35,0,0,0-.33-0.33c0.81-9.37,1.46-14,2.28-14a2.1,2.1,0,0,1,1-.17L458,281A36.14,36.14,0,0,0,458.95,287.7Zm-5.07,17.09a0.35,0.35,0,0,0,.33.33c-0.49,3-.82,4.44-0.82,4.44l0.16,0.49c-0.16,4.27-.49,6.41-0.81,6.41a0.35,0.35,0,0,0,.33.33c-0.16,1.48-.33,2.14-0.65,2.14a0.35,0.35,0,0,0,.33.33c-0.49,3.29-.81,8.22-1.3,15.28a14.48,14.48,0,0,1,5.42-1H461l0.66-.33-1-5.42,0.33-1.15c-0.49-1-1.16-4.43-2-10.51a3.87,3.87,0,0,0,.33-1.32l-0.66-.82v-2.63c0-.82-0.33-3.12-0.83-7.56H458c-0.83-3.45-1.16-8.87-1.17-15.93-0.49,0-.82,1.15-1.31,3.62l0.33,0.66A108.49,108.49,0,0,1,453.87,304.79Z" transform="translate(-330.76 -145.93)"/><path class="a" d="M483.58,277.65c1.64,1.15,3.29,4.43,5.1,9.69,7.08,14,13.83,26.44,20.09,37.76h0.33l-0.33-1.48V318a3.54,3.54,0,0,0-.33-1.64l0.33-1.81v-4.44c0-.17.16-0.17,0.33-0.17a6.79,6.79,0,0,1-.66-3.45v-0.66a0.35,0.35,0,0,1,.33-0.33l-0.5-3.78,0.16-1.15c-0.17-1.81-.17-3.12-0.17-4.11h0.16a1.79,1.79,0,0,1-.17-0.82,3.21,3.21,0,0,1,.16-1.31,17.92,17.92,0,0,1-.17-2.79v-0.66c0-.16,0-0.16.16-0.16,0-.16,0-0.33-0.16-0.33l0.16-3.12V287q-0.5-5.17-.5-5.91v-1.31a1.82,1.82,0,0,1,.82-0.82c0.33,0,1,.66,2,2.13l-0.33,1.48a6.44,6.44,0,0,0,.33,1,0.35,0.35,0,0,1-.33.33l0.33,1.48c-0.16,4.76-.32,8.21-0.32,10.68l0.33,1.48-0.33.66a2.38,2.38,0,0,1,.33,1.15,0.35,0.35,0,0,1-.33.33l0.33,0.66c0.17,5.75.34,10.51,0.34,14.29v0.66a0.35,0.35,0,0,1-.33.33l0.33,0.49v2.3a12.41,12.41,0,0,0,.17,2.46l-0.49,3.62c0,1,.17,2.3.33,4.11-0.16,4.11-.32,7.89-0.32,11.17,0.17,1.48.33,2.3,0.33,2.46h-0.33l0.33,0.66V344a0.35,0.35,0,0,1-.33.33,0.35,0.35,0,0,0,.33.33l-0.32,3.12v2.46a12.7,12.7,0,0,0,.33,2.46l-0.65,5.92,0.33,0.66-0.33.66,0.33,1.81a0.35,0.35,0,0,1-.33.33l0.33,0.66v1.48a0.35,0.35,0,0,1-.33.33l0.33,0.66v3.12c0,0.17-.16.17-0.33,0.17l0.33,0.66v3.45a2.38,2.38,0,0,1-.33,1.15,3.88,3.88,0,0,1,.33,1.31v0.66a0.35,0.35,0,0,1-.33.33,0.35,0.35,0,0,0,.33.33,83.7,83.7,0,0,0-.65,10.52l-0.33.66c0,0.16.16,0.16,0.33,0.16-0.16,2.79-.49,4.11-1.31,4.11h-0.49q-1,0-1-4.93a0.54,0.54,0,0,0,.66-0.66v-3.45a0.35,0.35,0,0,1,.33-0.33,0.35,0.35,0,0,0-.33-0.33,23.47,23.47,0,0,1,.82-4.6,1.23,1.23,0,0,0-.49-1l0.16-2.14v-0.33l-0.17-2.14h0.16c0-.17,0-0.33-0.16-0.33l0.16-1.48v-9.36a0.35,0.35,0,0,1,.33-0.33l-0.33-.49,0-13.8c0-.16.16-0.17,0.33-0.17l-0.33-.66V345a0.35,0.35,0,0,1,.33-0.33l-0.33-.66V333.15a0.35,0.35,0,0,1,.33-0.33l-0.33-.66a31.58,31.58,0,0,0,.32-3.29c-4.11-6.24-9.55-15.93-16.13-28.9a72.57,72.57,0,0,1-8.07-17.08h-0.33v3.45a0.35,0.35,0,0,1-.33.33l0.33,0.66v4.93a0.35,0.35,0,0,1-.33.33l0.33,0.66v1.48c0,4.76.17,7.56,0.67,8.71a0.35,0.35,0,0,1-.33.33l0.33,1.48v1a0.35,0.35,0,0,1-.33.33l0.33,0.66v9.86a0.35,0.35,0,0,1-.33.33c0.49,1.15.66,3.94,0.67,8v3.78l0.33,1.81-0.33.66,0.33,1.81h-0.33a0.35,0.35,0,0,0,.33.33c-0.16,1.81-.49,2.79-0.65,2.79l0.33,0.66v1.81c0,0.82.17,2,.33,3.45a0.35,0.35,0,0,1-.33.33l0.33,1.48v1c0,1.64-.16,3.61-0.32,5.91l0.33,0.49-0.33,2V354l0.33,2.14h-0.33l0.33,0.66v1.81c0,1.48.17,3.78,0.34,6.9h-0.33c0,0.16.16,0.16,0.33,0.16a11.44,11.44,0,0,0-.65,3.12l0.33,4.44h-0.33l0.33,0.49v1.64a21.12,21.12,0,0,1-.33,2.79,0.35,0.35,0,0,0,.33.33l-0.33,2.14v3.12a22.54,22.54,0,0,1-.33,3.12,13,13,0,0,1,.33,2.79v1.48a0.54,0.54,0,0,1-.66.66h-0.33c-0.33,0-.66-1-1.15-3.12,0.16-5.75.32-10.51,0.31-14.29v-8c0-.17,0-0.33.16-0.33l-0.16-.49v-0.33c0-.16,0-0.33.16-0.33l-0.16-.66c0-.17,0-0.33.16-0.33l-0.17-1.48v-1a3.63,3.63,0,0,1,.16-1.32,1.79,1.79,0,0,1-.17-0.82h0.16c0-.17,0-0.33-0.16-0.33l0.16-3.12v-0.33c0-1.81,0-3.61-.17-5.58a12.46,12.46,0,0,0,.16-2.46L483.49,346h0.16a2.9,2.9,0,0,1-.17-1c0-.16,0-0.33.16-0.33l-0.17-1.48v-2.63l-0.33-3h0.33l-0.33-.66v-2c0-.16.16-0.16,0.33-0.16a0.35,0.35,0,0,0-.33-0.33q0.24-3.45.49-3.45a4.27,4.27,0,0,1-.49-1.81V318.89a2.38,2.38,0,0,0-.33-1.15,3.86,3.86,0,0,0,.33-1.31v-1.48l-0.33-1.64h0.33a0.36,0.36,0,0,0-.33-0.33l0.33-1.48v-3.78l-0.33-1.81,0.33-.66a2.76,2.76,0,0,1-.33-0.82,0.35,0.35,0,0,1,.33-0.33,64.84,64.84,0,0,1-1-8.38v-2a2.37,2.37,0,0,1,.33-1.15,3.09,3.09,0,0,1-.33-1.31l0.33-.49-0.33-.66a13.69,13.69,0,0,0,.33-2.14l-0.33-.66a3.87,3.87,0,0,0,.33-1.31,2.38,2.38,0,0,0-.33-1.15,0.35,0.35,0,0,1,.33-0.33l-0.33-2.14v-3.78a1.41,1.41,0,0,1,1-1h0.49Z" transform="translate(-330.76 -145.93)"/><path class="a" d="M524.82,277.93c2.3,1,6.42,8.21,12.35,21.84,0.83,3.12,2.31,9.86,4.29,20.37h-0.33c1.82,9.69,2.81,16.59,2.82,20.7a0.35,0.35,0,0,1-.33.33l0.33,0.49V343a0.35,0.35,0,0,1-.33.33l0.33,0.49v4.27c0,13.14-2.44,24.15-7.19,32.87-4.1,6.08-8,10.36-12.14,12.5,0-.33-0.49-0.66-1.32-1q0,1-.49,1-1-.24-1-2.46v-2.63a0.35,0.35,0,0,1,.33-0.33,0.35,0.35,0,0,0-.33-0.33l0.33-1.48a3.11,3.11,0,0,0-.33-1.31l0.33-.66a7.9,7.9,0,0,0-.33-0.82,17.2,17.2,0,0,0,.65-4.6l-0.33-1.15a6.52,6.52,0,0,0,.33-1,0.35,0.35,0,0,0-.33-0.33l0.33-1.48v-0.66a27.25,27.25,0,0,1,.32-4.76c-0.17-2-.33-3.94-0.33-5.75,0-1.64.16-4.44,0.32-8.54a3.09,3.09,0,0,1-.33-1.31h0.33l-0.33-.49v-1a0.35,0.35,0,0,1,.33-0.33l-0.33-.49a0.35,0.35,0,0,1,.33-0.33l-0.33-.66v-1.48a3.87,3.87,0,0,1,.33-1.31,2.18,2.18,0,0,1,0-2.3,6.42,6.42,0,0,1-.33-1h0.33l-0.33-.66,0.33-.49a6.42,6.42,0,0,1-.33-1h0.33l-0.33-.66c0-.17.16-0.17,0.33-0.17l-0.33-2.14v-2.46a0.35,0.35,0,0,1,.33-0.33l-0.33-.66v-0.49a0.35,0.35,0,0,1,.33-0.33l-0.33-.66v-0.66c0-.16.16-0.16,0.33-0.16l-0.33-.66v-1.48c0-4.44.16-6.74,0.48-6.74l-0.16-.66V311.61c0-.17,0-0.33.16-0.33l-0.17-.49v-1.48c0-.16,0-0.33.16-0.33,0-.16,0-0.33-0.16-0.33l0.16-1.48v-0.33a5.1,5.1,0,0,0-.17-1.64l0.16-1.81v-3.29a2.36,2.36,0,0,1,.33-1.15,3.9,3.9,0,0,1-.33-1.31v-0.49l0.33-2a3.35,3.35,0,0,1-.33-1.81l0.33-.49-0.33-.66,0.33-2.14-0.33-.66a0.35,0.35,0,0,1,.33-0.33l-0.33-1.48v-2.46c0-.16.16-0.16,0.33-0.16l-0.33-.66c0.16-2.14.32-4.11,0.32-5.75l1-.66h0.66Zm0,4.6,0.17,1.15a12.28,12.28,0,0,0-.16,1.81c0,0.17,0,.33.16,0.33l-0.16,1.48v6.08a0.35,0.35,0,0,1-.33.33l0.33,0.66,0,15c0,0.17-.17.17-0.33,0.17l0.33,0.66v1.81a0.35,0.35,0,0,1-.33.33,0.35,0.35,0,0,0,.33.33l-0.33,1.48c0,0.49.16,0.66,0.33,0.66l-0.33,2.14v6.9l-0.33,1.81a4.86,4.86,0,0,1,.33,1.64,0.35,0.35,0,0,1-.33.33,2.79,2.79,0,0,1,.33.82l-0.33.66,0.33,0.49-0.33.66a3.11,3.11,0,0,1,.33,1.31h-0.33c0,0.16.16,0.16,0.33,0.16l-0.33,1.64,0.33,1.15h-0.33l0.33,0.66v7.56l0.33,1.48h-0.33a0.36,0.36,0,0,0,.33.33l-0.33,1.48v7.89c0,0.66.17,1,.33,1l-0.33,1.48v7.06c0,1.81.17,3.78,0.33,5.75a27.9,27.9,0,0,0-.32,4.93v0.82a0.35,0.35,0,0,1-.33.33,0.35,0.35,0,0,0,.33.33L524.27,377v4.93a0.35,0.35,0,0,1-.33.33,2.78,2.78,0,0,1,.33.82c0,0.49-.16.66-0.33,0.66l0.33,2.13v1.48a2.38,2.38,0,0,1-.33,1.15,6.38,6.38,0,0,1,.33,1H524a4.37,4.37,0,0,1,.33,1.81h0.33c0-.16,1.64-1.81,5.09-4.61,5.09-6.08,7.71-10.36,7.87-12.49,0.82-2.63,1.47-3.95,1.8-4.11l-0.33-.66q0.74-2.46,1-2.46l-0.33-.66c0.82,0,1.47-5.42,2.12-16.1h0.33l-0.33-.49a0.35,0.35,0,0,1,.33-0.33l-0.33-2.14V343.3l-0.33-3.61h0.33l-0.33-.66a135.16,135.16,0,0,0-1.5-14.62v-1.15c-0.49-.33-0.82-2.63-1.16-7.06-0.17,0-.5-1-1-2.79h0.33c-1.49-6.73-2.64-11.66-3.63-15.11-0.49-.49-1.65-2.63-3.13-6.4-3.13-5.91-5.27-9.19-6.09-10H525C525,282.37,525,282.53,524.82,282.53Z" transform="translate(-330.76 -145.93)"/><path class="a" d="M580.54,301.53h-0.33c0.33,0.82.66,4.6,1.16,11.33H581a0.35,0.35,0,0,0,.33.33,23.45,23.45,0,0,1-.49,3.94l0.49,1.15a0.35,0.35,0,0,1-.33.33l1,4.76h-0.33L582,324a0.35,0.35,0,0,1-.33.33l0.33,1.48v1.81l-0.33.66a0.69,0.69,0,0,1,.66.66c-0.16,1.15-.33,1.64-0.33,1.81l0.33,1.15a6.52,6.52,0,0,0-.33,1,2.77,2.77,0,0,1,.33.82,0.35,0.35,0,0,1-.33.33l0.33,2.14v1.48a0.35,0.35,0,0,1-.33.33l0.33,0.66a0.35,0.35,0,0,1-.33.33l0.33,1.48v1c0,0.17-.16.17-0.33,0.17l0.33,0.66v0.33a0.35,0.35,0,0,1-.33.33l0.33,0.66v3.61l0.33,1.81a2.76,2.76,0,0,0-.33.82,0.35,0.35,0,0,0,.33.33l-0.33,2.14v3.61a0.35,0.35,0,0,1-.33.33l0.33,0.66a0.35,0.35,0,0,1-.33.33,0.35,0.35,0,0,0,.33.33L582.08,359v3a0.35,0.35,0,0,1-.33.33l0.33,0.66a0.35,0.35,0,0,1-.33.33,0.35,0.35,0,0,0,.33.33q-0.49,6.41-1,6.41c0,0.16.17,0.16,0.33,0.16l-0.33,1.64v1.81q0,10.6-6.88,17.26a19.89,19.89,0,0,1-5.75,2.47c-4.11,0-6.74-1.47-7.89-4.59-1.48-1.64-2.8-6.73-4-15.44,0-.16,0-0.33.16-0.33l-0.17-1.48c-0.17-4.93-.34-7.72-0.34-8.21h0.33l-0.33-.66,0.33-1.81a0.35,0.35,0,0,0-.33-0.33,2.78,2.78,0,0,1,.33-0.82l-0.67-9.2h0.33l-0.33-.66v-6.08c0-.17.16-0.17,0.33-0.17l-0.33-.66v-4.6c0-1.64.16-3.61,0.32-5.75a0.35,0.35,0,0,0-.33-0.33l0.33-1.48v-1a22.45,22.45,0,0,0-.33-2.63,6.52,6.52,0,0,0,.33-1,2.36,2.36,0,0,1-.33-1.15h0.33a0.35,0.35,0,0,0-.33-0.33,6.48,6.48,0,0,1,.33-1,42.56,42.56,0,0,1-.67-7.88V314a0.35,0.35,0,0,1,.33-0.33l-0.33-.49v-0.33a3.84,3.84,0,0,1,.33-1.31l-0.33-.49c1.3-14,2.77-22.51,4.24-26,2.79-6.08,6.23-9,10.34-9C574.59,276.07,578.05,284.61,580.54,301.53ZM561.3,288.9c-0.65,2.14-1.15,3.29-1.47,3.29l0.33,0.66c-0.82,5.42-1.47,8.22-1.8,8.71a0.35,0.35,0,0,0,.33.33l-0.33,1.48v0.33l0.33,0.66c-0.49,0-.82,1-1,2.79,0,0.17.17,0.16,0.33,0.16l-0.33,2.14v5.26a0.35,0.35,0,0,1-.33.33l0.33,0.49v2.14l0.33,2.13h-0.33l0.33,0.66v2.14a21.06,21.06,0,0,0,.33,2.79,2.78,2.78,0,0,0-.33.82,0.36,0.36,0,0,1,.33.33l-0.66.33,0.33,0.66v4.44a0.35,0.35,0,0,1-.33.33l0.33,0.66v2.14a0.36,0.36,0,0,1-.33.33l0.33,0.49v5.26a0.35,0.35,0,0,1-.33.33c0.17,0.82.33,1.15,0.66,1.15l-0.33,1.48v0.33a3.85,3.85,0,0,0,.33,1.31l-0.33.49a20.93,20.93,0,0,1,.33,2.79v0.33a0.35,0.35,0,0,1-.33.33,11.75,11.75,0,0,1,.66,2.63h-0.33a0.35,0.35,0,0,0,.33.33l-0.33,1.15,0.33,1.64h-0.33a0.35,0.35,0,0,0,.33.33l-0.33,1.48a2.82,2.82,0,0,1,.33.82h-0.33l0.33,0.66a2.37,2.37,0,0,1-.33,1.15,0.35,0.35,0,0,0,.33.33l-0.33,2.14a109,109,0,0,0,1.83,18.56l-0.33.66a23.91,23.91,0,0,0,4.28,8.7l0.66-.17a13,13,0,0,0,3.94.82q5.17-2,6.89-5.43c2.79-5.59,4.25-16.1,4.24-31.38v-1.81a0.35,0.35,0,0,1,.33-0.33c0-.16-0.16-0.16-0.33-0.16l0.33-1.64v-7.23a3.85,3.85,0,0,1,.33-1.31,2.79,2.79,0,0,1-.33-0.82h0.33l-0.33-.66v-0.33c0-.16.16-0.17,0.33-0.17l-0.33-.66v-3.61a36.66,36.66,0,0,0-.67-8.21h0.33a111.51,111.51,0,0,1-1.16-11.83,2.91,2.91,0,0,0,.16-1c0-.17,0-0.33-0.17-0.33l0.16-1.48v-3.12c0-.17.17-0.17,0.33-0.17l-0.33-.66v-0.33a28.52,28.52,0,0,0-.83-6.41h0.33c-1.82-10.84-3.8-18.4-6.1-22.83a20.54,20.54,0,0,1-3.12-.49c-1.48,0-3.78,2-6.57,6.09a5.48,5.48,0,0,1-1.64,3.62Z" transform="translate(-330.76 -145.93)"/><path class="a" d="M457.8,419.19v1.68h-3.93v-1.68h1l-0.75-1.68h-5.37L448,419.19h1v1.68h-3.91v-1.68h1l4.08-9.47h-1.21v-1.67h5v1.67h-1.19l4.08,9.47h1Zm-4.42-3.37-1.94-4.42-2,4.42h3.91Z" transform="translate(-330.76 -145.93)"/><path class="a" d="M470.21,409.88V419h1.27v1.82h-3.35l-5.58-9.71v7.94h1.17v1.79h-4.18v-1.79h1.26v-9.21h-1.26v-1.8l3.45,0,5.46,9.71v-7.94h-1.16v-1.8h4.18v1.8h-1.27Z" transform="translate(-330.76 -145.93)"/><path class="a" d="M485.55,414.5a6.38,6.38,0,0,1-6.32,6.39h-4.78v-1.8h1.34v-9.18h-1.34v-1.82h4.78A6.42,6.42,0,0,1,485.55,414.5Zm-1.82,0a4.59,4.59,0,0,0-4.59-4.59h-1.53v9.18h1.53A4.59,4.59,0,0,0,483.73,414.5Z" transform="translate(-330.76 -145.93)"/><path class="a" d="M535.31,413.63c6.48,0.13,26.36.47,28.82,1.2,0,0.13-23.62.27-34.27,0.27-10.19-.13-20.38-0.27-30.56-0.53a19.6,19.6,0,0,1-2.78-.27c-0.46-.13-0.93-0.4-0.46-0.53a0.89,0.89,0,0,1,.93-0.53c1.39-.13,2.78-0.13,4.17-0.13C515,413.36,521.42,413.36,535.31,413.63Z" transform="translate(-330.76 -145.93)"/><path class="a" d="M428.85,413.09c1.39,0,2.78,0,4.17.13a0.89,0.89,0,0,1,.93.53c0.46,0.13,0,.4-0.46.53a19.6,19.6,0,0,1-2.78.27c-10.19.27-20.38,0.4-30.56,0.53-10.65,0-34.27-.13-34.27-0.27,2.46-.73,22.34-1.07,28.82-1.2C408.58,413.36,415,413.36,428.85,413.09Z" transform="translate(-330.76 -145.93)"/><path class="a" d="M416.69,196l-0.22,3.24v0.11a6.9,6.9,0,0,0-.16,1.54,4.6,4.6,0,0,1-.28,1.59,3.78,3.78,0,0,1-.86,1.36,1.75,1.75,0,0,1-1.27.59,1.91,1.91,0,0,1-1.26-.48,3.69,3.69,0,0,1-.94-1.22,10.1,10.1,0,0,1-.66-1.77,17.1,17.1,0,0,1-.44-2q-0.15-1-.25-2.07-0.14-1.66-.14-2.73t0-1.76q0-1.26.11-2.24t0.08-1.51q0-.53,0-0.89t0.07-.89a8.38,8.38,0,0,1,.15-0.91,4.53,4.53,0,0,1,.27-0.79,2.32,2.32,0,0,1,.43-0.67,1.76,1.76,0,0,1,1.29-.59,3.8,3.8,0,0,1,1.14.14,2.48,2.48,0,0,1,.72.36,2.39,2.39,0,0,1,.54.58,4.78,4.78,0,0,1,.4.69,5,5,0,0,1,.28.81,15.71,15.71,0,0,1,.32,1.71A56.9,56.9,0,0,1,416.69,196Zm-2.25-9.37a2.75,2.75,0,0,0-.62-1,1.06,1.06,0,0,0-.71-0.36,0.84,0.84,0,0,0-.56.18,1.36,1.36,0,0,0-.36.52q-0.15.35-.27,0.74a6.12,6.12,0,0,0-.21,1q-0.08.57-.14,1t-0.1,1.1q0,0.64-.06,1t0,1q0,0.56,0,.75V193a33.22,33.22,0,0,0,.39,4.72q0.77,5.24,2.19,5.24a1.13,1.13,0,0,0,.85-1,9.74,9.74,0,0,0,.49-2.39q0.25-2.44.25-3.53t0-1.57q0-.48,0-1.38t-0.11-1.7q-0.07-.79-0.19-1.76a12.76,12.76,0,0,0-.31-1.71A13.22,13.22,0,0,0,414.45,186.6Z" transform="translate(-330.76 -145.93)"/><path class="a" d="M424,191.21L423.81,193q0,1.3.34,4.76a14.36,14.36,0,0,0,.67,3.94,2,2,0,0,0,1.76.84,2.24,2.24,0,0,0,1.81-.74,2.55,2.55,0,0,0,.81-0.12V202a1.79,1.79,0,0,1-.45,1.26,3.26,3.26,0,0,1-4,.26,3.76,3.76,0,0,1-1.27-1.51,17.64,17.64,0,0,1-.69-4.76q-0.25-3.84-.25-5.91a17.55,17.55,0,0,1,.17-3,4.48,4.48,0,0,1-.07-0.8,3,3,0,0,1,1.17-2.51,4.52,4.52,0,0,1,2.9-.93,2.35,2.35,0,0,1,1.2.34,1,1,0,0,1,.59.91,0.49,0.49,0,0,1-.21.43,1,1,0,0,1-.59.15,0.62,0.62,0,0,1-.57-0.31v0h-0.4v-0.1a2.29,2.29,0,0,0-2.47,1.67,7.71,7.71,0,0,0-.25,2.17Z" transform="translate(-330.76 -145.93)"/><path class="a" d="M437.94,188.83l0,3.3a16.35,16.35,0,0,0,.4,3.92h0a9.39,9.39,0,0,0-.17,1.95l0.21,4.6q0,1.25-.74,1.25a0.66,0.66,0,0,1-.62-0.4,2,2,0,0,1-.2-0.89l0.2-4.09q0-1.32-.17-4t-0.17-4l0-2.24a7.42,7.42,0,0,0-.24-2.39L435,186a0.94,0.94,0,0,1-.58-0.19,0.6,0.6,0,0,1-.26-0.5,0.72,0.72,0,0,1,.61-0.52,6.79,6.79,0,0,1,1.5-.32,23.62,23.62,0,0,1,2.59-.17,0.89,0.89,0,0,1,.57.21,0.64,0.64,0,0,1,.26.52,0.6,0.6,0,0,1-.22.49,0.85,0.85,0,0,1-.55.18l-0.91,0h-0.26A26.76,26.76,0,0,1,437.94,188.83Z" transform="translate(-330.76 -145.93)"/><path class="a" d="M446.19,204.09a0.84,0.84,0,0,1-.65-0.28,0.94,0.94,0,0,1,0-1.32,0.89,0.89,0,0,1,.66-0.3,0.86,0.86,0,0,1,.65.3,1,1,0,0,1,.27.69,0.83,0.83,0,0,1-.29.65A1,1,0,0,1,446.19,204.09Z" transform="translate(-330.76 -145.93)"/><path class="a" d="M457.53,203.64l-3.9.24a1.06,1.06,0,0,1-.65-0.21,0.67,0.67,0,0,1-.29-0.56V203a5.27,5.27,0,0,0,.9-1.68q0.36-1,.51-1.37a38.43,38.43,0,0,0,2.17-5.94,22.82,22.82,0,0,0,.71-5.84q0-3.14-1.22-3.24a1.64,1.64,0,0,0-.58,1.22,0.86,0.86,0,0,1-.76.94,0.63,0.63,0,0,1-.62-0.79,2.87,2.87,0,0,1,.73-2,1.21,1.21,0,0,1,.92-0.42h0a2.2,2.2,0,0,1,1.92.82,3.12,3.12,0,0,1,.56,1.1q0.11,0.49.16,0.77c0,0.19.05,0.44,0.07,0.74s0,0.91,0,1.39a25.92,25.92,0,0,1-.56,5,22.58,22.58,0,0,1-1.42,4.73q-0.15.35-.9,1.84a19.26,19.26,0,0,0-1,2.36,17.43,17.43,0,0,1,2.9-.26L458,203Z" transform="translate(-330.76 -145.93)"/><path class="a" d="M466.9,195.12l0-3.06a4.25,4.25,0,0,1-2.34-1.39,3.72,3.72,0,0,1-.92-2.51q0-3.27,1.4-4.3a1.78,1.78,0,0,1,1.08-.34,2.06,2.06,0,0,1,1.7.58,3,3,0,0,1,.45,1.85q0,2.46-.16,7.39t-0.16,7.39l-0.16,1.84v0.51q0,1-.71,1l-0.54-.47Q466.9,202.44,466.9,195.12Zm-1.82-9c-0.08.42-.14,0.8-0.18,1.14a10.14,10.14,0,0,0-.06,1.09,1.41,1.41,0,0,0,.2.84,1.88,1.88,0,0,0,.35,1.06,2,2,0,0,0,.41.33l0.5,0.24a6.14,6.14,0,0,1,.57.29q0.11-1.95.11-5.22a1.93,1.93,0,0,0-.18-0.92,0.66,0.66,0,0,0-.63-0.33,0.8,0.8,0,0,0-.71.43A3.24,3.24,0,0,0,465.07,186.1Z" transform="translate(-330.76 -145.93)"/><path class="a" d="M475.24,204.09a0.84,0.84,0,0,1-.65-0.28,0.93,0.93,0,0,1-.26-0.65,1,1,0,0,1,.29-0.67,0.89,0.89,0,0,1,.66-0.3,0.85,0.85,0,0,1,.65.3,1,1,0,0,1,.28.69,0.83,0.83,0,0,1-.29.65A1,1,0,0,1,475.24,204.09Z" transform="translate(-330.76 -145.93)"/><path class="a" d="M486.57,203.64l-3.9.24a1.07,1.07,0,0,1-.65-0.21,0.67,0.67,0,0,1-.29-0.56V203a5.29,5.29,0,0,0,.9-1.68q0.36-1,.51-1.37a38.28,38.28,0,0,0,2.17-5.94,22.82,22.82,0,0,0,.71-5.84q0-3.14-1.22-3.24a1.64,1.64,0,0,0-.57,1.22,0.86,0.86,0,0,1-.76.94,0.63,0.63,0,0,1-.62-0.79,2.87,2.87,0,0,1,.72-2,1.21,1.21,0,0,1,.92-0.42h0a2.2,2.2,0,0,1,1.92.82,3.14,3.14,0,0,1,.56,1.1c0.07,0.33.13,0.58,0.16,0.77s0.05,0.44.07,0.74,0,0.91,0,1.39a26,26,0,0,1-.56,5,22.61,22.61,0,0,1-1.42,4.73q-0.15.35-.9,1.84a19.16,19.16,0,0,0-1,2.36,17.44,17.44,0,0,1,2.9-.26L487,203Z" transform="translate(-330.76 -145.93)"/><path class="a" d="M493.07,188.28a8.52,8.52,0,0,1,.33-2.91,1.87,1.87,0,0,1,.95-1.07,2.1,2.1,0,0,1,.77-0.14,1.8,1.8,0,0,1,.89.26,5,5,0,0,1,.68.44,2.25,2.25,0,0,1,.39.41l0.3,0.41a1.69,1.69,0,0,1,.23.47l0.16,0.46a4.2,4.2,0,0,1,.13.53c0,0.25.07,0.41,0.08,0.51q0.12,0.85.16,1.16t0.17,1.31l0.2,1.46q0.06,0.46.16,1.34t0.15,1.47q0.12,1.47.13,2.79,0,6.42-2.81,6.42a1.59,1.59,0,0,1-1.21-.59,4.27,4.27,0,0,1-.85-1.58,19.71,19.71,0,0,1-.54-2.06,19.06,19.06,0,0,1-.32-2.31q-0.15-2-.15-3.42v-5.36Zm1.21,3,0.28,2.5q0,2,.21,4.22,0.42,4.4,1.61,4.4a0.93,0.93,0,0,0,.69-0.76,7.65,7.65,0,0,0,.42-1.85,28.6,28.6,0,0,0,.26-3.24,63,63,0,0,0-.92-8.57,4.36,4.36,0,0,0-.67-1.91,1.28,1.28,0,0,0-.94-0.64,0.91,0.91,0,0,0-.77.42,1.81,1.81,0,0,0-.3,1.08Z" transform="translate(-330.76 -145.93)"/><path class="a" d="M508.33,202.49a8.07,8.07,0,0,1,.94-0.07h0q1.08,0,1.08.64t-2.91.75h-0.76a1.74,1.74,0,0,1-.76-0.14,0.56,0.56,0,0,1-.28-0.56v-0.55l0.9,0.06q0.56,0,.56-0.42,0-3.87-.44-10,0-.54-0.14-1.51-0.2-2.15-.2-3.29l0-.94q0-1.2-.89-1.2l-0.59,0q-0.73,0-.72-0.55t2.06-.67a1.18,1.18,0,0,1,1.13.43,1.3,1.3,0,0,0,0,.54q0,0.45,0,.89t0.19,2a24,24,0,0,1,.19,3q0,1.4.28,5.44t0.28,6.07v0.16Z" transform="translate(-330.76 -145.93)"/><path class="a" d="M519.86,203.22a1.65,1.65,0,0,1-.6.46,2.15,2.15,0,0,1-.94.19,1.65,1.65,0,0,1-1-.27,1.85,1.85,0,0,1-.61-0.67,4.15,4.15,0,0,1-.34-1,6.84,6.84,0,0,1-.17-1.08q0-.48-0.07-1.12c0-.42,0-0.73-0.08-0.92a50.35,50.35,0,0,1-.39-6.11q0-8.82,2.69-8.82a0.62,0.62,0,0,1,.38.16,0.52,0.52,0,0,1,.19.42,0.65,0.65,0,0,1-.29.5,1.52,1.52,0,0,1-.65.31,5.77,5.77,0,0,0-.71,2.67q-0.28,2.22-.35,3.9a3.38,3.38,0,0,1,.59,0,1.43,1.43,0,0,1,.87.4,3.1,3.1,0,0,1,.79,1,7.49,7.49,0,0,1,.53,1.49,15.77,15.77,0,0,1,.34,1.67q0.11,0.79.19,1.74,0.09,1.3.09,2.24t0,1.32a4.4,4.4,0,0,1-.14.82A2,2,0,0,1,519.86,203.22Zm-0.92-6q-0.44-4.3-1.44-4.5a1.15,1.15,0,0,0-.44.58,2.86,2.86,0,0,0-.1.82,58.16,58.16,0,0,0,.61,7c0,0.06,0,.18,0,0.36s0,0.31,0,.39a2.82,2.82,0,0,0,.08.34,0.84,0.84,0,0,0,.15.31,0.8,0.8,0,0,0,.64.27q0.64,0,.64-1.71A38.7,38.7,0,0,0,518.94,197.17Z" transform="translate(-330.76 -145.93)"/><path class="a" d="M525.93,176.92c-0.43,0-.88,0-1.76,0s-1.17,0-1.58,0-0.87,0-1.75,0h-3.33c-0.88,0-1.32,0-1.76,0s-0.78,0-1.56,0a5,5,0,0,1-1.3-.13,9.14,9.14,0,0,0-2-.21,13,13,0,0,0-1.91.13,7.55,7.55,0,0,1-1.41.1h-1.7l-1.62,0a11.12,11.12,0,0,1-1.45-.09,13.74,13.74,0,0,0-1.88-.12,9.76,9.76,0,0,0-2,.18,7.06,7.06,0,0,1-1.35.1,14.3,14.3,0,0,1-1.48-.06,14.55,14.55,0,0,0-1.84-.09h-1.7c-0.4,0-.8,0-1.62,0a15.14,15.14,0,0,1-1.51-.07c-0.42,0-.9-0.07-1.82-0.07s-1.38,0-1.8.07-0.76.06-1.52,0.06a11.08,11.08,0,0,0-1.92.14,8.31,8.31,0,0,1-1.4.09c-0.78,0-1.15,0-1.55,0s-0.88-.06-1.77-0.06-1.21,0-1.61,0-0.86,0-1.71,0a6.21,6.21,0,0,1-1.32-.13,10.08,10.08,0,0,0-2-.19,11.49,11.49,0,0,0-1.95.15,7.86,7.86,0,0,1-1.38.1l-1.58,0c-0.43,0-.87,0-1.74,0s-1.38,0-1.81.07-0.76.06-1.51,0.06l-1.63,0c-0.43,0-.85,0-1.7,0a14.89,14.89,0,0,0-1.83.09,13.63,13.63,0,0,1-1.49.07,3.3,3.3,0,0,1-1.15-.17,6.78,6.78,0,0,0-2.17-.32,12.3,12.3,0,0,0-1.92.12,7.15,7.15,0,0,1-1.41.09,13.41,13.41,0,0,0-1.89.13,10.82,10.82,0,0,1-1.43.09c-0.78,0-1.17,0-1.56,0s-0.88-.06-1.76-0.05-1.35,0-1.79.06-0.76.05-1.53,0.05a9.78,9.78,0,0,1-1.42-.1,11.74,11.74,0,0,0-1.9-.13c-0.88,0-1.33,0-1.77,0s-0.78,0-1.56,0-1.15,0-1.54-.05-0.88-.05-1.78-0.06-1.36,0-1.8.07a13,13,0,0,1-1.52.06c-0.9,0-1.36,0-1.8.06a13.29,13.29,0,0,1-1.52.06c-0.78,0-1.15,0-1.54,0s-0.89-.06-1.78-0.06-1.34,0-1.77.05-0.77,0-1.56,0a10,10,0,0,1-1.44-.09,13.92,13.92,0,0,0-1.88-.12c-0.8,0-1.19,0-1.6,0s-0.86,0-1.72,0h-3.32c-1,0-1.84,0-1.84,1s0.82,0.24,1.84.25l1.69,0c0.4,0,.81,0,1.63,0s1.21,0,1.6,0,0.86,0,1.72,0a9.23,9.23,0,0,1,1.44.09,14.74,14.74,0,0,0,1.88.12c0.88,0,1.33,0,1.76-.06s0.78,0,1.55,0,1.15,0,1.55.05,0.88,0.05,1.78.06,1.35,0,1.79-.07a13.35,13.35,0,0,1,1.53-.06c0.9,0,1.37,0,1.8-.07s0.76-.06,1.52-0.06,1.15,0,1.55.05,0.89,0.06,1.78.06,1.34,0,1.77,0,0.77,0,1.55,0a8.79,8.79,0,0,1,1.42.1,13.16,13.16,0,0,0,1.91.13c0.89,0,1.35,0,1.79-.06s0.77-.05,1.53-0.05,1.17,0,1.57,0,0.88,0,1.76.05a12.65,12.65,0,0,0,1.88-.12,8.82,8.82,0,0,1,1.44-.09,12.1,12.1,0,0,0,1.91-.14,8.83,8.83,0,0,1,1.41-.09,3.53,3.53,0,0,1,1.15.17,6.67,6.67,0,0,0,2.18.32,18.36,18.36,0,0,0,1.84-.08,12.64,12.64,0,0,1,1.49-.07l1.62,0c0.43,0,.85,0,1.7,0s1.38,0,1.81-.06,0.76-.06,1.51-0.06,1.18,0,1.59,0,0.87,0,1.73,0a11.16,11.16,0,0,0,1.95-.15,7.38,7.38,0,0,1,1.38-.1,5.29,5.29,0,0,1,1.33.13,10.11,10.11,0,0,0,2,.19l1.6,0c0.43,0,.86,0,1.72,0s1.15,0,1.56,0,0.89,0.05,1.77,0a11.73,11.73,0,0,0,1.93-.14,7.87,7.87,0,0,1,1.4-.1c0.91,0,1.38,0,1.81-.07s0.76-.05,1.52-0.05,1.13,0,1.51.06,0.9,0.07,1.81.07h3.33a13.54,13.54,0,0,1,1.49.07,17.5,17.5,0,0,0,1.83.09,9.75,9.75,0,0,0,2-.17,6.34,6.34,0,0,1,1.34-.11,9.85,9.85,0,0,1,1.44.08,14.39,14.39,0,0,0,1.88.12c0.85,0,1.28,0,1.7,0s0.82,0,1.63,0a12.87,12.87,0,0,0,1.92-.12,8.27,8.27,0,0,1,1.41-.1,5.4,5.4,0,0,1,1.3.13,8.73,8.73,0,0,0,2,.21c0.87,0,1.32,0,1.75,0s0.78,0,1.57,0h3.33c0.79,0,1.18,0,1.58,0s0.88,0,1.76,0,1.17,0,1.58,0,0.87,0,1.74,0a1.83,1.83,0,0,0,1.39-.62c0.29-.33.46,0,0.46-0.42,0-1-.82-0.25-1.84-0.24C526.71,177,526.33,176.94,525.93,176.92ZM406.1,211.71c0.43,0,.88,0,1.76,0s1.17,0,1.58,0,0.87,0,1.75,0h3.33c0.88,0,1.32,0,1.76,0s0.78,0,1.56,0a5,5,0,0,1,1.3.13,9.14,9.14,0,0,0,2,.21,13,13,0,0,0,1.91-.13,7.55,7.55,0,0,1,1.41-.1h1.7l1.62,0a11.12,11.12,0,0,1,1.45.09,13.74,13.74,0,0,0,1.88.12,9.76,9.76,0,0,0,2-.18,7.06,7.06,0,0,1,1.35-.1,14.3,14.3,0,0,1,1.48.06,14.55,14.55,0,0,0,1.84.09h1.7c0.4,0,.8,0,1.62,0a15.14,15.14,0,0,1,1.51.07c0.42,0,.9.07,1.82,0.07s1.38,0,1.8-.07,0.76-.06,1.52-0.06a11.08,11.08,0,0,0,1.92-.14,8.31,8.31,0,0,1,1.4-.09c0.78,0,1.15,0,1.55,0s0.88,0.06,1.77.06,1.21,0,1.61,0,0.86,0,1.71,0a6.21,6.21,0,0,1,1.32.13,10.08,10.08,0,0,0,2,.19A11.49,11.49,0,0,0,463,212a7.86,7.86,0,0,1,1.38-.1l1.58,0c0.43,0,.87,0,1.74,0s1.38,0,1.81-.07,0.76-.06,1.51-0.06l1.63,0c0.43,0,.85,0,1.7,0a14.89,14.89,0,0,0,1.83-.09,13.63,13.63,0,0,1,1.49-.07,3.3,3.3,0,0,1,1.15.17,6.78,6.78,0,0,0,2.17.32,12.3,12.3,0,0,0,1.92-.12,7.15,7.15,0,0,1,1.41-.09,13.41,13.41,0,0,0,1.89-.13,10.82,10.82,0,0,1,1.43-.09c0.78,0,1.17,0,1.56,0s0.88,0.06,1.76.05,1.35,0,1.79-.06,0.76-.05,1.53-0.05a9.78,9.78,0,0,1,1.42.1,11.74,11.74,0,0,0,1.9.13c0.88,0,1.33,0,1.77,0s0.78,0,1.56,0,1.15,0,1.54.05,0.88,0.05,1.78.06,1.36,0,1.8-.07a13,13,0,0,1,1.52-.06c0.9,0,1.36,0,1.8-.06a13.29,13.29,0,0,1,1.52-.06c0.78,0,1.15,0,1.54,0s0.89,0.06,1.78.06,1.34,0,1.77-.05,0.77,0,1.56,0a10,10,0,0,1,1.44.09,13.92,13.92,0,0,0,1.88.12c0.8,0,1.19,0,1.6,0s0.86,0,1.72,0h3.32c1,0,1.84,0,1.84-1s-0.82-.24-1.84-0.25l-1.69,0c-0.4,0-.81,0-1.63,0s-1.21,0-1.6,0-0.86,0-1.72,0a9.23,9.23,0,0,1-1.44-.09,14.74,14.74,0,0,0-1.88-.12c-0.88,0-1.33,0-1.76.06s-0.78,0-1.55,0-1.15,0-1.55-.05-0.88-.05-1.78-0.06-1.35,0-1.79.07a13.35,13.35,0,0,1-1.53.06c-0.9,0-1.37,0-1.8.07s-0.76.06-1.52,0.06-1.15,0-1.55-.05-0.89-.06-1.78-0.06-1.34,0-1.77,0-0.77,0-1.55,0a8.79,8.79,0,0,1-1.42-.1,13.16,13.16,0,0,0-1.91-.13c-0.89,0-1.35,0-1.79.06s-0.77.05-1.53,0.05-1.17,0-1.57,0-0.88,0-1.76-.05a12.65,12.65,0,0,0-1.88.12,8.82,8.82,0,0,1-1.44.09,12.1,12.1,0,0,0-1.91.14,8.83,8.83,0,0,1-1.41.09,3.53,3.53,0,0,1-1.15-.17,6.67,6.67,0,0,0-2.18-.32,18.36,18.36,0,0,0-1.84.08,12.64,12.64,0,0,1-1.49.07l-1.62,0c-0.43,0-.85,0-1.7,0s-1.38,0-1.81.06-0.76.06-1.51,0.06-1.18,0-1.59,0-0.87,0-1.73,0a11.16,11.16,0,0,0-1.95.15,7.38,7.38,0,0,1-1.38.1,5.29,5.29,0,0,1-1.33-.13,10.11,10.11,0,0,0-2-.19l-1.6,0c-0.43,0-.86,0-1.72,0s-1.15,0-1.56,0-0.89-.05-1.77,0a11.73,11.73,0,0,0-1.93.14,7.87,7.87,0,0,1-1.4.1c-0.91,0-1.38,0-1.81.07s-0.76.05-1.52,0.05-1.13,0-1.51-.06-0.9-.07-1.81-0.07h-3.33a13.54,13.54,0,0,1-1.49-.07,17.5,17.5,0,0,0-1.83-.09,9.75,9.75,0,0,0-2,.17,6.34,6.34,0,0,1-1.34.11,9.85,9.85,0,0,1-1.44-.08,14.39,14.39,0,0,0-1.88-.12c-0.85,0-1.28,0-1.7,0s-0.82,0-1.63,0a12.87,12.87,0,0,0-1.92.12,8.27,8.27,0,0,1-1.41.1,5.4,5.4,0,0,1-1.3-.13,8.73,8.73,0,0,0-2-.21c-0.87,0-1.32,0-1.75,0s-0.78,0-1.57,0h-3.33c-0.79,0-1.18,0-1.58,0s-0.88,0-1.76,0-1.17,0-1.58,0-0.87,0-1.74,0a1.83,1.83,0,0,0-1.39.62c-0.29.33-.46,0-0.46,0.42,0,1,.82.25,1.84,0.24C405.31,211.67,405.7,211.68,406.1,211.71Zm-3-34.9c-0.1.34-.61,0-1,1.46a2.55,2.55,0,0,0,.09,1.35,5,5,0,0,1,.07,1,9.44,9.44,0,0,0,.09,1.33,7.62,7.62,0,0,1,.06,1c0,0.55,0,.82,0,1.1s0,0.62,0,1.24,0,0.95,0,1.26,0,0.54,0,1.08a6.89,6.89,0,0,1-.07,1,8.27,8.27,0,0,0-.09,1.34c0,0.62,0,.94,0,1.25s0,0.55,0,1.1,0,0.81,0,1.08,0,0.62,0,1.25,0,1,0,1.27a9.12,9.12,0,0,1,0,1.07c0,0.64,0,1,0,1.27a9.36,9.36,0,0,1,0,1.07c0,0.55,0,.81,0,1.09s0,0.63,0,1.25,0,0.94,0,1.25,0,0.54,0,1.1a7,7,0,0,1-.06,1,9.8,9.8,0,0,0-.08,1.32c0,0.56,0,.84,0,1.13s0,0.61,0,1.21,0,0.9,0,1.18,0,0.58,0,1.16,0,0.93.7,0.93,0.2-.21.21-0.93,0-.89,0-1.19,0-.57,0-1.15,0-.85,0-1.13,0-.6,0-1.21a6.5,6.5,0,0,1,.06-1,10.38,10.38,0,0,0,.08-1.32c0-.62,0-0.94,0-1.24s0-.55,0-1.09,0-.81,0-1.09,0-.62,0-1.25,0-.95,0-1.26a9.4,9.4,0,0,1,0-1.07c0-.63,0-1,0-1.27s0-.53,0-1.07,0-.81,0-1.09,0-.62,0-1.25,0-.94,0-1.25,0-.54,0-1.09a6.19,6.19,0,0,1,.07-1,9.27,9.27,0,0,0,.09-1.34c0-.63,0-0.95,0-1.26s0-.54,0-1.08,0-.82,0-1.1,0-.62,0-1.24a8.91,8.91,0,0,0-.08-1.33,6.21,6.21,0,0,1-.06-1,8.52,8.52,0,0,0-.1-1.34c0-.27.06-0.59,0.06-1.09s0.14-.15.21-0.41Zm125.48,1c0.07,0.25.2,0,.21,0.41s0.1,0.82.06,1.09a8.52,8.52,0,0,0-.1,1.34,6.21,6.21,0,0,1-.06,1,8.91,8.91,0,0,0-.08,1.33c0,0.62,0,.94,0,1.24s0,0.55,0,1.1,0,0.8,0,1.08,0,0.63,0,1.26a9.27,9.27,0,0,0,.09,1.34,6.19,6.19,0,0,1,.07,1c0,0.55,0,.81,0,1.09s0,0.62,0,1.25,0,0.94,0,1.25,0,0.54,0,1.09,0,0.79,0,1.07,0,0.64,0,1.27a9.4,9.4,0,0,1,0,1.07c0,0.31-.05.63,0,1.26s0,0.95,0,1.25,0,0.54,0,1.09,0,0.81,0,1.09,0,0.62,0,1.24a10.38,10.38,0,0,0,.08,1.32,6.5,6.5,0,0,1,.06,1c0,0.61,0,.91,0,1.21s0,0.56,0,1.13,0,0.86,0,1.15,0,0.6,0,1.19-0.51.93,0.21,0.93,0.7-.21.7-0.93,0-.87,0-1.16,0-.59,0-1.18,0-.91,0-1.21,0-.56,0-1.13a9.8,9.8,0,0,0-.08-1.32,7,7,0,0,1-.06-1c0-.55,0-0.81,0-1.1s0-.62,0-1.25,0-.95,0-1.25,0-.54,0-1.09a9.36,9.36,0,0,1,0-1.07c0-.31,0-0.63,0-1.27a9.12,9.12,0,0,1,0-1.07c0-.31.05-0.63,0-1.27s0-.95,0-1.25,0-.55,0-1.08,0-.82,0-1.1,0-.62,0-1.25a8.27,8.27,0,0,0-.09-1.34,6.89,6.89,0,0,1-.07-1c0-.54,0-0.8,0-1.08s0-.63,0-1.26,0-.93,0-1.24,0-.55,0-1.1a7.62,7.62,0,0,1,.06-1,9.44,9.44,0,0,0,.09-1.33,5,5,0,0,1,.07-1,2.55,2.55,0,0,0,.09-1.35c-0.39-1.46-.9-1.12-1-1.46Z" transform="translate(-330.76 -145.93)"/><path class="a" d="M418.46,638.87l-0.61,0a0.52,0.52,0,0,0-.43.18v7.62l1.3-.07q1.37,0,1.37.65v0.08a1.13,1.13,0,0,1-.57.52,2.21,2.21,0,0,1-.71.2q-0.3,0-.8,0h-0.77a1.31,1.31,0,0,1-1.16-.36,0.9,0.9,0,0,1-.1-0.45V629.43l2.13-.22a1.48,1.48,0,0,1,.75.22,0.66,0.66,0,0,1,.38.58q0,0.74-1.12.74l-0.71,0h-0.27l0.19,4.07q0,0.5-.06,1.44t-0.06,1.38l0.36-.08a3.37,3.37,0,0,1,.79-0.13,0.73,0.73,0,0,1,.51.21,0.65,0.65,0,0,1,.22.49,0.81,0.81,0,0,1-.18.52A0.57,0.57,0,0,1,418.46,638.87Z" transform="translate(-330.76 -145.93)"/><path class="a" d="M430.11,629.47q0.48,3.46,1,9t0.53,8.58a0.72,0.72,0,0,1-.81.83,0.65,0.65,0,0,1-.81-0.64V644a3.49,3.49,0,0,0-1.25-.41,14,14,0,0,0-1.6-.22,5.82,5.82,0,0,0-.46,2.07,5.61,5.61,0,0,1-.52,2.15q-1.19,0-1.31-.49,0.55-.81,2.25-10.29,0.66-3.75.8-4.35,0.66-3.18,1.43-3.18a1.16,1.16,0,0,1,.74.22v0Zm-0.1,13q0-.45-0.24-2.66-0.54-5.67-.54-6.33t0-.73a23.3,23.3,0,0,0-.69,3.5q-0.55,3.33-.62,3.62c0,0.19-.12.46-0.23,0.79a6.9,6.9,0,0,0-.35,1.62,6.73,6.73,0,0,0,1.7.28A4.43,4.43,0,0,0,430,642.52Z" transform="translate(-330.76 -145.93)"/><path class="a" d="M437,647.62a0.54,0.54,0,0,1,.55-0.66,2,2,0,0,1,.73.19,2.1,2.1,0,0,0,.78.19,1,1,0,0,0,.72-0.42,3,3,0,0,0,.6-1,7,7,0,0,0,.45-2.3,7.59,7.59,0,0,0-.36-2.22,14,14,0,0,0-.89-2.22l-1-2.07a10.23,10.23,0,0,1-1.24-4.51,3.87,3.87,0,0,1,1.22-3,2.23,2.23,0,0,1,1.53-.58,1.7,1.7,0,0,1,.87.25,1.35,1.35,0,0,1,.59.64v0.53a2.69,2.69,0,0,1-1.39-.24,1.2,1.2,0,0,0-.8.43,2.5,2.5,0,0,0-.61,1.67,7.33,7.33,0,0,0,.28,2,14.1,14.1,0,0,0,.66,1.89q0.39,0.89.78,1.65t0.67,1.24a5.76,5.76,0,0,1,.28.51v0.19q0.08,0.31.29,1l0.33,1.07a7.42,7.42,0,0,1,.3,2,6.46,6.46,0,0,1-.81,3.18A3.28,3.28,0,0,1,440.4,648a2.29,2.29,0,0,1-1.25.45,6.7,6.7,0,0,1-1-.06,2.6,2.6,0,0,1-.8-0.27A0.59,0.59,0,0,1,437,647.62Z" transform="translate(-330.76 -145.93)"/><path class="a" d="M450.85,633.57l0,3.18a15.76,15.76,0,0,0,.39,3.79h0a9,9,0,0,0-.17,1.88l0.21,4.44q0,1.21-.71,1.21a0.63,0.63,0,0,1-.6-0.39,1.89,1.89,0,0,1-.19-0.86l0.19-3.94q0-1.28-.17-3.85t-0.17-3.85l0-2.16a7.17,7.17,0,0,0-.23-2.3l-1.34.13a0.91,0.91,0,0,1-.56-0.19,0.58,0.58,0,0,1-.25-0.48,0.69,0.69,0,0,1,.59-0.51,6.53,6.53,0,0,1,1.45-.31,22.51,22.51,0,0,1,2.5-.17,0.86,0.86,0,0,1,.55.2,0.62,0.62,0,0,1,.25.5,0.58,0.58,0,0,1-.22.48,0.81,0.81,0,0,1-.53.17l-0.88,0h-0.25A25.87,25.87,0,0,1,450.85,633.57Z" transform="translate(-330.76 -145.93)"/><path class="a" d="M463.89,640.46l-0.22,3.12v0.11a6.72,6.72,0,0,0-.16,1.48,4.42,4.42,0,0,1-.27,1.54,3.64,3.64,0,0,1-.83,1.31,1.69,1.69,0,0,1-1.22.57,1.85,1.85,0,0,1-1.21-.46,3.56,3.56,0,0,1-.9-1.18,9.61,9.61,0,0,1-.63-1.71,16.25,16.25,0,0,1-.42-1.94q-0.15-.95-0.24-2-0.13-1.6-.13-2.63t0-1.69c0-.81.07-1.53,0.11-2.16s0.06-1.12.07-1.45,0-.62,0-0.86,0-.52.07-0.86a7.71,7.71,0,0,1,.14-0.87,4.34,4.34,0,0,1,.26-0.76,2.27,2.27,0,0,1,.42-0.65,1.71,1.71,0,0,1,1.24-.57,3.66,3.66,0,0,1,1.1.13,2.37,2.37,0,0,1,.69.34,2.33,2.33,0,0,1,.52.55,4.15,4.15,0,0,1,.66,1.45,15,15,0,0,1,.31,1.65A55.06,55.06,0,0,1,463.89,640.46Zm-2.17-9a2.65,2.65,0,0,0-.6-1,1,1,0,0,0-.69-0.34,0.82,0.82,0,0,0-.54.17,1.32,1.32,0,0,0-.35.51c-0.1.23-.18,0.46-0.26,0.72a5.52,5.52,0,0,0-.2.93c-0.05.37-.1,0.7-0.14,1s-0.07.65-.1,1.06l-0.06,1c0,0.26,0,.57,0,0.93s0,0.6,0,.72v0.51a32.19,32.19,0,0,0,.37,4.56q0.75,5.05,2.11,5.05a1.09,1.09,0,0,0,.82-0.92,9.42,9.42,0,0,0,.47-2.31q0.24-2.35.24-3.41t0-1.51q0-.46,0-1.33c0-.58-0.05-1.13-0.1-1.64s-0.11-1.08-.18-1.69a12.34,12.34,0,0,0-.3-1.65A12.14,12.14,0,0,0,461.72,631.42Z" transform="translate(-330.76 -145.93)"/><path class="a" d="M476.29,630.5l-0.1,9.13v7.55a0.9,0.9,0,0,1-.48.86,1.11,1.11,0,0,1-.52.13,0.81,0.81,0,0,1-.41-0.08,0.62,0.62,0,0,1-.21-0.21,1.34,1.34,0,0,1-.13-0.3,2.42,2.42,0,0,1-.08-0.34q-0.13-.88-0.92-3.69a75.65,75.65,0,0,1-1.94-8.14,1,1,0,0,1,0-.23c0-.1,0-0.18,0-0.24a0.81,0.81,0,0,0-.13-0.43,4.6,4.6,0,0,0-.21-1.3q-0.22-.79-0.25-0.95v15.62H470v-0.46a2.64,2.64,0,0,0,0-.76,13.27,13.27,0,0,1-.06-1.37q0-.8-0.16-3.66t-0.16-3.51V635l0.17-4.53a2,2,0,0,1,.13-1,1.06,1.06,0,0,1,.65-0.24,1.12,1.12,0,0,1,.52.1,0.7,0.7,0,0,1,.42.64,3.49,3.49,0,0,0,.1.81,8.42,8.42,0,0,0,.28.9c0.12,0.33.21,0.59,0.25,0.77a6,6,0,0,1,.13.62c0,0.23.06,0.44,0.08,0.63q0.08,0.93.21,1.6t0.49,2q0.36,1.33.69,2.36a19.42,19.42,0,0,1,.93,4.71,2.33,2.33,0,0,1,.24.88l0.07-8.61v-7.31a0.74,0.74,0,0,1,.81-0.61q0.67,0,.67,1v0.15A1.64,1.64,0,0,0,476.29,630.5Z" transform="translate(-330.76 -145.93)"/><path class="a" d="M485.16,646.81l0,0.17a3.74,3.74,0,0,1-.31,1.35,4.79,4.79,0,0,1-.86,1.4,1.49,1.49,0,0,1-1.07.61h-0.74v-0.87l0.48-.41a2.24,2.24,0,0,0,.89-1.11,1.41,1.41,0,0,1-.71-1.09,1.05,1.05,0,0,1,.38-0.87,1.31,1.31,0,0,1,.83-0.3,0.92,0.92,0,0,1,.71.27,2.25,2.25,0,0,1,.43.77v0.08Z" transform="translate(-330.76 -145.93)"/><path class="a" d="M501.79,642.79q1.66-9.46,2-13.18v-0.14a0.78,0.78,0,0,1,.32-0.51,0.89,0.89,0,0,1,.52-0.19,0.66,0.66,0,0,1,.39.1,0.62,0.62,0,0,1,.29.53q0,2.93.16,8.78t0.16,8.78a1.44,1.44,0,0,1-.49,1.16q-0.27.18-.33,0.07-0.5.13-.55-0.21a2.19,2.19,0,0,1,0-.36v-0.4q0-1.88,0-2.94t0-2.93q0-1.87,0-7.09-0.13.77-.56,2.91t-0.58,3.11q-0.16,1-.25,1.62t-0.19,1.16q-0.09.51-.22,1-0.28,1.12-.8,1.12-0.77,0-.77-2.3-0.14-1.18-.79-4.73t-0.87-4.88q0,2.29,0,3.44L499.39,647a1.31,1.31,0,0,1-.37.93,0.85,0.85,0,0,1-.83-0.41,2.39,2.39,0,0,1-.22-1.11l0.08-4.12L498,632.75q0-1.6,0-3.2l0.69-.39q0.69,0.07,1.53,4.34,0.68,3.38,1.1,6.22T501.79,642.79Z" transform="translate(-330.76 -145.93)"/><path class="a" d="M511.68,636.07l0.07-2.7a8.72,8.72,0,0,0-.11-1.65,7.55,7.55,0,0,0-.27-1,2.25,2.25,0,0,1-.16-0.69,0.73,0.73,0,0,1,.1-0.39,0.65,0.65,0,0,1,.29-0.25,2.69,2.69,0,0,1,.37-0.14,2.29,2.29,0,0,1,.46-0.08l0.66,0h0.24a3.27,3.27,0,0,1,2.16,1.08,5.36,5.36,0,0,1,1.69,2.77,12.73,12.73,0,0,1,.24,1.91c0,0.7.07,1.17,0.08,1.4a4.25,4.25,0,0,0,.19,1.08v1.15a1.56,1.56,0,0,0-.13.75,11.43,11.43,0,0,1-.86,4.09,8.78,8.78,0,0,1-2.12,3.38,7.27,7.27,0,0,1-1.27,1,1.52,1.52,0,0,1-.65.16,1.42,1.42,0,0,1-.69-0.21,0.68,0.68,0,0,1-.37-0.63q0.54-.57.54-2.91,0-1.37-.23-4.09T511.68,636.07Zm1.64,8.1v2.36q1.92-1.35,2.69-5a19.34,19.34,0,0,0,.39-3.89q0-6.93-3.42-6.93v0q0,2.29.17,6.78T513.32,644.17Z" transform="translate(-330.76 -145.93)"/></svg>